<?xml version="1.0" encoding="utf-8"?>
<!-- Generator: Adobe Illustrator 24.3.0, SVG Export Plug-In . SVG Version: 6.00 Build 0)  -->
<svg version="1.1" id="Layer_1" xmlns="http://www.w3.org/2000/svg" xmlns:xlink="http://www.w3.org/1999/xlink" x="0px" y="0px"
	 viewBox="0 0 1200 1200" style="enable-background:new 0 0 1200 1200;" xml:space="preserve">
<style type="text/css">
	.st0{fill:#FF0013;}
	.st1{fill:none;stroke:#FF0013;stroke-width:37.0301;stroke-miterlimit:10;}
</style>
<g>
	<path class="st0" d="M298.1,459.1c12.9-38.3,33.8-74.6,62.6-108.9c18.7,14.1,35.2,29.6,49.4,46.4c24,28.2,41.8,64.5,53.6,108.8
		l-6.3,5.4c-29.1,24.7-6.5,80.9,68,168.6c77,90.7,130,123.6,159.1,98.9l6.3-5.4c42.9,15.2,76.6,37.3,101.1,66.1
		c15,17.7,26.5,37.9,34.4,60.7c-35.1,21-74.2,35.6-117.2,43.7c-45.2-25.2-88.3-55-129.3-89.4c-41.1-34.4-80.1-73.3-117.1-116.9
		c-37.7-44.4-70.3-89.8-97.6-136C337.7,554.7,315.4,507.4,298.1,459.1z M373.7,339.1l14-11.8c18-15.3,33.7-21.9,47.1-19.8
		c13.4,2.1,28.9,13.5,46.5,34.2c48.9,57.6,52.4,104.3,10.3,140l-13.5,11.5c-8.4-40.4-26.3-76.6-53.6-108.8
		C409.2,366.3,392.3,351.2,373.7,339.1z M707.5,758.7l10.8-9.2c44.7-38,91.2-28.6,139.4,28.2c18.3,21.6,27.2,39.3,26.7,52.9
		c-0.6,13.6-10.9,29-31,46.1l-12.6,10.7c-9.9-25.1-21.7-45.6-35.2-61.5C779.8,795.5,747.1,773.1,707.5,758.7z"/>
	<circle class="st1" cx="600" cy="601" r="561.5"/>
</g>
</svg>
