<?xml version="1.0" encoding="utf-8"?>
<!-- Generator: Adobe Illustrator 24.3.0, SVG Export Plug-In . SVG Version: 6.00 Build 0)  -->
<svg version="1.1" id="Layer_1" xmlns="http://www.w3.org/2000/svg" xmlns:xlink="http://www.w3.org/1999/xlink" x="0px" y="0px"
	 viewBox="0 0 1920 534.57" style="enable-background:new 0 0 1920 534.57;" xml:space="preserve">
<style type="text/css">
	.st0{fill:#FFFFFF;}
</style>
<g>
	<g>
		<g>
			<path class="st0" d="M115.34,383.48c5.07-15.62,9.91-30.49,14.74-45.36c5.51-16.99,10.98-34,16.59-50.96
				c0.58-1.77,0.27-2.59-1.15-3.61c-12.71-9.16-25.38-18.4-38.06-27.61c-14.01-10.18-28.02-20.36-42.02-30.54
				c-0.42-0.31-0.8-0.67-1.67-1.42c1.46,0,2.33,0,3.19,0c32.59,0,65.19-0.01,97.78,0.03c1.66,0,2.6-0.28,3.19-2.11
				c7.92-24.65,15.93-49.27,23.92-73.9c2.35-7.23,4.7-14.45,7.3-22.42c0.59,1.47,0.98,2.3,1.26,3.16c9.86,30.4,19.7,60.8,29.55,91.2
				c1.31,4.05,1.3,4.05,5.67,4.05c31.69,0,63.38,0,95.08,0c1.13,0,2.27,0,3.92,0c-0.71,0.67-1.05,1.05-1.45,1.34
				c-26.55,19.3-53.09,38.62-79.7,57.84c-1.86,1.35-2.22,2.47-1.52,4.61c9.02,27.49,17.95,55,26.9,82.51
				c1.36,4.18,2.71,8.37,4.28,13.26c-4.49-3.24-8.4-6.03-12.29-8.86c-23.3-16.93-46.61-33.86-69.87-50.84
				c-1.29-0.94-2.16-0.94-3.44-0.01c-26.33,19.18-52.7,38.32-79.05,57.47C117.66,381.91,116.79,382.48,115.34,383.48z"/>
		</g>
	</g>
	<g>
		<g>
			<path class="st0" d="M511.06,383.48c5.07-15.62,9.91-30.49,14.74-45.36c5.51-16.99,10.98-34,16.59-50.96
				c0.58-1.77,0.27-2.59-1.15-3.61c-12.71-9.16-25.38-18.4-38.06-27.61c-14.01-10.18-28.02-20.36-42.02-30.54
				c-0.42-0.31-0.8-0.67-1.67-1.42c1.46,0,2.33,0,3.19,0c32.59,0,65.19-0.01,97.78,0.03c1.66,0,2.6-0.28,3.19-2.11
				c7.92-24.65,15.93-49.27,23.92-73.9c2.35-7.23,4.7-14.45,7.3-22.42c0.59,1.47,0.98,2.3,1.26,3.16c9.86,30.4,19.7,60.8,29.55,91.2
				c1.31,4.05,1.3,4.05,5.67,4.05c31.69,0,63.38,0,95.08,0c1.13,0,2.27,0,3.92,0c-0.71,0.67-1.05,1.05-1.45,1.34
				c-26.55,19.3-53.09,38.62-79.7,57.84c-1.86,1.35-2.22,2.47-1.52,4.61c9.02,27.49,17.95,55,26.9,82.51
				c1.36,4.18,2.71,8.37,4.28,13.26c-4.49-3.24-8.4-6.03-12.29-8.86c-23.3-16.93-46.61-33.86-69.87-50.84
				c-1.29-0.94-2.16-0.94-3.44-0.01c-26.33,19.18-52.7,38.32-79.05,57.47C513.37,381.91,512.5,382.48,511.06,383.48z"/>
		</g>
	</g>
	<g>
		<g>
			<path class="st0" d="M895.63,383.48c5.07-15.62,9.91-30.49,14.74-45.36c5.51-16.99,10.98-34,16.59-50.96
				c0.58-1.77,0.27-2.59-1.15-3.61c-12.71-9.16-25.38-18.4-38.06-27.61c-14.01-10.18-28.02-20.36-42.02-30.54
				c-0.42-0.31-0.8-0.67-1.67-1.42c1.46,0,2.33,0,3.19,0c32.59,0,65.19-0.01,97.78,0.03c1.66,0,2.6-0.28,3.19-2.11
				c7.92-24.65,15.93-49.27,23.92-73.9c2.35-7.23,4.7-14.45,7.3-22.42c0.59,1.47,0.98,2.3,1.26,3.16c9.86,30.4,19.7,60.8,29.55,91.2
				c1.31,4.05,1.3,4.05,5.67,4.05c31.69,0,63.38,0,95.08,0c1.13,0,2.27,0,3.92,0c-0.71,0.67-1.05,1.05-1.45,1.34
				c-26.55,19.3-53.09,38.62-79.7,57.84c-1.86,1.35-2.22,2.47-1.52,4.61c9.02,27.49,17.95,55,26.9,82.51
				c1.36,4.18,2.71,8.37,4.28,13.26c-4.49-3.24-8.4-6.03-12.29-8.86c-23.3-16.93-46.61-33.86-69.87-50.84
				c-1.29-0.94-2.16-0.94-3.44-0.01c-26.33,19.18-52.7,38.32-79.05,57.47C897.94,381.91,897.07,382.48,895.63,383.48z"/>
		</g>
	</g>
	<g>
		<g>
			<path class="st0" d="M1274.62,383.48c5.07-15.62,9.91-30.49,14.74-45.36c5.51-16.99,10.98-34,16.59-50.96
				c0.58-1.77,0.27-2.59-1.15-3.61c-12.71-9.16-25.38-18.4-38.06-27.61c-14.01-10.18-28.02-20.36-42.02-30.54
				c-0.42-0.31-0.8-0.67-1.67-1.42c1.46,0,2.33,0,3.19,0c32.59,0,65.19-0.01,97.78,0.03c1.66,0,2.6-0.28,3.19-2.11
				c7.92-24.65,15.93-49.27,23.92-73.9c2.35-7.23,4.7-14.45,7.3-22.42c0.59,1.47,0.98,2.3,1.26,3.16c9.86,30.4,19.7,60.8,29.55,91.2
				c1.31,4.05,1.3,4.05,5.67,4.05c31.69,0,63.38,0,95.08,0c1.13,0,2.27,0,3.92,0c-0.71,0.67-1.05,1.05-1.45,1.34
				c-26.55,19.3-53.09,38.62-79.7,57.84c-1.86,1.35-2.22,2.47-1.52,4.61c9.02,27.49,17.95,55,26.9,82.51
				c1.36,4.18,2.71,8.37,4.28,13.26c-4.49-3.24-8.4-6.03-12.29-8.86c-23.3-16.93-46.61-33.86-69.87-50.84
				c-1.29-0.94-2.16-0.94-3.44-0.01c-26.33,19.18-52.7,38.32-79.05,57.47C1276.93,381.91,1276.06,382.48,1274.62,383.48z"/>
		</g>
	</g>
	<g>
		<g>
			<path class="st0" d="M1653.61,383.48c5.07-15.62,9.91-30.49,14.74-45.36c5.51-16.99,10.98-34,16.59-50.96
				c0.58-1.77,0.27-2.59-1.15-3.61c-12.71-9.16-25.38-18.4-38.06-27.61c-14.01-10.18-28.02-20.36-42.02-30.54
				c-0.42-0.31-0.8-0.67-1.67-1.42c1.46,0,2.33,0,3.19,0c32.59,0,65.19-0.01,97.78,0.03c1.66,0,2.6-0.28,3.19-2.11
				c7.92-24.65,15.93-49.27,23.92-73.9c2.35-7.23,4.7-14.45,7.3-22.42c0.59,1.47,0.98,2.3,1.26,3.16c9.86,30.4,19.7,60.8,29.55,91.2
				c1.31,4.05,1.3,4.05,5.67,4.05c31.69,0,63.38,0,95.08,0c1.13,0,2.27,0,3.92,0c-0.71,0.67-1.05,1.05-1.45,1.34
				c-26.55,19.3-53.09,38.62-79.7,57.84c-1.86,1.35-2.22,2.47-1.52,4.61c9.02,27.49,17.95,55,26.9,82.51
				c1.36,4.18,2.71,8.37,4.28,13.26c-4.49-3.24-8.4-6.03-12.29-8.86c-23.3-16.93-46.6-33.86-69.87-50.84
				c-1.29-0.94-2.16-0.94-3.44-0.01c-26.33,19.18-52.7,38.32-79.05,57.47C1655.93,381.91,1655.06,382.48,1653.61,383.48z"/>
		</g>
	</g>
</g>
</svg>
