<?xml version="1.0" encoding="utf-8"?>
<!-- Generator: Adobe Illustrator 24.3.0, SVG Export Plug-In . SVG Version: 6.00 Build 0)  -->
<svg version="1.1" id="Layer_1" xmlns="http://www.w3.org/2000/svg" xmlns:xlink="http://www.w3.org/1999/xlink" x="0px" y="0px"
	 viewBox="0 0 952.06 558.96" style="enable-background:new 0 0 952.06 558.96;" xml:space="preserve">
<style type="text/css">
	.st0{fill:#0969B7;}
	.st1{opacity:0.2;}
	.st2{fill:#FFFFFF;fill-opacity:0;}
	.st3{opacity:9.900990e-03;fill:#FCFCFC;enable-background:new    ;}
	.st4{opacity:0.0198;fill:#FAFAFA;enable-background:new    ;}
	.st5{opacity:0.0297;fill:#F7F7F7;enable-background:new    ;}
	.st6{opacity:0.0396;fill:#F5F5F5;enable-background:new    ;}
	.st7{opacity:0.0495;fill:#F2F2F2;enable-background:new    ;}
	.st8{opacity:0.0594;fill:#F0F0F0;enable-background:new    ;}
	.st9{opacity:0.0693;fill:#EDEDED;enable-background:new    ;}
	.st10{opacity:0.0792;fill:#EBEBEB;enable-background:new    ;}
	.st11{opacity:0.0891;fill:#E8E8E8;enable-background:new    ;}
	.st12{opacity:0.099;fill:#E6E6E6;enable-background:new    ;}
	.st13{opacity:0.1089;fill:#E3E3E3;enable-background:new    ;}
	.st14{opacity:0.1188;fill:#E1E1E1;enable-background:new    ;}
	.st15{opacity:0.1287;fill:#DEDEDE;enable-background:new    ;}
	.st16{opacity:0.1386;fill:#DCDCDC;enable-background:new    ;}
	.st17{opacity:0.1485;fill:#D9D9D9;enable-background:new    ;}
	.st18{opacity:0.1584;fill:#D7D7D7;enable-background:new    ;}
	.st19{opacity:0.1683;fill:#D4D4D4;enable-background:new    ;}
	.st20{opacity:0.1782;fill:#D2D2D2;enable-background:new    ;}
	.st21{opacity:0.1881;fill:#CFCFCF;enable-background:new    ;}
	.st22{opacity:0.198;fill:#CDCDCD;enable-background:new    ;}
	.st23{opacity:0.2079;fill:#CACACA;enable-background:new    ;}
	.st24{opacity:0.2178;fill:#C7C7C7;enable-background:new    ;}
	.st25{opacity:0.2277;fill:#C5C5C5;enable-background:new    ;}
	.st26{opacity:0.2376;fill:#C2C2C2;enable-background:new    ;}
	.st27{opacity:0.2475;fill:#C0C0C0;enable-background:new    ;}
	.st28{opacity:0.2574;fill:#BDBDBD;enable-background:new    ;}
	.st29{opacity:0.2673;fill:#BBBBBB;enable-background:new    ;}
	.st30{opacity:0.2772;fill:#B8B8B8;enable-background:new    ;}
	.st31{opacity:0.2871;fill:#B6B6B6;enable-background:new    ;}
	.st32{opacity:0.297;fill:#B3B3B3;enable-background:new    ;}
	.st33{opacity:0.3069;fill:#B1B1B1;enable-background:new    ;}
	.st34{opacity:0.3168;fill:#AEAEAE;enable-background:new    ;}
	.st35{opacity:0.3267;fill:#ACACAC;enable-background:new    ;}
	.st36{opacity:0.3366;fill:#A9A9A9;enable-background:new    ;}
	.st37{opacity:0.3465;fill:#A7A7A7;enable-background:new    ;}
	.st38{opacity:0.3564;fill:#A4A4A4;enable-background:new    ;}
	.st39{opacity:0.3663;fill:#A2A2A2;enable-background:new    ;}
	.st40{opacity:0.3762;fill:#9F9F9F;enable-background:new    ;}
	.st41{opacity:0.3861;fill:#9D9D9D;enable-background:new    ;}
	.st42{opacity:0.396;fill:#9A9A9A;enable-background:new    ;}
	.st43{opacity:0.4059;fill:#979797;enable-background:new    ;}
	.st44{opacity:0.4158;fill:#959595;enable-background:new    ;}
	.st45{opacity:0.4257;fill:#929292;enable-background:new    ;}
	.st46{opacity:0.4356;fill:#909090;enable-background:new    ;}
	.st47{opacity:0.4455;fill:#8D8D8D;enable-background:new    ;}
	.st48{opacity:0.4554;fill:#8B8B8B;enable-background:new    ;}
	.st49{opacity:0.4653;fill:#888888;enable-background:new    ;}
	.st50{opacity:0.4752;fill:#868686;enable-background:new    ;}
	.st51{opacity:0.4851;fill:#838383;enable-background:new    ;}
	.st52{opacity:0.495;fill:#818181;enable-background:new    ;}
	.st53{opacity:0.505;fill:#7E7E7E;enable-background:new    ;}
	.st54{opacity:0.5149;fill:#7C7C7C;enable-background:new    ;}
	.st55{opacity:0.5248;fill:#797979;enable-background:new    ;}
	.st56{opacity:0.5347;fill:#777777;enable-background:new    ;}
	.st57{opacity:0.5446;fill:#747474;enable-background:new    ;}
	.st58{opacity:0.5545;fill:#727272;enable-background:new    ;}
	.st59{opacity:0.5644;fill:#6F6F6F;enable-background:new    ;}
	.st60{opacity:0.5743;fill:#6D6D6D;enable-background:new    ;}
	.st61{opacity:0.5842;fill:#6A6A6A;enable-background:new    ;}
	.st62{opacity:0.5941;fill:#686868;enable-background:new    ;}
	.st63{opacity:0.604;fill:#656565;enable-background:new    ;}
	.st64{opacity:0.6139;fill:#626262;enable-background:new    ;}
	.st65{opacity:0.6238;fill:#606060;enable-background:new    ;}
	.st66{opacity:0.6337;fill:#5D5D5D;enable-background:new    ;}
	.st67{opacity:0.6436;fill:#5B5B5B;enable-background:new    ;}
	.st68{opacity:0.6535;fill:#585858;enable-background:new    ;}
	.st69{opacity:0.6634;fill:#565656;enable-background:new    ;}
	.st70{opacity:0.6733;fill:#535353;enable-background:new    ;}
	.st71{opacity:0.6832;fill:#515151;enable-background:new    ;}
	.st72{opacity:0.6931;fill:#4E4E4E;enable-background:new    ;}
	.st73{opacity:0.703;fill:#4C4C4C;enable-background:new    ;}
	.st74{opacity:0.7129;fill:#494949;enable-background:new    ;}
	.st75{opacity:0.7228;fill:#474747;enable-background:new    ;}
	.st76{opacity:0.7327;fill:#444444;enable-background:new    ;}
	.st77{opacity:0.7426;fill:#424242;enable-background:new    ;}
	.st78{opacity:0.7525;fill:#3F3F3F;enable-background:new    ;}
	.st79{opacity:0.7624;fill:#3D3D3D;enable-background:new    ;}
	.st80{opacity:0.7723;fill:#3A3A3A;enable-background:new    ;}
	.st81{opacity:0.7822;fill:#383838;enable-background:new    ;}
	.st82{opacity:0.7921;fill:#353535;enable-background:new    ;}
	.st83{opacity:0.802;fill:#323232;enable-background:new    ;}
	.st84{opacity:0.8119;fill:#303030;enable-background:new    ;}
	.st85{opacity:0.8218;fill:#2D2D2D;enable-background:new    ;}
	.st86{opacity:0.8317;fill:#2B2B2B;enable-background:new    ;}
	.st87{opacity:0.8416;fill:#282828;enable-background:new    ;}
	.st88{opacity:0.8515;fill:#262626;enable-background:new    ;}
	.st89{opacity:0.8614;fill:#232323;enable-background:new    ;}
	.st90{opacity:0.8713;fill:#212121;enable-background:new    ;}
	.st91{opacity:0.8812;fill:#1E1E1E;enable-background:new    ;}
	.st92{opacity:0.8911;fill:#1C1C1C;enable-background:new    ;}
	.st93{opacity:0.901;fill:#191919;enable-background:new    ;}
	.st94{opacity:0.9109;fill:#171717;enable-background:new    ;}
	.st95{opacity:0.9208;fill:#141414;enable-background:new    ;}
	.st96{opacity:0.9307;fill:#121212;enable-background:new    ;}
	.st97{opacity:0.9406;fill:#0F0F0F;enable-background:new    ;}
	.st98{opacity:0.9505;fill:#0D0D0D;enable-background:new    ;}
	.st99{opacity:0.9604;fill:#0A0A0A;enable-background:new    ;}
	.st100{opacity:0.9703;fill:#080808;enable-background:new    ;}
	.st101{opacity:0.9802;fill:#050505;enable-background:new    ;}
	.st102{opacity:0.9901;fill:#030303;enable-background:new    ;}
	.st103{fill:url(#SVGID_1_);}
	.st104{fill:#F9F9F9;}
	.st105{fill:#262626;}
	.st106{fill:url(#SVGID_2_);}
</style>
<g>
	<g>
		<path class="st0" d="M859.69,148.47h-289.8c-36.65,0-66.47,29.82-66.47,66.47v20.43c0,1.06,0.86,1.93,1.93,1.93
			s1.93-0.86,1.93-1.93v-20.43c0-34.53,28.09-62.61,62.61-62.61h289.8c34.53,0,62.61,28.09,62.61,62.61V451.5
			c0,34.53-28.09,62.61-62.61,62.61h-289.8c-34.53,0-62.61-28.09-62.61-62.61v-34.22c0-1.06-0.86-1.93-1.93-1.93
			s-1.93,0.86-1.93,1.93v34.22c0,36.65,29.82,66.47,66.47,66.47h289.8c36.65,0,66.47-29.82,66.47-66.47V214.94
			C926.16,178.29,896.34,148.47,859.69,148.47z"/>
	</g>
	<path class="st0" d="M515.3,269.39c0-5.58-4.54-10.12-10.12-10.12s-10.12,4.54-10.12,10.12c0,4.98,3.62,9.12,8.36,9.95V388.9
		c0,15.41-12.53,27.94-27.94,27.94s-27.94-12.53-27.94-27.94V215.35c0-36.65-29.82-66.47-66.47-66.47H91.27
		c-36.65,0-66.47,29.82-66.47,66.47v236.56c0,36.65,29.82,66.47,66.47,66.47h289.8c36.65,0,66.47-29.82,66.47-66.47v-29.83
		c0-1.06-0.86-1.93-1.93-1.93c-1.06,0-1.93,0.86-1.93,1.93v29.83c0,34.53-28.09,62.61-62.61,62.61H91.27
		c-34.53,0-62.61-28.09-62.61-62.61V215.35c0-34.53,28.09-62.61,62.61-62.61h289.8c34.53,0,62.61,28.09,62.61,62.61V388.9
		c0,17.53,14.26,31.8,31.8,31.8s31.8-14.26,31.8-31.8V279.28C511.85,278.31,515.3,274.25,515.3,269.39z M505.18,276.22
		c-3.77,0-6.83-3.06-6.83-6.83s3.06-6.83,6.83-6.83s6.83,3.06,6.83,6.83C512.01,273.15,508.94,276.22,505.18,276.22z"/>
	<path class="st0" d="M230.59,150.05l-125.01-0.82c0.45-68.27,56.74-124.19,125.01-124.19c68.58,0,125.01,56.43,125.01,125.01
		L230.59,150.05L230.59,150.05z"/>
	<g class="st1">
		<path class="st2" d="M215.22,233.12c1.26,51.16,42.51,92.39,93.68,93.62c54.5,1.31,99.48-43.48,98.39-97.99
			c-0.73-36.75-22.1-68.43-52.99-83.94c-6.59-3.31-13.61-5.89-20.96-7.61c-6.48-1.53-13.22-2.4-20.14-2.54
			C258.66,133.57,213.87,178.58,215.22,233.12z"/>
		<path class="st3" d="M214.43,232.33c1.26,51.16,42.51,92.39,93.68,93.62c54.5,1.31,99.48-43.48,98.39-97.98
			c-0.73-36.75-22.1-68.43-52.99-83.94c-6.59-3.31-13.61-5.89-20.96-7.61c-6.48-1.53-13.22-2.4-20.14-2.54
			C257.87,132.79,213.08,177.79,214.43,232.33z"/>
		<path class="st4" d="M213.64,231.54c1.26,51.16,42.51,92.39,93.68,93.62c54.5,1.31,99.48-43.48,98.39-97.99
			c-0.73-36.75-22.1-68.43-52.99-83.94c-6.59-3.31-13.61-5.89-20.96-7.61c-6.48-1.53-13.22-2.4-20.14-2.54
			C257.09,132,212.3,177,213.64,231.54z"/>
		<path class="st5" d="M212.85,230.76c1.26,51.16,42.51,92.39,93.68,93.62c54.5,1.31,99.48-43.48,98.39-97.98
			c-0.73-36.75-22.1-68.43-52.99-83.94c-6.59-3.31-13.61-5.89-20.96-7.61c-6.48-1.53-13.22-2.4-20.14-2.54
			C256.3,131.21,211.51,176.22,212.85,230.76z"/>
		<path class="st6" d="M212.07,229.97c1.26,51.16,42.51,92.39,93.68,93.62c54.5,1.31,99.48-43.48,98.39-97.98
			c-0.73-36.75-22.1-68.43-52.99-83.94c-6.59-3.31-13.61-5.89-20.96-7.61c-6.48-1.53-13.22-2.4-20.14-2.54
			C255.51,130.43,210.72,175.43,212.07,229.97z"/>
		<path class="st7" d="M211.28,229.18c1.26,51.16,42.51,92.39,93.68,93.62c54.5,1.31,99.48-43.48,98.39-97.99
			c-0.73-36.75-22.1-68.43-52.99-83.94c-6.59-3.31-13.61-5.89-20.96-7.61c-6.48-1.53-13.22-2.4-20.14-2.54
			C254.73,129.64,209.94,174.64,211.28,229.18z"/>
		<path class="st8" d="M210.49,228.39c1.26,51.16,42.51,92.39,93.68,93.62c54.5,1.31,99.48-43.48,98.39-97.98
			c-0.73-36.75-22.1-68.43-52.99-83.94c-6.59-3.31-13.61-5.89-20.96-7.61c-6.48-1.53-13.22-2.4-20.14-2.54
			C253.94,128.85,209.15,173.85,210.49,228.39z"/>
		<path class="st9" d="M209.71,227.61c1.26,51.16,42.51,92.39,93.68,93.62c54.5,1.31,99.48-43.48,98.39-97.98
			c-0.73-36.75-22.1-68.43-52.99-83.94c-6.59-3.31-13.61-5.89-20.96-7.61c-6.48-1.53-13.22-2.4-20.14-2.54
			C253.15,128.06,208.36,173.07,209.71,227.61z"/>
		<path class="st10" d="M208.92,226.82c1.26,51.16,42.51,92.39,93.68,93.62c54.5,1.31,99.48-43.48,98.39-97.99
			c-0.73-36.75-22.1-68.43-52.99-83.94c-6.59-3.31-13.61-5.89-20.96-7.61c-6.48-1.53-13.22-2.4-20.14-2.54
			C252.36,127.28,207.58,172.28,208.92,226.82z"/>
		<path class="st11" d="M208.13,226.03c1.26,51.16,42.51,92.39,93.68,93.62c54.5,1.31,99.48-43.48,98.39-97.98
			c-0.73-36.75-22.1-68.43-52.99-83.94c-6.59-3.31-13.61-5.89-20.96-7.61c-6.48-1.53-13.22-2.4-20.14-2.54
			C251.58,126.49,206.79,171.49,208.13,226.03z"/>
		<path class="st12" d="M207.35,225.25c1.26,51.16,42.51,92.39,93.68,93.62c54.5,1.31,99.48-43.48,98.39-97.98
			c-0.73-36.75-22.1-68.43-52.99-83.94c-6.59-3.31-13.61-5.89-20.96-7.61c-6.48-1.53-13.22-2.4-20.14-2.54
			C250.79,125.7,206,170.71,207.35,225.25z"/>
		<path class="st13" d="M206.56,224.46c1.26,51.16,42.51,92.39,93.68,93.62c54.5,1.31,99.48-43.48,98.39-97.99
			c-0.73-36.75-22.1-68.43-52.99-83.94c-6.59-3.31-13.61-5.89-20.96-7.61c-6.48-1.53-13.22-2.4-20.14-2.54
			C250,124.92,205.21,169.92,206.56,224.46z"/>
		<path class="st14" d="M205.77,223.67c1.26,51.16,42.51,92.39,93.68,93.62c54.5,1.31,99.48-43.48,98.39-97.98
			c-0.73-36.75-22.1-68.43-52.99-83.94c-6.59-3.31-13.61-5.89-20.96-7.61c-6.48-1.53-13.22-2.4-20.14-2.54
			C249.22,124.13,204.43,169.13,205.77,223.67z"/>
		<path class="st15" d="M204.98,222.89c1.26,51.16,42.51,92.39,93.68,93.62c54.5,1.31,99.48-43.48,98.39-97.98
			c-0.73-36.75-22.1-68.43-52.99-83.94c-6.59-3.31-13.61-5.89-20.96-7.61c-6.48-1.53-13.22-2.4-20.14-2.54
			C248.43,123.34,203.64,168.35,204.98,222.89z"/>
		<path class="st16" d="M204.2,222.1c1.26,51.16,42.51,92.39,93.68,93.62c54.5,1.31,99.48-43.48,98.39-97.99
			c-0.73-36.75-22.1-68.43-52.99-83.94c-6.59-3.31-13.61-5.89-20.96-7.61c-6.48-1.53-13.22-2.4-20.14-2.54
			C247.64,122.56,202.85,167.56,204.2,222.1z"/>
		<path class="st17" d="M203.41,221.31c1.26,51.16,42.51,92.39,93.68,93.62c54.5,1.31,99.48-43.48,98.39-97.98
			c-0.73-36.75-22.1-68.43-52.99-83.94c-6.59-3.31-13.61-5.89-20.96-7.61c-6.48-1.53-13.22-2.4-20.14-2.54
			C246.86,121.77,202.07,166.77,203.41,221.31z"/>
		<path class="st18" d="M202.62,220.52c1.26,51.16,42.51,92.39,93.68,93.62c54.5,1.31,99.48-43.48,98.39-97.98
			c-0.73-36.75-22.1-68.43-52.99-83.94c-6.59-3.31-13.61-5.89-20.96-7.61c-6.48-1.53-13.22-2.4-20.14-2.54
			C246.07,120.98,201.28,165.98,202.62,220.52z"/>
		<path class="st19" d="M201.84,219.74c1.26,51.16,42.51,92.39,93.68,93.62c54.5,1.31,99.48-43.48,98.39-97.99
			c-0.73-36.75-22.1-68.43-52.99-83.94c-6.59-3.31-13.61-5.89-20.96-7.61c-6.48-1.53-13.22-2.4-20.14-2.54
			C245.28,120.19,200.49,165.2,201.84,219.74z"/>
		<path class="st20" d="M201.05,218.95c1.26,51.16,42.51,92.39,93.68,93.62c54.5,1.31,99.48-43.48,98.39-97.98
			c-0.73-36.75-22.1-68.43-52.99-83.94c-6.59-3.31-13.61-5.89-20.96-7.61c-6.48-1.53-13.22-2.4-20.14-2.54
			C244.49,119.41,199.71,164.41,201.05,218.95z"/>
		<path class="st21" d="M200.26,218.16c1.26,51.16,42.51,92.39,93.68,93.62c54.5,1.31,99.48-43.48,98.39-97.99
			c-0.73-36.75-22.1-68.43-52.99-83.94c-6.59-3.31-13.61-5.89-20.96-7.61c-6.48-1.53-13.22-2.4-20.14-2.54
			C243.71,118.62,198.92,163.62,200.26,218.16z"/>
		<path class="st22" d="M199.48,217.38c1.26,51.16,42.51,92.39,93.68,93.62c54.5,1.31,99.48-43.48,98.39-97.99
			c-0.73-36.75-22.1-68.43-52.99-83.94c-6.59-3.31-13.61-5.89-20.96-7.61c-6.48-1.53-13.22-2.4-20.14-2.54
			C242.92,117.83,198.13,162.84,199.48,217.38z"/>
		<path class="st23" d="M198.69,216.59c1.26,51.16,42.51,92.39,93.68,93.62c54.5,1.31,99.48-43.48,98.39-97.98
			c-0.73-36.75-22.1-68.43-52.99-83.94c-6.59-3.31-13.61-5.89-20.96-7.61c-6.48-1.53-13.22-2.4-20.14-2.54
			C242.13,117.05,197.34,162.05,198.69,216.59z"/>
		<path class="st24" d="M197.9,215.8c1.26,51.16,42.51,92.39,93.68,93.62c54.5,1.31,99.48-43.48,98.39-97.99
			c-0.73-36.75-22.1-68.43-52.99-83.94c-6.59-3.31-13.61-5.89-20.96-7.61c-6.48-1.53-13.22-2.4-20.14-2.54
			C241.35,116.26,196.56,161.26,197.9,215.8z"/>
		<path class="st25" d="M197.12,215.02c1.26,51.16,42.51,92.39,93.68,93.62c54.5,1.31,99.48-43.48,98.39-97.99
			c-0.73-36.75-22.1-68.43-52.99-83.94c-6.59-3.31-13.61-5.89-20.96-7.61c-6.48-1.53-13.22-2.4-20.14-2.54
			C240.56,115.47,195.77,160.48,197.12,215.02z"/>
		<path class="st26" d="M196.33,214.23c1.26,51.16,42.51,92.39,93.68,93.62c54.5,1.31,99.48-43.48,98.39-97.98
			c-0.73-36.75-22.1-68.43-52.99-83.94c-6.59-3.31-13.61-5.89-20.96-7.61c-6.48-1.53-13.22-2.4-20.14-2.54
			C239.77,114.69,194.98,159.69,196.33,214.23z"/>
		<path class="st27" d="M195.54,213.44c1.26,51.16,42.51,92.39,93.68,93.62c54.5,1.31,99.48-43.48,98.39-97.99
			c-0.73-36.75-22.1-68.43-52.99-83.94c-6.59-3.31-13.61-5.89-20.96-7.61c-6.48-1.53-13.22-2.4-20.14-2.54
			C238.99,113.9,194.2,158.9,195.54,213.44z"/>
		<path class="st28" d="M194.75,212.65c1.26,51.16,42.51,92.39,93.68,93.62c54.5,1.31,99.48-43.48,98.39-97.99
			c-0.73-36.75-22.1-68.43-52.99-83.94c-6.59-3.31-13.61-5.89-20.96-7.61c-6.48-1.53-13.22-2.4-20.14-2.54
			C238.2,113.11,193.41,158.11,194.75,212.65z"/>
		<path class="st29" d="M193.97,211.87c1.26,51.16,42.51,92.39,93.68,93.62c54.5,1.31,99.48-43.48,98.39-97.98
			c-0.73-36.75-22.1-68.43-52.99-83.94c-6.59-3.31-13.61-5.89-20.96-7.61c-6.48-1.53-13.22-2.4-20.14-2.54
			C237.41,112.33,192.62,157.33,193.97,211.87z"/>
		<path class="st30" d="M193.18,211.08c1.26,51.16,42.51,92.39,93.68,93.62c54.5,1.31,99.48-43.48,98.39-97.99
			c-0.73-36.75-22.1-68.43-52.99-83.94c-6.59-3.31-13.61-5.89-20.96-7.61c-6.48-1.53-13.22-2.4-20.14-2.54
			C236.62,111.54,191.84,156.54,193.18,211.08z"/>
		<path class="st31" d="M192.39,210.29c1.26,51.16,42.51,92.39,93.68,93.62c54.5,1.31,99.48-43.48,98.39-97.99
			c-0.73-36.75-22.1-68.43-52.99-83.94c-6.59-3.31-13.61-5.89-20.96-7.61c-6.48-1.53-13.22-2.4-20.14-2.54
			C235.84,110.75,191.05,155.75,192.39,210.29z"/>
		<path class="st32" d="M191.61,209.51c1.26,51.16,42.51,92.39,93.68,93.62c54.5,1.31,99.48-43.48,98.39-97.98
			c-0.73-36.75-22.1-68.43-52.99-83.94c-6.59-3.31-13.61-5.89-20.96-7.61c-6.48-1.53-13.22-2.4-20.14-2.54
			C235.05,109.96,190.26,154.97,191.61,209.51z"/>
		<path class="st33" d="M190.82,208.72c1.26,51.16,42.51,92.39,93.68,93.62c54.5,1.31,99.48-43.48,98.39-97.99
			c-0.73-36.75-22.1-68.43-52.99-83.94c-6.59-3.31-13.61-5.89-20.96-7.61c-6.48-1.53-13.22-2.4-20.14-2.54
			C234.26,109.18,189.47,154.18,190.82,208.72z"/>
		<path class="st34" d="M190.03,207.93c1.26,51.16,42.51,92.39,93.68,93.62c54.5,1.31,99.48-43.48,98.39-97.99
			c-0.73-36.75-22.1-68.43-52.99-83.94c-6.59-3.31-13.61-5.89-20.96-7.61c-6.48-1.53-13.22-2.4-20.14-2.54
			C233.48,108.39,188.69,153.39,190.03,207.93z"/>
		<path class="st35" d="M189.25,207.15c1.26,51.16,42.51,92.39,93.68,93.62c54.5,1.31,99.48-43.48,98.39-97.99
			c-0.73-36.75-22.1-68.43-52.99-83.94c-6.59-3.31-13.61-5.89-20.96-7.61c-6.48-1.53-13.22-2.4-20.14-2.54
			C232.69,107.6,187.9,152.61,189.25,207.15z"/>
		<path class="st36" d="M188.46,206.36c1.26,51.16,42.51,92.39,93.68,93.62c54.5,1.31,99.48-43.48,98.39-97.99
			c-0.73-36.75-22.1-68.43-52.99-83.94c-6.59-3.31-13.61-5.89-20.96-7.61c-6.48-1.53-13.22-2.4-20.14-2.54
			C231.9,106.82,187.11,151.82,188.46,206.36z"/>
		<path class="st37" d="M187.67,205.57c1.26,51.16,42.51,92.39,93.68,93.62c54.5,1.31,99.48-43.48,98.39-97.99
			c-0.73-36.75-22.1-68.43-52.99-83.94c-6.59-3.31-13.61-5.89-20.96-7.61c-6.48-1.53-13.22-2.4-20.14-2.54
			C231.12,106.03,186.33,151.03,187.67,205.57z"/>
		<path class="st38" d="M186.88,204.79c1.26,51.16,42.51,92.39,93.68,93.62c54.5,1.31,99.48-43.48,98.39-97.99
			c-0.73-36.75-22.1-68.43-52.99-83.94c-6.59-3.31-13.61-5.89-20.96-7.61c-6.48-1.53-13.22-2.4-20.14-2.54
			C230.33,105.24,185.54,150.25,186.88,204.79z"/>
		<path class="st39" d="M186.1,204c1.26,51.16,42.51,92.39,93.68,93.62c54.5,1.31,99.48-43.48,98.39-97.99
			c-0.73-36.75-22.1-68.43-52.99-83.94c-6.59-3.31-13.61-5.89-20.96-7.61c-6.48-1.53-13.22-2.4-20.14-2.54
			C229.54,104.46,184.75,149.46,186.1,204z"/>
		<path class="st40" d="M185.31,203.21c1.26,51.16,42.51,92.39,93.68,93.62c54.5,1.31,99.48-43.48,98.39-97.99
			c-0.73-36.75-22.1-68.43-52.99-83.94c-6.59-3.31-13.61-5.89-20.96-7.61c-6.48-1.53-13.22-2.4-20.14-2.54
			C228.75,103.67,183.97,148.67,185.31,203.21z"/>
		<path class="st41" d="M184.52,202.42c1.26,51.16,42.51,92.39,93.68,93.62c54.5,1.31,99.48-43.48,98.39-97.99
			c-0.73-36.75-22.1-68.43-52.99-83.94c-6.59-3.31-13.61-5.89-20.96-7.61c-6.48-1.53-13.22-2.4-20.14-2.54
			C227.97,102.88,183.18,147.88,184.52,202.42z"/>
		<path class="st42" d="M183.74,201.64c1.26,51.16,42.51,92.39,93.68,93.62c54.5,1.31,99.48-43.48,98.39-97.99
			c-0.73-36.75-22.1-68.43-52.99-83.94c-6.59-3.31-13.61-5.89-20.96-7.61c-6.48-1.53-13.22-2.4-20.14-2.54
			C227.18,102.09,182.39,147.1,183.74,201.64z"/>
		<path class="st43" d="M182.95,200.85c1.26,51.16,42.51,92.39,93.68,93.62c54.5,1.31,99.48-43.48,98.39-97.99
			c-0.73-36.75-22.1-68.43-52.99-83.94c-6.59-3.31-13.61-5.89-20.96-7.61c-6.48-1.53-13.22-2.4-20.14-2.54
			C226.39,101.31,181.6,146.31,182.95,200.85z"/>
		<path class="st44" d="M182.16,200.06c1.26,51.16,42.51,92.39,93.68,93.62c54.5,1.31,99.48-43.48,98.39-97.99
			c-0.73-36.75-22.1-68.43-52.99-83.94c-6.59-3.31-13.61-5.89-20.96-7.61c-6.48-1.53-13.22-2.4-20.14-2.54
			C225.61,100.52,180.82,145.52,182.16,200.06z"/>
		<path class="st45" d="M181.38,199.28c1.26,51.16,42.51,92.39,93.68,93.62c54.5,1.31,99.48-43.48,98.39-97.99
			c-0.73-36.75-22.1-68.43-52.99-83.94c-6.59-3.31-13.61-5.89-20.96-7.61c-6.48-1.53-13.22-2.4-20.14-2.54
			C224.82,99.73,180.03,144.74,181.38,199.28z"/>
		<path class="st46" d="M180.59,198.49c1.26,51.16,42.51,92.39,93.68,93.62c54.5,1.31,99.48-43.48,98.39-97.99
			c-0.73-36.75-22.1-68.43-52.99-83.94c-6.59-3.31-13.61-5.89-20.96-7.61c-6.48-1.53-13.22-2.4-20.14-2.54
			C224.03,98.95,179.24,143.95,180.59,198.49z"/>
		<path class="st47" d="M179.8,197.7c1.26,51.16,42.51,92.39,93.68,93.62c54.5,1.31,99.48-43.48,98.39-97.99
			c-0.73-36.75-22.1-68.43-52.99-83.94c-6.59-3.31-13.61-5.89-20.96-7.61c-6.48-1.53-13.22-2.4-20.14-2.54
			C223.25,98.16,178.46,143.16,179.8,197.7z"/>
		<path class="st48" d="M179.01,196.92c1.26,51.16,42.51,92.39,93.68,93.62c54.5,1.31,99.48-43.48,98.39-97.99
			c-0.73-36.75-22.1-68.43-52.99-83.94c-6.59-3.31-13.61-5.89-20.96-7.61c-6.48-1.53-13.22-2.4-20.14-2.54
			C222.46,97.37,177.67,142.38,179.01,196.92z"/>
		<path class="st49" d="M178.23,196.13c1.26,51.16,42.51,92.39,93.68,93.62c54.5,1.31,99.48-43.48,98.39-97.99
			c-0.73-36.75-22.1-68.43-52.99-83.94c-6.59-3.31-13.61-5.89-20.96-7.61c-6.48-1.53-13.22-2.4-20.14-2.54
			C221.67,96.59,176.88,141.59,178.23,196.13z"/>
		<path class="st50" d="M177.44,195.34c1.26,51.16,42.51,92.39,93.68,93.62c54.5,1.31,99.48-43.48,98.39-97.99
			c-0.73-36.75-22.1-68.43-52.99-83.94c-6.59-3.31-13.61-5.89-20.96-7.61c-6.48-1.53-13.22-2.4-20.14-2.54
			C220.89,95.8,176.1,140.8,177.44,195.34z"/>
		<path class="st51" d="M176.65,194.55c1.26,51.16,42.51,92.39,93.68,93.62c54.5,1.31,99.48-43.48,98.39-97.99
			c-0.73-36.75-22.1-68.43-52.99-83.94c-6.59-3.31-13.61-5.89-20.96-7.61c-6.48-1.53-13.22-2.4-20.14-2.54
			C220.1,95.01,175.31,140.01,176.65,194.55z"/>
		<path class="st52" d="M175.87,193.77c1.26,51.16,42.51,92.39,93.68,93.62c54.5,1.31,99.48-43.48,98.39-97.99
			c-0.73-36.75-22.1-68.43-52.99-83.94c-6.59-3.31-13.61-5.89-20.96-7.61c-6.48-1.53-13.22-2.4-20.14-2.54
			C219.31,94.22,174.52,139.23,175.87,193.77z"/>
		<path class="st53" d="M175.08,192.98c1.26,51.16,42.51,92.39,93.68,93.62c54.5,1.31,99.48-43.48,98.39-97.99
			c-0.73-36.75-22.1-68.43-52.99-83.94c-6.59-3.31-13.61-5.89-20.96-7.61c-6.48-1.53-13.22-2.4-20.14-2.54
			C218.52,93.44,173.73,138.44,175.08,192.98z"/>
		<path class="st54" d="M174.29,192.19c1.26,51.16,42.51,92.39,93.68,93.62c54.5,1.31,99.48-43.48,98.39-97.99
			c-0.73-36.75-22.1-68.43-52.99-83.94c-6.59-3.31-13.61-5.89-20.96-7.61c-6.48-1.53-13.22-2.4-20.14-2.54
			C217.74,92.65,172.95,137.65,174.29,192.19z"/>
		<path class="st55" d="M173.51,191.41c1.26,51.16,42.51,92.39,93.68,93.62c54.5,1.31,99.48-43.48,98.39-97.99
			c-0.73-36.75-22.1-68.43-52.99-83.94c-6.59-3.31-13.61-5.89-20.96-7.61c-6.48-1.53-13.22-2.4-20.14-2.54
			C216.95,91.86,172.16,136.87,173.51,191.41z"/>
		<path class="st56" d="M172.72,190.62c1.26,51.16,42.51,92.39,93.68,93.62c54.5,1.31,99.48-43.48,98.39-97.99
			c-0.73-36.75-22.1-68.43-52.99-83.94c-6.59-3.31-13.61-5.89-20.96-7.61c-6.48-1.53-13.22-2.4-20.14-2.54
			C216.16,91.08,171.37,136.08,172.72,190.62z"/>
		<path class="st57" d="M171.93,189.83c1.26,51.16,42.51,92.39,93.68,93.62c54.5,1.31,99.48-43.48,98.39-97.99
			c-0.73-36.75-22.1-68.43-52.99-83.94c-6.59-3.31-13.61-5.89-20.96-7.61c-6.48-1.53-13.22-2.4-20.14-2.54
			C215.38,90.29,170.59,135.29,171.93,189.83z"/>
		<path class="st58" d="M171.14,189.05c1.26,51.16,42.51,92.39,93.68,93.62c54.5,1.31,99.48-43.48,98.39-97.99
			c-0.73-36.75-22.1-68.43-52.99-83.94c-6.59-3.31-13.61-5.89-20.96-7.61c-6.48-1.53-13.22-2.4-20.14-2.54
			C214.59,89.5,169.8,134.51,171.14,189.05z"/>
		<path class="st59" d="M170.36,188.26c1.26,51.16,42.51,92.39,93.68,93.62c54.5,1.31,99.48-43.48,98.39-97.99
			c-0.73-36.75-22.1-68.43-52.99-83.94c-6.59-3.31-13.61-5.89-20.96-7.61c-6.48-1.53-13.22-2.4-20.14-2.54
			C213.8,88.72,169.01,133.72,170.36,188.26z"/>
		<path class="st60" d="M169.57,187.47c1.26,51.16,42.51,92.39,93.68,93.62c54.5,1.31,99.48-43.48,98.39-97.99
			c-0.73-36.75-22.1-68.43-52.99-83.94c-6.59-3.31-13.61-5.89-20.96-7.61c-6.48-1.53-13.22-2.4-20.14-2.54
			C213.02,87.93,168.23,132.93,169.57,187.47z"/>
		<path class="st61" d="M168.78,186.69c1.26,51.16,42.51,92.39,93.68,93.62c54.5,1.31,99.48-43.48,98.39-97.99
			c-0.73-36.75-22.1-68.43-52.99-83.94c-6.59-3.31-13.61-5.89-20.96-7.61c-6.48-1.53-13.22-2.4-20.14-2.54
			C212.23,87.14,167.44,132.15,168.78,186.69z"/>
		<path class="st62" d="M168,185.9c1.26,51.16,42.51,92.39,93.68,93.62c54.5,1.31,99.48-43.48,98.39-97.99
			c-0.73-36.75-22.1-68.43-52.99-83.94c-6.59-3.31-13.61-5.89-20.96-7.61c-6.48-1.53-13.22-2.4-20.14-2.54
			C211.44,86.35,166.65,131.36,168,185.9z"/>
		<path class="st63" d="M167.21,185.11c1.26,51.16,42.51,92.39,93.68,93.62c54.5,1.31,99.48-43.48,98.39-97.99
			c-0.73-36.75-22.1-68.43-52.99-83.94c-6.59-3.31-13.61-5.89-20.96-7.61c-6.48-1.53-13.22-2.4-20.14-2.54
			C210.65,85.57,165.87,130.57,167.21,185.11z"/>
		<path class="st64" d="M166.42,184.32c1.26,51.16,42.51,92.39,93.68,93.62c54.5,1.31,99.48-43.48,98.39-97.99
			c-0.73-36.75-22.1-68.43-52.99-83.94c-6.59-3.31-13.61-5.89-20.96-7.61c-6.48-1.53-13.22-2.4-20.14-2.54
			C209.87,84.78,165.08,129.78,166.42,184.32z"/>
		<path class="st65" d="M165.64,183.54c1.26,51.16,42.51,92.39,93.68,93.62c54.5,1.31,99.48-43.48,98.39-97.99
			c-0.73-36.75-22.1-68.43-52.99-83.94c-6.59-3.31-13.61-5.89-20.96-7.61c-6.48-1.53-13.22-2.4-20.14-2.54
			C209.08,83.99,164.29,129,165.64,183.54z"/>
		<path class="st66" d="M164.85,182.75c1.26,51.16,42.51,92.39,93.68,93.62c54.5,1.31,99.48-43.48,98.39-97.99
			c-0.73-36.75-22.1-68.43-52.99-83.94c-6.59-3.31-13.61-5.89-20.96-7.61c-6.48-1.53-13.22-2.4-20.14-2.54
			C208.29,83.21,163.5,128.21,164.85,182.75z"/>
		<path class="st67" d="M164.06,181.96c1.26,51.16,42.51,92.39,93.68,93.62c54.5,1.31,99.48-43.48,98.39-97.99
			c-0.73-36.75-22.1-68.43-52.99-83.94c-6.59-3.31-13.61-5.89-20.96-7.61c-6.48-1.53-13.22-2.4-20.14-2.54
			C207.51,82.42,162.72,127.42,164.06,181.96z"/>
		<path class="st68" d="M163.28,181.18c1.26,51.16,42.51,92.39,93.68,93.62c54.5,1.31,99.48-43.48,98.39-97.99
			c-0.73-36.75-22.1-68.43-52.99-83.94c-6.59-3.31-13.61-5.89-20.96-7.61c-6.48-1.53-13.22-2.4-20.14-2.54
			C206.72,81.63,161.93,126.64,163.28,181.18z"/>
		<path class="st69" d="M162.49,180.39c1.26,51.16,42.51,92.39,93.68,93.62c54.5,1.31,99.48-43.48,98.39-97.99
			c-0.73-36.75-22.1-68.43-52.99-83.94c-6.59-3.31-13.61-5.89-20.96-7.61c-6.48-1.53-13.22-2.4-20.14-2.54
			C205.93,80.85,161.14,125.85,162.49,180.39z"/>
		<path class="st70" d="M161.7,179.6c1.26,51.16,42.51,92.39,93.68,93.62c54.5,1.31,99.48-43.48,98.39-97.99
			c-0.73-36.75-22.1-68.43-52.99-83.94c-6.59-3.31-13.61-5.89-20.96-7.61c-6.48-1.53-13.22-2.4-20.14-2.54
			C205.15,80.06,160.36,125.06,161.7,179.6z"/>
		<path class="st71" d="M160.91,178.82c1.26,51.16,42.51,92.39,93.68,93.62c54.5,1.31,99.48-43.48,98.39-97.99
			c-0.73-36.75-22.1-68.43-52.99-83.94c-6.59-3.31-13.61-5.89-20.96-7.61c-6.48-1.53-13.22-2.4-20.14-2.54
			C204.36,79.27,159.57,124.28,160.91,178.82z"/>
		<path class="st72" d="M160.13,178.03c1.26,51.16,42.51,92.39,93.68,93.62c54.5,1.31,99.48-43.48,98.39-97.99
			c-0.73-36.75-22.1-68.43-52.99-83.94c-6.59-3.31-13.61-5.89-20.96-7.61c-6.48-1.53-13.22-2.4-20.14-2.54
			C203.57,78.48,158.78,123.49,160.13,178.03z"/>
		<path class="st73" d="M159.34,177.24c1.26,51.16,42.51,92.39,93.68,93.62c54.5,1.31,99.48-43.48,98.39-97.99
			c-0.73-36.75-22.1-68.43-52.99-83.94c-6.59-3.31-13.61-5.89-20.96-7.61c-6.48-1.53-13.22-2.4-20.14-2.54
			C202.78,77.7,158,122.7,159.34,177.24z"/>
		<path class="st74" d="M158.55,176.45c1.26,51.16,42.51,92.39,93.68,93.62c54.5,1.31,99.48-43.48,98.39-97.99
			c-0.73-36.75-22.1-68.43-52.99-83.94c-6.59-3.31-13.61-5.89-20.96-7.61c-6.48-1.53-13.22-2.4-20.14-2.54
			C202,76.91,157.21,121.91,158.55,176.45z"/>
		<path class="st75" d="M157.77,175.67c1.26,51.16,42.51,92.39,93.68,93.62c54.5,1.31,99.48-43.48,98.39-97.99
			c-0.73-36.75-22.1-68.43-52.99-83.94c-6.59-3.31-13.61-5.89-20.96-7.61c-6.48-1.53-13.22-2.4-20.14-2.54
			C201.21,76.12,156.42,121.13,157.77,175.67z"/>
		<path class="st76" d="M156.98,174.88c1.26,51.16,42.51,92.39,93.68,93.62c54.5,1.31,99.48-43.48,98.39-97.99
			c-0.73-36.75-22.1-68.43-52.99-83.94c-6.59-3.31-13.61-5.89-20.96-7.61c-6.48-1.53-13.22-2.4-20.14-2.54
			C200.42,75.34,155.63,120.34,156.98,174.88z"/>
		<path class="st77" d="M156.19,174.09c1.26,51.16,42.51,92.39,93.68,93.62c54.5,1.31,99.48-43.48,98.39-97.99
			c-0.73-36.75-22.1-68.43-52.99-83.94c-6.59-3.31-13.61-5.89-20.96-7.61c-6.48-1.53-13.22-2.4-20.14-2.54
			C199.64,74.55,154.85,119.55,156.19,174.09z"/>
		<path class="st78" d="M155.41,173.31c1.26,51.16,42.51,92.39,93.68,93.62c54.5,1.31,99.48-43.48,98.39-97.99
			c-0.73-36.75-22.1-68.43-52.99-83.94c-6.59-3.31-13.61-5.89-20.96-7.61c-6.48-1.53-13.22-2.4-20.14-2.54
			C198.85,73.76,154.06,118.77,155.41,173.31z"/>
		<path class="st79" d="M154.62,172.52c1.26,51.16,42.51,92.39,93.68,93.62c54.5,1.31,99.48-43.48,98.39-97.99
			c-0.73-36.75-22.1-68.43-52.99-83.94c-6.59-3.31-13.61-5.89-20.96-7.61c-6.48-1.53-13.22-2.4-20.14-2.54
			C198.06,72.98,153.27,117.98,154.62,172.52z"/>
		<path class="st80" d="M153.83,171.73c1.26,51.16,42.51,92.39,93.68,93.62c54.5,1.31,99.48-43.48,98.39-97.99
			c-0.73-36.75-22.1-68.43-52.99-83.94c-6.59-3.31-13.61-5.89-20.96-7.61c-6.48-1.53-13.22-2.4-20.14-2.54
			C197.28,72.19,152.49,117.19,153.83,171.73z"/>
		<path class="st81" d="M153.04,170.95c1.26,51.16,42.51,92.39,93.68,93.62c54.5,1.31,99.48-43.48,98.39-97.99
			c-0.73-36.75-22.1-68.43-52.99-83.94c-6.59-3.31-13.61-5.89-20.96-7.61c-6.48-1.53-13.22-2.4-20.14-2.54
			C196.49,71.4,151.7,116.41,153.04,170.95z"/>
		<path class="st82" d="M152.26,170.16c1.26,51.16,42.51,92.39,93.68,93.62c54.5,1.31,99.48-43.48,98.39-97.99
			c-0.73-36.75-22.1-68.43-52.99-83.94c-6.59-3.31-13.61-5.89-20.96-7.61c-6.48-1.53-13.22-2.4-20.14-2.54
			C195.7,70.62,150.91,115.62,152.26,170.16z"/>
		<path class="st83" d="M151.47,169.37c1.26,51.16,42.51,92.39,93.68,93.62c54.5,1.31,99.48-43.48,98.39-97.99
			c-0.73-36.75-22.1-68.43-52.99-83.94c-6.59-3.31-13.61-5.89-20.96-7.61c-6.48-1.53-13.22-2.4-20.14-2.54
			C194.91,69.83,150.13,114.83,151.47,169.37z"/>
		<path class="st84" d="M150.68,168.59c1.26,51.16,42.51,92.39,93.68,93.62c54.5,1.31,99.48-43.48,98.39-97.99
			c-0.73-36.75-22.1-68.43-52.99-83.94c-6.59-3.31-13.61-5.89-20.96-7.61c-6.48-1.53-13.22-2.4-20.14-2.54
			C194.13,69.04,149.34,114.04,150.68,168.59z"/>
		<path class="st85" d="M149.9,167.8c1.26,51.16,42.51,92.39,93.68,93.62c54.5,1.31,99.48-43.48,98.39-97.99
			c-0.73-36.75-22.1-68.43-52.99-83.94c-6.59-3.31-13.61-5.89-20.96-7.61c-6.48-1.53-13.22-2.4-20.14-2.54
			C193.34,68.25,148.55,113.26,149.9,167.8z"/>
		<path class="st86" d="M149.11,167.01c1.26,51.16,42.51,92.39,93.68,93.62c54.5,1.31,99.48-43.48,98.39-97.99
			c-0.73-36.75-22.1-68.43-52.99-83.94c-6.59-3.31-13.61-5.89-20.96-7.61c-6.48-1.53-13.22-2.4-20.14-2.54
			C192.55,67.47,147.76,112.47,149.11,167.01z"/>
		<path class="st87" d="M148.32,166.22c1.26,51.16,42.51,92.39,93.68,93.62c54.5,1.31,99.48-43.48,98.39-97.99
			c-0.73-36.75-22.1-68.43-52.99-83.94c-6.59-3.31-13.61-5.89-20.96-7.61c-6.48-1.53-13.22-2.4-20.14-2.54
			C191.77,66.68,146.98,111.68,148.32,166.22z"/>
		<path class="st88" d="M147.54,165.44c1.26,51.16,42.51,92.39,93.68,93.62c54.5,1.31,99.48-43.48,98.39-97.99
			c-0.73-36.75-22.1-68.43-52.99-83.94c-6.59-3.31-13.61-5.89-20.96-7.61c-6.48-1.53-13.22-2.4-20.14-2.54
			C190.98,65.89,146.19,110.9,147.54,165.44z"/>
		<path class="st89" d="M146.75,164.65c1.26,51.16,42.51,92.39,93.68,93.62c54.5,1.31,99.48-43.48,98.39-97.99
			c-0.73-36.75-22.1-68.43-52.99-83.94c-6.59-3.31-13.61-5.89-20.96-7.61c-6.48-1.53-13.22-2.4-20.14-2.54
			C190.19,65.11,145.4,110.11,146.75,164.65z"/>
		<path class="st90" d="M145.96,163.86c1.26,51.16,42.51,92.39,93.68,93.62c54.5,1.31,99.48-43.48,98.39-97.99
			c-0.73-36.75-22.1-68.43-52.99-83.94c-6.59-3.31-13.61-5.89-20.96-7.61c-6.48-1.53-13.22-2.4-20.14-2.54
			C189.41,64.32,144.62,109.32,145.96,163.86z"/>
		<path class="st91" d="M145.17,163.08c1.26,51.16,42.51,92.39,93.68,93.62c54.5,1.31,99.48-43.48,98.39-97.99
			c-0.73-36.75-22.1-68.43-52.99-83.94c-6.59-3.31-13.61-5.89-20.96-7.61c-6.48-1.53-13.22-2.4-20.14-2.54
			C188.62,63.53,143.83,108.54,145.17,163.08z"/>
		<path class="st92" d="M144.39,162.29c1.26,51.16,42.51,92.39,93.68,93.62c54.5,1.31,99.48-43.48,98.39-97.99
			c-0.73-36.75-22.1-68.43-52.99-83.94c-6.59-3.31-13.61-5.89-20.96-7.61c-6.48-1.53-13.22-2.4-20.14-2.54
			C187.83,62.75,143.04,107.75,144.39,162.29z"/>
		<path class="st93" d="M143.6,161.5c1.26,51.16,42.51,92.39,93.68,93.62c54.5,1.31,99.48-43.48,98.39-97.99
			c-0.73-36.75-22.1-68.43-52.99-83.94c-6.59-3.31-13.61-5.89-20.96-7.61c-6.48-1.53-13.22-2.4-20.14-2.54
			C187.04,61.96,142.26,106.96,143.6,161.5z"/>
		<path class="st94" d="M142.81,160.72c1.26,51.16,42.51,92.39,93.68,93.62c54.5,1.31,99.48-43.48,98.39-97.99
			c-0.73-36.75-22.1-68.43-52.99-83.94c-6.59-3.31-13.61-5.89-20.96-7.61c-6.48-1.53-13.22-2.4-20.14-2.54
			C186.26,61.17,141.47,106.18,142.81,160.72z"/>
		<path class="st95" d="M142.03,159.93c1.26,51.16,42.51,92.39,93.68,93.62c54.5,1.31,99.48-43.48,98.39-97.99
			c-0.73-36.75-22.1-68.43-52.99-83.94c-6.59-3.31-13.61-5.89-20.96-7.61c-6.48-1.53-13.22-2.4-20.14-2.54
			C185.47,60.38,140.68,105.39,142.03,159.93z"/>
		<path class="st96" d="M141.24,159.14c1.26,51.16,42.51,92.39,93.68,93.62c54.5,1.31,99.48-43.48,98.39-97.99
			c-0.73-36.75-22.1-68.43-52.99-83.94c-6.59-3.31-13.61-5.89-20.96-7.61c-6.48-1.53-13.22-2.4-20.14-2.54
			C184.68,59.6,139.89,104.6,141.24,159.14z"/>
		<path class="st97" d="M140.45,158.35c1.26,51.16,42.51,92.39,93.68,93.62c54.5,1.31,99.48-43.48,98.39-97.99
			c-0.73-36.75-22.1-68.43-52.99-83.94c-6.59-3.31-13.61-5.89-20.96-7.61c-6.48-1.53-13.22-2.4-20.14-2.54
			C183.9,58.81,139.11,103.81,140.45,158.35z"/>
		<path class="st98" d="M139.67,157.57c1.26,51.16,42.51,92.39,93.68,93.62c54.5,1.31,99.48-43.48,98.39-97.99
			c-0.73-36.75-22.1-68.43-52.99-83.94c-6.59-3.31-13.61-5.89-20.96-7.61c-6.48-1.53-13.22-2.4-20.14-2.54
			C183.11,58.02,138.32,103.03,139.67,157.57z"/>
		<path class="st99" d="M138.88,156.78c1.26,51.16,42.51,92.39,93.68,93.62c54.5,1.31,99.48-43.48,98.39-97.99
			c-0.73-36.75-22.1-68.43-52.99-83.94c-6.59-3.31-13.61-5.89-20.96-7.61c-6.48-1.53-13.22-2.4-20.14-2.54
			C182.32,57.24,137.53,102.24,138.88,156.78z"/>
		<path class="st100" d="M138.09,155.99c1.26,51.16,42.51,92.39,93.68,93.62c54.5,1.31,99.48-43.48,98.39-97.99
			c-0.73-36.75-22.1-68.43-52.99-83.94c-6.59-3.31-13.61-5.89-20.96-7.61c-6.48-1.53-13.22-2.4-20.14-2.54
			C181.54,56.45,136.75,101.45,138.09,155.99z"/>
		<path class="st101" d="M137.3,155.21c1.26,51.16,42.51,92.39,93.68,93.62c54.5,1.31,99.48-43.48,98.39-97.99
			c-0.73-36.75-22.1-68.43-52.99-83.94c-6.59-3.31-13.61-5.89-20.96-7.61c-6.48-1.53-13.22-2.4-20.14-2.54
			C180.75,55.66,135.96,100.67,137.3,155.21z"/>
		<path class="st102" d="M136.52,154.42c1.26,51.16,42.51,92.39,93.68,93.62c54.5,1.31,99.48-43.48,98.39-97.99
			c-0.73-36.75-22.1-68.43-52.99-83.94c-6.59-3.31-13.61-5.89-20.96-7.61c-6.48-1.53-13.22-2.4-20.14-2.54
			C179.96,54.88,135.17,99.88,136.52,154.42z"/>
		<path d="M135.73,153.63c1.26,51.16,42.51,92.39,93.68,93.62c54.5,1.31,99.48-43.48,98.39-97.99
			c-0.73-36.75-22.1-68.43-52.99-83.94c-6.59-3.31-13.61-5.89-20.96-7.61c-6.48-1.53-13.22-2.4-20.14-2.54
			C179.17,54.09,134.39,99.09,135.73,153.63z"/>
	</g>
	
		<linearGradient id="SVGID_1_" gradientUnits="userSpaceOnUse" x1="-1205.822" y1="326.1785" x2="-1070.1567" y2="461.844" gradientTransform="matrix(-1 0 0 -1 -907.3969 544.0504)">
		<stop  offset="0" style="stop-color:#EBEAEA"/>
		<stop  offset="1" style="stop-color:#FFFFFF"/>
	</linearGradient>
	<path class="st103" d="M134.56,152.47c1.27,51.15,42.52,92.38,93.68,93.61c54.5,1.31,99.48-43.48,98.39-97.99
		c-0.73-36.75-22.1-68.43-52.99-83.94c-6.59-3.31-13.61-5.89-20.96-7.61c-6.48-1.53-13.22-2.4-20.14-2.54
		C178,52.92,133.21,97.93,134.56,152.47z"/>
	
		<ellipse transform="matrix(0.7071 -0.7071 0.7071 0.7071 -38.5618 206.9992)" class="st104" cx="230.59" cy="150.05" rx="91.51" ry="91.14"/>
	<g>
		<g>
			<g>
				<path class="st105" d="M231.16,149.79c-12.46,0-22.6-10.14-22.6-22.6s10.14-22.6,22.6-22.6s22.6,10.14,22.6,22.6
					C253.77,139.65,243.63,149.79,231.16,149.79z M231.16,109.84c-9.57,0-17.35,7.78-17.35,17.35s7.78,17.35,17.35,17.35
					s17.35-7.78,17.35-17.35C248.52,117.62,240.73,109.84,231.16,109.84z"/>
			</g>
			<g>
				<path class="st105" d="M265.76,184.39h-69.2c-1.45,0-2.62-1.18-2.62-2.62c0-20.52,16.7-37.22,37.22-37.22
					s37.22,16.7,37.22,37.22C268.39,183.22,267.21,184.39,265.76,184.39z M199.3,179.14h63.74c-1.34-16.41-15.12-29.35-31.87-29.35
					S200.64,162.74,199.3,179.14z"/>
			</g>
		</g>
	</g>
	<path class="st0" d="M720.46,148.24l-125.01-0.82c0.45-68.27,56.74-124.19,125.01-124.19c68.58,0,125.01,56.43,125.01,125.01
		L720.46,148.24L720.46,148.24z"/>
	<g class="st1">
		<path class="st2" d="M705.08,231.31c1.26,51.16,42.51,92.39,93.68,93.62c54.5,1.31,99.48-43.48,98.39-97.99
			c-0.73-36.75-22.1-68.43-52.99-83.94c-6.59-3.31-13.61-5.89-20.96-7.61c-6.48-1.53-13.22-2.4-20.14-2.54
			C748.53,131.77,703.74,176.77,705.08,231.31z"/>
		<path class="st3" d="M704.29,230.52c1.26,51.16,42.51,92.39,93.68,93.62c54.5,1.31,99.48-43.48,98.39-97.98
			c-0.73-36.75-22.1-68.43-52.99-83.94c-6.59-3.31-13.61-5.89-20.96-7.61c-6.48-1.53-13.22-2.4-20.14-2.54
			C747.74,130.98,702.95,175.98,704.29,230.52z"/>
		<path class="st4" d="M703.51,229.73c1.26,51.16,42.51,92.39,93.68,93.62c54.5,1.31,99.48-43.48,98.39-97.98
			c-0.73-36.75-22.1-68.43-52.99-83.94c-6.59-3.31-13.61-5.89-20.96-7.61c-6.48-1.53-13.22-2.4-20.14-2.54
			C746.95,130.19,702.16,175.19,703.51,229.73z"/>
		<path class="st5" d="M702.72,228.95c1.26,51.16,42.51,92.39,93.68,93.62c54.5,1.31,99.48-43.48,98.39-97.99
			c-0.73-36.75-22.1-68.43-52.99-83.94c-6.59-3.31-13.61-5.89-20.96-7.61c-6.48-1.53-13.22-2.4-20.14-2.54
			C746.17,129.4,701.38,174.41,702.72,228.95z"/>
		<path class="st6" d="M701.93,228.16c1.26,51.16,42.51,92.39,93.68,93.62c54.5,1.31,99.48-43.48,98.39-97.98
			c-0.73-36.75-22.1-68.43-52.99-83.94c-6.59-3.31-13.61-5.89-20.96-7.61c-6.48-1.53-13.22-2.4-20.14-2.54
			C745.38,128.62,700.59,173.62,701.93,228.16z"/>
		<path class="st7" d="M701.15,227.37c1.26,51.16,42.51,92.39,93.68,93.62c54.5,1.31,99.48-43.48,98.39-97.98
			c-0.73-36.75-22.1-68.43-52.99-83.94c-6.59-3.31-13.61-5.89-20.96-7.61c-6.48-1.53-13.22-2.4-20.14-2.54
			C744.59,127.83,699.8,172.83,701.15,227.37z"/>
		<path class="st8" d="M700.36,226.59c1.26,51.16,42.51,92.39,93.68,93.62c54.5,1.31,99.48-43.48,98.39-97.99
			c-0.73-36.75-22.1-68.43-52.99-83.94c-6.59-3.31-13.61-5.89-20.96-7.61c-6.48-1.53-13.22-2.4-20.14-2.54
			C743.8,127.04,699.02,172.05,700.36,226.59z"/>
		<path class="st9" d="M699.57,225.8c1.26,51.16,42.51,92.39,93.68,93.62c54.5,1.31,99.48-43.48,98.39-97.98
			c-0.73-36.75-22.1-68.43-52.99-83.94c-6.59-3.31-13.61-5.89-20.96-7.61c-6.48-1.53-13.22-2.4-20.14-2.54
			C743.02,126.26,698.23,171.26,699.57,225.8z"/>
		<path class="st10" d="M698.79,225.01c1.26,51.16,42.51,92.39,93.68,93.62c54.5,1.31,99.48-43.48,98.39-97.98
			c-0.73-36.75-22.1-68.43-52.99-83.94c-6.59-3.31-13.61-5.89-20.96-7.61c-6.48-1.53-13.22-2.4-20.14-2.54
			C742.23,125.47,697.44,170.47,698.79,225.01z"/>
		<path class="st11" d="M698,224.23c1.26,51.16,42.51,92.39,93.68,93.62c54.5,1.31,99.48-43.48,98.39-97.99
			c-0.73-36.75-22.1-68.43-52.99-83.94c-6.59-3.31-13.61-5.89-20.96-7.61c-6.48-1.53-13.22-2.4-20.14-2.54
			C741.44,124.68,696.65,169.69,698,224.23z"/>
		<path class="st12" d="M697.21,223.44c1.26,51.16,42.51,92.39,93.68,93.62c54.5,1.31,99.48-43.48,98.39-97.98
			c-0.73-36.75-22.1-68.43-52.99-83.94c-6.59-3.31-13.61-5.89-20.96-7.61c-6.48-1.53-13.22-2.4-20.14-2.54
			C740.66,123.9,695.87,168.9,697.21,223.44z"/>
		<path class="st13" d="M696.42,222.65c1.26,51.16,42.51,92.39,93.68,93.62c54.5,1.31,99.48-43.48,98.39-97.98
			c-0.73-36.75-22.1-68.43-52.99-83.94c-6.59-3.31-13.61-5.89-20.96-7.61c-6.48-1.53-13.22-2.4-20.14-2.54
			C739.87,123.11,695.08,168.11,696.42,222.65z"/>
		<path class="st14" d="M695.64,221.86c1.26,51.16,42.51,92.39,93.68,93.62c54.5,1.31,99.48-43.48,98.39-97.99
			c-0.73-36.75-22.1-68.43-52.99-83.94c-6.59-3.31-13.61-5.89-20.96-7.61c-6.48-1.53-13.22-2.4-20.14-2.54
			C739.08,122.32,694.29,167.32,695.64,221.86z"/>
		<path class="st15" d="M694.85,221.08c1.26,51.16,42.51,92.39,93.68,93.62c54.5,1.31,99.48-43.48,98.39-97.98
			c-0.73-36.75-22.1-68.43-52.99-83.94c-6.59-3.31-13.61-5.89-20.96-7.61c-6.48-1.53-13.22-2.4-20.14-2.54
			C738.3,121.54,693.51,166.54,694.85,221.08z"/>
		<path class="st16" d="M694.06,220.29c1.26,51.16,42.51,92.39,93.68,93.62c54.5,1.31,99.48-43.48,98.39-97.99
			c-0.73-36.75-22.1-68.43-52.99-83.94c-6.59-3.31-13.61-5.89-20.96-7.61c-6.48-1.53-13.22-2.4-20.14-2.54
			C737.51,120.75,692.72,165.75,694.06,220.29z"/>
		<path class="st17" d="M693.28,219.5c1.26,51.16,42.51,92.39,93.68,93.62c54.5,1.31,99.48-43.48,98.39-97.99
			c-0.73-36.75-22.1-68.43-52.99-83.94c-6.59-3.31-13.61-5.89-20.96-7.61c-6.48-1.53-13.22-2.4-20.14-2.54
			C736.72,119.96,691.93,164.96,693.28,219.5z"/>
		<path class="st18" d="M692.49,218.72c1.26,51.16,42.51,92.39,93.68,93.62c54.5,1.31,99.48-43.48,98.39-97.98
			c-0.73-36.75-22.1-68.43-52.99-83.94c-6.59-3.31-13.61-5.89-20.96-7.61c-6.48-1.53-13.22-2.4-20.14-2.54
			C735.93,119.17,691.15,164.18,692.49,218.72z"/>
		<path class="st19" d="M691.7,217.93c1.26,51.16,42.51,92.39,93.68,93.62c54.5,1.31,99.48-43.48,98.39-97.99
			c-0.73-36.75-22.1-68.43-52.99-83.94c-6.59-3.31-13.61-5.89-20.96-7.61c-6.48-1.53-13.22-2.4-20.14-2.54
			C735.15,118.39,690.36,163.39,691.7,217.93z"/>
		<path class="st20" d="M690.92,217.14c1.26,51.16,42.51,92.39,93.68,93.62c54.5,1.31,99.48-43.48,98.39-97.99
			c-0.73-36.75-22.1-68.43-52.99-83.94c-6.59-3.31-13.61-5.89-20.96-7.61c-6.48-1.53-13.22-2.4-20.14-2.54
			C734.36,117.6,689.57,162.6,690.92,217.14z"/>
		<path class="st21" d="M690.13,216.36c1.26,51.16,42.51,92.39,93.68,93.62c54.5,1.31,99.48-43.48,98.39-97.98
			c-0.73-36.75-22.1-68.43-52.99-83.94c-6.59-3.31-13.61-5.89-20.96-7.61c-6.48-1.53-13.22-2.4-20.14-2.54
			C733.57,116.81,688.78,161.82,690.13,216.36z"/>
		<path class="st22" d="M689.34,215.57c1.26,51.16,42.51,92.39,93.68,93.62c54.5,1.31,99.48-43.48,98.39-97.99
			c-0.73-36.75-22.1-68.43-52.99-83.94c-6.59-3.31-13.61-5.89-20.96-7.61c-6.48-1.53-13.22-2.4-20.14-2.54
			C732.79,116.03,688,161.03,689.34,215.57z"/>
		<path class="st23" d="M688.56,214.78c1.26,51.16,42.51,92.39,93.68,93.62c54.5,1.31,99.48-43.48,98.39-97.99
			c-0.73-36.75-22.1-68.43-52.99-83.94c-6.59-3.31-13.61-5.89-20.96-7.61c-6.48-1.53-13.22-2.4-20.14-2.54
			C732,115.24,687.21,160.24,688.56,214.78z"/>
		<path class="st24" d="M687.77,214c1.26,51.16,42.51,92.39,93.68,93.62c54.5,1.31,99.48-43.48,98.39-97.98
			c-0.73-36.75-22.1-68.43-52.99-83.94c-6.59-3.31-13.61-5.89-20.96-7.61c-6.48-1.53-13.22-2.4-20.14-2.54
			C731.21,114.45,686.42,159.46,687.77,214z"/>
		<path class="st25" d="M686.98,213.21c1.26,51.16,42.51,92.39,93.68,93.62c54.5,1.31,99.48-43.48,98.39-97.99
			c-0.73-36.75-22.1-68.43-52.99-83.94c-6.59-3.31-13.61-5.89-20.96-7.61c-6.48-1.53-13.22-2.4-20.14-2.54
			C730.43,113.67,685.64,158.67,686.98,213.21z"/>
		<path class="st26" d="M686.19,212.42c1.26,51.16,42.51,92.39,93.68,93.62c54.5,1.31,99.48-43.48,98.39-97.99
			c-0.73-36.75-22.1-68.43-52.99-83.94c-6.59-3.31-13.61-5.89-20.96-7.61c-6.48-1.53-13.22-2.4-20.14-2.54
			C729.64,112.88,684.85,157.88,686.19,212.42z"/>
		<path class="st27" d="M685.41,211.63c1.26,51.16,42.51,92.39,93.68,93.62c54.5,1.31,99.48-43.48,98.39-97.98
			c-0.73-36.75-22.1-68.43-52.99-83.94c-6.59-3.31-13.61-5.89-20.96-7.61c-6.48-1.53-13.22-2.4-20.14-2.54
			C728.85,112.09,684.06,157.09,685.41,211.63z"/>
		<path class="st28" d="M684.62,210.85c1.26,51.16,42.51,92.39,93.68,93.62c54.5,1.31,99.48-43.48,98.39-97.99
			c-0.73-36.75-22.1-68.43-52.99-83.94c-6.59-3.31-13.61-5.89-20.96-7.61c-6.48-1.53-13.22-2.4-20.14-2.54
			C728.06,111.3,683.28,156.31,684.62,210.85z"/>
		<path class="st29" d="M683.83,210.06c1.26,51.16,42.51,92.39,93.68,93.62c54.5,1.31,99.48-43.48,98.39-97.99
			c-0.73-36.75-22.1-68.43-52.99-83.94c-6.59-3.31-13.61-5.89-20.96-7.61c-6.48-1.53-13.22-2.4-20.14-2.54
			C727.28,110.52,682.49,155.52,683.83,210.06z"/>
		<path class="st30" d="M683.05,209.27c1.26,51.16,42.51,92.39,93.68,93.62c54.5,1.31,99.48-43.48,98.39-97.99
			c-0.73-36.75-22.1-68.43-52.99-83.94c-6.59-3.31-13.61-5.89-20.96-7.61c-6.48-1.53-13.22-2.4-20.14-2.54
			C726.49,109.73,681.7,154.73,683.05,209.27z"/>
		<path class="st31" d="M682.26,208.49c1.26,51.16,42.51,92.39,93.68,93.62c54.5,1.31,99.48-43.48,98.39-97.99
			c-0.73-36.75-22.1-68.43-52.99-83.94c-6.59-3.31-13.61-5.89-20.96-7.61c-6.48-1.53-13.22-2.4-20.14-2.54
			C725.7,108.94,680.91,153.95,682.26,208.49z"/>
		<path class="st32" d="M681.47,207.7c1.26,51.16,42.51,92.39,93.68,93.62c54.5,1.31,99.48-43.48,98.39-97.99
			c-0.73-36.75-22.1-68.43-52.99-83.94c-6.59-3.31-13.61-5.89-20.96-7.61c-6.48-1.53-13.22-2.4-20.14-2.54
			C724.92,108.16,680.13,153.16,681.47,207.7z"/>
		<path class="st33" d="M680.69,206.91c1.26,51.16,42.51,92.39,93.68,93.62c54.5,1.31,99.48-43.48,98.39-97.99
			c-0.73-36.75-22.1-68.43-52.99-83.94c-6.59-3.31-13.61-5.89-20.96-7.61c-6.48-1.53-13.22-2.4-20.14-2.54
			C724.13,107.37,679.34,152.37,680.69,206.91z"/>
		<path class="st34" d="M679.9,206.13c1.26,51.16,42.51,92.39,93.68,93.62c54.5,1.31,99.48-43.48,98.39-97.99
			c-0.73-36.75-22.1-68.43-52.99-83.94c-6.59-3.31-13.61-5.89-20.96-7.61c-6.48-1.53-13.22-2.4-20.14-2.54
			C723.34,106.58,678.55,151.59,679.9,206.13z"/>
		<path class="st35" d="M679.11,205.34c1.26,51.16,42.51,92.39,93.68,93.62c54.5,1.31,99.48-43.48,98.39-97.98
			c-0.73-36.75-22.1-68.43-52.99-83.94c-6.59-3.31-13.61-5.89-20.96-7.61c-6.48-1.53-13.22-2.4-20.14-2.54
			C722.56,105.8,677.77,150.8,679.11,205.34z"/>
		<path class="st36" d="M678.32,204.55c1.26,51.16,42.51,92.39,93.68,93.62c54.5,1.31,99.48-43.48,98.39-97.99
			c-0.73-36.75-22.1-68.43-52.99-83.94c-6.59-3.31-13.61-5.89-20.96-7.61c-6.48-1.53-13.22-2.4-20.14-2.54
			C721.77,105.01,676.98,150.01,678.32,204.55z"/>
		<path class="st37" d="M677.54,203.76c1.26,51.16,42.51,92.39,93.68,93.62c54.5,1.31,99.48-43.48,98.39-97.99
			c-0.73-36.75-22.1-68.43-52.99-83.94c-6.59-3.31-13.61-5.89-20.96-7.61c-6.48-1.53-13.22-2.4-20.14-2.54
			C720.98,104.22,676.19,149.22,677.54,203.76z"/>
		<path class="st38" d="M676.75,202.98c1.26,51.16,42.51,92.39,93.68,93.62c54.5,1.31,99.48-43.48,98.39-97.98
			c-0.73-36.75-22.1-68.43-52.99-83.94c-6.59-3.31-13.61-5.89-20.96-7.61c-6.48-1.53-13.22-2.4-20.14-2.54
			C720.2,103.43,675.41,148.44,676.75,202.98z"/>
		<path class="st39" d="M675.96,202.19c1.26,51.16,42.51,92.39,93.68,93.62c54.5,1.31,99.48-43.48,98.39-97.99
			c-0.73-36.75-22.1-68.43-52.99-83.94c-6.59-3.31-13.61-5.89-20.96-7.61c-6.48-1.53-13.22-2.4-20.14-2.54
			C719.41,102.65,674.62,147.65,675.96,202.19z"/>
		<path class="st40" d="M675.18,201.4c1.26,51.16,42.51,92.39,93.68,93.62c54.5,1.31,99.48-43.48,98.39-97.99
			c-0.73-36.75-22.1-68.43-52.99-83.94c-6.59-3.31-13.61-5.89-20.96-7.61c-6.48-1.53-13.22-2.4-20.14-2.54
			C718.62,101.86,673.83,146.86,675.18,201.4z"/>
		<path class="st41" d="M674.39,200.62c1.26,51.16,42.51,92.39,93.68,93.62c54.5,1.31,99.48-43.48,98.39-97.98
			c-0.73-36.75-22.1-68.43-52.99-83.94c-6.59-3.31-13.61-5.89-20.96-7.61c-6.48-1.53-13.22-2.4-20.14-2.54
			C717.83,101.07,673.04,146.08,674.39,200.62z"/>
		<path class="st42" d="M673.6,199.83c1.26,51.16,42.51,92.39,93.68,93.62c54.5,1.31,99.48-43.48,98.39-97.99
			c-0.73-36.75-22.1-68.43-52.99-83.94c-6.59-3.31-13.61-5.89-20.96-7.61c-6.48-1.53-13.22-2.4-20.14-2.54
			C717.05,100.29,672.26,145.29,673.6,199.83z"/>
		<path class="st43" d="M672.82,199.04c1.26,51.16,42.51,92.39,93.68,93.62c54.5,1.31,99.48-43.48,98.39-97.99
			c-0.73-36.75-22.1-68.43-52.99-83.94c-6.59-3.31-13.61-5.89-20.96-7.61c-6.48-1.53-13.22-2.4-20.14-2.54
			C716.26,99.5,671.47,144.5,672.82,199.04z"/>
		<path class="st44" d="M672.03,198.26c1.26,51.16,42.51,92.39,93.68,93.62c54.5,1.31,99.48-43.48,98.39-97.98
			c-0.73-36.75-22.1-68.43-52.99-83.94c-6.59-3.31-13.61-5.89-20.96-7.61c-6.48-1.53-13.22-2.4-20.14-2.54
			C715.47,98.71,670.68,143.72,672.03,198.26z"/>
		<path class="st45" d="M671.24,197.47c1.26,51.16,42.51,92.39,93.68,93.62c54.5,1.31,99.48-43.48,98.39-97.99
			c-0.73-36.75-22.1-68.43-52.99-83.94c-6.59-3.31-13.61-5.89-20.96-7.61c-6.48-1.53-13.22-2.4-20.14-2.54
			C714.69,97.93,669.9,142.93,671.24,197.47z"/>
		<path class="st46" d="M670.45,196.68c1.26,51.16,42.51,92.39,93.68,93.62c54.5,1.31,99.48-43.48,98.39-97.99
			c-0.73-36.75-22.1-68.43-52.99-83.94c-6.59-3.31-13.61-5.89-20.96-7.61c-6.48-1.53-13.22-2.4-20.14-2.54
			C713.9,97.14,669.11,142.14,670.45,196.68z"/>
		<path class="st47" d="M669.67,195.9c1.26,51.16,42.51,92.39,93.68,93.62c54.5,1.31,99.48-43.48,98.39-97.99
			c-0.73-36.75-22.1-68.43-52.99-83.94c-6.59-3.31-13.61-5.89-20.96-7.61c-6.48-1.53-13.22-2.4-20.14-2.54
			C713.11,96.35,668.32,141.35,669.67,195.9z"/>
		<path class="st48" d="M668.88,195.11c1.26,51.16,42.51,92.39,93.68,93.62c54.5,1.31,99.48-43.48,98.39-97.99
			c-0.73-36.75-22.1-68.43-52.99-83.94c-6.59-3.31-13.61-5.89-20.96-7.61c-6.48-1.53-13.22-2.4-20.14-2.54
			C712.33,95.56,667.54,140.57,668.88,195.11z"/>
		<path class="st49" d="M668.09,194.32c1.26,51.16,42.51,92.39,93.68,93.62c54.5,1.31,99.48-43.48,98.39-97.99
			c-0.73-36.75-22.1-68.43-52.99-83.94c-6.59-3.31-13.61-5.89-20.96-7.61c-6.48-1.53-13.22-2.4-20.14-2.54
			C711.54,94.78,666.75,139.78,668.09,194.32z"/>
		<path class="st50" d="M667.31,193.53c1.26,51.16,42.51,92.39,93.68,93.62c54.5,1.31,99.48-43.48,98.39-97.99
			c-0.73-36.75-22.1-68.43-52.99-83.94c-6.59-3.31-13.61-5.89-20.96-7.61c-6.48-1.53-13.22-2.4-20.14-2.54
			C710.75,93.99,665.96,138.99,667.31,193.53z"/>
		<path class="st51" d="M666.52,192.75c1.26,51.16,42.51,92.39,93.68,93.62c54.5,1.31,99.48-43.48,98.39-97.99
			c-0.73-36.75-22.1-68.43-52.99-83.94c-6.59-3.31-13.61-5.89-20.96-7.61c-6.48-1.53-13.22-2.4-20.14-2.54
			C709.96,93.2,665.18,138.21,666.52,192.75z"/>
		<path class="st52" d="M665.73,191.96c1.26,51.16,42.51,92.39,93.68,93.62c54.5,1.31,99.48-43.48,98.39-97.99
			c-0.73-36.75-22.1-68.43-52.99-83.94c-6.59-3.31-13.61-5.89-20.96-7.61c-6.48-1.53-13.22-2.4-20.14-2.54
			C709.18,92.42,664.39,137.42,665.73,191.96z"/>
		<path class="st53" d="M664.95,191.17c1.26,51.16,42.51,92.39,93.68,93.62c54.5,1.31,99.48-43.48,98.39-97.99
			c-0.73-36.75-22.1-68.43-52.99-83.94c-6.59-3.31-13.61-5.89-20.96-7.61c-6.48-1.53-13.22-2.4-20.14-2.54
			C708.39,91.63,663.6,136.63,664.95,191.17z"/>
		<path class="st54" d="M664.16,190.39c1.26,51.16,42.51,92.39,93.68,93.62c54.5,1.31,99.48-43.48,98.39-97.99
			c-0.73-36.75-22.1-68.43-52.99-83.94c-6.59-3.31-13.61-5.89-20.96-7.61c-6.48-1.53-13.22-2.4-20.14-2.54
			C707.6,90.84,662.81,135.85,664.16,190.39z"/>
		<path class="st55" d="M663.37,189.6c1.26,51.16,42.51,92.39,93.68,93.62c54.5,1.31,99.48-43.48,98.39-97.99
			c-0.73-36.75-22.1-68.43-52.99-83.94c-6.59-3.31-13.61-5.89-20.96-7.61c-6.48-1.53-13.22-2.4-20.14-2.54
			C706.82,90.06,662.03,135.06,663.37,189.6z"/>
		<path class="st56" d="M662.58,188.81c1.26,51.16,42.51,92.39,93.68,93.62c54.5,1.31,99.48-43.48,98.39-97.99
			c-0.73-36.75-22.1-68.43-52.99-83.94c-6.59-3.31-13.61-5.89-20.96-7.61c-6.48-1.53-13.22-2.4-20.14-2.54
			C706.03,89.27,661.24,134.27,662.58,188.81z"/>
		<path class="st57" d="M661.8,188.03c1.26,51.16,42.51,92.39,93.68,93.62c54.5,1.31,99.48-43.48,98.39-97.99
			c-0.73-36.75-22.1-68.43-52.99-83.94c-6.59-3.31-13.61-5.89-20.96-7.61c-6.48-1.53-13.22-2.4-20.14-2.54
			C705.24,88.48,660.45,133.49,661.8,188.03z"/>
		<path class="st58" d="M661.01,187.24c1.26,51.16,42.51,92.39,93.68,93.62c54.5,1.31,99.48-43.48,98.39-97.99
			c-0.73-36.75-22.1-68.43-52.99-83.94c-6.59-3.31-13.61-5.89-20.96-7.61c-6.48-1.53-13.22-2.4-20.14-2.54
			C704.46,87.7,659.67,132.7,661.01,187.24z"/>
		<path class="st59" d="M660.22,186.45c1.26,51.16,42.51,92.39,93.68,93.62c54.5,1.31,99.48-43.48,98.39-97.99
			c-0.73-36.75-22.1-68.43-52.99-83.94c-6.59-3.31-13.61-5.89-20.96-7.61c-6.48-1.53-13.22-2.4-20.14-2.54
			C703.67,86.91,658.88,131.91,660.22,186.45z"/>
		<path class="st60" d="M659.44,185.66c1.26,51.16,42.51,92.39,93.68,93.62c54.5,1.31,99.48-43.48,98.39-97.99
			c-0.73-36.75-22.1-68.43-52.99-83.94c-6.59-3.31-13.61-5.89-20.96-7.61c-6.48-1.53-13.22-2.4-20.14-2.54
			C702.88,86.12,658.09,131.12,659.44,185.66z"/>
		<path class="st61" d="M658.65,184.88c1.26,51.16,42.51,92.39,93.68,93.62c54.5,1.31,99.48-43.48,98.39-97.99
			c-0.73-36.75-22.1-68.43-52.99-83.94c-6.59-3.31-13.61-5.89-20.96-7.61c-6.48-1.53-13.22-2.4-20.14-2.54
			C702.09,85.33,657.31,130.34,658.65,184.88z"/>
		<path class="st62" d="M657.86,184.09c1.26,51.16,42.51,92.39,93.68,93.62c54.5,1.31,99.48-43.48,98.39-97.99
			c-0.73-36.75-22.1-68.43-52.99-83.94c-6.59-3.31-13.61-5.89-20.96-7.61c-6.48-1.53-13.22-2.4-20.14-2.54
			C701.31,84.55,656.52,129.55,657.86,184.09z"/>
		<path class="st63" d="M657.08,183.3c1.26,51.16,42.51,92.39,93.68,93.62c54.5,1.31,99.48-43.48,98.39-97.99
			c-0.73-36.75-22.1-68.43-52.99-83.94c-6.59-3.31-13.61-5.89-20.96-7.61c-6.48-1.53-13.22-2.4-20.14-2.54
			C700.52,83.76,655.73,128.76,657.08,183.3z"/>
		<path class="st64" d="M656.29,182.52c1.26,51.16,42.51,92.39,93.68,93.62c54.5,1.31,99.48-43.48,98.39-97.99
			c-0.73-36.75-22.1-68.43-52.99-83.94c-6.59-3.31-13.61-5.89-20.96-7.61c-6.48-1.53-13.22-2.4-20.14-2.54
			C699.73,82.97,654.94,127.98,656.29,182.52z"/>
		<path class="st65" d="M655.5,181.73c1.26,51.16,42.51,92.39,93.68,93.62c54.5,1.31,99.48-43.48,98.39-97.99
			c-0.73-36.75-22.1-68.43-52.99-83.94c-6.59-3.31-13.61-5.89-20.96-7.61c-6.48-1.53-13.22-2.4-20.14-2.54
			C698.95,82.19,654.16,127.19,655.5,181.73z"/>
		<path class="st66" d="M654.72,180.94c1.26,51.16,42.51,92.39,93.68,93.62c54.5,1.31,99.48-43.48,98.39-97.99
			c-0.73-36.75-22.1-68.43-52.99-83.94c-6.59-3.31-13.61-5.89-20.96-7.61c-6.48-1.53-13.22-2.4-20.14-2.54
			C698.16,81.4,653.37,126.4,654.72,180.94z"/>
		<path class="st67" d="M653.93,180.16c1.26,51.16,42.51,92.39,93.68,93.62c54.5,1.31,99.48-43.48,98.39-97.99
			c-0.73-36.75-22.1-68.43-52.99-83.94c-6.59-3.31-13.61-5.89-20.96-7.61c-6.48-1.53-13.22-2.4-20.14-2.54
			C697.37,80.61,652.58,125.62,653.93,180.16z"/>
		<path class="st68" d="M653.14,179.37c1.26,51.16,42.51,92.39,93.68,93.62c54.5,1.31,99.48-43.48,98.39-97.99
			c-0.73-36.75-22.1-68.43-52.99-83.94c-6.59-3.31-13.61-5.89-20.96-7.61c-6.48-1.53-13.22-2.4-20.14-2.54
			C696.59,79.83,651.8,124.83,653.14,179.37z"/>
		<path class="st69" d="M652.35,178.58c1.26,51.16,42.51,92.39,93.68,93.62c54.5,1.31,99.48-43.48,98.39-97.99
			c-0.73-36.75-22.1-68.43-52.99-83.94c-6.59-3.31-13.61-5.89-20.96-7.61c-6.48-1.53-13.22-2.4-20.14-2.54
			C695.8,79.04,651.01,124.04,652.35,178.58z"/>
		<path class="st70" d="M651.57,177.8c1.26,51.16,42.51,92.39,93.68,93.62c54.5,1.31,99.48-43.48,98.39-97.99
			c-0.73-36.75-22.1-68.43-52.99-83.94c-6.59-3.31-13.61-5.89-20.96-7.61c-6.48-1.53-13.22-2.4-20.14-2.54
			C695.01,78.25,650.22,123.25,651.57,177.8z"/>
		<path class="st71" d="M650.78,177.01c1.26,51.16,42.51,92.39,93.68,93.62c54.5,1.31,99.48-43.48,98.39-97.99
			c-0.73-36.75-22.1-68.43-52.99-83.94c-6.59-3.31-13.61-5.89-20.96-7.61c-6.48-1.53-13.22-2.4-20.14-2.54
			C694.22,77.46,649.44,122.47,650.78,177.01z"/>
		<path class="st72" d="M649.99,176.22c1.26,51.16,42.51,92.39,93.68,93.62c54.5,1.31,99.48-43.48,98.39-97.99
			c-0.73-36.75-22.1-68.43-52.99-83.94c-6.59-3.31-13.61-5.89-20.96-7.61c-6.48-1.53-13.22-2.4-20.14-2.54
			C693.44,76.68,648.65,121.68,649.99,176.22z"/>
		<path class="st73" d="M649.21,175.43c1.26,51.16,42.51,92.39,93.68,93.62c54.5,1.31,99.48-43.48,98.39-97.99
			c-0.73-36.75-22.1-68.43-52.99-83.94c-6.59-3.31-13.61-5.89-20.96-7.61c-6.48-1.53-13.22-2.4-20.14-2.54
			C692.65,75.89,647.86,120.89,649.21,175.43z"/>
		<path class="st74" d="M648.42,174.65c1.26,51.16,42.51,92.39,93.68,93.62c54.5,1.31,99.48-43.48,98.39-97.99
			c-0.73-36.75-22.1-68.43-52.99-83.94c-6.59-3.31-13.61-5.89-20.96-7.61c-6.48-1.53-13.22-2.4-20.14-2.54
			C691.86,75.1,647.07,120.11,648.42,174.65z"/>
		<path class="st75" d="M647.63,173.86c1.26,51.16,42.51,92.39,93.68,93.62c54.5,1.31,99.48-43.48,98.39-97.99
			c-0.73-36.75-22.1-68.43-52.99-83.94c-6.59-3.31-13.61-5.89-20.96-7.61c-6.48-1.53-13.22-2.4-20.14-2.54
			C691.08,74.32,646.29,119.32,647.63,173.86z"/>
		<path class="st76" d="M646.85,173.07c1.26,51.16,42.51,92.39,93.68,93.62c54.5,1.31,99.48-43.48,98.39-97.99
			c-0.73-36.75-22.1-68.43-52.99-83.94c-6.59-3.31-13.61-5.89-20.96-7.61c-6.48-1.53-13.22-2.4-20.14-2.54
			C690.29,73.53,645.5,118.53,646.85,173.07z"/>
		<path class="st77" d="M646.06,172.29c1.26,51.16,42.51,92.39,93.68,93.62c54.5,1.31,99.48-43.48,98.39-97.99
			c-0.73-36.75-22.1-68.43-52.99-83.94c-6.59-3.31-13.61-5.89-20.96-7.61c-6.48-1.53-13.22-2.4-20.14-2.54
			C689.5,72.74,644.71,117.75,646.06,172.29z"/>
		<path class="st78" d="M645.27,171.5c1.26,51.16,42.51,92.39,93.68,93.62c54.5,1.31,99.48-43.48,98.39-97.99
			c-0.73-36.75-22.1-68.43-52.99-83.94c-6.59-3.31-13.61-5.89-20.96-7.61c-6.48-1.53-13.22-2.4-20.14-2.54
			C688.72,71.96,643.93,116.96,645.27,171.5z"/>
		<path class="st79" d="M644.48,170.71c1.26,51.16,42.51,92.39,93.68,93.62c54.5,1.31,99.48-43.48,98.39-97.99
			c-0.73-36.75-22.1-68.43-52.99-83.94c-6.59-3.31-13.61-5.89-20.96-7.61c-6.48-1.53-13.22-2.4-20.14-2.54
			C687.93,71.17,643.14,116.17,644.48,170.71z"/>
		<path class="st80" d="M643.7,169.93c1.26,51.16,42.51,92.39,93.68,93.62c54.5,1.31,99.48-43.48,98.39-97.99
			c-0.73-36.75-22.1-68.43-52.99-83.94c-6.59-3.31-13.61-5.89-20.96-7.61c-6.48-1.53-13.22-2.4-20.14-2.54
			C687.14,70.38,642.35,115.39,643.7,169.93z"/>
		<path class="st81" d="M642.91,169.14c1.26,51.16,42.51,92.39,93.68,93.62c54.5,1.31,99.48-43.48,98.39-97.99
			c-0.73-36.75-22.1-68.43-52.99-83.94c-6.59-3.31-13.61-5.89-20.96-7.61c-6.48-1.53-13.22-2.4-20.14-2.54
			C686.35,69.59,641.57,114.6,642.91,169.14z"/>
		<path class="st82" d="M642.12,168.35c1.26,51.16,42.51,92.39,93.68,93.62c54.5,1.31,99.48-43.48,98.39-97.99
			c-0.73-36.75-22.1-68.43-52.99-83.94c-6.59-3.31-13.61-5.89-20.96-7.61c-6.48-1.53-13.22-2.4-20.14-2.54
			C685.57,68.81,640.78,113.81,642.12,168.35z"/>
		<path class="st83" d="M641.34,167.56c1.26,51.16,42.51,92.39,93.68,93.62c54.5,1.31,99.48-43.48,98.39-97.99
			c-0.73-36.75-22.1-68.43-52.99-83.94c-6.59-3.31-13.61-5.89-20.96-7.61c-6.48-1.53-13.22-2.4-20.14-2.54
			C684.78,68.02,639.99,113.02,641.34,167.56z"/>
		<path class="st84" d="M640.55,166.78c1.26,51.16,42.51,92.39,93.68,93.62c54.5,1.31,99.48-43.48,98.39-97.99
			c-0.73-36.75-22.1-68.43-52.99-83.94c-6.59-3.31-13.61-5.89-20.96-7.61c-6.48-1.53-13.22-2.4-20.14-2.54
			C683.99,67.23,639.2,112.24,640.55,166.78z"/>
		<path class="st85" d="M639.76,165.99c1.26,51.16,42.51,92.39,93.68,93.62c54.5,1.31,99.48-43.48,98.39-97.99
			c-0.73-36.75-22.1-68.43-52.99-83.94c-6.59-3.31-13.61-5.89-20.96-7.61c-6.48-1.53-13.22-2.4-20.14-2.54
			C683.21,66.45,638.42,111.45,639.76,165.99z"/>
		<path class="st86" d="M638.98,165.2c1.26,51.16,42.51,92.39,93.68,93.62c54.5,1.31,99.48-43.48,98.39-97.99
			c-0.73-36.75-22.1-68.43-52.99-83.94c-6.59-3.31-13.61-5.89-20.96-7.61c-6.48-1.53-13.22-2.4-20.14-2.54
			C682.42,65.66,637.63,110.66,638.98,165.2z"/>
		<path class="st87" d="M638.19,164.42c1.26,51.16,42.51,92.39,93.68,93.62c54.5,1.31,99.48-43.48,98.39-97.99
			c-0.73-36.75-22.1-68.43-52.99-83.94c-6.59-3.31-13.61-5.89-20.96-7.61c-6.48-1.53-13.22-2.4-20.14-2.54
			C681.63,64.87,636.84,109.88,638.19,164.42z"/>
		<path class="st88" d="M637.4,163.63c1.26,51.16,42.51,92.39,93.68,93.62c54.5,1.31,99.48-43.48,98.39-97.99
			c-0.73-36.75-22.1-68.43-52.99-83.94c-6.59-3.31-13.61-5.89-20.96-7.61c-6.48-1.53-13.22-2.4-20.14-2.54
			C680.85,64.09,636.06,109.09,637.4,163.63z"/>
		<path class="st89" d="M636.61,162.84c1.26,51.16,42.51,92.39,93.68,93.62c54.5,1.31,99.48-43.48,98.39-97.99
			c-0.73-36.75-22.1-68.43-52.99-83.94c-6.59-3.31-13.61-5.89-20.96-7.61c-6.48-1.53-13.22-2.4-20.14-2.54
			C680.06,63.3,635.27,108.3,636.61,162.84z"/>
		<path class="st90" d="M635.83,162.06c1.26,51.16,42.51,92.39,93.68,93.62c54.5,1.31,99.48-43.48,98.39-97.99
			c-0.73-36.75-22.1-68.43-52.99-83.94c-6.59-3.31-13.61-5.89-20.96-7.61c-6.48-1.53-13.22-2.4-20.14-2.54
			C679.27,62.51,634.48,107.52,635.83,162.06z"/>
		<path class="st91" d="M635.04,161.27c1.26,51.16,42.51,92.39,93.68,93.62c54.5,1.31,99.48-43.48,98.39-97.99
			c-0.73-36.75-22.1-68.43-52.99-83.94c-6.59-3.31-13.61-5.89-20.96-7.61c-6.48-1.53-13.22-2.4-20.14-2.54
			C678.48,61.72,633.7,106.73,635.04,161.27z"/>
		<path class="st92" d="M634.25,160.48c1.26,51.16,42.51,92.39,93.68,93.62c54.5,1.31,99.48-43.48,98.39-97.99
			c-0.73-36.75-22.1-68.43-52.99-83.94c-6.59-3.31-13.61-5.89-20.96-7.61c-6.48-1.53-13.22-2.4-20.14-2.54
			C677.7,60.94,632.91,105.94,634.25,160.48z"/>
		<path class="st93" d="M633.47,159.7c1.26,51.16,42.51,92.39,93.68,93.62c54.5,1.31,99.48-43.48,98.39-97.99
			c-0.73-36.75-22.1-68.43-52.99-83.94c-6.59-3.31-13.61-5.89-20.96-7.61c-6.48-1.53-13.22-2.4-20.14-2.54
			C676.91,60.15,632.12,105.15,633.47,159.7z"/>
		<path class="st94" d="M632.68,158.91c1.26,51.16,42.51,92.39,93.68,93.62c54.5,1.31,99.48-43.48,98.39-97.99
			c-0.73-36.75-22.1-68.43-52.99-83.94c-6.59-3.31-13.61-5.89-20.96-7.61c-6.48-1.53-13.22-2.4-20.14-2.54
			C676.12,59.36,631.33,104.37,632.68,158.91z"/>
		<path class="st95" d="M631.89,158.12c1.26,51.16,42.51,92.39,93.68,93.62c54.5,1.31,99.48-43.48,98.39-97.99
			c-0.73-36.75-22.1-68.43-52.99-83.94c-6.59-3.31-13.61-5.89-20.96-7.61c-6.48-1.53-13.22-2.4-20.14-2.54
			C675.34,58.58,630.55,103.58,631.89,158.12z"/>
		<path class="st96" d="M631.11,157.33c1.26,51.16,42.51,92.39,93.68,93.62c54.5,1.31,99.48-43.48,98.39-97.99
			c-0.73-36.75-22.1-68.43-52.99-83.94c-6.59-3.31-13.61-5.89-20.96-7.61c-6.48-1.53-13.22-2.4-20.14-2.54
			C674.55,57.79,629.76,102.79,631.11,157.33z"/>
		<path class="st97" d="M630.32,156.55c1.26,51.16,42.51,92.39,93.68,93.62c54.5,1.31,99.48-43.48,98.39-97.99
			c-0.73-36.75-22.1-68.43-52.99-83.94c-6.59-3.31-13.61-5.89-20.96-7.61c-6.48-1.53-13.22-2.4-20.14-2.54
			C673.76,57,628.97,102.01,630.32,156.55z"/>
		<path class="st98" d="M629.53,155.76c1.26,51.16,42.51,92.39,93.68,93.62c54.5,1.31,99.48-43.48,98.39-97.99
			c-0.73-36.75-22.1-68.43-52.99-83.94c-6.59-3.31-13.61-5.89-20.96-7.61c-6.48-1.53-13.22-2.4-20.14-2.54
			C672.98,56.22,628.19,101.22,629.53,155.76z"/>
		<path class="st99" d="M628.74,154.97c1.26,51.16,42.51,92.39,93.68,93.62c54.5,1.31,99.48-43.48,98.39-97.99
			c-0.73-36.75-22.1-68.43-52.99-83.94c-6.59-3.31-13.61-5.89-20.96-7.61c-6.48-1.53-13.22-2.4-20.14-2.54
			C672.19,55.43,627.4,100.43,628.74,154.97z"/>
		<path class="st100" d="M627.96,154.19c1.26,51.16,42.51,92.39,93.68,93.62c54.5,1.31,99.48-43.48,98.39-97.99
			c-0.73-36.75-22.1-68.43-52.99-83.94c-6.59-3.31-13.61-5.89-20.96-7.61c-6.48-1.53-13.22-2.4-20.14-2.54
			C671.4,54.64,626.61,99.65,627.96,154.19z"/>
		<path class="st101" d="M627.17,153.4c1.26,51.16,42.51,92.39,93.68,93.62c54.5,1.31,99.48-43.48,98.39-97.99
			c-0.73-36.75-22.1-68.43-52.99-83.94c-6.59-3.31-13.61-5.89-20.96-7.61c-6.48-1.53-13.22-2.4-20.14-2.54
			C670.62,53.85,625.83,98.86,627.17,153.4z"/>
		<path class="st102" d="M626.38,152.61c1.26,51.16,42.51,92.39,93.68,93.62c54.5,1.31,99.48-43.48,98.39-97.99
			c-0.73-36.75-22.1-68.43-52.99-83.94c-6.59-3.31-13.61-5.89-20.96-7.61c-6.48-1.53-13.22-2.4-20.14-2.54
			C669.83,53.07,625.04,98.07,626.38,152.61z"/>
		<path d="M625.6,151.83c1.26,51.16,42.51,92.39,93.68,93.62c54.5,1.31,99.48-43.48,98.39-97.99c-0.73-36.75-22.1-68.43-52.99-83.94
			c-6.59-3.31-13.61-5.89-20.96-7.61c-6.48-1.53-13.22-2.4-20.14-2.54C669.04,52.28,624.25,97.28,625.6,151.83z"/>
	</g>
	
		<linearGradient id="SVGID_2_" gradientUnits="userSpaceOnUse" x1="-1695.6902" y1="327.9755" x2="-1560.021" y2="463.6446" gradientTransform="matrix(-1 0 0 -1 -907.3969 544.0504)">
		<stop  offset="0" style="stop-color:#EBEAEA"/>
		<stop  offset="1" style="stop-color:#FFFFFF"/>
	</linearGradient>
	<path class="st106" d="M624.43,150.67c1.27,51.15,42.52,92.38,93.68,93.61c54.5,1.31,99.48-43.48,98.39-97.98
		c-0.73-36.75-22.1-68.43-52.99-83.94c-6.59-3.31-13.61-5.89-20.96-7.61c-6.48-1.53-13.22-2.4-20.14-2.54
		C667.87,51.11,623.08,96.12,624.43,150.67z"/>
	
		<ellipse transform="matrix(0.7071 -0.7071 0.7071 0.7071 106.195 552.8555)" class="st104" cx="720.45" cy="148.24" rx="91.51" ry="91.14"/>
	<g>
		<g>
			<g>
				<path class="st105" d="M721.03,147.99c-12.46,0-22.6-10.14-22.6-22.6s10.14-22.6,22.6-22.6c12.46,0,22.6,10.14,22.6,22.6
					C743.63,137.85,733.49,147.99,721.03,147.99z M721.03,108.03c-9.57,0-17.35,7.78-17.35,17.35s7.78,17.35,17.35,17.35
					c9.57,0,17.35-7.78,17.35-17.35C738.38,115.82,730.6,108.03,721.03,108.03z"/>
			</g>
			<g>
				<path class="st105" d="M755.63,182.59h-69.2c-1.45,0-2.62-1.18-2.62-2.62c0-20.52,16.7-37.22,37.22-37.22
					s37.22,16.7,37.22,37.22C758.25,181.41,757.08,182.59,755.63,182.59z M689.16,177.34h63.74c-1.34-16.41-15.12-29.35-31.87-29.35
					C704.28,147.99,690.5,160.93,689.16,177.34z"/>
			</g>
		</g>
	</g>
</g>
</svg>
