<?xml version="1.0" encoding="utf-8"?>
<!-- Generator: Adobe Illustrator 24.3.0, SVG Export Plug-In . SVG Version: 6.00 Build 0)  -->
<svg version="1.1" id="Layer_1" xmlns="http://www.w3.org/2000/svg" xmlns:xlink="http://www.w3.org/1999/xlink" x="0px" y="0px"
	 viewBox="0 0 213.6 151.4" style="enable-background:new 0 0 213.6 151.4;" xml:space="preserve">
<style type="text/css">
	.st0{fill:none;stroke:#000000;stroke-width:0.4953;stroke-linecap:round;stroke-linejoin:round;stroke-miterlimit:10;}
</style>
<g>
	<polygon class="st0" points="60.7,138 60.7,136.7 61.6,136.7 61.6,135.4 62.2,135.4 63.3,131 62.6,131 62.6,129.7 63.5,129.7 
		63.5,128.4 64.1,128.4 64.1,127.1 65,127.1 65,86.6 12,86.6 12,139.3 59.7,139.3 59.7,138 	"/>
	<polygon class="st0" points="64.8,79.7 7.6,79.7 5.6,77.2 64.8,77.2 	"/>
	<g>
		<rect x="13.6" y="79.7" class="st0" width="1.8" height="6.9"/>
		<rect x="18.6" y="79.7" class="st0" width="1.8" height="6.9"/>
		<rect x="23.7" y="79.7" class="st0" width="1.8" height="6.9"/>
		<rect x="28.7" y="79.7" class="st0" width="1.8" height="6.9"/>
		<rect x="33.8" y="79.7" class="st0" width="1.8" height="6.9"/>
		<rect x="38.9" y="79.7" class="st0" width="1.8" height="6.9"/>
		<rect x="43.9" y="79.7" class="st0" width="1.8" height="6.9"/>
		<rect x="49" y="79.7" class="st0" width="1.8" height="6.9"/>
		<rect x="54.1" y="79.7" class="st0" width="1.8" height="6.9"/>
		<rect x="59.1" y="79.7" class="st0" width="1.8" height="6.9"/>
	</g>
	<rect x="29.5" y="86.6" class="st0" width="31.3" height="2.1"/>
	<rect x="30.4" y="88.7" class="st0" width="29.5" height="1.6"/>
	<rect x="31.6" y="90.3" class="st0" width="27.1" height="49"/>
	<rect x="36" y="111.8" class="st0" width="18.4" height="27.6"/>
	<g>
		<g>
			<rect x="33" y="111.8" class="st0" width="1.8" height="2.2"/>
			<rect x="33" y="114.9" class="st0" width="1.8" height="2.2"/>
			<rect x="33" y="117.9" class="st0" width="1.8" height="2.2"/>
			<rect x="33" y="121" class="st0" width="1.8" height="2.2"/>
			<rect x="33" y="124.1" class="st0" width="1.8" height="2.2"/>
			<rect x="33" y="127.2" class="st0" width="1.8" height="2.2"/>
			<rect x="33" y="130.2" class="st0" width="1.8" height="2.2"/>
			<rect x="33" y="133.3" class="st0" width="1.8" height="2.2"/>
			<rect x="33" y="136.4" class="st0" width="1.8" height="2.2"/>
		</g>
		<g>
			<rect x="55.5" y="111.8" class="st0" width="1.8" height="2.2"/>
			<rect x="55.5" y="114.9" class="st0" width="1.8" height="2.2"/>
			<rect x="55.5" y="117.9" class="st0" width="1.8" height="2.2"/>
			<rect x="55.5" y="121" class="st0" width="1.8" height="2.2"/>
			<rect x="55.5" y="124.1" class="st0" width="1.8" height="2.2"/>
			<rect x="55.5" y="127.2" class="st0" width="1.8" height="2.2"/>
			<rect x="55.5" y="130.2" class="st0" width="1.8" height="2.2"/>
			<rect x="55.5" y="133.3" class="st0" width="1.8" height="2.2"/>
			<rect x="55.5" y="136.4" class="st0" width="1.8" height="2.2"/>
		</g>
	</g>
	<g>
		<path class="st0" d="M45.2,94c-0.1,0-11.4,0.7-11.4,15.7h22.7C56.5,94.7,45.2,94,45.2,94z"/>
		<g>
			<g>
				<line class="st0" x1="52.1" y1="97.3" x2="52.1" y2="109.7"/>
				<line class="st0" x1="49.2" y1="95.2" x2="49.2" y2="109.7"/>
				<line class="st0" x1="46.3" y1="94.2" x2="46.3" y2="109.7"/>
				<line class="st0" x1="43.4" y1="94.3" x2="43.4" y2="109.7"/>
				<line class="st0" x1="40.5" y1="95.6" x2="40.5" y2="109.7"/>
				<line class="st0" x1="37.5" y1="98" x2="37.5" y2="109.7"/>
			</g>
			<g>
				<line class="st0" x1="56.3" y1="106.4" x2="34" y2="106.4"/>
				<line class="st0" x1="55.7" y1="103.5" x2="34.6" y2="103.5"/>
				<line class="st0" x1="54.6" y1="100.6" x2="35.8" y2="100.6"/>
				<line class="st0" x1="52.5" y1="97.6" x2="37.9" y2="97.6"/>
			</g>
		</g>
	</g>
	<rect x="38.1" y="114.7" class="st0" width="14.1" height="24.7"/>
	<path class="st0" d="M51.4,139.3v-9.6c0-0.7-0.6-1.3-1.3-1.3c-0.2,0-0.4,0.1-0.6,0.2v-5c0-2.5-2-4.6-4.6-4.6c-2.5,0-4.6,2-4.6,4.6
		v4.8c-0.7,0-1.3,0.6-1.3,1.3v9.6H51.4z"/>
	<path class="st0" d="M44.3,128.4v-4.8c0-1.8,1-3.3,2.5-4.1c-0.6-0.3-1.3-0.5-2-0.5c-2.5,0-4.6,2-4.6,4.6v4.8
		c-0.7,0-1.3,0.6-1.3,1.3v9.6h4v-9.6C43,129,43.6,128.4,44.3,128.4z"/>
	<polygon class="st0" points="64,58.1 64,58.1 14.1,58.1 14.1,60.9 65.2,60.9 	"/>
	<rect x="30.6" y="66.1" class="st0" width="29.3" height="5.8"/>
	<g>
		<rect x="64.1" y="127.1" class="st0" width="17.3" height="1.3"/>
		<rect x="63.5" y="128.4" class="st0" width="18.6" height="1.3"/>
		<g>
			<path class="st0" d="M80.5,79l0.8-3.6h-1.1L79.6,79h-0.8l0.6-3.6h-1.1L77.8,79H77l0.4-3.6h-2.2L75,79h-0.8l0.1-3.6h-1.1l0,3.6
				h-0.8l0-3.6h-1.1l0.1,3.6h-0.8l-0.2-3.6h-2.2l0.4,3.6h-0.8l-0.5-3.6h-1.1l0.6,3.6H66l-0.7-3.6h-1.1L65,79h-0.8c0,0,0.3,3.6,0.3,5
				h16.6c0-1.8,0.1-3.5,0.2-5H80.5z"/>
			<path class="st0" d="M80,21.6c0,0.8-0.6,1.4-1.4,1.4H66.9c-0.8,0-1.4-0.6-1.4-1.4l0,0c0-0.8,0.6-1.4,1.4-1.4h11.7
				C79.4,20.2,80,20.8,80,21.6L80,21.6z"/>
			<path class="st0" d="M72.8,9.2c0,0-5.8,7.1-5.8,10.1v0.9h11.7v-0.9C78.6,16.3,72.8,9.2,72.8,9.2z"/>
			<path class="st0" d="M74,30.6v-5.2c0-0.7-0.6-1.2-1.2-1.2c-0.7,0-1.2,0.6-1.2,1.2v5.2H74z"/>
			<g>
				<path class="st0" d="M69.6,30.6v-5.2c0-0.7-0.4-1.2-0.8-1.2c-0.4,0-0.8,0.6-0.8,1.2v5.2H69.6z"/>
				<path class="st0" d="M77.5,30.6v-5.2c0-0.7-0.4-1.2-0.8-1.2c-0.4,0-0.8,0.6-0.8,1.2v5.2H77.5z"/>
			</g>
			<rect x="65.8" y="51.2" class="st0" width="13.8" height="4.7"/>
			<path class="st0" d="M82.8,57c0,0.6-0.6,1.1-1.3,1.1H64c-0.7,0-1.3-0.5-1.3-1.1l0,0c0-0.6,0.6-1.1,1.3-1.1h17.5
				C82.2,55.9,82.8,56.4,82.8,57L82.8,57z"/>
			<path class="st0" d="M84.6,74.2c0,0.6-0.7,1.1-1.5,1.1H62.4c-0.8,0-1.5-0.5-1.5-1.1l0,0c0-0.6,0.7-1.1,1.5-1.1h20.7
				C83.9,73.1,84.6,73.6,84.6,74.2L84.6,74.2z"/>
			<g>
				<polygon class="st0" points="66.7,61.7 65.5,61.7 64,58.1 65.5,58.1 				"/>
				<polygon class="st0" points="69.3,61.7 68.2,61.7 67.3,58.1 68.7,58.1 				"/>
				<polygon class="st0" points="72,61.7 70.8,61.7 70.5,58.1 71.9,58.1 				"/>
				<polygon class="st0" points="74.7,61.7 73.5,61.7 73.7,58.1 75.1,58.1 				"/>
				<polygon class="st0" points="77.4,61.7 76.2,61.7 76.9,58.1 78.3,58.1 				"/>
				<polygon class="st0" points="80.1,61.7 78.9,61.7 80.1,58.1 81.5,58.1 				"/>
			</g>
			<g>
				<g>
					<polygon class="st0" points="65,79 64.2,79 63.3,75.4 64.2,75.4 					"/>
					<polygon class="st0" points="66.8,79 66,79 65.3,75.4 66.2,75.4 					"/>
					<polygon class="st0" points="68.6,79 67.8,79 67.3,75.4 68.1,75.4 					"/>
				</g>
				<g>
					<polygon class="st0" points="71.4,79 70.6,79 70.4,75.4 71.2,75.4 					"/>
					<polygon class="st0" points="73.2,79 72.4,79 72.3,75.4 73.2,75.4 					"/>
					<polygon class="st0" points="75,79 74.2,79 74.3,75.4 75.2,75.4 					"/>
				</g>
				<g>
					<polygon class="st0" points="77.8,79 77,79 77.4,75.4 78.3,75.4 					"/>
					<polygon class="st0" points="79.6,79 78.8,79 79.4,75.4 80.2,75.4 					"/>
					<polygon class="st0" points="81.3,79 80.5,79 81.3,75.4 82.2,75.4 					"/>
				</g>
			</g>
			<polygon class="st0" points="80.1,61.7 78.9,61.7 80.1,58.1 78.3,58.1 77.4,61.7 76.2,61.7 76.9,58.1 75.1,58.1 74.7,61.7 
				73.5,61.7 73.7,58.1 71.9,58.1 72,61.7 70.8,61.7 70.5,58.1 68.7,58.1 69.3,61.7 68.2,61.7 67.3,58.1 65.5,58.1 66.7,61.7 
				65.5,61.7 65.4,61.4 65.4,73.1 80.2,73.1 80.2,61.4 			"/>
			<path class="st0" d="M79.7,35.5c0,0.4-0.3,0.7-0.7,0.7H66.6c-0.4,0-0.7-0.3-0.7-0.7l0,0c0-0.4,0.3-0.7,0.7-0.7h12.4
				C79.4,34.8,79.7,35.1,79.7,35.5L79.7,35.5z"/>
			<polygon class="st0" points="78.6,41.4 66.9,41.4 64.8,38.3 80.7,38.3 			"/>
			<g>
				<rect x="65" y="83.9" class="st0" width="5.2" height="43.1"/>
				<rect x="70.2" y="83.9" class="st0" width="5.2" height="43.1"/>
				<rect x="75.4" y="83.9" class="st0" width="5.2" height="43.1"/>
			</g>
			<rect x="62.6" y="129.7" class="st0" width="20.3" height="1.4"/>
			<polygon class="st0" points="83.3,135.4 62.2,135.4 63.3,131 82.3,131 			"/>
			<rect x="61.6" y="135.4" class="st0" width="22.4" height="1.3"/>
			<rect x="60.7" y="136.7" class="st0" width="24" height="1.3"/>
			<rect x="59.7" y="138" class="st0" width="26.2" height="1.3"/>
			<g>
				<rect x="66.9" y="23" class="st0" width="11.7" height="11.7"/>
				<rect x="66.9" y="36.3" class="st0" width="11.7" height="2"/>
				<rect x="66.9" y="41.4" class="st0" width="11.7" height="9.8"/>
			</g>
		</g>
	</g>
	<path class="st0" d="M64,55.9h1.8v-1.8H15V57h47.8C62.8,56.4,63.3,55.9,64,55.9z"/>
	<path class="st0" d="M62.8,57H13.6v1.1H64C63.3,58.1,62.8,57.6,62.8,57z"/>
	<polygon class="st0" points="65.4,61.4 65.2,60.9 11.3,60.9 13,64.3 65.4,64.3 	"/>
	<path class="st0" d="M62.4,73.1h3v-8.9H13v10h47.9C60.9,73.6,61.6,73.1,62.4,73.1z"/>
	<path class="st0" d="M63.3,75.4h-0.9c-0.8,0-1.5-0.5-1.5-1.1H12c-0.6,0-1,0.5-1,1c0,0.6,0.5,1,1,1h51.5L63.3,75.4z"/>
	<polygon class="st0" points="63.5,76.3 12,76.3 12,77.2 63.8,77.2 	"/>
	<path class="st0" d="M64.8,83.9h-0.3c0-1-0.1-3.2-0.2-4.3H7.6c0,0-0.2,1.6,1.7,2c0,0-0.8,1.7,1.1,2.2c0,0-0.3,2.7,1.7,2.7
		c2,0,52.8,0,52.8,0V83.9z"/>
	<polygon class="st0" points="152.9,138 152.9,136.7 152,136.7 152,135.4 151.4,135.4 150.4,131 151,131 151,129.7 150.1,129.7 
		150.1,128.4 149.5,128.4 149.5,127.1 148.6,127.1 148.6,86.6 201.6,86.6 201.6,139.3 154,139.3 154,138 	"/>
	<polygon class="st0" points="148.8,79.7 206,79.7 208,77.2 148.8,77.2 	"/>
	<g>
		<rect x="198.3" y="79.7" class="st0" width="1.8" height="6.9"/>
		<rect x="193.2" y="79.7" class="st0" width="1.8" height="6.9"/>
		<rect x="188.1" y="79.7" class="st0" width="1.8" height="6.9"/>
		<rect x="183.1" y="79.7" class="st0" width="1.8" height="6.9"/>
		<rect x="178" y="79.7" class="st0" width="1.8" height="6.9"/>
		<rect x="172.9" y="79.7" class="st0" width="1.8" height="6.9"/>
		<rect x="167.9" y="79.7" class="st0" width="1.8" height="6.9"/>
		<rect x="162.8" y="79.7" class="st0" width="1.8" height="6.9"/>
		<rect x="157.8" y="79.7" class="st0" width="1.8" height="6.9"/>
		<rect x="152.7" y="79.7" class="st0" width="1.8" height="6.9"/>
	</g>
	<rect x="152.8" y="86.6" class="st0" width="31.3" height="2.1"/>
	<rect x="153.7" y="88.7" class="st0" width="29.5" height="1.6"/>
	<rect x="154.9" y="90.3" class="st0" width="27.1" height="49"/>
	<rect x="159.2" y="111.8" class="st0" width="18.4" height="27.6"/>
	<g>
		<g>
			<rect x="178.8" y="111.8" class="st0" width="1.8" height="2.2"/>
			<rect x="178.8" y="114.9" class="st0" width="1.8" height="2.2"/>
			<rect x="178.8" y="117.9" class="st0" width="1.8" height="2.2"/>
			<rect x="178.8" y="121" class="st0" width="1.8" height="2.2"/>
			<rect x="178.8" y="124.1" class="st0" width="1.8" height="2.2"/>
			<rect x="178.8" y="127.2" class="st0" width="1.8" height="2.2"/>
			<rect x="178.8" y="130.2" class="st0" width="1.8" height="2.2"/>
			<rect x="178.8" y="133.3" class="st0" width="1.8" height="2.2"/>
			<rect x="178.8" y="136.4" class="st0" width="1.8" height="2.2"/>
		</g>
		<g>
			<rect x="156.3" y="111.8" class="st0" width="1.8" height="2.2"/>
			<rect x="156.3" y="114.9" class="st0" width="1.8" height="2.2"/>
			<rect x="156.3" y="117.9" class="st0" width="1.8" height="2.2"/>
			<rect x="156.3" y="121" class="st0" width="1.8" height="2.2"/>
			<rect x="156.3" y="124.1" class="st0" width="1.8" height="2.2"/>
			<rect x="156.3" y="127.2" class="st0" width="1.8" height="2.2"/>
			<rect x="156.3" y="130.2" class="st0" width="1.8" height="2.2"/>
			<rect x="156.3" y="133.3" class="st0" width="1.8" height="2.2"/>
			<rect x="156.3" y="136.4" class="st0" width="1.8" height="2.2"/>
		</g>
	</g>
	<g>
		<path class="st0" d="M168.5,94c0.1,0,11.4,0.7,11.4,15.7h-22.7C157.1,94.7,168.4,94,168.5,94z"/>
		<g>
			<g>
				<line class="st0" x1="161.5" y1="97.3" x2="161.5" y2="109.7"/>
				<line class="st0" x1="164.4" y1="95.2" x2="164.4" y2="109.7"/>
				<line class="st0" x1="167.3" y1="94.2" x2="167.3" y2="109.7"/>
				<line class="st0" x1="170.2" y1="94.3" x2="170.2" y2="109.7"/>
				<line class="st0" x1="173.2" y1="95.6" x2="173.2" y2="109.7"/>
				<line class="st0" x1="176.1" y1="98" x2="176.1" y2="109.7"/>
			</g>
			<g>
				<line class="st0" x1="157.3" y1="106.4" x2="179.6" y2="106.4"/>
				<line class="st0" x1="157.9" y1="103.5" x2="179" y2="103.5"/>
				<line class="st0" x1="159" y1="100.6" x2="177.9" y2="100.6"/>
				<line class="st0" x1="161.1" y1="97.6" x2="175.8" y2="97.6"/>
			</g>
		</g>
	</g>
	<rect x="161.4" y="114.7" class="st0" width="14.1" height="24.7"/>
	<path class="st0" d="M162.3,139.3v-9.6c0-0.7,0.6-1.3,1.3-1.3c0.2,0,0.4,0.1,0.6,0.2v-5c0-2.5,2-4.6,4.6-4.6s4.6,2,4.6,4.6v4.8
		c0.7,0,1.3,0.6,1.3,1.3v9.6H162.3z"/>
	<path class="st0" d="M169.3,128.4v-4.8c0-1.8-1-3.3-2.5-4.1c0.6-0.3,1.3-0.5,2-0.5c2.5,0,4.6,2,4.6,4.6v4.8c0.7,0,1.3,0.6,1.3,1.3
		v9.6h-4v-9.6C170.6,129,170,128.4,169.3,128.4z"/>
	<polygon class="st0" points="149.6,58.1 149.6,58.1 199.5,58.1 199.5,60.9 148.5,60.9 	"/>
	<rect x="153.7" y="66.1" class="st0" width="29.3" height="5.8"/>
	<g>
		<rect x="132.2" y="127.1" class="st0" width="17.3" height="1.3"/>
		<rect x="131.6" y="128.4" class="st0" width="18.6" height="1.3"/>
		<g>
			<path class="st0" d="M133.1,79l-0.8-3.6h1.1l0.7,3.6h0.8l-0.6-3.6h1.1l0.5,3.6h0.8l-0.4-3.6h2.2l0.2,3.6h0.8l-0.1-3.6h1.1l0,3.6
				h0.8l0-3.6h1.1l-0.1,3.6h0.8l0.2-3.6h2.2l-0.4,3.6h0.8l0.5-3.6h1.1l-0.6,3.6h0.8l0.7-3.6h1.1l-0.8,3.6h0.8c0,0-0.3,3.6-0.3,5
				h-16.6c0-1.8-0.1-3.5-0.2-5H133.1z"/>
			<path class="st0" d="M133.6,21.6c0,0.8,0.6,1.4,1.4,1.4h11.7c0.8,0,1.4-0.6,1.4-1.4l0,0c0-0.8-0.6-1.4-1.4-1.4H135
				C134.2,20.2,133.6,20.8,133.6,21.6L133.6,21.6z"/>
			<path class="st0" d="M140.9,9.2c0,0,5.8,7.1,5.8,10.1v0.9H135v-0.9C135,16.3,140.9,9.2,140.9,9.2z"/>
			<path class="st0" d="M139.6,30.6v-5.2c0-0.7,0.6-1.2,1.2-1.2c0.7,0,1.2,0.6,1.2,1.2v5.2H139.6z"/>
			<g>
				<path class="st0" d="M144.1,30.6v-5.2c0-0.7,0.4-1.2,0.8-1.2c0.4,0,0.8,0.6,0.8,1.2v5.2H144.1z"/>
				<path class="st0" d="M136.1,30.6v-5.2c0-0.7,0.4-1.2,0.8-1.2c0.4,0,0.8,0.6,0.8,1.2v5.2H136.1z"/>
			</g>
			<rect x="133.9" y="51.2" class="st0" width="13.8" height="4.7"/>
			<path class="st0" d="M130.9,57c0,0.6,0.6,1.1,1.3,1.1h17.5c0.7,0,1.3-0.5,1.3-1.1l0,0c0-0.6-0.6-1.1-1.3-1.1h-17.5
				C131.4,55.9,130.9,56.4,130.9,57L130.9,57z"/>
			<path class="st0" d="M129,74.2c0,0.6,0.7,1.1,1.5,1.1h20.7c0.8,0,1.5-0.5,1.5-1.1l0,0c0-0.6-0.7-1.1-1.5-1.1h-20.7
				C129.7,73.1,129,73.6,129,74.2L129,74.2z"/>
			<g>
				<polygon class="st0" points="147,61.7 148.1,61.7 149.6,58.1 148.1,58.1 				"/>
				<polygon class="st0" points="144.3,61.7 145.5,61.7 146.4,58.1 144.9,58.1 				"/>
				<polygon class="st0" points="141.6,61.7 142.8,61.7 143.2,58.1 141.7,58.1 				"/>
				<polygon class="st0" points="138.9,61.7 140.1,61.7 140,58.1 138.5,58.1 				"/>
				<polygon class="st0" points="136.2,61.7 137.4,61.7 136.8,58.1 135.3,58.1 				"/>
				<polygon class="st0" points="133.6,61.7 134.8,61.7 133.6,58.1 132.1,58.1 				"/>
			</g>
			<g>
				<g>
					<polygon class="st0" points="148.6,79 149.4,79 150.3,75.4 149.4,75.4 					"/>
					<polygon class="st0" points="146.8,79 147.6,79 148.3,75.4 147.5,75.4 					"/>
					<polygon class="st0" points="145.1,79 145.9,79 146.4,75.4 145.5,75.4 					"/>
				</g>
				<g>
					<polygon class="st0" points="142.2,79 143,79 143.3,75.4 142.4,75.4 					"/>
					<polygon class="st0" points="140.5,79 141.3,79 141.3,75.4 140.4,75.4 					"/>
					<polygon class="st0" points="138.7,79 139.5,79 139.3,75.4 138.5,75.4 					"/>
				</g>
				<g>
					<polygon class="st0" points="135.9,79 136.7,79 136.2,75.4 135.3,75.4 					"/>
					<polygon class="st0" points="134.1,79 134.9,79 134.3,75.4 133.4,75.4 					"/>
					<polygon class="st0" points="132.3,79 133.1,79 132.3,75.4 131.4,75.4 					"/>
				</g>
			</g>
			<polygon class="st0" points="133.6,61.7 134.8,61.7 133.6,58.1 135.3,58.1 136.2,61.7 137.4,61.7 136.8,58.1 138.5,58.1 
				138.9,61.7 140.1,61.7 140,58.1 141.7,58.1 141.6,61.7 142.8,61.7 143.2,58.1 144.9,58.1 144.3,61.7 145.5,61.7 146.4,58.1 
				148.1,58.1 147,61.7 148.1,61.7 148.3,61.4 148.3,73.1 133.5,73.1 133.5,61.4 			"/>
			<path class="st0" d="M133.9,35.5c0,0.4,0.3,0.7,0.7,0.7H147c0.4,0,0.7-0.3,0.7-0.7l0,0c0-0.4-0.3-0.7-0.7-0.7h-12.4
				C134.3,34.8,133.9,35.1,133.9,35.5L133.9,35.5z"/>
			<polygon class="st0" points="135,41.4 146.7,41.4 148.8,38.3 132.9,38.3 			"/>
			<g>
				<rect x="143.5" y="83.9" class="st0" width="5.2" height="43.1"/>
				<rect x="138.2" y="83.9" class="st0" width="5.2" height="43.1"/>
				<rect x="133.1" y="83.9" class="st0" width="5.2" height="43.1"/>
			</g>
			<rect x="130.7" y="129.7" class="st0" width="20.3" height="1.4"/>
			<polygon class="st0" points="130.3,135.4 151.4,135.4 150.4,131 131.3,131 			"/>
			<rect x="129.7" y="135.4" class="st0" width="22.4" height="1.3"/>
			<rect x="128.8" y="136.7" class="st0" width="24" height="1.3"/>
			<rect x="127.7" y="138" class="st0" width="26.2" height="1.3"/>
			<g>
				<rect x="135" y="23" class="st0" width="11.7" height="11.7"/>
				<rect x="135" y="36.3" class="st0" width="11.7" height="2"/>
				<rect x="135" y="41.4" class="st0" width="11.7" height="9.8"/>
			</g>
		</g>
	</g>
	<path class="st0" d="M149.6,55.9h-1.8v-1.8h50.9V57h-47.8C150.9,56.4,150.3,55.9,149.6,55.9z"/>
	<path class="st0" d="M150.9,57h49.2v1.1h-50.5C150.3,58.1,150.9,57.6,150.9,57z"/>
	<polygon class="st0" points="148.3,61.4 148.5,60.9 202.3,60.9 200.6,64.3 148.3,64.3 	"/>
	<path class="st0" d="M151.2,73.1h-3v-8.9h52.3v10h-47.9C152.7,73.6,152,73.1,151.2,73.1z"/>
	<path class="st0" d="M150.3,75.4h0.9c0.8,0,1.5-0.5,1.5-1.1h48.9c0.6,0,1,0.5,1,1c0,0.6-0.5,1-1,1h-51.5L150.3,75.4z"/>
	<polygon class="st0" points="150.1,76.3 201.6,76.3 201.6,77.2 149.9,77.2 	"/>
	<path class="st0" d="M148.8,83.9h0.3c0-1,0.1-3.2,0.2-4.3H206c0,0,0.2,1.6-1.7,2c0,0,0.8,1.7-1.1,2.2c0,0,0.3,2.7-1.7,2.7
		c-2,0-52.8,0-52.8,0V83.9z"/>
	<g>
		<g>
			<path class="st0" d="M132.5,83.9c0-1.8-0.1-3.5-0.2-5h0l-0.5-2.2H81.9L81.3,79h0c-0.1,1.4-0.2,3.2-0.2,5h-0.5v43.1h0.8v1.3h0.7
				v1.3h0.8v1.4h-0.6l1,4.4h0.6v1.3h0.8v1.3h1.1v1.3h2.4h0c0-2.6-1.5-2.6-1.5-2.6v-24.9c1.4,0,1.5-1.1,1.5-2.3h-3.9V107h1.7
				c1-22.7,20.8-25.9,20.8-25.9s19.8,3.2,20.8,25.9h1.7v2.5h-3.9c0,1.2,0.1,2.3,1.5,2.3v24.9c0,0-1.5,0-1.5,2.6h0h2.4V138h1.1v-1.3
				h0.8v-1.3h0.6l1-4.4h-0.6v-1.4h0.8v-1.3h0.7v-1.3h0.8V83.9H132.5z"/>
		</g>
		<g>
			<rect x="84.4" y="61.7" class="st0" width="1.9" height="11.4"/>
			<rect x="90.5" y="61.7" class="st0" width="1.9" height="11.4"/>
			<rect x="96.7" y="61.7" class="st0" width="1.9" height="11.4"/>
			<rect x="102.8" y="61.7" class="st0" width="1.9" height="11.4"/>
			<rect x="108.9" y="61.7" class="st0" width="1.9" height="11.4"/>
			<rect x="115.1" y="61.7" class="st0" width="1.9" height="11.4"/>
			<rect x="121.2" y="61.7" class="st0" width="1.9" height="11.4"/>
			<rect x="127.4" y="61.7" class="st0" width="1.9" height="11.4"/>
		</g>
		<path class="st0" d="M84.3,107h5.4c0,0,0.1,1.3-0.7,1.3c0,0,0.2,1.2-0.6,1.2h-4V107z"/>
		<path class="st0" d="M129.3,107h-5.4c0,0-0.1,1.3,0.7,1.3c0,0-0.2,1.2,0.6,1.2h4V107z"/>
		<path class="st0" d="M127.6,107c-1-22.7-20.8-25.9-20.8-25.9S87,84.3,86.1,107h2.2c1-20.2,18.5-23.1,18.5-23.1s17.5,2.9,18.5,23.1
			H127.6z"/>
		<g>
			<path class="st0" d="M91.9,82.9c0,1.2-1,2.2-2.2,2.2c-1.2,0-2.2-1-2.2-2.2c0-1.2,1-2.2,2.2-2.2C90.9,80.7,91.9,81.7,91.9,82.9z"
				/>
			<path class="st0" d="M90.8,82.9c0,0.6-0.5,1.1-1.1,1.1c-0.6,0-1.1-0.5-1.1-1.1c0-0.6,0.5-1.1,1.1-1.1
				C90.3,81.8,90.8,82.3,90.8,82.9z"/>
			<path class="st0" d="M126.2,82.9c0,1.2-1,2.2-2.2,2.2c-1.2,0-2.2-1-2.2-2.2c0-1.2,1-2.2,2.2-2.2
				C125.2,80.7,126.2,81.7,126.2,82.9z"/>
			<path class="st0" d="M125,82.9c0,0.6-0.5,1.1-1.1,1.1c-0.6,0-1.1-0.5-1.1-1.1c0-0.6,0.5-1.1,1.1-1.1
				C124.5,81.8,125,82.3,125,82.9z"/>
		</g>
		<path class="st0" d="M135,36.3h-0.3c-0.4,0-0.7-0.3-0.7-0.7s0.3-0.7,0.7-0.7h0.3v-3.2H78.6v3.2h0.3c0.4,0,0.7,0.3,0.7,0.7
			s-0.3,0.7-0.7,0.7h-0.3v1H135V36.3z"/>
		<polygon class="st0" points="134,39.8 132.9,38.3 135,38.3 135,37.3 79.5,37.3 79.5,38.3 80.7,38.3 79.7,39.8 		"/>
		<path class="st0" d="M81.5,58.1h50.6c-0.7,0-1.3-0.5-1.3-1.1c0-0.6,0.6-1.1,1.3-1.1h1.8v-4.7h1.1v-9.8l-1.1-1.5H79.7l-1.1,1.5v9.8
			h1.1v4.7h1.8c0.7,0,1.3,0.5,1.3,1.1C82.8,57.6,82.2,58.1,81.5,58.1z"/>
		<polygon class="st0" points="133.5,73.1 133.5,61.7 80.2,61.7 80.2,73.1 83.1,73.1 130.5,73.1 		"/>
		<polygon class="st0" points="133.5,61.7 133.5,61.4 133.6,61.7 132.1,58.1 132.1,58.1 81.5,58.1 81.5,58.1 80.1,61.7 80.2,61.4 
			80.2,61.7 		"/>
		<path class="st0" d="M131.4,75.4h-0.9c-0.8,0-1.5-0.5-1.5-1.1c0-0.6,0.7-1.1,1.5-1.1H83.1c0.8,0,1.5,0.5,1.5,1.1
			c0,0.6-0.7,1.1-1.5,1.1h-0.9l0,0.2h49.3L131.4,75.4z"/>
		<polygon class="st0" points="131.5,75.5 82.2,75.5 81.9,76.7 131.7,76.7 		"/>
		<path class="st0" d="M88.2,139.3c0-2.6-1.5-2.6-1.5-2.6v-24.9c1.4,0,1.5-1.1,1.5-2.3h-3.9v27.2h0.3v1.3h1.1v1.3H88.2z"/>
		<path class="st0" d="M125.4,109.5c0,1.2,0.1,2.3,1.5,2.3v24.9c0,0-1.5,0-1.5,2.6h2.2V138h1.1v-1.3h0.7v-27.2H125.4z"/>
		<path class="st0" d="M84.3,78.4V107h1.7c1-22.7,20.8-25.9,20.8-25.9s19.8,3.2,20.8,25.9h1.7V78.4H84.3z"/>
	</g>
</g>
</svg>
