<?xml version="1.0" encoding="utf-8"?>
<!-- Generator: Adobe Illustrator 24.3.0, SVG Export Plug-In . SVG Version: 6.00 Build 0)  -->
<svg version="1.1" id="Layer_1" xmlns="http://www.w3.org/2000/svg" xmlns:xlink="http://www.w3.org/1999/xlink" x="0px" y="0px"
	 viewBox="0 0 1000 1000" style="enable-background:new 0 0 1000 1000;" xml:space="preserve">
<style type="text/css">
	.st0{fill:#0969B7;}
</style>
<g>
	<circle class="st0" cx="546" cy="206.24" r="16.14"/>
	<circle class="st0" cx="546" cy="304.16" r="16.14"/>
	<circle class="st0" cx="546" cy="402.08" r="16.14"/>
	<circle class="st0" cx="546" cy="500" r="16.14"/>
	<circle class="st0" cx="546" cy="597.92" r="16.14"/>
	<circle class="st0" cx="546" cy="695.84" r="16.14"/>
	<circle class="st0" cx="546" cy="793.76" r="16.14"/>
	<circle class="st0" cx="484.31" cy="206.24" r="16.14"/>
	<circle class="st0" cx="484.31" cy="304.16" r="16.14"/>
	<circle class="st0" cx="484.31" cy="402.08" r="16.14"/>
	<circle class="st0" cx="484.31" cy="500" r="16.14"/>
	<circle class="st0" cx="484.31" cy="597.92" r="16.14"/>
	<circle class="st0" cx="484.31" cy="695.84" r="16.14"/>
	<circle class="st0" cx="484.31" cy="793.76" r="16.14"/>
	<circle class="st0" cx="422.63" cy="206.24" r="16.14"/>
	<circle class="st0" cx="422.63" cy="304.16" r="16.14"/>
	<circle class="st0" cx="422.63" cy="402.08" r="16.14"/>
	<circle class="st0" cx="422.63" cy="500" r="16.14"/>
	<circle class="st0" cx="422.63" cy="597.92" r="16.14"/>
	<circle class="st0" cx="422.63" cy="695.84" r="16.14"/>
	<circle class="st0" cx="422.63" cy="793.76" r="16.14"/>
	<circle class="st0" cx="360.94" cy="206.24" r="16.14"/>
	<circle class="st0" cx="360.94" cy="304.16" r="16.14"/>
	<circle class="st0" cx="360.94" cy="402.08" r="16.14"/>
	<circle class="st0" cx="360.94" cy="500" r="16.14"/>
	<circle class="st0" cx="360.94" cy="597.92" r="16.14"/>
	<circle class="st0" cx="360.94" cy="695.84" r="16.14"/>
	<circle class="st0" cx="360.94" cy="793.76" r="16.14"/>
</g>
</svg>
