<?xml version="1.0" encoding="utf-8"?>
<!-- Generator: Adobe Illustrator 24.3.0, SVG Export Plug-In . SVG Version: 6.00 Build 0)  -->
<svg version="1.1" id="Layer_1" xmlns="http://www.w3.org/2000/svg" xmlns:xlink="http://www.w3.org/1999/xlink" x="0px" y="0px"
	 viewBox="0 0 489.92 861.08" style="enable-background:new 0 0 489.92 861.08;" xml:space="preserve">
<style type="text/css">
	.st0{fill:#FFFFFF;}
</style>
<g>
	<circle class="st0" cx="167.45" cy="733.65" r="15.49"/>
	<circle class="st0" cx="167.45" cy="639.68" r="15.49"/>
	<circle class="st0" cx="167.45" cy="545.71" r="15.49"/>
	<circle class="st0" cx="167.45" cy="451.75" r="15.49"/>
	<circle class="st0" cx="167.45" cy="357.78" r="15.49"/>
	<circle class="st0" cx="167.45" cy="263.81" r="15.49"/>
	<circle class="st0" cx="167.45" cy="169.84" r="15.49"/>
	<circle class="st0" cx="226.64" cy="733.65" r="15.49"/>
	<circle class="st0" cx="226.64" cy="639.68" r="15.49"/>
	<circle class="st0" cx="226.64" cy="545.71" r="15.49"/>
	<circle class="st0" cx="226.64" cy="451.75" r="15.49"/>
	<circle class="st0" cx="226.64" cy="357.78" r="15.49"/>
	<circle class="st0" cx="226.64" cy="263.81" r="15.49"/>
	<circle class="st0" cx="226.64" cy="169.84" r="15.49"/>
	<circle class="st0" cx="285.84" cy="733.65" r="15.49"/>
	<circle class="st0" cx="285.84" cy="639.68" r="15.49"/>
	<circle class="st0" cx="285.84" cy="545.71" r="15.49"/>
	<circle class="st0" cx="285.84" cy="451.75" r="15.49"/>
	<circle class="st0" cx="285.84" cy="357.78" r="15.49"/>
	<circle class="st0" cx="285.84" cy="263.81" r="15.49"/>
	<circle class="st0" cx="285.84" cy="169.84" r="15.49"/>
	<circle class="st0" cx="345.04" cy="733.65" r="15.49"/>
	<circle class="st0" cx="345.04" cy="639.68" r="15.49"/>
	<circle class="st0" cx="345.04" cy="545.71" r="15.49"/>
	<circle class="st0" cx="345.04" cy="451.75" r="15.49"/>
	<circle class="st0" cx="345.04" cy="357.78" r="15.49"/>
	<circle class="st0" cx="345.04" cy="263.81" r="15.49"/>
	<circle class="st0" cx="345.04" cy="169.84" r="15.49"/>
</g>
</svg>
