<?xml version="1.0" encoding="utf-8"?>
<!-- Generator: Adobe Illustrator 27.5.0, SVG Export Plug-In . SVG Version: 6.00 Build 0)  -->
<svg version="1.1" id="Layer_4" xmlns="http://www.w3.org/2000/svg" xmlns:xlink="http://www.w3.org/1999/xlink" x="0px" y="0px"
	 viewBox="0 0 450 450" style="enable-background:new 0 0 450 450;" xml:space="preserve">
<radialGradient id="SVGID_1_" cx="160.7753" cy="969.577" r="141.9463" fx="93.9067" fy="969.4587" gradientTransform="matrix(1.241 0 0 0.3028 -6.4289 109.5122)" gradientUnits="userSpaceOnUse">
	<stop  offset="0.1925" style="stop-color:#D1D1D1"/>
	<stop  offset="0.2934" style="stop-color:#DCDCDC"/>
	<stop  offset="0.5193" style="stop-color:#F0F0F0"/>
	<stop  offset="0.7497" style="stop-color:#FBFBFB"/>
	<stop  offset="0.9893" style="stop-color:#FFFFFF"/>
</radialGradient>
<!-- <ellipse style="fill:url(#SVGID_1_);" cx="193.093" cy="403.1" rx="176.163" ry="42.979"/> -->
<g>
	
		<linearGradient id="SVGID_00000123424048097573617120000000174356908034593210_" gradientUnits="userSpaceOnUse" x1="175.1557" y1="6.3937" x2="281.4084" y2="6.3937" gradientTransform="matrix(0.9273 -0.3741 0.3741 0.9273 -40.4528 185.418)">
		<stop  offset="0" style="stop-color:#F40B0B"/>
		<stop  offset="1" style="stop-color:#510404"/>
	</linearGradient>
	<polygon style="fill:url(#SVGID_00000123424048097573617120000000174356908034593210_);" points="207.165,47.096 197.402,51.034 
		138.631,161.193 147.595,161.768 	"/>
	
		<linearGradient id="SVGID_00000033335762004555706500000012489561836396766634_" gradientUnits="userSpaceOnUse" x1="175.1557" y1="6.3937" x2="281.4084" y2="6.3937" gradientTransform="matrix(0.9273 -0.3741 0.3741 0.9273 -40.4528 185.418)">
		<stop  offset="0" style="stop-color:#9A0707"/>
		<stop  offset="1" style="stop-color:#F40B0B"/>
	</linearGradient>
	<polygon style="fill:url(#SVGID_00000033335762004555706500000012489561836396766634_);" points="207.165,47.096 197.402,51.034 
		138.631,161.193 147.595,161.768 	"/>
	<polygon style="fill:#FDD7D7;" points="206.264,47.459 146.906,161.723 147.595,161.768 207.165,47.096 	"/>
	
		<linearGradient id="SVGID_00000177466835126158626160000007606871685628308896_" gradientUnits="userSpaceOnUse" x1="259.2192" y1="76.3246" x2="282.2194" y2="76.3246" gradientTransform="matrix(0.9273 -0.3741 0.3741 0.9273 -40.4528 185.418)">
		<stop  offset="0" style="stop-color:#7A0606"/>
		<stop  offset="1" style="stop-color:#A20808"/>
	</linearGradient>
	<polygon style="fill:url(#SVGID_00000177466835126158626160000007606871685628308896_);" points="223.824,147.692 231.183,144.723 
		254.453,162.143 245.465,163.673 	"/>
	<polygon style="fill:#FDD7D7;" points="254.453,162.143 231.183,144.723 230.282,145.087 253.323,162.335 	"/>
	
		<linearGradient id="SVGID_00000083787810040374347950000010858696762925218958_" gradientUnits="userSpaceOnUse" x1="179.9655" y1="166.176" x2="148.9065" y2="-50.9531" gradientTransform="matrix(0.9273 -0.3741 0.3741 0.9273 -40.4528 185.418)">
		<stop  offset="0" style="stop-color:#6A0A0A"/>
		<stop  offset="0.1337" style="stop-color:#CA0A0A"/>
		<stop  offset="0.5764" style="stop-color:#F98686"/>
		<stop  offset="0.5813" style="stop-color:#F75D5D"/>
		<stop  offset="0.7754" style="stop-color:#FBAEAE"/>
	</linearGradient>
	<path style="fill:url(#SVGID_00000083787810040374347950000010858696762925218958_);" d="M59.06,305.939
		c86.496-10.271,114.358-107.436,112.946-157.687c-7.028,3.359-24.411,13.516-24.411,13.516l59.57-114.672l47.288,115.047
		l-22.432-16.58C198.425,315.03,59.06,305.939,59.06,305.939z"/>
	
		<linearGradient id="SVGID_00000062908789649055936390000015659411602107140273_" gradientUnits="userSpaceOnUse" x1="47.1989" y1="99.0308" x2="210.9515" y2="99.0308" gradientTransform="matrix(0.9273 -0.3741 0.3741 0.9273 -40.4528 185.418)">
		<stop  offset="0" style="stop-color:#F53434"/>
		<stop  offset="1" style="stop-color:#6D0505"/>
	</linearGradient>
	<path style="fill:url(#SVGID_00000062908789649055936390000015659411602107140273_);" d="M172.006,148.252
		c-1.88,0.899-4.504,2.286-7.336,3.833c-0.997,48.867-28.899,140.263-105.61,153.854
		C145.555,295.668,173.418,198.503,172.006,148.252z"/>
	<path style="fill:#FDD7D7;" d="M59.06,305.939c86.495-10.271,114.358-107.436,112.946-157.687
		C169.895,200.159,145.475,294.169,59.06,305.939z"/>
</g>
<g>
	
		<linearGradient id="SVGID_00000096749086336291055100000012522974945038164891_" gradientUnits="userSpaceOnUse" x1="341.928" y1="165.8342" x2="341.928" y2="101.7588">
		<stop  offset="0" style="stop-color:#FCFCFC"/>
		<stop  offset="1" style="stop-color:#FFFFFF"/>
	</linearGradient>
	<polygon style="fill:url(#SVGID_00000096749086336291055100000012522974945038164891_);" points="373.368,101.759 403.556,136.22 
		403.556,146.989 301.198,165.834 280.3,165.296 280.3,154.527 	"/>
	
		<linearGradient id="SVGID_00000155131855747796597100000004626910389140430267_" gradientUnits="userSpaceOnUse" x1="280.3004" y1="133.5276" x2="373.3685" y2="133.5276">
		<stop  offset="0" style="stop-color:#616161"/>
		<stop  offset="1" style="stop-color:#9D9D9D"/>
	</linearGradient>
	<polygon style="fill:url(#SVGID_00000155131855747796597100000004626910389140430267_);" points="280.3,165.296 373.368,112.528 
		373.368,101.759 280.3,154.527 	"/>
	
		<linearGradient id="SVGID_00000183209992820699474310000011976346999772764813_" gradientUnits="userSpaceOnUse" x1="373.3685" y1="124.3738" x2="403.5557" y2="124.3738">
		<stop  offset="0" style="stop-color:#C0C0C0"/>
		<stop  offset="1" style="stop-color:#979797"/>
	</linearGradient>
	<polygon style="fill:url(#SVGID_00000183209992820699474310000011976346999772764813_);" points="373.368,112.528 403.556,146.989 
		403.556,136.22 373.368,101.759 	"/>
	<polygon style="fill:#B2B2B2;" points="280.3,164.255 280.3,165.296 373.368,112.528 403.556,146.989 403.556,145.948 
		373.368,111.487 	"/>
	
		<linearGradient id="SVGID_00000086672742294950336540000011236378743541822394_" gradientUnits="userSpaceOnUse" x1="257.2146" y1="182.9122" x2="354.8807" y2="182.9122">
		<stop  offset="0" style="stop-color:#AAAAAA"/>
		<stop  offset="1" style="stop-color:#E9E9E9"/>
	</linearGradient>
	<polygon style="fill:url(#SVGID_00000086672742294950336540000011236378743541822394_);" points="296.545,139.298 354.881,164.605 
		354.881,175.374 278.113,226.527 257.215,225.989 257.215,215.22 	"/>
	<polygon style="fill:#B2B2B2;" points="257.215,225.34 257.215,225.989 278.113,226.527 354.881,175.374 354.881,174.725 
		278.113,225.878 	"/>
	
		<linearGradient id="SVGID_00000011716453375024210950000018341093475047083685_" gradientUnits="userSpaceOnUse" x1="257.2146" y1="182.6434" x2="296.5452" y2="182.6434">
		<stop  offset="0" style="stop-color:#6D6D6D"/>
		<stop  offset="1" style="stop-color:#878787"/>
	</linearGradient>
	<polygon style="fill:url(#SVGID_00000011716453375024210950000018341093475047083685_);" points="257.215,225.989 296.545,150.067 
		296.545,139.298 257.215,215.22 	"/>
	
		<linearGradient id="SVGID_00000020368497113773661410000010640380314155504017_" gradientUnits="userSpaceOnUse" x1="296.5452" y1="157.336" x2="354.8807" y2="157.336">
		<stop  offset="0" style="stop-color:#C0C0C0"/>
		<stop  offset="1" style="stop-color:#979797"/>
	</linearGradient>
	<polygon style="fill:url(#SVGID_00000020368497113773661410000010640380314155504017_);" points="296.545,150.067 354.881,175.374 
		354.881,164.605 296.545,139.298 	"/>
	<polygon style="fill:#B2B2B2;" points="257.215,224.948 257.215,225.989 296.545,150.067 354.881,175.374 354.881,174.333 
		296.545,149.026 	"/>
	
		<linearGradient id="SVGID_00000126300189445914911250000015064281028532815012_" gradientUnits="userSpaceOnUse" x1="88.035" y1="369.8102" x2="241.571" y2="369.8102">
		<stop  offset="0" style="stop-color:#949494"/>
		<stop  offset="1" style="stop-color:#EBEBEB"/>
	</linearGradient>
	
		<rect x="88.035" y="364.426" style="fill:url(#SVGID_00000126300189445914911250000015064281028532815012_);" width="153.536" height="10.769"/>
	
		<linearGradient id="SVGID_00000047026487069406942380000016930729510481460864_" gradientUnits="userSpaceOnUse" x1="50.504" y1="369.8102" x2="88.035" y2="369.8102">
		<stop  offset="0" style="stop-color:#7F7F7F"/>
		<stop  offset="1" style="stop-color:#5B5B5B"/>
	</linearGradient>
	
		<rect x="50.504" y="364.426" style="fill:url(#SVGID_00000047026487069406942380000016930729510481460864_);" width="37.531" height="10.769"/>
	
		<linearGradient id="SVGID_00000041283125066963502540000010056967349123943829_" gradientUnits="userSpaceOnUse" x1="172.0437" y1="346.1177" x2="172.0437" y2="310.5805">
		<stop  offset="0" style="stop-color:#ABABAB"/>
		<stop  offset="1" style="stop-color:#737373"/>
	</linearGradient>
	<polygon style="fill:url(#SVGID_00000041283125066963502540000010056967349123943829_);" points="145.335,310.581 92.93,318.657 
		92.93,329.426 230.055,346.118 251.158,345.58 251.158,334.811 	"/>
	
		<linearGradient id="SVGID_00000004544664536903352790000006374021892724784274_" gradientUnits="userSpaceOnUse" x1="145.3349" y1="328.0803" x2="251.1575" y2="328.0803">
		<stop  offset="0" style="stop-color:#949494"/>
		<stop  offset="1" style="stop-color:#EBEBEB"/>
	</linearGradient>
	<polygon style="fill:url(#SVGID_00000004544664536903352790000006374021892724784274_);" points="251.158,345.58 145.335,321.349 
		145.335,310.581 251.158,334.811 	"/>
	
		<linearGradient id="SVGID_00000122712096864741090610000017498393807070311808_" gradientUnits="userSpaceOnUse" x1="92.93" y1="320.0034" x2="145.3349" y2="320.0034">
		<stop  offset="0" style="stop-color:#8C8C8C"/>
		<stop  offset="1" style="stop-color:#737373"/>
	</linearGradient>
	<polygon style="fill:url(#SVGID_00000122712096864741090610000017498393807070311808_);" points="145.335,321.349 92.93,329.426 
		92.93,318.657 145.335,310.581 	"/>
	<polygon style="fill:#6E6E6E;" points="92.93,328.385 92.93,329.426 145.335,321.349 251.158,345.58 251.158,344.539 
		145.335,320.308 	"/>
	
		<linearGradient id="SVGID_00000087405897425158687410000001594075455633098910_" gradientUnits="userSpaceOnUse" x1="145.4901" y1="280.696" x2="255.9508" y2="280.696">
		<stop  offset="0" style="stop-color:#ABABAB"/>
		<stop  offset="1" style="stop-color:#999999"/>
	</linearGradient>
	<polygon style="fill:url(#SVGID_00000087405897425158687410000001594075455633098910_);" points="209.796,252.966 145.49,261.043 
		145.49,271.812 235.053,308.426 255.951,307.888 255.951,297.119 	"/>
	
		<linearGradient id="SVGID_00000147214013507218459270000002205003610509631166_" gradientUnits="userSpaceOnUse" x1="209.7963" y1="280.427" x2="255.9508" y2="280.427">
		<stop  offset="0" style="stop-color:#818181"/>
		<stop  offset="1" style="stop-color:#BCBCBC"/>
	</linearGradient>
	<polygon style="fill:url(#SVGID_00000147214013507218459270000002205003610509631166_);" points="255.951,307.888 209.796,263.735 
		209.796,252.966 255.951,297.119 	"/>
	
		<linearGradient id="SVGID_00000018932876633905952860000010098475905007567519_" gradientUnits="userSpaceOnUse" x1="145.4901" y1="262.3889" x2="209.7963" y2="262.3889">
		<stop  offset="0" style="stop-color:#7F7F7F"/>
		<stop  offset="1" style="stop-color:#8C8C8C"/>
	</linearGradient>
	<polygon style="fill:url(#SVGID_00000018932876633905952860000010098475905007567519_);" points="209.796,263.735 145.49,271.812 
		145.49,261.043 209.796,252.966 	"/>
	<polygon style="fill:#B2B2B2;" points="145.49,270.771 145.49,271.812 209.796,263.735 255.951,307.888 255.951,306.847 
		209.796,262.694 	"/>
	
		<linearGradient id="SVGID_00000164503329003747920300000012559376847005654684_" gradientUnits="userSpaceOnUse" x1="208.2857" y1="236.2735" x2="289.2252" y2="236.2735">
		<stop  offset="0" style="stop-color:#AAAAAA"/>
		<stop  offset="1" style="stop-color:#E9E9E9"/>
	</linearGradient>
	<polygon style="fill:url(#SVGID_00000164503329003747920300000012559376847005654684_);" points="289.225,212.582 208.286,201.813 
		208.286,212.582 239.846,270.734 260.744,270.196 	"/>
	<polygon style="fill:#B2B2B2;" points="208.286,201.813 208.286,201.881 288.711,212.582 260.23,270.196 239.839,270.721 
		239.846,270.734 260.744,270.196 289.225,212.582 	"/>
	
		<linearGradient id="SVGID_00000057108002096940014930000006289775744134642834_" gradientUnits="userSpaceOnUse" x1="208.2857" y1="207.1973" x2="289.2252" y2="207.1973">
		<stop  offset="0" style="stop-color:#8A8A8A"/>
		<stop  offset="1" style="stop-color:#A0A0A0"/>
	</linearGradient>
	
		<rect x="208.286" y="201.813" style="fill:url(#SVGID_00000057108002096940014930000006289775744134642834_);" width="80.939" height="10.769"/>
	<rect x="208.286" y="211.541" style="fill:#B2B2B2;" width="80.939" height="1.041"/>
</g>
</svg>
