<?xml version="1.0" encoding="utf-8"?>
<!-- Generator: Adobe Illustrator 24.3.0, SVG Export Plug-In . SVG Version: 6.00 Build 0)  -->
<svg version="1.1" id="Layer_1" xmlns="http://www.w3.org/2000/svg" xmlns:xlink="http://www.w3.org/1999/xlink" x="0px" y="0px"
	 viewBox="0 0 1000 1000" style="enable-background:new 0 0 1000 1000;" xml:space="preserve">
<style type="text/css">
	.st0{fill:#636363;stroke:#636363;stroke-width:8.4061;stroke-miterlimit:10;}
</style>
<g>
	<path class="st0" d="M806.47,426.25c-5.61-23.38-13.93-46.13-24.74-67.64c-10.61-21.1-23.63-41.05-38.72-59.3
		c-5.32-6.44-10.98-12.75-16.87-18.82l19.08-19.08c4.77-4.77,6.19-11.63,3.7-17.91c-2.49-6.27-8.23-10.3-14.97-10.5l-115.37-3.48
		c-4.56-0.14-9.04,1.64-12.27,4.87c-3.23,3.23-5.01,7.7-4.87,12.27l3.48,115.37c0.2,6.75,4.23,12.48,10.5,14.97
		c6.27,2.49,13.14,1.07,17.91-3.7l18.99-18.99c14.61,15.28,26.77,32.48,36.16,51.16c7.21,14.34,12.76,29.52,16.5,45.11
		c3.85,16.06,5.81,32.69,5.81,49.4c0,28.48-5.57,56.08-16.54,82.03c-10.61,25.09-25.82,47.64-45.2,67.02
		c-19.38,19.38-41.93,34.58-67.02,45.2c-25.95,10.98-53.55,16.54-82.03,16.54c-2.59,0-4.7,2.1-4.7,4.7s2.1,4.7,4.7,4.7
		c29.74,0,58.57-5.82,85.69-17.29c26.21-11.09,49.77-26.97,70-47.21c20.24-20.24,36.12-43.79,47.21-70
		c11.47-27.12,17.29-55.95,17.29-85.69c0-17.45-2.04-34.81-6.07-51.59c-3.91-16.29-9.71-32.15-17.25-47.14
		c-10.54-20.97-24.4-40.13-41.19-56.94c-0.88-0.88-2.07-1.38-3.32-1.38c0,0,0,0,0,0c-1.25,0-2.44,0.49-3.32,1.38l-22.35,22.35
		c-2.11,2.11-5.03,2.72-7.81,1.61c-2.78-1.1-4.49-3.54-4.58-6.53l-3.48-115.37c-0.06-2.02,0.69-3.92,2.12-5.35
		c1.43-1.43,3.33-2.18,5.35-2.12l115.37,3.48c2.98,0.09,5.42,1.8,6.53,4.58c1.1,2.78,0.5,5.69-1.61,7.81l-22.37,22.37
		c-0.88,0.88-1.38,2.07-1.38,3.32c0,1.25,0.49,2.44,1.38,3.32c6.86,6.86,13.45,14.1,19.57,21.5c14.63,17.7,27.27,37.06,37.56,57.53
		c10.49,20.86,18.56,42.93,24,65.61c5.59,23.31,8.43,47.39,8.43,71.56c0,41.26-8.09,81.31-24.05,119.03
		c-15.4,36.42-37.44,69.11-65.51,97.18c-28.07,28.07-60.76,50.11-97.18,65.51c-37.72,15.96-77.77,24.05-119.03,24.05
		c-2.59,0-4.7,2.1-4.7,4.7s2.1,4.7,4.7,4.7c42.52,0,83.8-8.34,122.69-24.79c37.53-15.88,71.23-38.59,100.16-67.52
		c28.93-28.93,51.64-62.62,67.52-100.16c16.45-38.89,24.79-80.17,24.79-122.69C815.16,475.09,812.23,450.28,806.47,426.25z"/>
	<path class="st0" d="M395.08,637.96c-0.2-6.75-4.23-12.48-10.5-14.97c-6.27-2.49-13.14-1.07-17.91,3.7l-18.99,18.99
		c-14.61-15.28-26.77-32.48-36.16-51.17c-7.21-14.34-12.76-29.52-16.5-45.11c-3.85-16.07-5.81-32.69-5.81-49.4
		c0-28.48,5.57-56.08,16.54-82.03c10.61-25.09,25.82-47.64,45.2-67.02c19.38-19.38,41.92-34.58,67.02-45.2
		c25.95-10.98,53.55-16.54,82.03-16.54c2.59,0,4.7-2.1,4.7-4.7s-2.1-4.7-4.7-4.7c-29.74,0-58.57,5.82-85.69,17.29
		c-26.21,11.09-49.77,26.97-70,47.21c-20.24,20.24-36.12,43.79-47.21,70c-11.47,27.12-17.29,55.95-17.29,85.69
		c0,17.45,2.04,34.81,6.07,51.59c3.91,16.29,9.71,32.15,17.25,47.14c10.54,20.97,24.4,40.13,41.19,56.94
		c0.88,0.88,2.07,1.38,3.32,1.38h0c1.25,0,2.44-0.49,3.32-1.38l22.35-22.35c2.11-2.11,5.03-2.71,7.81-1.61
		c2.78,1.1,4.49,3.54,4.58,6.53l3.48,115.37c0.06,2.02-0.69,3.92-2.12,5.35c-1.43,1.43-3.32,2.18-5.35,2.12l-115.37-3.48
		c-2.98-0.09-5.42-1.8-6.53-4.58c-1.1-2.78-0.5-5.69,1.61-7.81l22.37-22.37c0.88-0.88,1.38-2.08,1.38-3.32
		c0-1.25-0.49-2.44-1.38-3.32c-6.86-6.86-13.45-14.1-19.57-21.5c-14.63-17.7-27.27-37.06-37.56-57.53
		c-10.49-20.86-18.56-42.93-24-65.61c-5.59-23.31-8.43-47.39-8.43-71.56c0-41.26,8.09-81.31,24.05-119.03
		c15.4-36.41,37.44-69.11,65.51-97.18c28.07-28.07,60.76-50.11,97.18-65.51c37.72-15.96,77.77-24.05,119.03-24.05
		c2.59,0,4.7-2.1,4.7-4.7c0-2.59-2.1-4.7-4.7-4.7c-42.52,0-83.8,8.34-122.69,24.79c-37.54,15.88-71.23,38.59-100.16,67.52
		c-28.93,28.93-51.64,62.63-67.52,100.16c-16.45,38.89-24.79,80.17-24.79,122.69c0,24.91,2.92,49.72,8.69,73.75
		c5.61,23.38,13.93,46.13,24.74,67.64c10.61,21.1,23.63,41.05,38.72,59.3c5.32,6.44,10.98,12.75,16.87,18.81l-19.08,19.08
		c-4.77,4.77-6.19,11.63-3.7,17.91c2.49,6.27,8.23,10.3,14.97,10.5l115.37,3.48c0.17,0,0.33,0.01,0.5,0.01
		c4.39,0,8.66-1.76,11.78-4.88c3.23-3.23,5.01-7.7,4.87-12.27L395.08,637.96z"/>
	<path class="st0" d="M573.13,673.1c22.37-9.46,42.46-23.01,59.71-40.26c17.25-17.25,30.8-37.34,40.26-59.71
		c9.8-23.16,14.77-47.77,14.77-73.13c0-39.55-12.15-77.38-35.13-109.41c-1.51-2.11-4.45-2.59-6.55-1.08
		c-2.11,1.51-2.59,4.45-1.08,6.55c21.83,30.42,33.37,66.36,33.37,103.93c0,24.1-4.72,47.47-14.02,69.47
		c-8.99,21.25-21.86,40.34-38.25,56.73s-35.48,29.26-56.73,38.25c-22,9.3-45.37,14.02-69.47,14.02c-26.89,0-52.74-5.83-76.81-17.33
		c-2.34-1.12-5.14-0.13-6.26,2.21c-1.12,2.34-0.13,5.14,2.21,6.26c25.35,12.11,52.56,18.25,80.86,18.25
		C525.36,687.86,549.96,682.9,573.13,673.1z"/>
	<path class="st0" d="M426.87,326.9c-22.37,9.46-42.46,23.01-59.71,40.26c-17.25,17.25-30.8,37.34-40.26,59.71
		c-9.8,23.16-14.77,47.77-14.77,73.13c0,39.55,12.15,77.38,35.13,109.41c0.92,1.28,2.36,1.96,3.82,1.96c0.95,0,1.9-0.29,2.73-0.88
		c2.11-1.51,2.59-4.45,1.08-6.55c-21.83-30.42-33.37-66.36-33.37-103.93c0-24.1,4.72-47.47,14.02-69.47
		c8.99-21.25,21.86-40.34,38.25-56.73c16.39-16.39,35.48-29.26,56.73-38.25c22-9.31,45.37-14.02,69.47-14.02
		c26.89,0,52.74,5.83,76.81,17.33c2.34,1.12,5.14,0.13,6.26-2.21c1.12-2.34,0.13-5.14-2.21-6.26
		c-25.35-12.11-52.56-18.25-80.86-18.25C474.64,312.14,450.04,317.1,426.87,326.9z"/>
	<path class="st0" d="M499.41,613.95c3.04,0,5.51-2.47,5.51-5.51v-15.86l3.59-0.26c9.45-0.68,17.96-2.65,25.29-5.85
		c9.44-4.12,16.86-10.04,22.04-17.61c5.2-7.6,7.84-16.61,7.84-26.77v-0.13c0-12.95-4.05-23.17-12.03-30.37
		c-7.86-7.09-20.67-12.6-39.19-16.85l-7.54-1.75v-74.38l4.44,0.67c5.13,0.78,9.93,2.15,14.27,4.09c7.17,3.2,13.03,7.66,17.42,13.26
		c2.73,3.48,4.68,7.15,5.95,11.23c0.72,2.29,2.94,3.89,5.41,3.89c0.13,0,0.26,0,0.35-0.01l0.05,0c1.76-0.12,3.34-1.02,4.34-2.48
		c1.01-1.49,1.27-3.34,0.71-5.07c-1.62-5-4.08-9.68-7.32-13.89c-5.46-7.11-12.75-12.78-21.67-16.84c-6.23-2.83-13.14-4.7-20.54-5.54
		l-3.43-0.39v-15.98c0-3.04-2.47-5.51-5.51-5.51s-5.51,2.47-5.51,5.51v15.89l-3.52,0.32c-8.18,0.73-15.68,2.59-22.28,5.51
		c-8.91,3.94-15.96,9.43-20.96,16.33c-5.06,6.97-7.62,15.15-7.62,24.32v0.26c0,12.52,4.09,22.6,12.14,29.97
		c7.94,7.27,20.43,12.83,38.17,16.99l4.07,0.95v79.25l-4.38-0.58c-6.06-0.81-11.68-2.31-16.69-4.47
		c-7.91-3.41-14.25-8.22-18.84-14.3c-3-3.97-5.1-8.21-6.42-12.96c-0.7-2.51-2.97-4.27-5.53-4.27c-0.1,0-0.2,0-0.3,0.01
		c-1.74,0.09-3.33,0.96-4.34,2.37c-1.03,1.43-1.34,3.23-0.86,4.93c1.67,5.92,4.35,11.39,7.97,16.25c5.73,7.7,13.53,13.75,23.2,17.98
		c6.82,2.99,14.46,4.94,22.72,5.8l3.46,0.36v15.99C493.9,611.48,496.37,613.95,499.41,613.95z M504.91,504.68l4.73,1.08
		c15.96,3.66,27.21,8.31,33.46,13.82c6.08,5.37,9.04,12.74,9.04,22.52v0.13c0,7.95-1.96,14.69-5.99,20.62
		c-4.04,5.94-9.74,10.42-17.41,13.68c-5.65,2.4-12.25,3.95-19.64,4.59l-4.2,0.36V504.68z M489.07,489.28
		c-13.39-3.44-23.12-7.8-28.92-12.97c-6.13-5.46-9.11-12.7-9.11-22.14v-0.26c0-7.05,1.88-13.03,5.74-18.29
		c3.86-5.26,9.39-9.46,16.43-12.47c4.81-2.06,10.32-3.45,16.39-4.12l4.29-0.48v71.97L489.07,489.28z"/>
</g>
</svg>
