<?xml version="1.0" encoding="utf-8"?>
<!-- Generator: Adobe Illustrator 24.3.0, SVG Export Plug-In . SVG Version: 6.00 Build 0)  -->
<svg version="1.1" xmlns="http://www.w3.org/2000/svg" xmlns:xlink="http://www.w3.org/1999/xlink" x="0px" y="0px"
	 viewBox="0 0 128 90" style="enable-background:new 0 0 128 90;" xml:space="preserve">
<style type="text/css">
	.st0{clip-path:url(#SVGID_2_);}
	.st1{fill:none;stroke:#181715;stroke-width:0.3177;stroke-linecap:round;stroke-linejoin:round;stroke-miterlimit:10;}
	.st2{fill:none;stroke:#181715;stroke-width:0.3177;stroke-miterlimit:10;}
	.st3{fill:none;stroke:#181715;stroke-width:0.2542;stroke-linecap:round;stroke-linejoin:round;stroke-miterlimit:10;}
	.st4{fill:#181715;}
	.st5{display:none;}
	.st6{display:inline;fill:none;stroke:#181715;stroke-width:0.2497;stroke-miterlimit:10;}
</style>
<g id="Layer_1">
	<g>
		<defs>
			<rect id="SVGID_1_" x="3.59" y="20.54" width="120.81" height="48.38"/>
		</defs>
		<clipPath id="SVGID_2_">
			<use xlink:href="#SVGID_1_"  style="overflow:visible;"/>
		</clipPath>
		<g class="st0">
			<rect x="0.38" y="61.2" class="st1" width="147.36" height="1.35"/>
			<rect x="4.96" y="62.55" class="st1" width="138.2" height="1.35"/>
			<line class="st1" x1="52.76" y1="64.89" x2="95.35" y2="64.89"/>
		</g>
		<g class="st0">
			<g>
				<rect x="62.67" y="44.55" class="st2" width="12.13" height="15.42"/>
				<rect x="64.13" y="45.89" class="st1" width="9.21" height="14.08"/>
				<path class="st1" d="M72.66,52.3c0.01-0.05,0.01-0.1,0.01-0.15c0-0.34-0.17-0.63-0.42-0.76c0-0.02,0.01-0.05,0.01-0.07
					c0-0.39-0.23-0.71-0.54-0.8c0-0.01,0-0.02,0-0.03c0-0.46-0.32-0.83-0.71-0.83c0,0,0,0,0,0c-0.02-0.44-0.33-0.79-0.71-0.79
					c-0.04,0-0.08,0.01-0.12,0.01c-0.1-0.32-0.36-0.56-0.67-0.56c-0.02,0-0.03,0-0.05,0.01c-0.08,0.01-0.15,0.02-0.22,0.06
					c0,0,0-0.01,0-0.01c-0.14-0.56-0.86-0.56-1,0c0,0,0,0.01,0,0.01c-0.07-0.03-0.14-0.05-0.22-0.06c-0.02,0-0.03-0.01-0.05-0.01
					c-0.31,0-0.57,0.23-0.67,0.56c-0.04-0.01-0.08-0.01-0.12-0.01c-0.38,0-0.69,0.35-0.71,0.79c0,0,0,0,0,0
					c-0.39,0-0.71,0.37-0.71,0.83c0,0.01,0,0.02,0,0.03c-0.31,0.09-0.54,0.41-0.54,0.8c0,0.02,0,0.05,0.01,0.07
					c-0.25,0.13-0.42,0.42-0.42,0.76c0,0.05,0.01,0.1,0.01,0.15c0,0,0,0,0,0l0,0v7.66h0.85h3.09h3.09h0.85L72.66,52.3L72.66,52.3
					C72.66,52.3,72.66,52.3,72.66,52.3z"/>
				<path class="st1" d="M70.82,55.85c0-0.03,0.01-0.05,0.01-0.08c0-0.18-0.09-0.34-0.23-0.41c0-0.01,0-0.03,0-0.04
					c0-0.21-0.12-0.38-0.29-0.43c0,0,0-0.01,0-0.01c0-0.25-0.17-0.45-0.38-0.45c0,0,0,0,0,0c-0.01-0.23-0.18-0.42-0.38-0.42
					c-0.02,0-0.04,0-0.06,0.01c-0.05-0.17-0.19-0.3-0.36-0.3c-0.01,0-0.02,0-0.03,0c-0.04,0-0.08,0.01-0.12,0.03c0,0,0,0,0,0
					c-0.08-0.3-0.46-0.3-0.53,0c0,0,0,0,0,0c-0.04-0.02-0.07-0.03-0.12-0.03c-0.01,0-0.02,0-0.03,0c-0.17,0-0.31,0.13-0.36,0.3
					c-0.02,0-0.04-0.01-0.06-0.01c-0.2,0-0.37,0.19-0.38,0.42c0,0,0,0,0,0c-0.21,0-0.38,0.2-0.38,0.45c0,0,0,0.01,0,0.01
					c-0.17,0.05-0.29,0.22-0.29,0.43c0,0.01,0,0.03,0,0.04c-0.13,0.07-0.23,0.23-0.23,0.41c0,0.03,0,0.05,0.01,0.08c0,0,0,0,0,0l0,0
					v4.12h0.45h1.64h1.64h0.45L70.82,55.85L70.82,55.85C70.82,55.85,70.82,55.85,70.82,55.85z"/>
				<path class="st3" d="M62.17,57.22c0-0.02,0-0.03,0-0.05c0-0.12-0.06-0.23-0.14-0.27c0-0.01,0-0.02,0-0.03
					c0-0.14-0.08-0.26-0.18-0.29c0,0,0-0.01,0-0.01c0-0.16-0.11-0.3-0.24-0.3c0,0,0,0,0,0c-0.01-0.16-0.11-0.28-0.24-0.28
					c-0.01,0-0.03,0-0.04,0c-0.03-0.12-0.12-0.2-0.23-0.2c-0.01,0-0.01,0-0.02,0c-0.03,0-0.05,0.01-0.07,0.02c0,0,0,0,0,0
					c-0.05-0.2-0.29-0.2-0.34,0c0,0,0,0,0,0c-0.02-0.01-0.05-0.02-0.07-0.02c-0.01,0-0.01,0-0.02,0c-0.1,0-0.19,0.08-0.23,0.2
					c-0.01,0-0.03,0-0.04,0c-0.13,0-0.23,0.12-0.24,0.28c0,0,0,0,0,0c-0.13,0-0.24,0.13-0.24,0.3c0,0,0,0.01,0,0.01
					c-0.11,0.03-0.18,0.15-0.18,0.29c0,0.01,0,0.02,0,0.03c-0.08,0.05-0.14,0.15-0.14,0.27c0,0.02,0,0.04,0,0.05c0,0,0,0,0,0l0,0
					v2.75h0.28h1.04h1.04h0.28L62.17,57.22L62.17,57.22C62.17,57.22,62.17,57.22,62.17,57.22z"/>
				<path class="st3" d="M59.06,57.22c0-0.02,0-0.03,0-0.05c0-0.12-0.06-0.23-0.14-0.27c0-0.01,0-0.02,0-0.03
					c0-0.14-0.08-0.26-0.18-0.29c0,0,0-0.01,0-0.01c0-0.16-0.11-0.3-0.24-0.3c0,0,0,0,0,0c-0.01-0.16-0.11-0.28-0.24-0.28
					c-0.01,0-0.03,0-0.04,0c-0.03-0.12-0.12-0.2-0.23-0.2c-0.01,0-0.01,0-0.02,0c-0.03,0-0.05,0.01-0.07,0.02c0,0,0,0,0,0
					c-0.05-0.2-0.29-0.2-0.34,0c0,0,0,0,0,0c-0.02-0.01-0.05-0.02-0.07-0.02c-0.01,0-0.01,0-0.02,0c-0.1,0-0.19,0.08-0.23,0.2
					c-0.01,0-0.03,0-0.04,0c-0.13,0-0.23,0.12-0.24,0.28c0,0,0,0,0,0c-0.13,0-0.24,0.13-0.24,0.3c0,0,0,0.01,0,0.01
					c-0.11,0.03-0.18,0.15-0.18,0.29c0,0.01,0,0.02,0,0.03c-0.08,0.05-0.14,0.15-0.14,0.27c0,0.02,0,0.04,0,0.05c0,0,0,0,0,0l0,0
					v2.75h0.28h1.04h1.04h0.28L59.06,57.22L59.06,57.22C59.06,57.22,59.06,57.22,59.06,57.22z"/>
				<path class="st3" d="M55.95,57.22c0-0.02,0-0.03,0-0.05c0-0.12-0.06-0.23-0.14-0.27c0-0.01,0-0.02,0-0.03
					c0-0.14-0.08-0.26-0.18-0.29c0,0,0-0.01,0-0.01c0-0.16-0.11-0.3-0.24-0.3c0,0,0,0,0,0c-0.01-0.16-0.11-0.28-0.24-0.28
					c-0.01,0-0.03,0-0.04,0c-0.03-0.12-0.12-0.2-0.23-0.2c-0.01,0-0.01,0-0.02,0c-0.03,0-0.05,0.01-0.07,0.02c0,0,0,0,0,0
					c-0.05-0.2-0.29-0.2-0.34,0c0,0,0,0,0,0c-0.02-0.01-0.05-0.02-0.07-0.02c-0.01,0-0.01,0-0.02,0c-0.1,0-0.19,0.08-0.23,0.2
					c-0.01,0-0.03,0-0.04,0c-0.13,0-0.23,0.12-0.24,0.28c0,0,0,0,0,0c-0.13,0-0.24,0.13-0.24,0.3c0,0,0,0.01,0,0.01
					c-0.11,0.03-0.18,0.15-0.18,0.29c0,0.01,0,0.02,0,0.03c-0.08,0.05-0.14,0.15-0.14,0.27c0,0.02,0,0.04,0,0.05c0,0,0,0,0,0l0,0
					v2.75h0.28h1.04h1.04h0.28L55.95,57.22L55.95,57.22C55.95,57.22,55.95,57.22,55.95,57.22z"/>
				<path class="st3" d="M52.83,57.22c0-0.02,0-0.03,0-0.05c0-0.12-0.06-0.23-0.14-0.27c0-0.01,0-0.02,0-0.03
					c0-0.14-0.08-0.26-0.18-0.29c0,0,0-0.01,0-0.01c0-0.16-0.11-0.3-0.24-0.3c0,0,0,0,0,0c-0.01-0.16-0.11-0.28-0.24-0.28
					c-0.01,0-0.03,0-0.04,0c-0.03-0.12-0.12-0.2-0.23-0.2c-0.01,0-0.01,0-0.02,0c-0.03,0-0.05,0.01-0.07,0.02c0,0,0,0,0,0
					c-0.05-0.2-0.29-0.2-0.34,0c0,0,0,0,0,0c-0.02-0.01-0.05-0.02-0.07-0.02c-0.01,0-0.01,0-0.02,0c-0.1,0-0.19,0.08-0.23,0.2
					c-0.01,0-0.03,0-0.04,0c-0.13,0-0.23,0.12-0.24,0.28c0,0,0,0,0,0c-0.13,0-0.24,0.13-0.24,0.3c0,0,0,0.01,0,0.01
					c-0.11,0.03-0.18,0.15-0.18,0.29c0,0.01,0,0.02,0,0.03c-0.08,0.05-0.14,0.15-0.14,0.27c0,0.02,0,0.04,0,0.05c0,0,0,0,0,0l0,0
					v2.75h0.28h1.04h1.04h0.28L52.83,57.22L52.83,57.22C52.83,57.22,52.83,57.22,52.83,57.22z"/>
				<g>
					<line class="st1" x1="68.72" y1="47.73" x2="68.72" y2="46.68"/>
					<line class="st1" x1="68.34" y1="47.02" x2="69.12" y2="47.02"/>
				</g>
				<g>
					<line class="st1" x1="68.72" y1="53.39" x2="68.72" y2="52.34"/>
					<line class="st1" x1="68.34" y1="52.68" x2="69.12" y2="52.68"/>
				</g>
				<rect x="62.67" y="42.37" class="st2" width="0.76" height="2.17"/>
				<path class="st1" d="M62.04,41.16c0.35,0.25,0.65,1.21,0.65,1.21h0.35h0.35c0,0,0.31-0.96,0.65-1.21"/>
				<rect x="62.07" y="39.54" class="st1" width="1.95" height="1.55"/>
				<rect x="61.86" y="39.03" class="st1" width="2.38" height="0.51"/>
				<path class="st1" d="M62.84,40.98h-0.41v-0.8c0-0.12,0.09-0.21,0.21-0.21l0,0c0.11,0,0.21,0.09,0.21,0.21V40.98z"/>
				<path class="st1" d="M63.64,40.98h-0.41v-0.8c0-0.12,0.09-0.21,0.21-0.21l0,0c0.11,0,0.21,0.09,0.21,0.21V40.98z"/>
				<g>
					<path class="st4" d="M62.89,39.03l0.16-3.61l0.16,3.61c0,0.09-0.06,0.16-0.15,0.17c-0.09,0-0.16-0.06-0.17-0.15
						C62.89,39.03,62.89,39.03,62.89,39.03z"/>
				</g>
				<rect x="46.54" y="30.79" class="st1" width="2.14" height="1.63"/>
				<rect x="46.31" y="30.25" class="st1" width="2.62" height="0.54"/>
				<g>
					<path class="st1" d="M47.36,32.3h-0.41v-0.85c0-0.12,0.09-0.21,0.21-0.21l0,0c0.11,0,0.21,0.09,0.21,0.21V32.3z"/>
					<path class="st1" d="M48.28,32.3h-0.41v-0.85c0-0.12,0.09-0.21,0.21-0.21l0,0c0.11,0,0.21,0.09,0.21,0.21V32.3z"/>
				</g>
				<g>
					<path class="st4" d="M47.46,30.25l0.16-3.78l0.16,3.78c0,0.09-0.06,0.16-0.15,0.17s-0.16-0.06-0.17-0.15
						C47.46,30.26,47.46,30.26,47.46,30.25z"/>
				</g>
				<rect x="74.05" y="42.66" class="st2" width="0.76" height="1.89"/>
				<path class="st1" d="M73.42,41.44c0.35,0.25,0.65,1.21,0.65,1.21h0.35h0.35c0,0,0.31-0.96,0.65-1.21"/>
				<rect x="73.46" y="39.82" class="st1" width="1.95" height="1.55"/>
				<rect x="73.24" y="39.31" class="st1" width="2.38" height="0.51"/>
				<path class="st1" d="M74.21,41.26h-0.41v-0.8c0-0.12,0.09-0.21,0.21-0.21l0,0c0.11,0,0.21,0.09,0.21,0.21V41.26z"/>
				<path class="st1" d="M75.02,41.26H74.6v-0.8c0-0.12,0.09-0.21,0.21-0.21l0,0c0.11,0,0.21,0.09,0.21,0.21V41.26z"/>
				<g>
					<path class="st4" d="M74.27,39.31l0.16-3.61l0.16,3.61c0,0.09-0.06,0.16-0.15,0.17c-0.09,0-0.16-0.06-0.17-0.15
						C74.27,39.32,74.27,39.31,74.27,39.31z"/>
				</g>
				<rect x="63.43" y="43.63" class="st2" width="10.62" height="0.91"/>
				<path class="st2" d="M65.23,43.63c0-1.1,1.57-1.99,3.5-1.99s3.5,0.89,3.5,1.99"/>
				<polyline class="st2" points="67.11,41.84 68.73,39.28 70.35,41.84 				"/>
				<g>
					<path class="st4" d="M68.57,39.16l0.16-3.66l0.16,3.66c0,0.09-0.06,0.16-0.15,0.17c-0.09,0-0.16-0.06-0.17-0.15
						C68.57,39.17,68.57,39.16,68.57,39.16z"/>
				</g>
				<ellipse class="st4" cx="68.73" cy="38.21" rx="0.31" ry="0.25"/>
				<path class="st4" d="M68.93,37.45c0,0.09-0.09,0.16-0.2,0.16s-0.2-0.07-0.2-0.16s0.09-0.16,0.2-0.16S68.93,37.36,68.93,37.45z"
					/>
				<path class="st2" d="M62.67,51.66h-0.84v-0.94c0-0.23,0.19-0.42,0.42-0.42l0,0c0.23,0,0.42,0.19,0.42,0.42V51.66z"/>
				<path class="st2" d="M61.83,51.66H61v-0.94c0-0.23,0.19-0.42,0.42-0.42l0,0c0.23,0,0.42,0.19,0.42,0.42V51.66z"/>
				<path class="st2" d="M61,51.66h-0.84v-0.94c0-0.23,0.19-0.42,0.42-0.42l0,0c0.23,0,0.42,0.19,0.42,0.42V51.66z"/>
				<path class="st2" d="M60.16,51.66h-0.84v-0.94c0-0.23,0.19-0.42,0.42-0.42l0,0c0.23,0,0.42,0.19,0.42,0.42V51.66z"/>
				<path class="st2" d="M59.33,51.66h-0.84v-0.94c0-0.23,0.19-0.42,0.42-0.42l0,0c0.23,0,0.42,0.19,0.42,0.42V51.66z"/>
				<path class="st2" d="M58.49,51.66h-0.84v-0.94c0-0.23,0.19-0.42,0.42-0.42l0,0c0.23,0,0.42,0.19,0.42,0.42V51.66z"/>
				<path class="st2" d="M57.66,51.66h-0.84v-0.94c0-0.23,0.19-0.42,0.42-0.42l0,0c0.23,0,0.42,0.19,0.42,0.42V51.66z"/>
				<path class="st2" d="M56.82,51.66h-0.84v-0.94c0-0.23,0.19-0.42,0.42-0.42l0,0c0.23,0,0.42,0.19,0.42,0.42V51.66z"/>
				<path class="st2" d="M55.99,51.66h-0.84v-0.94c0-0.23,0.19-0.42,0.42-0.42l0,0c0.23,0,0.42,0.19,0.42,0.42V51.66z"/>
				<path class="st2" d="M55.15,51.66h-0.84v-0.94c0-0.23,0.19-0.42,0.42-0.42l0,0c0.23,0,0.42,0.19,0.42,0.42V51.66z"/>
				<path class="st2" d="M54.32,51.66h-0.84v-0.94c0-0.23,0.19-0.42,0.42-0.42l0,0c0.23,0,0.42,0.19,0.42,0.42V51.66z"/>
				<path class="st2" d="M53.48,51.66h-0.84v-0.94c0-0.23,0.19-0.42,0.42-0.42l0,0c0.23,0,0.42,0.19,0.42,0.42V51.66z"/>
				<path class="st2" d="M52.65,51.66h-0.84v-0.94c0-0.23,0.19-0.42,0.42-0.42l0,0c0.23,0,0.42,0.19,0.42,0.42V51.66z"/>
				<path class="st2" d="M51.81,51.66h-0.84v-0.94c0-0.23,0.19-0.42,0.42-0.42l0,0c0.23,0,0.42,0.19,0.42,0.42V51.66z"/>
				<path class="st2" d="M50.98,51.66h-0.84v-0.94c0-0.23,0.19-0.42,0.42-0.42l0,0c0.23,0,0.42,0.19,0.42,0.42V51.66z"/>
				<path class="st2" d="M50.14,51.66h-0.84v-0.94c0-0.23,0.19-0.42,0.42-0.42l0,0c0.23,0,0.42,0.19,0.42,0.42V51.66z"/>
				<polyline class="st2" points="49.26,51.66 49.26,59.97 65.34,59.97 				"/>
				<rect x="45.8" y="59.4" class="st2" width="3.47" height="0.57"/>
				<rect x="45.97" y="58.83" class="st2" width="3.3" height="0.57"/>
				<rect x="45.97" y="50.3" class="st2" width="3.3" height="8.53"/>
				<polyline class="st1" points="49.26,50.3 50.26,49.09 47.61,49.09 44.97,49.09 45.97,50.3 				"/>
				<polyline class="st1" points="49.12,42.02 50.02,40.81 47.61,40.81 45.21,40.81 46.11,42.02 				"/>
				<polyline class="st1" points="48.77,33.63 49.46,32.42 47.61,32.42 45.77,32.42 46.46,33.63 				"/>
				<rect x="46.14" y="42.02" class="st1" width="2.95" height="7.08"/>
				<rect x="46.47" y="33.73" class="st2" width="2.29" height="7.08"/>
				<path class="st3" d="M75.33,57.22c0-0.02,0-0.03,0-0.05c0-0.12,0.06-0.23,0.14-0.27c0-0.01,0-0.02,0-0.03
					c0-0.14,0.08-0.26,0.18-0.29c0,0,0-0.01,0-0.01c0-0.16,0.11-0.3,0.24-0.3c0,0,0,0,0,0c0.01-0.16,0.11-0.28,0.24-0.28
					c0.01,0,0.03,0,0.04,0c0.03-0.12,0.12-0.2,0.23-0.2c0.01,0,0.01,0,0.02,0c0.03,0,0.05,0.01,0.07,0.02c0,0,0,0,0,0
					c0.05-0.2,0.29-0.2,0.34,0c0,0,0,0,0,0c0.02-0.01,0.05-0.02,0.07-0.02c0.01,0,0.01,0,0.02,0c0.1,0,0.19,0.08,0.23,0.2
					c0.01,0,0.03,0,0.04,0c0.13,0,0.23,0.12,0.24,0.28c0,0,0,0,0,0c0.13,0,0.24,0.13,0.24,0.3c0,0,0,0.01,0,0.01
					c0.11,0.03,0.18,0.15,0.18,0.29c0,0.01,0,0.02,0,0.03c0.08,0.05,0.14,0.15,0.14,0.27c0,0.02,0,0.04,0,0.05c0,0,0,0,0,0l0,0v2.75
					h-0.28h-1.04h-1.04h-0.28L75.33,57.22L75.33,57.22C75.33,57.22,75.33,57.22,75.33,57.22z"/>
				<path class="st3" d="M78.44,57.22c0-0.02,0-0.03,0-0.05c0-0.12,0.06-0.23,0.14-0.27c0-0.01,0-0.02,0-0.03
					c0-0.14,0.08-0.26,0.18-0.29c0,0,0-0.01,0-0.01c0-0.16,0.11-0.3,0.24-0.3c0,0,0,0,0,0c0.01-0.16,0.11-0.28,0.24-0.28
					c0.01,0,0.03,0,0.04,0c0.03-0.12,0.12-0.2,0.23-0.2c0.01,0,0.01,0,0.02,0c0.03,0,0.05,0.01,0.07,0.02c0,0,0,0,0,0
					c0.05-0.2,0.29-0.2,0.34,0c0,0,0,0,0,0c0.02-0.01,0.05-0.02,0.07-0.02c0.01,0,0.01,0,0.02,0c0.1,0,0.19,0.08,0.23,0.2
					c0.01,0,0.03,0,0.04,0c0.13,0,0.23,0.12,0.24,0.28c0,0,0,0,0,0c0.13,0,0.24,0.13,0.24,0.3c0,0,0,0.01,0,0.01
					c0.11,0.03,0.18,0.15,0.18,0.29c0,0.01,0,0.02,0,0.03c0.08,0.05,0.14,0.15,0.14,0.27c0,0.02,0,0.04,0,0.05c0,0,0,0,0,0l0,0v2.75
					h-0.28h-1.04h-1.04h-0.28L78.44,57.22L78.44,57.22C78.44,57.22,78.44,57.22,78.44,57.22z"/>
				<path class="st3" d="M81.56,57.22c0-0.02,0-0.03,0-0.05c0-0.12,0.06-0.23,0.14-0.27c0-0.01,0-0.02,0-0.03
					c0-0.14,0.08-0.26,0.18-0.29c0,0,0-0.01,0-0.01c0-0.16,0.11-0.3,0.24-0.3c0,0,0,0,0,0c0.01-0.16,0.11-0.28,0.24-0.28
					c0.01,0,0.03,0,0.04,0c0.03-0.12,0.12-0.2,0.23-0.2c0.01,0,0.01,0,0.02,0c0.03,0,0.05,0.01,0.07,0.02c0,0,0,0,0,0
					c0.05-0.2,0.29-0.2,0.34,0c0,0,0,0,0,0c0.02-0.01,0.05-0.02,0.07-0.02c0.01,0,0.01,0,0.02,0c0.1,0,0.19,0.08,0.23,0.2
					c0.01,0,0.03,0,0.04,0c0.13,0,0.23,0.12,0.24,0.28c0,0,0,0,0,0c0.13,0,0.24,0.13,0.24,0.3c0,0,0,0.01,0,0.01
					c0.11,0.03,0.18,0.15,0.18,0.29c0,0.01,0,0.02,0,0.03c0.08,0.05,0.14,0.15,0.14,0.27c0,0.02,0,0.04,0,0.05c0,0,0,0,0,0l0,0v2.75
					h-0.28h-1.04h-1.04h-0.28L81.56,57.22L81.56,57.22C81.56,57.22,81.56,57.22,81.56,57.22z"/>
				<path class="st3" d="M84.67,57.22c0-0.02,0-0.03,0-0.05c0-0.12,0.06-0.23,0.14-0.27c0-0.01,0-0.02,0-0.03
					c0-0.14,0.08-0.26,0.18-0.29c0,0,0-0.01,0-0.01c0-0.16,0.11-0.3,0.24-0.3c0,0,0,0,0,0c0.01-0.16,0.11-0.28,0.24-0.28
					c0.01,0,0.03,0,0.04,0c0.03-0.12,0.12-0.2,0.23-0.2c0.01,0,0.01,0,0.02,0c0.03,0,0.05,0.01,0.07,0.02c0,0,0,0,0,0
					c0.05-0.2,0.29-0.2,0.34,0c0,0,0,0,0,0c0.02-0.01,0.05-0.02,0.07-0.02c0.01,0,0.01,0,0.02,0c0.1,0,0.19,0.08,0.23,0.2
					c0.01,0,0.03,0,0.04,0c0.13,0,0.23,0.12,0.24,0.28c0,0,0,0,0,0c0.13,0,0.24,0.13,0.24,0.3c0,0,0,0.01,0,0.01
					c0.11,0.03,0.18,0.15,0.18,0.29c0,0.01,0,0.02,0,0.03c0.08,0.05,0.14,0.15,0.14,0.27c0,0.02,0,0.04,0,0.05c0,0,0,0,0,0l0,0v2.75
					h-0.28h-1.04h-1.04h-0.28L84.67,57.22L84.67,57.22C84.67,57.22,84.67,57.22,84.67,57.22z"/>
				<rect x="88.81" y="30.79" class="st1" width="2.14" height="1.63"/>
				
					<rect x="88.58" y="30.25" transform="matrix(-1 -1.224647e-16 1.224647e-16 -1 179.7719 61.0451)" class="st1" width="2.62" height="0.54"/>
				<g>
					<path class="st1" d="M90.14,32.3h0.41v-0.85c0-0.12-0.09-0.21-0.21-0.21l0,0c-0.11,0-0.21,0.09-0.21,0.21V32.3z"/>
					<path class="st1" d="M89.22,32.3h0.41v-0.85c0-0.12-0.09-0.21-0.21-0.21l0,0c-0.11,0-0.21,0.09-0.21,0.21V32.3z"/>
				</g>
				<g>
					<path class="st4" d="M89.73,30.25l0.16-3.78l0.16,3.78c0,0.09-0.06,0.16-0.15,0.17s-0.16-0.06-0.17-0.15
						C89.73,30.26,89.73,30.26,89.73,30.25z"/>
				</g>
				<path class="st2" d="M74.83,51.66h0.84v-0.94c0-0.23-0.19-0.42-0.42-0.42l0,0c-0.23,0-0.42,0.19-0.42,0.42V51.66z"/>
				<path class="st2" d="M75.67,51.66h0.84v-0.94c0-0.23-0.19-0.42-0.42-0.42l0,0c-0.23,0-0.42,0.19-0.42,0.42V51.66z"/>
				<path class="st2" d="M76.5,51.66h0.84v-0.94c0-0.23-0.19-0.42-0.42-0.42l0,0c-0.23,0-0.42,0.19-0.42,0.42V51.66z"/>
				<path class="st2" d="M77.34,51.66h0.84v-0.94c0-0.23-0.19-0.42-0.42-0.42l0,0c-0.23,0-0.42,0.19-0.42,0.42V51.66z"/>
				<path class="st2" d="M78.17,51.66h0.84v-0.94c0-0.23-0.19-0.42-0.42-0.42l0,0c-0.23,0-0.42,0.19-0.42,0.42V51.66z"/>
				<path class="st2" d="M79.01,51.66h0.84v-0.94c0-0.23-0.19-0.42-0.42-0.42l0,0c-0.23,0-0.42,0.19-0.42,0.42V51.66z"/>
				<path class="st2" d="M79.84,51.66h0.84v-0.94c0-0.23-0.19-0.42-0.42-0.42l0,0c-0.23,0-0.42,0.19-0.42,0.42V51.66z"/>
				<path class="st2" d="M80.68,51.66h0.84v-0.94c0-0.23-0.19-0.42-0.42-0.42l0,0c-0.23,0-0.42,0.19-0.42,0.42V51.66z"/>
				<path class="st2" d="M81.51,51.66h0.84v-0.94c0-0.23-0.19-0.42-0.42-0.42l0,0c-0.23,0-0.42,0.19-0.42,0.42V51.66z"/>
				<path class="st2" d="M82.35,51.66h0.84v-0.94c0-0.23-0.19-0.42-0.42-0.42l0,0c-0.23,0-0.42,0.19-0.42,0.42V51.66z"/>
				<path class="st2" d="M83.18,51.66h0.84v-0.94c0-0.23-0.19-0.42-0.42-0.42l0,0c-0.23,0-0.42,0.19-0.42,0.42V51.66z"/>
				<path class="st2" d="M84.02,51.66h0.84v-0.94c0-0.23-0.19-0.42-0.42-0.42l0,0c-0.23,0-0.42,0.19-0.42,0.42V51.66z"/>
				<path class="st2" d="M84.85,51.66h0.84v-0.94c0-0.23-0.19-0.42-0.42-0.42l0,0c-0.23,0-0.42,0.19-0.42,0.42V51.66z"/>
				<path class="st2" d="M85.69,51.66h0.84v-0.94c0-0.23-0.19-0.42-0.42-0.42l0,0c-0.23,0-0.42,0.19-0.42,0.42V51.66z"/>
				<path class="st2" d="M86.52,51.66h0.84v-0.94c0-0.23-0.19-0.42-0.42-0.42l0,0c-0.23,0-0.42,0.19-0.42,0.42V51.66z"/>
				<path class="st2" d="M87.36,51.66h0.84v-0.94c0-0.23-0.19-0.42-0.42-0.42l0,0c-0.23,0-0.42,0.19-0.42,0.42V51.66z"/>
				<polyline class="st2" points="88.24,51.66 88.24,59.97 72.16,59.97 				"/>
				<rect x="88.24" y="59.4" class="st2" width="3.47" height="0.57"/>
				<rect x="88.24" y="58.83" class="st2" width="3.3" height="0.57"/>
				
					<rect x="88.24" y="50.3" transform="matrix(-1 -1.224647e-16 1.224647e-16 -1 179.7719 109.1325)" class="st2" width="3.3" height="8.53"/>
				<polyline class="st1" points="88.24,50.3 87.24,49.09 89.89,49.09 92.53,49.09 91.54,50.3 				"/>
				<polyline class="st1" points="88.39,42.02 87.48,40.81 89.89,40.81 92.29,40.81 91.39,42.02 				"/>
				<polyline class="st1" points="88.73,33.63 88.04,32.42 89.89,32.42 91.73,32.42 91.04,33.63 				"/>
				
					<rect x="88.41" y="42.02" transform="matrix(-1 -1.224647e-16 1.224647e-16 -1 179.7719 91.1091)" class="st1" width="2.95" height="7.08"/>
				
					<rect x="88.74" y="33.73" transform="matrix(-1 -1.224647e-16 1.224647e-16 -1 179.7719 74.5362)" class="st2" width="2.29" height="7.08"/>
				<g>
					<path class="st4" d="M74.28,39.31l0.16-3.61l0.16,3.61c0,0.09-0.06,0.16-0.15,0.17c-0.09,0-0.16-0.06-0.17-0.15
						C74.28,39.32,74.28,39.31,74.28,39.31z"/>
				</g>
				<rect x="45.26" y="59.97" class="st2" width="46.94" height="0.62"/>
			</g>
			<rect x="44.49" y="60.58" class="st2" width="48.11" height="0.62"/>
		</g>
		<g class="st0">
			<line class="st1" x1="102.75" y1="49.23" x2="102.75" y2="51.95"/>
			<line class="st2" x1="116.31" y1="48.73" x2="116.31" y2="59.4"/>
			<g>
				<rect x="94.27" y="59.44" class="st2" width="29.27" height="0.59"/>
				<rect x="93.86" y="60.03" class="st2" width="30.06" height="0.59"/>
				<rect x="93.48" y="60.61" class="st2" width="30.78" height="0.59"/>
				<polyline class="st2" points="112.73,59.44 112.73,52.16 112.73,51.35 112.73,50.86 112.02,50.86 112.02,50.45 111.64,50.45 
					111.64,50.11 111.2,50.11 111.2,49.68 110.62,49.68 110.62,49.32 110.07,49.32 110.07,49 109.59,49 109.74,49 109.26,49 
					109.26,49.32 108.71,49.32 108.71,49.68 108.12,49.68 108.12,50.11 107.69,50.11 107.69,50.45 107.31,50.45 107.31,50.86 
					106.6,50.86 106.6,51.35 106.6,52.16 106.6,59.44 				"/>
				<path class="st2" d="M112.08,59.44h-4.83v-6.51c0-1.25,1.02-2.27,2.27-2.27h0.29c1.25,0,2.27,1.02,2.27,2.27V59.44z"/>
				<line class="st2" x1="107.25" y1="53.71" x2="112.08" y2="53.71"/>
				<g>
					<rect x="104.74" y="49.9" class="st2" width="1.05" height="9.54"/>
					<rect x="104.14" y="49.23" class="st2" width="2.25" height="0.67"/>
					<rect x="104.31" y="47.7" class="st2" width="1.9" height="1.53"/>
					<rect x="113.54" y="49.9" class="st2" width="1.05" height="9.54"/>
					<rect x="112.94" y="49.23" class="st2" width="2.25" height="0.67"/>
					<rect x="113.12" y="47.7" class="st2" width="1.9" height="1.52"/>
				</g>
				<g>
					<polygon class="st2" points="116.06,47.7 103.27,47.7 103.95,46.72 115.55,46.72 					"/>
					<rect x="104.52" y="45.68" class="st2" width="10.29" height="1.05"/>
					<path class="st2" d="M114.07,45.68h-8.82v-0.11c0-0.84,0.68-1.52,1.52-1.52h5.78c0.84,0,1.52,0.68,1.52,1.52V45.68z"/>
					<polygon class="st1" points="111.32,43.44 111.32,42.95 111.05,42.95 111.05,42.27 110.76,42.27 110.76,41.48 110.47,41.48 
						110.47,40.82 110.1,40.82 109.66,39.6 109.23,40.82 108.86,40.82 108.86,41.48 108.57,41.48 108.57,42.27 108.28,42.27 
						108.28,42.95 108.01,42.95 108.01,43.44 107.54,43.44 107.54,44.04 109.66,44.04 111.79,44.04 111.79,43.44 					"/>
				</g>
				<polygon class="st2" points="119.93,49.23 116.29,49.23 116.83,47.84 119.38,47.84 				"/>
				<line class="st2" x1="118.77" y1="49.23" x2="118.77" y2="59.44"/>
				<line class="st2" x1="115.01" y1="48.73" x2="116.52" y2="48.73"/>
				<polyline class="st1" points="115.69,47 116.06,46.37 116.45,47 116.84,46.28 117.31,46.9 117.72,46.28 118.11,46.79 
					118.11,47.21 118.77,46.74 118.77,47.84 				"/>
				<polygon class="st2" points="99.28,49.23 102.93,49.23 102.39,47.84 99.84,47.84 				"/>
				<polygon class="st2" points="94.27,52.64 100.44,52.64 99.52,51.62 95.21,51.62 				"/>
				<line class="st2" x1="100.44" y1="49.23" x2="100.44" y2="59.44"/>
				<polyline class="st1" points="103.67,47.12 103.16,46.37 102.76,47 102.38,46.28 101.91,46.9 101.49,46.28 101.11,46.79 
					101.11,47.21 100.44,46.74 100.44,47.84 				"/>
				<line class="st1" x1="109.66" y1="39.6" x2="109.66" y2="37.31"/>
				<path class="st1" d="M109.66,37.65c0,0,1.55,0.07,2.51,1.68c0,0-1.74-1.22-2.51-0.84"/>
				<polyline class="st1" points="104.52,51.95 102.54,51.95 102.54,59.44 				"/>
				<line class="st1" x1="102.69" y1="48.62" x2="104.31" y2="48.62"/>
				<path class="st2" d="M99.52,51.62h-4.24v-0.4c0-1.1,0.89-1.99,1.99-1.99h0.26c1.1,0,1.99,0.89,1.99,1.99V51.62z"/>
				<rect x="98.26" y="52.64" class="st2" width="1.14" height="6.8"/>
				<rect x="94.87" y="52.64" class="st2" width="1.14" height="6.8"/>
				<line class="st2" x1="98.26" y1="55.1" x2="96.13" y2="55.1"/>
				<path class="st2" d="M98.08,49.23h-1.3v-0.03c0-0.26,0.21-0.47,0.47-0.47h0.37c0.26,0,0.47,0.21,0.47,0.47V49.23z"/>
				<rect x="118.77" y="53.23" class="st1" width="4.2" height="0.49"/>
				<polyline class="st1" points="118.77,53.23 120.88,50.67 122.98,53.23 				"/>
				<line class="st1" x1="122.98" y1="53.71" x2="122.98" y2="59.44"/>
				<g>
					<polygon class="st4" points="120.72,50.67 120.88,49.42 121.04,50.67 					"/>
				</g>
				<path class="st2" d="M100.87,46.88c0-0.84,0.58-1.51,1.29-1.51l0,0c0.71,0,1.29,0.68,1.29,1.51"/>
				<line class="st1" x1="102.15" y1="45.36" x2="102.15" y2="43.62"/>
				<path class="st1" d="M102.15,43.92c0,0,0.89,0.29,1.29,1.35c0,0-0.56-0.42-1.2-0.68"/>
			</g>
			<line class="st2" x1="114.59" y1="51.95" x2="116.09" y2="51.95"/>
		</g>
		<g class="st0">
			<rect x="18.13" y="45.14" class="st2" width="9.83" height="15.37"/>
			<path class="st2" d="M26.86,53.09c0,0-0.16-6.14-3.8-6.14c-3.64,0-3.8,6.14-3.8,6.14h-0.46v7.42h4.25h4.25v-7.42H26.86z"/>
			<path class="st2" d="M26.33,54.08c0,0-0.13-5.32-3.27-5.32c-3.13,0-3.27,5.32-3.27,5.32H19.4v6.43h3.66h3.66v-6.43H26.33z"/>
			<path class="st2" d="M11.4,55.56c0,0-0.1-4.09-2.5-4.09c-2.4,0-2.5,4.09-2.5,4.09h-0.3v4.95h2.8h2.8v-4.95H11.4z"/>
			<path class="st2" d="M11.92,55.11c0,0-0.13-4.47-3.06-4.47c-2.93,0-3.06,4.47-3.06,4.47H5.44v5.4h3.42h3.42v-5.4H11.92z"/>
			<rect x="18.13" y="44.44" class="st1" width="9.83" height="0.71"/>
			<path class="st1" d="M23.53,44.44h-0.97v-0.59c0-0.27,0.22-0.48,0.48-0.48l0,0c0.27,0,0.48,0.22,0.48,0.48V44.44z"/>
			<path class="st1" d="M22.33,44.44h-0.78v-0.41c0-0.22,0.17-0.39,0.39-0.39l0,0c0.21,0,0.39,0.18,0.39,0.39V44.44z"/>
			<path class="st1" d="M21.47,44.44h-0.78v-0.41c0-0.22,0.17-0.39,0.39-0.39l0,0c0.21,0,0.39,0.18,0.39,0.39V44.44z"/>
			<path class="st1" d="M20.62,44.44h-0.78v-0.41c0-0.22,0.17-0.39,0.39-0.39l0,0c0.21,0,0.39,0.18,0.39,0.39V44.44z"/>
			<path class="st1" d="M19.76,44.44h-0.78v-0.41c0-0.22,0.17-0.39,0.39-0.39l0,0c0.21,0,0.39,0.18,0.39,0.39V44.44z"/>
			<path class="st1" d="M18.9,44.44h-0.78v-0.41c0-0.22,0.17-0.39,0.39-0.39l0,0c0.21,0,0.39,0.18,0.39,0.39V44.44z"/>
			<path class="st1" d="M23.76,44.44h0.78v-0.41c0-0.22-0.17-0.39-0.39-0.39l0,0c-0.21,0-0.39,0.18-0.39,0.39V44.44z"/>
			<path class="st1" d="M24.62,44.44h0.78v-0.41c0-0.22-0.17-0.39-0.39-0.39l0,0c-0.21,0-0.39,0.18-0.39,0.39V44.44z"/>
			<path class="st1" d="M25.48,44.44h0.78v-0.41c0-0.22-0.17-0.39-0.39-0.39l0,0c-0.21,0-0.39,0.18-0.39,0.39V44.44z"/>
			<path class="st1" d="M26.33,44.44h0.78v-0.41c0-0.22-0.17-0.39-0.39-0.39l0,0c-0.21,0-0.39,0.18-0.39,0.39V44.44z"/>
			<path class="st1" d="M27.19,44.44h0.78v-0.41c0-0.22-0.17-0.39-0.39-0.39l0,0c-0.21,0-0.39,0.18-0.39,0.39V44.44z"/>
			<rect x="15.04" y="43.36" class="st2" width="3.08" height="17.15"/>
			<rect x="15.04" y="56.87" class="st1" width="3.08" height="0.48"/>
			<rect x="15.04" y="53.93" class="st1" width="3.08" height="0.48"/>
			<rect x="15.04" y="51.23" class="st1" width="3.08" height="0.48"/>
			<rect x="15.04" y="48.52" class="st1" width="3.08" height="0.48"/>
			<rect x="15.04" y="45.82" class="st1" width="3.08" height="0.48"/>
			<rect x="15.04" y="42.51" class="st2" width="3.08" height="0.85"/>
			<rect x="27.96" y="43.36" class="st2" width="3.08" height="17.15"/>
			<rect x="27.96" y="56.87" class="st1" width="3.08" height="0.48"/>
			<rect x="27.96" y="53.93" class="st1" width="3.08" height="0.48"/>
			<rect x="27.96" y="51.23" class="st1" width="3.08" height="0.48"/>
			<rect x="27.96" y="48.52" class="st1" width="3.08" height="0.48"/>
			<rect x="27.96" y="45.82" class="st1" width="3.08" height="0.48"/>
			<rect x="27.96" y="42.51" class="st2" width="3.08" height="0.85"/>
			<rect x="3.45" y="48.76" class="st2" width="11.59" height="0.85"/>
			<line class="st2" x1="15.04" y1="49.19" x2="3.45" y2="49.19"/>
			<path class="st1" d="M9.41,48.76h0.78c0.07,0,0.13-0.06,0.13-0.13v-0.15c0-0.29-0.23-0.52-0.52-0.52h0
				c-0.29,0-0.52,0.23-0.52,0.52v0.15C9.28,48.7,9.34,48.76,9.41,48.76z"/>
			<path class="st1" d="M10.56,48.76h0.78c0.07,0,0.13-0.06,0.13-0.14v-0.14c0-0.29-0.23-0.53-0.52-0.53l0,0
				c-0.29,0-0.52,0.24-0.52,0.53v0.14C10.43,48.7,10.49,48.76,10.56,48.76z"/>
			<path class="st1" d="M11.71,48.76h0.78c0.07,0,0.13-0.06,0.13-0.14v-0.14c0-0.29-0.23-0.53-0.52-0.53l0,0
				c-0.29,0-0.52,0.24-0.52,0.53v0.14C11.58,48.7,11.64,48.76,11.71,48.76z"/>
			<path class="st1" d="M12.86,48.76h0.78c0.07,0,0.13-0.06,0.13-0.14v-0.14c0-0.29-0.23-0.53-0.52-0.53l0,0
				c-0.29,0-0.52,0.24-0.52,0.53v0.14C12.73,48.7,12.79,48.76,12.86,48.76z"/>
			<path class="st1" d="M14.01,48.76h0.78c0.07,0,0.13-0.06,0.13-0.14v-0.14c0-0.29-0.23-0.53-0.52-0.53l0,0
				c-0.29,0-0.52,0.24-0.52,0.53v0.14C13.88,48.7,13.94,48.76,14.01,48.76z"/>
			<path class="st1" d="M3.59,48.76h0.78c0.07,0,0.13-0.06,0.13-0.14v-0.14c0-0.29-0.23-0.53-0.52-0.53l0,0
				c-0.29,0-0.52,0.24-0.52,0.53v0.14C3.45,48.7,3.51,48.76,3.59,48.76z"/>
			<path class="st1" d="M4.74,48.76h0.78c0.07,0,0.13-0.06,0.13-0.14v-0.14c0-0.29-0.23-0.53-0.52-0.53l0,0
				c-0.29,0-0.52,0.24-0.52,0.53v0.14C4.6,48.7,4.66,48.76,4.74,48.76z"/>
			<path class="st1" d="M5.89,48.76h0.78c0.07,0,0.13-0.06,0.13-0.14v-0.14c0-0.29-0.23-0.53-0.52-0.53l0,0
				c-0.29,0-0.52,0.24-0.52,0.53v0.14C5.76,48.7,5.82,48.76,5.89,48.76z"/>
			<path class="st1" d="M7.04,48.76h0.78c0.07,0,0.13-0.06,0.13-0.14v-0.14c0-0.29-0.23-0.53-0.52-0.53l0,0
				c-0.29,0-0.52,0.24-0.52,0.53v0.14C6.91,48.7,6.97,48.76,7.04,48.76z"/>
			<path class="st1" d="M8.19,48.76h0.78c0.07,0,0.13-0.06,0.13-0.14v-0.14c0-0.29-0.23-0.53-0.52-0.53l0,0
				c-0.29,0-0.52,0.24-0.52,0.53v0.14C8.06,48.7,8.12,48.76,8.19,48.76z"/>
			<polyline class="st1" points="15.04,60.51 3.45,60.51 3.45,49.62 			"/>
			<polyline class="st2" points="8.28,51.57 8.28,59.71 7.66,59.71 7.66,51.92 			"/>
			<rect x="7.29" y="59.71" class="st2" width="1.28" height="0.8"/>
			<polyline class="st2" points="9.51,51.57 9.51,59.71 10.13,59.71 10.13,51.93 			"/>
			
				<rect x="9.22" y="59.71" transform="matrix(-1 -1.224647e-16 1.224647e-16 -1 19.7336 120.2153)" class="st2" width="1.3" height="0.8"/>
			<path class="st2" d="M34.69,55.56c0,0,0.1-4.09,2.5-4.09c2.4,0,2.5,4.09,2.5,4.09H40v4.95h-2.8h-2.8v-4.95H34.69z"/>
			<path class="st2" d="M34.17,55.11c0,0,0.13-4.47,3.06-4.47c2.93,0,3.06,4.47,3.06,4.47h0.37v5.4h-3.42H33.8v-5.4H34.17z"/>
			
				<rect x="31.05" y="48.76" transform="matrix(-1 -1.224647e-16 1.224647e-16 -1 73.6834 98.3812)" class="st2" width="11.59" height="0.85"/>
			<line class="st2" x1="31.05" y1="49.19" x2="42.64" y2="49.19"/>
			<path class="st1" d="M36.7,48.76h-0.78c-0.07,0-0.13-0.06-0.13-0.13v-0.15c0-0.29,0.23-0.52,0.52-0.52l0,0
				c0.29,0,0.52,0.23,0.52,0.52v0.15C36.83,48.7,36.77,48.76,36.7,48.76z"/>
			<path class="st1" d="M35.55,48.76h-0.78c-0.07,0-0.13-0.06-0.13-0.13v-0.15c0-0.29,0.23-0.52,0.52-0.52l0,0
				c0.29,0,0.52,0.23,0.52,0.52v0.15C35.68,48.7,35.63,48.76,35.55,48.76z"/>
			<path class="st1" d="M34.41,48.76h-0.78c-0.07,0-0.13-0.06-0.13-0.13v-0.15c0-0.29,0.23-0.52,0.52-0.52l0,0
				c0.29,0,0.52,0.23,0.52,0.52v0.15C34.54,48.7,34.48,48.76,34.41,48.76z"/>
			<path class="st1" d="M33.26,48.76h-0.78c-0.07,0-0.13-0.06-0.13-0.13v-0.15c0-0.29,0.23-0.52,0.52-0.52l0,0
				c0.29,0,0.52,0.23,0.52,0.52v0.15C33.39,48.7,33.33,48.76,33.26,48.76z"/>
			<path class="st1" d="M31.95,48.76h-0.78c-0.07,0-0.13-0.06-0.13-0.13v-0.15c0-0.29,0.23-0.52,0.52-0.52l0,0
				c0.29,0,0.52,0.23,0.52,0.52v0.15C32.09,48.7,32.03,48.76,31.95,48.76z"/>
			<path class="st1" d="M42.5,48.76h-0.78c-0.07,0-0.13-0.06-0.13-0.13v-0.15c0-0.29,0.23-0.52,0.52-0.52l0,0
				c0.29,0,0.52,0.23,0.52,0.52v0.15C42.64,48.7,42.58,48.76,42.5,48.76z"/>
			<path class="st1" d="M41.36,48.76h-0.78c-0.07,0-0.13-0.06-0.13-0.13v-0.15c0-0.29,0.23-0.52,0.52-0.52l0,0
				c0.29,0,0.52,0.23,0.52,0.52v0.15C41.49,48.7,41.43,48.76,41.36,48.76z"/>
			<path class="st1" d="M40.21,48.76h-0.78c-0.07,0-0.13-0.06-0.13-0.13v-0.15c0-0.29,0.23-0.52,0.52-0.52l0,0
				c0.29,0,0.52,0.23,0.52,0.52v0.15C40.34,48.7,40.28,48.76,40.21,48.76z"/>
			<path class="st1" d="M39.06,48.76h-0.78c-0.07,0-0.13-0.06-0.13-0.13v-0.15c0-0.29,0.23-0.52,0.52-0.52l0,0
				c0.29,0,0.52,0.23,0.52,0.52v0.15C39.2,48.7,39.14,48.76,39.06,48.76z"/>
			<path class="st1" d="M37.92,48.76h-0.78c-0.07,0-0.13-0.06-0.13-0.13v-0.15c0-0.29,0.23-0.52,0.52-0.52l0,0
				c0.29,0,0.52,0.23,0.52,0.52v0.15C38.05,48.7,37.99,48.76,37.92,48.76z"/>
			<polyline class="st1" points="31.05,60.51 42.64,60.51 42.64,49.62 			"/>
			<polygon class="st2" points="37.81,59.71 38.44,59.71 38.44,51.92 37.81,51.57 			"/>
			
				<rect x="37.52" y="59.71" transform="matrix(-1 -1.224647e-16 1.224647e-16 -1 76.3743 120.2153)" class="st2" width="1.33" height="0.8"/>
			<polygon class="st2" points="36.58,59.71 35.96,59.71 35.96,51.92 36.58,51.57 			"/>
			<rect x="35.54" y="59.71" class="st2" width="1.33" height="0.8"/>
			<rect x="2.46" y="60.51" class="st2" width="41.2" height="0.69"/>
			<rect x="18.52" y="45.14" class="st2" width="0.39" height="1.43"/>
			<rect x="20.23" y="45.14" class="st2" width="0.39" height="1.43"/>
			<rect x="21.94" y="45.14" class="st2" width="0.39" height="1.43"/>
			<rect x="23.75" y="45.14" class="st2" width="0.39" height="1.43"/>
			<rect x="25.37" y="45.14" class="st2" width="0.39" height="1.43"/>
			<rect x="27.19" y="45.14" class="st2" width="0.39" height="1.43"/>
			<line class="st2" x1="27.96" y1="46.57" x2="18.13" y2="46.57"/>
		</g>
	</g>
</g>
<g id="Layer_2" class="st5">
	<rect x="3.59" y="20.54" class="st6" width="120.81" height="48.38"/>
</g>
</svg>
