<?xml version="1.0" encoding="utf-8"?>
<!-- Generator: Adobe Illustrator 24.3.0, SVG Export Plug-In . SVG Version: 6.00 Build 0)  -->
<svg version="1.1" id="Layer_1" xmlns="http://www.w3.org/2000/svg" xmlns:xlink="http://www.w3.org/1999/xlink" x="0px" y="0px"
	 viewBox="0 0 128 90" style="enable-background:new 0 0 128 90;" xml:space="preserve">
<style type="text/css">
	.st0{clip-path:url(#SVGID_2_);}
	.st1{fill:#A6A8AB;}
	.st2{fill:#808184;}
	.st3{fill:#231F20;}
	.st4{fill:#404041;}
	.st5{fill:#6D6E70;}
</style>
<g>
	<defs>
		<rect id="SVGID_1_" x="3.59" y="20.81" width="120.81" height="48.38"/>
	</defs>
	<clipPath id="SVGID_2_">
		<use xlink:href="#SVGID_1_"  style="overflow:visible;"/>
	</clipPath>
	<g class="st0">
		<g>
			<path class="st1" d="M154.34,68.67c0,0,1.14-8.87-4.14-10.36c-2.35-0.1-2.93-0.1-3.52-1.41c-0.59-1.31-1.76-1.92-2.05-2.46
				c-0.29-0.54-1.47-0.54-3.37,0c-1.91,0.54-0.73,1.15-3.52,0c-2.79-1.15-2.93-0.62-4.25-1.81c-1.32-1.19-2.05-3.09-3.37-2.68
				c-1.32,0.41-2.93,0.26-3.81,0.72c-0.88,0.46-3.08,2.1-3.67,2.59c-0.59,0.49-4.69-0.03-5.13,0c-0.44,0.03-4.55-0.64-6.01,0
				c-1.47,0.64-4.03,2.95-4.69,3.65c-0.66,0.69-2.2,3.7-3.52,3.66c-1.32-0.04-3.03-0.75-4.84,0.46c-1.82,1.21-3.81,2.83-3.81,2.83
				l-2.05,4.82H154.34z"/>
			<polygon class="st1" points="106.66,35.11 106.66,37.58 105.48,37.58 105.48,33.96 101.96,35.11 101.96,37.58 98.89,37.58 
				98.89,34.71 98.14,34.71 98.14,31.53 95.89,31.53 95.89,33.22 95,33.22 95,34.71 94.3,34.71 94.3,68.67 97.26,68.67 98.89,68.67 
				110.18,68.67 110.18,37.58 110.18,33.96 			"/>
			<polygon class="st2" points="31.82,34.84 31.82,33.37 30.37,33.37 30.37,32.18 23.02,32.18 23.02,33.37 21.57,33.37 21.57,34.84 
				20.94,34.84 20.94,68.67 32.45,68.67 32.45,34.84 			"/>
			<polygon class="st2" points="39.8,43.26 39.8,41.55 33.89,41.55 33.89,43.26 33.89,68.67 41.62,68.67 41.62,43.26 			"/>
			<polygon class="st2" points="71.2,32.52 71.2,30.12 66.73,30.12 62.27,30.12 62.27,32.52 60.9,32.52 60.9,68.67 66.73,68.67 
				72.57,68.67 72.57,32.52 			"/>
			<polygon class="st2" points="5.46,47.91 5.46,45.22 -0.25,45.22 -0.25,47.91 -1.71,47.91 -1.71,68.67 6.92,68.67 6.92,47.91 			
				"/>
			<polygon class="st2" points="92.44,34.57 92.44,37.43 91,37.43 91,35.6 88.22,35.6 88.22,37.43 86.78,37.43 86.78,34.57 
				84.98,34.57 84.98,68.67 93.07,68.67 93.07,34.57 			"/>
			<polygon class="st2" points="-10.59,68.67 -10.59,60.56 -17.2,60.56 -17.2,58.39 -20.17,58.39 -20.17,57.25 -21.65,57.25 
				-21.65,60.56 -24.3,60.56 -24.3,68.67 			"/>
			<polygon class="st2" points="23.93,58.43 16.83,58.43 16.83,60.41 15.48,60.41 15.48,53.45 9.91,53.45 9.91,68.67 23.93,68.67 
							"/>
			<polygon class="st2" points="41.62,68.67 51.51,68.67 51.51,60.25 48.72,60.25 48.72,57.25 44.77,57.25 44.77,59.01 41.62,59.01 
							"/>
			<polygon class="st2" points="62.66,58.93 67.38,58.93 67.38,62.51 68.39,62.51 68.39,60.25 69.67,60.25 69.67,68.67 62.66,68.67 
							"/>
			<path class="st1" d="M52.9,35.5h-2.28v1.75h-3.75v-6.23c0-0.13-0.07-0.23-0.16-0.23c-0.09,0-0.16,0.1-0.16,0.23v6.23h0v31.41
				h12.21V35.5c0,0,0-0.34,0-1.87C53.84,33.63,52.9,35.5,52.9,35.5z"/>
			<path class="st2" d="M126.98,42.27h-0.65v-1.64h-1.06V39.4c0-0.96-1.2-1.73-2.68-1.73c-1.48,0-2.68,0.78-2.68,1.73h0v1.22h-1.06
				v1.64h-0.65v1.36h-0.32v25.04h9.43V43.63h-0.32V42.27z"/>
			<polygon class="st2" points="-9.64,46.05 -9.64,43.71 -6.02,43.71 -6.02,46.05 -5.07,46.05 -5.07,49.31 -3.55,49.31 -3.55,68.67 
				-5.07,68.67 -6.59,68.67 -10.59,68.67 -10.59,46.05 			"/>
			<path class="st1" d="M9.02,40.64v-3.01v3.21v-0.22v-1.3v-5.61c0-0.13,0.11-0.24,0.24-0.24s0.24,0.11,0.24,0.24v5.61h2.19v1.3
				h1.76v-2.99h2.07v3.01h1.28v28.03H8.17V40.64H9.02z"/>
			<rect x="-17.99" y="50.28" class="st3" width="4.58" height="18.39"/>
			<polygon class="st3" points="-5.21,61.62 -5.21,62.83 -6.46,62.83 -6.46,59.6 -8.5,59.6 -8.5,61.6 -10.33,61.6 -10.33,58.93 
				-13.41,58.93 -13.41,68.67 -10.52,68.67 -10.33,68.67 -8.5,68.67 -8.29,68.67 -6.71,68.67 -6.46,68.67 -5.21,68.67 -4.9,68.67 
				-1.94,68.67 -1.94,61.62 			"/>
			<polygon class="st3" points="12.46,61.13 12.46,42.19 2.45,42.19 2.45,68.67 11.54,68.67 12.46,68.67 14.31,68.67 14.31,61.13 
							"/>
			<polygon class="st3" points="20.39,60.52 20.39,45.27 16,45.27 16,62.13 14.85,62.13 14.85,68.67 16,68.67 17.62,68.67 
				19.24,68.67 20.39,68.67 22.01,68.67 22.01,60.52 			"/>
			<polygon class="st3" points="-0.32,54.43 -0.32,61.13 -1.94,61.13 -1.94,68.67 -0.32,68.67 0.84,68.67 2.45,68.67 2.45,54.43 			
				"/>
			<polygon class="st3" points="23.21,54.43 23.21,61.13 21.95,61.13 21.95,68.67 23.21,68.67 24.11,68.67 25.38,68.67 25.38,54.43 
							"/>
			<polygon class="st3" points="-17.99,62.76 -17.99,61.18 -19.1,61.18 -19.1,62.76 -21.18,62.76 -21.18,60.39 -23.42,60.39 
				-23.42,62.76 -24.53,62.76 -24.53,68.67 -17.99,68.67 -17.99,62.76 			"/>
			<polygon class="st3" points="34.38,60.67 34.38,47.85 32.11,47.85 32.11,45.27 27.65,45.27 27.65,47.85 25.38,47.85 25.38,68.67 
				26.2,68.67 34.38,68.67 35.21,68.67 35.21,60.67 			"/>
			<polygon class="st3" points="89.64,39.58 89.64,33.74 90.22,33.74 90.22,30.14 91.1,30.14 91.1,26.54 94.11,26.54 94.11,30.14 
				94.99,30.14 94.99,33.74 95.57,33.74 95.57,39.58 96.18,39.58 96.18,68.67 89.02,68.67 89.02,39.58 			"/>
			<polygon class="st3" points="101.8,50.91 101.8,49.94 97.99,49.94 97.99,50.91 97.08,50.91 97.08,68.67 104.51,68.67 
				104.51,50.91 			"/>
			<polygon class="st3" points="59.22,39.83 59.22,59.4 57.54,59.4 57.54,62.44 56.64,62.44 56.64,59.4 55.09,59.4 55.09,39.94 
				47.49,39.94 47.49,68.67 49.03,68.67 53.42,68.67 55.09,68.67 56.64,68.67 57.54,68.67 59.22,68.67 61.02,68.67 65.14,68.67 
				66.82,68.67 66.82,39.83 			"/>
			<rect x="67.96" y="32.18" class="st3" width="6.96" height="36.48"/>
			<polygon class="st3" points="44.26,44.66 44.26,42.63 43.8,42.63 43.8,40.34 43.25,40.34 43.25,38.04 42.7,38.04 42.7,36.86 
				39.89,36.86 39.89,38.04 39.34,38.04 39.34,40.34 38.79,40.34 38.79,42.63 38.33,42.63 38.33,44.66 37.75,44.66 37.75,68.67 
				44.84,68.67 44.84,44.66 			"/>
			<polygon class="st3" points="46.73,61.02 44.57,61.02 44.57,64.19 43.24,64.19 43.24,63.21 40.99,63.21 40.99,62.17 39.95,62.17 
				39.95,62.6 38.22,62.6 38.22,63.73 37.01,63.73 37.01,62.23 34.93,62.23 34.93,63.61 33.89,63.61 33.89,68.67 46.73,68.67 			"/>
			
				<rect x="81.98" y="47.12" transform="matrix(-1 -1.224647e-16 1.224647e-16 -1 169.9588 115.7887)" class="st3" width="6.01" height="21.55"/>
			
				<rect x="75.64" y="38.57" transform="matrix(-1 -1.224647e-16 1.224647e-16 -1 157.0728 107.2429)" class="st3" width="5.8" height="30.09"/>
			<polygon class="st3" points="107.5,49.72 107.5,48.12 112.87,48.12 112.87,49.72 113.56,49.72 113.56,68.67 106.8,68.67 
				106.8,49.72 			"/>
			<polygon class="st3" points="113.56,57.81 116.51,57.81 116.51,61.03 117.19,61.03 117.19,59.42 119.15,59.42 119.15,58.96 
				120.09,58.96 120.09,59.42 120.61,59.42 120.61,61.47 122.01,61.47 122.01,59.64 123.38,59.64 123.38,61.47 124.83,61.47 
				124.83,57.81 126.28,57.81 126.28,61.47 127.65,61.47 127.65,62.02 129.55,62.02 129.55,60.87 130.94,60.87 130.94,58.96 
				134.23,58.96 134.23,60.81 136.08,60.81 136.08,59.04 138.01,59.04 138.01,60.84 139.52,60.84 139.52,59.59 140.82,59.59 
				141.7,59.59 141.7,57.81 143.28,57.81 143.28,62.02 144.09,62.02 144.09,60.81 144.99,60.81 144.99,59.67 147.76,59.67 
				147.76,62.02 148.28,62.02 148.28,59.61 148.92,59.61 148.92,58.96 150.75,58.96 150.75,59.61 151.78,60.92 152.72,60.92 
				152.72,58.85 153.83,58.85 153.83,61.69 154.47,61.69 154.47,68.67 113.56,68.67 			"/>
			<polygon class="st4" points="36.83,59.38 35.25,61.99 35.21,61.99 35.21,63.52 31.42,63.52 31.42,62.6 22.87,62.6 22.87,61.99 
				21.54,60.06 20.82,60.06 20.82,58.7 17.61,58.7 17.61,60.06 16.89,60.06 15.56,61.99 10.13,61.99 8.8,60.06 8.08,60.06 
				8.08,58.7 4.87,58.7 4.87,60.06 4.15,60.06 2.82,61.99 2.82,63.85 -1.66,63.85 -1.66,68.67 2.82,68.67 2.82,68.67 22.87,68.67 
				22.87,68.67 35.21,68.67 38.44,68.67 38.44,61.99 38.41,61.99 			"/>
			<polygon class="st4" points="83.05,65.39 83.05,64.5 87.32,64.5 87.32,60.05 101.81,60.05 101.81,62.87 103.72,62.87 
				103.72,64.28 105.13,64.28 105.13,60.54 107.43,60.54 107.43,68.67 105.34,68.67 105.13,68.67 103.72,68.67 103.3,68.67 
				101.81,68.67 101.68,68.67 87.32,68.67 84.5,68.67 83.05,68.67 80.24,68.67 80.24,65.39 			"/>
			<path class="st4" d="M114.38,59.88c0,0.63,0,0.76,0,0.76v3.49h2.57l3.44-5.25l3.44,5.25v4.53h-14.22v-4.46v-0.07v-3.49h0
				C109.61,60.65,110.37,59.88,114.38,59.88z"/>
			<polygon class="st4" points="81.44,61.41 78.99,61.41 78.99,63.57 78.42,63.57 78.42,62.49 76.79,62.49 76.79,62.18 76.01,62.18 
				76.01,62.49 75.59,62.49 75.59,63.86 74.42,63.86 74.42,62.64 73.29,62.64 73.29,63.86 72.08,63.86 72.08,61.41 70.88,61.41 
				70.88,63.86 69.74,63.86 69.74,64.22 68.17,64.22 68.17,63.46 67.01,63.46 67.01,62.18 64.28,62.18 64.28,63.42 62.74,63.42 
				62.74,62.23 61.15,62.23 61.15,63.44 59.89,63.44 59.89,62.6 58.81,62.6 58.08,62.6 58.08,61.41 56.77,61.41 56.77,64.22 
				56.1,64.22 56.1,63.42 55.36,63.42 55.36,62.65 53.05,62.65 53.05,64.22 52.63,64.22 52.63,62.62 52.09,62.62 52.09,62.18 
				50.57,62.18 50.57,62.62 49.72,63.49 48.94,63.49 48.94,62.11 48.02,62.11 48.02,64 47.49,64 47.49,68.67 81.44,68.67 			"/>
			<g>
				<rect x="-24.53" y="65.22" class="st5" width="179" height="3.05"/>
				<rect x="-24.53" y="65.62" class="st3" width="179" height="3.05"/>
			</g>
		</g>
	</g>
</g>
</svg>
