<?xml version="1.0" encoding="utf-8"?>
<!-- Generator: Adobe Illustrator 24.3.0, SVG Export Plug-In . SVG Version: 6.00 Build 0)  -->
<svg version="1.1" xmlns="http://www.w3.org/2000/svg" xmlns:xlink="http://www.w3.org/1999/xlink" x="0px" y="0px"
	 viewBox="0 0 128 90" style="enable-background:new 0 0 128 90;" xml:space="preserve">
<style type="text/css">
	.st0{clip-path:url(#SVGID_2_);}
	.st1{fill:#010101;}
	.st2{fill:#020202;}
	.st3{fill:#030303;}
	.st4{fill:#040404;}
	.st5{fill:#050505;}
	.st6{fill:#070707;}
	.st7{fill:#080808;}
	.st8{fill:#060606;}
	.st9{fill:#090909;}
	.st10{fill:#0A0A0A;}
	.st11{fill:#0E0E0E;}
	.st12{fill:#F8F8F8;}
	.st13{fill:#0D0D0D;}
	.st14{fill:#0C0C0C;}
	.st15{fill:#2C2C2C;}
	.st16{fill:#F9F9F9;}
	.st17{fill:#565656;}
	.st18{fill:#383838;}
	.st19{fill:#F7F7F7;}
	.st20{fill:#FCFCFC;}
	.st21{fill:#FEFEFE;}
	.st22{fill:#FBFBFB;}
	.st23{fill:#FDFDFD;}
	.st24{fill:#FAFAFA;}
	.st25{fill:#F3F3F3;}
	.st26{fill:#F6F6F6;}
	.st27{fill:#F6F5F6;}
	.st28{fill:#F5F5F5;}
	.st29{fill:#F4F4F4;}
	.st30{fill:#F2F2F2;}
	.st31{fill:#F1F1F1;}
	.st32{fill:#EDEDED;}
	.st33{fill:#EEEEEE;}
	.st34{fill:#ECECEC;}
	.st35{fill:#EAEAEA;}
	.st36{fill:#0B0B0B;}
	.st37{fill:#E8E8E8;}
	.st38{fill:#EBEBEB;}
	.st39{fill:#E9E9E9;}
	.st40{fill:#D8D8D8;}
	.st41{fill:#5C5D5C;}
	.st42{fill:#EFEFEF;}
	.st43{fill:#D6D6D6;}
	.st44{fill:#9A9A9A;}
	.st45{fill:#EEEDEE;}
	.st46{fill:#6B6B6B;}
	.st47{fill:#171818;}
	.st48{fill:#CDCDCD;}
	.st49{fill:#D2D2D2;}
	.st50{fill:#111111;}
	.st51{fill:#9E9E9E;}
	.st52{fill:#101010;}
	.st53{fill:#8F8F8F;}
	.st54{fill:#292929;}
	.st55{fill:#979797;}
	.st56{fill:#DFDFDF;}
	.st57{fill:#D5D5D5;}
	.st58{fill:#EFEEEF;}
	.st59{fill:#E6E6E6;}
	.st60{fill:#E4E4E4;}
	.st61{fill:#E1E0E1;}
	.st62{fill:#7D7D7D;}
	.st63{fill:#E7E7E7;}
	.st64{fill:#C0C0C0;}
	.st65{fill:#181818;}
	.st66{fill:#E0E0E0;}
	.st67{fill:#C8C8C8;}
	.st68{fill:#D4D4D4;}
	.st69{fill:#0A0B0B;}
	.st70{fill:#F0EFF0;}
	.st71{fill:#F1F0F1;}
	.st72{fill:#2B2B2B;}
	.st73{fill:#131313;}
	.st74{fill:#303030;}
	.st75{fill:#2D2D2D;}
	.st76{fill:#343434;}
	.st77{fill:#505050;}
	.st78{fill:#0F0F0F;}
	.st79{fill:#191919;}
	.st80{fill:#313131;}
	.st81{fill:#202020;}
	.st82{fill:#323232;}
	.st83{fill:#333333;}
	.st84{fill:#3A3A3A;}
	.st85{fill:#262626;}
	.st86{fill:#161616;}
	.st87{fill:#1C1C1C;}
	.st88{fill:#060506;}
</style>
<g id="Layer_1">
</g>
<g id="Layer_2">
	<g>
		<defs>
			<rect id="SVGID_1_" x="3.59" y="20.54" width="120.81" height="48.38"/>
		</defs>
		<clipPath id="SVGID_2_">
			<use xlink:href="#SVGID_1_"  style="overflow:visible;"/>
		</clipPath>
		<g class="st0">
			<path class="st1" d="M50.11,60.33c0.28,0.03,0.34,0.44,0.72,0.38c0.12-0.89,0.01-1.78-0.12-2.65c-0.59-4.01,0.03-8,0.12-12
				c0.03-1.13,1.42-2.09,2.99-1.92c1.02,0.11,1.11-0.22,1.07-1.05c-0.06-1.24-0.05-2.49,0-3.73c0.07-1.61,0.57-3.06,1.91-4.08
				c0.63-0.48,1.38-0.76,2.13-0.41c0.75,0.35,0.83,1.12,0.84,1.87c0.06,4.11-0.26,8.24,0.14,12.33c0.41,4.2-0.29,8.35-0.15,12.53
				c0.02,0.63,0.23,0.85,0.76,1.2c0.91,0.6,1.94,0.79,2.88,1.23c0.11,0.36-0.13,0.49-0.4,0.6c-0.84,0-1.65-0.09-2.32-0.69
				c-0.48-0.42-1.05-0.57-1.64-0.26c-0.63,0.34-0.94,0.92-0.91,1.63c0.02,0.48,0.09,0.96,0.01,1.44c1.47,0.3,2.94,0.1,4.4,0.11
				c2.79,0.02,5.57,0.03,8.36-0.02c0.26,0,0.73,0.29,0.8-0.3c-0.32-0.5-0.54-1.03-0.65-1.61c-0.11-0.38,0.12-0.48,0.42-0.53
				c0.8,0.49,0.74,1.45,1.18,2.13c1.82,0.3,3.64,0.07,5.46,0.12c0.18,0.01,0.33-0.08,0.44-0.23c0.36-0.47,0.07-2.41-0.43-2.81
				c-0.36-0.29-0.51-0.56-0.07-0.9c0.14-0.06,0.27-0.13,0.4-0.2c0.31-0.23,0.32-0.5,0.09-0.78c-0.45,0.12-0.11,0.54-0.29,0.75
				c-0.12,0.21-0.31,0.23-0.52,0.24c-0.1-0.02-0.23-0.05-0.27-0.13c-0.41-0.85-1.02-1.54-1.71-2.17c-0.01-0.36,0.22-0.48,0.52-0.54
				c1.71,0.16,3.37,0.65,5.09,0.82c2.87,0.28,5.63-0.17,8.36-0.93c1.42-0.4,2.84-0.87,4.12-1.65c0.5-0.3,1.05-0.65,0.55-1.38
				c-0.75-0.35-0.75-0.35-0.48-0.75c0.92-0.1,1.18-0.56,1.15-1.5c-0.09-2.35,0-4.7-0.05-7.05c-0.02-0.83,0.18-1.26,1.08-1.1
				c0.92,0.16,1.31-0.16,1.19-1.15c-0.09-0.75-0.01-1.52-0.02-2.28c0-0.26,0.04-0.54,0.32-0.56c0.33-0.02,0.33,0.29,0.33,0.53
				c0.01,0.31,0.04,0.63,0,0.93c-0.14,0.9,0.16,1.24,1.11,1.14c0.53-0.06,0.72-0.16,0.7-0.71c-0.04-1-0.02-2-0.01-3.01
				c0-0.26-0.07-0.64,0.32-0.64c0.4,0,0.32,0.37,0.32,0.64c0.01,1.38,0.05,2.77-0.01,4.15c-0.04,0.76,0.15,1.11,0.96,0.97
				c0.92-0.16,1.23,0.16,1.21,1.15c-0.07,3.21-0.03,6.43,0,9.64c0,0.21-0.38,0.77,0.34,0.69c0.32-0.09,0.44,0.11,0.51,0.37
				c-0.01,0.48-0.66,0.61-0.62,1.12c0.06,0.25,0.33,0.38,0.38,0.64c-0.05,0.46-0.46,0.75-0.54,1.19c-0.14,0.34-0.06,0.68,0.03,1.01
				c0.03,0.17,0.05,0.35,0.09,0.52c0.06,0.26,0.25,0.48,0.26,0.76c0.12,0.14-0.4,0.45,0.13,0.49c0.18,0.02,0.33,0.12,0.46,0.23
				c0.29,0.33,0.62,0.23,0.95,0.07c0.18-0.04,0.29,0.05,0.36,0.21c0.07,0.3,0.05,0.57-0.21,0.77c-0.32,0.18-0.69,0.18-1.05,0.19
				c3.83,0,7.65,0.01,11.48,0.01c0.54,0.28,0.27,0.56-0.01,0.84c-1.11,0.34-2.25,0.11-3.38,0.17c-0.85,0.04-1.71-0.02-2.56,0.14
				c1.88,0.1,3.77,0.2,5.65,0.04c0.13-0.01,0.23-0.14,0.33-0.23c0.08-0.07,0.18-0.12,0.29-0.13c0.22,0,0.37,0.14,0.54,0.26
				c0.39,0.29,0.88,0.33,1.26,0.14c0.34-0.17,0.08-0.62,0.09-0.95c0.01-0.58-0.02-1.16,0.02-1.74c0.02-0.27,0.02-0.62,0.33-0.68
				c0.32-0.06,0.43,0.26,0.54,0.51c0.25,0.87-0.08,1.79,0.24,2.64c0.38,0.44,0.91,0.18,1.36,0.28c0.37,0.08,0.9,0.02,0.69,0.69
				c-2.42,0.02-4.84,0.05-7.25,0.05c-9.44,0.01-18.88,0-28.32,0c-30.22,0-60.43,0.01-90.65,0.01c-0.31,0-0.63,0.02-0.93-0.03
				c-0.29-0.05-0.44-0.22-0.14-0.48c0.5-0.16,1.01-0.04,1.52-0.08c0.11,0,0.22,0.01,0.33,0.01c1.5,0.03,3,0.02,4.49,0.01
				c0.31,0,0.7,0.15,0.9-0.27c0.16-0.51,0.16-1.11,0.73-1.4c0.34-0.05,0.5,0.13,0.59,0.43c0.03,0.47,0.08,0.91,0.75,0.83
				c0.56-0.07,0.62-0.44,0.63-0.89c0.01-0.65-0.02-1.31,0.02-1.96c0-0.45,0.41-0.74,0.47-1.17c0.48-0.41,1.02-0.72,1.63-0.89
				c0.35-0.07,0.34,0.18,0.37,0.4c-1.04,0.98-1.45,2.18-1.3,3.59c0.03,0.29-0.06,0.74,0.34,0.73c0.4,0,0.3-0.46,0.34-0.75
				c0.15-0.94,0.11-1.92,0.47-2.83c0.17-0.29,0.2-0.64,0.4-0.92c0.22-0.31,0.48-0.51,0.78-0.08c0.05,1.14-0.31,2.24-0.36,3.37
				c-0.01,0.31-0.11,0.62,0,0.92c0.07,0.2,0.2,0.37,0.45,0.34c0.21-0.02,0.31-0.18,0.3-0.36c-0.02-1.32,0.28-2.6,0.43-3.89
				c0.03-0.23-0.15-0.37-0.34-0.47c-0.19-0.15-0.59-0.2-0.29-0.57c0.6-0.74,1.59-0.65,2.15,0.19c-0.22,1.29-0.68,2.53-0.7,3.85
				c-0.01,0.46-0.27,1.25,0.47,1.23c0.65-0.01,0.38-0.77,0.38-1.2c0-1.04,0.12-2.07,0.43-3.06c0.14-0.45,0.18-0.82-0.4-0.95
				c-0.27-0.19-0.56-0.38-0.43-0.78c0.72-0.49,1.69-0.17,2.39-0.74c0.51-0.23,0.5,0.62,0.98,0.46c0.82-0.03,1.63,0,2.44,0.06
				c0.23,0.05,0.49,0.04,0.52,0.38c0.01,0.12,0.12,0.14,0.25,0.05c0.45-0.1,0.85,0.04,1.24,0.25c0.63,0.41,0.3,0.66-0.14,0.9
				c-0.6,0-0.98,0.13-0.75,0.89c0.3,0.96,0.29,1.97,0.28,2.97c0,0.32-0.08,0.78,0.42,0.79c0.5,0.01,0.45-0.44,0.45-0.77
				c0.02-1.07-0.24-2.12-0.37-3.17c-0.02-0.14-0.01-0.27,0.01-0.41c0.5-0.97,0.71-0.09,1.02,0.16c0.33,0.56,0.32,1.19,0.32,1.81
				c0,0.2-0.01,0.41-0.01,0.61c-0.03,2.42,0.15,2.56,2.63,2.14c1.85-0.1,3.69-0.03,5.54-0.04c0.38,0,0.75,0.04,1.1-0.15
				c2.24,0.32,4.48,0.16,6.71,0.04c0.11-1.05-0.48-1.78-1.69-1.91c-0.8-0.09-1.34-0.42-1.61-1.17c-0.01-0.15,0.02-0.3,0.08-0.44
				c0.03-0.1,0.08-0.19,0.12-0.28c0.13-0.52,0.05-1.04,0.05-1.56c-0.01-0.52-0.02-1.04,0-1.56c0.01-0.96,0-1.93,0-2.89
				c0.04-0.4-0.13-0.82,0.08-1.22c0.42-0.69,0.85-1.38,1.27-2.06c0.39-0.04,0.51,0.21,0.56,0.52c0,0.18-0.03,0.35-0.13,0.49
				c-1.67,2.49-0.81,5.29-0.95,7.96c-0.03,0.59,0.32,0.74,0.76,0.25c0.44-0.47,0.95-0.68,1.58-0.39c0.59,0.28,0.69,0.8,0.73,1.38
				c0.02,0.4-0.09,0.83,0.24,1.22c0.4-0.34,0.41-0.79,0.41-1.22c0.02-2.21,0.01-4.42,0-6.62c0-0.57-0.21-1.07-0.49-1.56
				c-0.23-0.38-0.5-0.76-0.38-1.25c0.13-0.25,0.31-0.34,0.57-0.19c0.27,0.39,0.53,0.79,0.81,1.2c0.32-0.2,0.17-0.52,0.14-0.74
				c-0.2-1.55,0.49-3.05,0.33-4.58c-0.32-3.11,0.68-6.05,0.97-9.08c0.02-0.25,0.06-0.55,0.34-0.56c0.36-0.02,0.39,0.33,0.43,0.6
				c0.37,2.42,0.72,4.85,1.12,7.27c0.07,0.45-0.19,0.79-0.2,1.2c-0.05,2.12,0.58,4.19,0.42,6.31c-0.01,0.08,0.12,0.16,0.18,0.25
				c0.17,1.12,0.38,1.32,1.68,1.37c1.19,0.04,2.39,0.07,3.58-0.06c0.65,0.09,0.84,0.65,1.11,1.12c1.4,2.45,2.87,4.86,4.22,7.34
				c0.08,0.15,0.16,0.31,0.49,0.41c-0.01-1.89,0.62-3.82-1.03-5.37C49.63,60.48,49.75,60.27,50.11,60.33z"/>
			<path class="st2" d="M93.91,56.01c-0.16,0.79,0.5,0.21,0.69,0.41c-0.18,0.54-0.68,0.54-1.1,0.63c-3.75,0.82-7.53,1.44-11.39,1.31
				c-1.73-0.06-3.45-0.23-5.15-0.52c-2.28-0.38-4.56-0.77-6.81-1.3c-0.28-0.16-0.56-0.32-0.87-0.4c-0.22-0.12-0.49-0.2-0.47-0.54
				c0.67-0.44,1.34-0.02,2.01,0.01c0.24,0.01,0.47,0.11,0.71,0.15c0.84,0.13,1.86,0.82,2.43,0.33c0.42-0.36,0.15-1.55,0.15-2.38
				c0.01-3.39,0-6.77,0.01-10.16c0-0.45-0.18-1.04,0.61-1.04c0.3,0,0.29-0.23,0.29-0.44c0.02-0.65-0.24-1.45,0.89-1.45
				c0.18,0,0.13-0.29,0.13-0.45c0.01-0.41,0-0.83,0-1.24c0-1.95,1.08-3.04,3.07-3.04c1.97,0,3.4,1.35,3.17,3.02
				c-0.05,0.37,0.01,0.76-0.01,1.14c-0.03,0.46,0.08,0.74,0.61,0.67c0.68-0.08,0.69,0.36,0.68,0.85c-0.01,0.45-0.17,0.93,0.6,1.02
				c0.45,0.06,0.27,0.64,0.27,1c0.01,4.28,0.03,8.57-0.01,12.85c-0.01,0.83,0.25,1,1,0.88c0.99-0.16,1.99-0.27,2.99-0.32
				c0.69-0.03,0.84-0.32,0.83-0.96c-0.03-4.01-0.01-8.02-0.02-12.03c0-1.39,1.1-2.16,1.76-3.17c0.21-0.32,0.48,0.02,0.64,0.24
				c0.89,1.22,1.66,2.39,1.57,4.1c-0.18,3.34-0.04,6.7-0.07,10.05C93.14,55.87,93.24,56.18,93.91,56.01z"/>
			<path class="st3" d="M118.05,63.68c-0.15,0.09-0.47-0.71-0.47,0.07c0,0.92-0.09,1.84,0.09,2.76c0.09,0.44,0.06,0.71-0.55,0.51
				c-0.56-0.19-1.34,0.2-1.62-0.67c-0.23-0.22-0.08-0.49-0.1-0.74c-0.04-0.85,0.28-1.72-0.17-2.55c-0.1-0.18-0.12-0.37-0.05-0.57
				c0.07-0.14,0.19-0.21,0.35-0.23c0.09,0,0.19,0.01,0.28,0.03c0.18-0.01,0.38,0.22,0.53-0.05c-0.05-0.17-0.16-0.31-0.23-0.47
				c-0.02-0.28,0.09-0.43,0.39-0.4c0.09,0.19,0.25,0.2,0.43,0.19c0.29-0.06,0.44,0.36,0.75,0.21c0.12,0.08,0.23,0.16,0.3,0.28
				c0.42,0.7,0.66,0.44,0.96-0.12c0.73-1.42,1.83-2.46,3.28-3.18c3.49-1.73,8.06-0.5,10.1,2.82c0.36,0.58,0.68,1.02,1.41,0.99
				c0.42,1.36,0.09,2.72,0.04,4.08c-0.01,0.34-0.31,0.51-0.67,0.53c-0.34,0.02-0.7-0.05-0.98,0.22c-0.14,0-0.28,0-0.41,0
				c-0.69-0.34-1.38-0.34-2.08,0c-0.14,0-0.28,0-0.41,0c-0.29-0.24-0.63-0.22-0.97-0.22c-1.46,0-2.93,0-4.39,0
				c-0.3,0-0.62-0.03-0.86,0.22c-0.14,0-0.28,0-0.41,0c-0.55-0.36-1.11-0.3-1.66,0c-0.14,0-0.28,0-0.41,0
				c-0.08-0.56-0.53-0.37-0.86-0.43c-0.53-0.1-1.14,0.26-1.61-0.25c0.91-0.49,1.89-0.25,2.84-0.26c3.69-0.03,7.37-0.02,11.06,0
				c0.84,0,1.19-0.19,1.15-1.08c-0.05-1.27-0.07-1.38-1.21-1.39c-4.03-0.02-8.07,0-12.11-0.01
				C119.17,63.97,118.56,64.1,118.05,63.68z"/>
			<path class="st1" d="M64.58,41.48c-0.95,0.12-1.57-0.17-1.57-1.25c0-0.12-0.04-0.34-0.11-0.36c-1.67-0.48-1.04-1.95-0.82-2.75
				c0.21-0.76,0.91-1.55,1.44-2.29c0.23-0.32,0.72-0.24,1.08-0.18c0.96,0.17,1.13-0.27,1.1-1.13c-0.07-1.9-0.02-3.8-0.02-5.7
				c0-0.29-0.11-0.74,0.32-0.74c0.44,0,0.32,0.45,0.32,0.74c0.01,1.97,0.03,3.94-0.01,5.91c-0.02,0.71,0.15,1,0.9,0.92
				c0.97-0.1,1.87-0.01,1.79,1.34c-0.01,0.09,0.04,0.26,0.09,0.27c1.64,0.42,0.72,1.76,0.96,2.68c0.01,0.03,0.01,0.09-0.01,0.1
				c-1.05,0.55-0.78,2.34-2.28,2.47c-0.59,0.05-0.38,0.49-0.37,0.78c0.15,3.83,0.28,7.67,0.48,11.5c0.21,3.97,0.48,7.93,0.73,11.9
				c0.18,1.4,0.18,1.41-1.21,1.39c-0.4,0-0.81,0.08-1.26-0.1c0.24-0.78,1.17-0.21,1.47-0.77c0.12-0.3,0.06-0.61,0.07-0.92
				c0.01-0.49,0.04-0.98-0.12-1.45c-0.07-0.33-0.09-0.67-0.09-1.01c0-0.62,0.08-1.25-0.12-1.86c-0.06-0.29-0.09-0.57-0.09-0.86
				c-0.02-0.75,0.1-1.51-0.12-2.25c-0.07-0.35-0.09-0.7-0.09-1.06c-0.01-0.77,0.1-1.54-0.13-2.29c-0.1-0.54-0.09-1.08-0.08-1.63
				c-0.03-0.9,0.12-1.81-0.12-2.69c-0.08-0.36-0.07-0.74-0.08-1.1c-0.06-1.41,0.13-2.83-0.12-4.24c-0.13-0.63-0.07-1.27-0.08-1.9
				c-0.03-0.42,0.14-0.86-0.16-1.24c-0.18-0.16-0.38-0.16-0.6-0.11c-0.13,0.02-0.25,0.03-0.38,0.02
				C65.06,41.55,64.8,41.63,64.58,41.48z"/>
			<path class="st4" d="M6.53,61.77C6.15,61.45,6.12,61.85,6,62.03c-0.16,0.24,0,0.61-0.31,0.79c-0.28-0.21-0.11-0.53-0.18-0.79
				c-0.01-0.19-0.05-0.37-0.24-0.46c4.14-2.31,8.01-5.04,12.04-7.52c0.25-0.15,0.6-0.27,0.4-0.69c-0.1-0.18,0-0.29,0.13-0.39
				c0.17-0.1,0.38-0.12,0.46-0.37c0.3-0.95,0.96-1.31,1.79-0.91c0.7,0.34,1.03,1.02,1.14,1.75c0.08,0.54-0.38,0.67-0.81,0.73
				c-0.63,0.09-0.73,0.41-0.45,0.94c0.24,0.45,0.56,0.88,0.56,1.43c-0.07,0.27-0.24,0.45-0.5,0.54c-0.47,0-0.49-0.52-0.85-0.73
				c-0.48,1.38-0.79,2.79-1.19,4.17c-0.15,0.51,0.14,0.73,0.51,0.98c0.64,0.43,1.46,0.66,1.81,1.46c-0.02,0.26-0.19,0.44-0.3,0.65
				c-0.31,0.71,0.02,1.37,0.16,2.04c0.13,0.4,0.03,0.8,0.06,1.21c0,0.04,0.01,0.09,0.01,0.13c-0.86,0.45-1.8-0.44-2.66,0.32
				c0-1.21,0-2.25,0-3.3c0.67,0.38,0.34,1.04,0.44,1.58c0.06,0.31-0.09,0.81,0.41,0.78c0.43-0.02,0.44-0.48,0.4-0.82
				c-0.06-0.51-0.1-1.03-0.13-1.55c-0.05-0.91-0.63-1.41-1.38-1.78c-0.25,0.08-0.25-0.67-0.62-0.18c-0.28-0.02-0.33-0.16-0.21-0.4
				c0.13-0.2,0.46-0.4,0.02-0.62c0.66-1.33,0.83-2.81,1.31-4.2c-0.85,1.3-1.59,2.65-2.48,3.91c-0.54,0.42-0.34-0.55-0.74-0.4
				c-0.22-0.43,0.12-0.71,0.29-1.03c0.57-1.05,1.34-1.98,1.91-3.11c-1.68,1.36-3.22,2.76-4.79,4.13c-0.53,0.15-0.26-0.58-0.65-0.59
				c0.08-0.8,0.88-1.01,1.29-1.54c0.25-0.32,0.66-0.47,0.95-0.73c0.12-0.03,0.05,0.13,0.04-0.01c0-0.05-0.07-0.04-0.1,0.03
				c-1.54,1.03-3.01,2.14-4.71,2.88c0.02,0.31,0.19,0.51,0.48,0.62c-0.07,0.28-0.23,0.34-0.47,0.19c-0.49-0.38-1.55-0.31-1.86,0.14
				c0.09,0.03,0.18,0.07,0.28,0.1C7.12,61.76,6.9,61.91,6.53,61.77z"/>
			<path class="st5" d="M30.81,55.55c0.19,0.32,0.23,0.68,0.21,1.04c-0.17,1.04-0.17,2.07,0,3.11c0,0.55,0,1.11,0,1.66
				c-0.28,0.53,0.07,1.13-0.21,1.66c-0.28,0.17-0.5,0.43-0.86,0.44c-0.17,0.02-0.34,0.01-0.51-0.04c-0.31-0.1-0.47-0.31-0.41-0.64
				c0.11-0.31,0.38-0.37,0.65-0.43c0.27-0.07,0.43-0.23,0.42-0.51c-0.07-1.67,0.17-3.36-0.13-5.02c-0.21-0.17-0.46-0.14-0.7-0.15
				c-1.44-0.05-1.49,0-1.5,1.48c0,1.14,0.03,2.28-0.02,3.42c-0.01,0.32,0.02,0.82-0.45,0.77c-0.42-0.04-0.51-0.43-0.43-0.89
				c0.23-1.44,0.04-2.89,0.1-4.34c0.02-0.37-0.11-0.76,0.11-1.11c0.09-0.14,0.27-0.3,0.25-0.43c-0.34-2.31,0.65-4.55,0.24-6.91
				c-0.23-1.32,0.33-2.78,0.54-4.18c0.18-1.23,0.38-2.45,0.57-3.68c0.03-0.21,0.06-0.45,0.32-0.47c0.33-0.02,0.36,0.24,0.39,0.49
				c0.39,2.52,0.8,5.04,1.16,7.56c0.05,0.38-0.19,0.8-0.17,1.19C30.51,51.58,30.67,53.56,30.81,55.55z"/>
			<path class="st4" d="M68.07,66.35c0.14,0.36-0.09,0.4-0.36,0.42c-0.46,0.04-0.94-0.1-1.44,0.11c2.24,0.29,2.28,0.26,2.34-1.21
				c0.01,1.01,0.58,1.3,1.48,1.12c0.54-0.11,1.14,0.27,1.62-0.24c-0.12,0.4-0.12,0.4-0.46,0.42c-3.06,0.16-6.12,0.26-9.19,0.21
				c-1.35-0.02-2.69-0.02-4.04,0c-0.54,0.01-0.49-0.15-0.21-0.46c1-0.32,2.04-0.17,3.06-0.24c0.34-0.02,0.69,0,1.03,0
				c2.06,0,2.06,0,1.07-1.81c-0.03-0.05-0.01-0.13,0.02-0.2c0.2-0.09,0.34-0.23,0.4-0.44c0.41-1.78,0.41-3.61,0.53-5.42
				c0.37-5.43,0.64-10.87,0.7-16.32c0-0.27-0.04-0.55-0.06-0.82c0.25-0.07,0.52-0.37,0.73,0.06c0.35,1,0.08,2.04,0.17,3.05
				c-0.04,6.05-0.33,12.08-0.87,18.1c-0.1,1.06-0.11,2.12,0.64,3.04c0.12-7.97,0.08-15.93,0.26-23.89c0.02-0.13,0.08-0.24,0.16-0.34
				c0.24-0.35,0.48-0.28,0.71,0.01c-0.04,0.12-0.08,0.24-0.13,0.35c-0.09,0.41-0.06,0.83-0.06,1.24c0,7.22,0,14.44,0,21.66
				c0,0.44-0.09,0.9,0.14,1.32c0.08,0.07,0.17,0.13,0.28,0.16C67.1,66.29,67.59,66.25,68.07,66.35z"/>
			<path class="st6" d="M108.61,54.1c0.22,0.23,0.44,0.46,0.66,0.68c0.06,0.19-0.06,0.31-0.19,0.41c-0.07,0.04-0.14,0.07-0.21,0.1
				c-0.15,0.12-0.09,0.26-0.02,0.39c0.21,0.33,0.58,0.54,0.71,0.93c0.01,0.19-0.08,0.34-0.23,0.45c-0.15,0.08-0.31,0.06-0.46,0.03
				c-0.15,0.09-0.03,0.18,0,0.27c0.29,0.49,0.92,0.69,1.09,1.28c-0.07,0.19-0.22,0.3-0.42,0.34c-0.32,0.01-0.53-0.21-0.74-0.38
				c-0.13,0.17,0.08,0.21,0.12,0.32c0.45,0.59,1.34,0.78,1.52,1.62c-0.04,0.27-0.2,0.44-0.46,0.51c-0.54,0.01-0.78-0.44-1.11-0.73
				c-0.22,0.11,0.02,0.17,0.03,0.25c0.24,0.25,0.55,0.44,0.67,0.79c0,0.25-0.13,0.4-0.35,0.49c-0.11,0.03-0.22,0.01-0.32,0
				c-0.08,0.04-0.08,0.08-0.01,0.15c0.05,0.04,0.06,0.07,0.08,0.07c0.79,0.81,1.74,1.46,2.34,2.45c0,0.11-0.03,0.2-0.07,0.3
				c-0.11,0.14-0.26,0.26-0.43,0.24c-1.72-0.22-3.48,0.17-5.19-0.29c-0.24-0.56,0.25-0.49,0.53-0.57c0.47-0.14,0.81-0.31,0.38-0.84
				c-0.2-0.12-0.38-0.25-0.41-0.51c0.09-0.43,0.5-0.63,0.7-0.99c0.17-0.4-0.23-0.74-0.14-1.13c0.02-0.18,0.09-0.34,0.16-0.5
				c0.02-0.06,0.06-0.14,0.03-0.19c-0.04-0.06-0.11-0.03-0.16,0.05c-0.14,0.17-0.3,0.31-0.54,0.25c-0.18-0.1-0.28-0.26-0.29-0.46
				c0.04-0.41,0.35-0.64,0.59-0.92c0.12-0.13,0.1-0.14-0.28-0.24c-0.18-0.11-0.29-0.26-0.31-0.47c0.02-0.37,0.26-0.6,0.51-0.84
				c-0.05-0.04,0.36-0.15-0.02-0.13c-0.07,0-0.13,0.03-0.2,0.02c-0.27-0.06-0.43-0.22-0.49-0.48c0-0.49,0.4-0.68,0.7-0.96
				c0.19-0.18,0.5-0.36,0.09-0.63c-0.16-0.08-0.32-0.17-0.36-0.36c0.8-0.58,1.01-1.36,0.93-2.32c-0.07-0.79-0.01-1.58-0.01-2.37
				c0-0.43,0.2-0.75,0.62-0.84c0.4-0.09,0.76,0,0.88,0.48C108.68,51.25,108.41,52.68,108.61,54.1z"/>
			<path class="st6" d="M29.15,62.81c0.01,0.31,0.21,0.42,0.48,0.45c-0.06,0.36-0.4,0.45-0.64,0.63c-0.45,0.32-0.69,0.76-0.74,1.31
				c-0.09,0.94,0.18,1.26,1.13,1.27c1.24,0.01,2.49,0,3.73,0.01c0.41,0,0.84-0.04,1.2,0.22c-0.13,0.35-0.44,0.27-0.7,0.28
				c-1.89,0.1-3.79-0.19-5.68,0.17c-0.46,0.09-0.46-0.47-0.8-0.55c-0.03-0.04-0.07-0.07-0.1-0.11c-0.07-0.73,0.05-1.43-0.52-2.13
				c-0.54-0.66,0.45-0.59,0.76-0.94c-0.46-0.75-1.19-1.28-1.75-1.95c-2.08-2.48-3.37-5.34-4.17-8.45c-0.35-1.36-0.39-1.39-1.83-1.4
				c-0.24,0-0.49-0.02-0.72,0.01c-0.4,0.05-0.81,0.04-1.23,0.06c0.02,0.54,0.67,0.8,0.46,1.35c-0.11,0.11-0.21,0.21-0.32,0.32
				c-0.56-0.65-1.12-1.29-1.67-1.94c-0.45-0.53-0.18-0.73,0.38-0.73c1.59-0.01,3.18,0.02,4.77-0.01c0.64-0.01,0.7,0.34,0.79,0.83
				c0.6,3.08,1.67,5.97,3.57,8.51c0.36,0.49,0.78,0.94,1.38,1.65c0-1.68-0.01-3.07,0.01-4.46c0.01-0.39-0.17-0.82,0.16-1.18
				c0,2.07,0,4.13,0,6.2c0.13,0,0.27,0,0.4-0.01c0-1.59,0.04-3.18-0.02-4.77c-0.03-0.81,0.21-1.19,1.04-1.04
				c0.68,0.13,1.44-0.33,2.05,0.28c-0.73,0.4-1.58,0.05-2.32,0.38c-0.36,0.28-0.25,0.69-0.25,1.05c-0.01,1.23-0.01,2.46,0,3.69
				C27.99,62.58,28.62,62.64,29.15,62.81z"/>
			<path class="st5" d="M68.81,55.61c0.14,0.13,0.28,0.26,0.42,0.39c0.14,0.14,0.31,0.23,0.44,0.37c1.67,1.38,3.54,2.37,5.59,3.05
				c0.39,0.13,0.92,0.12,1.03,0.69c-0.26,0.02-0.43,0.13-0.44,0.41c0.18,0.59,0.45,1.14,0.67,1.71c0.11,0.3,0.39,0.59,0.11,0.95
				c-0.61,0.25-1.22,0.22-1.84,0.03c0.64-0.84,0.29-2.27-0.77-2.89c-0.08,0.77,0.54,1.35,0.47,2.06c-0.34,1.05-0.34,1.05-1.02,0.7
				c-0.28-1.39-0.63-2.76-1.64-3.83c0.13,1.03,0.44,2,0.87,2.93c0.14,0.3,0.43,0.57,0.24,0.95c-0.38,0.27-0.76,0.33-1.15,0.01
				c-0.52-1.24-0.99-2.5-1.28-3.81c-0.13-0.57-0.34-1.07-0.73-1.44c0.49,1.64,0.82,3.36,1.48,5c0.63,0.77,1.48,0.35,2.22,0.35
				c1.27,0,2.58,0.38,3.81-0.23c0.13-0.14,0.26-0.28,0.41-0.4c0.18-0.01,0.34-0.05,0.43-0.22c0.34,0.01,0.35,0.18,0.21,0.42
				c-0.63,0.24-0.56,0.51,0.04,0.6c0.52,0.07,0.57,0.34,0.59,0.76c0.15,2.79,0.16,2.79-2.67,2.79c-1.3,0-2.61-0.01-3.91-0.02
				c-0.02,0-0.06-0.04-0.06-0.06c0.01-0.06,0.04-0.11,0.06-0.17c0.37-0.33,0.84-0.26,1.28-0.27c1.2-0.02,2.4,0.01,3.6-0.01
				c0.4-0.01,0.84,0.06,1.1-0.39c0.13-0.63,0.2-1.26-0.06-1.88c-0.29-0.26-0.64-0.23-0.99-0.23c-1.52-0.01-3.04,0.01-4.56-0.01
				c-0.52-0.01-0.95,0.12-1.27,0.54c-0.22,0.09-0.35,0.25-0.44,0.46c-1.23-2.76-1.91-5.68-2.49-8.64
				C68.51,56.04,68.47,55.75,68.81,55.61z"/>
			<path class="st1" d="M132.1,67.39c0.03-0.22,0.13-0.44,0.37-0.4c1.21,0.19,1.16-0.61,1.08-1.39c-0.11-1.08,0.32-2.15-0.01-3.22
				c0.03-0.03,0.07-0.06,0.1-0.1c0.34-0.14,0.71-0.16,1.05-0.31c0.05-0.01,0.09-0.01,0.14-0.01c1.54-0.06,1.57,0.94,1.47,2.06
				c-0.04,0.48,0.05,0.97-0.02,1.44c-0.16,1.06,0.23,1.36,1.31,1.36c1.07,0.01,1.37-0.3,1.25-1.31c-0.09-0.71-0.08-1.45,0-2.16
				c0.13-1.19,0.04-2.21-1.35-2.58c-0.15-0.23-0.1-0.42,0.13-0.56c0.98,0,1.97,0.37,2.95-0.03c0.29,0.06,0.53,0.18,0.45,0.55
				c-0.02,0.03-0.03,0.08-0.06,0.08c-1.57,0.3-1.59,1.42-1.48,2.67c0.07,0.82,0.02,1.65,0.01,2.48c-0.01,0.47-0.06,0.93,0.65,0.82
				c0.25-0.04,0.52,0.05,0.49,0.37c-0.04,0.34-0.35,0.27-0.57,0.27C137.41,67.43,134.76,67.41,132.1,67.39z"/>
			<path class="st7" d="M44.94,57.42c-1.71,0.39-3.44,0.37-5.11-0.11c-0.62-0.18-0.17-0.9-0.29-1.35c0.34,0.15,0.18,0.46,0.19,0.7
				c0.03,0.56,0.25,0.14,0.4,0.09c0.21-0.01,0.4,0.07,0.58,0.17c0.87,0.39,1.77,0.2,2.9,0.16c-1.07-0.42-2.01,0.04-2.81-0.43
				c-0.1-0.46,0.24-0.36,0.49-0.41c0.4-0.07,0.8-0.06,1.36-0.07c-1.49,0.01-1.49,0.01-1.46-0.6c0.3,0.05,0.6-0.05,0.89-0.05
				c1,0.01,0.54-0.43,0.31-0.86c-0.4,0.25-0.41,0.77-0.84,0.92c-0.25-0.05-0.46-0.16-0.52-0.44c1.14-2.35,1.15-2.35,3.02-0.58
				c2.03,1.91,4.04,3.84,6.06,5.76c-0.13,0.13-0.27,0.25-0.4,0.38c-0.56,0.18-0.79-0.3-1.07-0.59c-1.02-1.08-2.2-1.97-3.32-2.92
				C44.86,56.81,45.12,57.46,44.94,57.42z"/>
			<path class="st8" d="M141.03,60.74c-0.13-0.13-0.26-0.27-0.39-0.4c0.61-0.98,0.61-2.22,1.35-3.14c0.4-0.49,0.56-1.05,0.25-1.64
				c-0.32-0.61-0.91-0.91-1.55-0.86c-0.73,0.06-1.31-0.08-1.92-0.51c-0.57-0.4-1.29-0.38-1.77,0.23c-0.45,0.57-0.21,1.12,0.28,1.55
				c0.52,0.44,0.55,0.86,0.17,1.43c-0.46,0.69-0.41,1.44,0.01,2.15c0.14,0.23,0.35,0.44,0.29,0.75c-0.2,0.09-0.25,0.28-0.27,0.47
				c-1.29-0.91-1.65-2.08-1.05-3.49c0.13-0.31,0.29-0.51-0.03-0.88c-0.83-0.96-0.79-1.98-0.04-2.78c0.74-0.78,2.03-0.96,2.93-0.3
				c0.42,0.3,0.77,0.42,1.29,0.39c1.12-0.07,2.03,0.4,2.54,1.44c0.49,1.01,0.3,1.96-0.49,2.75c-0.28,0.28-0.31,0.58-0.36,0.92
				C142.15,59.66,141.79,60.34,141.03,60.74z"/>
			<path class="st7" d="M119.64,58.44c3.79-2.92,8.97-2.81,12.67,0.26c0.05,0.27-0.07,0.42-0.32,0.5c-0.33,0.04-0.6-0.13-0.86-0.3
				c-3.44-2.22-6.94-2.06-10.47-0.22c-0.18,0.1-0.36,0.21-0.56,0.26C119.78,58.94,119.57,58.82,119.64,58.44z"/>
			<path class="st9" d="M1.55,65.74c-0.02-0.26-0.13-0.42-0.41-0.43c-0.11-0.1-0.16-0.24-0.12-0.37c0.15-0.51,0.12-0.94-0.42-1.23
				c-0.52-0.27-1.02-0.23-1.44,0.15c-0.51,0.46-1.09,0.67-1.77,0.71c-0.8,0.05-1.12,0.86-1.74,1.21c-0.32,0.01-0.43-0.21-0.51-0.46
				c0.42-1.01,1.2-1.57,2.26-1.66c0.46-0.04,0.73-0.27,1.05-0.53c0.92-0.74,2.19-0.79,3,0.02c0.53,0.53,0.82,0.47,1.26-0.04
				c0.24-0.27,0.6-0.44,0.9-0.66c0.65,0.5-0.33,0.64-0.22,1.02C2.8,64.24,2.36,65.14,1.55,65.74z"/>
			<path class="st10" d="M108.87,55.14c0.13-0.12,0.26-0.24,0.4-0.36c2.49,2.11,4.92,4.28,7.22,6.59c-0.11,0.12-0.22,0.25-0.33,0.37
				c-0.04,0.03-0.08,0.06-0.12,0.09c-1.05-0.43-1.72-1.34-2.53-2.06c-1.42-1.24-2.79-2.54-4.2-3.8
				C109.06,55.76,108.72,55.57,108.87,55.14z"/>
			<path class="st11" d="M35,54.09c-0.2,0.02-0.38,0.08-0.48,0.28c-0.4-0.03-0.56-0.36-0.71-0.65c-0.32-0.63-0.6-0.64-0.92-0.02
				c-0.08,0.15-0.21,0.26-0.41,0.2c-0.13-0.14-0.27-0.28-0.4-0.43c0.18-0.54,0.47-1.01,0.79-1.46c0.33-0.97-0.05-1.98,0.2-2.95
				c0.08-0.28,0.26-0.18,0.43-0.11c0.3,0.94-0.08,1.92,0.21,2.86C34.18,52.56,34.68,53.28,35,54.09z"/>
			<path class="st11" d="M106.06,54.9c0.16,0.08,0.33,0.16,0.49,0.25c0.06,0.09,0.09,0.21,0.03,0.29c-0.92,1.1-2,2.04-3.16,2.87
				c-0.04,0.03-0.12-0.02-0.17-0.08c-0.13-0.12-0.26-0.25-0.4-0.37C103.84,56.78,104.94,55.83,106.06,54.9z"/>
			<path class="st12" d="M84.81,56.74c0-4.31,0-8.62,0-12.94c0.03,0,0.07,0,0.1,0c0,4.33,0,8.65,0,12.98
				C84.88,56.76,84.84,56.75,84.81,56.74z"/>
			<path class="st1" d="M122.97,67.4c0.05-0.43,0.36-0.42,0.68-0.42c1.57,0,3.13,0,4.7,0c0.36,0,0.68,0.05,0.85,0.42
				C127.12,67.49,125.05,67.49,122.97,67.4z"/>
			<path class="st1" d="M41.42,55.57c-0.39,0.4-0.32,0.49,0.24,0.45c0.62-0.05,1.26-0.15,2.04,0.19c-1.05,0.44-2.07-0.19-2.89,0.45
				c0.09,0.22,0.08,0.38-0.22,0.36c-0.2-0.01-0.37-0.07-0.46-0.26c0.19-0.6,0.54-1.1,0.9-1.6C41.16,55.29,41.29,55.43,41.42,55.57
				L41.42,55.57z"/>
			<path class="st13" d="M119.64,58.44c0.12,0.15,0.24,0.29,0.36,0.44c0.09,0.07,0.12,0.19,0.04,0.26c-0.81,0.69-1.34,1.65-2.19,2.3
				c-0.28-0.04-0.44-0.22-0.51-0.49C117.92,59.94,118.71,59.12,119.64,58.44z"/>
			<path class="st14" d="M132.07,59.19c0.08-0.16,0.16-0.33,0.24-0.49c0.92,0.54,1.62,1.27,2.06,2.25
				c-0.12,0.16-0.26,0.28-0.47,0.29C133.06,60.77,132.52,60.02,132.07,59.19z"/>
			<path class="st1" d="M129.61,67.4c0.55-0.61,1.52-0.61,2.08,0C131,67.49,130.3,67.49,129.61,67.4z"/>
			<path class="st10" d="M108.61,54.1c-0.35-1.41-0.1-2.84-0.14-4.26C108.79,51.25,108.52,52.68,108.61,54.1z"/>
			<path class="st1" d="M-4.84,65.32c0.13,0.16,0.27,0.32,0.4,0.48c0.07,0.37,0.07,0.75,0.02,1.13c-0.21,0.21-0.43,0.19-0.67,0.05
				l0,0c-0.11-0.09-0.12-0.19-0.03-0.3C-5.15,66.2-5.22,65.71-4.84,65.32z"/>
			<path class="st1" d="M120.89,67.4c0.55-0.58,1.11-0.75,1.66,0C122,67.49,121.45,67.49,120.89,67.4z"/>
			<path class="st15" d="M33.07,49.08c-0.03,0.99,0.32,2-0.2,2.95C32.94,51.04,33.01,50.06,33.07,49.08z"/>
			<path class="st15" d="M33.71,51.82c-0.43-0.93-0.1-1.91-0.21-2.86C33.93,49.89,33.6,50.87,33.71,51.82z"/>
			<path class="st1" d="M133.94,61.22c0.08-0.19,0.23-0.26,0.43-0.27c0.25,0.29,0.47,0.6,0.46,1.01L134.78,62
				c-0.13,0.1-0.27,0.13-0.43,0.08C134.05,61.87,133.76,61.66,133.94,61.22z"/>
			<path class="st16" d="M31.18,52.08c0,0.74,0,1.49,0,2.23c-0.03,0-0.07,0-0.1,0c0-0.74,0-1.48,0-2.22
				C31.11,52.08,31.15,52.08,31.18,52.08z"/>
			<path class="st17" d="M-8.45,66.81c0.24,0,0.38,0.14,0.41,0.29c0.05,0.22-0.11,0.38-0.33,0.41c-0.19,0.03-0.33-0.1-0.36-0.27
				C-8.78,66.99-8.6,66.89-8.45,66.81z"/>
			<path class="st1" d="M117.34,60.94c0.15,0.12,0.29,0.24,0.44,0.36c0.01,0.21-0.03,0.39-0.25,0.48c-0.33,0.27-0.4-0.16-0.61-0.22
				C117.06,61.36,117.2,61.15,117.34,60.94z"/>
			<path class="st18" d="M142.56,67.09c0,0.2-0.08,0.33-0.29,0.35c-0.2,0.02-0.34-0.09-0.36-0.28c-0.02-0.19,0.12-0.33,0.3-0.36
				C142.41,66.76,142.51,66.91,142.56,67.09z"/>
			<path class="st19" d="M69.04,55.01c0.43-0.05,0.83-0.16,1.28,0.04C69.83,55.18,69.42,55.2,69.04,55.01z"/>
			<path class="st9" d="M-5.13,66.67c0.01,0.1,0.02,0.2,0.03,0.3c-0.57-0.01-1.14-0.01-1.72-0.02C-6.3,66.57-5.65,67-5.13,66.67z"/>
			<path class="st20" d="M98.55,66.26c0.61,0,1.23,0.02,1.84-0.01c0.31-0.01,0.81,0.16,0.8-0.36c-0.01-0.42-0.47-0.28-0.75-0.3
				c-0.21-0.02-0.41,0-0.62,0c-1.44,0-1.44,0-1.62-1.49c0.83,0,1.66,0,2.48,0c0.24,0,0.54,0.02,0.54-0.32
				c-0.01-0.31-0.29-0.33-0.54-0.33c-0.41,0-0.85-0.09-1.24,0.01c-1.35,0.37-2.31-0.71-3.5-0.9c-0.33-0.05-0.21-0.39-0.21-0.61
				c-0.01-4.77,0-9.54-0.01-14.31c0-0.5,0.14-0.65,0.64-0.64c1.62,0.03,3.25,0.03,4.88,0c0.51-0.01,0.63,0.17,0.63,0.65
				c-0.01,6.15-0.01,12.31,0,18.46c0,0.48-0.11,0.71-0.63,0.65c-0.89-0.11-1.82,0.2-2.67-0.21C98.55,66.45,98.55,66.36,98.55,66.26z
				"/>
			<path class="st21" d="M76.3,60.11c-2.14-0.83-4.3-1.63-6.16-3.03c-0.28-0.21-0.54-0.4-0.74-0.68c0.07-0.5,0.35-0.34,0.63-0.2
				c8.18,1.99,16.36,2.72,24.58,0.21c0.68,0.45,0.64,1.26-0.11,1.69c-2.36,1.35-4.9,2.16-7.56,2.66
				C83.33,61.43,79.8,61.01,76.3,60.11z"/>
			<path class="st22" d="M118.05,63.68c4.83,0,9.66,0,14.5-0.02c0.63,0,0.89,0.1,0.89,0.83c-0.01,2.31,0.03,2.31-2.29,2.31
				c-4,0-8.01,0-12.01-0.01c-0.38,0-0.75-0.04-1.13-0.07C118.02,65.71,118.04,64.69,118.05,63.68z"/>
			<path class="st22" d="M32.48,53.91c0.27-0.42,0.55-0.84,0.87-1.34c0.41,0.64,0.79,1.22,1.17,1.8c1.07,1.38,1.08,2.97,1.02,4.61
				c-0.05,1.48-0.04,2.97,0,4.45c0.02,0.83-0.1,1.57-0.71,2.23c-0.61-0.5-0.47-1.21-0.46-1.85c0.01-0.65-0.12-1.21-0.83-1.35
				c-0.69-0.14-1.12,0.23-1.25,0.92c-0.1,0.52-0.42,0.35-0.68,0.18c-0.33-0.21-0.34-0.57-0.33-0.92c0.01-0.97,0.04-1.93,0-2.9
				C31.19,57.69,31.2,55.67,32.48,53.91z"/>
			<path class="st23" d="M78.78,66.15c0.2,0.58-0.13,0.62-0.58,0.62c-1.93-0.02-3.87-0.02-5.8-0.03c-0.3-0.75-0.61-1.5-0.91-2.25
				c-0.29-0.67-0.14-0.91,0.66-0.88c1.95,0.06,3.9,0.01,5.85,0.03c0.26,0,0.62-0.19,0.78,0.23C78.58,64.62,78.58,65.38,78.78,66.15z
				"/>
			<path class="st20" d="M44.94,57.42c0.06-0.4-0.52-0.55-0.35-1.08c1.96,1.22,3.39,2.98,5.13,4.37c1.55,0.99,1.2,2.55,1.15,3.98
				c-0.02,0.64,0.41,1.64-0.29,1.85c-0.55,0.16-0.75-0.9-1.07-1.43C47.96,62.57,46.58,59.92,44.94,57.42z"/>
			<path class="st22" d="M63,64.48c0.2,0.19,0.41,0.36,0.59,0.57c0.36,0.43,0.73,0.98,0.51,1.48c-0.18,0.41-0.81,0.16-1.23,0.17
				c-1.68,0.03-3.36,0.02-5.05,0.03c0.19-0.31,0.21-0.61,0.11-0.97c-0.26-0.97,0.04-1.79,0.9-2.29c0.87-0.5,1.64-0.24,2.27,0.51
				C61.62,64.57,62.43,64.08,63,64.48z"/>
			<path class="st22" d="M97.67,66.72c-2.03,0-3.82-0.04-5.61,0.02c-0.76,0.02-0.82-0.3-0.61-0.85c0.35-0.95,1-1.56,2.06-1.6
				c0.39-0.01,0.7-0.04,0.98-0.38c0.56-0.69,1.31-0.89,2.12-0.47c0.83,0.43,1.11,1.17,1.03,2.08
				C97.62,65.92,97.28,66.29,97.67,66.72z"/>
			<path class="st23" d="M34.31,66.69c-1.98,0.21-3.97,0.04-5.96,0.09c-0.12,0-0.27,0.09-0.34-0.2c-0.4-1.73,0.07-2.73,1.62-3.31
				c0.08,0,0.17,0,0.25,0c0.21,0.14,0.53-0.04,0.7,0.22c0.48,0.53,0.98,0.89,1.79,0.96C33.63,64.55,34.1,65.57,34.31,66.69z"/>
			<path class="st20" d="M-4.47,66.77c-0.38-0.34-0.23-0.66,0.03-0.97c0.55-0.94,1.25-1.64,2.46-1.5c0.34,0.04,0.47-0.24,0.64-0.44
				c0.39-0.44,0.87-0.66,1.46-0.62c1.14,0.09,1.5,0.83,1.02,2.06c-0.31,0.42-0.33,0.93-0.45,1.4c-0.14,0.18-0.33,0.25-0.55,0.24
				C-1.39,66.88-2.94,67.2-4.47,66.77z"/>
			<path class="st20" d="M35.16,66.77c0.09-0.7,0.44-0.94,1.12-0.94c4.05,0.03,8.09,0.03,12.14,0c0.7-0.01,1.01,0.28,1.17,0.94
				C44.77,66.77,39.97,66.77,35.16,66.77z"/>
			<path class="st20" d="M92.62,63.82c-1.13,0.39-1.71,1.24-1.9,2.36c-0.08,0.48-0.26,0.58-0.73,0.6c-2.39,0.08-2.39,0.09-2.37-2.3
				c0-0.27,0.04-0.54,0.07-0.82c1.6-0.22,3.21-0.09,4.81-0.07C92.66,63.59,92.6,63.73,92.62,63.82z"/>
			<path class="st24" d="M37.64,59.94c-0.74-0.11-0.57,0.47-0.53,0.8c0.11,0.92-0.25,1.65-0.92,2.6c0-2.33,0-4.4,0-6.47
				c0-0.18,0.05-0.37,0.26-0.37c0.79-0.01,1.58-0.02,2.37,0.02c0.34,0.02,0.22,0.35,0.26,0.58c0.2,1.19-0.39,2.12-1,3.04
				C37.85,60.26,37.78,60.02,37.64,59.94z"/>
			<path class="st16" d="M86.94,64.06c0,0.52-0.07,1.05,0.01,1.55c0.17,1.08-0.34,1.25-1.26,1.17c-0.53-0.04-0.62-0.23-0.62-0.69
				c0.02-1.28,0.01-2.56,0-3.83c0-1.17,0.96-0.59,1.47-0.75c0.6-0.19,0.37,0.41,0.38,0.68C86.97,62.82,86.94,63.44,86.94,64.06z"/>
			<path class="st16" d="M79.52,64.07c0-0.45,0-0.89,0-1.34c0-1.32,0-1.3,1.26-1.13c0.48,0.06,0.63,0.24,0.62,0.71
				c-0.03,1.27-0.05,2.54,0.01,3.81c0.03,0.83-0.52,0.64-0.96,0.63c-0.43,0-1.01,0.22-0.95-0.63
				C79.56,65.45,79.52,64.76,79.52,64.07z"/>
			<path class="st16" d="M11.98,60.31c-0.1-0.17-0.08-0.29,0.08-0.43c1.59-1.37,3.18-2.74,4.77-4.11c0.13-0.11,0.26-0.23,0.53-0.07
				c-0.93,1.54-1.85,3.08-2.78,4.62C13.72,60.56,12.85,60.12,11.98,60.31z"/>
			<path class="st12" d="M8.82,61.17c0.16-0.06,0.31-0.12,0.47-0.19c0.27,0,0.54,0,0.91,0c-0.6,1.75-0.91,3.49-0.83,5.28
				c0.02,0.54-0.28,0.51-0.65,0.52c-0.4,0-0.72,0.03-0.73-0.56C7.97,64.48,8.22,62.8,8.82,61.17z"/>
			<path class="st23" d="M115.1,65.52c-0.26,0.26-0.59,0.12-0.89,0.12c-3.63,0.01-7.26,0.02-10.89-0.01c-0.27,0-0.83,0.32-0.81-0.23
				c0.02-0.47,0.55-0.15,0.85-0.19c0.44-0.07,0.89-0.05,1.34-0.07c0.1-0.09,0.21-0.17,0.33-0.23c1.78,0.02,3.56,0.08,5.34,0.06
				c1.16-0.01,2.32-0.24,3.49-0.16c0.44,0.03,0.91-0.07,1.25,0.32C115.17,65.27,115.17,65.4,115.1,65.52z"/>
			<path class="st12" d="M48.23,64.48c0.54,0.57,0.28,0.7-0.36,0.7c-3.76-0.01-7.52-0.01-11.27,0c-0.97,0-0.44-0.39-0.21-0.71
				c1.02-0.2,2.06-0.07,3.08-0.08c2.58-0.02,5.16-0.01,7.75,0C47.56,64.39,47.91,64.3,48.23,64.48z"/>
			<path class="st16" d="M12.93,61.03c0.95-0.21,1.46,0.12,1.68,1.04c0.32,1.31,0.49,2.63,0.49,3.98c0,0.5-0.09,0.74-0.67,0.73
				c-0.54-0.01-0.71-0.14-0.68-0.7C13.83,64.36,13.48,62.68,12.93,61.03z"/>
			<path class="st12" d="M16.48,61.62c0.07,0.13,0.14,0.26,0.21,0.4c0.19,1.36,0.45,2.71,0.43,4.1c-0.01,0.59-0.26,0.65-0.75,0.66
				c-0.5,0-0.65-0.14-0.63-0.65c0.06-1.59-0.16-3.16-0.65-4.7C15.6,61.19,16.02,61.6,16.48,61.62z"/>
			<path class="st16" d="M6.53,61.77c0.23-0.12,0.47-0.25,0.7-0.37c0.47-0.05,0.8-0.04,0.61,0.64c-0.37,1.33-0.56,2.69-0.49,4.07
				c0.02,0.46-0.05,0.69-0.59,0.67c-0.46-0.02-0.79-0.03-0.78-0.63C6,64.67,6.17,63.21,6.53,61.77z"/>
			<path class="st23" d="M84.42,65.23c0,0.03,0.01,0.07,0,0.1c-0.08,0.46,0.26,1.16-0.18,1.33c-0.57,0.22-1.28,0.08-1.94,0.08
				c-0.16,0-0.24-0.11-0.25-0.27c0-0.86,0-1.72,0-2.58c0-0.22,0.15-0.28,0.34-0.28c0.28,0,0.56,0.04,0.83-0.01
				c1.01-0.18,1.38,0.23,1.19,1.21C84.4,64.95,84.42,65.1,84.42,65.23z"/>
			<path class="st19" d="M38.65,54.16c0,0.1,0,0.21,0,0.31c0,1.4,0,1.38-1.39,1.35c-0.48-0.01-0.7-0.1-0.66-0.63
				c0.04-0.48,0.01-0.96,0.01-1.45c0-1.39,0.1-1.46,1.53-1.31c0.42,0.04,0.52,0.21,0.51,0.58C38.64,53.41,38.65,53.78,38.65,54.16z"
				/>
			<path class="st20" d="M47.45,63.02c0.28,0.31,0.61,0.63-0.19,0.63c-3.42-0.01-6.83,0-10.28,0c0.08-0.58,0.3-0.9,0.92-0.89
				c3.04,0.04,6.07,0.04,9.11,0.06c0.03,0.31-0.18,0.32-0.39,0.32c-2.75,0.01-5.5,0-8.25,0.01c2.45,0,4.9,0,7.35,0.01
				C46.29,63.14,46.87,63.13,47.45,63.02z"/>
			<path class="st25" d="M11.27,60.96c0,1.83,0,3.65,0,5.48c0,0.44-0.35,0.33-0.61,0.33c-0.25,0-0.61,0.13-0.64-0.3
				c-0.1-1.92,0.15-3.78,0.96-5.53C11.08,60.95,11.18,60.95,11.27,60.96z"/>
			<path class="st12" d="M17.31,62.2c0.9,0,1.29,0.23,1.49,0.96c0.28,1,0.28,2.04,0.29,3.07c0,0.59-0.35,0.52-0.74,0.55
				c-0.52,0.04-0.63-0.17-0.61-0.65c0.02-0.71,0.1-1.44-0.17-2.14C17.58,63.38,17.54,62.77,17.31,62.2z"/>
			<path class="st16" d="M5.51,62.03c0.45,0.17,0.04,0.55,0.18,0.79c-0.3,1.04-0.36,2.1-0.34,3.17c0.01,0.52-0.02,0.8-0.68,0.8
				C3.95,66.8,3.99,66.41,4,65.94c0.02-0.52,0.04-1.03,0.06-1.55C4.1,63.34,4.42,62.45,5.51,62.03z"/>
			<path class="st26" d="M11.91,61.03c1,1.65,1.22,3.45,1.19,5.3c-0.01,0.56-0.41,0.42-0.73,0.45c-0.48,0.05-0.46-0.27-0.46-0.59
				C11.92,64.46,11.91,62.74,11.91,61.03z"/>
			<path class="st26" d="M15.32,60.71c-0.12-0.21-0.04-0.37,0.08-0.56c0.89-1.41,1.77-2.83,2.87-4.15
				c-0.45,1.61-0.89,3.22-1.35,4.83c-0.06,0.22-0.27,0.15-0.43,0.17C16.12,60.83,15.74,60.69,15.32,60.71z"/>
			<path class="st27" d="M95.03,58.66c0.01,1.53-0.62,2.75-1.17,3.99c-0.2,0.45-0.69,0.39-1,0.28c-0.51-0.18-0.03-0.51,0.04-0.74
				c0.21-0.72,0.58-1.4,0.71-2.13C93.76,59.25,94.2,58.89,95.03,58.66z"/>
			<path class="st28" d="M1.55,65.74c0.5-0.85,0.94-1.75,1.85-2.27c-0.02,0.69-0.04,1.37-0.05,2.06c-0.02,1.19-0.53,1.59-1.67,1.22
				C1,66.54,1.75,66.06,1.55,65.74z"/>
			<path class="st26" d="M37.83,44.16c0.21,1.35,0.41,2.71,0.62,4.1c-0.22,0.03-0.42,0.04-0.62,0.07c-0.84,0.14-1.15-0.11-0.94-1.03
				c0.28-1.23,0.41-2.5,0.6-3.76C38.02,43.53,37.61,44.02,37.83,44.16z"/>
			<path class="st23" d="M45.77,60.12c0.34,0.57-0.17,0.4-0.38,0.4c-2.18,0.01-4.36,0.01-6.62,0.01c0.08-0.45,0.18-0.87,0.67-0.86
				c2.03,0.03,4.07-0.16,6.09,0.1C45.37,60.25,44.96,60,44.67,60c-1.65,0.03-3.29,0.01-4.94,0.03
				C41.74,60.06,43.76,59.91,45.77,60.12z"/>
			<path class="st29" d="M53.49,49.04c0.55,0.06,1.13,0.14,1.71,0.2c0.39,0.04,0.51,0.24,0.46,0.63c-0.06,0.42-0.3,0.38-0.59,0.33
				c-1.06-0.16-2.13-0.17-3.19-0.04c-0.21,0.02-0.51,0.17-0.54-0.23c-0.02-0.31-0.05-0.66,0.38-0.71
				C52.29,49.14,52.87,49.1,53.49,49.04z"/>
			<path class="st30" d="M53.56,47.39c0.55,0.06,1.12,0.15,1.7,0.2c0.49,0.04,0.52,0.33,0.47,0.72c-0.06,0.47-0.36,0.28-0.61,0.25
				c-1.06-0.15-2.13-0.14-3.19-0.04c-0.22,0.02-0.51,0.16-0.54-0.24c-0.02-0.31-0.03-0.66,0.39-0.71
				C52.35,47.49,52.94,47.45,53.56,47.39z"/>
			<path class="st31" d="M53.59,45.74c0.51,0.06,1.09,0.12,1.67,0.18c0.53,0.05,0.59,0.44,0.54,0.82c-0.07,0.48-0.43,0.18-0.65,0.15
				c-1.03-0.12-2.05-0.13-3.08-0.04c-0.23,0.02-0.59,0.23-0.61-0.26c-0.02-0.38,0.06-0.68,0.52-0.72
				C52.49,45.84,53,45.79,53.59,45.74z"/>
			<path class="st19" d="M39.7,58.91c1.09-1.45,2.63-0.66,3.96-0.83c1-0.13,1.01-0.02,1.38,0.83C43.24,58.91,41.47,58.91,39.7,58.91
				z"/>
			<path class="st28" d="M54.87,51.84c-1-0.16-2.05-0.17-3.12-0.03c-0.2,0.03-0.52,0.17-0.53-0.24c-0.01-0.31-0.01-0.64,0.41-0.71
				c1.16-0.19,2.32-0.19,3.48,0.01c0.42,0.07,0.44,0.33,0.42,0.67C55.5,52.01,55.18,51.85,54.87,51.84z"/>
			<path class="st25" d="M53.25,52.35c0.57,0.05,1.12,0.09,1.67,0.15c0.35,0.04,0.56,0.17,0.52,0.6c-0.05,0.47-0.32,0.45-0.65,0.4
				c-1.03-0.16-2.06-0.16-3.09-0.02c-0.19,0.03-0.52,0.2-0.54-0.22c-0.01-0.3-0.09-0.67,0.36-0.73
				C52.1,52.44,52.68,52.4,53.25,52.35z"/>
			<path class="st25" d="M53.19,55.63c0.54,0.05,1.02,0.11,1.5,0.14c0.45,0.03,0.45,0.31,0.43,0.65c-0.03,0.42-0.28,0.41-0.58,0.35
				c-0.93-0.17-1.85-0.16-2.78,0c-0.39,0.07-0.57-0.03-0.6-0.45c-0.04-0.44,0.19-0.53,0.54-0.56
				C52.22,55.73,52.73,55.67,53.19,55.63z"/>
			<path class="st28" d="M54.68,55.13c-0.99-0.18-1.98-0.17-2.97-0.02c-0.23,0.04-0.58,0.22-0.6-0.27c-0.01-0.32-0.04-0.63,0.4-0.7
				c1.13-0.17,2.26-0.17,3.39,0c0.34,0.05,0.43,0.24,0.41,0.57C55.29,55.18,55.03,55.19,54.68,55.13z"/>
			<path class="st12" d="M57.28,58.8c0.54,0.02,1.03,0.15,1.51,0.36c0.43,0.18,0.35,0.56,0.3,0.89c-0.07,0.42-0.38,0.13-0.57,0.13
				c-0.72,0-1.44-0.03-2.17-0.03c-0.29,0-0.63,0.17-0.65-0.36c-0.01-0.38,0.01-0.68,0.47-0.76C56.54,58.96,56.91,58.87,57.28,58.8z"
				/>
			<path class="st30" d="M8.81,60.36c1.51-1.19,3.16-2.16,4.82-3.12c0.19-0.06,0.25,0.01,0.17,0.2c-0.82,0.76-1.64,1.52-2.46,2.28
				C10.62,60.42,9.7,60.36,8.81,60.36z"/>
			<path class="st25" d="M93.03,59.72c-0.2,0.93-0.56,1.74-0.88,2.57c-0.24,0.62-0.69,0.86-1.19,0.62
				c-0.48-0.24,0.02-0.66,0.14-0.94C91.5,61.06,91.44,59.74,93.03,59.72z"/>
			<path class="st32" d="M58.78,55.37c-0.72-0.1-1.43-0.21-2.16-0.13c-0.24,0.03-0.69,0.32-0.69-0.26c0-0.38-0.11-0.92,0.48-0.99
				c1.03-0.12,1.93,0.4,2.86,0.73c0.19,0.07,0.13,0.3,0.09,0.46C59.28,55.56,59.01,55.4,58.78,55.37z"/>
			<path class="st30" d="M53.4,63.85c0.47,0.07,0.94,0.14,1.42,0.19c0.44,0.05,0.44,0.37,0.44,0.68c0,0.48-0.32,0.33-0.58,0.29
				c-0.86-0.14-1.72-0.15-2.58,0c-0.27,0.05-0.57,0.16-0.57-0.31c0-0.31-0.06-0.64,0.41-0.68C52.42,63.98,52.9,63.91,53.4,63.85z"/>
			<path class="st20" d="M37.95,61.78c0.13-0.39,0.33-0.62,0.81-0.62c2.38,0.02,4.76,0.03,7.13,0c0.52-0.01,0.8,0.24,0.89,0.66
				c0.08,0.34-0.22,0.21-0.41,0.19c-0.24-0.26-0.56-0.23-0.87-0.23c-2.35,0.01-4.69-0.04-7.04,0.02
				C38.29,61.85,38.11,61.93,37.95,61.78z"/>
			<path class="st33" d="M54.47,58.41c-0.85-0.15-1.71-0.14-2.56,0.02c-0.35,0.07-0.5-0.04-0.54-0.4c-0.04-0.36,0.01-0.57,0.44-0.63
				c0.93-0.12,1.84-0.12,2.77,0.01c0.42,0.06,0.47,0.3,0.46,0.65C55.02,58.49,54.76,58.46,54.47,58.41z"/>
			<path class="st28" d="M53.24,60.56c0.46,0.06,0.93,0.13,1.41,0.18c0.5,0.05,0.48,0.41,0.46,0.75c-0.04,0.5-0.4,0.25-0.61,0.22
				c-0.79-0.14-1.57-0.15-2.35-0.02c-0.25,0.04-0.57,0.23-0.6-0.24c-0.02-0.34-0.08-0.7,0.45-0.73
				C52.4,60.69,52.81,60.61,53.24,60.56z"/>
			<path class="st31" d="M53.27,62.19c0.51,0.08,1.02,0.15,1.53,0.24c0.44,0.08,0.39,0.44,0.35,0.74c-0.04,0.42-0.35,0.21-0.55,0.18
				c-0.82-0.12-1.65-0.13-2.47-0.01c-0.25,0.04-0.58,0.21-0.59-0.27c-0.01-0.31-0.06-0.64,0.4-0.69
				C52.38,62.33,52.82,62.26,53.27,62.19z"/>
			<path class="st34" d="M103.24,58.22c1.15-0.97,2.34-1.91,3.31-3.08c0.11-0.18,0.26-0.24,0.38-0.04c0.12,0.22,0.1,0.46-0.1,0.65
				c-0.36,0.36-0.72,0.71-1.08,1.06c-0.63,1.2-1.84,1.8-2.77,2.69c-0.14,0.13-0.37,0.17-0.54-0.04
				C102.4,58.85,102.97,58.63,103.24,58.22z"/>
			<path class="st35" d="M106.18,60.39c0.14-0.13,0.28-0.25,0.42-0.38c0.04-0.15,0.14-0.22,0.27-0.15c0.21,0.1,0.23,0.28,0.13,0.48
				c-0.08,0.13-0.16,0.26-0.25,0.38c-0.43,1.12-1.62,1.5-2.31,2.38c-0.35,0.45-0.77,0.87-1.37,0.99c-0.22,0.01-0.37,0.48-0.56,0.24
				c-0.25-0.33,0.12-0.61,0.31-0.88C103.69,62.14,104.92,61.24,106.18,60.39z"/>
			<path class="st31" d="M56.79,52.29c0.84,0.06,1.6,0.36,2.36,0.7c0.38,0.17,0.39,0.47,0.31,0.77c-0.13,0.46-0.46,0.14-0.66,0.09
				c-0.69-0.21-1.36-0.5-2.09-0.52c-0.35-0.01-0.68,0.08-0.62-0.49C56.14,52.34,56.43,52.3,56.79,52.29z"/>
			<path class="st36" d="M105.95,58.25c0.08,0.17,0.16,0.35,0.24,0.52c-0.18,0.76-0.83,1.16-1.35,1.63c-0.75,0.67-1.4,1.5-2.4,1.85
				c-0.14-0.37-0.45-0.74,0.01-1.1c0.84-1.06,1.95-1.84,2.94-2.74C105.54,58.27,105.72,58.15,105.95,58.25z"/>
			<path class="st34" d="M102.45,62.25c1.25-1.16,2.5-2.32,3.75-3.48c0.22-0.16,0.43-0.32,0.74-0.55c0.19,0.95-0.76,1.09-1,1.65
				c-0.83,1.19-1.98,2.06-3.06,2.99c-0.12,0.11-0.33,0.1-0.43-0.11C102.45,62.59,102.45,62.42,102.45,62.25z"/>
			<path class="st34" d="M105.95,58.25c-0.89,0.79-1.78,1.58-2.68,2.35c-0.25,0.21-0.41,0.57-0.81,0.55
				c-0.11-0.59,0.4-0.83,0.67-1.21c0.85-1.08,1.74-2.11,3.01-2.74c0.24-0.18,0.48-0.36,0.79-0.59
				C107.16,57.56,106.18,57.68,105.95,58.25z"/>
			<path class="st33" d="M57.42,55.83c0.5,0.08,1.01,0.15,1.51,0.24c0.39,0.07,0.33,0.36,0.31,0.64c-0.03,0.38-0.29,0.31-0.52,0.25
				c-0.81-0.2-1.63-0.19-2.46-0.09c-0.22,0.03-0.52,0.18-0.52-0.23c0-0.29-0.02-0.65,0.43-0.69C56.58,55.92,56.99,55.88,57.42,55.83
				z"/>
			<path class="st32" d="M59.35,52.34c-0.93-0.34-1.79-0.72-2.75-0.69c-0.2,0.01-0.44,0.04-0.43-0.28c0.01-0.23-0.06-0.57,0.2-0.65
				c0.86-0.28,1.61,0.15,2.37,0.45C59.24,51.37,59.59,51.64,59.35,52.34z"/>
			<path class="st37" d="M57.31,39.56c0.48,0.08,0.96,0.16,1.42,0.25c0.41,0.08,0.43,0.4,0.36,0.72c-0.09,0.43-0.38,0.15-0.56,0.11
				c-0.82-0.17-1.63-0.18-2.45-0.01c-0.18,0.03-0.48,0.32-0.55-0.12c-0.05-0.31-0.08-0.64,0.36-0.72
				C56.37,39.71,56.84,39.64,57.31,39.56z"/>
			<path class="st36" d="M103.08,64.08c1.23-1.12,2.46-2.24,3.69-3.37c-0.11,0.46,0.71,0.75,0.24,1.28c-1.06,0.25-1.51,1.3-2.38,1.8
				c-0.31,0.18-0.51,0.55-0.92,0.6c-0.1-0.01-0.19-0.05-0.26-0.12C103.33,64.21,103.2,64.15,103.08,64.08z"/>
			<path class="st30" d="M57.1,41.13c0.7,0.04,1.21,0.1,1.7,0.29c0.35,0.13,0.35,0.41,0.29,0.68c-0.08,0.41-0.37,0.17-0.56,0.12
				c-0.82-0.23-1.63-0.22-2.45,0c-0.2,0.05-0.48,0.27-0.54-0.15c-0.04-0.28-0.04-0.57,0.32-0.66C56.33,41.28,56.8,41.19,57.1,41.13z
				"/>
			<path class="st36" d="M115.32,66.36c0,0.42-0.18,0.62-0.62,0.62c-1.86-0.01-3.72,0-5.59-0.01c-0.31,0-0.68,0.01-0.64-0.46
				c0.04-0.45,0.42-0.38,0.71-0.38c1.97-0.01,3.93-0.01,5.9-0.01C115.28,66.09,115.37,66.15,115.32,66.36z"/>
			<path class="st35" d="M90.84,60.53c-0.49,2.17-0.79,2.51-2.07,2.33C89.27,61.92,89.17,60.54,90.84,60.53z"/>
			<path class="st29" d="M57.38,38.05c0.48,0.07,0.95,0.12,1.42,0.21c0.37,0.07,0.33,0.39,0.3,0.66c-0.04,0.42-0.35,0.24-0.54,0.19
				c-0.81-0.19-1.62-0.19-2.44-0.03c-0.19,0.04-0.52,0.25-0.53-0.18c-0.01-0.25,0.02-0.58,0.37-0.65
				C56.43,38.18,56.9,38.12,57.38,38.05z"/>
			<path class="st21" d="M54.2,59.94c-0.65,0.02-1.3,0.04-1.95,0.05c-0.24,0-0.61,0.44-0.71-0.15c-0.09-0.51,0.18-0.73,0.67-0.81
				c0.92-0.14,1.82-0.1,2.68,0.3C55.14,60.07,54.73,60.08,54.2,59.94z"/>
			<path class="st14" d="M102.45,62.76c1.05-0.46,1.68-1.44,2.55-2.11c0.32-0.25,0.62-0.52,0.94-0.78c0.08,0.17,0.17,0.34,0.25,0.51
				c-1.06,1.08-2.17,2.09-3.35,3.04C102.7,63.21,102.57,62.99,102.45,62.76z"/>
			<path class="st35" d="M59.12,48.89c-0.74-0.24-1.49-0.5-2.28-0.45c-0.21,0.01-0.44,0.03-0.45-0.26
				c-0.01-0.23-0.06-0.59,0.17-0.66c0.68-0.22,1.35-0.05,2,0.23C59.04,47.96,59.37,48.23,59.12,48.89z"/>
			<path class="st31" d="M83.27,61.77c0.34,0,0.71-0.08,1.01,0.02c0.3,0.11,0.12,0.49,0.14,0.74c0.03,0.31-0.15,0.42-0.44,0.42
				c-0.38-0.01-0.76-0.02-1.13,0c-0.51,0.03-0.83-0.02-0.82-0.69c0.01-0.72,0.46-0.51,0.83-0.53c0.14-0.01,0.27,0,0.41,0
				C83.27,61.76,83.27,61.76,83.27,61.77z"/>
			<path class="st34" d="M55.98,37.53c0.42-0.93,2.34-1.41,3-0.82c0.21,0.19,0.14,0.44,0.11,0.67c-0.04,0.32-0.28,0.2-0.47,0.18
				c-0.44-0.04-0.89-0.08-1.33-0.09C56.89,37.47,56.48,37.51,55.98,37.53z"/>
			<path class="st11" d="M106.14,57.21c-0.95,0.97-1.95,1.89-3.01,2.74c-0.25-0.14-0.58-0.16-0.69-0.48
				c0.79-0.11,1.12-0.82,1.67-1.24c0.57-0.44,1.1-0.94,1.64-1.41C105.88,56.95,106.01,57.08,106.14,57.21z"/>
			<path class="st38" d="M77.71,62.62c-0.06,0.13-0.13,0.27-0.19,0.4c-0.27,0.23-0.53,0.26-0.79-0.01
				c-0.44-0.78-1.13-1.46-0.87-2.48C77.1,60.67,77.23,61.8,77.71,62.62z"/>
			<path class="st30" d="M56.82,45.2c-0.23,0.03-0.49,0.12-0.7,0.06c-0.16-0.04-0.34-0.26-0.4-0.43c-0.1-0.3,0.22-0.28,0.39-0.34
				c0.84-0.29,1.68-0.23,2.52,0.05c0.4,0.13,0.59,0.38,0.46,0.77c-0.15,0.47-0.46,0.08-0.64,0.03C57.91,45.2,57.37,45.16,56.82,45.2
				z"/>
			<path class="st35" d="M57.4,60.72c0.35,0.05,0.82,0.12,1.3,0.17c0.45,0.05,0.47,0.35,0.4,0.67c-0.09,0.41-0.37,0.15-0.57,0.11
				c-0.72-0.16-1.43-0.17-2.16-0.07c-0.25,0.04-0.57,0.2-0.62-0.26c-0.05-0.38,0.19-0.49,0.48-0.52
				C56.57,60.77,56.92,60.75,57.4,60.72z"/>
			<path class="st37" d="M59.12,58.12c0.02,0.43-0.24,0.38-0.53,0.28c-0.8-0.27-1.62-0.24-2.43-0.06c-0.18,0.04-0.41,0.23-0.48-0.1
				c-0.05-0.22-0.11-0.52,0.2-0.61c1.01-0.29,2.03-0.23,3.04,0.05C59.09,57.72,59.14,57.92,59.12,58.12z"/>
			<path class="st26" d="M59.24,50.63c-0.86-0.28-1.64-0.68-2.53-0.65c-0.17,0.01-0.38,0.03-0.39-0.21
				c-0.01-0.19,0.01-0.53,0.11-0.57c0.68-0.27,1.35-0.08,2,0.14c0.41,0.14,0.92,0.22,0.85,0.85C59.27,50.33,59.26,50.46,59.24,50.63
				z"/>
			<path class="st19" d="M51.99,65.74c0.11-0.01,0.22-0.02,0.33-0.04c0.69-0.13,1.37-0.12,2.06,0c0.1,0.01,0.21,0.02,0.31,0.03
				c0.28,0.12,0.61,0.22,0.49,0.64c-0.1,0.37-0.42,0.28-0.68,0.28c-0.72,0.01-1.44,0.02-2.16,0C51.57,66.63,51.53,66.51,51.99,65.74
				z"/>
			<path class="st35" d="M59.03,47.23c-0.67-0.29-1.36-0.48-2.09-0.44c-0.38,0.02-0.45-0.18-0.51-0.47
				c-0.09-0.43,0.19-0.44,0.47-0.48c0.75-0.12,1.41,0.17,2.09,0.4C59.27,46.56,59.17,46.9,59.03,47.23z"/>
			<path class="st31" d="M59,62.51c-0.83,0.95-1.95,0.4-2.86,0.72c-0.29,0.1-0.29-0.19-0.33-0.39c-0.07-0.37,0.16-0.51,0.45-0.57
				C57.18,62.07,58.08,62.1,59,62.51z"/>
			<path class="st29" d="M48.23,64.48c-3.95,0-7.89-0.01-11.84-0.01c0.12-0.24,0.35-0.18,0.54-0.18c3.6,0,7.2,0,10.79,0
				C47.91,64.29,48.15,64.18,48.23,64.48z"/>
			<path class="st9" d="M-4.47,66.77c1.72-0.02,3.45-0.04,5.17-0.06c0.02,0.15,0.18,0.43-0.05,0.42c-1.91-0.04-3.84,0.28-5.74-0.17
				C-4.86,66.96-4.62,67.01-4.47,66.77z"/>
			<path class="st28" d="M55.72,43.14c0.2-0.06,0.29-0.36,0.57-0.26c0.66-0.13,1.32-0.13,1.97,0c0.08,0.06,0.16,0.16,0.24,0.17
				c0.43,0.02,0.78,0.18,0.58,0.65c-0.22,0.52-0.58,0.19-0.88,0.01c-0.62-0.14-1.24-0.14-1.86,0c-0.11,0.02-0.22,0.04-0.33,0.06
				C55.46,43.78,55.61,43.45,55.72,43.14z"/>
			<path class="st35" d="M103.68,64.28c0.92-0.81,1.84-1.62,2.76-2.44c0.28-0.25,0.55-0.53,0.57,0.15
				c-0.28,0.29-0.56,0.59-0.84,0.88c-0.2,0.43-0.57,0.71-0.88,1.04c-0.17,0.15-0.34,0.32-0.59,0.31c-0.07,0.07-0.14,0.13-0.21,0.2
				C104.17,64.61,103.85,64.82,103.68,64.28z"/>
			<path class="st39" d="M38.11,49.5c0.4,0.63,0.15,1.32,0.17,1.98c0.02,0.5-0.43,0.31-0.7,0.34c-0.32,0.03-0.65,0.04-0.61-0.44
				c0.05-0.75-0.11-1.51,0.09-2.26c0.39-0.15,0.78-0.16,1.17,0.01c0.14,0.18-0.15,0.23-0.11,0.38c-0.07,0.06-0.14,0.13-0.2,0.19
				c-0.31,0.25-0.63,0.5-0.16,0.88C37.88,50.22,37.76,49.78,38.11,49.5z"/>
			<path class="st28" d="M47.45,63.02c-0.16,0.07-0.32,0.19-0.48,0.19c-2.96,0.01-5.92,0.01-8.88-0.18c2.58,0,5.17,0.01,7.75-0.01
				c0.39,0,0.84,0.17,1.17-0.22C47.23,62.73,47.39,62.76,47.45,63.02z"/>
			<path class="st24" d="M102.5,66.32c1.39,0,2.78,0,4.17,0c0.13,0,0.27,0.04,0.29,0.21c0.02,0.18-0.11,0.24-0.25,0.24
				c-1.4,0.01-2.81,0-4.21,0C102.5,66.63,102.5,66.48,102.5,66.32z"/>
			<path class="st25" d="M38.29,61.78c0.23-0.29,0.56-0.2,0.86-0.2c2.12-0.01,4.24-0.01,6.36,0c0.35,0,0.8-0.15,0.88,0.43
				c-0.07,0-0.13,0-0.2,0c-0.8-0.28-1.63-0.08-2.44-0.12C41.92,61.81,40.1,62.01,38.29,61.78z"/>
			<path class="st20" d="M38.29,61.78c2.28,0,4.55-0.01,6.83,0.01c0.36,0,0.77-0.14,1.06,0.22c-2.62,0.02-5.24,0.04-7.87,0.05
				c-0.16,0-0.46,0.1-0.37-0.28C38.06,61.78,38.17,61.78,38.29,61.78z"/>
			<path class="st35" d="M55.93,66.04c-0.14-0.57,0.37-0.6,0.8-0.7c0.47-0.12,0.54,0.22,0.52,0.53c-0.02,0.54-0.34,0.85-0.88,0.9
				C55.87,66.8,55.97,66.42,55.93,66.04z"/>
			<path class="st6" d="M27.12,66.59c-0.04,0.3-0.09,0.43-0.5,0.42c-2.13-0.05-4.26-0.04-6.39-0.04c0,0,0,0,0,0
				c-0.07-0.14-0.03-0.25,0.09-0.33c0.69-0.32,1.42-0.2,2.14-0.19c1.54,0.04,3.09-0.17,4.62,0.11L27.12,66.59z"/>
			<path class="st40" d="M98.8,45.55c0.29,0.18,0.91-0.29,0.92,0.43c0.01,0.63-0.54,0.39-0.85,0.38c-0.34-0.01-0.93,0.29-0.94-0.4
				C97.92,45.31,98.49,45.69,98.8,45.55z"/>
			<path class="st28" d="M45.77,60.12c-2.07,0-4.13,0-6.2,0c0-0.07,0-0.14,0-0.2c1.59,0,3.17,0.01,4.76-0.01
				c0.4,0,0.83,0.13,1.2-0.15C45.71,59.82,45.76,59.96,45.77,60.12z"/>
			<path class="st33" d="M56.36,64.75c-0.41,0.18-0.46-0.04-0.47-0.32c-0.03-0.81,0.65-0.52,1.04-0.65
				c0.18-0.06,0.54-0.19,0.51,0.24C57.4,64.73,56.82,64.71,56.36,64.75z"/>
			<path class="st25" d="M51.99,65.74c-0.31,0.54-0.22,0.84,0.47,0.82c0.66-0.02,1.31,0,1.97-0.01c0.23,0,0.52,0.07,0.61-0.24
				c0.09-0.31-0.26-0.37-0.36-0.58c0.55-0.1,0.64,0.21,0.63,0.66c-0.01,0.55-0.41,0.36-0.67,0.36c-0.86,0.02-1.73,0.01-2.59,0.01
				c-0.23,0-0.53,0.05-0.51-0.32C51.56,66.14,51.38,65.69,51.99,65.74z"/>
			<path class="st41" d="M92.62,63.82c-1.63-0.34-3.29-0.04-4.93-0.16c0.76-0.41,1.59-0.14,2.38-0.18c0.98-0.05,1.97,0,2.95,0
				c0.22,0.23-0.07,0.27-0.15,0.38C92.79,63.85,92.7,63.83,92.62,63.82z"/>
			<path class="st20" d="M87.82,62.98c-0.45-1.49-0.33-1.74,0.9-1.79C88.45,61.79,88.37,62.47,87.82,62.98z"/>
			<path class="st42" d="M78.35,62.82c-0.02-0.17-0.02-0.34-0.21-0.42c-0.12-0.53-0.68-1.33,0.61-0.99c0.18,0.46,0.17,0.92,0,1.38
				C78.62,62.8,78.49,62.81,78.35,62.82z"/>
			<path class="st43" d="M33.68,64.17c-0.43-0.11-0.86-0.21-0.73-0.78c0.05-0.21,0.25-0.41,0.46-0.31
				C33.91,63.31,33.74,63.75,33.68,64.17z"/>
			<path class="st6" d="M115.32,66.36c-0.08-0.08-0.16-0.16-0.24-0.24c0.07-0.2,0.33-0.39,0.02-0.6c0-0.07,0-0.14,0-0.21
				c0.13-0.24-0.08-0.46-0.05-0.7c-0.01-0.21-0.02-0.41-0.01-0.62c0-0.23,0.03-0.45,0.14-0.65c0.07-0.11,0.17-0.15,0.3-0.11
				c0.21,0.76,0.18,1.53,0.03,2.29c0,0.28,0,0.55,0,0.83C115.44,66.35,115.38,66.35,115.32,66.36z"/>
			<path class="st9" d="M31.02,59.71c-0.34-1.04-0.34-2.07,0-3.11C31.02,57.63,31.02,58.67,31.02,59.71z"/>
			<path class="st6" d="M104.69,64.23c0.14-0.13,0.27-0.25,0.41-0.38c0.31-0.12,0.42,0.08,0.51,0.33c-0.04,0.23-0.28,0.36-0.32,0.59
				c-0.08,0.17-0.27,0.22-0.38,0.37c-0.07,0-0.13,0-0.2,0C104.7,64.83,104.7,64.53,104.69,64.23z"/>
			<path class="st37" d="M58.18,35.88c-0.29-0.04-0.6,0.09-0.9-0.14c0.52-0.28,1.01-0.61,1.56-0.11
				C58.79,36.16,58.44,35.89,58.18,35.88z"/>
			<path class="st44" d="M52.6,44.97c0.22-0.06,0.44-0.11,0.66-0.17c0.36,0.16,0.78-0.01,1.14,0.17c-0.46,0.51-1.07,0.05-1.57,0.25
				C52.62,45.25,52.55,45.17,52.6,44.97z"/>
			<path class="st25" d="M54.38,65.71c-0.69,0-1.37,0-2.06,0C53,65.49,53.69,65.46,54.38,65.71z"/>
			<path class="st45" d="M58.27,42.88c-0.66,0-1.32,0-1.97,0C56.95,42.59,57.61,42.58,58.27,42.88z"/>
			<path class="st46" d="M95.03,61.8c0.2,0.32,0.19,0.59,0.01,0.91C94.59,62.4,94.58,62.12,95.03,61.8z"/>
			<path class="st45" d="M56.35,43.71c0.62-0.31,1.24-0.31,1.86,0C57.59,43.71,56.97,43.71,56.35,43.71z"/>
			<path class="st47" d="M92.88,63.86c0.05-0.13,0.1-0.25,0.15-0.38c0.27,0.02,0.59-0.18,0.83,0.24
				C93.5,63.77,93.19,63.81,92.88,63.86z"/>
			<path class="st9" d="M30.82,63.03c0.09-0.55-0.21-1.15,0.21-1.66C30.93,61.92,31.23,62.52,30.82,63.03z"/>
			<path class="st42" d="M54.2,59.94c0.39-0.03,0.74-0.09,0.69-0.61c0.31,0.17,0.24,0.52,0.12,0.66
				C54.78,60.27,54.47,60.07,54.2,59.94z"/>
			<path class="st48" d="M78.75,62.79c0-0.46,0-0.92,0-1.38C78.98,61.87,78.98,62.33,78.75,62.79z"/>
			<path class="st49" d="M38.23,49.13c-0.39,0-0.78,0-1.17-0.01C37.45,48.87,37.84,48.87,38.23,49.13z"/>
			<path class="st50" d="M59.03,47.23c0.11-0.34,0.11-0.67-0.05-0.99c0.45,0.26,0.28,0.66,0.21,1.02c0,0.01-0.06,0.03-0.08,0.02
				C59.09,47.28,59.06,47.25,59.03,47.23z"/>
			<path class="st51" d="M37.83,44.16c-0.11-0.2-0.22-0.41-0.34-0.61c0-0.1-0.04-0.23,0-0.29c0.15-0.19,0.21,0,0.25,0.1
				C37.86,43.62,37.91,43.88,37.83,44.16z"/>
			<path class="st52" d="M103.68,64.28c0.18,0.51,0.52,0.16,0.8,0.15c-0.4,0.37-0.77,0.51-1.03-0.15
				C103.53,64.28,103.6,64.28,103.68,64.28z"/>
			<path class="st9" d="M30.59,63.48c-0.23-0.07-0.47-0.15-0.7-0.22c0.31-0.08,0.62-0.16,0.93-0.23
				C30.74,63.18,30.67,63.33,30.59,63.48z"/>
			<path class="st45" d="M55.72,43.14c0,0.26,0.01,0.51,0.3,0.63c-0.12,0.13-0.36,0.23-0.41,0.1
				C55.51,43.65,55.33,43.33,55.72,43.14z"/>
			<path class="st29" d="M54.39,44.97c-0.38-0.04-0.8,0.17-1.14-0.17C53.65,44.78,54.06,44.58,54.39,44.97z"/>
			<path class="st53" d="M58.18,35.88c0.2-0.13,0.54,0.09,0.66-0.25c0.14,0.06,0.25,0.21,0.15,0.31
				C58.73,36.19,58.45,36,58.18,35.88z"/>
			<path class="st54" d="M52.6,44.97c0.07,0.08,0.15,0.17,0.22,0.25c-0.17,0.15-0.39,0.25-0.51,0.02
				C52.2,45.04,52.42,44.98,52.6,44.97z"/>
			<path class="st55" d="M37.64,59.94c0.15,0.06,0.3,0.13,0.44,0.19c0.01,0.18-0.04,0.38-0.23,0.35
				C37.53,60.44,37.72,60.12,37.64,59.94z"/>
			<path class="st20" d="M81.06,49.33c0,2.41-0.02,4.83,0.01,7.24c0.01,0.58-0.12,0.75-0.74,0.71c-2.93-0.18-2.93-0.16-2.93-3.1
				c0-3.97,0.02-7.94-0.02-11.9c-0.01-0.75,0.22-0.97,0.93-0.9c0.88,0.09,2.02-0.36,2.59,0.18c0.53,0.5,0.14,1.63,0.15,2.49
				C81.08,45.81,81.06,47.57,81.06,49.33z"/>
			<path class="st24" d="M81.71,50.2c0-2.11,0.01-4.21,0-6.32c0-1.27,0.95-0.5,1.44-0.66c0.58-0.19,0.64,0.23,0.65,0.71
				c0.01,0.59-0.38,0.44-0.7,0.47c-0.27,0.02-0.62-0.04-0.63,0.35c-0.01,0.34,0.32,0.33,0.55,0.3c0.68-0.09,0.79,0.24,0.79,0.84
				c0,0.59-0.07,0.94-0.77,0.83c-0.23-0.04-0.55-0.02-0.56,0.3c-0.03,0.42,0.35,0.39,0.6,0.35c0.76-0.11,0.72,0.35,0.73,0.87
				c0.01,0.52-0.04,0.89-0.7,0.8c-0.26-0.03-0.64-0.08-0.62,0.32c0.01,0.37,0.38,0.36,0.65,0.32c0.69-0.1,0.67,0.32,0.68,0.81
				c0.01,0.56-0.02,0.97-0.75,0.86c-0.22-0.03-0.55-0.08-0.58,0.26c-0.02,0.39,0.32,0.41,0.59,0.37c0.74-0.12,0.72,0.31,0.74,0.85
				c0.02,0.61-0.12,0.92-0.79,0.82c-0.23-0.03-0.55-0.04-0.55,0.29c0,0.39,0.35,0.39,0.62,0.34c0.76-0.12,0.71,0.36,0.72,0.87
				c0,0.5-0.01,0.9-0.69,0.8c-0.26-0.04-0.64-0.06-0.65,0.31c0,0.38,0.38,0.3,0.64,0.32c0.27,0.03,0.67-0.15,0.69,0.37
				c0.02,0.59-0.42,0.42-0.73,0.43c-1.34,0.05-1.35,0.04-1.35-1.29C81.7,54.14,81.71,52.17,81.71,50.2z"/>
			<path class="st23" d="M76.73,50.03c0,2.04,0.01,4.08-0.01,6.12c0,0.22,0.19,0.61-0.27,0.63c-0.29,0.02-0.54-0.03-0.41-0.46
				c0.08-0.26-0.18-0.38-0.39-0.34c-0.93,0.18-0.89-0.39-0.88-1.02c0-0.46,0.08-0.72,0.61-0.65c0.26,0.03,0.64,0.07,0.66-0.3
				c0.03-0.41-0.37-0.37-0.62-0.33c-0.74,0.11-0.67-0.37-0.65-0.83c0.01-0.43-0.14-0.95,0.63-0.84c0.26,0.04,0.64,0.06,0.64-0.32
				c0-0.4-0.39-0.33-0.64-0.3c-0.76,0.08-0.59-0.45-0.62-0.87c-0.03-0.5-0.01-0.9,0.68-0.8c0.26,0.04,0.62,0.03,0.58-0.38
				c-0.03-0.32-0.35-0.3-0.58-0.27c-0.7,0.1-0.68-0.32-0.69-0.81c-0.01-0.54,0-0.97,0.74-0.86c0.23,0.04,0.53,0.01,0.53-0.32
				c0-0.33-0.3-0.36-0.53-0.33c-0.6,0.08-0.76-0.18-0.75-0.75c0.01-0.58,0.02-1.04,0.81-0.91c0.19,0.03,0.45,0,0.47-0.28
				c0.02-0.34-0.26-0.39-0.5-0.36c-0.55,0.06-0.8-0.06-0.78-0.7c0.03-0.75,0.53-0.43,0.87-0.5c0.92-0.17,1.16,0.21,1.12,1.11
				C76.68,46.23,76.73,48.13,76.73,50.03z"/>
			<path class="st20" d="M78.17,39.79c-0.11,0.13-0.27,0.24-0.33,0.39c-0.16,0.41-0.41,0.64-0.85,0.54
				c-0.52-0.12-0.24-0.56-0.29-0.86c-0.04-0.23,0-0.48-0.01-0.72c-0.05-0.88,0.03-1.74,0.91-2.2c1-0.52,2.05-0.54,3.05,0.02
				c0.83,0.46,1.49,2.75,0.93,3.54c-0.44,0.62-0.87,0.12-1.2-0.29c-0.12-0.06-0.24-0.14-0.33-0.25
				C79.14,38.83,79.14,38.83,78.17,39.79z"/>
			<path class="st22" d="M91.37,45.59c-0.99,0.16-1.58,0.16-1.49-0.99c0.06-0.75,0.26-0.98,0.95-0.87c0.17,0.03,0.35,0.01,0.52,0.01
				c1.04,0,1.57,0.74,1.12,1.67C92.19,45.97,91.59,45.48,91.37,45.59z"/>
			<path class="st36" d="M90.17,46.85c0.21-0.94,0.32-0.97,2.46-0.73c-0.39,0.22-0.68,0.38-0.98,0.54c-0.09-0.07-0.16-0.17-0.3-0.14
				c0.09,0.06,0.21,0.06,0.28,0.16c0.12,0.13,0.23,0.26,0.35,0.39c0.09,0.04,0.19,0.2,0.2,0.19c0.12-0.13,0.05-0.29,0.06-0.44
				c0.84,0.12,0.42,0.76,0.33,1.09c-0.06,0.25-0.19,0.56-0.33,0.82c-0.62-0.16-1.21-0.47-1.88-0.24c-0.47-0.39-0.77-0.86-0.61-1.5
				C89.83,46.7,89.96,46.62,90.17,46.85c-0.07,0.07-0.06,0.17-0.05,0.25C90.19,47.03,90.09,46.92,90.17,46.85z"/>
			<path class="st19" d="M92.32,54.87c-0.4,0.31-0.73,0.78-1.08,0.8c-0.44,0.03-1.04-0.41-1.01-0.82c0.02-0.36,0.64-1.01,0.9-0.97
				C91.55,53.96,91.89,54.49,92.32,54.87z"/>
			<path class="st13" d="M78.17,39.79c0.29-0.52,0.37-1.37,1.02-1.39c0.52-0.02,0.61,0.82,0.93,1.25c0.12,0.16,0.18,0.37,0.26,0.55
				c-0.21,0.2-0.42,0.4-0.62,0.6c-0.25-0.51-0.52-0.97-1.21-0.65C78.42,40.04,78.3,39.92,78.17,39.79z"/>
			<path class="st19" d="M90.38,48.47c0.74-0.86,1.31-0.33,1.88,0.24c-0.83,1.26-0.89,1.27-1.92,0.43
				c-0.25-0.22-0.25-0.44,0.02-0.65L90.38,48.47z"/>
			<path class="st35" d="M91.17,50.89c0.41,0.17,0.85,0.48,0.86,0.81c0,0.39-0.43,0.87-0.84,0.88c-0.35,0.01-0.75-0.46-0.78-0.83
				C90.37,51.35,90.85,51.14,91.17,50.89z"/>
			<path class="st56" d="M92.24,43.06c-0.75,0-1.28,0-1.88,0c0.11-0.54,0.45-1.18,0.78-1.22C91.65,41.77,91.76,42.52,92.24,43.06z"
				/>
			<path class="st57" d="M78.55,40.16c0.2-0.24,0.39-0.49,0.67-0.83c0.17,0.57,0.75,0.85,0.54,1.48c-0.33-0.02-0.66-0.03-0.99-0.05
				C78.23,40.73,78.41,40.44,78.55,40.16z"/>
			<path class="st58" d="M82.5,41.38c0.45-0.07,0.4,0.29,0.43,0.65c0.04,0.53-0.27,0.5-0.64,0.52c-0.56,0.04-0.59-0.27-0.58-0.7
				C81.7,41.3,82.08,41.4,82.5,41.38z"/>
			<path class="st31" d="M76.74,42.11c0.07,0.4-0.2,0.43-0.55,0.45c-0.49,0.02-0.52-0.24-0.54-0.62c-0.02-0.49,0.24-0.53,0.62-0.54
				C76.84,41.36,76.73,41.74,76.74,42.11z"/>
			<path class="st59" d="M92.26,53.96c-0.88-0.5-0.42-0.99,0-1.49C92.71,52.97,92.77,53.47,92.26,53.96z"/>
			<path class="st60" d="M89.93,54c0-0.58,0-1.01,0-1.46C90.87,53.14,90.87,53.14,89.93,54z"/>
			<path class="st31" d="M92.45,49.75c0,0.4,0,0.76,0,1.12C91.59,50.41,91.59,50.41,92.45,49.75z"/>
			<path class="st31" d="M89.96,49.73c0.87,0.47,0.73,0.84,0.03,1.25C89.85,50.56,89.91,50.17,89.96,49.73z"/>
			<path class="st52" d="M92.26,53.96c0.4-0.49,0.38-0.99,0-1.49c0.02-0.03,0.05-0.08,0.06-0.08c0.37,0.16,0.37,0.16,0.36,0.87
				C92.67,53.79,92.67,53.79,92.26,53.96z"/>
			<path class="st33" d="M92.25,46.8c0.45,0.29,0.2,0.68,0.22,1.17c-0.41-0.27-0.82-0.39-0.48-0.92
				C92.07,46.96,92.16,46.88,92.25,46.8z"/>
			<path class="st29" d="M92.37,56.36c-0.23,0-0.46,0-0.72,0c0.07-0.4,0.45-0.41,0.61-0.64C92.67,55.86,92.68,56.08,92.37,56.36z"/>
			<path class="st61" d="M89.96,55.81c0.27,0.15,0.75,0.14,0.5,0.58c-0.07,0.13-0.33,0.29-0.41,0.25
				C89.69,56.43,90.04,56.1,89.96,55.81z"/>
			<path class="st52" d="M92.37,56.36c0.09-0.24,0.26-0.49-0.11-0.64c0.17-0.15,0.33-0.14,0.39,0.08
				C92.71,56.04,92.7,56.29,92.37,56.36z"/>
			<path class="st62" d="M70.02,56.21c-0.21,0.05-0.5-0.13-0.63,0.2c-0.2-0.07-0.17-0.24-0.17-0.41
				C69.51,56,69.81,55.92,70.02,56.21z"/>
			<path class="st36" d="M90.36,48.49c-0.19,0.21-0.22,0.43-0.02,0.65c-0.16-0.04-0.32-0.09-0.34-0.29
				C89.97,48.6,90.15,48.53,90.36,48.49z"/>
			<path class="st20" d="M117.53,61.78c0.08-0.16,0.16-0.32,0.25-0.48c0.74-0.81,1.48-1.62,2.22-2.43c3.24-2.32,7.8-2.66,11.47-0.07
				c0.19,0.14,0.4,0.25,0.6,0.38c0.63,0.68,1.25,1.35,1.88,2.03c-0.02,0.35,0.29,0.51,0.43,0.77c-0.06,0.59-0.62,0.12-0.84,0.4
				l0.01,0c-0.24,0.15,0.03,0.68-0.5,0.63c-0.37-0.03-0.41-0.31-0.53-0.55c-1.43-2.83-3.76-4.28-6.9-4.27
				c-3.07,0.01-5.31,1.48-6.66,4.26c-0.11,0.23-0.14,0.54-0.52,0.55c-0.43,0.01-0.39-0.3-0.41-0.56
				C117.99,62.12,117.39,62.22,117.53,61.78z"/>
			<path class="st20" d="M117.38,64.84c0,0.34-0.01,0.69,0,1.03c0.02,0.53,0.09,0.97-0.75,0.95c-0.75-0.02-0.84-0.3-0.8-0.91
				c0.04-0.72,0.02-1.45,0.01-2.17c-0.01-0.53-0.1-0.98,0.75-0.96c0.76,0.02,0.84,0.32,0.79,0.92
				C117.36,64.08,117.38,64.46,117.38,64.84z"/>
			<path class="st10" d="M109.24,57.1c0.08-0.16,0.16-0.31,0.24-0.47c0.67-0.13,0.95,0.46,1.33,0.79c1.64,1.41,3.21,2.9,4.81,4.36
				c0.1,0.09,0.16,0.22,0.19,0.36c0,0.1-0.04,0.19-0.1,0.27c-0.14,0-0.27,0-0.41,0.01c-0.08,0.07-0.16,0.11-0.27,0.11
				c-0.58-0.13-0.92-0.6-1.32-0.96c-1.36-1.21-2.73-2.41-4.02-3.69C109.48,57.66,109.24,57.45,109.24,57.1z"/>
			<path class="st34" d="M125.24,60.86c0-0.52,0-1.03,0-1.55c0-0.27,0.03-0.48,0.37-0.48c0.28,0,0.46,0.06,0.46,0.39
				c-0.01,1.14,0,2.27,0,3.41c0,0.24-0.11,0.37-0.37,0.38c-0.29,0.01-0.46-0.09-0.46-0.4C125.24,62.03,125.24,61.45,125.24,60.86z"
				/>
			<path class="st63" d="M124.61,59.02c0,1.16-0.01,2.32,0,3.49c0.01,0.73-0.52,0.51-0.88,0.5c-0.59-0.01-0.29-0.41-0.23-0.66
				c0.25-1.13,0.52-2.25,0.78-3.37C124.4,58.99,124.51,59,124.61,59.02z"/>
			<path class="st39" d="M127.01,58.98c0.29,1.22,0.58,2.45,0.88,3.67c0.1,0.41-0.2,0.37-0.43,0.36c-0.31-0.01-0.75,0.16-0.75-0.42
				c0-1.19,0-2.39,0-3.58C126.81,59,126.91,58.99,127.01,58.98z"/>
			<path class="st38" d="M127.74,59.21c0.78,0.11,0.72,0.65,0.85,1.04c0.24,0.72,0.45,1.44,0.66,2.17c0.05,0.19,0.35,0.46-0.06,0.58
				c-0.33,0.09-0.58,0.01-0.67-0.41C128.29,61.49,128.02,60.4,127.74,59.21z"/>
			<path class="st39" d="M123.52,59.31c-0.25,1.1-0.51,2.18-0.74,3.27c-0.07,0.34-0.23,0.48-0.56,0.43
				c-0.5-0.08-0.23-0.39-0.16-0.61c0.24-0.82,0.48-1.65,0.74-2.46C122.89,59.64,122.91,59.21,123.52,59.31z"/>
			<path class="st60" d="M129.2,59.98c1.18,0.6,1.06,1.81,1.43,2.79c0.06,0.15-0.08,0.24-0.24,0.24c-0.26,0-0.33-0.19-0.39-0.4
				C129.74,61.74,129.47,60.86,129.2,59.98z"/>
			<path class="st37" d="M122.14,59.83c-0.32,1.07-0.58,1.91-0.83,2.75c-0.07,0.25-0.18,0.5-0.47,0.42
				c-0.35-0.11-0.15-0.41-0.07-0.6C121.12,61.57,120.95,60.46,122.14,59.83z"/>
			<path class="st33" d="M130.92,61.66c0.78,0.32,0.88,0.78,0.98,1.23c0,0.02-0.17,0.13-0.24,0.11
				C131.08,62.81,131.3,62.24,130.92,61.66z"/>
			<path class="st1" d="M115.5,65.52c-0.09-0.76,0.2-1.55-0.17-2.29c-0.05-0.05-0.07-0.1-0.04-0.14c0.02-0.04,0.05-0.06,0.07-0.06
				c0.12-0.06,0.34-0.1,0.33,0.04C115.63,63.89,115.92,64.73,115.5,65.52z"/>
			<path class="st64" d="M119.9,62.8c-0.44-0.53,0.09-0.77,0.22-1.3C120.37,62.12,119.99,62.43,119.9,62.8z"/>
			<path class="st10" d="M115.71,62.41c0-0.07,0-0.15,0-0.22c0.09-0.19,0.58,0.04,0.41-0.4c0,0,0.03-0.03,0.03-0.03
				c0.38,0.07,0.4,0.36,0.38,0.66C116.26,62.56,115.98,62.56,115.71,62.41L115.71,62.41z"/>
			<path class="st36" d="M115.35,63.03c-0.02,0.06-0.03,0.13-0.02,0.19c-0.01,0.07-0.02,0.15-0.03,0.22
				c-0.21,0.04-0.3-0.09-0.38-0.25c-0.08-0.29-0.07-0.56,0.16-0.79c0.07,0,0.15,0,0.22,0C115.32,62.62,115.33,62.83,115.35,63.03z"
				/>
			<path class="st1" d="M115.71,62.41c0.28,0,0.55,0,0.83,0C116.26,62.82,115.98,62.63,115.71,62.41z"/>
			<path class="st16" d="M68.07,66.35c-0.46,0.5-1.02,0.22-1.55,0.19c-0.35-0.37-0.29-0.83-0.29-1.28
				c-0.01-7.08-0.01-14.17,0.01-21.25c0-0.47-0.19-1.06,0.48-1.31c0.08,0.65,0.14,1.3,0.03,1.96c0.2,1.12,0.03,2.25,0.09,3.37
				c0.02,0.37-0.1,0.75,0.1,1.11c0.07,0.31,0.12,0.62,0.02,0.93c0.23,0.92-0.06,1.88,0.17,2.81c0.06,0.51,0.16,1.02,0.04,1.54
				c0.23,0.79-0.06,1.61,0.18,2.4c0.07,0.3,0.14,0.61,0.03,0.92c0.24,0.79-0.08,1.62,0.19,2.4c0.08,0.24,0.12,0.47,0.02,0.71
				c0.23,0.65-0.06,1.34,0.18,1.98c0.07,0.3,0.14,0.61,0.03,0.92c0.21,0.51-0.04,1.06,0.17,1.57C67.99,65.66,68.03,66,68.07,66.35z"
				/>
			<path class="st24" d="M66.1,36.96c0.86,0,1.73,0.04,2.59-0.01c0.96-0.06,0.75,0.6,0.72,1.1c-0.03,0.46,0.34,1.16-0.67,1.14
				c-1.79-0.05-3.59-0.05-5.38,0c-1.06,0.03-0.68-0.7-0.73-1.2c-0.06-0.57-0.09-1.11,0.79-1.04C64.3,37.01,65.2,36.96,66.1,36.96z"
				/>
			<path class="st12" d="M66.71,42.7c-0.34,0.35-0.19,0.79-0.19,1.18c-0.01,7.55-0.01,15.11-0.01,22.66l-0.09,0.03l-0.09-0.02
				c-0.32-0.35-0.22-0.78-0.22-1.19c-0.01-7.57-0.01-15.14,0-22.7c0-0.4-0.13-0.84,0.27-1.16l0,0
				C67.05,41.74,66.66,42.28,66.71,42.7z"/>
			<path class="st45" d="M66.04,36.31c-0.59,0-1.17-0.01-1.76,0c-0.37,0.01-0.62-0.12-0.6-0.52c0.01-0.39,0.26-0.52,0.63-0.52
				c1.14,0.01,2.28,0.01,3.41,0.01c0.39,0,0.68,0.11,0.65,0.59c-0.03,0.45-0.36,0.44-0.67,0.44C67.14,36.32,66.59,36.31,66.04,36.31
				z"/>
			<path class="st25" d="M63.82,40.81c-0.31-0.69-0.13-1.03,0.67-1.01c1.03,0.03,2.05,0.02,3.08,0.01c0.8-0.01,0.99,0.31,0.59,1
				C66.72,41.01,65.27,41,63.82,40.81z"/>
			<path class="st12" d="M66.93,49.13c-0.45-1.48-0.09-2.98-0.19-4.48C66.97,46.13,66.93,47.63,66.93,49.13z"/>
			<path class="st65" d="M63.82,40.81c1.45,0,2.9,0,4.35-0.01C66.72,41.19,65.27,41.18,63.82,40.81z"/>
			<path class="st66" d="M65.3,44.56c0-1.01,0.01-2.02,0.01-3.03c0.12-0.01,0.24-0.02,0.36-0.04c0,0.06-0.01,0.12-0.02,0.17
				c-0.14,0.75-0.01,1.51-0.07,2.26C65.55,44.15,65.75,44.51,65.3,44.56z"/>
			<path class="st12" d="M67.11,52.86c-0.39-0.91-0.1-1.87-0.17-2.81C67.15,50.98,67.14,51.92,67.11,52.86z"/>
			<path class="st12" d="M67.55,60.12c-0.41-0.77-0.11-1.6-0.19-2.4C67.61,58.51,67.54,59.32,67.55,60.12z"/>
			<path class="st12" d="M67.33,56.8c-0.4-0.78-0.1-1.6-0.18-2.4C67.4,55.19,67.34,56,67.33,56.8z"/>
			<path class="st12" d="M67.75,62.82c-0.38-0.63-0.11-1.32-0.18-1.98C67.78,61.48,67.77,62.15,67.75,62.82z"/>
			<path class="st12" d="M67.95,65.31c-0.37-0.49-0.11-1.05-0.17-1.57C68.01,64.24,67.96,64.78,67.95,65.31z"/>
			<path class="st23" d="M27.08,66.56c-0.35,0.32-0.78,0.2-1.18,0.19c-1.88-0.01-3.75-0.04-5.63-0.07c-0.11-0.46,0.01-0.9,0.12-1.33
				c0.72-2.78,1.05-5.56,0-8.35c-0.05-0.13-0.02-0.27,0-0.41c-0.26-0.52-0.52-1.04-0.79-1.55c-0.41-0.8-0.23-1.13,0.64-1.18
				c1.05-0.05,1.11-0.14,0.53-1.05c-0.25-0.4-0.33-0.97-1.03-1.01c-1.12-0.06-1.2-0.01-0.95,1.05c0.04,0.15,0.05,0.28-0.07,0.37
				c-0.32,0.25-0.43-0.29-0.71-0.21c-0.16-0.62-0.87-0.93-0.93-1.68c1.21,0,2.41,0.04,3.61-0.02c0.72-0.03,0.65,0.49,0.73,0.88
				c0.66,3.11,1.83,5.99,3.83,8.49c0.69,0.86,1.51,1.6,2.27,2.4c0.14,0.14,0.38,0.26,0.29,0.49c-0.09,0.21-0.33,0.19-0.54,0.19
				c-0.27,0-0.63-0.08-0.7,0.26c-0.09,0.39,0.46,0.3,0.52,0.43C27.35,65.16,27.47,65.87,27.08,66.56z"/>
			<path class="st20" d="M20.25,63.02c-0.59-0.7-1.41-1.06-2.21-1.45c-0.32-0.16-0.58-0.28-0.44-0.76c0.51-1.69,0.97-3.39,1.46-5.14
				c0.53,0.38,0.54,1.01,0.93,1.39c0.76,0.55,0.77,1.43,0.9,2.22c0.14,0.92,0.08,1.85,0.03,2.78C20.9,62.5,20.89,63,20.25,63.02z"/>
			<path class="st1" d="M20.25,63.02c0.47-0.13,0.34-0.54,0.37-0.85c0.19-1.75,0.09-3.47-0.63-5.11c0.13-0.15,0.26-0.31,0.4-0.46
				c1.23,2.09,1.07,4.34,0.75,6.6c-0.17,1.19-0.44,2.36-0.87,3.48c-0.02,0.09-0.03,0.19-0.05,0.28c-0.61-0.33,0.02-0.88-0.22-1.27
				c-0.29-0.74,0.23-1.55-0.2-2.28C19.96,63.29,20.1,63.15,20.25,63.02z"/>
			<path class="st43" d="M19.82,63.42c0.53,0.26,0.56,0.68,0.41,1.19c-0.1,0.35-0.15,0.72-0.22,1.09
				C19.6,64.97,19.48,64.22,19.82,63.42z"/>
			<path class="st67" d="M13.8,57.44c-0.06-0.07-0.12-0.13-0.17-0.2c0.14-0.22,0.42-0.49,0.57-0.29
				C14.42,57.25,14.02,57.33,13.8,57.44z"/>
			<path class="st19" d="M29.15,62.81c-0.68,0.26-1.17,0.07-1.45-0.61c0.24-1.36,0.04-2.73,0.11-4.1c0.03-0.51-0.11-1.03,0.1-1.52
				c0.89-0.05,1.78-0.2,2.66,0.1c-0.02,1.65-0.09,3.3-0.05,4.95c0.02,0.77-0.03,1.27-0.99,1.06C29.42,62.66,29.28,62.77,29.15,62.81
				z"/>
			<path class="st22" d="M30.04,54.21c0,0.1,0,0.21,0,0.31c0,1.43-0.07,1.45-1.5,1.33c-0.74-0.06-0.53-0.6-0.46-0.89
				c0.22-0.82-0.7-2.04,0.46-2.42C29.91,52.08,30.04,52.34,30.04,54.21z"/>
			<path class="st12" d="M29.11,43.27c0.23,1.49,0.42,2.99,0.7,4.47c0.14,0.73-0.3,0.63-0.7,0.6c-0.37-0.03-0.97,0.26-0.82-0.58
				c0.26-1.49,0.46-2.99,0.69-4.49C29.02,43.27,29.06,43.27,29.11,43.27z"/>
			<path class="st66" d="M28.54,51.77c-0.29-0.88-0.29-1.76,0-2.64c0.19,0.19,0.32,0.42,0.39,0.68c0.09,0.37,0.09,0.74,0.01,1.11
				C28.83,51.22,28.78,51.54,28.54,51.77z"/>
			<path class="st66" d="M29.57,49.13c0.29,0.88,0.3,1.77-0.01,2.65c-0.24-0.23-0.3-0.55-0.39-0.85c-0.08-0.37-0.09-0.74,0-1.11
				C29.24,49.55,29.38,49.32,29.57,49.13z"/>
			<path class="st26" d="M29.33,50.98c0.33,0.19,0.19,0.52,0.24,0.79c-0.34,0.09-0.68,0.1-1.03,0c0.05-0.26-0.08-0.56,0.17-0.77
				C28.92,50.97,29.12,50.86,29.33,50.98z"/>
			<path class="st16" d="M29.57,49.13c-0.04,0.23,0.03,0.49-0.24,0.64c-0.19,0.15-0.37,0.15-0.56,0c-0.26-0.14-0.2-0.4-0.24-0.63
				C28.88,48.99,29.22,48.98,29.57,49.13z"/>
			<path class="st22" d="M65.3,44.56c0.49-0.92-0.08-1.97,0.35-2.89c0.02,2.21,0.04,4.42,0.04,6.63c0.01,5.8,0.01,11.61-0.01,17.41
				c0,0.3,0.28,0.8-0.34,0.89c-0.62,0.09-0.43-0.47-0.61-0.75c-0.9-1.46-0.42-3.01-0.31-4.53C64.83,55.74,65.09,50.15,65.3,44.56z"
				/>
			<path class="st1" d="M66.38,41.5c-0.01,7.07-0.03,14.15-0.04,21.22c0,1.28-0.01,2.55-0.01,3.83c-0.52-0.05-0.43-0.45-0.43-0.78
				c0-7.86,0-15.71,0-23.57C65.9,41.87,65.82,41.46,66.38,41.5z"/>
			<ellipse class="st68" cx="107.75" cy="57.25" rx="0.1" ry="10.16"/>
			<path class="st30" d="M116.13,61.78c0.41,0.69-0.3,0.24-0.41,0.4c-2.08-1.84-4.03-3.84-6.23-5.55c-0.29-0.29-0.59-0.58-0.88-0.87
				c0-0.24-0.24-0.59,0.26-0.63c0,0,0.01,0.01,0.01,0.01C111.29,57.35,113.71,59.57,116.13,61.78z"/>
			<path class="st31" d="M115.08,62.41c0.09,0.27,0.13,0.53,0,0.79c-0.06,0.09-0.15,0.12-0.25,0.09c-1.62-1.55-3.46-2.86-4.85-4.66
				c-0.5-0.35-1-0.71-1.37-1.21c0-0.24-0.25-0.59,0.25-0.62c0.01,0.24,0.23,0.23,0.38,0.3C111.13,58.93,113.07,60.71,115.08,62.41z"
				/>
			<path class="st30" d="M110.3,60.55c-0.54-0.49-1.08-0.98-1.62-1.48c-0.22-0.26-0.18-0.52-0.02-0.78c0.26,0.2,0.51,0.4,0.77,0.61
				c0.84,0.29,1.39,1,2,1.56c1.1,1.02,2.28,1.97,3.33,3.05c0.18,0.18,0.32,0.38,0.4,0.62c0.03,0.31-0.11,0.48-0.41,0.51
				c-0.1,0-0.2-0.02-0.3-0.05c-0.51-0.37-1.01-0.75-1.44-1.22c-0.49-0.76-1.29-1.19-1.91-1.8C110.8,61.27,110.46,60.99,110.3,60.55z
				"/>
			<path class="st36" d="M114.66,63.67c-1.74-1.59-3.48-3.18-5.22-4.77c0.18-0.09,0.36-0.18,0.54-0.27
				c1.69,1.45,3.36,2.93,4.93,4.51C115.04,63.42,114.89,63.56,114.66,63.67z"/>
			<path class="st1" d="M114.47,64.46c0.07,0.02,0.14,0.05,0.21,0.07c0.19,0.12,0.45-0.05,0.61,0.16c0,0.22,0.04,0.46-0.19,0.61
				c-1.36-0.25-2.74-0.07-4.11-0.11c-2.03-0.05-4.05-0.05-6.08-0.07c0.14-0.22,0.28-0.45,0.43-0.67c0,0.06-0.01,0.11-0.04,0.16
				c-0.02,0.05-0.01,0.04,0.04-0.04c1.24,0.08,2.49,0.42,3.73,0.11c0.7-0.18,1.38,0.53,2.07,0.01c0.41-0.32,0.84-0.57,1.39-0.53
				c0.13,0.03,0.25,0.09,0.37,0.15c0.24,0.12,0.5,0.15,0.75,0.22C113.94,64.65,114.21,64.55,114.47,64.46z"/>
			<path class="st33" d="M112.8,64.51c-0.08-0.08-0.17-0.15-0.25-0.23c-1.22-0.75-2.25-1.69-3.08-2.85
				c-0.25-0.24-0.5-0.47-0.75-0.71c-0.25-0.3-0.37-0.58,0.12-0.76c0.3,0.39,0.66,0.72,1.07,0.98c0.79,0.24,1.27,0.87,1.82,1.41
				c0.36,0.35,0.72,0.71,1.15,0.99c0.27,0.35,0.78,0.53,0.79,1.07C113.41,64.7,113.11,64.59,112.8,64.51z"/>
			<path class="st69" d="M109.47,61.43c1.1,0.87,2.17,1.77,3.08,2.85c-0.48,0.09-0.86,0.55-1.41,0.42
				c-0.01-0.06-0.01-0.13-0.01-0.19c0.29-0.52-0.29-0.59-0.46-0.87c-0.43-0.71-1.51-0.85-1.63-1.85
				C109.19,61.67,109.33,61.55,109.47,61.43z"/>
			<path class="st36" d="M112.7,63.48c-0.93-0.84-1.86-1.69-2.78-2.53c0.13-0.13,0.26-0.26,0.39-0.39c1,0.85,2.05,1.65,2.88,2.69
				C113.1,63.48,112.94,63.56,112.7,63.48z"/>
			<path class="st32" d="M109.05,61.79c0.91,0.86,1.82,1.71,2.74,2.57c-0.2,0.28-0.45,0.11-0.66,0.15
				c-0.84-0.77-1.67-1.54-2.51-2.31c0.01-0.23-0.33-0.58,0.22-0.6C108.86,61.73,108.92,61.79,109.05,61.79z"/>
			<path class="st33" d="M105.34,64.59c-0.02-0.04-0.03-0.08-0.01-0.13c0.06-0.08,0.13-0.16,0.19-0.23
				c0.23-0.46,0.57-0.81,1.06-0.98c0.78-0.07,0.28,0.52,0.38,0.79c0.1,0.29-0.03,0.51-0.42,0.5
				C106.15,64.53,105.74,64.57,105.34,64.59z"/>
			<path class="st70" d="M108.71,63.16c0.5,0.45,0.9,0.82,1.32,1.19C108.62,64.78,108.5,64.69,108.71,63.16z"/>
			<path class="st52" d="M106.59,63.24c-0.29,0.4-0.65,0.72-1.06,0.98c-0.14-0.13-0.29-0.25-0.43-0.38
				c0.36-0.32,0.71-0.65,1.07-0.97C106.31,63,106.45,63.12,106.59,63.24z"/>
			<path class="st36" d="M107.01,60.33c-0.03-0.24-0.01-0.55-0.41-0.32c0-0.21-0.03-0.46,0.3-0.31
				C107.24,59.84,107.27,60.07,107.01,60.33z"/>
			<path class="st69" d="M108.84,59.96c-0.43,0.19-0.2,0.49-0.12,0.76c-0.41-0.22-0.33-0.56-0.18-0.87
				C108.61,59.72,108.77,59.82,108.84,59.96z"/>
			<path class="st69" d="M108.85,61.6c-0.43,0.07-0.17,0.39-0.22,0.6c-0.22-0.22-0.26-0.47-0.08-0.71
				C108.64,61.38,108.78,61.47,108.85,61.6z"/>
			<path class="st36" d="M108.86,56.8c-0.46,0.06-0.15,0.42-0.25,0.62c-0.21-0.22-0.23-0.47-0.06-0.71
				C108.63,56.6,108.78,56.68,108.86,56.8z"/>
			<path class="st36" d="M108.66,58.29c-0.08,0.26-0.07,0.52,0.02,0.78c-0.34-0.22-0.28-0.52-0.18-0.83c0-0.01,0.06-0.02,0.08-0.01
				C108.62,58.24,108.64,58.27,108.66,58.29z"/>
			<path class="st10" d="M108.86,55.13c-0.44,0.06-0.17,0.42-0.26,0.63c-0.2-0.22-0.23-0.47-0.06-0.7
				C108.63,54.94,108.77,55.02,108.86,55.13z"/>
			<path class="st23" d="M27.91,56.58c0,1.55,0.01,3.1-0.01,4.66c0,0.33,0.11,0.7-0.2,0.97c-0.21-1.77-0.05-3.54-0.09-5.31
				C27.61,56.7,27.69,56.57,27.91,56.58z"/>
			<path class="st30" d="M71.13,63c-0.9-1.69-1.15-3.57-1.65-5.42c1.04,0.45,1.06,0.45,1.24,1.48c0.23,1.36,0.86,2.59,1.19,3.92
				C71.65,63.27,71.39,63.23,71.13,63z"/>
			<path class="st29" d="M72.99,63.01c-1.03-1.22-1.28-2.73-1.68-4.25c1.01,0.2,1.48,0.73,1.67,1.65c0.13,0.66,0.44,1.29,0.68,1.93
				c0.1,0.25,0.31,0.5-0.08,0.68C73.37,63.2,73.18,63.2,72.99,63.01z"/>
			<path class="st31" d="M74.36,62.41c-0.24-0.65-0.48-1.29-0.71-1.94c-0.05-0.15-0.11-0.38-0.04-0.47c0.15-0.19,0.38-0.07,0.57,0
				c0.32,0.12,0.63,0.23,0.75,0.63c0.24,0.74,0.53,1.47,0.81,2.26c-0.34,0.04-0.63,0.08-0.93,0.12
				C74.5,62.94,74.32,62.76,74.36,62.41z"/>
			<path class="st1" d="M74.36,62.41c0.15,0.2,0.31,0.4,0.46,0.6c0.63,0.41,1.27,0.28,1.9,0c0.26,0,0.53,0.01,0.79,0.01
				c0.06,0.2,0.15,0.42-0.21,0.42c-1.9,0-3.8,0-5.7-0.02c-0.18,0-0.61,0.06-0.48-0.41c0.26-0.01,0.51-0.01,0.77-0.02
				c0.36,0.47,0.73,0.17,1.09,0.02c0.19,0,0.39,0,0.58,0.01c0.18,0.16,0.42,0.49,0.46-0.06C74.06,62.69,74.16,62.54,74.36,62.41z"/>
			<path class="st21" d="M78.78,66.15c-0.37-0.76-0.37-1.53,0-2.29C78.89,64.62,78.89,65.38,78.78,66.15z"/>
			<path class="st23" d="M137.76,60.31c-1.17-1.27-1.23-1.78-0.27-3.34c0.25-0.41,0.04-0.52-0.22-0.72c-0.89-0.7-1.05-1.4-0.49-2.07
				c0.6-0.73,1.7-0.77,2.45-0.01c0.31,0.33,0.56,0.4,0.98,0.29c0.98-0.24,1.79,0.06,2.28,0.95c0.5,0.9,0.19,1.66-0.59,2.26
				c-0.21,0.16-0.31,0.35-0.27,0.62c0.11,0.89-0.4,1.49-0.98,2.05C139.67,60.82,138.71,60.79,137.76,60.31z"/>
			<path class="st24" d="M134.1,64.76c0-0.34,0.01-0.69,0-1.03c-0.02-0.53-0.08-0.97,0.76-0.95c0.78,0.02,0.81,0.36,0.79,0.94
				c-0.03,0.83-0.05,1.66,0.01,2.48c0.04,0.67-0.36,0.6-0.78,0.6c-0.41,0-0.85,0.1-0.78-0.59C134.14,65.73,134.1,65.24,134.1,64.76z
				"/>
			<path class="st14" d="M133.53,62.39c0.12-0.47,0.66-0.04,0.84-0.4c0.14,0,0.28,0.01,0.42,0.01
				C134.51,62.59,133.98,62.37,133.53,62.39z"/>
			<path class="st31" d="M40.58,57.02c0.16-0.07,0.2-0.21,0.22-0.36c0.87-0.3,1.76-0.09,2.65-0.12c0.49-0.02,0.53,0.43,0.77,0.88
				c-1.2,0-2.27,0-3.35,0C40.56,57.42,40.56,57.23,40.58,57.02z"/>
			<path class="st71" d="M41.41,55.58c0.3-0.45,0.6-0.89,0.96-1.42c0.31,0.52,0.59,1.01,0.95,1.61
				C42.61,55.77,41.99,56.1,41.41,55.58C41.42,55.57,41.41,55.58,41.41,55.58z"/>
			<path class="st15" d="M98.67,51.35c-0.65,0-1.31,0.01-1.96,0c-0.24,0-0.52-0.03-0.53-0.35c-0.02-0.33,0.27-0.37,0.51-0.37
				c1.34-0.01,2.68-0.01,4.02,0c0.24,0,0.52,0.03,0.53,0.35c0.02,0.33-0.26,0.37-0.5,0.37C100.05,51.36,99.36,51.35,98.67,51.35z"/>
			<path class="st72" d="M98.72,59.88c-0.69,0-1.38,0.01-2.06,0c-0.25,0-0.51-0.06-0.48-0.4c0.02-0.26,0.26-0.31,0.46-0.31
				c1.38-0.01,2.75-0.01,4.13-0.01c0.25,0,0.51,0.08,0.47,0.4c-0.04,0.3-0.31,0.32-0.56,0.32C100.03,59.89,99.37,59.89,98.72,59.88
				C98.72,59.88,98.72,59.88,98.72,59.88z"/>
			<path class="st2" d="M98.7,61.33c0.69,0,1.38,0,2.07,0c0.21,0,0.45,0.03,0.45,0.3c0,0.25-0.2,0.34-0.43,0.34
				c-1.38,0-2.76,0-4.14,0c-0.22,0-0.45-0.07-0.45-0.32c0-0.34,0.3-0.32,0.53-0.32C97.39,61.33,98.04,61.33,98.7,61.33z"/>
			<path class="st52" d="M98.78,52.8c0.69,0,1.37,0,2.06,0c0.17,0,0.36,0.04,0.38,0.26c0.02,0.25-0.14,0.39-0.36,0.39
				c-1.44,0.01-2.88,0-4.33,0c-0.19,0-0.33-0.13-0.34-0.32c-0.01-0.28,0.22-0.33,0.43-0.33C97.34,52.8,98.06,52.8,98.78,52.8z"/>
			<path class="st1" d="M98.67,55.57c-0.69,0-1.38,0-2.07,0c-0.22,0-0.42-0.08-0.4-0.35c0.02-0.2,0.19-0.28,0.37-0.28
				c1.42-0.01,2.83-0.01,4.25,0c0.22,0,0.43,0.09,0.4,0.35c-0.03,0.26-0.26,0.28-0.48,0.28C100.05,55.57,99.36,55.57,98.67,55.57z"
				/>
			<path class="st14" d="M98.67,49.17c-0.65,0-1.31,0.01-1.96,0c-0.23,0-0.54,0.01-0.53-0.33c0.01-0.3,0.29-0.33,0.54-0.33
				c1.34,0,2.68,0,4.02,0c0.26,0,0.5,0.08,0.46,0.4c-0.03,0.27-0.28,0.26-0.48,0.26C100.05,49.18,99.36,49.17,98.67,49.17z"/>
			<path class="st73" d="M98.65,57.71c-0.69,0-1.38,0.01-2.06-0.01c-0.21,0-0.43-0.07-0.39-0.35c0.02-0.19,0.18-0.3,0.36-0.3
				c1.44-0.01,2.89,0,4.33,0c0.2,0,0.33,0.14,0.35,0.32c0.02,0.27-0.2,0.33-0.42,0.34C100.09,57.71,99.37,57.71,98.65,57.71z"/>
			<path class="st12" d="M96.02,61c0.02-0.34-0.23-0.69,0.16-0.93c0.16-0.1,0.42,0.22,0.29,0.26C96.13,60.44,96.3,60.82,96.02,61z"
				/>
			<path class="st74" d="M131.66,65.42c-0.05,0.32,0.11,0.83-0.39,0.79c-0.54-0.04-0.33-0.57-0.35-0.91
				c-0.02-0.32-0.11-0.82,0.37-0.78C131.83,64.55,131.58,65.09,131.66,65.42z"/>
			<path class="st74" d="M123,65.39c0.05-0.36-0.11-0.87,0.35-0.88c0.57-0.02,0.38,0.53,0.4,0.86c0.01,0.32,0.14,0.81-0.33,0.83
				C122.83,66.24,123.1,65.67,123,65.39z"/>
			<path class="st75" d="M121.51,65.37c-0.07,0.31,0.18,0.86-0.41,0.83c-0.48-0.02-0.33-0.53-0.32-0.84
				c0.01-0.34-0.17-0.89,0.41-0.86C121.64,64.53,121.46,65.04,121.51,65.37z"/>
			<path class="st76" d="M129.41,65.33c-0.09,0.34,0.18,0.9-0.41,0.88c-0.48-0.01-0.34-0.51-0.33-0.83
				c0.02-0.33-0.19-0.89,0.39-0.87C129.53,64.53,129.33,65.04,129.41,65.33z"/>
			<path class="st74" d="M125.27,65.33c0.05-0.32-0.13-0.83,0.36-0.82c0.55,0.02,0.36,0.56,0.37,0.9c0.01,0.31,0.15,0.81-0.35,0.8
				C125.06,66.19,125.36,65.64,125.27,65.33z"/>
			<path class="st77" d="M128.28,65.32c-0.09,0.33,0.18,0.88-0.37,0.92c-0.5,0.04-0.41-0.47-0.38-0.78c0.03-0.36-0.25-0.96,0.4-0.96
				C128.42,64.49,128.2,65.02,128.28,65.32z"/>
			<path class="st50" d="M122.6,65.37c-0.05,0.32,0.14,0.83-0.33,0.84c-0.48,0.01-0.35-0.5-0.33-0.81c0.02-0.32-0.22-0.89,0.36-0.87
				C122.76,64.55,122.53,65.07,122.6,65.37z"/>
			<path class="st73" d="M124.17,65.33c0.07-0.31-0.14-0.84,0.35-0.81c0.52,0.04,0.3,0.59,0.32,0.93c0.01,0.28,0.13,0.75-0.28,0.75
				C123.97,66.2,124.26,65.64,124.17,65.33z"/>
			<path class="st78" d="M132.74,65.38c-0.04,0.34,0.11,0.81-0.3,0.81c-0.59,0-0.33-0.55-0.35-0.86c-0.02-0.3-0.16-0.83,0.32-0.8
				C132.95,64.56,132.63,65.13,132.74,65.38z"/>
			<path class="st78" d="M130.48,65.37c-0.05,0.33,0.14,0.84-0.34,0.83c-0.47-0.01-0.31-0.52-0.31-0.82c0-0.31-0.17-0.83,0.28-0.84
				C130.69,64.51,130.38,65.08,130.48,65.37z"/>
			<path class="st79" d="M119.24,65.35c-0.07,0.37,0.14,0.88-0.38,0.85c-0.49-0.03-0.3-0.53-0.3-0.84c0-0.3-0.19-0.83,0.29-0.84
				C119.45,64.51,119.11,65.1,119.24,65.35z"/>
			<path class="st73" d="M120.36,65.3c-0.13,0.34,0.21,0.91-0.4,0.9c-0.42-0.01-0.29-0.47-0.28-0.75c0.02-0.34-0.2-0.89,0.33-0.92
				C120.51,64.49,120.22,65.05,120.36,65.3z"/>
			<path class="st73" d="M127.13,65.35c-0.07,0.36,0.13,0.87-0.38,0.85c-0.5-0.03-0.3-0.53-0.3-0.83c0-0.3-0.18-0.83,0.29-0.84
				C127.33,64.52,127,65.1,127.13,65.35z"/>
			<path class="st9" d="M34.72,59.01c0,0.03,0,0.07,0,0.1c-0.05,2.14,0.41,1.85-1.94,1.89c-0.57,0.01-0.82-0.13-0.8-0.75
				c0.04-0.9,0-1.8,0.02-2.7c0.02-0.87,0.59-1.07,1.34-1.07c0.75,0,1.31,0.21,1.36,1.06C34.74,58.04,34.71,58.53,34.72,59.01
				C34.72,59.01,34.72,59.01,34.72,59.01z"/>
			<path class="st80" d="M37.81,58.31c-0.03,0.3,0.07,0.74-0.35,0.74c-0.49,0-0.39-0.47-0.39-0.79c0-0.32-0.09-0.81,0.38-0.79
				C37.91,57.5,37.77,58,37.81,58.31z"/>
			<path class="st23" d="M111.97,66.32c0.9,0,1.79,0,2.69,0c0.18,0,0.47-0.08,0.46,0.24c-0.01,0.31-0.29,0.22-0.48,0.22
				c-1.83,0.01-3.65,0.01-5.48,0c-0.19,0-0.48,0.08-0.5-0.19c-0.03-0.4,0.32-0.26,0.52-0.27C110.11,66.31,111.04,66.32,111.97,66.32
				z"/>
			<path class="st81" d="M37.92,50.99c-0.34,0.3-0.64,0.17-0.61-0.22c0.04-0.43-0.46-1.17,0.52-1.22
				C38.11,50.02,37.95,50.51,37.92,50.99z"/>
			<path class="st49" d="M37.92,50.99c0-0.48,0.08-0.96-0.09-1.43c0.09-0.01,0.19-0.03,0.28-0.04c0,0-0.01-0.01-0.01-0.01
				C38.01,49.99,38.28,50.53,37.92,50.99z"/>
			<path class="st1" d="M114.66,63.67c0.08-0.18,0.17-0.35,0.25-0.53c0.06,0,0.12,0.02,0.16,0.06c0.07,0.08,0.15,0.16,0.22,0.24
				c0,0.2-0.01,0.41-0.01,0.61c-0.06,0.11-0.13,0.12-0.21,0.02C114.87,64.01,114.74,63.87,114.66,63.67z"/>
			<path class="st36" d="M115.07,64.07c0.07-0.01,0.14-0.01,0.21-0.02c0,0.21,0,0.43,0.01,0.64c-0.22-0.01-0.45,0.05-0.61-0.16
				C114.98,64.53,115.26,64.5,115.07,64.07z"/>
			<path class="st80" d="M79.29,49.95c0.48,0.13,1.21-0.2,1.22,0.37c0.01,0.7-0.75,0.4-1.17,0.39c-0.46-0.01-1.3,0.31-1.28-0.36
				C78.07,49.66,78.93,50.18,79.29,49.95z"/>
			<path class="st82" d="M79.34,55.57c0.42,0.12,1.15-0.23,1.16,0.35c0.01,0.71-0.75,0.4-1.16,0.39c-0.46-0.01-1.3,0.31-1.28-0.37
				C78.07,55.29,78.92,55.74,79.34,55.57z"/>
			<path class="st83" d="M79.36,54.53c-0.48-0.21-1.31,0.27-1.31-0.46c0-0.58,0.8-0.31,1.24-0.31c0.43,0,1.2-0.29,1.21,0.33
				C80.52,54.8,79.71,54.28,79.36,54.53z"/>
			<path class="st76" d="M79.27,47.01c-0.42-0.15-1.2,0.25-1.21-0.38c-0.02-0.64,0.76-0.38,1.18-0.35c0.45,0.03,1.26-0.36,1.27,0.36
				C80.5,47.26,79.7,46.85,79.27,47.01z"/>
			<path class="st82" d="M79.33,48.07c0.45,0.16,1.16-0.22,1.17,0.4c0.01,0.63-0.71,0.39-1.09,0.36c-0.48-0.04-1.36,0.38-1.36-0.39
				C78.06,47.81,78.94,48.31,79.33,48.07z"/>
			<path class="st82" d="M79.28,52.62c-0.44-0.15-1.23,0.24-1.23-0.36c0-0.73,0.8-0.35,1.24-0.38c0.42-0.02,1.21-0.28,1.21,0.31
				C80.51,52.92,79.69,52.44,79.28,52.62z"/>
			<path class="st80" d="M79.32,42.47c0.4,0.18,1.19-0.25,1.17,0.42c-0.02,0.61-0.79,0.33-1.22,0.34c-0.43,0.01-1.23,0.25-1.22-0.33
				C78.07,42.17,78.89,42.67,79.32,42.47z"/>
			<path class="st83" d="M79.2,45.14c-0.4-0.18-1.17,0.27-1.15-0.45c0.01-0.54,0.75-0.32,1.15-0.3c0.46,0.03,1.3-0.32,1.3,0.34
				C80.5,45.41,79.65,44.97,79.2,45.14z"/>
			<ellipse class="st19" cx="79.49" cy="44.04" rx="1.02" ry="0.07"/>
			<path class="st28" d="M91.64,46.66c-0.41,0.28-0.73,0.2-1.04-0.43c0.41,0.31,0.92-0.4,1.06,0.41L91.64,46.66z"/>
			<path class="st35" d="M90.17,46.85c0.39,0.41,0.6,0.8-0.25,1.04C90.01,47.51,89.65,47.1,90.17,46.85L90.17,46.85z"/>
			<path class="st84" d="M21.13,55.19c0.34,0.02,0.69,0,0.71,0.36c0.02,0.37-0.31,0.39-0.59,0.4c-0.28,0-0.61,0.02-0.64-0.35
				C20.58,55.2,20.95,55.26,21.13,55.19z"/>
			<path class="st85" d="M21.82,57.34c-0.3-0.03-0.65-0.02-0.59-0.4c0.05-0.34,0.38-0.32,0.65-0.31c0.27,0.01,0.61,0.03,0.57,0.39
				C22.4,57.37,22.05,57.31,21.82,57.34z"/>
			<path class="st81" d="M25.41,62.22c0.43,0,0.77,0,0.77,0.36c0,0.38-0.37,0.33-0.64,0.33c-0.23,0-0.54,0.04-0.57-0.29
				C24.95,62.22,25.27,62.22,25.41,62.22z"/>
			<path class="st65" d="M22.35,58.72c-0.2-0.02-0.56,0.05-0.51-0.37c0.03-0.31,0.33-0.29,0.57-0.3c0.29-0.01,0.64,0,0.65,0.34
				C23.06,58.74,22.69,58.73,22.35,58.72z"/>
			<path class="st86" d="M22.64,59.8c0.14-0.41,0.49-0.29,0.78-0.3c0.23-0.01,0.48,0.1,0.46,0.31c-0.04,0.43-0.43,0.34-0.73,0.35
				C22.9,60.16,22.67,60.12,22.64,59.8z"/>
			<path class="st87" d="M24.24,61.41c-0.31,0.02-0.61-0.04-0.58-0.33c0.05-0.42,0.44-0.33,0.74-0.34c0.27,0,0.51,0.08,0.46,0.39
				C24.79,61.53,24.44,61.38,24.24,61.41z"/>
			<path class="st88" d="M29.21,61.25c-0.17,0.43,0.27,1.23-0.37,1.22c-0.57-0.01-0.29-0.81-0.28-1.25c0-0.43-0.28-1.25,0.27-1.24
				C29.5,59.99,29.02,60.82,29.21,61.25z"/>
			<path class="st10" d="M29.19,58.29c-0.04,0.32,0.09,0.78-0.33,0.76c-0.48-0.02-0.31-0.51-0.32-0.82
				c-0.02-0.29-0.06-0.75,0.32-0.73C29.32,57.53,29.13,58.03,29.19,58.29z"/>
			<path class="st8" d="M28.77,49.76c0.19,0,0.37,0,0.56,0c0,0.41,0,0.81,0,1.22c-0.2,0.08-0.4,0.47-0.62,0.02
				C28.73,50.59,28.75,50.17,28.77,49.76z"/>
			<path class="st6" d="M112.7,63.48c0.16-0.08,0.33-0.16,0.49-0.24c0.34,0.49,1.12,0.53,1.28,1.22c-0.12,0.6-0.47,0.49-0.85,0.26
				c0-0.15,0.16-0.3-0.02-0.44C113.23,64.09,112.95,63.8,112.7,63.48z"/>
			<path class="st36" d="M113.6,64.29c0.28,0.13,0.22,0.28,0.02,0.44c-0.27-0.06-0.6,0.07-0.81-0.21
				C113.06,64.4,113.45,64.77,113.6,64.29z"/>
			<path class="st28" d="M32.65,58.78c0-0.34,0.01-0.68,0-1.03c-0.02-0.45,0.22-0.59,0.63-0.58c0.41,0.01,0.77,0.02,0.77,0.56
				c0,0.72-0.01,1.44,0,2.15c0.01,0.56-0.38,0.46-0.71,0.45c-0.31-0.01-0.73,0.15-0.7-0.44C32.67,59.53,32.65,59.15,32.65,58.78z"/>
		</g>
	</g>
</g>
</svg>
