<?xml version="1.0" encoding="utf-8"?>
<!-- Generator: Adobe Illustrator 24.3.0, SVG Export Plug-In . SVG Version: 6.00 Build 0)  -->
<svg version="1.1" xmlns="http://www.w3.org/2000/svg" xmlns:xlink="http://www.w3.org/1999/xlink" x="0px" y="0px"
	 viewBox="0 0 128 90" style="enable-background:new 0 0 128 90;" xml:space="preserve">
<style type="text/css">
	.st0{clip-path:url(#SVGID_2_);}
	.st1{fill:none;stroke:#000000;stroke-width:0.1574;stroke-miterlimit:10;}
	.st2{fill:none;stroke:#000000;stroke-width:0.1381;stroke-miterlimit:10;}
	.st3{fill:#FFFFFF;stroke:#000000;stroke-width:0.1381;stroke-miterlimit:10;}
</style>
<g id="Layer_2">
</g>
<g id="Layer_1">
	<g>
		<defs>
			<rect id="SVGID_1_" x="3.59" y="20.54" width="120.81" height="48.38"/>
		</defs>
		<clipPath id="SVGID_2_">
			<use xlink:href="#SVGID_1_"  style="overflow:visible;"/>
		</clipPath>
		<g class="st0">
			<polygon class="st1" points="131.15,68.91 -0.59,68.91 0.97,65.28 129.2,65.28 			"/>
			<rect x="0.97" y="61.65" class="st1" width="128.23" height="3.63"/>
		</g>
		<g class="st0">
			<g>
				<polygon class="st2" points="72.07,42.45 72.07,39.51 69.95,39.51 69.95,40.57 63.55,40.57 60.17,40.57 53.78,40.57 
					53.78,39.51 51.65,39.51 51.65,42.45 44.27,42.45 44.27,61.25 51.65,61.25 52.59,61.25 52.88,61.25 53.78,61.25 60.17,61.25 
					63.55,61.25 69.95,61.25 70.84,61.25 71.14,61.25 72.07,61.25 79.46,61.25 79.46,42.45 				"/>
				<polygon class="st2" points="62.75,40.57 60.17,40.57 53.78,40.57 53.78,39.51 51.65,39.51 51.65,42.45 44.27,42.45 
					44.27,61.25 51.65,61.25 52.59,61.25 52.88,61.25 53.78,61.25 60.17,61.25 62.75,61.25 				"/>
				<g>
					<g>
						<g>
							<rect x="53.82" y="54.07" class="st2" width="0.54" height="0.73"/>
							<rect x="54.63" y="54.07" class="st2" width="0.54" height="0.73"/>
							<rect x="53.82" y="55.42" class="st2" width="0.54" height="0.73"/>
							<rect x="54.63" y="55.42" class="st2" width="0.54" height="0.73"/>
							<rect x="53.82" y="56.77" class="st2" width="0.54" height="0.73"/>
							<rect x="54.63" y="56.77" class="st2" width="0.54" height="0.73"/>
						</g>
						<g>
							<rect x="56.76" y="54.07" class="st2" width="0.54" height="0.73"/>
							<rect x="57.58" y="54.07" class="st2" width="0.54" height="0.73"/>
							<rect x="56.76" y="55.42" class="st2" width="0.54" height="0.73"/>
							<rect x="57.58" y="55.42" class="st2" width="0.54" height="0.73"/>
							<rect x="56.76" y="56.77" class="st2" width="0.54" height="0.73"/>
							<rect x="57.58" y="56.77" class="st2" width="0.54" height="0.73"/>
						</g>
						<g>
							<rect x="59.71" y="54.07" class="st2" width="0.54" height="0.73"/>
							<rect x="60.53" y="54.07" class="st2" width="0.54" height="0.73"/>
							<rect x="59.71" y="55.42" class="st2" width="0.54" height="0.73"/>
							<rect x="60.53" y="55.42" class="st2" width="0.54" height="0.73"/>
							<rect x="59.71" y="56.77" class="st2" width="0.54" height="0.73"/>
							<rect x="60.53" y="56.77" class="st2" width="0.54" height="0.73"/>
						</g>
						<g>
							<rect x="62.66" y="54.07" class="st2" width="0.54" height="0.73"/>
							<rect x="63.48" y="54.07" class="st2" width="0.54" height="0.73"/>
							<rect x="62.66" y="55.42" class="st2" width="0.54" height="0.73"/>
							<rect x="63.48" y="55.42" class="st2" width="0.54" height="0.73"/>
							<rect x="62.66" y="56.77" class="st2" width="0.54" height="0.73"/>
							<rect x="63.48" y="56.77" class="st2" width="0.54" height="0.73"/>
						</g>
						<g>
							<rect x="65.6" y="54.07" class="st2" width="0.54" height="0.73"/>
							<rect x="66.42" y="54.07" class="st2" width="0.54" height="0.73"/>
							<rect x="65.6" y="55.42" class="st2" width="0.54" height="0.73"/>
							<rect x="66.42" y="55.42" class="st2" width="0.54" height="0.73"/>
							<rect x="65.6" y="56.77" class="st2" width="0.54" height="0.73"/>
							<rect x="66.42" y="56.77" class="st2" width="0.54" height="0.73"/>
						</g>
						<g>
							<rect x="68.55" y="54.07" class="st2" width="0.54" height="0.73"/>
							<rect x="69.37" y="54.07" class="st2" width="0.54" height="0.73"/>
							<rect x="68.55" y="55.42" class="st2" width="0.54" height="0.73"/>
							<rect x="69.37" y="55.42" class="st2" width="0.54" height="0.73"/>
							<rect x="68.55" y="56.77" class="st2" width="0.54" height="0.73"/>
							<rect x="69.37" y="56.77" class="st2" width="0.54" height="0.73"/>
						</g>
					</g>
					<g>
						<rect x="55.26" y="42.63" class="st2" width="0.54" height="0.73"/>
						<rect x="56.41" y="42.63" class="st2" width="0.54" height="0.73"/>
						<rect x="57.56" y="42.63" class="st2" width="0.54" height="0.73"/>
						<rect x="58.72" y="42.63" class="st2" width="0.54" height="0.73"/>
						<g>
							<rect x="55.26" y="44.31" class="st2" width="0.54" height="0.73"/>
							<rect x="56.41" y="44.31" class="st2" width="0.54" height="0.73"/>
							<rect x="57.56" y="44.31" class="st2" width="0.54" height="0.73"/>
							<rect x="58.72" y="44.31" class="st2" width="0.54" height="0.73"/>
							<rect x="55.26" y="45.48" class="st2" width="0.54" height="0.73"/>
							<rect x="56.41" y="45.48" class="st2" width="0.54" height="0.73"/>
							<rect x="57.56" y="45.48" class="st2" width="0.54" height="0.73"/>
							<rect x="58.72" y="45.48" class="st2" width="0.54" height="0.73"/>
							<rect x="55.26" y="46.65" class="st2" width="0.54" height="0.73"/>
							<rect x="56.41" y="46.65" class="st2" width="0.54" height="0.73"/>
							<rect x="57.56" y="46.65" class="st2" width="0.54" height="0.73"/>
							<rect x="58.72" y="46.65" class="st2" width="0.54" height="0.73"/>
							<rect x="55.26" y="47.82" class="st2" width="0.54" height="0.73"/>
							<rect x="56.41" y="47.82" class="st2" width="0.54" height="0.73"/>
							<rect x="57.56" y="47.82" class="st2" width="0.54" height="0.73"/>
							<rect x="58.72" y="47.82" class="st2" width="0.54" height="0.73"/>
							<rect x="55.26" y="48.98" class="st2" width="0.54" height="0.73"/>
							<rect x="56.41" y="48.98" class="st2" width="0.54" height="0.73"/>
							<rect x="57.56" y="48.98" class="st2" width="0.54" height="0.73"/>
							<rect x="58.72" y="48.98" class="st2" width="0.54" height="0.73"/>
							<rect x="55.26" y="50.15" class="st2" width="0.54" height="0.73"/>
							<rect x="56.41" y="50.15" class="st2" width="0.54" height="0.73"/>
							<rect x="57.56" y="50.15" class="st2" width="0.54" height="0.73"/>
							<rect x="58.72" y="50.15" class="st2" width="0.54" height="0.73"/>
						</g>
						<g>
							<rect x="64.47" y="44.31" class="st2" width="0.54" height="0.73"/>
							<rect x="65.62" y="44.31" class="st2" width="0.54" height="0.73"/>
							<rect x="66.77" y="44.31" class="st2" width="0.54" height="0.73"/>
							<rect x="67.92" y="44.31" class="st2" width="0.54" height="0.73"/>
							<rect x="64.47" y="45.48" class="st2" width="0.54" height="0.73"/>
							<rect x="65.62" y="45.48" class="st2" width="0.54" height="0.73"/>
							<rect x="66.77" y="45.48" class="st2" width="0.54" height="0.73"/>
							<rect x="67.92" y="45.48" class="st2" width="0.54" height="0.73"/>
							<rect x="64.47" y="46.65" class="st2" width="0.54" height="0.73"/>
							<rect x="65.62" y="46.65" class="st2" width="0.54" height="0.73"/>
							<rect x="66.77" y="46.65" class="st2" width="0.54" height="0.73"/>
							<rect x="67.92" y="46.65" class="st2" width="0.54" height="0.73"/>
							<rect x="64.47" y="47.82" class="st2" width="0.54" height="0.73"/>
							<rect x="65.62" y="47.82" class="st2" width="0.54" height="0.73"/>
							<rect x="66.77" y="47.82" class="st2" width="0.54" height="0.73"/>
							<rect x="67.92" y="47.82" class="st2" width="0.54" height="0.73"/>
							<rect x="64.47" y="48.98" class="st2" width="0.54" height="0.73"/>
							<rect x="65.62" y="48.98" class="st2" width="0.54" height="0.73"/>
							<rect x="66.77" y="48.98" class="st2" width="0.54" height="0.73"/>
							<rect x="67.92" y="48.98" class="st2" width="0.54" height="0.73"/>
							<rect x="64.47" y="50.15" class="st2" width="0.54" height="0.73"/>
							<rect x="65.62" y="50.15" class="st2" width="0.54" height="0.73"/>
							<rect x="66.77" y="50.15" class="st2" width="0.54" height="0.73"/>
							<rect x="67.92" y="50.15" class="st2" width="0.54" height="0.73"/>
						</g>
						<path class="st2" d="M60.14,41.76c-0.25,0-0.46,0.2-0.46,0.46v1.33h0.91v-1.33C60.59,41.96,60.39,41.76,60.14,41.76z
							 M60.4,43.36h-0.54v-0.73h0.54V43.36z"/>
						<path class="st2" d="M61.29,41.76L61.29,41.76c-0.25,0-0.46,0.2-0.46,0.46v1.33h0.91v-1.33
							C61.74,41.96,61.54,41.76,61.29,41.76z M61.56,43.36h-0.54v-0.73h0.54V43.36z"/>
						<path class="st2" d="M62.44,41.76c-0.25,0-0.46,0.2-0.46,0.46v1.33h0.91v-1.33C62.89,41.96,62.69,41.76,62.44,41.76z
							 M62.71,43.36h-0.54v-0.73h0.54V43.36z"/>
						<path class="st2" d="M63.59,41.76c-0.25,0-0.46,0.2-0.46,0.46v1.33h0.91v-1.33C64.04,41.96,63.84,41.76,63.59,41.76z
							 M63.86,43.36h-0.54v-0.73h0.54V43.36z"/>
						<rect x="64.47" y="42.63" class="st2" width="0.54" height="0.73"/>
						<rect x="65.62" y="42.63" class="st2" width="0.54" height="0.73"/>
						<rect x="66.77" y="42.63" class="st2" width="0.54" height="0.73"/>
						<rect x="67.92" y="42.63" class="st2" width="0.54" height="0.73"/>
						<path class="st2" d="M60.18,44.31L60.18,44.31c-0.07,0-0.14,0.02-0.19,0.06c-0.07,0.06-0.12,0.15-0.12,0.25v0.41h0.62v-0.41
							c0-0.07-0.02-0.13-0.06-0.18C60.37,44.36,60.28,44.31,60.18,44.31z"/>
						<path class="st2" d="M61.29,44.32L61.29,44.32c-0.07,0-0.14,0.02-0.19,0.06c-0.07,0.06-0.12,0.15-0.12,0.25v0.41h0.62v-0.41
							c0-0.07-0.02-0.13-0.06-0.18C61.48,44.37,61.39,44.32,61.29,44.32z"/>
						<path class="st2" d="M62.44,44.31L62.44,44.31c-0.07,0-0.14,0.02-0.19,0.06c-0.07,0.06-0.12,0.15-0.12,0.25v0.41h0.62v-0.41
							c0-0.07-0.02-0.13-0.06-0.18C62.63,44.36,62.54,44.31,62.44,44.31z"/>
						<path class="st2" d="M63.59,44.31L63.59,44.31c-0.07,0-0.14,0.02-0.19,0.06c-0.07,0.06-0.12,0.15-0.12,0.25v0.41h0.62v-0.41
							c0-0.07-0.02-0.13-0.06-0.18C63.78,44.36,63.69,44.31,63.59,44.31z"/>
						<path class="st2" d="M60.18,45.48L60.18,45.48c-0.07,0-0.14,0.02-0.19,0.06c-0.07,0.06-0.12,0.15-0.12,0.25v0.41h0.62v-0.41
							c0-0.07-0.02-0.13-0.06-0.18C60.37,45.53,60.28,45.48,60.18,45.48z"/>
						<path class="st2" d="M61.29,45.48L61.29,45.48c-0.07,0-0.14,0.02-0.19,0.06c-0.07,0.06-0.12,0.15-0.12,0.25v0.41h0.62v-0.41
							c0-0.07-0.02-0.13-0.06-0.18C61.48,45.53,61.39,45.48,61.29,45.48z"/>
						<path class="st2" d="M62.44,45.48L62.44,45.48c-0.07,0-0.14,0.02-0.19,0.06c-0.07,0.06-0.12,0.15-0.12,0.25v0.41h0.62v-0.41
							c0-0.07-0.02-0.13-0.06-0.18C62.63,45.53,62.54,45.48,62.44,45.48z"/>
						<path class="st2" d="M63.59,45.48L63.59,45.48c-0.07,0-0.14,0.02-0.19,0.06c-0.07,0.06-0.12,0.15-0.12,0.25v0.41h0.62v-0.41
							c0-0.07-0.02-0.13-0.06-0.18C63.78,45.53,63.69,45.48,63.59,45.48z"/>
						<path class="st2" d="M60.18,46.65L60.18,46.65c-0.07,0-0.14,0.02-0.19,0.06c-0.07,0.06-0.12,0.15-0.12,0.25v0.41h0.62v-0.41
							c0-0.07-0.02-0.13-0.06-0.18C60.37,46.7,60.28,46.65,60.18,46.65z"/>
						<path class="st2" d="M61.29,46.65L61.29,46.65c-0.07,0-0.14,0.02-0.19,0.06c-0.07,0.06-0.12,0.15-0.12,0.25v0.41h0.62v-0.41
							c0-0.07-0.02-0.13-0.06-0.18C61.48,46.7,61.39,46.65,61.29,46.65z"/>
						<path class="st2" d="M62.44,46.65L62.44,46.65c-0.07,0-0.14,0.02-0.19,0.06c-0.07,0.06-0.12,0.15-0.12,0.25v0.41h0.62v-0.41
							c0-0.07-0.02-0.13-0.06-0.18C62.63,46.7,62.54,46.65,62.44,46.65z"/>
						<path class="st2" d="M63.59,46.65L63.59,46.65c-0.07,0-0.14,0.02-0.19,0.06c-0.07,0.06-0.12,0.15-0.12,0.25v0.41h0.62v-0.41
							c0-0.07-0.02-0.13-0.06-0.18C63.78,46.7,63.69,46.65,63.59,46.65z"/>
						<path class="st2" d="M60.18,47.81L60.18,47.81c-0.07,0-0.14,0.02-0.19,0.06c-0.07,0.06-0.12,0.15-0.12,0.25v0.41h0.62v-0.41
							c0-0.07-0.02-0.13-0.06-0.18C60.37,47.86,60.28,47.81,60.18,47.81z"/>
						<path class="st2" d="M61.29,47.81L61.29,47.81c-0.07,0-0.14,0.02-0.19,0.06c-0.07,0.06-0.12,0.15-0.12,0.25v0.41h0.62v-0.41
							c0-0.07-0.02-0.13-0.06-0.18C61.48,47.87,61.39,47.81,61.29,47.81z"/>
						<path class="st2" d="M62.44,47.81L62.44,47.81c-0.07,0-0.14,0.02-0.19,0.06c-0.07,0.06-0.12,0.15-0.12,0.25v0.41h0.62v-0.41
							c0-0.07-0.02-0.13-0.06-0.18C62.63,47.86,62.54,47.81,62.44,47.81z"/>
						<path class="st2" d="M63.59,47.81L63.59,47.81c-0.07,0-0.14,0.02-0.19,0.06c-0.07,0.06-0.12,0.15-0.12,0.25v0.41h0.62v-0.41
							c0-0.07-0.02-0.13-0.06-0.18C63.78,47.86,63.69,47.81,63.59,47.81z"/>
						<path class="st2" d="M60.18,48.98L60.18,48.98c-0.07,0-0.14,0.02-0.19,0.06c-0.07,0.06-0.12,0.15-0.12,0.25v0.41h0.62v-0.41
							c0-0.07-0.02-0.13-0.06-0.18C60.37,49.03,60.28,48.98,60.18,48.98z"/>
						<path class="st2" d="M61.29,48.98L61.29,48.98c-0.07,0-0.14,0.02-0.19,0.06c-0.07,0.06-0.12,0.15-0.12,0.25v0.41h0.62v-0.41
							c0-0.07-0.02-0.13-0.06-0.18C61.48,49.03,61.39,48.98,61.29,48.98z"/>
						<path class="st2" d="M62.44,48.98L62.44,48.98c-0.07,0-0.14,0.02-0.19,0.06c-0.07,0.06-0.12,0.15-0.12,0.25v0.41h0.62v-0.41
							c0-0.07-0.02-0.13-0.06-0.18C62.63,49.03,62.54,48.98,62.44,48.98z"/>
						<path class="st2" d="M63.59,48.98L63.59,48.98c-0.07,0-0.14,0.02-0.19,0.06c-0.07,0.06-0.12,0.15-0.12,0.25v0.41h0.62v-0.41
							c0-0.07-0.02-0.13-0.06-0.18C63.78,49.03,63.69,48.98,63.59,48.98z"/>
						<path class="st2" d="M60.18,50.14L60.18,50.14c-0.07,0-0.14,0.02-0.19,0.06c-0.07,0.06-0.12,0.15-0.12,0.25v0.41h0.62v-0.41
							c0-0.07-0.02-0.13-0.06-0.18C60.37,50.2,60.28,50.14,60.18,50.14z"/>
						<path class="st2" d="M61.29,50.15L61.29,50.15c-0.07,0-0.14,0.02-0.19,0.06c-0.07,0.06-0.12,0.15-0.12,0.25v0.41h0.62v-0.41
							c0-0.07-0.02-0.13-0.06-0.18C61.48,50.2,61.39,50.15,61.29,50.15z"/>
						<path class="st2" d="M62.44,50.14L62.44,50.14c-0.07,0-0.14,0.02-0.19,0.06c-0.07,0.06-0.12,0.15-0.12,0.25v0.41h0.62v-0.41
							c0-0.07-0.02-0.13-0.06-0.18C62.63,50.2,62.54,50.14,62.44,50.14z"/>
						<path class="st2" d="M63.59,50.14L63.59,50.14c-0.07,0-0.14,0.02-0.19,0.06c-0.07,0.06-0.12,0.15-0.12,0.25v0.41h0.62v-0.41
							c0-0.07-0.02-0.13-0.06-0.18C63.78,50.2,63.69,50.14,63.59,50.14z"/>
					</g>
					<g>
						<g>
							<g>
								<rect x="45.31" y="47.37" class="st2" width="0.54" height="0.73"/>
								<rect x="46.77" y="47.37" class="st2" width="0.54" height="0.73"/>
								<rect x="48.24" y="47.37" class="st2" width="0.54" height="0.73"/>
								<rect x="45.31" y="48.62" class="st2" width="0.54" height="0.73"/>
								<rect x="46.77" y="48.62" class="st2" width="0.54" height="0.73"/>
								<rect x="48.24" y="48.62" class="st2" width="0.54" height="0.73"/>
								<rect x="45.31" y="49.86" class="st2" width="0.54" height="0.73"/>
								<rect x="46.77" y="49.86" class="st2" width="0.54" height="0.73"/>
								<rect x="48.24" y="49.86" class="st2" width="0.54" height="0.73"/>
								<rect x="45.31" y="51.11" class="st2" width="0.54" height="0.73"/>
								<rect x="46.77" y="51.11" class="st2" width="0.54" height="0.73"/>
								<rect x="48.24" y="51.11" class="st2" width="0.54" height="0.73"/>
								<rect x="45.31" y="52.35" class="st2" width="0.54" height="0.73"/>
								<rect x="46.77" y="52.35" class="st2" width="0.54" height="0.73"/>
								<rect x="48.24" y="52.35" class="st2" width="0.54" height="0.73"/>
								<rect x="45.31" y="53.6" class="st2" width="0.54" height="0.73"/>
								<rect x="46.77" y="53.6" class="st2" width="0.54" height="0.73"/>
								<rect x="48.24" y="53.6" class="st2" width="0.54" height="0.73"/>
								<rect x="45.31" y="54.84" class="st2" width="0.54" height="0.73"/>
								<rect x="46.77" y="54.84" class="st2" width="0.54" height="0.73"/>
								<rect x="48.24" y="54.84" class="st2" width="0.54" height="0.73"/>
								<rect x="45.31" y="56.09" class="st2" width="0.54" height="0.73"/>
								<rect x="46.77" y="56.09" class="st2" width="0.54" height="0.73"/>
								<rect x="48.24" y="56.09" class="st2" width="0.54" height="0.73"/>
							</g>
							<g>
								<path class="st2" d="M45.67,45.09c-0.2,0-0.36,0.16-0.36,0.36v1.06h0.73v-1.06C46.03,45.26,45.87,45.09,45.67,45.09z
									 M45.88,46.37h-0.43v-0.58h0.43V46.37z"/>
								<path class="st2" d="M46.59,45.09L46.59,45.09c-0.2,0-0.36,0.16-0.36,0.36v1.06h0.73v-1.06
									C46.95,45.26,46.79,45.09,46.59,45.09z M46.8,46.37h-0.43v-0.58h0.43V46.37z"/>
								<path class="st2" d="M47.5,45.09c-0.2,0-0.36,0.16-0.36,0.36v1.06h0.73v-1.06C47.86,45.26,47.7,45.09,47.5,45.09z
									 M47.72,46.37h-0.43v-0.58h0.43V46.37z"/>
								<path class="st2" d="M48.42,45.09c-0.2,0-0.36,0.16-0.36,0.36v1.06h0.73v-1.06C48.78,45.26,48.62,45.09,48.42,45.09z
									 M48.63,46.37H48.2v-0.58h0.43V46.37z"/>
							</g>
						</g>
						<g>
							<g>
								<rect x="74.94" y="47.37" class="st2" width="0.54" height="0.73"/>
								<rect x="76.41" y="47.37" class="st2" width="0.54" height="0.73"/>
								<rect x="77.87" y="47.37" class="st2" width="0.54" height="0.73"/>
								<rect x="74.94" y="48.62" class="st2" width="0.54" height="0.73"/>
								<rect x="76.41" y="48.62" class="st2" width="0.54" height="0.73"/>
								<rect x="77.87" y="48.62" class="st2" width="0.54" height="0.73"/>
								<rect x="74.94" y="49.86" class="st2" width="0.54" height="0.73"/>
								<rect x="76.41" y="49.86" class="st2" width="0.54" height="0.73"/>
								<rect x="77.87" y="49.86" class="st2" width="0.54" height="0.73"/>
								<rect x="74.94" y="51.11" class="st2" width="0.54" height="0.73"/>
								<rect x="76.41" y="51.11" class="st2" width="0.54" height="0.73"/>
								<rect x="77.87" y="51.11" class="st2" width="0.54" height="0.73"/>
								<rect x="74.94" y="52.35" class="st2" width="0.54" height="0.73"/>
								<rect x="76.41" y="52.35" class="st2" width="0.54" height="0.73"/>
								<rect x="77.87" y="52.35" class="st2" width="0.54" height="0.73"/>
								<rect x="74.94" y="53.6" class="st2" width="0.54" height="0.73"/>
								<rect x="76.41" y="53.6" class="st2" width="0.54" height="0.73"/>
								<rect x="77.87" y="53.6" class="st2" width="0.54" height="0.73"/>
								<rect x="74.94" y="54.84" class="st2" width="0.54" height="0.73"/>
								<rect x="76.41" y="54.84" class="st2" width="0.54" height="0.73"/>
								<rect x="77.87" y="54.84" class="st2" width="0.54" height="0.73"/>
								<rect x="74.94" y="56.09" class="st2" width="0.54" height="0.73"/>
								<rect x="76.41" y="56.09" class="st2" width="0.54" height="0.73"/>
								<rect x="77.87" y="56.09" class="st2" width="0.54" height="0.73"/>
							</g>
							<g>
								<path class="st2" d="M75.31,45.09c-0.2,0-0.36,0.16-0.36,0.36v1.06h0.73v-1.06C75.67,45.26,75.51,45.09,75.31,45.09z
									 M75.52,46.37h-0.43v-0.58h0.43V46.37z"/>
								<path class="st2" d="M76.22,45.09L76.22,45.09c-0.2,0-0.36,0.16-0.36,0.36v1.06h0.73v-1.06
									C76.58,45.26,76.42,45.09,76.22,45.09z M76.44,46.37h-0.43v-0.58h0.43V46.37z"/>
								<path class="st2" d="M77.14,45.09c-0.2,0-0.36,0.16-0.36,0.36v1.06h0.73v-1.06C77.5,45.26,77.34,45.09,77.14,45.09z
									 M77.35,46.37h-0.43v-0.58h0.43V46.37z"/>
								<path class="st2" d="M78.05,45.09c-0.2,0-0.36,0.16-0.36,0.36v1.06h0.73v-1.06C78.42,45.26,78.25,45.09,78.05,45.09z
									 M78.27,46.37h-0.43v-0.58h0.43V46.37z"/>
							</g>
						</g>
					</g>
					<g>
						<rect x="53.82" y="58.43" class="st2" width="1.36" height="2.82"/>
						<rect x="56.76" y="58.43" class="st2" width="1.36" height="2.82"/>
						<rect x="59.71" y="58.43" class="st2" width="1.36" height="2.82"/>
						<rect x="62.66" y="58.43" class="st2" width="1.36" height="2.82"/>
						<rect x="65.6" y="58.43" class="st2" width="1.36" height="2.82"/>
						<rect x="68.55" y="58.43" class="st2" width="1.36" height="2.82"/>
					</g>
				</g>
			</g>
			<g>
				<polygon class="st2" points="119.17,52.21 119.17,51.88 115.06,50.43 115.06,49.4 118.16,48 118.16,47.44 113.99,45.97 
					113.92,45.94 98.39,45.94 98.36,45.97 94.2,47.44 94.2,48 97.11,49.32 97.11,50.5 93.18,51.88 93.18,52.21 96.39,53.66 
					96.39,54.17 95.4,54.17 95.4,54.93 67.5,54.93 67.5,61.25 95.4,61.25 95.68,61.25 116.95,61.25 116.95,54.17 115.78,54.17 
					115.78,53.75 				"/>
				<polygon class="st2" points="106.18,45.94 98.39,45.94 98.36,45.97 94.2,47.44 94.2,48 97.11,49.32 97.11,50.5 93.18,51.88 
					93.18,52.21 96.39,53.66 96.39,54.17 95.4,54.17 95.4,54.93 67.5,54.93 67.5,61.25 95.4,61.25 95.68,61.25 106.18,61.25 				"/>
				<g>
					<path class="st2" d="M100.2,57.03h-0.72c-0.65,0-1.17,0.52-1.17,1.17v3.05h3.06V58.2C101.37,57.55,100.85,57.03,100.2,57.03z"
						/>
					<path class="st2" d="M106.54,57.03h-0.72c-0.65,0-1.17,0.52-1.17,1.17v3.05h3.06V58.2C107.71,57.55,107.18,57.03,106.54,57.03z
						"/>
					<path class="st2" d="M112.87,57.03h-0.72c-0.65,0-1.17,0.52-1.17,1.17v3.05h3.06V58.2C114.04,57.55,113.52,57.03,112.87,57.03z
						"/>
					<g>
						<rect x="97.05" y="53.32" class="st2" width="1.18" height="0.97"/>
						<rect x="98.93" y="53.32" class="st2" width="1.18" height="0.97"/>
						<rect x="100.82" y="53.32" class="st2" width="1.18" height="0.97"/>
						<rect x="102.7" y="53.32" class="st2" width="1.18" height="0.97"/>
						<rect x="104.59" y="53.32" class="st2" width="1.18" height="0.97"/>
						<rect x="106.47" y="53.32" class="st2" width="1.18" height="0.97"/>
						<rect x="108.36" y="53.32" class="st2" width="1.18" height="0.97"/>
						<rect x="110.24" y="53.32" class="st2" width="1.18" height="0.97"/>
						<rect x="112.13" y="53.32" class="st2" width="1.18" height="0.97"/>
						<rect x="114.02" y="53.32" class="st2" width="1.18" height="0.97"/>
					</g>
					<g>
						<rect x="97.84" y="49.81" class="st2" width="1.07" height="0.48"/>
						<rect x="99.56" y="49.81" class="st2" width="1.07" height="0.48"/>
						<rect x="101.28" y="49.81" class="st2" width="1.07" height="0.48"/>
						<rect x="103" y="49.81" class="st2" width="1.07" height="0.48"/>
						<rect x="104.72" y="49.81" class="st2" width="1.07" height="0.48"/>
						<rect x="106.44" y="49.81" class="st2" width="1.07" height="0.48"/>
						<rect x="108.16" y="49.81" class="st2" width="1.07" height="0.48"/>
						<rect x="109.89" y="49.81" class="st2" width="1.07" height="0.48"/>
						<rect x="111.61" y="49.81" class="st2" width="1.07" height="0.48"/>
						<rect x="113.33" y="49.81" class="st2" width="1.07" height="0.48"/>
					</g>
				</g>
			</g>
			<g>
				<path class="st2" d="M35.31,56.71v-9.35l0.62-0.62v-1.17c0,0-0.26,0.01-0.62,0.01v-0.02h-0.73V38.9l0.7-0.7v-0.97h-0.7v-0.01
					h-0.73v-5.8l0.51-0.51v-0.67h-1.09v-2.71l0.3-0.3v-0.8h-0.6v-2.73l0.26-0.26v-0.83h-0.26h-0.03h-0.8v-0.94h-0.5v0.94h-0.73
					h-0.03h-0.26v0.83l0.26,0.26v2.73h-0.6v0.8l0.3,0.3v2.71H29.5v0.67l0.51,0.51v5.8h-0.73v0.01h-0.7v0.97l0.7,0.7v6.66h-0.73v0.02
					c-0.36-0.01-0.62-0.01-0.62-0.01v1.17l0.62,0.62v9.35h-2.84v-5.26h-1.77c-0.56-1.83-2.03-3.26-3.88-3.75
					c-0.03-0.59-0.42-1.09-0.96-1.27V46.1h0.33c-0.12-0.31-0.42-0.54-0.77-0.54c-0.35,0-0.66,0.22-0.77,0.54h0.3v0.33
					c-0.54,0.18-0.93,0.68-0.96,1.27c-1.86,0.49-3.33,1.92-3.88,3.75h-1.96v9.8h13h1.34h25.74v-4.54H35.31z"/>
				<path class="st2" d="M18.65,61.25h-7.27v-9.8h1.96c0.56-1.83,2.03-3.26,3.88-3.75c0.03-0.59,0.42-1.09,0.96-1.27V46.1h-0.3
					c0.12-0.31,0.41-0.53,0.76-0.54V61.25z M31.84,21.69h-0.18v0.94h-0.73h-0.03h-0.26v0.83l0.26,0.26v2.73h-0.6v0.8l0.3,0.3v2.71
					H29.5v0.67l0.51,0.51v5.8h-0.73v0.01h-0.7v0.97l0.7,0.7v6.66h-0.73v0.02c-0.36-0.01-0.62-0.01-0.62-0.01v1.17l0.62,0.62v9.35
					h-2.84v-5.26h0v9.8h0h6.11V21.69z"/>
				<path class="st2" d="M20.4,60.21h-3.49v-4.28c0-0.44,0.16-0.84,0.43-1.15c0.32-0.37,0.79-0.6,1.31-0.6h0
					c0.24,0,0.47,0.05,0.68,0.14c0.63,0.26,1.07,0.88,1.07,1.61V60.21z"/>
				<g>
					<g>
						<path class="st2" d="M15.62,60.21h-1.29v-1.59c0-0.16,0.06-0.31,0.16-0.43c0.12-0.14,0.29-0.22,0.49-0.22l0,0
							c0.09,0,0.17,0.02,0.25,0.05c0.23,0.1,0.39,0.33,0.39,0.6V60.21z"/>
						<path class="st2" d="M13.56,60.21h-1.29v-1.59c0-0.16,0.06-0.31,0.16-0.43c0.12-0.14,0.29-0.22,0.49-0.22l0,0
							c0.09,0,0.17,0.02,0.25,0.05c0.23,0.1,0.39,0.33,0.39,0.6V60.21z"/>
					</g>
					<g>
						<path class="st2" d="M25.04,60.21h-1.29v-1.59c0-0.16,0.06-0.31,0.16-0.43c0.12-0.14,0.29-0.22,0.49-0.22l0,0
							c0.09,0,0.17,0.02,0.25,0.05c0.23,0.1,0.39,0.33,0.39,0.6V60.21z"/>
						<path class="st2" d="M22.98,60.21h-1.29v-1.59c0-0.16,0.06-0.31,0.16-0.43c0.12-0.14,0.29-0.22,0.49-0.22l0,0
							c0.09,0,0.17,0.02,0.25,0.05c0.23,0.1,0.39,0.33,0.39,0.6V60.21z"/>
					</g>
				</g>
				<rect x="26.13" y="57.73" class="st2" width="0.98" height="2.48"/>
				<rect x="29.98" y="57.73" class="st2" width="0.98" height="2.48"/>
				<rect x="33.82" y="57.73" class="st2" width="0.98" height="2.48"/>
				<rect x="37.67" y="57.73" class="st2" width="0.98" height="2.48"/>
				<rect x="41.51" y="57.73" class="st2" width="0.98" height="2.48"/>
				<rect x="45.36" y="57.73" class="st2" width="0.98" height="2.48"/>
				<rect x="49.2" y="57.73" class="st2" width="0.98" height="2.48"/>
				<g>
					<rect x="12.47" y="53.86" class="st2" width="0.89" height="0.89"/>
					<rect x="12.47" y="54.97" class="st2" width="0.89" height="0.89"/>
				</g>
				<g>
					<rect x="14.53" y="53.86" class="st2" width="0.89" height="0.89"/>
					<rect x="14.53" y="54.97" class="st2" width="0.89" height="0.89"/>
				</g>
				<g>
					<rect x="21.89" y="53.86" class="st2" width="0.89" height="0.89"/>
					<rect x="21.89" y="54.97" class="st2" width="0.89" height="0.89"/>
				</g>
				<g>
					<rect x="23.95" y="53.86" class="st2" width="0.89" height="0.89"/>
					<rect x="23.95" y="54.97" class="st2" width="0.89" height="0.89"/>
				</g>
				<path class="st2" d="M30.21,56.69h-0.58v-8.92h0.58V56.69z M31.57,47.77H31v8.92h0.58V47.77z M32.94,47.77h-0.58v8.92h0.58
					V47.77z M34.31,47.77h-0.58v8.92h0.58V47.77z"/>
				<path class="st2" d="M30.49,45.55h-0.48v-6.66h0.48V45.55z M31.63,38.89h-0.48v6.66h0.48V38.89z M32.77,38.89h-0.48v6.66h0.48
					V38.89z M33.91,38.89h-0.48v6.66h0.48V38.89z"/>
				<path class="st3" d="M30.92,37.27H30.6v-5.79h0.33V37.27z M31.73,31.48H31.4v5.79h0.33V31.48z M32.53,31.48H32.2v5.79h0.33
					V31.48z M33.33,31.48h-0.33v5.79h0.33V31.48z"/>
				<path class="st3" d="M31.29,30.23h-0.26v-2.66h0.26V30.23z M31.83,27.57h-0.26v2.66h0.26V27.57z M32.36,27.57h-0.26v2.66h0.26
					V27.57z M32.9,27.57h-0.26v2.66h0.26V27.57z"/>
				<path class="st3" d="M31.42,26.48h-0.23V23.7h0.23V26.48z M31.84,23.7h-0.23v2.78h0.23V23.7z M32.26,23.7h-0.23v2.78h0.23V23.7z
					 M32.69,23.7h-0.23v2.78h0.23V23.7z"/>
			</g>
			<g>
				<path class="st2" d="M49.97,36.93H43v-2.95c-0.36-0.83-1.64-1.61-1.64-1.61v-1.52h0.44V30.3h-1.14v-1.4l-0.55-0.26V27.9
					l-0.2-0.12l-0.2,0.12v0.73l-0.55,0.26v1.4h-1.14v0.55h0.44v1.52c0,0-1.28,0.78-1.64,1.61v2.95h-6.97l-1.62,5.06v19.25h11.67
					h11.67V41.99L49.97,36.93z"/>
				<path class="st2" d="M39.92,27.78L39.92,27.78l-0.2,0.12v0.73l-0.55,0.26v1.4h-1.14v0.55h0.44v1.52c0,0-1.28,0.78-1.64,1.61
					v2.95h-6.97l-1.62,5.06v19.25h11.67h0V27.78z"/>
				<path class="st2" d="M38.35,34.92c-0.6,0-1.09,0.49-1.09,1.09v1.7h2.18v-1.7C39.44,35.41,38.95,34.92,38.35,34.92z M38.22,37.23
					h-0.63v-1.36h0.63V37.23z M39.11,37.23h-0.63v-1.36h0.63V37.23z M41.2,34.92c-0.6,0-1.09,0.49-1.09,1.09v1.7h2.18v-1.7
					C42.29,35.41,41.8,34.92,41.2,34.92z M41.07,37.23h-0.63v-1.36h0.63V37.23z M41.96,37.23h-0.63v-1.36h0.63V37.23z M38.35,39.2
					c-0.6,0-1.09,0.49-1.09,1.09v1.7h2.18v-1.7C39.44,39.69,38.95,39.2,38.35,39.2z M38.22,41.51h-0.63v-1.36h0.63V41.51z
					 M39.11,41.51h-0.63v-1.36h0.63V41.51z M41.2,39.2c-0.6,0-1.09,0.49-1.09,1.09v1.7h2.18v-1.7C42.29,39.69,41.8,39.2,41.2,39.2z
					 M41.07,41.51h-0.63v-1.36h0.63V41.51z M41.96,41.51h-0.63v-1.36h0.63V41.51z M34.33,42.95v2.2h1.26v-2.2H34.33z M34.71,44.98
					h-0.22V44.7h0.22V44.98z M34.71,44.59h-0.22v-0.28h0.22V44.59z M34.71,44.19h-0.22v-0.28h0.22V44.19z M34.71,43.8h-0.22v-0.28
					h0.22V43.8z M34.71,43.4h-0.22v-0.28h0.22V43.4z M35.07,44.98h-0.22V44.7h0.22V44.98z M35.07,44.59h-0.22v-0.28h0.22V44.59z
					 M35.07,44.19h-0.22v-0.28h0.22V44.19z M35.07,43.8h-0.22v-0.28h0.22V43.8z M35.07,43.4h-0.22v-0.28h0.22V43.4z M35.43,44.98
					h-0.22V44.7h0.22V44.98z M35.43,44.59h-0.22v-0.28h0.22V44.59z M35.43,44.19h-0.22v-0.28h0.22V44.19z M35.43,43.8h-0.22v-0.28
					h0.22V43.8z M35.43,43.4h-0.22v-0.28h0.22V43.4z M43.96,42.95v2.2h1.26v-2.2H43.96z M44.34,44.98h-0.22V44.7h0.22V44.98z
					 M44.34,44.59h-0.22v-0.28h0.22V44.59z M44.34,44.19h-0.22v-0.28h0.22V44.19z M44.34,43.8h-0.22v-0.28h0.22V43.8z M44.34,43.4
					h-0.22v-0.28h0.22V43.4z M44.7,44.98h-0.22V44.7h0.22V44.98z M44.7,44.59h-0.22v-0.28h0.22V44.59z M44.7,44.19h-0.22v-0.28h0.22
					V44.19z M44.7,43.8h-0.22v-0.28h0.22V43.8z M44.7,43.4h-0.22v-0.28h0.22V43.4z M45.06,44.98h-0.22V44.7h0.22V44.98z
					 M45.06,44.59h-0.22v-0.28h0.22V44.59z M45.06,44.19h-0.22v-0.28h0.22V44.19z M45.06,43.8h-0.22v-0.28h0.22V43.8z M45.06,43.4
					h-0.22v-0.28h0.22V43.4z M31.18,46.87v3.45h1.98v-3.45H31.18z M31.77,50.05h-0.35v-0.44h0.35V50.05z M31.77,49.43h-0.35v-0.44
					h0.35V49.43z M31.77,48.81h-0.35v-0.44h0.35V48.81z M31.77,48.2h-0.35v-0.44h0.35V48.2z M31.77,47.58h-0.35v-0.44h0.35V47.58z
					 M32.34,50.05h-0.35v-0.44h0.35V50.05z M32.34,49.43h-0.35v-0.44h0.35V49.43z M32.34,48.81h-0.35v-0.44h0.35V48.81z M32.34,48.2
					h-0.35v-0.44h0.35V48.2z M32.34,47.58h-0.35v-0.44h0.35V47.58z M32.91,50.05h-0.35v-0.44h0.35V50.05z M32.91,49.43h-0.35v-0.44
					h0.35V49.43z M32.91,48.81h-0.35v-0.44h0.35V48.81z M32.91,48.2h-0.35v-0.44h0.35V48.2z M32.91,47.58h-0.35v-0.44h0.35V47.58z
					 M34.22,46.87v3.45h1.98v-3.45H34.22z M34.82,50.05h-0.35v-0.44h0.35V50.05z M34.82,49.43h-0.35v-0.44h0.35V49.43z M34.82,48.81
					h-0.35v-0.44h0.35V48.81z M34.82,48.2h-0.35v-0.44h0.35V48.2z M34.82,47.58h-0.35v-0.44h0.35V47.58z M35.38,50.05h-0.35v-0.44
					h0.35V50.05z M35.38,49.43h-0.35v-0.44h0.35V49.43z M35.38,48.81h-0.35v-0.44h0.35V48.81z M35.38,48.2h-0.35v-0.44h0.35V48.2z
					 M35.38,47.58h-0.35v-0.44h0.35V47.58z M35.95,50.05H35.6v-0.44h0.35V50.05z M35.95,49.43H35.6v-0.44h0.35V49.43z M35.95,48.81
					H35.6v-0.44h0.35V48.81z M35.95,48.2H35.6v-0.44h0.35V48.2z M35.95,47.58H35.6v-0.44h0.35V47.58z M37.26,46.87v3.45h1.98v-3.45
					H37.26z M37.86,50.05h-0.35v-0.44h0.35V50.05z M37.86,49.43h-0.35v-0.44h0.35V49.43z M37.86,48.81h-0.35v-0.44h0.35V48.81z
					 M37.86,48.2h-0.35v-0.44h0.35V48.2z M37.86,47.58h-0.35v-0.44h0.35V47.58z M38.43,50.05h-0.35v-0.44h0.35V50.05z M38.43,49.43
					h-0.35v-0.44h0.35V49.43z M38.43,48.81h-0.35v-0.44h0.35V48.81z M38.43,48.2h-0.35v-0.44h0.35V48.2z M38.43,47.58h-0.35v-0.44
					h0.35V47.58z M38.99,50.05h-0.35v-0.44h0.35V50.05z M38.99,49.43h-0.35v-0.44h0.35V49.43z M38.99,48.81h-0.35v-0.44h0.35V48.81z
					 M38.99,48.2h-0.35v-0.44h0.35V48.2z M38.99,47.58h-0.35v-0.44h0.35V47.58z M40.3,46.87v3.45h1.98v-3.45H40.3z M40.9,50.05
					h-0.35v-0.44h0.35V50.05z M40.9,49.43h-0.35v-0.44h0.35V49.43z M40.9,48.81h-0.35v-0.44h0.35V48.81z M40.9,48.2h-0.35v-0.44
					h0.35V48.2z M40.9,47.58h-0.35v-0.44h0.35V47.58z M41.47,50.05h-0.35v-0.44h0.35V50.05z M41.47,49.43h-0.35v-0.44h0.35V49.43z
					 M41.47,48.81h-0.35v-0.44h0.35V48.81z M41.47,48.2h-0.35v-0.44h0.35V48.2z M41.47,47.58h-0.35v-0.44h0.35V47.58z M42.03,50.05
					h-0.35v-0.44h0.35V50.05z M42.03,49.43h-0.35v-0.44h0.35V49.43z M42.03,48.81h-0.35v-0.44h0.35V48.81z M42.03,48.2h-0.35v-0.44
					h0.35V48.2z M42.03,47.58h-0.35v-0.44h0.35V47.58z M43.35,46.87v3.45h1.98v-3.45H43.35z M43.94,50.05h-0.35v-0.44h0.35V50.05z
					 M43.94,49.43h-0.35v-0.44h0.35V49.43z M43.94,48.81h-0.35v-0.44h0.35V48.81z M43.94,48.2h-0.35v-0.44h0.35V48.2z M43.94,47.58
					h-0.35v-0.44h0.35V47.58z M44.51,50.05h-0.35v-0.44h0.35V50.05z M44.51,49.43h-0.35v-0.44h0.35V49.43z M44.51,48.81h-0.35v-0.44
					h0.35V48.81z M44.51,48.2h-0.35v-0.44h0.35V48.2z M44.51,47.58h-0.35v-0.44h0.35V47.58z M45.08,50.05h-0.35v-0.44h0.35V50.05z
					 M45.08,49.43h-0.35v-0.44h0.35V49.43z M45.08,48.81h-0.35v-0.44h0.35V48.81z M45.08,48.2h-0.35v-0.44h0.35V48.2z M45.08,47.58
					h-0.35v-0.44h0.35V47.58z M46.39,46.87v3.45h1.98v-3.45H46.39z M46.98,50.05h-0.35v-0.44h0.35V50.05z M46.98,49.43h-0.35v-0.44
					h0.35V49.43z M46.98,48.81h-0.35v-0.44h0.35V48.81z M46.98,48.2h-0.35v-0.44h0.35V48.2z M46.98,47.58h-0.35v-0.44h0.35V47.58z
					 M47.55,50.05H47.2v-0.44h0.35V50.05z M47.55,49.43H47.2v-0.44h0.35V49.43z M47.55,48.81H47.2v-0.44h0.35V48.81z M47.55,48.2
					H47.2v-0.44h0.35V48.2z M47.55,47.58H47.2v-0.44h0.35V47.58z M48.12,50.05h-0.35v-0.44h0.35V50.05z M48.12,49.43h-0.35v-0.44
					h0.35V49.43z M48.12,48.81h-0.35v-0.44h0.35V48.81z M48.12,48.2h-0.35v-0.44h0.35V48.2z M48.12,47.58h-0.35v-0.44h0.35V47.58z
					 M31.18,53.56v3.45h1.98v-3.45H31.18z M31.77,56.74h-0.35V56.3h0.35V56.74z M31.77,56.12h-0.35v-0.44h0.35V56.12z M31.77,55.5
					h-0.35v-0.44h0.35V55.5z M31.77,54.89h-0.35v-0.44h0.35V54.89z M31.77,54.27h-0.35v-0.44h0.35V54.27z M32.34,56.74h-0.35V56.3
					h0.35V56.74z M32.34,56.12h-0.35v-0.44h0.35V56.12z M32.34,55.5h-0.35v-0.44h0.35V55.5z M32.34,54.89h-0.35v-0.44h0.35V54.89z
					 M32.34,54.27h-0.35v-0.44h0.35V54.27z M32.91,56.74h-0.35V56.3h0.35V56.74z M32.91,56.12h-0.35v-0.44h0.35V56.12z M32.91,55.5
					h-0.35v-0.44h0.35V55.5z M32.91,54.89h-0.35v-0.44h0.35V54.89z M32.91,54.27h-0.35v-0.44h0.35V54.27z M34.22,53.56v3.45h1.98
					v-3.45H34.22z M34.82,56.74h-0.35V56.3h0.35V56.74z M34.82,56.12h-0.35v-0.44h0.35V56.12z M34.82,55.5h-0.35v-0.44h0.35V55.5z
					 M34.82,54.89h-0.35v-0.44h0.35V54.89z M34.82,54.27h-0.35v-0.44h0.35V54.27z M35.38,56.74h-0.35V56.3h0.35V56.74z M35.38,56.12
					h-0.35v-0.44h0.35V56.12z M35.38,55.5h-0.35v-0.44h0.35V55.5z M35.38,54.89h-0.35v-0.44h0.35V54.89z M35.38,54.27h-0.35v-0.44
					h0.35V54.27z M35.95,56.74H35.6V56.3h0.35V56.74z M35.95,56.12H35.6v-0.44h0.35V56.12z M35.95,55.5H35.6v-0.44h0.35V55.5z
					 M35.95,54.89H35.6v-0.44h0.35V54.89z M35.95,54.27H35.6v-0.44h0.35V54.27z M37.26,53.56v3.45h1.98v-3.45H37.26z M37.86,56.74
					h-0.35V56.3h0.35V56.74z M37.86,56.12h-0.35v-0.44h0.35V56.12z M37.86,55.5h-0.35v-0.44h0.35V55.5z M37.86,54.89h-0.35v-0.44
					h0.35V54.89z M37.86,54.27h-0.35v-0.44h0.35V54.27z M38.43,56.74h-0.35V56.3h0.35V56.74z M38.43,56.12h-0.35v-0.44h0.35V56.12z
					 M38.43,55.5h-0.35v-0.44h0.35V55.5z M38.43,54.89h-0.35v-0.44h0.35V54.89z M38.43,54.27h-0.35v-0.44h0.35V54.27z M38.99,56.74
					h-0.35V56.3h0.35V56.74z M38.99,56.12h-0.35v-0.44h0.35V56.12z M38.99,55.5h-0.35v-0.44h0.35V55.5z M38.99,54.89h-0.35v-0.44
					h0.35V54.89z M38.99,54.27h-0.35v-0.44h0.35V54.27z M40.3,53.56v3.45h1.98v-3.45H40.3z M40.9,56.74h-0.35V56.3h0.35V56.74z
					 M40.9,56.12h-0.35v-0.44h0.35V56.12z M40.9,55.5h-0.35v-0.44h0.35V55.5z M40.9,54.89h-0.35v-0.44h0.35V54.89z M40.9,54.27
					h-0.35v-0.44h0.35V54.27z M41.47,56.74h-0.35V56.3h0.35V56.74z M41.47,56.12h-0.35v-0.44h0.35V56.12z M41.47,55.5h-0.35v-0.44
					h0.35V55.5z M41.47,54.89h-0.35v-0.44h0.35V54.89z M41.47,54.27h-0.35v-0.44h0.35V54.27z M42.03,56.74h-0.35V56.3h0.35V56.74z
					 M42.03,56.12h-0.35v-0.44h0.35V56.12z M42.03,55.5h-0.35v-0.44h0.35V55.5z M42.03,54.89h-0.35v-0.44h0.35V54.89z M42.03,54.27
					h-0.35v-0.44h0.35V54.27z M43.35,53.56v3.45h1.98v-3.45H43.35z M43.94,56.74h-0.35V56.3h0.35V56.74z M43.94,56.12h-0.35v-0.44
					h0.35V56.12z M43.94,55.5h-0.35v-0.44h0.35V55.5z M43.94,54.89h-0.35v-0.44h0.35V54.89z M43.94,54.27h-0.35v-0.44h0.35V54.27z
					 M44.51,56.74h-0.35V56.3h0.35V56.74z M44.51,56.12h-0.35v-0.44h0.35V56.12z M44.51,55.5h-0.35v-0.44h0.35V55.5z M44.51,54.89
					h-0.35v-0.44h0.35V54.89z M44.51,54.27h-0.35v-0.44h0.35V54.27z M45.08,56.74h-0.35V56.3h0.35V56.74z M45.08,56.12h-0.35v-0.44
					h0.35V56.12z M45.08,55.5h-0.35v-0.44h0.35V55.5z M45.08,54.89h-0.35v-0.44h0.35V54.89z M45.08,54.27h-0.35v-0.44h0.35V54.27z
					 M46.39,53.56v3.45h1.98v-3.45H46.39z M46.98,56.74h-0.35V56.3h0.35V56.74z M46.98,56.12h-0.35v-0.44h0.35V56.12z M46.98,55.5
					h-0.35v-0.44h0.35V55.5z M46.98,54.89h-0.35v-0.44h0.35V54.89z M46.98,54.27h-0.35v-0.44h0.35V54.27z M47.55,56.74H47.2V56.3
					h0.35V56.74z M47.55,56.12H47.2v-0.44h0.35V56.12z M47.55,55.5H47.2v-0.44h0.35V55.5z M47.55,54.89H47.2v-0.44h0.35V54.89z
					 M47.55,54.27H47.2v-0.44h0.35V54.27z M48.12,56.74h-0.35V56.3h0.35V56.74z M48.12,56.12h-0.35v-0.44h0.35V56.12z M48.12,55.5
					h-0.35v-0.44h0.35V55.5z M48.12,54.89h-0.35v-0.44h0.35V54.89z M48.12,54.27h-0.35v-0.44h0.35V54.27z M32.17,40.33l-0.87,1.18
					v2.29h1.75v-2.29L32.17,40.33z M32.71,43.48h-1.09V41.7h1.09V43.48z M47.38,40.33l-0.87,1.18v2.29h1.75v-2.29L47.38,40.33z
					 M47.92,43.48h-1.09V41.7h1.09V43.48z M40.75,31.77h-1.66V31h1.66V31.77z"/>
			</g>
			<g>
				<path class="st2" d="M85.47,23.65c0.14-0.03,0.24-0.15,0.24-0.29c0-0.14-0.1-0.26-0.24-0.29v-0.73h-0.14v0.73
					c-0.13,0.03-0.24,0.15-0.24,0.29c0,0.14,0.1,0.25,0.23,0.29l-2.18,8v0.83h-3.04l-1.14-1.14v-0.97h-1.32h-1.32v0.97l-1.14,1.14
					h-3.04v-0.83l-2.18-7.99c0.14-0.03,0.24-0.15,0.24-0.29c0-0.14-0.1-0.26-0.24-0.29v-0.73h-0.14v0.73
					c-0.13,0.03-0.24,0.15-0.24,0.29c0,0.14,0.1,0.25,0.23,0.29l-2.18,8v29.6h2.24h0.02h2.19h0.06h5.5h5.5h0.06h2.19h0.02h2.24
					v-29.6L85.47,23.65z"/>
				<path class="st2" d="M77.65,30.36L77.65,30.36h-1.32v0.97l-1.14,1.14h-3.04v-0.83l-2.18-7.99c0.14-0.03,0.24-0.15,0.24-0.29
					c0-0.14-0.1-0.26-0.24-0.29v-0.73h-0.14v0.73c-0.13,0.03-0.24,0.15-0.24,0.29c0,0.14,0.1,0.25,0.23,0.29l-2.18,8v29.6h2.24h0.02
					h2.19h0.06h5.5h0V30.36z"/>
				<path class="st2" d="M75.35,61.25h-2.08v-2.48c0-0.41,0.24-0.77,0.59-0.94c0.13-0.06,0.29-0.1,0.44-0.1l0,0
					c0.32,0,0.61,0.15,0.8,0.38c0.15,0.18,0.24,0.41,0.24,0.66V61.25z M78.69,58.76c0-0.25-0.09-0.48-0.24-0.66
					c-0.19-0.23-0.48-0.38-0.8-0.38l0,0c-0.16,0-0.31,0.04-0.44,0.1c-0.35,0.17-0.59,0.52-0.59,0.94v2.48h2.08V58.76z M82.03,58.76
					c0-0.25-0.09-0.48-0.24-0.66c-0.19-0.23-0.48-0.38-0.8-0.38l0,0c-0.16,0-0.31,0.04-0.44,0.1c-0.35,0.17-0.59,0.52-0.59,0.94
					v2.48h2.08V58.76z M68.64,32.86c0-0.08-0.02-0.15-0.07-0.21c-0.07-0.09-0.17-0.15-0.29-0.15l0,0c-0.13,0-0.25,0.07-0.31,0.17
					c-0.03,0.05-0.05,0.12-0.05,0.19v1.57h0.72V32.86z M69.66,32.86c0-0.08-0.02-0.15-0.07-0.21c-0.07-0.09-0.17-0.15-0.29-0.15h0
					c-0.13,0-0.25,0.07-0.31,0.17c-0.03,0.05-0.05,0.12-0.05,0.19v1.57h0.72V32.86z M70.68,32.86c0-0.08-0.02-0.15-0.07-0.21
					c-0.07-0.09-0.17-0.15-0.29-0.15l0,0c-0.13,0-0.25,0.07-0.31,0.17c-0.03,0.05-0.05,0.12-0.05,0.19v1.57h0.72V32.86z
					 M71.69,32.86c0-0.08-0.02-0.15-0.07-0.21c-0.07-0.09-0.17-0.15-0.29-0.15h0c-0.13,0-0.25,0.07-0.31,0.17
					c-0.03,0.05-0.05,0.12-0.05,0.19v1.57h0.72V32.86z M70.32,37.2h-1.57v1.76h1.57V37.2z M70.32,41.4h-1.57v1.76h1.57V41.4z
					 M70.32,45.6h-1.57v1.76h1.57V45.6z M70.32,49.8h-1.57v1.76h1.57V49.8z M86.66,34.43h0.72v-1.57c0-0.07-0.02-0.13-0.05-0.19
					c-0.06-0.1-0.18-0.17-0.31-0.17l0,0c-0.12,0-0.23,0.06-0.29,0.15c-0.04,0.06-0.07,0.13-0.07,0.21V34.43z M85.64,34.43h0.72
					v-1.57c0-0.07-0.02-0.13-0.05-0.19c-0.06-0.1-0.18-0.17-0.31-0.17l0,0c-0.12,0-0.23,0.06-0.29,0.15
					c-0.04,0.06-0.07,0.13-0.07,0.21V34.43z M84.63,34.43h0.72v-1.57c0-0.07-0.02-0.13-0.05-0.19c-0.06-0.1-0.18-0.17-0.31-0.17l0,0
					c-0.12,0-0.23,0.06-0.29,0.15c-0.04,0.06-0.07,0.13-0.07,0.21V34.43z M83.61,34.43h0.72v-1.57c0-0.07-0.02-0.13-0.05-0.19
					c-0.06-0.1-0.18-0.17-0.31-0.17l0,0c-0.12,0-0.23,0.06-0.29,0.15c-0.04,0.06-0.07,0.13-0.07,0.21V34.43z M84.99,38.96h1.57V37.2
					h-1.57V38.96z M84.99,43.16h1.57V41.4h-1.57V43.16z M84.99,47.36h1.57V45.6h-1.57V47.36z M84.99,51.56h1.57V49.8h-1.57V51.56z
					 M75.45,37.21c0-0.08-0.02-0.15-0.06-0.22c-0.08-0.13-0.22-0.22-0.38-0.22l0,0c-0.11,0-0.21,0.04-0.29,0.11
					c-0.09,0.08-0.15,0.2-0.15,0.33v0.96h0.87V37.21z M76.77,37.21c0-0.08-0.02-0.15-0.06-0.22c-0.08-0.13-0.22-0.22-0.38-0.22l0,0
					c-0.11,0-0.21,0.04-0.29,0.11c-0.09,0.08-0.15,0.2-0.15,0.33v0.96h0.87V37.21z M78.09,37.21c0-0.08-0.02-0.15-0.06-0.22
					c-0.08-0.13-0.22-0.22-0.38-0.22l0,0c-0.11,0-0.21,0.04-0.29,0.11c-0.09,0.08-0.15,0.2-0.15,0.33v0.96h0.87V37.21z M79.41,37.21
					c0-0.08-0.02-0.15-0.06-0.22c-0.08-0.13-0.22-0.22-0.38-0.22l0,0c-0.11,0-0.21,0.04-0.29,0.11c-0.09,0.08-0.15,0.2-0.15,0.33
					v0.96h0.87V37.21z M80.72,37.21c0-0.08-0.02-0.15-0.06-0.22c-0.08-0.13-0.22-0.22-0.38-0.22l0,0c-0.11,0-0.21,0.04-0.29,0.11
					c-0.09,0.08-0.15,0.2-0.15,0.33v0.96h0.87V37.21z M75.79,40.44h-1.52v1.75h1.52V40.44z M74.52,42.46h-0.24v1.04h0.24V42.46z
					 M74.94,42.46H74.7v1.04h0.24V42.46z M75.37,42.46h-0.24v1.04h0.24V42.46z M75.79,42.46h-0.24v1.04h0.24V42.46z M81.03,40.44
					h-1.52v1.75h1.52V40.44z M79.76,42.46h-0.24v1.04h0.24V42.46z M80.18,42.46h-0.24v1.04h0.24V42.46z M80.61,42.46h-0.24v1.04
					h0.24V42.46z M81.03,42.46h-0.24v1.04h0.24V42.46z M75.79,44.95h-1.52v1.75h1.52V44.95z M74.52,46.97h-0.24v1.04h0.24V46.97z
					 M74.94,46.97H74.7v1.04h0.24V46.97z M75.37,46.97h-0.24v1.04h0.24V46.97z M75.79,46.97h-0.24v1.04h0.24V46.97z M81.03,44.95
					h-1.52v1.75h1.52V44.95z M79.76,46.97h-0.24v1.04h0.24V46.97z M80.18,46.97h-0.24v1.04h0.24V46.97z M80.61,46.97h-0.24v1.04
					h0.24V46.97z M81.03,46.97h-0.24v1.04h0.24V46.97z M75.79,49.46h-1.52v1.75h1.52V49.46z M74.52,51.48h-0.24v1.04h0.24V51.48z
					 M74.94,51.48H74.7v1.04h0.24V51.48z M75.37,51.48h-0.24v1.04h0.24V51.48z M75.79,51.48h-0.24v1.04h0.24V51.48z M81.03,49.46
					h-1.52v1.75h1.52V49.46z M79.76,51.48h-0.24v1.04h0.24V51.48z M80.18,51.48h-0.24v1.04h0.24V51.48z M80.61,51.48h-0.24v1.04
					h0.24V51.48z M81.03,51.48h-0.24v1.04h0.24V51.48z M70.57,58.76c0-0.25-0.09-0.48-0.24-0.66c-0.19-0.23-0.48-0.38-0.8-0.38l0,0
					c-0.16,0-0.31,0.04-0.44,0.1c-0.35,0.17-0.59,0.52-0.59,0.94v2.48h2.08V58.76z M86.81,58.76c0-0.25-0.09-0.48-0.24-0.66
					c-0.19-0.23-0.48-0.38-0.8-0.38l0,0c-0.16,0-0.31,0.04-0.44,0.1c-0.35,0.17-0.59,0.52-0.59,0.94v2.48h2.08V58.76z M78.62,30.72
					h-1.94v1.85h1.94V30.72z M79.11,33.7H76.2v0.87h2.91V33.7z"/>
			</g>
			<g>
				<polygon class="st2" points="97.92,57.98 97.92,56.98 96.8,56.98 96.8,52.69 93.98,49.87 93.98,49.25 95.57,47.66 93.36,42.14 
					91.16,41.57 91.16,40.89 89.26,40.89 89.26,41.57 87.06,42.14 84.85,47.66 86.43,49.25 86.43,49.87 83.62,52.69 83.62,56.98 
					82.5,56.98 82.5,57.98 81.29,59.19 81.29,61.25 90.21,61.25 99.12,61.25 99.12,59.19 				"/>
				<polygon class="st2" points="90.17,40.89 89.26,40.89 89.26,41.57 87.06,42.14 84.85,47.66 86.43,49.25 86.43,49.87 
					83.62,52.69 83.62,56.98 82.5,56.98 82.5,57.98 81.29,59.19 81.29,61.25 90.17,61.25 				"/>
				<path class="st2" d="M82.66,60.63h-0.4v-1.44h0.4V60.63z M84.18,59.19h-0.4v1.44h0.4V59.19z M85.69,59.19h-0.4v1.44h0.4V59.19z
					 M95.13,60.63h-0.4v-1.44h0.4V60.63z M96.64,59.19h-0.4v1.44h0.4V59.19z M98.16,59.19h-0.4v1.44h0.4V59.19z M89.52,44.51h-1.06
					v0.39h1.06V44.51z M91.96,44.51H90.9v0.39h1.06V44.51z M87.51,54.11h-0.43v6.52h0.43V54.11z M93.34,54.11h-0.43v6.52h0.43V54.11
					z M87.92,44.7h-1.24v-0.19h1.24V44.7z M87.55,45.5h-1.24v0.19h1.24V45.5z M87.17,46.47h-1.24v0.19h1.24V46.47z M86.8,47.45
					h-1.24v0.19h1.24V47.45z M92.49,44.7h1.24v-0.19h-1.24V44.7z M92.87,45.5h1.24v0.19h-1.24V45.5z M93.24,46.47h1.24v0.19h-1.24
					V46.47z M93.61,47.45h1.24v0.19h-1.24V47.45z M95.57,52.56H84.84v0.34h10.73V52.56z M92.21,55.81h-4.01v-0.26h4.01V55.81z
					 M92.21,56.67h-4.01v0.26h4.01V56.67z M92.21,57.8h-4.01v0.26h4.01V57.8z M92.21,58.93h-4.01v0.26h4.01V58.93z"/>
				<path class="st2" d="M87.92,44.7h-1.24v-0.19h1.24V44.7z M85.94,46.66h1.24v-0.19h-1.24V46.66z M86.8,47.45h-1.24v0.19h1.24
					V47.45z M87.55,45.5h-1.24v0.19h1.24V45.5z M82.66,59.19h-0.4v1.44h0.4V59.19z M84.18,59.19h-0.4v1.44h0.4V59.19z M89.52,44.51
					h-1.06v0.39h1.06V44.51z M88.21,57.8v0.26h1.96V57.8H88.21z M88.21,55.55v0.26h1.96v-0.26H88.21z M84.84,52.56v0.34h5.33v-0.34
					H84.84z M88.21,56.67v0.26h1.96v-0.26H88.21z M85.29,59.19v1.44h0.4v-1.44H85.29z M87.08,54.11v6.52h0.43v-6.52H87.08z
					 M88.21,59.19h1.96v-0.26h-1.96V59.19z"/>
			</g>
		</g>
	</g>
</g>
</svg>
