<?xml version="1.0" encoding="utf-8"?>
<!-- Generator: Adobe Illustrator 24.3.0, SVG Export Plug-In . SVG Version: 6.00 Build 0)  -->
<svg version="1.1" id="Layer_1" xmlns="http://www.w3.org/2000/svg" xmlns:xlink="http://www.w3.org/1999/xlink" x="0px" y="0px"
	 viewBox="0 0 128 90" style="enable-background:new 0 0 128 90;" xml:space="preserve">
<style type="text/css">
	.st0{clip-path:url(#SVGID_2_);}
	.st1{fill:#FFFFFF;}
	.st2{fill:none;stroke:#000000;stroke-width:0.2941;stroke-linejoin:round;stroke-miterlimit:10;}
	.st3{fill:none;stroke:#000000;stroke-width:0.147;stroke-linejoin:round;stroke-miterlimit:10;}
	.st4{fill:none;stroke:#000000;stroke-width:0.147;stroke-miterlimit:10;}
	.st5{fill:none;}
</style>
<g>
	<defs>
		<rect id="SVGID_1_" x="3.59" y="20.54" width="120.81" height="48.38"/>
	</defs>
	<clipPath id="SVGID_2_">
		<use xlink:href="#SVGID_1_"  style="overflow:visible;"/>
	</clipPath>
	<g class="st0">
		<g>
			<g>
				<path class="st1" d="M54.49,69.3c-0.21,0-0.4-0.11-0.5-0.29c-0.1-0.17-0.2-0.33-0.31-0.49c-4.93-0.56-9.92-0.84-14.84-0.84
					c-4.92,0-9.86,0.28-14.69,0.84c-0.11,0.16-0.21,0.33-0.31,0.5c-0.1,0.17-0.29,0.28-0.5,0.28h-1.98c-0.21,0-0.41-0.12-0.51-0.3
					c-0.1-0.19-0.09-0.41,0.03-0.59c5.99-8.87,16.07-9.32,18.03-9.32s12.04,0.45,18.03,9.32c0.12,0.18,0.13,0.4,0.03,0.59
					c-0.1,0.19-0.29,0.3-0.51,0.3H54.49z"/>
				<path class="st1" d="M38.92,59.53c1.92,0,11.8,0.44,17.67,9.12c0.03,0.04,0.03,0.09,0.01,0.14c-0.02,0.04-0.07,0.07-0.12,0.07
					h-1.98c-0.05,0-0.09-0.02-0.11-0.07c-0.14-0.24-0.28-0.47-0.43-0.69c-5.03-0.58-10.08-0.87-15.1-0.87
					c-5.02,0-10.01,0.29-14.95,0.87c-0.15,0.22-0.3,0.45-0.43,0.69c-0.02,0.04-0.07,0.07-0.11,0.07h-1.98
					c-0.05,0-0.09-0.03-0.12-0.07c-0.02-0.04-0.02-0.1,0.01-0.14C27.12,59.97,37,59.53,38.92,59.53 M38.92,58.65
					c-2,0-12.28,0.46-18.4,9.51c-0.21,0.31-0.23,0.71-0.06,1.04c0.18,0.33,0.52,0.54,0.9,0.54h1.98c0.36,0,0.69-0.19,0.87-0.5
					c0.06-0.1,0.12-0.21,0.19-0.31c4.75-0.54,9.6-0.81,14.44-0.81c4.84,0,9.74,0.27,14.58,0.81c0.06,0.1,0.13,0.2,0.19,0.31
					c0.18,0.31,0.52,0.5,0.88,0.5h1.98c0.38,0,0.72-0.21,0.9-0.54c0.18-0.34,0.16-0.73-0.05-1.05
					C51.21,59.11,40.92,58.65,38.92,58.65L38.92,58.65z"/>
			</g>
			<g>
				<path class="st2" d="M56.48,68.73c-5.16-7.65-13.72-9.06-17.56-9.06c-3.84,0-12.39,1.42-17.56,9.06h1.98
					c3.64-6.21,11.82-8.58,15.57-8.58c3.75,0,11.94,2.37,15.57,8.58H56.48z"/>
				<path class="st2" d="M23.82,67.98c10.14-1.19,20.34-1.14,30.2,0"/>
				<path class="st2" d="M24.07,67.62c9.97-1.43,20-1.37,29.7,0"/>
				<line class="st2" x1="38.71" y1="60.15" x2="38.71" y2="66.57"/>
				<line class="st2" x1="37.19" y1="60.28" x2="36.73" y2="66.57"/>
				<line class="st2" x1="35.61" y1="60.57" x2="34.46" y2="66.57"/>
				<line class="st2" x1="34.12" y1="60.96" x2="31.94" y2="66.82"/>
				<line class="st2" x1="32.45" y1="61.53" x2="29.44" y2="67"/>
				<line class="st2" x1="40.32" y1="60.28" x2="40.78" y2="66.57"/>
				<line class="st2" x1="41.9" y1="60.57" x2="43.05" y2="66.57"/>
				<line class="st2" x1="43.39" y1="60.87" x2="45.57" y2="66.82"/>
				<line class="st2" x1="44.96" y1="61.37" x2="48.07" y2="67"/>
				<line class="st3" x1="32.87" y1="61.38" x2="29.98" y2="66.95"/>
				<line class="st3" x1="34.46" y1="60.87" x2="32.45" y2="66.77"/>
				<line class="st3" x1="35.88" y1="60.51" x2="34.84" y2="66.57"/>
				<line class="st3" x1="37.46" y1="60.28" x2="37.08" y2="66.57"/>
				<line class="st3" x1="39.05" y1="60.08" x2="39.05" y2="66.57"/>
				<line class="st3" x1="40.65" y1="60.28" x2="41.13" y2="66.57"/>
				<line class="st3" x1="42.24" y1="60.57" x2="43.45" y2="66.67"/>
				<line class="st3" x1="43.72" y1="60.96" x2="45.96" y2="66.81"/>
				<line class="st3" x1="45.34" y1="61.51" x2="48.45" y2="67.01"/>
				<path class="st3" d="M22.34,68.73c3.21-4.72,9.16-8.75,16.58-8.75"/>
				<path class="st3" d="M55.63,68.73c-3.21-4.72-9.16-8.75-16.58-8.75"/>
			</g>
		</g>
		<g>
			<g>
				<path class="st1" d="M49.61,69.3c-0.32,0-0.57-0.26-0.57-0.57v-1.38c0-0.32,0.26-0.57,0.57-0.57h0.02v-0.02
					c0-0.32,0.26-0.57,0.57-0.57h0.4v-7.91c0-0.31,0.25-0.57,0.57-0.57v-6.72c0-0.25,0.16-0.46,0.39-0.54v-6.68
					c0-0.3,0.23-0.55,0.53-0.57v-4.8c0-0.32,0.26-0.57,0.57-0.57h0.12v-5.56c0-0.3,0.24-0.55,0.54-0.57V27.5
					c0-0.32,0.26-0.57,0.57-0.57h0.24v-4.31c0-0.24,0.2-0.44,0.44-0.44h0.26c0.24,0,0.44,0.2,0.44,0.44v9.06
					c0.3,0.02,0.54,0.27,0.54,0.57v7.06h0.02c0.32,0,0.57,0.26,0.57,0.57v7.92h0.17c0.32,0,0.57,0.26,0.57,0.57v6.55
					c0.25,0.06,0.43,0.29,0.43,0.56v6.62c0.21,0.08,0.36,0.29,0.36,0.53v3.54h0.3c0.32,0,0.57,0.26,0.57,0.57v0.02h0.02
					c0.32,0,0.57,0.26,0.57,0.57v1.38c0,0.32-0.26,0.57-0.57,0.57H49.61z"/>
				<path class="st1" d="M54.84,22.62v9.5h0.41c0.07,0,0.13,0.06,0.13,0.13v1.03v0.57v5.9h0.46c0.07,0,0.13,0.06,0.13,0.13v4.44
					v0.57v3.35h0.61c0.07,0,0.13,0.06,0.13,0.13v3.2v0.57v3.2h0.3c0.07,0,0.13,0.06,0.13,0.13v3.37v0.57v3.08h0.23
					c0.07,0,0.13,0.06,0.13,0.13v3.99h0.74c0.07,0,0.13,0.06,0.13,0.13v0.46h0.46c0.07,0,0.13,0.06,0.13,0.13v1.38
					c0,0.07-0.06,0.13-0.13,0.13h-9.24c-0.07,0-0.13-0.06-0.13-0.13v-1.38c0-0.07,0.06-0.13,0.13-0.13h0.46v-0.46
					c0-0.07,0.06-0.13,0.13-0.13h0.84v-7.19v-0.57v-0.58c0-0.07,0.06-0.13,0.13-0.13h0.44v-5.99v-0.57v-0.59
					c0-0.07,0.06-0.13,0.13-0.13H52v-5.96v-0.57v-0.55c0-0.07,0.06-0.13,0.13-0.13h0.4v-5.24c0-0.07,0.06-0.13,0.13-0.13h0.56v-4.4
					v-0.57v-1.03c0-0.07,0.06-0.13,0.13-0.13h0.41V27.5c0-0.07,0.06-0.13,0.13-0.13h0.68v-4.75H54.84 M54.84,21.74h-0.26
					c-0.49,0-0.88,0.39-0.88,0.88v3.89c-0.46,0.09-0.81,0.5-0.81,0.99v3.85c-0.32,0.17-0.54,0.51-0.54,0.9v1.03v0.57v3.57
					c-0.4,0.13-0.7,0.52-0.7,0.96v4.48c-0.32,0.17-0.53,0.51-0.53,0.89v0.55v0.57v5.3c-0.23,0.19-0.39,0.47-0.39,0.8v0.59v0.57v5.21
					c-0.34,0.17-0.57,0.51-0.57,0.91v0.58v0.57v6.31c-0.42,0.02-0.77,0.28-0.91,0.65c-0.38,0.14-0.66,0.52-0.66,0.95v1.38
					c0,0.56,0.45,1.01,1.01,1.01h9.24c0.56,0,1.01-0.45,1.01-1.01v-1.38c0-0.43-0.27-0.81-0.66-0.95c-0.13-0.34-0.44-0.59-0.81-0.64
					v-3.11c0-0.31-0.14-0.59-0.36-0.78v-2.43v-0.57v-3.37c0-0.34-0.17-0.65-0.43-0.83v-2.5v-0.57v-3.2c0-0.46-0.31-0.86-0.74-0.98
					v-2.51v-0.57v-4.44c0-0.41-0.25-0.76-0.6-0.92v-5.1v-0.57v-1.03c0-0.39-0.22-0.72-0.54-0.9v-8.73
					C55.72,22.14,55.33,21.74,54.84,21.74L54.84,21.74z"/>
			</g>
			<g>
				<rect x="49.61" y="67.35" class="st2" width="9.24" height="1.38"/>
				<rect x="50.2" y="66.76" class="st2" width="8.05" height="0.59"/>
				<polyline class="st2" points="52.91,58.28 51.18,58.28 51.18,66.76 53.27,66.76 				"/>
				<polyline class="st2" points="53.69,61.65 53.69,50.99 51.75,50.99 51.75,58.28 				"/>
				<polyline class="st2" points="54.15,46.35 54.15,43.77 52.13,43.77 52.13,51.06 				"/>
				<polyline class="st2" points="55.29,66.76 57.38,66.76 57.38,62.64 55.29,62.64 55.29,64.44 				"/>
				<polyline class="st2" points="55.54,55.49 57.02,55.49 57.02,62.64 				"/>
				<polyline class="st2" points="54.71,56.32 54.71,48.38 56.58,48.38 56.58,55.53 				"/>
				<polyline class="st2" points="54.15,41.12 54.15,38.39 52.66,38.39 52.66,43.75 				"/>
				<polyline class="st2" points="55.85,48.38 55.85,39.88 54.15,39.88 				"/>
				<polyline class="st2" points="53.36,38.39 53.36,32.25 55.25,32.25 55.25,39.88 				"/>
				<line class="st2" x1="54.71" y1="22.62" x2="54.71" y2="33.28"/>
				<polyline class="st2" points="53.9,32.25 53.9,27.5 54.71,27.5 				"/>
				<rect x="51.18" y="58.86" class="st3" width="5.84" height="0.57"/>
				<rect x="51.75" y="51.58" class="st3" width="4.84" height="0.57"/>
				<rect x="52.13" y="44.32" class="st3" width="2.01" height="0.57"/>
				<rect x="53.36" y="33.28" class="st2" width="1.89" height="0.57"/>
				<line class="st2" x1="55.88" y1="56.71" x2="55.88" y2="58.89"/>
				<line class="st2" x1="52.03" y1="60.38" x2="52.03" y2="66.76"/>
				<line class="st2" x1="52.89" y1="60.38" x2="52.89" y2="66.76"/>
				<line class="st2" x1="57.38" y1="63.5" x2="56.33" y2="63.5"/>
				<line class="st3" x1="57.38" y1="64.3" x2="56.33" y2="64.3"/>
				<line class="st2" x1="57.38" y1="64.87" x2="56.33" y2="64.87"/>
				<line class="st3" x1="57.38" y1="65.68" x2="56.33" y2="65.68"/>
				<line class="st2" x1="51.75" y1="52.87" x2="52.89" y2="52.87"/>
				<line class="st2" x1="51.75" y1="53.69" x2="52.89" y2="53.69"/>
				<line class="st2" x1="51.75" y1="54.52" x2="52.89" y2="54.52"/>
				<line class="st3" x1="55.54" y1="49.12" x2="55.54" y2="50.81"/>
				<line class="st3" x1="52.13" y1="45.63" x2="53.22" y2="45.63"/>
				<line class="st2" x1="52.13" y1="46.34" x2="53.22" y2="46.34"/>
				<line class="st3" x1="52.13" y1="47.04" x2="53.22" y2="47.04"/>
				<line class="st2" x1="52.13" y1="47.66" x2="53.22" y2="47.66"/>
				<line class="st3" x1="52.13" y1="48.37" x2="53.22" y2="48.37"/>
				<line class="st2" x1="52.13" y1="48.99" x2="53.22" y2="48.99"/>
				<line class="st3" x1="52.13" y1="49.7" x2="53.22" y2="49.7"/>
				<line class="st3" x1="53.36" y1="39.22" x2="53.36" y2="42.8"/>
				<line class="st3" x1="55.85" y1="41.32" x2="55.25" y2="41.32"/>
				<line class="st2" x1="55.85" y1="42.11" x2="55.25" y2="42.11"/>
				<line class="st3" x1="55.85" y1="42.89" x2="55.25" y2="42.89"/>
				<line class="st2" x1="55.85" y1="43.68" x2="55.25" y2="43.68"/>
				<line class="st3" x1="57.02" y1="56.04" x2="56.42" y2="56.04"/>
				<line class="st2" x1="57.02" y1="56.83" x2="56.42" y2="56.83"/>
				<line class="st3" x1="57.02" y1="57.6" x2="56.42" y2="57.6"/>
				<line class="st2" x1="57.02" y1="58.4" x2="56.42" y2="58.4"/>
				<line class="st3" x1="55.85" y1="44.45" x2="55.25" y2="44.45"/>
				<line class="st2" x1="55.85" y1="45.25" x2="55.25" y2="45.25"/>
				<line class="st3" x1="55.85" y1="46.02" x2="55.25" y2="46.02"/>
				<line class="st2" x1="55.85" y1="46.81" x2="55.25" y2="46.81"/>
				<line class="st2" x1="53.94" y1="34.57" x2="54.67" y2="34.57"/>
				<line class="st3" x1="53.94" y1="35.26" x2="54.67" y2="35.26"/>
				<line class="st2" x1="53.94" y1="35.96" x2="54.67" y2="35.96"/>
				<line class="st2" x1="55.88" y1="59.43" x2="55.88" y2="61.65"/>
				<line class="st3" x1="54.15" y1="46.68" x2="54.15" y2="49.35"/>
				<line class="st3" x1="54.15" y1="41.32" x2="54.15" y2="41.91"/>
				<line class="st3" x1="53.14" y1="39.22" x2="53.14" y2="42.8"/>
				<line class="st3" x1="53.94" y1="36.58" x2="54.67" y2="36.58"/>
				<line class="st4" x1="54.38" y1="27.5" x2="54.38" y2="32.25"/>
				<line class="st4" x1="54.71" y1="22.23" x2="54.71" y2="21.54"/>
				<line class="st3" x1="55.85" y1="49.12" x2="55.85" y2="50.81"/>
				<line class="st3" x1="54.71" y1="56.71" x2="54.71" y2="57.72"/>
				<line class="st3" x1="52.43" y1="62.52" x2="52.43" y2="66.71"/>
				<line class="st3" x1="51.56" y1="62.52" x2="51.56" y2="66.71"/>
				<line class="st3" x1="53.69" y1="62.52" x2="53.69" y2="66.71"/>
				<line class="st3" x1="54.23" y1="64.87" x2="54.23" y2="66.71"/>
				<line class="st3" x1="54.81" y1="65.68" x2="54.81" y2="66.71"/>
				<line class="st3" x1="49.61" y1="67.8" x2="58.85" y2="67.8"/>
			</g>
		</g>
		<g>
			<g>
				<g>
					<path class="st1" d="M17.4,69.3c-0.32,0-0.57-0.26-0.57-0.57V48.39c0-0.21,0.11-0.4,0.29-0.5l3.69-2.05v-2.88
						c0-0.32,0.26-0.57,0.57-0.57h0.07v-2.12c0-0.24,0.2-0.44,0.44-0.44h0.26c0.24,0,0.44,0.2,0.44,0.44V49
						c0,0.32-0.26,0.57-0.57,0.57h-0.06v2.03h0.06c0.32,0,0.57,0.26,0.57,0.57v16.56c0,0.32-0.26,0.57-0.57,0.57H17.4z"/>
					<path class="st1" d="M22.15,40.27v5.55V49c0,0.07-0.06,0.13-0.13,0.13h-0.5v2.91h0.5c0.07,0,0.13,0.06,0.13,0.13v16.56
						c0,0.07-0.06,0.13-0.13,0.13h-0.75h-3.14H17.4c-0.07,0-0.13-0.06-0.13-0.13V48.39c0-0.05,0.03-0.09,0.07-0.12l3.91-2.18v-3.14
						c0-0.07,0.06-0.13,0.13-0.13h0.51v-2.56H22.15 M22.15,39.39h-0.26c-0.49,0-0.88,0.39-0.88,0.88v1.75
						c-0.38,0.15-0.64,0.52-0.64,0.94v2.62l-3.46,1.93c-0.32,0.18-0.52,0.52-0.52,0.89v20.34c0,0.56,0.45,1.01,1.01,1.01h0.73h3.14
						h0.75c0.56,0,1.01-0.45,1.01-1.01V52.17c0-0.42-0.26-0.79-0.63-0.94v-1.3c0.37-0.15,0.63-0.52,0.63-0.94v-3.18v-5.55
						C23.04,39.78,22.64,39.39,22.15,39.39L22.15,39.39z"/>
				</g>
				<g>
					<path class="st1" d="M22.86,69.3c-0.32,0-0.57-0.26-0.57-0.57V56.92c0-0.32,0.26-0.57,0.57-0.57h0.06v-2.03h-0.06
						c-0.32,0-0.57-0.26-0.57-0.57v-8.73c0-0.24,0.2-0.44,0.44-0.44H23c0.24,0,0.44,0.2,0.44,0.44v2.12h0.07
						c0.32,0,0.57,0.26,0.57,0.57v2.88l3.69,2.05c0.18,0.1,0.29,0.29,0.29,0.5v15.58c0,0.32-0.26,0.57-0.57,0.57H22.86z"/>
					<path class="st1" d="M23,45.02v2.56h0.51c0.07,0,0.13,0.06,0.13,0.13v3.14l3.91,2.18c0.04,0.02,0.07,0.07,0.07,0.12v15.59
						c0,0.07-0.06,0.13-0.13,0.13h-0.73h-3.14h-0.75c-0.07,0-0.13-0.06-0.13-0.13V56.92c0-0.07,0.06-0.13,0.13-0.13h0.5v-2.91h-0.5
						c-0.07,0-0.13-0.06-0.13-0.13v-3.18v-5.55H23 M23,44.14h-0.26c-0.49,0-0.88,0.39-0.88,0.88v5.55v3.18
						c0,0.42,0.26,0.79,0.63,0.94v1.3c-0.37,0.15-0.63,0.52-0.63,0.94v11.81c0,0.56,0.45,1.01,1.01,1.01h0.75h3.14h0.73
						c0.56,0,1.01-0.45,1.01-1.01V53.14c0-0.37-0.2-0.71-0.52-0.89l-3.46-1.93v-2.62c0-0.43-0.27-0.8-0.64-0.94v-1.75
						C23.88,44.53,23.48,44.14,23,44.14L23,44.14z"/>
				</g>
			</g>
			<g>
				<g>
					<polyline class="st2" points="22.02,40.27 22.02,45.82 21.38,46.18 21.38,42.96 22.02,42.96 					"/>
					<polygon class="st2" points="20.53,52.17 20.53,49 22.02,49 22.02,45.82 17.4,48.39 17.4,68.73 22.02,68.73 22.02,52.73 
						22.02,52.17 					"/>
					<line class="st2" x1="20.53" y1="49" x2="18.04" y2="49"/>
					<line class="st2" x1="19.89" y1="49" x2="19.89" y2="52.3"/>
					<line class="st2" x1="19.24" y1="49" x2="19.24" y2="52.3"/>
					<line class="st2" x1="18.58" y1="49" x2="18.58" y2="52.3"/>
					<line class="st2" x1="22.02" y1="47.95" x2="20.77" y2="47.95"/>
					<line class="st2" x1="22.02" y1="48.42" x2="21.46" y2="48.42"/>
					<rect x="18.12" y="65.57" class="st2" width="3.14" height="3.16"/>
					<line class="st2" x1="21.27" y1="64.6" x2="19.4" y2="64.6"/>
					<line class="st2" x1="21.27" y1="63.63" x2="19.89" y2="63.63"/>
					<line class="st2" x1="21.27" y1="62.66" x2="18.87" y2="62.66"/>
					<line class="st2" x1="21.27" y1="61.7" x2="19.89" y2="61.7"/>
					<line class="st2" x1="21.27" y1="60.73" x2="19.31" y2="60.73"/>
					<line class="st2" x1="21.27" y1="59.76" x2="18.58" y2="59.76"/>
					<line class="st2" x1="21.27" y1="58.79" x2="19.07" y2="58.79"/>
					<line class="st2" x1="21.27" y1="57.83" x2="19.89" y2="57.83"/>
					<line class="st2" x1="21.27" y1="56.86" x2="19.24" y2="56.86"/>
					<line class="st2" x1="21.27" y1="55.89" x2="19.89" y2="55.89"/>
					<line class="st2" x1="21.27" y1="54.92" x2="18.34" y2="54.92"/>
					<line class="st2" x1="21.27" y1="53.95" x2="19.89" y2="53.95"/>
					<line class="st2" x1="21.27" y1="52.99" x2="19.24" y2="52.99"/>
					<line class="st2" x1="21.39" y1="49" x2="21.39" y2="52.17"/>
					<line class="st3" x1="21.27" y1="53.31" x2="20.37" y2="53.31"/>
					<line class="st3" x1="21.27" y1="54.3" x2="18.81" y2="54.3"/>
					<line class="st3" x1="21.27" y1="55.23" x2="20.17" y2="55.23"/>
					<line class="st3" x1="21.27" y1="56.2" x2="19.31" y2="56.2"/>
					<line class="st3" x1="21.27" y1="57.19" x2="19.71" y2="57.19"/>
					<line class="st3" x1="21.27" y1="58.1" x2="18.58" y2="58.1"/>
					<line class="st3" x1="21.27" y1="59.16" x2="20.33" y2="59.16"/>
					<line class="st3" x1="21.27" y1="60.1" x2="19.6" y2="60.1"/>
					<line class="st3" x1="21.27" y1="61.05" x2="20.72" y2="61.05"/>
					<line class="st3" x1="21.27" y1="62.04" x2="18.81" y2="62.04"/>
					<line class="st3" x1="21.27" y1="63.05" x2="20.49" y2="63.05"/>
					<line class="st3" x1="21.27" y1="64.01" x2="19.89" y2="64.01"/>
					<line class="st3" x1="21.27" y1="64.98" x2="18.87" y2="64.98"/>
					<line class="st3" x1="20.19" y1="49" x2="20.19" y2="50.58"/>
					<line class="st3" x1="19.55" y1="49" x2="19.55" y2="52.06"/>
					<line class="st3" x1="18.9" y1="49" x2="18.9" y2="49.94"/>
					<line class="st3" x1="22.02" y1="47.57" x2="21.03" y2="47.57"/>
					<line class="st3" x1="22.02" y1="39.88" x2="22.02" y2="38.79"/>
					<line class="st3" x1="18.12" y1="66.13" x2="21.27" y2="66.13"/>
					<line class="st3" x1="20.71" y1="66.13" x2="20.71" y2="68.73"/>
					<line class="st3" x1="18.68" y1="66.13" x2="18.68" y2="68.73"/>
					<line class="st3" x1="20.58" y1="49.47" x2="21.38" y2="49.47"/>
					<line class="st3" x1="20.58" y1="50.02" x2="21.38" y2="50.02"/>
					<line class="st3" x1="20.58" y1="50.57" x2="21.38" y2="50.57"/>
					<line class="st3" x1="20.58" y1="51.12" x2="21.38" y2="51.12"/>
					<line class="st3" x1="20.58" y1="51.67" x2="21.38" y2="51.67"/>
				</g>
				<g>
					<polyline class="st2" points="22.86,45.02 22.86,50.57 23.51,50.93 23.51,47.71 22.86,47.71 					"/>
					<polygon class="st2" points="24.35,56.92 24.35,53.75 22.86,53.75 22.86,50.57 27.49,53.14 27.49,68.73 22.86,68.73 
						22.86,57.49 22.86,56.92 					"/>
					<line class="st2" x1="24.35" y1="53.75" x2="26.84" y2="53.75"/>
					<line class="st2" x1="25" y1="53.75" x2="25" y2="57.05"/>
					<line class="st2" x1="25.65" y1="53.75" x2="25.65" y2="57.05"/>
					<line class="st2" x1="26.3" y1="53.75" x2="26.3" y2="57.05"/>
					<line class="st3" x1="22.86" y1="52.7" x2="24.12" y2="52.7"/>
					<line class="st2" x1="22.86" y1="53.17" x2="23.43" y2="53.17"/>
					<rect x="23.62" y="65.57" class="st2" width="3.14" height="3.16"/>
					<line class="st2" x1="23.62" y1="64.51" x2="26.3" y2="64.51"/>
					<line class="st2" x1="23.62" y1="63.54" x2="25.82" y2="63.54"/>
					<line class="st2" x1="23.62" y1="62.58" x2="25" y2="62.58"/>
					<line class="st2" x1="23.62" y1="61.61" x2="25.65" y2="61.61"/>
					<line class="st2" x1="23.62" y1="60.64" x2="25" y2="60.64"/>
					<line class="st2" x1="23.62" y1="59.67" x2="26.54" y2="59.67"/>
					<line class="st2" x1="23.62" y1="58.71" x2="25" y2="58.71"/>
					<line class="st2" x1="23.62" y1="57.74" x2="25.65" y2="57.74"/>
					<line class="st2" x1="23.49" y1="53.75" x2="23.49" y2="56.92"/>
					<line class="st3" x1="24.15" y1="68.73" x2="24.15" y2="66.07"/>
					<line class="st3" x1="26.18" y1="68.73" x2="26.18" y2="66.07"/>
					<line class="st3" x1="23.62" y1="66.07" x2="26.76" y2="66.07"/>
					<line class="st3" x1="23.62" y1="63.89" x2="24.9" y2="63.89"/>
					<line class="st3" x1="23.62" y1="59.98" x2="24.9" y2="59.98"/>
					<line class="st3" x1="23.62" y1="58.1" x2="24.9" y2="58.1"/>
					<line class="st3" x1="23.62" y1="61.94" x2="26.24" y2="61.94"/>
					<line class="st3" x1="23.62" y1="59.05" x2="26.24" y2="59.05"/>
					<line class="st3" x1="23.62" y1="62.92" x2="24.26" y2="62.92"/>
					<line class="st3" x1="23.62" y1="60.96" x2="24.26" y2="60.96"/>
					<line class="st3" x1="23.62" y1="64.89" x2="25.75" y2="64.89"/>
					<line class="st3" x1="25.98" y1="53.75" x2="25.98" y2="55.67"/>
					<line class="st3" x1="25.32" y1="53.75" x2="25.32" y2="54.85"/>
					<line class="st3" x1="24.66" y1="53.73" x2="24.66" y2="55.99"/>
					<line class="st3" x1="24.35" y1="54.37" x2="23.49" y2="54.37"/>
					<line class="st3" x1="24.35" y1="54.87" x2="23.49" y2="54.87"/>
					<line class="st3" x1="24.35" y1="55.36" x2="23.49" y2="55.36"/>
					<line class="st3" x1="24.35" y1="55.86" x2="23.49" y2="55.86"/>
					<line class="st3" x1="24.35" y1="56.35" x2="23.49" y2="56.35"/>
					<line class="st3" x1="22.86" y1="52.25" x2="24.66" y2="52.25"/>
					<line class="st3" x1="22.86" y1="44.69" x2="22.86" y2="43.08"/>
				</g>
			</g>
		</g>
		<g>
			<g>
				<g>
					<path class="st1" d="M78.57,69.3c-0.32,0-0.57-0.26-0.57-0.57v-3.95c-0.21-0.08-0.36-0.29-0.36-0.53v-0.47
						c0-0.32,0.26-0.57,0.57-0.57h4.17v-2.9c-0.15-0.05-0.27-0.16-0.34-0.31l-0.26-0.6c-0.08-0.18-0.06-0.38,0.05-0.55
						c0.1-0.15,0.28-0.25,0.47-0.25h0.12c0.14-0.39,0.4-0.73,0.75-0.95l0.04-1.67c-0.31,0-0.56-0.26-0.56-0.57v-0.56
						c0-0.32,0.26-0.57,0.57-0.57h0.03l0.05-2.6c0-0.03,0.01-0.07,0.02-0.12c0.06-0.44,0.44-0.77,0.89-0.77
						c0.48,0,0.88,0.38,0.9,0.86l0.06,2.63h0.03c0.32,0,0.57,0.26,0.57,0.57v0.56c0,0.32-0.26,0.57-0.57,0.57l0.04,1.73
						c0.46,0.33,0.75,0.86,0.77,1.43l0,0.78h0.88v-1.32c0-0.04,0.01-0.1,0.03-0.16c0.08-1.64,1.31-2.99,2.89-3.26v-0.44
						c0-0.24,0.2-0.44,0.44-0.44h0.26c0.24,0,0.44,0.2,0.44,0.44v0.44c1.57,0.26,2.79,1.59,2.89,3.21c0.03,0.07,0.04,0.14,0.04,0.22
						v1.32h0.87v-0.75c0-0.02,0-0.05,0.01-0.07c0.04-0.6,0.37-1.14,0.86-1.45l0.04-1.67c-0.31-0.01-0.56-0.26-0.56-0.57v-0.56
						c0-0.32,0.26-0.57,0.57-0.57h0.03l0.05-2.6c0-0.03,0.01-0.07,0.02-0.12c0.06-0.44,0.44-0.77,0.89-0.77
						c0.48,0,0.88,0.38,0.9,0.86l0.06,2.63h0.03c0.32,0,0.57,0.26,0.57,0.57v0.56c0,0.32-0.26,0.57-0.57,0.57l0.04,1.73
						c0.31,0.22,0.54,0.53,0.67,0.89h0.12c0.19,0,0.37,0.1,0.48,0.26c0.1,0.16,0.12,0.36,0.05,0.53l-0.26,0.6
						c-0.06,0.15-0.19,0.26-0.34,0.32v2.9h4.17c0.32,0,0.57,0.26,0.57,0.57v0.47c0,0.24-0.15,0.45-0.36,0.53v3.95
						c0,0.32-0.26,0.57-0.57,0.57H78.57z"/>
					<path class="st1" d="M96.68,51.23c0.25,0,0.45,0.19,0.46,0.44c0,0.01,0,0.01,0,0.02l0.06,3.03h0.46c0.07,0,0.13,0.06,0.13,0.13
						v0.56c0,0.07-0.06,0.13-0.13,0.13h-0.45l0.05,2.42c0.41,0.21,0.7,0.61,0.76,1.08h0.47c0.04,0,0.09,0.02,0.11,0.06
						c0.02,0.04,0.03,0.08,0.01,0.12l-0.25,0.59c-0.02,0.05-0.07,0.08-0.12,0.08H98v3.75h4.61c0.07,0,0.13,0.06,0.13,0.13v0.47
						c0,0.07-0.06,0.13-0.13,0.13h-0.23v4.35c0,0.07-0.06,0.13-0.13,0.13h-4.38c0,0,0,0,0,0h-0.53h-1.45h-0.53h-1.22h-1.58h-1.35
						h-1.58h-1.35h-1.58h-1.23h-0.52h-1.45h-0.54h-4.38c-0.07,0-0.13-0.06-0.13-0.13v-4.35h-0.23c-0.07,0-0.13-0.06-0.13-0.13v-0.47
						c0-0.07,0.06-0.13,0.13-0.13h4.61v-3.75h-0.25c-0.05,0-0.1-0.03-0.12-0.08l-0.25-0.59c-0.02-0.04-0.01-0.09,0.01-0.12
						c0.02-0.04,0.07-0.06,0.11-0.06h0.47c0.06-0.51,0.39-0.93,0.84-1.12l0.05-2.38h-0.44c-0.07,0-0.13-0.06-0.13-0.13v-0.56
						c0-0.07,0.06-0.13,0.13-0.13h0.46l0.06-3.03c0-0.02,0-0.03,0.01-0.05c0.03-0.23,0.22-0.41,0.46-0.41
						c0.25,0,0.45,0.19,0.46,0.44c0,0.01,0,0.01,0,0.02l0.06,3.03h0.46c0.07,0,0.13,0.06,0.13,0.13v0.56c0,0.07-0.06,0.13-0.13,0.13
						h-0.45l0.05,2.42c0.44,0.23,0.75,0.68,0.77,1.2c0,0,0,0.01,0,0.01v0.59v0.59h1.76v-1.76c0-0.03,0.01-0.06,0.03-0.08
						c0.04-1.59,1.31-2.88,2.9-2.95v-0.83h0.26v0.83c1.58,0.07,2.85,1.35,2.9,2.93c0.02,0.02,0.04,0.06,0.04,0.09v1.76h1.75v-0.59
						c0,0,0,0,0,0v-0.59c0-0.01,0-0.01,0-0.01c0.02-0.56,0.37-1.03,0.85-1.24l0.05-2.38h-0.44c-0.07,0-0.13-0.06-0.13-0.13v-0.56
						c0-0.07,0.06-0.13,0.13-0.13h0.46l0.06-3.03c0-0.02,0-0.03,0.01-0.05C96.25,51.4,96.45,51.23,96.68,51.23 M96.68,50.34
						c-0.65,0-1.2,0.46-1.32,1.09c-0.02,0.08-0.03,0.16-0.03,0.24l-0.05,2.25c-0.36,0.16-0.61,0.51-0.61,0.93v0.56
						c0,0.39,0.23,0.74,0.56,0.91l-0.02,1.11c-0.48,0.38-0.79,0.95-0.85,1.57v-0.39c0-0.11-0.02-0.21-0.05-0.31
						c-0.13-1.66-1.32-3.04-2.89-3.46v-0.08c0-0.49-0.39-0.88-0.88-0.88h-0.26c-0.49,0-0.88,0.39-0.88,0.88v0.08
						c-1.58,0.43-2.77,1.83-2.89,3.51c-0.02,0.09-0.04,0.18-0.04,0.27v0.49c0-0.01,0-0.01,0-0.02c-0.04-0.61-0.32-1.18-0.77-1.57
						l-0.02-1.18c0.33-0.17,0.56-0.51,0.56-0.91v-0.56c0-0.42-0.25-0.78-0.61-0.93l-0.05-2.25c0-0.02,0-0.04,0-0.07
						c-0.05-0.7-0.63-1.25-1.34-1.25c-0.65,0-1.2,0.46-1.32,1.09c-0.02,0.07-0.03,0.15-0.03,0.23l-0.05,2.26
						c-0.36,0.16-0.61,0.51-0.61,0.93v0.56c0,0.39,0.23,0.74,0.56,0.91l-0.02,1.11c-0.26,0.2-0.47,0.46-0.61,0.75
						c-0.27,0.05-0.52,0.2-0.68,0.44c-0.19,0.28-0.22,0.64-0.09,0.96l0.25,0.59c0.07,0.16,0.17,0.29,0.3,0.4v2.21h-3.73
						c-0.56,0-1.01,0.45-1.01,1.01v0.47c0,0.31,0.14,0.59,0.36,0.78v3.71c0,0.56,0.45,1.01,1.01,1.01h4.38h0.54h1.45h0.52h1.23h1.58
						h1.35h1.58h1.35h1.58h1.22h0.53h1.45h0.53l4.38,0c0.56,0,1.01-0.45,1.01-1.01v-3.71c0.22-0.19,0.36-0.47,0.36-0.78v-0.47
						c0-0.56-0.45-1.01-1.01-1.01h-3.73v-2.2c0.13-0.1,0.24-0.24,0.3-0.4l0.25-0.59c0.13-0.31,0.1-0.67-0.09-0.96
						c-0.15-0.23-0.4-0.39-0.67-0.44c-0.13-0.26-0.31-0.49-0.53-0.68l-0.02-1.18c0.33-0.17,0.56-0.51,0.56-0.91v-0.56
						c0-0.42-0.25-0.78-0.61-0.93l-0.05-2.25c0-0.02,0-0.04,0-0.07C97.98,50.89,97.39,50.34,96.68,50.34L96.68,50.34z"/>
				</g>
				<g>
					<path class="st1" d="M90.28,54.71c-0.12,0-0.22-0.1-0.22-0.22v-0.3c0-0.12,0.1-0.22,0.22-0.22h0.26c0.12,0,0.22,0.1,0.22,0.22
						v0.3c0,0.12-0.1,0.22-0.22,0.22H90.28z"/>
					<path class="st1" d="M90.55,54.19v0.3h-0.26v-0.3H90.55 M90.55,53.75h-0.26c-0.24,0-0.44,0.2-0.44,0.44v0.3
						c0,0.24,0.2,0.44,0.44,0.44h0.26c0.24,0,0.44-0.2,0.44-0.44v-0.3C90.99,53.95,90.79,53.75,90.55,53.75L90.55,53.75z"/>
				</g>
			</g>
			<g>
				<rect x="82.95" y="59.76" class="st2" width="2.51" height="8.97"/>
				<polyline class="st2" points="95.36,61.74 95.36,68.73 97.87,68.73 97.87,59.76 95.36,59.76 95.36,61.74 				"/>
				<rect x="85.46" y="60.49" class="st2" width="9.9" height="8.24"/>
				<rect x="86.69" y="65.33" class="st2" width="1.58" height="3.4"/>
				<path class="st2" d="M88.28,62.45c0-0.44-0.8-0.95-0.8-0.95s-0.8,0.51-0.8,0.95c0,0.03,0,0.06,0.01,0.09v1.58h1.58v-1.58
					C88.28,62.51,88.28,62.48,88.28,62.45z"/>
				<path class="st3" d="M87.68,61.63c-0.24,0.18-0.6,0.52-0.6,0.81c0,0.03,0,0.06,0.01,0.09v1.58h0.58"/>
				<path class="st3" d="M90.58,61.63c-0.24,0.18-0.6,0.52-0.6,0.81c0,0.03,0,0.06,0.01,0.09v1.58h0.58"/>
				<path class="st3" d="M93.54,61.63c-0.24,0.18-0.6,0.52-0.6,0.81c0,0.03,0,0.06,0.01,0.09v1.58h0.58"/>
				<path class="st2" d="M80.51,66.29c0-0.24-0.43-0.52-0.43-0.52s-0.43,0.28-0.43,0.52c0,0.02,0,0.03,0,0.05v0.86h0.86v-0.86
					C80.51,66.33,80.51,66.31,80.51,66.29z"/>
				<path class="st2" d="M81.88,66.29c0-0.24-0.43-0.52-0.43-0.52s-0.43,0.28-0.43,0.52c0,0.02,0,0.03,0,0.05v0.86h0.86v-0.86
					C81.88,66.33,81.88,66.31,81.88,66.29z"/>
				<line class="st2" x1="86.29" y1="62.3" x2="86.29" y2="68.72"/>
				<line class="st2" x1="88.67" y1="62.3" x2="88.67" y2="68.72"/>
				<rect x="89.62" y="65.33" class="st2" width="1.58" height="3.4"/>
				<path class="st2" d="M91.21,62.45c0-0.44-0.8-0.95-0.8-0.95s-0.8,0.51-0.8,0.95c0,0.03,0,0.06,0.01,0.09v1.58h1.58v-1.58
					C91.21,62.51,91.21,62.48,91.21,62.45z"/>
				<line class="st2" x1="89.22" y1="62.3" x2="89.22" y2="68.72"/>
				<line class="st2" x1="91.6" y1="62.3" x2="91.6" y2="68.72"/>
				<rect x="92.55" y="65.33" class="st2" width="1.58" height="3.4"/>
				<path class="st2" d="M94.14,62.45c0-0.44-0.8-0.95-0.8-0.95s-0.8,0.51-0.8,0.95c0,0.03,0,0.06,0.01,0.09v1.58h1.58v-1.58
					C94.14,62.51,94.14,62.48,94.14,62.45z"/>
				<line class="st2" x1="92.15" y1="62.3" x2="92.15" y2="68.72"/>
				<line class="st2" x1="94.53" y1="62.3" x2="94.53" y2="68.72"/>
				<rect x="83.49" y="61.34" class="st2" width="1.45" height="7.38"/>
				<rect x="95.89" y="61.34" class="st2" width="1.45" height="7.38"/>
				<line class="st2" x1="82.57" y1="64.8" x2="85.46" y2="64.8"/>
				<line class="st2" x1="95.36" y1="64.8" x2="98.18" y2="64.8"/>
				<rect x="78.57" y="64.24" class="st2" width="4.38" height="4.48"/>
				<rect x="78.21" y="63.78" class="st2" width="4.74" height="0.47"/>
				<path class="st2" d="M100.31,66.29c0-0.24,0.43-0.52,0.43-0.52s0.43,0.28,0.43,0.52c0,0.02,0,0.03,0,0.05v0.86h-0.86v-0.86
					C100.31,66.33,100.31,66.31,100.31,66.29z"/>
				<path class="st2" d="M98.94,66.29c0-0.24,0.43-0.52,0.43-0.52s0.43,0.28,0.43,0.52c0,0.02,0,0.03,0,0.05v0.86h-0.86v-0.86
					C98.94,66.33,98.94,66.31,98.94,66.29z"/>
				<rect x="97.87" y="64.25" class="st2" width="4.38" height="4.48"/>
				<rect x="97.87" y="63.78" class="st2" width="4.74" height="0.47"/>
				<rect x="87.48" y="58.59" class="st2" width="5.86" height="1.89"/>
				<path class="st2" d="M87.51,58.59c0-1.6,1.3-2.9,2.9-2.9c1.6,0,2.9,1.3,2.9,2.9"/>
				<line class="st3" x1="90.41" y1="55.7" x2="90.41" y2="54.73"/>
				<line class="st2" x1="88.16" y1="56.77" x2="90" y2="58.62"/>
				<line class="st2" x1="87.68" y1="57.62" x2="88.67" y2="58.62"/>
				<line class="st3" x1="87.88" y1="57.19" x2="89.27" y2="58.62"/>
				<line class="st2" x1="88.89" y1="56.13" x2="91.34" y2="58.62"/>
				<line class="st3" x1="88.6" y1="56.33" x2="90.85" y2="58.62"/>
				<line class="st2" x1="89.82" y1="55.76" x2="92.67" y2="58.62"/>
				<line class="st3" x1="90.41" y1="55.7" x2="93.31" y2="58.59"/>
				<line class="st2" x1="91.05" y1="55.76" x2="93.23" y2="57.94"/>
				<line class="st3" x1="90.41" y1="54.49" x2="90.41" y2="54.19"/>
				<polygon class="st2" points="85.46,59.76 82.57,59.76 82.31,59.17 85.46,59.17 				"/>
				<polygon class="st2" points="95.36,59.76 98.25,59.76 98.51,59.17 95.36,59.17 				"/>
				<path class="st2" d="M82.9,59.21c0-0.71,0.57-1.28,1.28-1.28c0.71,0,1.28,0.57,1.28,1.28"/>
				<line class="st2" x1="83.81" y1="55.4" x2="83.76" y2="58"/>
				<line class="st2" x1="84.69" y1="58" x2="84.64" y2="55.4"/>
				<rect x="83.24" y="54.85" class="st2" width="1.98" height="0.56"/>
				<path class="st2" d="M84.62,54.85l-0.07-3.16h0c0-0.18-0.15-0.33-0.33-0.33s-0.33,0.15-0.33,0.33h-0.01l-0.07,3.16"/>
				<path class="st2" d="M95.36,59.21c0-0.71,0.57-1.28,1.28-1.28c0.71,0,1.28,0.57,1.28,1.28"/>
				<line class="st2" x1="96.27" y1="55.4" x2="96.21" y2="58"/>
				<line class="st2" x1="97.15" y1="58" x2="97.09" y2="55.4"/>
				<rect x="95.69" y="54.85" class="st2" width="1.98" height="0.56"/>
				<path class="st2" d="M97.08,54.85l-0.07-3.16h0c0-0.18-0.15-0.33-0.33-0.33s-0.33,0.15-0.33,0.33h-0.01l-0.07,3.16"/>
				<line class="st3" x1="87.08" y1="65.33" x2="87.08" y2="68.72"/>
				<line class="st3" x1="89.98" y1="65.33" x2="89.98" y2="68.73"/>
				<line class="st3" x1="92.93" y1="65.33" x2="92.93" y2="68.72"/>
				<path class="st3" d="M83.34,59.21c0-0.71,0.38-1.28,0.84-1.28c0.46,0,0.84,0.57,0.84,1.28"/>
				<path class="st3" d="M83.9,59.21c0-0.71,0.13-1.28,0.28-1.28c0.16,0,0.28,0.57,0.28,1.28"/>
				<line class="st3" x1="84.56" y1="61.34" x2="84.56" y2="68.73"/>
				<line class="st3" x1="83.9" y1="61.34" x2="83.9" y2="68.73"/>
				<line class="st3" x1="79.48" y1="67.54" x2="80.68" y2="67.54"/>
				<line class="st3" x1="80.85" y1="67.54" x2="82.05" y2="67.54"/>
				<line class="st3" x1="98.77" y1="67.54" x2="99.97" y2="67.54"/>
				<line class="st3" x1="100.14" y1="67.54" x2="101.34" y2="67.54"/>
				<line class="st3" x1="84.23" y1="55.4" x2="84.23" y2="57.93"/>
				<line class="st3" x1="84.23" y1="51" x2="84.23" y2="50.67"/>
				<path class="st3" d="M95.77,59.21c0-0.71,0.38-1.28,0.84-1.28c0.46,0,0.84,0.57,0.84,1.28"/>
				<path class="st3" d="M96.33,59.21c0-0.71,0.13-1.28,0.28-1.28c0.16,0,0.28,0.57,0.28,1.28"/>
				<line class="st3" x1="96.99" y1="61.34" x2="96.99" y2="68.73"/>
				<line class="st3" x1="96.33" y1="61.34" x2="96.33" y2="68.73"/>
				<line class="st3" x1="96.66" y1="55.4" x2="96.66" y2="57.93"/>
				<line class="st3" x1="96.66" y1="51" x2="96.66" y2="50.67"/>
				<polyline class="st3" points="88.06,60.49 88.06,59.21 88.71,59.21 				"/>
				<polyline class="st3" points="89.39,60.49 89.39,59.21 90.04,59.21 				"/>
				<polyline class="st3" points="90.72,60.49 90.72,59.21 91.37,59.21 				"/>
				<polyline class="st3" points="92.05,60.49 92.05,59.21 92.7,59.21 				"/>
			</g>
		</g>
		<g>
			<g>
				<g>
					<path class="st1" d="M63.85,69.29c-0.32,0-0.57-0.26-0.57-0.57V50.57c0-0.32,0.26-0.57,0.57-0.57h12.88
						c0.32,0,0.57,0.26,0.57,0.57v18.15c0,0.32-0.26,0.57-0.57,0.57H63.85z M74.7,66.79V52.5h-8.83v14.29H74.7z"/>
					<path class="st1" d="M76.72,50.44c0.07,0,0.13,0.06,0.13,0.13v18.15c0,0.07-0.06,0.13-0.13,0.13H63.85
						c-0.07,0-0.13-0.06-0.13-0.13V50.57c0-0.07,0.06-0.13,0.13-0.13H76.72 M65.43,67.23h9.71V52.06h-9.71V67.23 M76.72,49.56H63.85
						c-0.56,0-1.01,0.46-1.01,1.01v18.15c0,0.56,0.45,1.01,1.01,1.01h12.88c0.56,0,1.01-0.45,1.01-1.01V50.57
						C77.74,50.01,77.28,49.56,76.72,49.56L76.72,49.56z M66.31,52.94h7.95v13.41h-7.95V52.94L66.31,52.94z"/>
				</g>
				<path class="st5" d="M76.13,67.67v-0.26h0.46v-2.67h-0.31v-0.26h0.31v-2.43h-0.46v-0.26h0.46v-0.25H76.5v-0.26h0.09v-2.34h-0.46
					v-0.26h0.46v-0.31h-0.31v-0.26h0.31v-2.64h-0.16v-0.26h0.16V52.9h-0.31v-0.26h0.31V52.3h-1.19v1.19h0.41v0.26h-0.41v2.69h0.33
					v0.26h-0.33v0.26h0.51v0.26h-0.51v2.52h0.51v0.26h-0.51v0.2h0.33v0.26h-0.33v1.93h0.41v0.26h-0.41V63h0.51v0.26h-0.51v1.6h0.63
					v0.26h-0.63v0.66h0.33v0.26h-0.33v0.53h0.19v0.26h-0.19v0.52c0,0.07-0.06,0.13-0.13,0.13h-9.98c-0.07,0-0.13-0.06-0.13-0.13
					V66.1h-0.35v-0.26h0.35v-1.73h-0.35v-0.26h0.35v-1.45H64.6v-0.26h0.56v-1.63h-0.42v-0.26h0.42v-1.07h-0.35v-0.26h0.35v-1.65
					h-0.42v-0.26h0.42v-1.96h-0.25v-0.26h0.25v-0.3h-0.48v-0.26h0.48v-1.7h-0.48v-0.26h0.48v-0.3c0-0.07,0.06-0.13,0.13-0.13h9.98
					c0.07,0,0.13,0.06,0.13,0.13v0.11h1.19v-0.29h-0.31v-0.26h0.31V50.7H63.98v0.17h0.46v0.26h-0.46v0.23h0.16v0.26h-0.16v1.39h0.31
					v0.26h-0.31v0.15h0.7v0.26h-0.7v1.68h0.55v0.26h-0.55v2.31h0.47v0.26h-0.47v1.42h0.55v0.26h-0.55V63h0.47v0.26h-0.47v1.88h0.47
					v0.26h-0.47v1.17h0.47v0.26h-0.47v1.11h0.29v0.26h-0.29v0.37h12.61v-0.92H76.13z M75.08,51.1h0.43v0.26h-0.43V51.1z M74,50.76
					h0.31v0.26H74V50.76z M73.23,51.37h0.51v0.26h-0.51V51.37z M72.22,50.96h0.33v0.26h-0.33V50.96z M71,51.22h0.48v0.26H71V51.22z
					 M69.61,51.1h0.58v0.26h-0.58V51.1z M68.95,51.48h0.48v0.26h-0.48V51.48z M67.9,50.76h0.51v0.26H67.9V50.76z M67.27,51.22h0.51
					v0.26h-0.51V51.22z M65.64,50.96h0.2v0.26h-0.2V50.96z M64.45,56.71v-0.26h0.36v0.26H64.45z M64.45,61.63h0.3v0.26h-0.3V61.63z
					 M64.45,64.53h0.36v0.26h-0.36V64.53z M66.02,68.11h-0.72v-0.26h0.72V68.11z M68.01,68.38h-0.4v-0.26h0.4V68.38z M68.44,67.93
					H68.1v-0.26h0.35V67.93z M70.19,68.03h-0.41v-0.26h0.41V68.03z M71.12,68.38h-0.28v-0.26h0.28V68.38z M71.69,68.03h-0.36v-0.26
					h0.36V68.03z M73.71,68.38h-0.45v-0.26h0.45V68.38z M74.1,67.93h-0.48v-0.26h0.48V67.93z M75.74,68.26h-0.38V68h0.38V68.26z
					 M75.74,54.29v-0.26h0.4v0.26H75.74z"/>
				<rect x="65.43" y="52.06" class="st5" width="9.71" height="15.17"/>
				<rect x="75.74" y="54.02" width="0.4" height="0.26"/>
				<rect x="75.08" y="51.1" width="0.43" height="0.26"/>
				<rect x="73.23" y="51.37" width="0.51" height="0.26"/>
				<rect x="74" y="50.76" width="0.31" height="0.26"/>
				<rect x="71" y="51.22" width="0.48" height="0.26"/>
				<rect x="72.22" y="50.96" width="0.33" height="0.26"/>
				<rect x="68.95" y="51.48" width="0.48" height="0.26"/>
				<rect x="69.61" y="51.1" width="0.58" height="0.26"/>
				<rect x="67.9" y="50.76" width="0.51" height="0.26"/>
				<rect x="67.27" y="51.22" width="0.51" height="0.26"/>
				<rect x="65.64" y="50.96" width="0.2" height="0.26"/>
				<rect x="64.45" y="56.45" width="0.36" height="0.26"/>
				<rect x="64.45" y="61.63" width="0.3" height="0.26"/>
				<rect x="64.45" y="64.53" width="0.36" height="0.26"/>
				<rect x="65.29" y="67.85" width="0.72" height="0.26"/>
				<rect x="68.1" y="67.67" width="0.35" height="0.26"/>
				<rect x="67.62" y="68.12" width="0.4" height="0.26"/>
				<rect x="71.33" y="67.77" width="0.36" height="0.26"/>
				<rect x="70.84" y="68.12" width="0.28" height="0.26"/>
				<rect x="69.78" y="67.77" width="0.41" height="0.26"/>
				<rect x="73.62" y="67.67" width="0.48" height="0.26"/>
				<rect x="73.26" y="68.12" width="0.45" height="0.26"/>
				<rect x="75.36" y="68" width="0.38" height="0.26"/>
			</g>
			<g>
				<rect x="63.85" y="50.57" class="st2" width="12.88" height="18.15"/>
				<rect x="65.29" y="51.93" class="st2" width="9.98" height="15.43"/>
				<line class="st2" x1="75.27" y1="65.92" x2="75.74" y2="65.92"/>
				<line class="st2" x1="76.28" y1="64.6" x2="76.72" y2="64.6"/>
				<line class="st2" x1="75.36" y1="65" x2="76.03" y2="65"/>
				<line class="st2" x1="75.27" y1="63.13" x2="75.92" y2="63.13"/>
				<line class="st2" x1="75.27" y1="62.55" x2="75.82" y2="62.55"/>
				<line class="st2" x1="76.72" y1="61.91" x2="76.13" y2="61.91"/>
				<line class="st2" x1="76.72" y1="61.4" x2="76.5" y2="61.4"/>
				<line class="st2" x1="75.27" y1="60.36" x2="75.74" y2="60.36"/>
				<line class="st2" x1="75.27" y1="59.9" x2="75.92" y2="59.9"/>
				<line class="st2" x1="76.72" y1="58.79" x2="76.13" y2="58.79"/>
				<line class="st2" x1="76.72" y1="58.22" x2="76.28" y2="58.22"/>
				<line class="st2" x1="75.27" y1="57.11" x2="75.92" y2="57.11"/>
				<line class="st2" x1="75.36" y1="56.58" x2="75.74" y2="56.58"/>
				<line class="st2" x1="76.72" y1="55.31" x2="76.43" y2="55.31"/>
				<line class="st2" x1="75.74" y1="54.16" x2="76.13" y2="54.16"/>
				<line class="st2" x1="75.27" y1="53.63" x2="75.82" y2="53.63"/>
				<line class="st2" x1="76.28" y1="52.77" x2="76.72" y2="52.77"/>
				<line class="st2" x1="75.27" y1="52.17" x2="76" y2="52.17"/>
				<line class="st2" x1="76.28" y1="51.62" x2="76.72" y2="51.62"/>
				<line class="st2" x1="75.08" y1="51.24" x2="75.5" y2="51.24"/>
				<line class="st2" x1="73.23" y1="51.5" x2="73.74" y2="51.5"/>
				<line class="st2" x1="74" y1="50.89" x2="74.32" y2="50.89"/>
				<line class="st2" x1="71" y1="51.35" x2="71.48" y2="51.35"/>
				<line class="st2" x1="72.22" y1="51.09" x2="72.55" y2="51.09"/>
				<line class="st2" x1="68.95" y1="51.62" x2="69.43" y2="51.62"/>
				<line class="st2" x1="69.61" y1="51.24" x2="70.19" y2="51.24"/>
				<line class="st2" x1="67.9" y1="50.89" x2="68.41" y2="50.89"/>
				<line class="st2" x1="67.27" y1="51.35" x2="67.78" y2="51.35"/>
				<line class="st2" x1="64.43" y1="51" x2="63.85" y2="51"/>
				<line class="st2" x1="64.14" y1="51.5" x2="63.85" y2="51.5"/>
				<line class="st2" x1="64.68" y1="52.36" x2="65.29" y2="52.36"/>
				<line class="st2" x1="65.64" y1="51.09" x2="65.84" y2="51.09"/>
				<line class="st2" x1="64.28" y1="53.15" x2="63.85" y2="53.15"/>
				<line class="st2" x1="64.68" y1="53.56" x2="63.85" y2="53.56"/>
				<line class="st2" x1="64.68" y1="54.32" x2="65.29" y2="54.32"/>
				<line class="st2" x1="64.91" y1="54.88" x2="65.29" y2="54.88"/>
				<line class="st2" x1="64.53" y1="55.51" x2="63.85" y2="55.51"/>
				<line class="st2" x1="64.45" y1="56.58" x2="64.81" y2="56.58"/>
				<line class="st2" x1="64.75" y1="57.11" x2="65.29" y2="57.11"/>
				<line class="st2" x1="64.45" y1="58.08" x2="63.85" y2="58.08"/>
				<line class="st2" x1="64.81" y1="59.02" x2="65.29" y2="59.02"/>
				<line class="st2" x1="64.53" y1="59.77" x2="63.85" y2="59.77"/>
				<line class="st2" x1="64.75" y1="60.36" x2="65.29" y2="60.36"/>
				<line class="st2" x1="64.45" y1="61.76" x2="64.75" y2="61.76"/>
				<line class="st2" x1="64.6" y1="62.26" x2="65.29" y2="62.26"/>
				<line class="st2" x1="64.45" y1="63.13" x2="63.85" y2="63.13"/>
				<line class="st2" x1="64.81" y1="63.97" x2="65.29" y2="63.97"/>
				<line class="st2" x1="64.45" y1="64.67" x2="64.81" y2="64.67"/>
				<line class="st2" x1="64.45" y1="65.28" x2="63.85" y2="65.28"/>
				<line class="st2" x1="64.81" y1="65.97" x2="65.29" y2="65.97"/>
				<line class="st2" x1="64.45" y1="66.71" x2="63.85" y2="66.71"/>
				<line class="st2" x1="64.27" y1="68.08" x2="63.85" y2="68.08"/>
				<line class="st2" x1="65.29" y1="67.98" x2="66.02" y2="67.98"/>
				<line class="st2" x1="68.1" y1="67.8" x2="68.44" y2="67.8"/>
				<line class="st2" x1="67.62" y1="68.25" x2="68.01" y2="68.25"/>
				<line class="st2" x1="71.33" y1="67.9" x2="71.69" y2="67.9"/>
				<line class="st2" x1="70.84" y1="68.25" x2="71.12" y2="68.25"/>
				<line class="st2" x1="69.78" y1="67.9" x2="70.19" y2="67.9"/>
				<line class="st2" x1="73.62" y1="67.8" x2="74.1" y2="67.8"/>
				<line class="st2" x1="73.26" y1="68.25" x2="73.71" y2="68.25"/>
				<line class="st2" x1="75.36" y1="68.13" x2="75.74" y2="68.13"/>
				<line class="st2" x1="76.13" y1="67.54" x2="76.72" y2="67.54"/>
				<line class="st2" x1="75.6" y1="66.71" x2="75.27" y2="66.71"/>
				<line class="st2" x1="76.28" y1="60.36" x2="76.61" y2="60.36"/>
				<line class="st3" x1="75.29" y1="61.17" x2="75.69" y2="61.17"/>
				<line class="st3" x1="76.28" y1="62.81" x2="76.61" y2="62.81"/>
				<line class="st3" x1="76.43" y1="63.04" x2="76.72" y2="63.04"/>
				<line class="st3" x1="75.36" y1="64.01" x2="75.82" y2="64.01"/>
				<line class="st3" x1="75.69" y1="64.42" x2="75.92" y2="64.42"/>
				<line class="st3" x1="76.43" y1="65.04" x2="76.61" y2="65.04"/>
				<line class="st3" x1="76.43" y1="65.51" x2="76.72" y2="65.51"/>
				<line class="st3" x1="76.28" y1="65.77" x2="76.72" y2="65.77"/>
				<line class="st3" x1="75.74" y1="65.51" x2="76.03" y2="65.51"/>
				<line class="st3" x1="75.93" y1="66.49" x2="76.43" y2="66.49"/>
				<line class="st3" x1="76.28" y1="66.76" x2="76.85" y2="66.76"/>
				<line class="st3" x1="75.41" y1="67.2" x2="75.88" y2="67.2"/>
				<line class="st3" x1="75.36" y1="67.67" x2="75.6" y2="67.67"/>
				<line class="st3" x1="76.28" y1="68.13" x2="76.72" y2="68.13"/>
				<line class="st3" x1="72.5" y1="68.25" x2="72.84" y2="68.25"/>
				<line class="st3" x1="72.75" y1="68" x2="73.26" y2="68"/>
				<line class="st3" x1="74.42" y1="68.25" x2="74.9" y2="68.25"/>
				<line class="st3" x1="72" y1="67.93" x2="72.22" y2="67.93"/>
				<line class="st3" x1="69.99" y1="68.26" x2="70.28" y2="68.26"/>
				<line class="st3" x1="70.53" y1="67.93" x2="70.63" y2="67.93"/>
				<line class="st3" x1="69.09" y1="67.85" x2="69.38" y2="67.85"/>
				<line class="st3" x1="68.57" y1="68.25" x2="69.01" y2="68.25"/>
				<line class="st3" x1="66.39" y1="68.38" x2="66.82" y2="68.38"/>
				<line class="st3" x1="67.05" y1="68.04" x2="67.28" y2="68.04"/>
				<line class="st3" x1="66.39" y1="67.77" x2="66.63" y2="67.77"/>
				<line class="st3" x1="64.75" y1="68.25" x2="65.05" y2="68.25"/>
				<line class="st3" x1="63.95" y1="67.77" x2="64.41" y2="67.77"/>
				<line class="st3" x1="64.33" y1="67.23" x2="64.63" y2="67.23"/>
				<line class="st3" x1="64.9" y1="66.37" x2="65.29" y2="66.37"/>
				<line class="st3" x1="64.27" y1="65.68" x2="63.95" y2="65.68"/>
				<line class="st3" x1="64.26" y1="64.3" x2="64.6" y2="64.3"/>
				<line class="st3" x1="64.9" y1="63.15" x2="65.29" y2="63.15"/>
				<line class="st3" x1="64.26" y1="61.76" x2="63.85" y2="61.76"/>
				<line class="st3" x1="64.27" y1="61.37" x2="63.85" y2="61.37"/>
				<line class="st3" x1="64.91" y1="60.73" x2="65.19" y2="60.73"/>
				<line class="st3" x1="64.43" y1="60.73" x2="64.27" y2="60.73"/>
				<line class="st3" x1="64.26" y1="59.43" x2="63.85" y2="59.43"/>
				<line class="st3" x1="64.85" y1="58.4" x2="65.29" y2="58.4"/>
				<line class="st3" x1="64.27" y1="57.49" x2="63.95" y2="57.49"/>
				<line class="st3" x1="64.75" y1="57.49" x2="64.95" y2="57.49"/>
				<line class="st3" x1="64.43" y1="55.93" x2="65.29" y2="55.93"/>
				<line class="st3" x1="64.99" y1="55.62" x2="65.36" y2="55.62"/>
				<line class="st3" x1="64.35" y1="54.32" x2="63.85" y2="54.32"/>
				<line class="st3" x1="64.26" y1="54.59" x2="63.85" y2="54.59"/>
				<line class="st3" x1="64.95" y1="53.56" x2="65.19" y2="53.56"/>
				<line class="st3" x1="64.26" y1="52.35" x2="63.85" y2="52.35"/>
				<line class="st3" x1="63.85" y1="52.06" x2="64.45" y2="52.06"/>
				<line class="st3" x1="65.05" y1="51.5" x2="65.36" y2="51.5"/>
				<line class="st3" x1="65.02" y1="51.06" x2="65.29" y2="51.06"/>
				<line class="st3" x1="66.2" y1="51.37" x2="66.59" y2="51.37"/>
				<line class="st3" x1="66.5" y1="51.09" x2="66.82" y2="51.09"/>
				<line class="st3" x1="68.58" y1="51.14" x2="69.07" y2="51.14"/>
				<line class="st3" x1="68.35" y1="51.37" x2="68.69" y2="51.37"/>
				<line class="st3" x1="70.28" y1="50.96" x2="70.7" y2="50.96"/>
				<line class="st3" x1="70.19" y1="51.58" x2="70.49" y2="51.58"/>
				<line class="st3" x1="71.98" y1="51.5" x2="72.39" y2="51.5"/>
				<line class="st3" x1="71.82" y1="51.14" x2="71.98" y2="51.14"/>
				<line class="st3" x1="72.94" y1="51.06" x2="73.36" y2="51.06"/>
				<line class="st3" x1="74.16" y1="51.48" x2="74.55" y2="51.48"/>
				<line class="st3" x1="74.73" y1="50.96" x2="74.88" y2="50.96"/>
				<line class="st3" x1="75.93" y1="51.1" x2="76.28" y2="51.1"/>
				<line class="st3" x1="76.28" y1="52.13" x2="76.72" y2="52.13"/>
				<line class="st3" x1="75.74" y1="52.77" x2="75.27" y2="52.77"/>
				<line class="st3" x1="75.69" y1="53.15" x2="75.27" y2="53.15"/>
				<line class="st3" x1="76.28" y1="53.63" x2="76.72" y2="53.63"/>
				<line class="st3" x1="75.82" y1="54.85" x2="75.29" y2="54.85"/>
				<line class="st3" x1="75.81" y1="55.25" x2="76.03" y2="55.25"/>
				<line class="st3" x1="75.92" y1="55.82" x2="76.61" y2="55.82"/>
				<line class="st3" x1="76.28" y1="56.15" x2="76.61" y2="56.15"/>
				<line class="st3" x1="75.69" y1="57.6" x2="75.29" y2="57.6"/>
				<line class="st3" x1="75.64" y1="58.08" x2="75.29" y2="58.08"/>
				<line class="st3" x1="76.28" y1="57.23" x2="76.72" y2="57.23"/>
				<line class="st3" x1="75.74" y1="58.89" x2="75.36" y2="58.89"/>
				<line class="st3" x1="75.93" y1="59.43" x2="76.28" y2="59.43"/>
				<line class="st3" x1="75.69" y1="61.82" x2="75.93" y2="61.82"/>
			</g>
		</g>
		<g>
			<g>
				<path class="st1" d="M62.88,69.3c-0.32,0-0.57-0.26-0.57-0.57v-2.24c0-0.32,0.26-0.57,0.57-0.57h0.07
					c-1.18-8.07-0.69-16.69-0.25-21.44c-0.16-0.06-0.28-0.22-0.28-0.41V43.8c0-0.23,0.17-0.41,0.39-0.44
					c0.11-1.09,0.2-1.72,0.2-1.75c0.01-0.04,0.02-0.09,0.04-0.13c0.01-0.03,0.05-0.1,0.07-0.13c0.02-0.02,0.05-0.06,0.07-0.08
					c0.04-0.04,0.08-0.06,0.09-0.07c0.02-0.01,0.08-0.04,0.1-0.05c0.03-0.01,0.09-0.02,0.12-0.03l3.72-0.01
					c0.32,0,0.57,0.26,0.57,0.57v1.73c0.13,0.08,0.22,0.22,0.22,0.38v0.26c0,0.14-0.06,0.26-0.16,0.34
					c0.28,2.34,1.33,12.35,0.03,21.51h0.04c0.32,0,0.57,0.26,0.57,0.57v2.24c0,0.32-0.26,0.57-0.57,0.57H62.88z"/>
				<path class="st1" d="M67.24,41.56c0.07,0,0.13,0.06,0.13,0.13v2.11h0.22v0.26h-0.2c0.18,1.41,1.51,12.41,0,22.29h0.55
					c0.07,0,0.13,0.06,0.13,0.13v2.24c0,0.07-0.06,0.13-0.13,0.13h-5.06c-0.07,0-0.13-0.06-0.13-0.13v-2.24
					c0-0.07,0.06-0.13,0.13-0.13h0.58c-1.34-8.57-0.7-17.98-0.28-22.29h-0.32V43.8h0.35c0.13-1.32,0.24-2.09,0.24-2.13
					c0-0.01,0-0.01,0.01-0.02c0-0.01,0-0.02,0.01-0.02c0-0.01,0.01-0.01,0.01-0.02c0.01-0.01,0.01-0.01,0.02-0.02
					c0.01-0.01,0.01-0.01,0.02-0.01c0.01,0,0.01-0.01,0.02-0.01c0.01,0,0.02,0,0.03-0.01c0.01,0,0.01,0,0.02,0H67.24 M67.24,40.68
					h-3.65c-0.07,0-0.14,0.01-0.21,0.02c-0.05,0.01-0.1,0.03-0.14,0.04c-0.08,0.03-0.14,0.07-0.18,0.09
					c-0.04,0.03-0.1,0.07-0.14,0.1c-0.04,0.04-0.1,0.1-0.13,0.15c-0.03,0.04-0.08,0.11-0.1,0.16c-0.02,0.04-0.04,0.08-0.05,0.13
					c-0.02,0.06-0.04,0.13-0.05,0.19c0,0-0.07,0.54-0.18,1.49c-0.25,0.16-0.42,0.43-0.42,0.75v0.26c0,0.24,0.1,0.46,0.26,0.62
					c-0.43,4.73-0.88,13.03,0.22,20.88c-0.35,0.16-0.59,0.51-0.59,0.92v2.24c0,0.56,0.45,1.01,1.01,1.01h5.06
					c0.56,0,1.01-0.45,1.01-1.01v-2.24c0-0.4-0.23-0.74-0.56-0.91c1.2-8.88,0.25-18.42-0.06-21.04c0.09-0.14,0.14-0.3,0.14-0.47
					V43.8c0-0.22-0.08-0.43-0.22-0.58v-1.53C68.26,41.13,67.8,40.68,67.24,40.68L67.24,40.68z"/>
			</g>
			<g>
				<polyline class="st2" points="63.62,66.49 62.88,66.49 62.88,68.73 67.95,68.73 67.95,66.49 67.23,66.49 				"/>
				<path class="st2" d="M67.95,68.73c-4.36-12.15-4.36-27.04-4.36-27.04s-2.07,14.89,0.44,27.03"/>
				<path class="st2" d="M67.24,43.93c0,0,1.67,11.96-0.02,22.64"/>
				<line class="st2" x1="67.34" y1="44.76" x2="66.23" y2="44.76"/>
				<line class="st2" x1="67.48" y1="45.99" x2="65.37" y2="45.99"/>
				<line class="st2" x1="67.59" y1="47.22" x2="66.23" y2="47.22"/>
				<line class="st2" x1="67.69" y1="48.45" x2="65.61" y2="48.45"/>
				<line class="st2" x1="67.84" y1="49.67" x2="66.23" y2="49.67"/>
				<line class="st2" x1="67.85" y1="50.9" x2="65.5" y2="50.9"/>
				<line class="st2" x1="67.9" y1="52.13" x2="66.23" y2="52.13"/>
				<line class="st2" x1="67.95" y1="53.36" x2="67.1" y2="53.36"/>
				<line class="st2" x1="67.95" y1="54.59" x2="66.23" y2="54.59"/>
				<line class="st2" x1="67.95" y1="55.82" x2="66.79" y2="55.82"/>
				<line class="st2" x1="67.97" y1="57.05" x2="66.23" y2="57.05"/>
				<line class="st2" x1="67.91" y1="58.28" x2="66.69" y2="58.28"/>
				<line class="st2" x1="67.91" y1="59.5" x2="66.23" y2="59.5"/>
				<line class="st2" x1="67.84" y1="60.73" x2="66.6" y2="60.73"/>
				<line class="st2" x1="67.76" y1="61.96" x2="66.6" y2="61.96"/>
				<line class="st2" x1="67.6" y1="63.19" x2="66.23" y2="63.19"/>
				<path class="st3" d="M63.37,54.92c0.13,3.35,0.46,8.99,2.13,13.8"/>
				<line class="st2" x1="62.87" y1="43.93" x2="67.59" y2="43.93"/>
				<polyline class="st2" points="67.24,43.93 67.24,41.69 63.59,41.69 63.59,43.93 				"/>
				<path class="st3" d="M63.67,51.14c0,3.3,1.01,13.31,2.93,17.59"/>
				<path class="st3" d="M65.37,61.96c0.25,1.6,1.1,4.89,1.96,6.73"/>
				<path class="st3" d="M63.7,63.41c0.09,1.03,0.6,3.73,1.08,5.25"/>
				<path class="st3" d="M64.92,64.87c0.22,1.26,0.87,3.32,1.12,3.86"/>
				<line class="st3" x1="67.24" y1="43.46" x2="64.71" y2="43.46"/>
				<line class="st3" x1="67.24" y1="43.04" x2="65.97" y2="43.04"/>
				<line class="st3" x1="67.23" y1="42.64" x2="66.53" y2="42.64"/>
				<line class="st3" x1="67.19" y1="42.08" x2="63.52" y2="42.08"/>
				<line class="st3" x1="67.38" y1="45.07" x2="65.23" y2="45.07"/>
				<line class="st3" x1="67.48" y1="46.34" x2="65.15" y2="46.34"/>
				<line class="st3" x1="67.57" y1="47.55" x2="66.88" y2="47.55"/>
				<line class="st3" x1="67.69" y1="48.87" x2="65.23" y2="48.87"/>
				<line class="st3" x1="67.8" y1="50.1" x2="66.53" y2="50.1"/>
				<line class="st3" x1="67.87" y1="51.24" x2="66.31" y2="51.24"/>
				<line class="st3" x1="67.85" y1="52.54" x2="65.8" y2="52.54"/>
				<line class="st3" x1="67.98" y1="53.69" x2="67.22" y2="53.69"/>
				<line class="st3" x1="67.91" y1="54.92" x2="66" y2="54.92"/>
				<line class="st3" x1="67.98" y1="56.32" x2="66.6" y2="56.32"/>
				<line class="st3" x1="67.95" y1="57.49" x2="66.6" y2="57.49"/>
				<line class="st3" x1="67.93" y1="58.7" x2="67.22" y2="58.7"/>
				<line class="st3" x1="67.85" y1="59.9" x2="67.31" y2="59.9"/>
				<line class="st3" x1="67.76" y1="61.17" x2="67.27" y2="61.17"/>
				<line class="st3" x1="67.6" y1="62.36" x2="67.27" y2="62.36"/>
				<line class="st3" x1="67.6" y1="63.7" x2="67.1" y2="63.7"/>
			</g>
		</g>
		<g>
			<g>
				<path class="st1" d="M103.85,69.3c-0.32,0-0.57-0.26-0.57-0.57v-0.99c0-0.32,0.26-0.57,0.57-0.57h0.55V51.28
					c0-0.24,0.2-0.44,0.44-0.44h0.26c0.24,0,0.44,0.2,0.44,0.44v1.73c5.79,2.16,7.55,8.83,7.29,14.15h0.32
					c0.32,0,0.57,0.26,0.57,0.57v0.99c0,0.32-0.26,0.57-0.57,0.57H103.85z"/>
				<path class="st1" d="M105.1,51.28v2.04c5.97,2.02,7.65,8.91,7.27,14.28h0.78c0.07,0,0.13,0.06,0.13,0.13v0.99
					c0,0.07-0.06,0.13-0.13,0.13h-9.31c-0.07,0-0.13-0.06-0.13-0.13v-0.99c0-0.07,0.06-0.13,0.13-0.13h0.99V51.28H105.1 M105.1,50.4
					h-0.26c-0.49,0-0.88,0.39-0.88,0.88v15.44h-0.11c-0.56,0-1.01,0.45-1.01,1.01v0.99c0,0.56,0.45,1.01,1.01,1.01h9.31
					c0.56,0,1.01-0.45,1.01-1.01v-0.99c0-0.51-0.38-0.94-0.87-1c0.14-5.31-1.69-11.74-7.31-14.02v-1.43
					C105.99,50.79,105.59,50.4,105.1,50.4L105.1,50.4z"/>
			</g>
			<g>
				<rect x="103.85" y="67.74" class="st2" width="9.31" height="0.99"/>
				<line class="st2" x1="104.97" y1="67.74" x2="104.97" y2="51.28"/>
				<path class="st2" d="M112.23,67.74c0.33-4.24-0.63-12.15-7.26-14.32"/>
				<path class="st2" d="M111.57,67.74c0.32-4-0.42-11.37-6.6-13.69"/>
				<path class="st2" d="M106.65,54.88c2.45,2.99,2.71,8.62,2.71,12.86"/>
				<line class="st3" x1="104.97" y1="67.04" x2="107.38" y2="67.04"/>
				<line class="st2" x1="104.97" y1="66.31" x2="107.38" y2="66.31"/>
				<line class="st2" x1="104.97" y1="65.57" x2="110.37" y2="65.57"/>
				<line class="st3" x1="104.97" y1="64.83" x2="107.38" y2="64.83"/>
				<line class="st2" x1="104.97" y1="64.09" x2="107.38" y2="64.09"/>
				<line class="st2" x1="104.97" y1="63.36" x2="109.9" y2="63.36"/>
				<line class="st3" x1="104.97" y1="62.62" x2="107.38" y2="62.62"/>
				<line class="st2" x1="104.97" y1="61.88" x2="107.38" y2="61.88"/>
				<line class="st2" x1="104.97" y1="61.15" x2="109.55" y2="61.15"/>
				<line class="st3" x1="104.97" y1="60.41" x2="107.38" y2="60.41"/>
				<line class="st2" x1="104.97" y1="59.67" x2="107.38" y2="59.67"/>
				<line class="st2" x1="104.97" y1="58.93" x2="109.13" y2="58.93"/>
				<line class="st3" x1="104.97" y1="58.2" x2="107.38" y2="58.2"/>
				<line class="st2" x1="104.97" y1="57.46" x2="107.18" y2="57.46"/>
				<line class="st3" x1="104.97" y1="56.72" x2="106.75" y2="56.72"/>
				<line class="st2" x1="104.97" y1="55.99" x2="106.06" y2="55.99"/>
				<line class="st2" x1="104.97" y1="55.25" x2="105.61" y2="55.25"/>
				<line class="st3" x1="107.67" y1="60.41" x2="108" y2="60.41"/>
				<line class="st3" x1="107.84" y1="62.62" x2="108.63" y2="62.62"/>
				<line class="st3" x1="107.84" y1="64.83" x2="108.75" y2="64.83"/>
				<line class="st3" x1="107.67" y1="67.04" x2="108.12" y2="67.04"/>
				<line class="st3" x1="107.05" y1="56.72" x2="107.38" y2="56.72"/>
				<path class="st3" d="M106.84,55.12c1.46,1.1,4.8,5.08,4.07,12.62"/>
				<line class="st3" x1="104.97" y1="51.09" x2="104.97" y2="50.12"/>
				<line class="st3" x1="103.85" y1="68.15" x2="113.16" y2="68.15"/>
			</g>
		</g>
		<g>
			<g>
				<path class="st1" d="M14.18,69.1c-0.12,0-0.22-0.1-0.22-0.22v-4.16c-0.27,0.21-0.6,0.34-0.97,0.37c0,0-0.01,0-0.01,0
					c-0.12,0-0.21-0.04-0.27-0.1c-0.08-0.08-0.11-0.18-0.1-0.29c0-0.02,0.05-0.42,0.38-0.82h-0.38c-0.12,0-0.23-0.06-0.3-0.16
					c-0.06-0.1-0.07-0.22-0.02-0.34c0.01-0.03,0.37-0.81,1.17-0.81c0.31,0,0.61,0.13,0.85,0.37c0.24-0.24,0.54-0.37,0.85-0.37
					c0.77,0,1.13,0.73,1.17,0.81c0.05,0.11,0.04,0.24-0.02,0.34c-0.06,0.1-0.17,0.16-0.3,0.16h-0.38c0.33,0.4,0.38,0.8,0.38,0.82
					c0.01,0.1-0.02,0.21-0.1,0.28c-0.07,0.07-0.16,0.11-0.25,0.11c-0.39-0.03-0.73-0.16-1-0.37v4.17c0,0.12-0.1,0.22-0.22,0.22
					H14.18z"/>
				<path class="st1" d="M15.16,62.78c0.65,0,0.96,0.66,0.97,0.68c0.02,0.04,0.02,0.09-0.01,0.13c-0.02,0.04-0.07,0.06-0.11,0.06
					h-0.98c0.68,0.4,0.76,1.03,0.77,1.07c0,0.04-0.01,0.08-0.04,0.11c-0.03,0.03-0.06,0.04-0.09,0.04c0,0-0.01,0-0.01,0
					c-0.63-0.05-1-0.39-1.21-0.71v4.73h-0.26v-4.73c-0.21,0.32-0.58,0.66-1.21,0.71c0,0-0.01,0-0.01,0c-0.04,0-0.07-0.01-0.09-0.04
					c-0.03-0.03-0.04-0.07-0.04-0.11c0-0.03,0.08-0.66,0.77-1.07h-0.98c-0.05,0-0.09-0.02-0.11-0.06c-0.02-0.04-0.03-0.09-0.01-0.13
					c0.01-0.03,0.32-0.68,0.97-0.68c0.43,0,0.7,0.28,0.85,0.49C14.46,63.07,14.74,62.78,15.16,62.78 M15.16,62.34
					c-0.31,0-0.6,0.1-0.85,0.3c-0.25-0.19-0.54-0.3-0.85-0.3c-0.74,0-1.21,0.59-1.37,0.94c-0.08,0.18-0.07,0.38,0.04,0.55
					c0.1,0.16,0.27,0.25,0.45,0.26c-0.15,0.29-0.18,0.54-0.19,0.58c-0.02,0.17,0.04,0.34,0.16,0.46c0.11,0.11,0.26,0.17,0.41,0.17
					c0.29-0.02,0.55-0.09,0.78-0.2v3.77c0,0.24,0.2,0.44,0.44,0.44h0.26c0.24,0,0.44-0.2,0.44-0.44v-3.77
					c0.22,0.11,0.47,0.17,0.73,0.19c0,0,0.01,0,0.01,0c0.2,0,0.34-0.06,0.45-0.17c0.12-0.12,0.18-0.29,0.16-0.46
					c0-0.05-0.04-0.29-0.19-0.58c0.18-0.01,0.35-0.11,0.45-0.26c0.11-0.17,0.12-0.37,0.04-0.55C16.49,63.18,16.07,62.34,15.16,62.34
					L15.16,62.34z"/>
			</g>
			<g>
				<line class="st2" x1="14.31" y1="63.52" x2="14.31" y2="68.88"/>
				<path class="st2" d="M14.31,63.52c0,0-0.2,1.11-1.35,1.21C12.96,64.73,13.06,63.78,14.31,63.52z"/>
				<path class="st2" d="M14.31,63.52c0,0,0.2,1.11,1.35,1.21C15.66,64.73,15.57,63.78,14.31,63.52z"/>
				<path class="st2" d="M14.31,63.52h-1.7c0,0,0.28-0.61,0.85-0.61C14.03,62.91,14.31,63.52,14.31,63.52z"/>
				<path class="st2" d="M16.01,63.52h-1.7c0,0,0.28-0.61,0.85-0.61C15.73,62.91,16.01,63.52,16.01,63.52z"/>
			</g>
		</g>
		<g>
			<g>
				<path class="st1" d="M60.25,69.1c-0.12,0-0.22-0.1-0.22-0.22V65c-0.22,0.17-0.51,0.3-0.9,0.33c0,0-0.01,0-0.01,0
					c-0.12,0-0.21-0.04-0.27-0.1c-0.07-0.07-0.11-0.17-0.09-0.28c0.01-0.05,0.05-0.4,0.34-0.76h-0.33c-0.12,0-0.23-0.06-0.29-0.16
					c-0.06-0.1-0.07-0.23-0.02-0.33c0.12-0.26,0.5-0.77,1.11-0.77c0.29,0,0.57,0.12,0.8,0.34c0.23-0.22,0.5-0.34,0.8-0.34
					c0.6,0,0.98,0.48,1.11,0.77c0.05,0.11,0.04,0.23-0.02,0.33c-0.06,0.1-0.17,0.16-0.29,0.16h-0.33c0.3,0.37,0.34,0.74,0.34,0.76
					c0.01,0.1-0.02,0.2-0.1,0.27c-0.04,0.04-0.19,0.1-0.25,0.1c-0.36-0.03-0.67-0.14-0.93-0.33v3.88c0,0.12-0.1,0.22-0.22,0.22
					H60.25z"/>
				<path class="st1" d="M61.17,63.15c0.61,0,0.9,0.62,0.91,0.64c0.02,0.04,0.01,0.08-0.01,0.12c-0.02,0.04-0.06,0.06-0.1,0.06
					h-0.92c0.64,0.38,0.71,0.97,0.72,1c0,0.04-0.01,0.07-0.03,0.1c-0.02,0.02-0.06,0.04-0.09,0.04c0,0-0.01,0-0.01,0
					c-0.59-0.05-0.94-0.37-1.14-0.67v4.44h-0.25v-4.44c-0.2,0.3-0.54,0.62-1.14,0.67c0,0-0.01,0-0.01,0c-0.03,0-0.06-0.01-0.09-0.04
					c-0.03-0.03-0.04-0.06-0.03-0.1c0-0.03,0.08-0.62,0.72-1h-0.92c-0.04,0-0.08-0.02-0.1-0.06c-0.02-0.04-0.03-0.08-0.01-0.12
					c0.01-0.03,0.3-0.64,0.91-0.64c0.4,0,0.66,0.27,0.8,0.46C60.51,63.42,60.77,63.15,61.17,63.15 M61.17,62.71
					c-0.29,0-0.56,0.09-0.8,0.27c-0.24-0.18-0.51-0.27-0.8-0.27c-0.71,0-1.16,0.57-1.31,0.9c-0.08,0.18-0.07,0.38,0.04,0.54
					c0.09,0.14,0.24,0.23,0.4,0.26c-0.13,0.26-0.16,0.48-0.16,0.52c-0.02,0.17,0.04,0.33,0.16,0.45c0.11,0.11,0.25,0.17,0.4,0.17
					c0.02,0,0.05,0,0.07,0c0.23-0.02,0.44-0.07,0.64-0.16v3.49c0,0.24,0.2,0.44,0.44,0.44h0.25c0.24,0,0.44-0.2,0.44-0.44v-3.5
					c0.2,0.09,0.42,0.15,0.66,0.17c0,0,0.01,0,0.01,0c0.19,0,0.34-0.06,0.44-0.17c0.12-0.12,0.18-0.29,0.16-0.46
					c0-0.04-0.03-0.26-0.16-0.52c0.16-0.02,0.31-0.11,0.4-0.25c0.1-0.16,0.12-0.37,0.04-0.54C62.33,63.28,61.88,62.71,61.17,62.71
					L61.17,62.71z"/>
			</g>
			<g>
				<line class="st2" x1="60.38" y1="63.85" x2="60.38" y2="68.88"/>
				<path class="st2" d="M60.38,63.85c0,0-0.19,1.05-1.27,1.14C59.11,64.99,59.2,64.1,60.38,63.85z"/>
				<path class="st2" d="M60.38,63.85c0,0,0.19,1.05,1.27,1.14C61.65,64.99,61.55,64.1,60.38,63.85z"/>
				<path class="st2" d="M60.38,63.85h-1.6c0,0,0.26-0.57,0.8-0.57C60.11,63.28,60.38,63.85,60.38,63.85z"/>
				<path class="st2" d="M61.97,63.85h-1.6c0,0,0.26-0.57,0.8-0.57C61.71,63.28,61.97,63.85,61.97,63.85z"/>
			</g>
		</g>
		<g>
			<g>
				<path class="st1" d="M114.97,69.1c-0.12,0-0.22-0.1-0.22-0.22v-3.54c-0.23,0.16-0.5,0.26-0.81,0.29c0,0-0.01,0-0.01,0
					c-0.07,0-0.21-0.05-0.26-0.1c-0.07-0.07-0.11-0.17-0.09-0.27c0-0.02,0.04-0.34,0.3-0.68h-0.26c-0.11,0-0.22-0.06-0.28-0.15
					c-0.06-0.1-0.07-0.21-0.02-0.32c0.04-0.08,0.37-0.72,1.04-0.72c0.27,0,0.52,0.11,0.73,0.31c0.21-0.2,0.46-0.31,0.73-0.31
					c0.71,0,1.04,0.72,1.04,0.72c0.05,0.1,0.04,0.22-0.02,0.31c-0.06,0.1-0.17,0.16-0.28,0.16h-0.26c0.26,0.33,0.3,0.66,0.3,0.68
					c0.01,0.06-0.05,0.22-0.09,0.27c-0.07,0.07-0.15,0.1-0.24,0.1c-0.32-0.03-0.6-0.12-0.83-0.29v3.54c0,0.12-0.1,0.22-0.22,0.22
					H114.97z"/>
				<path class="st1" d="M115.82,63.61c0.56,0,0.83,0.57,0.84,0.59c0.02,0.04,0.01,0.08-0.01,0.11c-0.02,0.03-0.06,0.05-0.1,0.05
					h-0.85c0.59,0.35,0.66,0.89,0.66,0.92c0,0.03-0.01,0.07-0.03,0.09c-0.02,0.02-0.05,0.03-0.08,0.03c0,0-0.01,0-0.01,0
					c-0.54-0.05-0.86-0.34-1.05-0.61v4.08h-0.23V64.8c-0.18,0.28-0.5,0.57-1.05,0.61c0,0-0.01,0-0.01,0c-0.03,0-0.06-0.01-0.08-0.03
					c-0.02-0.02-0.04-0.06-0.03-0.09c0-0.03,0.07-0.57,0.66-0.92h-0.85c-0.04,0-0.07-0.02-0.1-0.05c-0.02-0.03-0.02-0.07-0.01-0.11
					c0.01-0.02,0.28-0.59,0.84-0.59c0.37,0,0.61,0.25,0.73,0.42C115.21,63.86,115.46,63.61,115.82,63.61 M115.82,63.17
					c-0.26,0-0.52,0.08-0.73,0.24c-0.22-0.16-0.47-0.24-0.73-0.24c-0.67,0-1.1,0.53-1.24,0.85c-0.08,0.17-0.07,0.37,0.04,0.53
					c0.08,0.13,0.21,0.21,0.35,0.24c-0.11,0.23-0.13,0.41-0.13,0.45c-0.02,0.17,0.04,0.33,0.16,0.45c0.1,0.11,0.25,0.17,0.4,0.17
					c0.22-0.02,0.43-0.07,0.61-0.14v3.17c0,0.24,0.2,0.44,0.44,0.44h0.23c0.24,0,0.44-0.2,0.44-0.44v-3.16
					c0.17,0.07,0.36,0.12,0.57,0.13c0,0,0.01,0,0.01,0c0.19,0,0.33-0.06,0.43-0.16c0.12-0.12,0.18-0.28,0.16-0.45
					c0-0.04-0.03-0.22-0.13-0.45c0.14-0.03,0.27-0.12,0.35-0.24c0.1-0.16,0.12-0.36,0.04-0.53
					C116.92,63.7,116.49,63.17,115.82,63.17L115.82,63.17z"/>
			</g>
			<g>
				<line class="st2" x1="115.09" y1="64.25" x2="115.09" y2="68.88"/>
				<path class="st2" d="M115.09,64.25c0,0-0.17,0.96-1.17,1.05C113.92,65.3,114.01,64.48,115.09,64.25z"/>
				<path class="st2" d="M115.09,64.25c0,0,0.17,0.96,1.17,1.05C116.26,65.3,116.17,64.48,115.09,64.25z"/>
				<path class="st2" d="M115.09,64.25h-1.47c0,0,0.24-0.52,0.73-0.52S115.09,64.25,115.09,64.25z"/>
				<path class="st2" d="M116.56,64.25h-1.47c0,0,0.24-0.52,0.73-0.52C116.31,63.73,116.56,64.25,116.56,64.25z"/>
			</g>
		</g>
		<line class="st2" x1="9.24" y1="68.73" x2="119.52" y2="68.73"/>
		<line class="st2" x1="119.52" y1="70.19" x2="9.24" y2="70.19"/>
	</g>
</g>
</svg>
