<?xml version="1.0" encoding="utf-8"?>
<!-- Generator: Adobe Illustrator 24.3.0, SVG Export Plug-In . SVG Version: 6.00 Build 0)  -->
<svg version="1.1" xmlns="http://www.w3.org/2000/svg" xmlns:xlink="http://www.w3.org/1999/xlink" x="0px" y="0px"
	 viewBox="0 0 128 90" style="enable-background:new 0 0 128 90;" xml:space="preserve">
<style type="text/css">
	.st0{clip-path:url(#SVGID_2_);}
	.st1{fill:none;stroke:#000000;stroke-width:0.23;stroke-linecap:round;stroke-linejoin:round;stroke-miterlimit:10;}
	.st2{fill:#FFFFFF;}
	.st3{fill:none;stroke:#000000;stroke-width:0.0767;stroke-linecap:round;stroke-linejoin:round;stroke-miterlimit:10;}
	.st4{fill:none;stroke:#000000;stroke-width:0.0742;stroke-linecap:round;stroke-linejoin:round;stroke-miterlimit:10;}
</style>
<g id="Layer_1">
	<g>
		<defs>
			<rect id="SVGID_1_" x="3.59" y="20.54" width="120.81" height="48.38"/>
		</defs>
		<clipPath id="SVGID_2_">
			<use xlink:href="#SVGID_1_"  style="overflow:visible;"/>
		</clipPath>
		<g class="st0">
			<g>
				<line class="st1" x1="2.49" y1="68.66" x2="124.01" y2="68.66"/>
				<g>
					<path class="st2" d="M5.46,62.77c-0.53,0-0.97,0.43-0.97,0.97h1.93C6.43,63.2,6,62.77,5.46,62.77z"/>
					<path class="st2" d="M7.4,62.77c-0.53,0-0.97,0.43-0.97,0.97h1.93C8.36,63.2,7.93,62.77,7.4,62.77z"/>
					<path class="st2" d="M5.32,64.16c-0.22,0.4-0.07,0.9,0.33,1.11l0.78-1.44C6.03,63.62,5.53,63.76,5.32,64.16z"/>
					<path class="st2" d="M7.54,64.16c0.22,0.4,0.07,0.9-0.33,1.11l-0.78-1.44C6.83,63.62,7.33,63.76,7.54,64.16z"/>
					<path class="st1" d="M5.46,62.77c-0.53,0-0.97,0.43-0.97,0.97h1.93C6.43,63.2,6,62.77,5.46,62.77z"/>
					<path class="st1" d="M7.4,62.77c-0.53,0-0.97,0.43-0.97,0.97h1.93C8.36,63.2,7.93,62.77,7.4,62.77z"/>
					<path class="st1" d="M5.32,64.16c-0.22,0.4-0.07,0.9,0.33,1.11l0.78-1.44C6.03,63.62,5.53,63.76,5.32,64.16z"/>
					<path class="st1" d="M7.54,64.16c0.22,0.4,0.07,0.9-0.33,1.11l-0.78-1.44C6.83,63.62,7.33,63.76,7.54,64.16z"/>
					<line class="st3" x1="6.43" y1="68.66" x2="6.43" y2="63.78"/>
				</g>
				<g>
					<path class="st2" d="M22.39,57.76c-0.53,0-0.97,0.43-0.97,0.97h1.93C23.35,58.2,22.92,57.76,22.39,57.76z"/>
					<path class="st2" d="M24.32,57.76c-0.53,0-0.97,0.43-0.97,0.97h1.93C25.29,58.2,24.85,57.76,24.32,57.76z"/>
					<path class="st2" d="M22.24,59.16c-0.22,0.4-0.07,0.9,0.33,1.11l0.78-1.44C22.96,58.61,22.46,58.76,22.24,59.16z"/>
					<path class="st2" d="M24.47,59.16c0.22,0.4,0.07,0.9-0.33,1.11l-0.78-1.44C23.75,58.61,24.25,58.76,24.47,59.16z"/>
					<path class="st1" d="M22.39,57.76c-0.53,0-0.97,0.43-0.97,0.97h1.93C23.35,58.2,22.92,57.76,22.39,57.76z"/>
					<path class="st1" d="M24.32,57.76c-0.53,0-0.97,0.43-0.97,0.97h1.93C25.29,58.2,24.85,57.76,24.32,57.76z"/>
					<path class="st1" d="M22.24,59.16c-0.22,0.4-0.07,0.9,0.33,1.11l0.78-1.44C22.96,58.61,22.46,58.76,22.24,59.16z"/>
					<path class="st1" d="M24.47,59.16c0.22,0.4,0.07,0.9-0.33,1.11l-0.78-1.44C23.75,58.61,24.25,58.76,24.47,59.16z"/>
					<line class="st3" x1="23.35" y1="68.66" x2="23.35" y2="58.78"/>
				</g>
				<g>
					<path class="st2" d="M102.94,54.72c-0.53,0-0.97,0.43-0.97,0.97h1.93C103.9,55.15,103.47,54.72,102.94,54.72z"/>
					<path class="st2" d="M104.87,54.72c-0.53,0-0.97,0.43-0.97,0.97h1.93C105.84,55.15,105.4,54.72,104.87,54.72z"/>
					<path class="st2" d="M102.79,56.12c-0.22,0.4-0.07,0.9,0.33,1.11l0.78-1.44C103.5,55.57,103.01,55.72,102.79,56.12z"/>
					<path class="st2" d="M105.02,56.12c0.22,0.4,0.07,0.9-0.33,1.11l-0.78-1.44C104.3,55.57,104.8,55.72,105.02,56.12z"/>
					<path class="st1" d="M102.94,54.72c-0.53,0-0.97,0.43-0.97,0.97h1.93C103.9,55.15,103.47,54.72,102.94,54.72z"/>
					<path class="st1" d="M104.87,54.72c-0.53,0-0.97,0.43-0.97,0.97h1.93C105.84,55.15,105.4,54.72,104.87,54.72z"/>
					<path class="st1" d="M102.79,56.12c-0.22,0.4-0.07,0.9,0.33,1.11l0.78-1.44C103.5,55.57,103.01,55.72,102.79,56.12z"/>
					<path class="st1" d="M105.02,56.12c0.22,0.4,0.07,0.9-0.33,1.11l-0.78-1.44C104.3,55.57,104.8,55.72,105.02,56.12z"/>
					<line class="st3" x1="103.9" y1="68.66" x2="103.9" y2="55.74"/>
				</g>
				<g>
					<rect x="26.93" y="52.02" class="st2" width="6.11" height="16.64"/>
					<rect x="26.93" y="52.02" class="st1" width="6.11" height="16.64"/>
					<rect x="29.11" y="55.59" class="st3" width="1.74" height="3.13"/>
					<rect x="29.11" y="62.31" class="st3" width="1.74" height="3.13"/>
					<rect x="29.11" y="68.19" class="st3" width="1.74" height="0.47"/>
					<line class="st3" x1="29.3" y1="56" x2="29.63" y2="56"/>
					<line class="st3" x1="29.47" y1="55.84" x2="29.47" y2="56.17"/>
					<line class="st3" x1="29.82" y1="56" x2="30.15" y2="56"/>
					<line class="st3" x1="29.98" y1="55.84" x2="29.98" y2="56.17"/>
					<line class="st3" x1="30.33" y1="56" x2="30.66" y2="56"/>
					<line class="st3" x1="30.5" y1="55.84" x2="30.5" y2="56.17"/>
					<line class="st3" x1="29.3" y1="56.58" x2="29.63" y2="56.58"/>
					<line class="st3" x1="29.47" y1="56.41" x2="29.47" y2="56.74"/>
					<line class="st3" x1="29.82" y1="56.58" x2="30.15" y2="56.58"/>
					<line class="st3" x1="29.98" y1="56.41" x2="29.98" y2="56.74"/>
					<line class="st3" x1="30.33" y1="56.58" x2="30.66" y2="56.58"/>
					<line class="st3" x1="30.5" y1="56.41" x2="30.5" y2="56.74"/>
					<line class="st3" x1="29.3" y1="57.15" x2="29.63" y2="57.15"/>
					<line class="st3" x1="29.47" y1="56.98" x2="29.47" y2="57.31"/>
					<line class="st3" x1="29.82" y1="57.15" x2="30.15" y2="57.15"/>
					<line class="st3" x1="29.98" y1="56.98" x2="29.98" y2="57.31"/>
					<line class="st3" x1="30.33" y1="57.15" x2="30.66" y2="57.15"/>
					<line class="st3" x1="30.5" y1="56.98" x2="30.5" y2="57.31"/>
					<line class="st3" x1="29.3" y1="57.72" x2="29.63" y2="57.72"/>
					<line class="st3" x1="29.47" y1="57.56" x2="29.47" y2="57.89"/>
					<line class="st3" x1="29.82" y1="57.72" x2="30.15" y2="57.72"/>
					<line class="st3" x1="29.98" y1="57.56" x2="29.98" y2="57.89"/>
					<line class="st3" x1="30.33" y1="57.72" x2="30.66" y2="57.72"/>
					<line class="st3" x1="30.5" y1="57.56" x2="30.5" y2="57.89"/>
					<line class="st3" x1="29.3" y1="58.3" x2="29.63" y2="58.3"/>
					<line class="st3" x1="29.47" y1="58.13" x2="29.47" y2="58.46"/>
					<line class="st3" x1="29.82" y1="58.3" x2="30.15" y2="58.3"/>
					<line class="st3" x1="29.98" y1="58.13" x2="29.98" y2="58.46"/>
					<line class="st3" x1="30.33" y1="58.3" x2="30.66" y2="58.3"/>
					<line class="st3" x1="30.5" y1="58.13" x2="30.5" y2="58.46"/>
					<line class="st3" x1="29.3" y1="62.73" x2="29.63" y2="62.73"/>
					<line class="st3" x1="29.47" y1="62.56" x2="29.47" y2="62.89"/>
					<line class="st3" x1="29.82" y1="62.73" x2="30.15" y2="62.73"/>
					<line class="st3" x1="29.98" y1="62.56" x2="29.98" y2="62.89"/>
					<line class="st3" x1="30.33" y1="62.73" x2="30.66" y2="62.73"/>
					<line class="st3" x1="30.5" y1="62.56" x2="30.5" y2="62.89"/>
					<line class="st3" x1="29.3" y1="63.3" x2="29.63" y2="63.3"/>
					<line class="st3" x1="29.47" y1="63.13" x2="29.47" y2="63.46"/>
					<line class="st3" x1="29.82" y1="63.3" x2="30.15" y2="63.3"/>
					<line class="st3" x1="29.98" y1="63.13" x2="29.98" y2="63.46"/>
					<line class="st3" x1="30.33" y1="63.3" x2="30.66" y2="63.3"/>
					<line class="st3" x1="30.5" y1="63.13" x2="30.5" y2="63.46"/>
					<line class="st3" x1="29.3" y1="63.87" x2="29.63" y2="63.87"/>
					<line class="st3" x1="29.47" y1="63.71" x2="29.47" y2="64.04"/>
					<line class="st3" x1="29.82" y1="63.87" x2="30.15" y2="63.87"/>
					<line class="st3" x1="29.98" y1="63.71" x2="29.98" y2="64.04"/>
					<line class="st3" x1="30.33" y1="63.87" x2="30.66" y2="63.87"/>
					<line class="st3" x1="30.5" y1="63.71" x2="30.5" y2="64.04"/>
					<line class="st3" x1="29.3" y1="64.45" x2="29.63" y2="64.45"/>
					<line class="st3" x1="29.47" y1="64.28" x2="29.47" y2="64.61"/>
					<line class="st3" x1="29.82" y1="64.45" x2="30.15" y2="64.45"/>
					<line class="st3" x1="29.98" y1="64.28" x2="29.98" y2="64.61"/>
					<line class="st3" x1="30.33" y1="64.45" x2="30.66" y2="64.45"/>
					<line class="st3" x1="30.5" y1="64.28" x2="30.5" y2="64.61"/>
					<line class="st3" x1="29.3" y1="65.02" x2="29.63" y2="65.02"/>
					<line class="st3" x1="29.47" y1="64.85" x2="29.47" y2="65.18"/>
					<line class="st3" x1="29.82" y1="65.02" x2="30.15" y2="65.02"/>
					<line class="st3" x1="29.98" y1="64.85" x2="29.98" y2="65.18"/>
					<line class="st3" x1="30.33" y1="65.02" x2="30.66" y2="65.02"/>
					<line class="st3" x1="30.5" y1="64.85" x2="30.5" y2="65.18"/>
					<line class="st3" x1="27.25" y1="54.18" x2="27.25" y2="54.56"/>
					<line class="st3" x1="27.55" y1="54.18" x2="27.55" y2="54.56"/>
					<line class="st3" x1="27.85" y1="54.18" x2="27.85" y2="54.56"/>
					<line class="st3" x1="28.16" y1="54.18" x2="28.16" y2="54.56"/>
					<line class="st3" x1="28.46" y1="54.18" x2="28.46" y2="54.56"/>
					<line class="st3" x1="28.77" y1="54.18" x2="28.77" y2="54.56"/>
					<line class="st3" x1="29.07" y1="54.18" x2="29.07" y2="54.56"/>
					<line class="st3" x1="29.37" y1="54.18" x2="29.37" y2="54.56"/>
					<line class="st3" x1="29.68" y1="54.18" x2="29.68" y2="54.56"/>
					<line class="st3" x1="29.98" y1="54.18" x2="29.98" y2="54.56"/>
					<line class="st3" x1="30.29" y1="54.18" x2="30.29" y2="54.56"/>
					<line class="st3" x1="30.59" y1="54.18" x2="30.59" y2="54.56"/>
					<line class="st3" x1="30.9" y1="54.18" x2="30.9" y2="54.56"/>
					<line class="st3" x1="31.2" y1="54.18" x2="31.2" y2="54.56"/>
					<line class="st3" x1="31.5" y1="54.18" x2="31.5" y2="54.56"/>
					<line class="st3" x1="31.81" y1="54.18" x2="31.81" y2="54.56"/>
					<line class="st3" x1="32.11" y1="54.18" x2="32.11" y2="54.56"/>
					<line class="st3" x1="32.42" y1="54.18" x2="32.42" y2="54.56"/>
					<line class="st3" x1="32.72" y1="54.18" x2="32.72" y2="54.56"/>
				</g>
				<g>
					<path class="st2" d="M17.36,66.35c2.19-1.3,3.17-4.04,2.2-6.48c-1.08-2.71-4.14-4.03-6.85-2.95c-2.71,1.08-4.03,4.14-2.95,6.85
						c0.78,1.95,2.59,3.19,4.56,3.32l-0.05,0.01v1.57h4.11L17.36,66.35L17.36,66.35z"/>
					<circle class="st1" cx="14.66" cy="61.82" r="5.28"/>
					<path class="st4" d="M16.61,66.72"/>
					<line class="st4" x1="16.61" y1="66.72" x2="12.71" y2="56.91"/>
					<path class="st4" d="M12.71,56.91"/>
					<path class="st4" d="M12.71,56.91c0,0,2.33,0.88,3.66,4.22"/>
					<path class="st4" d="M12.71,56.91c0,0,4.58-0.92,6.22,3.2"/>
					<path class="st4" d="M17.95,60.51c-1.46-3.67-5.24-3.59-5.24-3.59"/>
					<path class="st4" d="M16.61,66.72c0,0,1.09-2.24-0.24-5.58"/>
					<path class="st4" d="M16.61,66.72c0,0,3.96-2.48,2.32-6.6"/>
					<path class="st4" d="M17.95,60.51c1.46,3.67-1.34,6.21-1.34,6.21"/>
					<path class="st4" d="M12.71,56.91c0,0-1.09,2.24,0.24,5.58"/>
					<path class="st4" d="M12.71,56.91c0,0-3.96,2.48-2.32,6.6"/>
					<path class="st4" d="M11.36,63.13c-1.46-3.67,1.34-6.21,1.34-6.21"/>
					<path class="st4" d="M16.61,66.72c0,0-2.33-0.88-3.66-4.22"/>
					<path class="st4" d="M16.61,66.72c0,0-4.58,0.92-6.22-3.2"/>
					<path class="st4" d="M11.36,63.13c1.46,3.67,5.24,3.59,5.24,3.59"/>
					<line class="st4" x1="9.75" y1="63.77" x2="19.56" y2="59.87"/>
					<line class="st4" x1="9.44" y1="61.05" x2="17.93" y2="57.68"/>
					<line class="st4" x1="10.2" y1="59" x2="15.96" y2="56.7"/>
					<line class="st4" x1="19.88" y1="62.58" x2="11.39" y2="65.96"/>
					<line class="st4" x1="19.12" y1="64.64" x2="13.35" y2="66.93"/>
					<polyline class="st1" points="14.26,67.09 14.26,68.66 18.37,68.66 17.36,66.35 					"/>
				</g>
				<g>
					<path class="st2" d="M33.66,67.63c-0.39-0.18-9.92-2.4-13.6-3.26h0c0.5-0.21,0.81-0.33,0.81-0.33l1.62-0.52l-0.59-0.26
						c0,0-0.38,0.22-0.78,0.23c-0.4,0.02-1.05-0.03-1.38,0.37c-0.32-0.41-0.98-0.36-1.38-0.37c-0.4-0.02-0.78-0.23-0.78-0.23
						L17,63.51l1.62,0.52c0,0,0.31,0.13,0.81,0.33c-3.69,0.86-13.22,3.09-13.6,3.26c-0.58,0.26-0.44,1.04-0.44,1.04h6.23
						c0,0-0.09-0.72,0.4-0.97c0.25-0.12,5.39-2.14,7.72-3.1c2.33,0.96,7.47,2.98,7.72,3.1c0.49,0.25,0.4,0.97,0.4,0.97h6.23
						C34.1,68.66,34.24,67.89,33.66,67.63z"/>
					<path class="st3" d="M28.33,68.17c-0.07-0.35-0.25-0.72-0.65-0.91c-0.14-0.07-1.58-0.67-3.28-1.37
						c4.45,1.04,8.66,2.05,9.06,2.19c0.04,0.02,0.07,0.05,0.1,0.09H28.33z"/>
					<path class="st3" d="M11.16,68.17c0.07-0.35,0.25-0.72,0.65-0.91c0.14-0.07,1.58-0.67,3.28-1.37
						c-4.45,1.04-8.66,2.05-9.06,2.19c-0.04,0.02-0.07,0.05-0.1,0.09H11.16z"/>
					<path class="st1" d="M33.66,67.63c-0.39-0.18-9.92-2.4-13.6-3.26h0c0.5-0.21,0.81-0.33,0.81-0.33l1.62-0.52l-0.59-0.26
						c0,0-0.38,0.22-0.78,0.23c-0.4,0.02-1.05-0.03-1.38,0.37c-0.32-0.41-0.98-0.36-1.38-0.37c-0.4-0.02-0.78-0.23-0.78-0.23
						L17,63.51l1.62,0.52c0,0,0.31,0.13,0.81,0.33c-3.69,0.86-13.22,3.09-13.6,3.26c-0.58,0.26-0.44,1.04-0.44,1.04h6.23
						c0,0-0.09-0.72,0.4-0.97c0.25-0.12,5.39-2.14,7.72-3.1c2.33,0.96,7.47,2.98,7.72,3.1c0.49,0.25,0.4,0.97,0.4,0.97h6.23
						C34.1,68.66,34.24,67.89,33.66,67.63z"/>
				</g>
				<g>
					<path class="st2" d="M96.26,64.63v-0.77h0.32l-3.03-15.2v0v-7.04l0.8-0.59h-1.33h-1.33l0.8,0.59v0.87l-3.16-1.86v23.24h0.79
						v0.77h-0.79l-0.6,0.88l0.6,3.16h12.92l0.81-4.04C103.03,64.63,96.73,64.63,96.26,64.63z"/>
					<rect x="91.15" y="43.25" class="st3" width="0.8" height="20.6"/>
					<polyline class="st3" points="93.55,48.65 92.47,43.25 90.5,43.25 90.5,44.06 89.31,44.06 					"/>
					<line class="st3" x1="90.1" y1="63.85" x2="96.26" y2="63.85"/>
					<line class="st3" x1="92.47" y1="43.25" x2="92.47" y2="42.48"/>
					<line class="st3" x1="92.47" y1="41.61" x2="93.55" y2="41.61"/>
					<line class="st3" x1="90.5" y1="43.25" x2="90.5" y2="41.32"/>
					<line class="st3" x1="90.2" y1="44.03" x2="90.2" y2="41.14"/>
					<line class="st3" x1="89.9" y1="44.03" x2="89.9" y2="40.96"/>
					<line class="st3" x1="89.59" y1="44.03" x2="89.59" y2="40.82"/>
					<path class="st3" d="M90.1,64.63c0,0,2.84,0.7,6.16,0"/>
					<line class="st3" x1="89.31" y1="64.63" x2="89.31" y2="68.66"/>
					<rect x="89.85" y="65.29" class="st3" width="0.32" height="0.32"/>
					<rect x="89.85" y="65.95" class="st3" width="0.32" height="0.32"/>
					<rect x="89.85" y="66.61" class="st3" width="0.32" height="0.32"/>
					<rect x="89.85" y="67.27" class="st3" width="0.32" height="0.32"/>
					<rect x="89.85" y="67.92" class="st3" width="0.32" height="0.32"/>
					<rect x="90.82" y="65.29" class="st3" width="0.32" height="0.32"/>
					<rect x="90.82" y="65.95" class="st3" width="0.32" height="0.32"/>
					<rect x="90.82" y="66.61" class="st3" width="0.32" height="0.32"/>
					<rect x="90.82" y="67.27" class="st3" width="0.32" height="0.32"/>
					<rect x="90.82" y="67.92" class="st3" width="0.32" height="0.32"/>
					<rect x="91.79" y="65.29" class="st3" width="0.32" height="0.32"/>
					<rect x="91.79" y="65.95" class="st3" width="0.32" height="0.32"/>
					<rect x="91.79" y="66.61" class="st3" width="0.32" height="0.32"/>
					<rect x="91.79" y="67.27" class="st3" width="0.32" height="0.32"/>
					<rect x="91.79" y="67.92" class="st3" width="0.32" height="0.32"/>
					<rect x="92.76" y="65.29" class="st3" width="0.32" height="0.32"/>
					<rect x="92.76" y="65.95" class="st3" width="0.32" height="0.32"/>
					<rect x="92.76" y="66.61" class="st3" width="0.32" height="0.32"/>
					<rect x="92.76" y="67.27" class="st3" width="0.32" height="0.32"/>
					<rect x="92.76" y="67.92" class="st3" width="0.32" height="0.32"/>
					<rect x="93.73" y="65.29" class="st3" width="0.32" height="0.32"/>
					<rect x="93.73" y="65.95" class="st3" width="0.32" height="0.32"/>
					<rect x="93.73" y="66.61" class="st3" width="0.32" height="0.32"/>
					<rect x="93.73" y="67.27" class="st3" width="0.32" height="0.32"/>
					<rect x="93.73" y="67.92" class="st3" width="0.32" height="0.32"/>
					<rect x="94.69" y="65.29" class="st3" width="0.32" height="0.32"/>
					<rect x="94.69" y="65.95" class="st3" width="0.32" height="0.32"/>
					<rect x="94.69" y="66.61" class="st3" width="0.32" height="0.32"/>
					<rect x="94.69" y="67.27" class="st3" width="0.32" height="0.32"/>
					<rect x="94.69" y="67.92" class="st3" width="0.32" height="0.32"/>
					<rect x="95.66" y="65.29" class="st3" width="0.32" height="0.32"/>
					<rect x="95.66" y="65.95" class="st3" width="0.32" height="0.32"/>
					<rect x="95.66" y="66.61" class="st3" width="0.32" height="0.32"/>
					<rect x="95.66" y="67.27" class="st3" width="0.32" height="0.32"/>
					<rect x="95.66" y="67.92" class="st3" width="0.32" height="0.32"/>
					<rect x="96.63" y="65.29" class="st3" width="0.32" height="0.32"/>
					<rect x="96.63" y="65.95" class="st3" width="0.32" height="0.32"/>
					<rect x="96.63" y="66.61" class="st3" width="0.32" height="0.32"/>
					<rect x="96.63" y="67.27" class="st3" width="0.32" height="0.32"/>
					<rect x="96.63" y="67.92" class="st3" width="0.32" height="0.32"/>
					<rect x="98.25" y="65.29" class="st3" width="0.32" height="0.32"/>
					<rect x="98.25" y="65.95" class="st3" width="0.32" height="0.32"/>
					<rect x="98.25" y="66.61" class="st3" width="0.32" height="0.32"/>
					<rect x="98.25" y="67.27" class="st3" width="0.32" height="0.32"/>
					<rect x="98.25" y="67.92" class="st3" width="0.32" height="0.32"/>
					<rect x="99.22" y="65.29" class="st3" width="0.32" height="0.32"/>
					<rect x="99.22" y="65.95" class="st3" width="0.32" height="0.32"/>
					<rect x="99.22" y="66.61" class="st3" width="0.32" height="0.32"/>
					<rect x="99.22" y="67.27" class="st3" width="0.32" height="0.32"/>
					<rect x="99.22" y="67.92" class="st3" width="0.32" height="0.32"/>
					<rect x="100.19" y="65.29" class="st3" width="0.32" height="0.32"/>
					<rect x="100.19" y="65.95" class="st3" width="0.32" height="0.32"/>
					<rect x="100.19" y="66.61" class="st3" width="0.32" height="0.32"/>
					<rect x="100.19" y="67.27" class="st3" width="0.32" height="0.32"/>
					<rect x="100.19" y="67.92" class="st3" width="0.32" height="0.32"/>
					<rect x="101.16" y="65.29" class="st3" width="0.32" height="0.32"/>
					<rect x="101.16" y="65.95" class="st3" width="0.32" height="0.32"/>
					<rect x="101.16" y="66.61" class="st3" width="0.32" height="0.32"/>
					<rect x="101.16" y="67.27" class="st3" width="0.32" height="0.32"/>
					<rect x="101.16" y="67.92" class="st3" width="0.32" height="0.32"/>
					<polyline class="st3" points="90.73,64.75 90.73,63.85 91.24,64.82 					"/>
					<polyline class="st3" points="91.67,64.87 91.67,63.85 92.22,64.91 					"/>
					<polyline class="st3" points="92.61,64.93 92.61,63.85 93.18,64.94 					"/>
					<polyline class="st3" points="93.55,64.93 93.55,63.85 94.1,64.91 					"/>
					<polyline class="st3" points="94.49,64.88 94.49,63.85 95,64.83 					"/>
					<polyline class="st3" points="95.42,64.78 95.42,63.85 95.87,64.7 					"/>
					<line class="st3" x1="89.68" y1="63.52" x2="90.05" y2="63.52"/>
					<line class="st3" x1="90.4" y1="63.52" x2="90.77" y2="63.52"/>
					<line class="st3" x1="89.68" y1="62.94" x2="90.05" y2="62.94"/>
					<line class="st3" x1="90.4" y1="62.94" x2="90.77" y2="62.94"/>
					<line class="st3" x1="89.68" y1="62.36" x2="90.05" y2="62.36"/>
					<line class="st3" x1="90.4" y1="62.36" x2="90.77" y2="62.36"/>
					<line class="st3" x1="89.68" y1="61.78" x2="90.05" y2="61.78"/>
					<line class="st3" x1="90.4" y1="61.78" x2="90.77" y2="61.78"/>
					<line class="st3" x1="89.68" y1="61.2" x2="90.05" y2="61.2"/>
					<line class="st3" x1="90.4" y1="61.2" x2="90.77" y2="61.2"/>
					<line class="st3" x1="89.68" y1="60.61" x2="90.05" y2="60.61"/>
					<line class="st3" x1="90.4" y1="60.61" x2="90.77" y2="60.61"/>
					<line class="st3" x1="89.68" y1="60.03" x2="90.05" y2="60.03"/>
					<line class="st3" x1="90.4" y1="60.03" x2="90.77" y2="60.03"/>
					<line class="st3" x1="89.68" y1="59.45" x2="90.05" y2="59.45"/>
					<line class="st3" x1="90.4" y1="59.45" x2="90.77" y2="59.45"/>
					<line class="st3" x1="89.68" y1="58.87" x2="90.05" y2="58.87"/>
					<line class="st3" x1="90.4" y1="58.87" x2="90.77" y2="58.87"/>
					<line class="st3" x1="89.68" y1="58.29" x2="90.05" y2="58.29"/>
					<line class="st3" x1="90.4" y1="58.29" x2="90.77" y2="58.29"/>
					<line class="st3" x1="89.68" y1="57.7" x2="90.05" y2="57.7"/>
					<line class="st3" x1="90.4" y1="57.7" x2="90.77" y2="57.7"/>
					<line class="st3" x1="89.68" y1="57.12" x2="90.05" y2="57.12"/>
					<line class="st3" x1="90.4" y1="57.12" x2="90.77" y2="57.12"/>
					<line class="st3" x1="89.68" y1="56.54" x2="90.05" y2="56.54"/>
					<line class="st3" x1="90.4" y1="56.54" x2="90.77" y2="56.54"/>
					<line class="st3" x1="89.68" y1="55.96" x2="90.05" y2="55.96"/>
					<line class="st3" x1="90.4" y1="55.96" x2="90.77" y2="55.96"/>
					<line class="st3" x1="89.68" y1="55.38" x2="90.05" y2="55.38"/>
					<line class="st3" x1="90.4" y1="55.38" x2="90.77" y2="55.38"/>
					<line class="st3" x1="89.68" y1="54.8" x2="90.05" y2="54.8"/>
					<line class="st3" x1="90.4" y1="54.8" x2="90.77" y2="54.8"/>
					<line class="st3" x1="89.68" y1="54.21" x2="90.05" y2="54.21"/>
					<line class="st3" x1="90.4" y1="54.21" x2="90.77" y2="54.21"/>
					<line class="st3" x1="89.68" y1="53.63" x2="90.05" y2="53.63"/>
					<line class="st3" x1="90.4" y1="53.63" x2="90.77" y2="53.63"/>
					<line class="st3" x1="89.68" y1="53.05" x2="90.05" y2="53.05"/>
					<line class="st3" x1="90.4" y1="53.05" x2="90.77" y2="53.05"/>
					<line class="st3" x1="89.68" y1="52.47" x2="90.05" y2="52.47"/>
					<line class="st3" x1="90.4" y1="52.47" x2="90.77" y2="52.47"/>
					<line class="st3" x1="89.68" y1="51.89" x2="90.05" y2="51.89"/>
					<line class="st3" x1="90.4" y1="51.89" x2="90.77" y2="51.89"/>
					<line class="st3" x1="89.68" y1="51.31" x2="90.05" y2="51.31"/>
					<line class="st3" x1="90.4" y1="51.31" x2="90.77" y2="51.31"/>
					<line class="st3" x1="89.68" y1="50.72" x2="90.05" y2="50.72"/>
					<line class="st3" x1="90.4" y1="50.72" x2="90.77" y2="50.72"/>
					<line class="st3" x1="89.68" y1="50.14" x2="90.05" y2="50.14"/>
					<line class="st3" x1="90.4" y1="50.14" x2="90.77" y2="50.14"/>
					<line class="st3" x1="89.68" y1="49.56" x2="90.05" y2="49.56"/>
					<line class="st3" x1="90.4" y1="49.56" x2="90.77" y2="49.56"/>
					<line class="st3" x1="89.68" y1="48.98" x2="90.05" y2="48.98"/>
					<line class="st3" x1="90.4" y1="48.98" x2="90.77" y2="48.98"/>
					<line class="st3" x1="89.68" y1="48.4" x2="90.05" y2="48.4"/>
					<line class="st3" x1="90.4" y1="48.4" x2="90.77" y2="48.4"/>
					<line class="st3" x1="89.68" y1="47.82" x2="90.05" y2="47.82"/>
					<line class="st3" x1="90.4" y1="47.82" x2="90.77" y2="47.82"/>
					<line class="st3" x1="89.68" y1="47.23" x2="90.05" y2="47.23"/>
					<line class="st3" x1="90.4" y1="47.23" x2="90.77" y2="47.23"/>
					<line class="st3" x1="89.68" y1="46.65" x2="90.05" y2="46.65"/>
					<line class="st3" x1="90.4" y1="46.65" x2="90.77" y2="46.65"/>
					<line class="st3" x1="89.68" y1="46.07" x2="90.05" y2="46.07"/>
					<line class="st3" x1="90.4" y1="46.07" x2="90.77" y2="46.07"/>
					<line class="st3" x1="89.68" y1="45.49" x2="90.05" y2="45.49"/>
					<line class="st3" x1="90.4" y1="45.49" x2="90.77" y2="45.49"/>
					<line class="st3" x1="89.68" y1="44.91" x2="90.05" y2="44.91"/>
					<line class="st3" x1="90.4" y1="44.91" x2="90.77" y2="44.91"/>
					<line class="st3" x1="89.68" y1="44.33" x2="90.05" y2="44.33"/>
					<line class="st3" x1="90.4" y1="44.33" x2="90.77" y2="44.33"/>
					<line class="st3" x1="91.95" y1="63.52" x2="96.51" y2="63.52"/>
					<line class="st3" x1="91.95" y1="62.94" x2="96.39" y2="62.94"/>
					<line class="st3" x1="91.95" y1="62.36" x2="96.28" y2="62.36"/>
					<line class="st3" x1="91.95" y1="61.78" x2="96.16" y2="61.78"/>
					<line class="st3" x1="91.95" y1="61.2" x2="96.05" y2="61.2"/>
					<line class="st3" x1="91.95" y1="60.61" x2="95.93" y2="60.61"/>
					<line class="st3" x1="91.95" y1="60.03" x2="95.81" y2="60.03"/>
					<line class="st3" x1="91.95" y1="59.45" x2="95.7" y2="59.45"/>
					<line class="st3" x1="91.95" y1="58.87" x2="95.58" y2="58.87"/>
					<line class="st3" x1="91.95" y1="58.29" x2="95.47" y2="58.29"/>
					<line class="st3" x1="91.95" y1="57.7" x2="95.35" y2="57.7"/>
					<line class="st3" x1="91.95" y1="57.12" x2="95.23" y2="57.12"/>
					<line class="st3" x1="91.95" y1="56.54" x2="95.12" y2="56.54"/>
					<line class="st3" x1="91.95" y1="55.96" x2="95" y2="55.96"/>
					<line class="st3" x1="91.95" y1="55.38" x2="94.89" y2="55.38"/>
					<line class="st3" x1="91.95" y1="54.8" x2="94.77" y2="54.8"/>
					<line class="st3" x1="91.95" y1="54.21" x2="94.65" y2="54.21"/>
					<line class="st3" x1="91.95" y1="53.63" x2="94.54" y2="53.63"/>
					<line class="st3" x1="91.95" y1="53.05" x2="94.42" y2="53.05"/>
					<line class="st3" x1="91.95" y1="52.47" x2="94.31" y2="52.47"/>
					<line class="st3" x1="91.95" y1="51.89" x2="94.19" y2="51.89"/>
					<line class="st3" x1="91.95" y1="51.31" x2="94.08" y2="51.31"/>
					<line class="st3" x1="91.95" y1="50.72" x2="93.96" y2="50.72"/>
					<line class="st3" x1="91.95" y1="50.14" x2="93.84" y2="50.14"/>
					<line class="st3" x1="91.95" y1="49.56" x2="93.73" y2="49.56"/>
					<line class="st3" x1="91.95" y1="48.98" x2="93.61" y2="48.98"/>
					<line class="st3" x1="91.95" y1="48.4" x2="93.5" y2="48.4"/>
					<line class="st3" x1="91.95" y1="47.82" x2="93.38" y2="47.82"/>
					<line class="st3" x1="91.95" y1="47.23" x2="93.26" y2="47.23"/>
					<line class="st3" x1="91.95" y1="46.65" x2="93.15" y2="46.65"/>
					<line class="st3" x1="91.95" y1="46.07" x2="93.03" y2="46.07"/>
					<line class="st3" x1="91.95" y1="45.49" x2="92.92" y2="45.49"/>
					<line class="st3" x1="91.95" y1="44.91" x2="92.8" y2="44.91"/>
					<line class="st3" x1="91.95" y1="44.33" x2="92.68" y2="44.33"/>
					<line class="st3" x1="91.95" y1="43.74" x2="92.57" y2="43.74"/>
					<path class="st1" d="M96.26,64.63v-0.77h0.32l-3.03-15.2v0v-7.04l0.8-0.59h-1.33h-1.33l0.8,0.59v0.87l-3.16-1.86v23.24h0.79
						v0.77h-0.79l-0.6,0.88l0.6,3.16h12.92l0.81-4.04C103.03,64.63,96.73,64.63,96.26,64.63z"/>
				</g>
				<g>
					<path class="st2" d="M80.63,66.13c-0.98-0.94-1.01-1.15-1.01-2.36c0-1.03,0-5.87,0-7.34h0c1.21-0.46,2.07-1.63,2.07-3
						c0-1.4-0.9-2.59-2.15-3.03l0,0v-1.61h-0.28v-0.6h0.27v-0.91h-0.37V46.5h-0.67h-0.67l0,0.78h-0.37v0.91c0,0,0.27,0,0.27,0v0.6
						h-0.28v1.61l0,0c-1.25,0.44-2.15,1.63-2.15,3.03c0,1.37,0.86,2.54,2.07,3h0c0,1.47,0,6.31,0,7.34c0,1.22-0.02,1.43-1.01,2.36
						c-0.98,0.94-2.95,2.53-2.95,2.53h5.09h5.09C83.58,68.66,81.61,67.07,80.63,66.13z"/>
					<path class="st3" d="M78.49,50.22c-0.37,0-0.73,0.06-1.06,0.18"/>
					<line class="st3" x1="76.03" y1="53.28" x2="75.28" y2="53.28"/>
					<line class="st3" x1="77.43" y1="53.28" x2="76.37" y2="53.28"/>
					<line class="st3" x1="78.49" y1="53.28" x2="77.8" y2="53.28"/>
					<line class="st3" x1="76.07" y1="53.73" x2="75.3" y2="53.73"/>
					<line class="st3" x1="77.45" y1="53.73" x2="76.41" y2="53.73"/>
					<line class="st3" x1="78.49" y1="53.73" x2="77.83" y2="53.73"/>
					<line class="st3" x1="78.49" y1="55.42" x2="75.97" y2="55.42"/>
					<path class="st3" d="M78.12,55.42c-0.16-0.42-0.84-4.1,0.36-4.13"/>
					<path class="st3" d="M77.82,55.42c-0.16-0.35-0.5-1.47-0.35-2.91c0.09-0.86-0.04-1.17-0.33-1.16
						c-0.29,0.01-0.85,0.59-0.76,2.09c0.07,1.24,0.69,1.98,0.69,1.98"/>
					<path class="st3" d="M76.69,55.42c0,0-0.53-0.62-0.63-1.81c-0.09-0.98,0.1-1.42,0.22-1.81c0.1-0.3-0.19-0.61-0.64,0.18"/>
					<polyline class="st3" points="77.71,48.79 77.92,48.59 78.49,48.59 					"/>
					<line class="st3" x1="77.82" y1="47.29" x2="78.49" y2="47.29"/>
					<line class="st3" x1="78.49" y1="48.2" x2="77.71" y2="48.2"/>
					<path class="st3" d="M78.49,56h-1.13c0,0,0,0.16,0,0.43"/>
					<path class="st3" d="M78.49,50.22c0.37,0,0.73,0.06,1.06,0.18"/>
					<line class="st3" x1="80.94" y1="53.28" x2="81.69" y2="53.28"/>
					<line class="st3" x1="79.54" y1="53.28" x2="80.6" y2="53.28"/>
					<line class="st3" x1="78.49" y1="53.28" x2="79.18" y2="53.28"/>
					<line class="st3" x1="80.91" y1="53.73" x2="81.68" y2="53.73"/>
					<line class="st3" x1="79.52" y1="53.73" x2="80.57" y2="53.73"/>
					<line class="st3" x1="78.49" y1="53.73" x2="79.15" y2="53.73"/>
					<line class="st3" x1="78.49" y1="55.42" x2="81" y2="55.42"/>
					<path class="st3" d="M78.85,55.42c0.16-0.42,0.84-4.1-0.36-4.13"/>
					<path class="st3" d="M79.15,55.42c0.16-0.35,0.5-1.47,0.35-2.91c-0.09-0.86,0.04-1.17,0.33-1.16c0.29,0.01,0.85,0.59,0.76,2.09
						c-0.07,1.24-0.69,1.98-0.69,1.98"/>
					<path class="st3" d="M80.29,55.42c0,0,0.53-0.62,0.63-1.81c0.09-0.98-0.1-1.42-0.22-1.81c-0.1-0.3,0.19-0.61,0.64,0.18"/>
					<polyline class="st3" points="79.26,48.79 79.05,48.59 78.49,48.59 					"/>
					<line class="st3" x1="79.15" y1="47.29" x2="78.49" y2="47.29"/>
					<line class="st3" x1="78.49" y1="48.2" x2="79.26" y2="48.2"/>
					<path class="st1" d="M80.63,66.13c-0.98-0.94-1.01-1.15-1.01-2.36c0-1.03,0-5.87,0-7.34h0c1.21-0.46,2.07-1.63,2.07-3
						c0-1.4-0.9-2.59-2.15-3.03l0,0v-1.61h-0.28v-0.6h0.27v-0.91h-0.37V46.5h-0.67h-0.67l0,0.78h-0.37v0.91c0,0,0.27,0,0.27,0v0.6
						h-0.28v1.61l0,0c-1.25,0.44-2.15,1.63-2.15,3.03c0,1.37,0.86,2.54,2.07,3h0c0,1.47,0,6.31,0,7.34c0,1.22-0.02,1.43-1.01,2.36
						c-0.98,0.94-2.95,2.53-2.95,2.53h5.09h5.09C83.58,68.66,81.61,67.07,80.63,66.13z"/>
					<path class="st3" d="M78.49,56h1.13c0,0,0,0.16,0,0.43"/>
				</g>
				<g>
					<polygon class="st2" points="35.63,62.19 35.26,62.19 34.85,68.66 35.44,68.66 36.03,68.66 					"/>
					<path class="st2" d="M35.66,54.23c0,0.12-0.1,0.22-0.22,0.22c-0.12,0-0.22-0.1-0.22-0.22c0-0.12,0.1-0.22,0.22-0.22
						C35.56,54.01,35.66,54.11,35.66,54.23z"/>
					<circle class="st2" cx="35.44" cy="61.88" r="0.36"/>
					<g>
						<polyline class="st2" points="35.9,57.19 36.36,55.31 35.65,54.75 35.44,54.75 35.24,54.75 34.52,55.31 34.98,57.19 						"/>
					</g>
					<path class="st1" d="M34.86,57.82c-0.02-0.26,0.19-0.3,0.32-0.25c0.26,0.1,0.27,0.52,0.27,0.52v3.42"/>
					<polyline class="st1" points="35.44,54.75 35.24,54.75 34.52,55.31 34.98,57.19 35.44,57.19 					"/>
					<polyline class="st1" points="35.44,54.75 35.65,54.75 36.36,55.31 35.9,57.19 35.44,57.19 					"/>
					<path class="st1" d="M36.03,57.82c0.02-0.26-0.19-0.3-0.32-0.25c-0.26,0.1-0.27,0.52-0.27,0.52v3.42"/>
					<path class="st1" d="M35.66,54.23c0,0.12-0.1,0.22-0.22,0.22c-0.12,0-0.22-0.1-0.22-0.22c0-0.12,0.1-0.22,0.22-0.22
						C35.56,54.01,35.66,54.11,35.66,54.23z"/>
					<line class="st1" x1="35.44" y1="54.01" x2="35.44" y2="53.63"/>
					<circle class="st1" cx="35.44" cy="61.88" r="0.36"/>
					<polyline class="st1" points="35.26,62.19 34.85,68.66 35.44,68.66 					"/>
					<polyline class="st1" points="35.63,62.19 36.03,68.66 35.44,68.66 					"/>
					<line class="st3" x1="34.52" y1="55.31" x2="36.36" y2="55.31"/>
					<polyline class="st3" points="35.22,57.19 35.08,55.31 35.44,54.75 					"/>
					<polyline class="st3" points="35.66,57.19 35.81,55.31 35.44,54.75 					"/>
					<line class="st3" x1="35.84" y1="65.52" x2="35.05" y2="65.52"/>
					<line class="st3" x1="35.04" y1="65.68" x2="35.85" y2="65.68"/>
					<line class="st3" x1="35.44" y1="65.2" x2="35.44" y2="63.81"/>
					<line class="st3" x1="34.88" y1="68.31" x2="36.01" y2="68.31"/>
					<line class="st3" x1="35.3" y1="66.11" x2="35.21" y2="67.97"/>
					<line class="st3" x1="35.59" y1="66.11" x2="35.68" y2="67.97"/>
				</g>
				<g>
					<path class="st2" d="M52.5,67.7v-0.37h-0.37v-0.29c-0.06-1.79-0.91-2.79-0.91-2.79l0,0c0.25-0.76,0.22-1.82,0.04-3.21
						c-0.11-0.86-0.52-1.78-0.95-2.57l0.02-0.01c0.19-0.39,1.31-1.85,0.94-4.68c-0.11-0.86-0.52-1.78-0.95-2.57l0.02-0.01
						c0.19-0.39,1.31-1.85,0.94-4.68c-0.11-0.86-0.52-1.78-0.95-2.57l0.02-0.01c0.12-0.24,0.6-0.9,0.85-2.04l-0.03-0.01h-0.99
						l0-0.01v-0.35h-0.39l0-0.01v-0.35l0.39-0.35c0,0-0.33-0.49-1.17-0.49s-1.17,0.49-1.17,0.49l0.39,0.35v0.35l0,0.01h-0.39v0.35
						l0,0.01h-0.87l0,0c-0.19,0.73-0.3,1.69-0.15,2.89c0.11,0.86,0.52,1.78,0.95,2.57l-0.02,0.01c-0.19,0.39-1.31,1.85-0.94,4.68
						c0.12,0.88,0.53,1.81,0.97,2.6l-0.04,0.02c-0.19,0.39-1.31,1.85-0.94,4.68c0.12,0.88,0.53,1.82,0.98,2.61l-0.04,0.02
						c-0.13,0.26-0.66,0.98-0.9,2.26l0,0c0,0-0.85,1-0.91,2.79v0.29h-0.37v0.37l-0.4,0.48v0.48h3.87h3.87v-0.48L52.5,67.7z"/>
					<path class="st3" d="M48.34,55.59c-0.18-0.27-0.38-0.59-0.57-0.94"/>
					<g>
						<path class="st3" d="M48.34,54.35c-0.59-0.89-1.38-2.28-1.54-3.54c-0.02-0.17-0.04-0.33-0.05-0.49"/>
						<path class="st3" d="M48.34,53.11c-0.57-0.86-1.31-2.17-1.52-3.39"/>
						<path class="st3" d="M48.34,51.87c-0.48-0.72-1.08-1.75-1.38-2.78"/>
						<path class="st3" d="M48.34,50.63c-0.38-0.58-0.84-1.35-1.17-2.17"/>
						<path class="st3" d="M48.34,49.4c-0.28-0.42-0.6-0.96-0.89-1.54"/>
					</g>
					<g>
						<path class="st3" d="M48.34,61.67c-0.59-0.89-1.38-2.28-1.54-3.54c-0.02-0.17-0.04-0.34-0.05-0.5"/>
						<path class="st3" d="M48.34,60.43c-0.57-0.86-1.32-2.17-1.52-3.4"/>
						<path class="st3" d="M48.34,59.19c-0.48-0.72-1.08-1.76-1.38-2.79"/>
						<path class="st3" d="M48.34,57.95c-0.38-0.58-0.85-1.36-1.17-2.18"/>
						<path class="st3" d="M48.34,56.72c-0.28-0.43-0.61-0.96-0.89-1.55"/>
					</g>
					<g>
						<path class="st3" d="M47.22,64.25c-0.09-0.21-0.17-0.43-0.24-0.65"/>
						<path class="st3" d="M47.85,64.25c-0.23-0.39-0.45-0.83-0.63-1.27"/>
						<path class="st3" d="M48.34,63.81c-0.26-0.4-0.56-0.89-0.83-1.43"/>
					</g>
					<g>
						<path class="st3" d="M48.34,46.94c-0.59-0.89-1.38-2.28-1.54-3.54c-0.02-0.14-0.03-0.28-0.04-0.41"/>
						<path class="st3" d="M48.34,45.7c-0.56-0.84-1.28-2.11-1.51-3.3"/>
						<path class="st3" d="M48.34,44.46c-0.44-0.66-0.98-1.6-1.31-2.55"/>
						<path class="st3" d="M48.34,43.22c-0.24-0.37-0.52-0.82-0.77-1.31"/>
					</g>
					<path class="st3" d="M50.3,58.47c-0.2-0.36-0.41-0.69-0.59-0.97"/>
					<path class="st3" d="M48.34,48.33c-0.19-0.28-0.39-0.61-0.59-0.97"/>
					<path class="st3" d="M50.3,51.21c-0.2-0.36-0.41-0.69-0.59-0.97"/>
					<path class="st3" d="M50.3,43.96c-0.2-0.36-0.41-0.69-0.59-0.97"/>
					<path class="st3" d="M48.34,62.89c-0.18-0.27-0.38-0.59-0.57-0.93"/>
					<line class="st3" x1="47.81" y1="41.91" x2="50.15" y2="41.91"/>
					<rect x="48.34" y="41.91" class="st3" width="1.37" height="22.34"/>
					<path class="st3" d="M49.33,64.25"/>
					<line class="st3" x1="45.93" y1="67.04" x2="49.02" y2="67.04"/>
					<line class="st3" x1="49.02" y1="67.33" x2="45.93" y2="67.33"/>
					<line class="st3" x1="45.15" y1="68.18" x2="49.02" y2="68.18"/>
					<line class="st3" x1="51.22" y1="64.25" x2="46.83" y2="64.25"/>
					<line class="st3" x1="52.12" y1="67.04" x2="49.02" y2="67.04"/>
					<line class="st3" x1="49.02" y1="67.33" x2="52.12" y2="67.33"/>
					<line class="st3" x1="52.89" y1="68.18" x2="49.02" y2="68.18"/>
					<line class="st3" x1="46.87" y1="64.65" x2="47.29" y2="64.65"/>
					<line class="st3" x1="47.84" y1="64.65" x2="48.26" y2="64.65"/>
					<line class="st3" x1="48.81" y1="64.65" x2="49.24" y2="64.65"/>
					<line class="st3" x1="49.79" y1="64.65" x2="50.21" y2="64.65"/>
					<line class="st3" x1="50.76" y1="64.65" x2="51.18" y2="64.65"/>
					<line class="st3" x1="46.87" y1="65.04" x2="47.29" y2="65.04"/>
					<line class="st3" x1="47.84" y1="65.04" x2="48.26" y2="65.04"/>
					<line class="st3" x1="48.81" y1="65.04" x2="49.24" y2="65.04"/>
					<line class="st3" x1="49.79" y1="65.04" x2="50.21" y2="65.04"/>
					<line class="st3" x1="50.76" y1="65.04" x2="51.18" y2="65.04"/>
					<line class="st3" x1="46.21" y1="65.44" x2="46.32" y2="65.44"/>
					<line class="st3" x1="46.87" y1="65.44" x2="47.29" y2="65.44"/>
					<line class="st3" x1="47.84" y1="65.44" x2="48.26" y2="65.44"/>
					<line class="st3" x1="48.81" y1="65.44" x2="49.24" y2="65.44"/>
					<line class="st3" x1="49.79" y1="65.44" x2="50.21" y2="65.44"/>
					<line class="st3" x1="50.76" y1="65.44" x2="51.18" y2="65.44"/>
					<line class="st3" x1="51.73" y1="65.44" x2="51.84" y2="65.44"/>
					<line class="st3" x1="46.11" y1="65.84" x2="46.32" y2="65.84"/>
					<line class="st3" x1="46.87" y1="65.84" x2="47.29" y2="65.84"/>
					<line class="st3" x1="47.84" y1="65.84" x2="48.26" y2="65.84"/>
					<line class="st3" x1="48.81" y1="65.84" x2="49.24" y2="65.84"/>
					<line class="st3" x1="49.79" y1="65.84" x2="50.21" y2="65.84"/>
					<line class="st3" x1="50.76" y1="65.84" x2="51.18" y2="65.84"/>
					<line class="st3" x1="51.73" y1="65.84" x2="51.95" y2="65.84"/>
					<line class="st3" x1="46.01" y1="66.24" x2="46.32" y2="66.24"/>
					<line class="st3" x1="46.87" y1="66.24" x2="47.29" y2="66.24"/>
					<line class="st3" x1="47.84" y1="66.24" x2="48.26" y2="66.24"/>
					<line class="st3" x1="48.81" y1="66.24" x2="49.24" y2="66.24"/>
					<line class="st3" x1="49.79" y1="66.24" x2="50.21" y2="66.24"/>
					<line class="st3" x1="50.76" y1="66.24" x2="51.18" y2="66.24"/>
					<line class="st3" x1="51.73" y1="66.24" x2="52.04" y2="66.24"/>
					<line class="st3" x1="45.95" y1="66.64" x2="46.32" y2="66.64"/>
					<line class="st3" x1="46.87" y1="66.64" x2="47.29" y2="66.64"/>
					<line class="st3" x1="47.84" y1="66.64" x2="48.26" y2="66.64"/>
					<line class="st3" x1="48.81" y1="66.64" x2="49.24" y2="66.64"/>
					<line class="st3" x1="49.79" y1="66.64" x2="50.21" y2="66.64"/>
					<line class="st3" x1="50.76" y1="66.64" x2="51.18" y2="66.64"/>
					<line class="st3" x1="51.73" y1="66.64" x2="52.09" y2="66.64"/>
					<line class="st3" x1="46.09" y1="67.7" x2="46.09" y2="68.18"/>
					<line class="st3" x1="46.75" y1="67.7" x2="46.75" y2="68.18"/>
					<line class="st3" x1="47.4" y1="67.7" x2="47.4" y2="68.18"/>
					<line class="st3" x1="48.05" y1="67.7" x2="48.05" y2="68.18"/>
					<line class="st3" x1="48.7" y1="67.7" x2="48.7" y2="68.18"/>
					<line class="st3" x1="49.35" y1="67.7" x2="49.35" y2="68.18"/>
					<line class="st3" x1="50" y1="67.7" x2="50" y2="68.18"/>
					<line class="st3" x1="50.65" y1="67.7" x2="50.65" y2="68.18"/>
					<line class="st3" x1="51.3" y1="67.7" x2="51.3" y2="68.18"/>
					<line class="st3" x1="51.95" y1="67.7" x2="51.95" y2="68.18"/>
					<line class="st3" x1="48.2" y1="41.55" x2="49.76" y2="41.55"/>
					<line class="st3" x1="50.15" y1="41.9" x2="47.81" y2="41.9"/>
					<line class="st3" x1="48.2" y1="41.19" x2="49.76" y2="41.19"/>
					<line class="st3" x1="49.76" y1="41.54" x2="48.2" y2="41.54"/>
					<line class="st3" x1="48.55" y1="41.19" x2="48.98" y2="40.61"/>
					<line class="st3" x1="49.41" y1="41.19" x2="48.98" y2="40.61"/>
					<line class="st3" x1="48.98" y1="39.99" x2="48.98" y2="37.7"/>
					<g>
						<path class="st3" d="M49.71,51.48c0.59,0.89,1.38,2.28,1.54,3.54c0.02,0.17,0.04,0.33,0.05,0.49"/>
						<path class="st3" d="M49.71,52.72c0.57,0.86,1.31,2.17,1.52,3.39"/>
						<path class="st3" d="M49.71,53.95c0.48,0.72,1.08,1.75,1.38,2.78"/>
						<path class="st3" d="M49.71,55.19c0.38,0.58,0.84,1.35,1.17,2.17"/>
						<path class="st3" d="M49.71,56.43c0.28,0.42,0.6,0.96,0.89,1.54"/>
					</g>
					<g>
						<path class="st3" d="M49.71,44.14c0.59,0.89,1.38,2.28,1.54,3.54c0.03,0.2,0.04,0.39,0.06,0.57"/>
						<path class="st3" d="M49.71,45.37c0.58,0.87,1.33,2.2,1.53,3.43"/>
						<path class="st3" d="M49.71,46.61c0.48,0.73,1.09,1.78,1.39,2.83"/>
						<path class="st3" d="M49.71,47.85c0.39,0.59,0.86,1.38,1.18,2.22"/>
						<path class="st3" d="M49.71,49.09c0.29,0.43,0.62,0.99,0.91,1.58"/>
					</g>
					<g>
						<path class="st3" d="M50.39,41.91c0.17,0.31,0.32,0.64,0.46,0.97"/>
						<path class="st3" d="M49.71,42.02c0.27,0.41,0.59,0.93,0.86,1.49"/>
					</g>
					<g>
						<path class="st3" d="M49.71,58.57c0.59,0.89,1.38,2.28,1.54,3.54c0.09,0.68,0.09,1.28,0.04,1.81"/>
						<path class="st3" d="M49.71,59.81c0.59,0.89,1.38,2.28,1.54,3.54c0.02,0.17,0.04,0.33,0.05,0.49"/>
						<path class="st3" d="M49.71,61.05c0.54,0.81,1.24,2.04,1.49,3.2"/>
						<path class="st3" d="M49.71,62.28c0.35,0.53,0.76,1.22,1.08,1.96"/>
						<path class="st3" d="M49.71,63.52c0.14,0.22,0.3,0.46,0.45,0.72"/>
					</g>
					<rect x="48.71" y="41.91" class="st3" width="0.62" height="22.34"/>
					<path class="st1" d="M52.5,67.7v-0.37h-0.37v-0.29c-0.06-1.79-0.91-2.79-0.91-2.79l0,0c0.25-0.76,0.22-1.82,0.04-3.21
						c-0.11-0.86-0.52-1.78-0.95-2.57l0.02-0.01c0.19-0.39,1.31-1.85,0.94-4.68c-0.11-0.86-0.52-1.78-0.95-2.57l0.02-0.01
						c0.19-0.39,1.31-1.85,0.94-4.68c-0.11-0.86-0.52-1.78-0.95-2.57l0.02-0.01c0.12-0.24,0.6-0.9,0.85-2.04l-0.03-0.01h-0.99
						l0-0.01v-0.35h-0.39l0-0.01v-0.35l0.39-0.35c0,0-0.33-0.49-1.17-0.49s-1.17,0.49-1.17,0.49l0.39,0.35v0.35l0,0.01h-0.39v0.35
						l0,0.01h-0.87l0,0c-0.19,0.73-0.3,1.69-0.15,2.89c0.11,0.86,0.52,1.78,0.95,2.57l-0.02,0.01c-0.19,0.39-1.31,1.85-0.94,4.68
						c0.12,0.88,0.53,1.81,0.97,2.6l-0.04,0.02c-0.19,0.39-1.31,1.85-0.94,4.68c0.12,0.88,0.53,1.82,0.98,2.61l-0.04,0.02
						c-0.13,0.26-0.66,0.98-0.9,2.26l0,0c0,0-0.85,1-0.91,2.79v0.29h-0.37v0.37l-0.4,0.48v0.48h3.87h3.87v-0.48L52.5,67.7z"/>
					<line class="st3" x1="49.02" y1="67.7" x2="52.5" y2="67.7"/>
					<line class="st3" x1="49.02" y1="67.7" x2="45.55" y2="67.7"/>
				</g>
				<g>
					<path class="st2" d="M121.28,60.54c0,0-0.25,0.06-0.25,0.41c0-0.35-0.25-0.41-0.25-0.41s-0.25,0.06-0.25,0.41
						c0-0.35-0.25-0.41-0.25-0.41s-0.25,0.06-0.25,0.41c0-0.35-0.25-0.41-0.25-0.41s-0.25,0.06-0.25,0.41
						c0-0.35-0.25-0.41-0.25-0.41s-0.25,0.06-0.25,0.41c0-0.35-0.25-0.41-0.25-0.41s-0.25,0.06-0.25,0.41
						c0-0.35-0.25-0.41-0.25-0.41s-0.25,0.06-0.25,0.41c0-0.35-0.25-0.41-0.25-0.41s-0.25,0.06-0.25,0.41
						c0-0.35-0.25-0.41-0.25-0.41s-0.25,0.06-0.25,0.41c0-0.35-0.25-0.41-0.25-0.41h0c0,0-0.25,0.06-0.25,0.41
						c0-0.35-0.25-0.41-0.25-0.41s-0.25,0.06-0.25,0.41v0.85c0-0.35-0.25-0.41-0.25-0.41s-0.25,0.06-0.25,0.41
						c0-0.35-0.25-0.41-0.25-0.41s-0.25,0.06-0.25,0.41c0-0.35-0.25-0.41-0.25-0.41s-0.25,0.06-0.25,0.41
						c0-0.35-0.25-0.41-0.25-0.41s-0.25,0.06-0.25,0.41c0-0.35-0.25-0.41-0.25-0.41s-0.25,0.06-0.25,0.41
						c0-0.35-0.25-0.41-0.25-0.41h0c0,0-0.25,0.06-0.25,0.41c0-0.35-0.25-0.41-0.25-0.41s-0.25,0.06-0.25,0.41v-0.86
						c0-0.34-0.24-0.4-0.24-0.4s-0.24,0.05-0.24,0.4c0-0.34-0.24-0.4-0.24-0.4s-0.24,0.05-0.24,0.4c0-0.34-0.24-0.4-0.24-0.4
						s-0.24,0.05-0.24,0.4c0-0.34-0.24-0.4-0.24-0.4s-0.24,0.05-0.24,0.4c0-0.34-0.24-0.4-0.24-0.4s-0.24,0.05-0.24,0.4
						c0-0.34-0.24-0.4-0.24-0.4s-0.24,0.05-0.24,0.4c0-0.34-0.24-0.4-0.24-0.4s-0.24,0.05-0.24,0.4c0-0.34-0.24-0.4-0.24-0.4
						s-0.24,0.05-0.24,0.4c0-0.34-0.24-0.4-0.24-0.4s-0.24,0.05-0.24,0.4c0-0.34-0.24-0.4-0.24-0.4s-0.24,0.05-0.24,0.4
						c0-0.34-0.24-0.4-0.24-0.4s-0.24,0.05-0.24,0.4c0-0.34-0.24-0.4-0.24-0.4s-0.24,0.05-0.24,0.4v0.86c0-0.35-0.25-0.41-0.25-0.41
						s-0.25,0.06-0.25,0.41c0-0.35-0.25-0.41-0.25-0.41h0c0,0-0.25,0.06-0.25,0.41c0-0.35-0.25-0.41-0.25-0.41s-0.25,0.06-0.25,0.41
						c0-0.35-0.25-0.41-0.25-0.41s-0.25,0.06-0.25,0.41c0-0.35-0.25-0.41-0.25-0.41s-0.25,0.06-0.25,0.41
						c0-0.35-0.25-0.41-0.25-0.41s-0.25,0.06-0.25,0.41c0-0.35-0.25-0.41-0.25-0.41s-0.25,0.06-0.25,0.41v-0.85
						c0-0.35-0.25-0.41-0.25-0.41s-0.25,0.06-0.25,0.41c0-0.35-0.25-0.41-0.25-0.41h0c0,0-0.25,0.06-0.25,0.41
						c0-0.35-0.25-0.41-0.25-0.41s-0.25,0.06-0.25,0.41c0-0.35-0.25-0.41-0.25-0.41s-0.25,0.06-0.25,0.41
						c0-0.35-0.25-0.41-0.25-0.41s-0.25,0.06-0.25,0.41c0-0.35-0.25-0.41-0.25-0.41s-0.25,0.06-0.25,0.41
						c0-0.35-0.25-0.41-0.25-0.41s-0.25,0.06-0.25,0.41c0-0.35-0.25-0.41-0.25-0.41s-0.25,0.06-0.25,0.41
						c0-0.35-0.25-0.41-0.25-0.41s-0.25,0.06-0.25,0.41c0-0.35-0.25-0.41-0.25-0.41s-0.25,0.06-0.25,0.41
						c0-0.35-0.25-0.41-0.25-0.41s-0.25,0.06-0.25,0.41v7.71h5.48h1.31h0.02c0,0,0-1.79,0-2.85c0-1.53,1.08-1.77,1.08-1.77
						s1.08,0.24,1.08,1.77c0,1.06,0,2.85,0,2.85h1.31c0,0,0-2.62,0-4.18c0-2.24,1.58-2.59,1.58-2.59s1.58,0.35,1.58,2.59
						c0,1.56,0,4.18,0,4.18h1.31c0,0,0-1.79,0-2.85c0-1.53,1.08-1.77,1.08-1.77s1.08,0.24,1.08,1.77c0,1.06,0,2.85,0,2.85h0.02h1.31
						h5.48v-7.71C121.53,60.6,121.28,60.54,121.28,60.54z"/>
					<line class="st3" x1="106.79" y1="67.78" x2="108.1" y2="67.78"/>
					<line class="st3" x1="103.3" y1="67.78" x2="104.61" y2="67.78"/>
					<line class="st3" x1="106.79" y1="68.06" x2="108.1" y2="68.06"/>
					<line class="st3" x1="106.79" y1="68.35" x2="108.1" y2="68.35"/>
					<line class="st3" x1="106.79" y1="66.09" x2="108.1" y2="66.09"/>
					<line class="st3" x1="106.79" y1="66.03" x2="106.79" y2="61.8"/>
					<line class="st3" x1="103.3" y1="68.1" x2="104.61" y2="68.1"/>
					<line class="st3" x1="103.3" y1="68.38" x2="104.61" y2="68.38"/>
					<line class="st3" x1="98.32" y1="67.78" x2="102.81" y2="67.78"/>
					<line class="st3" x1="98.32" y1="68.1" x2="102.81" y2="68.1"/>
					<line class="st3" x1="98.32" y1="68.38" x2="102.81" y2="68.38"/>
					<line class="st3" x1="103.3" y1="66.09" x2="104.61" y2="66.09"/>
					<line class="st3" x1="103.3" y1="63.13" x2="106.79" y2="63.13"/>
					<line class="st3" x1="103.3" y1="62.87" x2="106.79" y2="62.87"/>
					<line class="st3" x1="98.32" y1="63.13" x2="102.81" y2="63.13"/>
					<line class="st3" x1="98.32" y1="62.87" x2="102.81" y2="62.87"/>
					<line class="st3" x1="98.32" y1="64.48" x2="102.81" y2="64.48"/>
					<line class="st3" x1="98.32" y1="64.22" x2="102.81" y2="64.22"/>
					<line class="st3" x1="98.32" y1="65.84" x2="102.81" y2="65.84"/>
					<line class="st3" x1="98.32" y1="65.58" x2="102.81" y2="65.58"/>
					<line class="st3" x1="103.7" y1="62.54" x2="103.9" y2="62.54"/>
					<line class="st3" x1="104.24" y1="62.18" x2="104.44" y2="62.18"/>
					<line class="st3" x1="104.68" y1="62.54" x2="104.88" y2="62.54"/>
					<line class="st3" x1="105.21" y1="62.18" x2="105.42" y2="62.18"/>
					<line class="st3" x1="105.65" y1="62.54" x2="105.85" y2="62.54"/>
					<line class="st3" x1="106.19" y1="62.18" x2="106.39" y2="62.18"/>
					<line class="st3" x1="98.51" y1="63.86" x2="98.71" y2="63.86"/>
					<line class="st3" x1="99.05" y1="63.5" x2="99.25" y2="63.5"/>
					<line class="st3" x1="99.49" y1="63.86" x2="99.69" y2="63.86"/>
					<line class="st3" x1="100.03" y1="63.5" x2="100.23" y2="63.5"/>
					<line class="st3" x1="100.46" y1="63.86" x2="100.67" y2="63.86"/>
					<line class="st3" x1="101" y1="63.5" x2="101.2" y2="63.5"/>
					<line class="st3" x1="100.46" y1="63.86" x2="100.67" y2="63.86"/>
					<line class="st3" x1="101" y1="63.5" x2="101.2" y2="63.5"/>
					<line class="st3" x1="101.44" y1="63.86" x2="101.64" y2="63.86"/>
					<line class="st3" x1="101.98" y1="63.5" x2="102.18" y2="63.5"/>
					<line class="st3" x1="102.41" y1="63.86" x2="102.62" y2="63.86"/>
					<line class="st3" x1="98.51" y1="65.21" x2="98.71" y2="65.21"/>
					<line class="st3" x1="99.05" y1="64.85" x2="99.25" y2="64.85"/>
					<line class="st3" x1="99.49" y1="65.21" x2="99.69" y2="65.21"/>
					<line class="st3" x1="100.03" y1="64.85" x2="100.23" y2="64.85"/>
					<line class="st3" x1="100.46" y1="65.21" x2="100.67" y2="65.21"/>
					<line class="st3" x1="101" y1="64.85" x2="101.2" y2="64.85"/>
					<line class="st3" x1="100.46" y1="65.21" x2="100.67" y2="65.21"/>
					<line class="st3" x1="101" y1="64.85" x2="101.2" y2="64.85"/>
					<line class="st3" x1="101.44" y1="65.21" x2="101.64" y2="65.21"/>
					<line class="st3" x1="101.98" y1="64.85" x2="102.18" y2="64.85"/>
					<line class="st3" x1="102.41" y1="65.21" x2="102.62" y2="65.21"/>
					<line class="st3" x1="98.51" y1="66.68" x2="98.71" y2="66.68"/>
					<line class="st3" x1="99.05" y1="66.32" x2="99.25" y2="66.32"/>
					<line class="st3" x1="99.49" y1="66.68" x2="99.69" y2="66.68"/>
					<line class="st3" x1="100.03" y1="66.32" x2="100.23" y2="66.32"/>
					<line class="st3" x1="100.46" y1="66.68" x2="100.67" y2="66.68"/>
					<line class="st3" x1="101" y1="66.32" x2="101.2" y2="66.32"/>
					<line class="st3" x1="100.46" y1="66.68" x2="100.67" y2="66.68"/>
					<line class="st3" x1="101" y1="66.32" x2="101.2" y2="66.32"/>
					<line class="st3" x1="101.44" y1="66.68" x2="101.64" y2="66.68"/>
					<line class="st3" x1="101.98" y1="66.32" x2="102.18" y2="66.32"/>
					<line class="st3" x1="102.41" y1="66.68" x2="102.62" y2="66.68"/>
					<line class="st3" x1="98.51" y1="67.41" x2="98.71" y2="67.41"/>
					<line class="st3" x1="99.05" y1="67.05" x2="99.25" y2="67.05"/>
					<line class="st3" x1="99.49" y1="67.41" x2="99.69" y2="67.41"/>
					<line class="st3" x1="100.03" y1="67.05" x2="100.23" y2="67.05"/>
					<line class="st3" x1="100.46" y1="67.41" x2="100.67" y2="67.41"/>
					<line class="st3" x1="101" y1="67.05" x2="101.2" y2="67.05"/>
					<line class="st3" x1="100.46" y1="67.41" x2="100.67" y2="67.41"/>
					<line class="st3" x1="101" y1="67.05" x2="101.2" y2="67.05"/>
					<line class="st3" x1="101.44" y1="67.41" x2="101.64" y2="67.41"/>
					<line class="st3" x1="101.98" y1="67.05" x2="102.18" y2="67.05"/>
					<line class="st3" x1="102.41" y1="67.41" x2="102.62" y2="67.41"/>
					<path class="st3" d="M99.28,61.76c0-0.16,0.13-0.29,0.29-0.29s0.29,0.13,0.29,0.29v0.54h-0.58V61.76z"/>
					<path class="st3" d="M101.27,61.76c0-0.16,0.13-0.29,0.29-0.29s0.29,0.13,0.29,0.29v0.54h-0.58V61.76z"/>
					<line class="st3" x1="103.3" y1="68.66" x2="103.3" y2="61.8"/>
					<line class="st3" x1="112.57" y1="67.78" x2="111.26" y2="67.78"/>
					<line class="st3" x1="116.05" y1="67.78" x2="114.74" y2="67.78"/>
					<line class="st3" x1="112.57" y1="68.06" x2="111.26" y2="68.06"/>
					<line class="st3" x1="112.57" y1="68.35" x2="111.26" y2="68.35"/>
					<line class="st3" x1="112.57" y1="66.09" x2="111.26" y2="66.09"/>
					<line class="st3" x1="112.57" y1="66.03" x2="112.57" y2="61.8"/>
					<line class="st3" x1="116.05" y1="68.1" x2="114.74" y2="68.1"/>
					<line class="st3" x1="116.05" y1="68.38" x2="114.74" y2="68.38"/>
					<line class="st3" x1="121.03" y1="67.78" x2="116.55" y2="67.78"/>
					<line class="st3" x1="121.03" y1="68.1" x2="116.55" y2="68.1"/>
					<line class="st3" x1="121.03" y1="68.38" x2="116.55" y2="68.38"/>
					<line class="st3" x1="116.05" y1="66.09" x2="114.74" y2="66.09"/>
					<line class="st3" x1="116.05" y1="63.13" x2="112.57" y2="63.13"/>
					<line class="st3" x1="116.05" y1="62.87" x2="112.57" y2="62.87"/>
					<line class="st3" x1="121.04" y1="63.13" x2="116.55" y2="63.13"/>
					<line class="st3" x1="121.04" y1="62.87" x2="116.55" y2="62.87"/>
					<line class="st3" x1="121.04" y1="64.48" x2="116.55" y2="64.48"/>
					<line class="st3" x1="121.04" y1="64.22" x2="116.55" y2="64.22"/>
					<line class="st3" x1="121.04" y1="65.84" x2="116.55" y2="65.84"/>
					<line class="st3" x1="121.04" y1="65.58" x2="116.55" y2="65.58"/>
					<line class="st3" x1="115.66" y1="62.54" x2="115.45" y2="62.54"/>
					<line class="st3" x1="115.12" y1="62.18" x2="114.92" y2="62.18"/>
					<line class="st3" x1="114.68" y1="62.54" x2="114.48" y2="62.54"/>
					<line class="st3" x1="114.14" y1="62.18" x2="113.94" y2="62.18"/>
					<line class="st3" x1="113.71" y1="62.54" x2="113.5" y2="62.54"/>
					<line class="st3" x1="113.17" y1="62.18" x2="112.97" y2="62.18"/>
					<line class="st3" x1="120.85" y1="63.86" x2="120.64" y2="63.86"/>
					<line class="st3" x1="120.31" y1="63.5" x2="120.1" y2="63.5"/>
					<line class="st3" x1="119.87" y1="63.86" x2="119.67" y2="63.86"/>
					<line class="st3" x1="119.33" y1="63.5" x2="119.13" y2="63.5"/>
					<line class="st3" x1="118.89" y1="63.86" x2="118.69" y2="63.86"/>
					<line class="st3" x1="118.36" y1="63.5" x2="118.15" y2="63.5"/>
					<line class="st3" x1="118.89" y1="63.86" x2="118.69" y2="63.86"/>
					<line class="st3" x1="118.36" y1="63.5" x2="118.15" y2="63.5"/>
					<line class="st3" x1="117.92" y1="63.86" x2="117.72" y2="63.86"/>
					<line class="st3" x1="117.38" y1="63.5" x2="117.18" y2="63.5"/>
					<line class="st3" x1="116.94" y1="63.86" x2="116.74" y2="63.86"/>
					<line class="st3" x1="120.85" y1="65.21" x2="120.64" y2="65.21"/>
					<line class="st3" x1="120.31" y1="64.85" x2="120.1" y2="64.85"/>
					<line class="st3" x1="119.87" y1="65.21" x2="119.67" y2="65.21"/>
					<line class="st3" x1="119.33" y1="64.85" x2="119.13" y2="64.85"/>
					<line class="st3" x1="118.89" y1="65.21" x2="118.69" y2="65.21"/>
					<line class="st3" x1="118.36" y1="64.85" x2="118.15" y2="64.85"/>
					<line class="st3" x1="118.89" y1="65.21" x2="118.69" y2="65.21"/>
					<line class="st3" x1="118.36" y1="64.85" x2="118.15" y2="64.85"/>
					<line class="st3" x1="117.92" y1="65.21" x2="117.72" y2="65.21"/>
					<line class="st3" x1="117.38" y1="64.85" x2="117.18" y2="64.85"/>
					<line class="st3" x1="116.94" y1="65.21" x2="116.74" y2="65.21"/>
					<line class="st3" x1="120.85" y1="66.68" x2="120.64" y2="66.68"/>
					<line class="st3" x1="120.31" y1="66.32" x2="120.1" y2="66.32"/>
					<line class="st3" x1="119.87" y1="66.68" x2="119.67" y2="66.68"/>
					<line class="st3" x1="119.33" y1="66.32" x2="119.13" y2="66.32"/>
					<line class="st3" x1="118.89" y1="66.68" x2="118.69" y2="66.68"/>
					<line class="st3" x1="118.36" y1="66.32" x2="118.15" y2="66.32"/>
					<line class="st3" x1="118.89" y1="66.68" x2="118.69" y2="66.68"/>
					<line class="st3" x1="118.36" y1="66.32" x2="118.15" y2="66.32"/>
					<line class="st3" x1="117.92" y1="66.68" x2="117.72" y2="66.68"/>
					<line class="st3" x1="117.38" y1="66.32" x2="117.18" y2="66.32"/>
					<line class="st3" x1="116.94" y1="66.68" x2="116.74" y2="66.68"/>
					<line class="st3" x1="120.85" y1="67.41" x2="120.64" y2="67.41"/>
					<line class="st3" x1="120.31" y1="67.05" x2="120.1" y2="67.05"/>
					<line class="st3" x1="119.87" y1="67.41" x2="119.67" y2="67.41"/>
					<line class="st3" x1="119.33" y1="67.05" x2="119.13" y2="67.05"/>
					<line class="st3" x1="118.89" y1="67.41" x2="118.69" y2="67.41"/>
					<line class="st3" x1="118.36" y1="67.05" x2="118.15" y2="67.05"/>
					<line class="st3" x1="118.89" y1="67.41" x2="118.69" y2="67.41"/>
					<line class="st3" x1="118.36" y1="67.05" x2="118.15" y2="67.05"/>
					<line class="st3" x1="117.92" y1="67.41" x2="117.72" y2="67.41"/>
					<line class="st3" x1="117.38" y1="67.05" x2="117.18" y2="67.05"/>
					<line class="st3" x1="116.94" y1="67.41" x2="116.74" y2="67.41"/>
					<path class="st3" d="M120.08,61.76c0-0.16-0.13-0.29-0.29-0.29s-0.29,0.13-0.29,0.29v0.54h0.58V61.76z"/>
					<path class="st3" d="M118.09,61.76c0-0.16-0.13-0.29-0.29-0.29s-0.29,0.13-0.29,0.29v0.54h0.58V61.76z"/>
					<path class="st1" d="M121.28,60.54c0,0-0.25,0.06-0.25,0.41c0-0.35-0.25-0.41-0.25-0.41s-0.25,0.06-0.25,0.41
						c0-0.35-0.25-0.41-0.25-0.41s-0.25,0.06-0.25,0.41c0-0.35-0.25-0.41-0.25-0.41s-0.25,0.06-0.25,0.41
						c0-0.35-0.25-0.41-0.25-0.41s-0.25,0.06-0.25,0.41c0-0.35-0.25-0.41-0.25-0.41s-0.25,0.06-0.25,0.41
						c0-0.35-0.25-0.41-0.25-0.41s-0.25,0.06-0.25,0.41c0-0.35-0.25-0.41-0.25-0.41s-0.25,0.06-0.25,0.41
						c0-0.35-0.25-0.41-0.25-0.41s-0.25,0.06-0.25,0.41c0-0.35-0.25-0.41-0.25-0.41h0c0,0-0.25,0.06-0.25,0.41
						c0-0.35-0.25-0.41-0.25-0.41s-0.25,0.06-0.25,0.41v0.85c0-0.35-0.25-0.41-0.25-0.41s-0.25,0.06-0.25,0.41
						c0-0.35-0.25-0.41-0.25-0.41s-0.25,0.06-0.25,0.41c0-0.35-0.25-0.41-0.25-0.41s-0.25,0.06-0.25,0.41
						c0-0.35-0.25-0.41-0.25-0.41s-0.25,0.06-0.25,0.41c0-0.35-0.25-0.41-0.25-0.41s-0.25,0.06-0.25,0.41
						c0-0.35-0.25-0.41-0.25-0.41h0c0,0-0.25,0.06-0.25,0.41c0-0.35-0.25-0.41-0.25-0.41s-0.25,0.06-0.25,0.41v-0.86
						c0-0.34-0.24-0.4-0.24-0.4s-0.24,0.05-0.24,0.4c0-0.34-0.24-0.4-0.24-0.4s-0.24,0.05-0.24,0.4c0-0.34-0.24-0.4-0.24-0.4
						s-0.24,0.05-0.24,0.4c0-0.34-0.24-0.4-0.24-0.4s-0.24,0.05-0.24,0.4c0-0.34-0.24-0.4-0.24-0.4s-0.24,0.05-0.24,0.4
						c0-0.34-0.24-0.4-0.24-0.4s-0.24,0.05-0.24,0.4c0-0.34-0.24-0.4-0.24-0.4s-0.24,0.05-0.24,0.4c0-0.34-0.24-0.4-0.24-0.4
						s-0.24,0.05-0.24,0.4c0-0.34-0.24-0.4-0.24-0.4s-0.24,0.05-0.24,0.4c0-0.34-0.24-0.4-0.24-0.4s-0.24,0.05-0.24,0.4
						c0-0.34-0.24-0.4-0.24-0.4s-0.24,0.05-0.24,0.4c0-0.34-0.24-0.4-0.24-0.4s-0.24,0.05-0.24,0.4v0.86c0-0.35-0.25-0.41-0.25-0.41
						s-0.25,0.06-0.25,0.41c0-0.35-0.25-0.41-0.25-0.41h0c0,0-0.25,0.06-0.25,0.41c0-0.35-0.25-0.41-0.25-0.41s-0.25,0.06-0.25,0.41
						c0-0.35-0.25-0.41-0.25-0.41s-0.25,0.06-0.25,0.41c0-0.35-0.25-0.41-0.25-0.41s-0.25,0.06-0.25,0.41
						c0-0.35-0.25-0.41-0.25-0.41s-0.25,0.06-0.25,0.41c0-0.35-0.25-0.41-0.25-0.41s-0.25,0.06-0.25,0.41v-0.85
						c0-0.35-0.25-0.41-0.25-0.41s-0.25,0.06-0.25,0.41c0-0.35-0.25-0.41-0.25-0.41h0c0,0-0.25,0.06-0.25,0.41
						c0-0.35-0.25-0.41-0.25-0.41s-0.25,0.06-0.25,0.41c0-0.35-0.25-0.41-0.25-0.41s-0.25,0.06-0.25,0.41
						c0-0.35-0.25-0.41-0.25-0.41s-0.25,0.06-0.25,0.41c0-0.35-0.25-0.41-0.25-0.41s-0.25,0.06-0.25,0.41
						c0-0.35-0.25-0.41-0.25-0.41s-0.25,0.06-0.25,0.41c0-0.35-0.25-0.41-0.25-0.41s-0.25,0.06-0.25,0.41
						c0-0.35-0.25-0.41-0.25-0.41s-0.25,0.06-0.25,0.41c0-0.35-0.25-0.41-0.25-0.41s-0.25,0.06-0.25,0.41
						c0-0.35-0.25-0.41-0.25-0.41s-0.25,0.06-0.25,0.41v7.71h5.48h1.31h0.02c0,0,0-1.79,0-2.85c0-1.53,1.08-1.77,1.08-1.77
						s1.08,0.24,1.08,1.77c0,1.06,0,2.85,0,2.85h1.31c0,0,0-2.62,0-4.18c0-2.24,1.58-2.59,1.58-2.59s1.58,0.35,1.58,2.59
						c0,1.56,0,4.18,0,4.18h1.31c0,0,0-1.79,0-2.85c0-1.53,1.08-1.77,1.08-1.77s1.08,0.24,1.08,1.77c0,1.06,0,2.85,0,2.85h0.02h1.31
						h5.48v-7.71C121.53,60.6,121.28,60.54,121.28,60.54z"/>
					<line class="st3" x1="116.05" y1="68.66" x2="116.05" y2="61.8"/>
				</g>
				<g>
					<path class="st2" d="M90.07,68.23l0-0.22h-0.6l0-0.22h-1.19c0,0-0.06-0.05-0.43-0.29l-1.53-30.78L86,36.25v-5.53l-0.28,0.95
						l-0.33-9.96l-0.86,17.36h-0.8v0.44h0.37c0.14,0,0.28,0.04,0.4,0.11l-0.01,0.02L83.11,67.5h0c-0.36,0.23-0.43,0.29-0.43,0.29
						h-1.19l0,0.22h-0.6v0.22h-0.6v0.43h5.18h5.18v-0.43H90.07z"/>
					<polyline class="st3" points="85.71,31.67 84.97,34.22 84.97,67.12 85.32,67.58 85.48,67.58 					"/>
					<polyline class="st3" points="85.48,67.58 85.65,67.58 86,67.12 86,36.25 					"/>
					<line class="st3" x1="82.68" y1="67.78" x2="85.48" y2="67.78"/>
					<path class="st3" d="M84.97,67.12c-0.42,0-1.19-0.04-1.7,0.28c-0.06,0.04-0.11,0.07-0.16,0.1"/>
					<path class="st3" d="M83.27,67.4c0.29-0.14,1.02-0.08,1.59,0.39"/>
					<line class="st3" x1="85.48" y1="68.01" x2="81.49" y2="68.01"/>
					<line class="st3" x1="85.48" y1="68.23" x2="80.89" y2="68.23"/>
					<line class="st3" x1="88.28" y1="67.78" x2="85.48" y2="67.78"/>
					<path class="st3" d="M86,67.12c0.42,0,1.19-0.04,1.7,0.28c0.06,0.04,0.11,0.07,0.16,0.1"/>
					<path class="st3" d="M87.69,67.4c-0.29-0.14-1.02-0.08-1.59,0.39"/>
					<line class="st3" x1="85.48" y1="68.01" x2="89.47" y2="68.01"/>
					<line class="st3" x1="85.48" y1="68.23" x2="90.07" y2="68.23"/>
					<line class="st3" x1="84.1" y1="39.52" x2="84.96" y2="39.52"/>
					<line class="st3" x1="84.97" y1="39.07" x2="84.52" y2="39.07"/>
					<path class="st3" d="M84.5,39.63c0.24,0.14,0.43,0.43,0.46,0.86"/>
					<line class="st3" x1="84.97" y1="65.46" x2="83.21" y2="65.46"/>
					<line class="st3" x1="84.97" y1="65.12" x2="83.23" y2="65.12"/>
					<line class="st3" x1="84.97" y1="60.78" x2="83.46" y2="60.78"/>
					<line class="st3" x1="84.97" y1="60.44" x2="83.46" y2="60.44"/>
					<line class="st3" x1="84.97" y1="55.53" x2="83.7" y2="55.53"/>
					<line class="st3" x1="84.97" y1="55.19" x2="83.72" y2="55.19"/>
					<line class="st3" x1="84.97" y1="50.32" x2="83.96" y2="50.32"/>
					<line class="st3" x1="84.97" y1="49.98" x2="83.98" y2="49.98"/>
					<line class="st3" x1="84.97" y1="45.4" x2="84.22" y2="45.4"/>
					<line class="st3" x1="84.97" y1="45.07" x2="84.22" y2="45.07"/>
					<rect x="84.49" y="64.06" class="st3" width="0.48" height="0.67"/>
					<rect x="84.49" y="63.12" class="st3" width="0.48" height="0.67"/>
					<rect x="84.49" y="62.18" class="st3" width="0.48" height="0.67"/>
					<rect x="84.49" y="61.24" class="st3" width="0.48" height="0.67"/>
					<rect x="86" y="63.12" class="st3" width="0.48" height="0.67"/>
					<rect x="86" y="62.18" class="st3" width="0.48" height="0.67"/>
					<rect x="86" y="61.24" class="st3" width="0.48" height="0.67"/>
					<rect x="84.49" y="59.47" class="st3" width="0.48" height="0.67"/>
					<rect x="86" y="59.47" class="st3" width="0.48" height="0.67"/>
					<rect x="84.49" y="58.53" class="st3" width="0.48" height="0.67"/>
					<rect x="84.49" y="57.59" class="st3" width="0.48" height="0.67"/>
					<rect x="84.49" y="56.65" class="st3" width="0.48" height="0.67"/>
					<rect x="86" y="57.92" class="st3" width="0.48" height="0.67"/>
					<rect x="86" y="56.98" class="st3" width="0.48" height="0.67"/>
					<rect x="86" y="56.04" class="st3" width="0.48" height="0.67"/>
					<rect x="84.49" y="54.52" class="st3" width="0.48" height="0.67"/>
					<rect x="84.49" y="53.58" class="st3" width="0.48" height="0.67"/>
					<rect x="84.49" y="52.64" class="st3" width="0.48" height="0.67"/>
					<rect x="86" y="53.85" class="st3" width="0.48" height="0.67"/>
					<rect x="86" y="52.91" class="st3" width="0.48" height="0.67"/>
					<rect x="86" y="51.97" class="st3" width="0.48" height="0.67"/>
					<rect x="86" y="51.01" class="st3" width="0.48" height="0.67"/>
					<rect x="84.66" y="51.85" class="st3" width="0.31" height="0.44"/>
					<rect x="84.66" y="51.25" class="st3" width="0.31" height="0.44"/>
					<rect x="84.66" y="50.64" class="st3" width="0.31" height="0.44"/>
					<rect x="84.66" y="48.97" class="st3" width="0.31" height="0.44"/>
					<rect x="84.66" y="48.36" class="st3" width="0.31" height="0.44"/>
					<rect x="84.66" y="47.75" class="st3" width="0.31" height="0.44"/>
					<rect x="84.66" y="47.15" class="st3" width="0.31" height="0.44"/>
					<rect x="84.66" y="46.54" class="st3" width="0.31" height="0.44"/>
					<rect x="86" y="48.97" class="st3" width="0.31" height="0.44"/>
					<rect x="86" y="48.36" class="st3" width="0.31" height="0.44"/>
					<rect x="86" y="47.75" class="st3" width="0.31" height="0.44"/>
					<rect x="86" y="47.15" class="st3" width="0.31" height="0.44"/>
					<rect x="86" y="46.54" class="st3" width="0.31" height="0.44"/>
					<rect x="86" y="45.93" class="st3" width="0.31" height="0.44"/>
					<rect x="86" y="43.77" class="st3" width="0.31" height="0.44"/>
					<rect x="86" y="43.16" class="st3" width="0.31" height="0.44"/>
					<rect x="86" y="42.55" class="st3" width="0.31" height="0.44"/>
					<rect x="86" y="41.94" class="st3" width="0.31" height="0.44"/>
					<rect x="84.66" y="44.21" class="st3" width="0.31" height="0.44"/>
					<rect x="84.66" y="43.61" class="st3" width="0.31" height="0.44"/>
					<rect x="84.66" y="43" class="st3" width="0.31" height="0.44"/>
					<line class="st3" x1="86" y1="65.12" x2="87.73" y2="65.12"/>
					<line class="st3" x1="86" y1="65.46" x2="87.75" y2="65.46"/>
					<line class="st3" x1="86" y1="60.44" x2="87.5" y2="60.44"/>
					<line class="st3" x1="86" y1="60.78" x2="87.52" y2="60.78"/>
					<line class="st3" x1="86" y1="55.19" x2="87.24" y2="55.19"/>
					<line class="st3" x1="86" y1="55.53" x2="87.24" y2="55.53"/>
					<line class="st3" x1="86" y1="49.98" x2="86.98" y2="49.98"/>
					<line class="st3" x1="86" y1="50.32" x2="87" y2="50.32"/>
					<line class="st3" x1="86" y1="45.07" x2="86.74" y2="45.07"/>
					<line class="st3" x1="86" y1="45.4" x2="86.74" y2="45.4"/>
					<path class="st1" d="M90.07,68.23l0-0.22h-0.6l0-0.22h-1.19c0,0-0.06-0.05-0.43-0.29l-1.53-30.78L86,36.25v-5.53l-0.28,0.95
						l-0.33-9.96l-0.86,17.36h-0.8v0.44h0.37c0.14,0,0.28,0.04,0.4,0.11l-0.01,0.02L83.11,67.5h0c-0.36,0.23-0.43,0.29-0.43,0.29
						h-1.19l0,0.22h-0.6v0.22h-0.6v0.43h5.18h5.18v-0.43H90.07z"/>
				</g>
				<g>
					<path class="st2" d="M41.87,47.18h-0.74c-0.11-1.51,0.28-3.09,0.28-3.09s-0.66-0.39-1.86-0.91c-0.09,0.37-0.18,0.76-0.25,1.16
						l-1.11-0.22c-1.05,7.69-0.07,15.83,0.51,20.19l0,0c0.05,0.66,0.11,1.32,0.2,1.98h-7.25v2.37h7.63h4.98
						C44.26,68.66,40.08,58.9,41.87,47.18z"/>
					<path class="st3" d="M38.9,66.29c0.1,0.8,0.23,1.59,0.38,2.37"/>
					<path class="st3" d="M41.14,47.18h-1.19c0,0-1.89,8.58-1.24,17.14"/>
					<path class="st3" d="M38.57,60.05c-0.13-1.82-0.38-9.98,0.74-15.71"/>
					<rect x="39.9" y="65.79" class="st3" width="2.62" height="0.32"/>
					<rect x="40.1" y="66.5" class="st3" width="2.62" height="0.32"/>
					<rect x="40.31" y="67.2" class="st3" width="2.62" height="0.32"/>
					<rect x="40.51" y="67.91" class="st3" width="2.62" height="0.32"/>
					<line class="st3" x1="43.18" y1="65.48" x2="38.8" y2="65.48"/>
					<line class="st3" x1="38.76" y1="65.08" x2="43.07" y2="65.08"/>
					<line class="st3" x1="38.73" y1="64.7" x2="43.31" y2="64.7"/>
					<line class="st3" x1="38.7" y1="64.32" x2="42.86" y2="64.32"/>
					<line class="st3" x1="38.67" y1="63.93" x2="43.12" y2="63.93"/>
					<line class="st3" x1="38.65" y1="63.55" x2="42.67" y2="63.55"/>
					<line class="st3" x1="38.63" y1="63.17" x2="42.93" y2="63.17"/>
					<line class="st3" x1="38.61" y1="62.78" x2="42.5" y2="62.78"/>
					<line class="st3" x1="38.59" y1="62.4" x2="42.76" y2="62.4"/>
					<line class="st3" x1="38.58" y1="62.02" x2="42.33" y2="62.02"/>
					<line class="st3" x1="38.57" y1="61.63" x2="42.61" y2="61.63"/>
					<line class="st3" x1="38.57" y1="61.25" x2="42.18" y2="61.25"/>
					<line class="st3" x1="38.56" y1="60.87" x2="42.47" y2="60.87"/>
					<line class="st3" x1="38.56" y1="60.49" x2="42.05" y2="60.49"/>
					<line class="st3" x1="38.56" y1="60.1" x2="42.34" y2="60.1"/>
					<line class="st3" x1="38.56" y1="59.72" x2="41.93" y2="59.72"/>
					<line class="st3" x1="38.58" y1="59.34" x2="42.22" y2="59.34"/>
					<line class="st3" x1="38.59" y1="58.95" x2="41.82" y2="58.95"/>
					<line class="st3" x1="38.6" y1="58.57" x2="42.12" y2="58.57"/>
					<line class="st3" x1="38.61" y1="58.19" x2="41.72" y2="58.19"/>
					<line class="st3" x1="38.63" y1="57.81" x2="42.03" y2="57.81"/>
					<line class="st3" x1="38.65" y1="57.42" x2="41.64" y2="57.42"/>
					<line class="st3" x1="38.67" y1="57.04" x2="41.95" y2="57.04"/>
					<line class="st3" x1="38.69" y1="56.66" x2="41.57" y2="56.66"/>
					<line class="st3" x1="38.72" y1="56.27" x2="41.89" y2="56.27"/>
					<line class="st3" x1="38.75" y1="55.89" x2="41.51" y2="55.89"/>
					<line class="st3" x1="38.78" y1="55.51" x2="41.84" y2="55.51"/>
					<line class="st3" x1="38.81" y1="55.12" x2="41.47" y2="55.12"/>
					<line class="st3" x1="38.84" y1="54.74" x2="41.81" y2="54.74"/>
					<line class="st3" x1="38.88" y1="54.36" x2="41.44" y2="54.36"/>
					<line class="st3" x1="38.92" y1="53.98" x2="41.79" y2="53.98"/>
					<line class="st3" x1="38.96" y1="53.59" x2="41.43" y2="53.59"/>
					<line class="st3" x1="39" y1="53.21" x2="41.78" y2="53.21"/>
					<line class="st3" x1="39.04" y1="52.83" x2="41.43" y2="52.83"/>
					<line class="st3" x1="39.09" y1="52.44" x2="41.78" y2="52.44"/>
					<line class="st3" x1="39.14" y1="52.06" x2="41.44" y2="52.06"/>
					<line class="st3" x1="39.19" y1="51.68" x2="41.8" y2="51.68"/>
					<line class="st3" x1="39.24" y1="51.29" x2="41.47" y2="51.29"/>
					<line class="st3" x1="39.29" y1="50.91" x2="41.84" y2="50.91"/>
					<line class="st3" x1="39.35" y1="50.53" x2="41.51" y2="50.53"/>
					<line class="st3" x1="39.41" y1="50.15" x2="41.89" y2="50.15"/>
					<line class="st3" x1="39.47" y1="49.76" x2="41.57" y2="49.76"/>
					<line class="st3" x1="39.53" y1="49.38" x2="41.95" y2="49.38"/>
					<line class="st3" x1="39.6" y1="49" x2="41.64" y2="49"/>
					<line class="st3" x1="39.66" y1="48.61" x2="42.03" y2="48.61"/>
					<line class="st3" x1="39.73" y1="48.23" x2="41.73" y2="48.23"/>
					<line class="st3" x1="39.81" y1="47.85" x2="42.13" y2="47.85"/>
					<line class="st3" x1="39.88" y1="47.46" x2="41.83" y2="47.46"/>
					<rect x="32.13" y="66.75" class="st3" width="1.23" height="0.28"/>
					<rect x="32.13" y="67.34" class="st3" width="1.23" height="0.28"/>
					<rect x="32.13" y="67.92" class="st3" width="1.23" height="0.28"/>
					<rect x="33.87" y="66.75" class="st3" width="1.23" height="0.28"/>
					<rect x="33.87" y="67.34" class="st3" width="1.23" height="0.28"/>
					<rect x="33.87" y="67.92" class="st3" width="1.23" height="0.28"/>
					<rect x="35.6" y="66.75" class="st3" width="1.23" height="0.28"/>
					<rect x="35.6" y="67.34" class="st3" width="1.23" height="0.28"/>
					<rect x="35.6" y="67.92" class="st3" width="1.23" height="0.28"/>
					<rect x="37.34" y="66.75" class="st3" width="1.23" height="0.28"/>
					<rect x="37.34" y="67.34" class="st3" width="1.23" height="0.28"/>
					<rect x="37.34" y="67.92" class="st3" width="1.23" height="0.28"/>
					<path class="st1" d="M41.87,47.18h-0.74c-0.11-1.51,0.28-3.09,0.28-3.09s-0.66-0.39-1.86-0.91c-0.09,0.37-0.18,0.76-0.25,1.16
						l-1.11-0.22c-1.05,7.69-0.07,15.83,0.51,20.19l0,0c0.05,0.66,0.11,1.32,0.2,1.98h-7.25v2.37h7.63h4.98
						C44.26,68.66,40.08,58.9,41.87,47.18z"/>
					<line class="st3" x1="39.98" y1="44.48" x2="40.44" y2="44.48"/>
					<line class="st3" x1="39.91" y1="45.09" x2="40.37" y2="45.09"/>
					<line class="st3" x1="39.84" y1="45.71" x2="40.3" y2="45.71"/>
					<line class="st3" x1="39.78" y1="46.32" x2="40.24" y2="46.32"/>
				</g>
				<g>
					<path class="st2" d="M66.92,59.96c0.01,0.02,0.01,0.05,0.01,0.08c0,0.13-0.11,0.24-0.24,0.24c-0.13,0-0.24-0.11-0.24-0.24
						c0-0.03,0-0.05,0.01-0.08c-0.05,0.06-0.09,0.13-0.09,0.22c0,0.17,0.14,0.32,0.32,0.32S67,60.35,67,60.18
						C67,60.09,66.97,60.02,66.92,59.96z"/>
					<path class="st2" d="M74.5,62.93c-0.12,0-0.22,0.1-0.22,0.22c0-0.12-0.1-0.22-0.22-0.22c-0.12,0-0.22,0.1-0.22,0.22
						c0-0.12-0.1-0.22-0.22-0.22s-0.22,0.1-0.22,0.22c0-0.12-0.1-0.22-0.22-0.22c-0.12,0-0.22,0.1-0.22,0.22
						c0-0.12-0.1-0.22-0.22-0.22v-0.96l0.23-0.28v-0.43h-0.34v-3.26h0.1v-0.23h0.1v-0.23h0.1V57.3v-0.76h-0.35c0,0,0-0.88,0-0.88
						l0.15-0.27v-0.3h-0.17l0-0.47c0-0.15-0.12-0.27-0.27-0.27c-0.15,0-0.27,0.12-0.27,0.27l0,0.47H71.9v0.3l0.15,0.27l0,0.88H71.7
						v0.76v0.23h0.1v0.23h0.1v0.23H72v3.26h-0.34v0.43l0.23,0.28v0.96l0,0c-0.11,0.01-0.2,0.1-0.2,0.21c0-0.12-0.1-0.22-0.22-0.22
						c-0.12,0-0.22,0.1-0.22,0.22c0-0.12-0.1-0.22-0.22-0.22s-0.22,0.1-0.22,0.22c0-0.12-0.1-0.22-0.22-0.22
						c-1.29-1.86-3.26-2.07-3.94-2.07s-2.65,0.21-3.94,2.07c-0.12,0-0.22,0.1-0.22,0.22c0-0.12-0.1-0.22-0.22-0.22
						c-0.12,0-0.22,0.1-0.22,0.22c0-0.12-0.1-0.22-0.22-0.22c-0.12,0-0.22,0.1-0.22,0.22c0-0.11-0.09-0.2-0.2-0.21
						c-0.01,0-0.01,0-0.02,0c-0.12,0-0.22,0.1-0.22,0.22c0-0.12-0.1-0.22-0.22-0.22c-0.12,0-0.22,0.1-0.22,0.22
						c0-0.12-0.1-0.22-0.22-0.22c-0.12,0-0.22,0.1-0.22,0.22c0-0.12-0.1-0.22-0.22-0.22s-0.22,0.1-0.22,0.22
						c0-0.12-0.1-0.22-0.22-0.22c-0.12,0-0.22,0.1-0.22,0.22c0-0.12-0.1-0.22-0.22-0.22c-0.12,0-0.22,0.1-0.22,0.22
						c0-0.12-0.1-0.22-0.22-0.22c-0.12,0-0.22,0.1-0.22,0.22v0.27v0.53v3.25v0.53v0.94h1.3l0-0.94h2.43l0,0.94h1.3l0-0.94h2.99h2.99
						l0,0.94h1.3v-0.94h2.43l0,0.94h1.3v-0.94v-0.53v-3.25v-0.53v-0.27C74.72,63.03,74.62,62.93,74.5,62.93z"/>
					<path class="st3" d="M65.98,63.22c0-0.39,0.32-0.71,0.71-0.71c0.39,0,0.71,0.32,0.71,0.71H65.98z"/>
					<polyline class="st3" points="67.4,63.22 67.4,66.86 66.69,66.86 					"/>
					<polyline class="st3" points="67.22,66.86 67.22,67.14 66.69,67.14 					"/>
					<polyline class="st3" points="66.95,67.14 66.95,67.42 66.69,67.42 					"/>
					<polyline class="st3" points="67.4,63.41 68.15,63.41 68.15,67.42 					"/>
					<line class="st3" x1="67.4" y1="66.86" x2="67.4" y2="67.42"/>
					<line class="st3" x1="67.4" y1="67.14" x2="68.15" y2="67.14"/>
					<path class="st3" d="M67.4,64.24c0-0.21,0.17-0.37,0.37-0.37c0.21,0,0.37,0.17,0.37,0.37"/>
					<path class="st3" d="M71.49,65.19c0-0.47,0.38-0.85,0.85-0.85c0.47,0,0.85,0.38,0.85,0.85"/>
					<line class="st3" x1="67.4" y1="66.58" x2="68.15" y2="66.58"/>
					<line class="st3" x1="67.78" y1="66.58" x2="67.78" y2="64.24"/>
					<line class="st3" x1="72.34" y1="67.18" x2="72.34" y2="65.04"/>
					<line class="st3" x1="73.41" y1="67.72" x2="74.72" y2="67.72"/>
					<line class="st3" x1="69.68" y1="67.72" x2="70.98" y2="67.72"/>
					<line class="st3" x1="68.15" y1="63.41" x2="74.72" y2="63.41"/>
					<polyline class="st3" points="74.72,63.94 68.15,63.94 68.15,63.41 74.72,63.41 					"/>
					<rect x="69.96" y="63.94" class="st3" width="0.74" height="3.25"/>
					<polyline class="st3" points="74.72,67.18 73.98,67.18 73.98,63.94 74.72,63.94 					"/>
					<rect x="71.49" y="63.94" class="st3" width="1.7" height="3.25"/>
					<line class="st3" x1="71.49" y1="67.42" x2="71.49" y2="67.18"/>
					<line class="st3" x1="73.19" y1="67.42" x2="73.19" y2="67.18"/>
					<path class="st3" d="M71.1,67.17c0,0.11,0.09,0.2,0.2,0.2s0.2-0.09,0.2-0.2"/>
					<path class="st3" d="M70.7,67.17c0,0.11,0.09,0.2,0.2,0.2c0.11,0,0.2-0.09,0.2-0.2"/>
					<path class="st3" d="M69.51,67.14c0,0.13,0.1,0.23,0.23,0.23c0.13,0,0.23-0.1,0.23-0.23"/>
					<path class="st3" d="M69.06,67.14c0,0.13,0.1,0.23,0.23,0.23s0.23-0.1,0.23-0.23"/>
					<path class="st3" d="M68.6,67.14c0,0.13,0.1,0.23,0.23,0.23c0.13,0,0.23-0.1,0.23-0.23"/>
					<path class="st3" d="M68.15,67.14c0,0.13,0.1,0.23,0.23,0.23c0.13,0,0.23-0.1,0.23-0.23"/>
					<path class="st3" d="M73.58,67.17c0,0.11,0.09,0.2,0.2,0.2c0.11,0,0.2-0.09,0.2-0.2"/>
					<path class="st3" d="M73.19,67.17c0,0.11,0.09,0.2,0.2,0.2c0.11,0,0.2-0.09,0.2-0.2"/>
					<line class="st3" x1="68.6" y1="66.86" x2="68.6" y2="64.34"/>
					<line class="st3" x1="69.06" y1="66.86" x2="69.06" y2="64.34"/>
					<line class="st3" x1="69.51" y1="66.86" x2="69.51" y2="64.34"/>
					<line class="st3" x1="71.1" y1="66.86" x2="71.1" y2="64.34"/>
					<line class="st3" x1="73.58" y1="66.86" x2="73.58" y2="64.34"/>
					<path class="st3" d="M67.4,63.14c0-0.12,0.1-0.22,0.22-0.22s0.22,0.1,0.22,0.22"/>
					<path class="st3" d="M67.83,63.14c0-0.12,0.1-0.22,0.22-0.22c0.12,0,0.22,0.1,0.22,0.22"/>
					<path class="st3" d="M68.26,63.14c0-0.12,0.1-0.22,0.22-0.22s0.22,0.1,0.22,0.22"/>
					<path class="st3" d="M68.69,63.14c0-0.12,0.1-0.22,0.22-0.22c0.12,0,0.22,0.1,0.22,0.22"/>
					<path class="st3" d="M69.12,63.14c0-0.12,0.1-0.22,0.22-0.22c0.12,0,0.22,0.1,0.22,0.22"/>
					<path class="st3" d="M69.55,63.14c0-0.12,0.1-0.22,0.22-0.22c0.12,0,0.22,0.1,0.22,0.22"/>
					<path class="st3" d="M69.98,63.14c0-0.12,0.1-0.22,0.22-0.22s0.22,0.1,0.22,0.22"/>
					<path class="st3" d="M70.41,63.14c0-0.12,0.1-0.22,0.22-0.22"/>
					<path class="st3" d="M71.9,62.93c0.01,0,0.01,0,0.02,0c0.12,0,0.22,0.1,0.22,0.22"/>
					<path class="st3" d="M72.13,63.14c0-0.12,0.1-0.22,0.22-0.22c0.12,0,0.22,0.1,0.22,0.22"/>
					<path class="st3" d="M72.56,63.14c0-0.12,0.1-0.22,0.22-0.22"/>
					<line class="st3" x1="71.9" y1="61.97" x2="72.78" y2="61.97"/>
					<line class="st3" x1="71.67" y1="61.69" x2="72.34" y2="61.69"/>
					<line class="st3" x1="72" y1="61.26" x2="72.34" y2="61.26"/>
					<line class="st3" x1="72.05" y1="57.54" x2="72.34" y2="57.54"/>
					<line class="st3" x1="72.17" y1="57.77" x2="72.34" y2="57.77"/>
					<line class="st3" x1="72.05" y1="56.54" x2="72.34" y2="56.54"/>
					<line class="st3" x1="72.05" y1="55.67" x2="72.34" y2="55.67"/>
					<line class="st3" x1="72.07" y1="55.09" x2="72.34" y2="55.09"/>
					<line class="st3" x1="72.34" y1="54.06" x2="72.34" y2="53.72"/>
					<line class="st3" x1="73.01" y1="61.69" x2="72.34" y2="61.69"/>
					<line class="st3" x1="72.68" y1="61.26" x2="72.34" y2="61.26"/>
					<line class="st3" x1="72.63" y1="57.54" x2="72.34" y2="57.54"/>
					<line class="st3" x1="72.51" y1="57.77" x2="72.34" y2="57.77"/>
					<line class="st3" x1="72.63" y1="56.54" x2="72.34" y2="56.54"/>
					<line class="st3" x1="72.63" y1="55.67" x2="72.34" y2="55.67"/>
					<line class="st3" x1="72.61" y1="55.09" x2="72.34" y2="55.09"/>
					<rect x="66.57" y="61.99" class="st3" width="0.23" height="0.23"/>
					<rect x="67" y="61.99" class="st3" width="0.23" height="0.23"/>
					<rect x="67.43" y="61.99" class="st3" width="0.23" height="0.23"/>
					<rect x="67.86" y="61.99" class="st3" width="0.23" height="0.23"/>
					<rect x="68.29" y="61.99" class="st3" width="0.23" height="0.23"/>
					<rect x="68.72" y="61.99" class="st3" width="0.23" height="0.23"/>
					<rect x="69.15" y="61.99" class="st3" width="0.23" height="0.23"/>
					<path class="st3" d="M66.92,59.96c0.01,0.02,0.01,0.05,0.01,0.08c0,0.13-0.11,0.24-0.24,0.24c-0.13,0-0.24-0.11-0.24-0.24
						c0-0.03,0-0.05,0.01-0.08c-0.05,0.06-0.09,0.13-0.09,0.22c0,0.17,0.14,0.32,0.32,0.32S67,60.35,67,60.18
						C67,60.09,66.97,60.02,66.92,59.96z"/>
					<line class="st3" x1="66.69" y1="60.49" x2="66.69" y2="60.86"/>
					<line class="st3" x1="72" y1="58.01" x2="72.34" y2="58.01"/>
					<line class="st3" x1="72.68" y1="58.01" x2="72.34" y2="58.01"/>
					<line class="st3" x1="71.7" y1="57.3" x2="72.34" y2="57.3"/>
					<line class="st3" x1="72.98" y1="57.3" x2="72.34" y2="57.3"/>
					<polyline class="st3" points="65.98,63.22 65.98,66.86 66.69,66.86 					"/>
					<polyline class="st3" points="66.16,66.86 66.16,67.14 66.69,67.14 					"/>
					<polyline class="st3" points="66.43,67.14 66.43,67.42 66.69,67.42 					"/>
					<polyline class="st3" points="65.98,63.41 65.23,63.41 65.23,67.42 					"/>
					<line class="st3" x1="65.98" y1="66.86" x2="65.98" y2="67.42"/>
					<line class="st3" x1="65.98" y1="67.14" x2="65.23" y2="67.14"/>
					<path class="st3" d="M65.98,64.24c0-0.21-0.17-0.37-0.37-0.37c-0.21,0-0.37,0.17-0.37,0.37"/>
					<path class="st3" d="M61.89,65.19c0-0.47-0.38-0.85-0.85-0.85c-0.47,0-0.85,0.38-0.85,0.85"/>
					<line class="st3" x1="65.98" y1="66.58" x2="65.23" y2="66.58"/>
					<line class="st3" x1="65.6" y1="66.58" x2="65.6" y2="64.24"/>
					<line class="st3" x1="61.04" y1="67.18" x2="61.04" y2="65.04"/>
					<line class="st3" x1="59.96" y1="67.72" x2="58.66" y2="67.72"/>
					<line class="st3" x1="63.7" y1="67.72" x2="62.39" y2="67.72"/>
					<line class="st3" x1="65.23" y1="63.41" x2="58.66" y2="63.41"/>
					<polyline class="st3" points="58.66,63.94 65.23,63.94 65.23,63.41 58.66,63.41 					"/>
					
						<rect x="62.68" y="63.94" transform="matrix(-1 -1.224647e-16 1.224647e-16 -1 126.0887 131.121)" class="st3" width="0.74" height="3.25"/>
					<polyline class="st3" points="58.66,67.18 59.4,67.18 59.4,63.94 58.66,63.94 					"/>
					
						<rect x="60.19" y="63.94" transform="matrix(-1 -1.224647e-16 1.224647e-16 -1 122.0756 131.121)" class="st3" width="1.7" height="3.25"/>
					<line class="st3" x1="61.89" y1="67.42" x2="61.89" y2="67.18"/>
					<line class="st3" x1="60.19" y1="67.42" x2="60.19" y2="67.18"/>
					<path class="st3" d="M62.28,67.17c0,0.11-0.09,0.2-0.2,0.2s-0.2-0.09-0.2-0.2"/>
					<path class="st3" d="M62.68,67.17c0,0.11-0.09,0.2-0.2,0.2c-0.11,0-0.2-0.09-0.2-0.2"/>
					<path class="st3" d="M63.87,67.14c0,0.13-0.1,0.23-0.23,0.23s-0.23-0.1-0.23-0.23"/>
					<path class="st3" d="M64.32,67.14c0,0.13-0.1,0.23-0.23,0.23c-0.13,0-0.23-0.1-0.23-0.23"/>
					<path class="st3" d="M64.77,67.14c0,0.13-0.1,0.23-0.23,0.23s-0.23-0.1-0.23-0.23"/>
					<path class="st3" d="M65.23,67.14c0,0.13-0.1,0.23-0.23,0.23c-0.13,0-0.23-0.1-0.23-0.23"/>
					<path class="st3" d="M59.79,67.17c0,0.11-0.09,0.2-0.2,0.2s-0.2-0.09-0.2-0.2"/>
					<path class="st3" d="M60.19,67.17c0,0.11-0.09,0.2-0.2,0.2c-0.11,0-0.2-0.09-0.2-0.2"/>
					<line class="st3" x1="64.77" y1="66.86" x2="64.77" y2="64.34"/>
					<line class="st3" x1="64.32" y1="66.86" x2="64.32" y2="64.34"/>
					<line class="st3" x1="63.87" y1="66.86" x2="63.87" y2="64.34"/>
					<line class="st3" x1="62.28" y1="66.86" x2="62.28" y2="64.34"/>
					<line class="st3" x1="59.79" y1="66.86" x2="59.79" y2="64.34"/>
					<path class="st3" d="M65.97,63.14c0-0.12-0.1-0.22-0.22-0.22s-0.22,0.1-0.22,0.22"/>
					<path class="st3" d="M65.54,63.14c0-0.12-0.1-0.22-0.22-0.22s-0.22,0.1-0.22,0.22"/>
					<path class="st3" d="M65.11,63.14c0-0.12-0.1-0.22-0.22-0.22s-0.22,0.1-0.22,0.22"/>
					<path class="st3" d="M64.68,63.14c0-0.12-0.1-0.22-0.22-0.22c-0.12,0-0.22,0.1-0.22,0.22"/>
					<path class="st3" d="M64.25,63.14c0-0.12-0.1-0.22-0.22-0.22c-0.12,0-0.22,0.1-0.22,0.22"/>
					<path class="st3" d="M63.82,63.14c0-0.12-0.1-0.22-0.22-0.22c-0.12,0-0.22,0.1-0.22,0.22"/>
					<path class="st3" d="M63.39,63.14c0-0.12-0.1-0.22-0.22-0.22c-0.12,0-0.22,0.1-0.22,0.22"/>
					<path class="st3" d="M62.96,63.14c0-0.12-0.1-0.22-0.22-0.22"/>
					
						<rect x="66.14" y="61.99" transform="matrix(-1 -1.224647e-16 1.224647e-16 -1 132.5179 124.2132)" class="st3" width="0.23" height="0.23"/>
					
						<rect x="65.71" y="61.99" transform="matrix(-1 -1.224647e-16 1.224647e-16 -1 131.658 124.2132)" class="st3" width="0.23" height="0.23"/>
					
						<rect x="65.28" y="61.99" transform="matrix(-1 -1.224647e-16 1.224647e-16 -1 130.798 124.2132)" class="st3" width="0.23" height="0.23"/>
					
						<rect x="64.85" y="61.99" transform="matrix(-1 -1.224647e-16 1.224647e-16 -1 129.938 124.2132)" class="st3" width="0.23" height="0.23"/>
					
						<rect x="64.42" y="61.99" transform="matrix(-1 -1.224647e-16 1.224647e-16 -1 129.0781 124.2132)" class="st3" width="0.23" height="0.23"/>
					
						<rect x="63.99" y="61.99" transform="matrix(-1 -1.224647e-16 1.224647e-16 -1 128.2181 124.2132)" class="st3" width="0.23" height="0.23"/>
					<line class="st3" x1="66.69" y1="60.49" x2="66.69" y2="60.86"/>
					<path class="st1" d="M74.5,62.93c-0.12,0-0.22,0.1-0.22,0.22c0-0.12-0.1-0.22-0.22-0.22c-0.12,0-0.22,0.1-0.22,0.22
						c0-0.12-0.1-0.22-0.22-0.22s-0.22,0.1-0.22,0.22c0-0.12-0.1-0.22-0.22-0.22c-0.12,0-0.22,0.1-0.22,0.22
						c0-0.12-0.1-0.22-0.22-0.22v-0.96l0.23-0.28v-0.43h-0.34v-3.26h0.1v-0.23h0.1v-0.23h0.1V57.3v-0.76h-0.35c0,0,0-0.88,0-0.88
						l0.15-0.27v-0.3h-0.17l0-0.47c0-0.15-0.12-0.27-0.27-0.27c-0.15,0-0.27,0.12-0.27,0.27l0,0.47H71.9v0.3l0.15,0.27l0,0.88H71.7
						v0.76v0.23h0.1v0.23h0.1v0.23H72v3.26h-0.34v0.43l0.23,0.28v0.96l0,0c-0.11,0.01-0.2,0.1-0.2,0.21c0-0.12-0.1-0.22-0.22-0.22
						c-0.12,0-0.22,0.1-0.22,0.22c0-0.12-0.1-0.22-0.22-0.22s-0.22,0.1-0.22,0.22c0-0.12-0.1-0.22-0.22-0.22
						c-1.29-1.86-3.26-2.07-3.94-2.07s-2.65,0.21-3.94,2.07c-0.12,0-0.22,0.1-0.22,0.22c0-0.12-0.1-0.22-0.22-0.22
						c-0.12,0-0.22,0.1-0.22,0.22c0-0.12-0.1-0.22-0.22-0.22c-0.12,0-0.22,0.1-0.22,0.22c0-0.11-0.09-0.2-0.2-0.21
						c-0.01,0-0.01,0-0.02,0c-0.12,0-0.22,0.1-0.22,0.22c0-0.12-0.1-0.22-0.22-0.22c-0.12,0-0.22,0.1-0.22,0.22
						c0-0.12-0.1-0.22-0.22-0.22c-0.12,0-0.22,0.1-0.22,0.22c0-0.12-0.1-0.22-0.22-0.22s-0.22,0.1-0.22,0.22
						c0-0.12-0.1-0.22-0.22-0.22c-0.12,0-0.22,0.1-0.22,0.22c0-0.12-0.1-0.22-0.22-0.22c-0.12,0-0.22,0.1-0.22,0.22
						c0-0.12-0.1-0.22-0.22-0.22c-0.12,0-0.22,0.1-0.22,0.22v0.27v0.53v3.25v0.53v0.94h1.3l0-0.94h2.43l0,0.94h1.3l0-0.94h2.99h2.99
						l0,0.94h1.3v-0.94h2.43l0,0.94h1.3v-0.94v-0.53v-3.25v-0.53v-0.27C74.72,63.03,74.62,62.93,74.5,62.93z"/>
				</g>
				<g>
					<polygon class="st2" points="59.01,56.11 59.01,54.01 54.95,54.01 54.94,53.45 54.83,53.45 54.82,53.45 54.61,53.45 
						54.42,68.24 53.56,68.35 53.56,68.66 54.82,68.66 54.83,68.66 55.98,68.66 55.98,68.35 55.12,68.24 54.97,56.11 54.98,56.11 
											"/>
					<line class="st3" x1="54.42" y1="68.24" x2="54.82" y2="68.24"/>
					<line class="st3" x1="55.12" y1="68.24" x2="54.83" y2="68.24"/>
					<polygon class="st1" points="59.01,56.11 59.01,54.01 54.95,54.01 54.94,53.45 54.83,53.45 54.82,53.45 54.61,53.45 
						54.42,68.24 53.56,68.35 53.56,68.66 54.82,68.66 54.83,68.66 55.98,68.66 55.98,68.35 55.12,68.24 54.97,56.11 54.98,56.11 
											"/>
					<line class="st3" x1="54.95" y1="54.01" x2="54.97" y2="56.11"/>
				</g>
				<g>
					<path class="st2" d="M120.57,63.67c-0.53,0-0.97,0.43-0.97,0.97h1.93C121.53,64.1,121.1,63.67,120.57,63.67z"/>
					<path class="st2" d="M122.5,63.67c-0.53,0-0.97,0.43-0.97,0.97h1.93C123.46,64.1,123.03,63.67,122.5,63.67z"/>
					<path class="st2" d="M120.42,65.07c-0.22,0.4-0.07,0.9,0.33,1.11l0.78-1.44C121.13,64.52,120.64,64.67,120.42,65.07z"/>
					<path class="st2" d="M122.64,65.07c0.22,0.4,0.07,0.9-0.33,1.11l-0.78-1.44C121.93,64.52,122.43,64.67,122.64,65.07z"/>
					<path class="st1" d="M120.57,63.67c-0.53,0-0.97,0.43-0.97,0.97h1.93C121.53,64.1,121.1,63.67,120.57,63.67z"/>
					<path class="st1" d="M122.5,63.67c-0.53,0-0.97,0.43-0.97,0.97h1.93C123.46,64.1,123.03,63.67,122.5,63.67z"/>
					<path class="st1" d="M120.42,65.07c-0.22,0.4-0.07,0.9,0.33,1.11l0.78-1.44C121.13,64.52,120.64,64.67,120.42,65.07z"/>
					<path class="st1" d="M122.64,65.07c0.22,0.4,0.07,0.9-0.33,1.11l-0.78-1.44C121.93,64.52,122.43,64.67,122.64,65.07z"/>
					<line class="st3" x1="121.53" y1="68.66" x2="121.53" y2="64.69"/>
				</g>
				<g>
					<path class="st2" d="M57.7,57.79c-0.53,0-0.97,0.43-0.97,0.97h1.93C58.66,58.22,58.23,57.79,57.7,57.79z"/>
					<path class="st2" d="M59.63,57.79c-0.53,0-0.97,0.43-0.97,0.97h1.93C60.6,58.22,60.16,57.79,59.63,57.79z"/>
					<path class="st2" d="M57.55,59.19c-0.22,0.4-0.07,0.9,0.33,1.11l0.78-1.44C58.26,58.64,57.77,58.79,57.55,59.19z"/>
					<path class="st2" d="M59.78,59.19c0.22,0.4,0.07,0.9-0.33,1.11l-0.78-1.44C59.06,58.64,59.56,58.79,59.78,59.19z"/>
					<path class="st1" d="M57.7,57.79c-0.53,0-0.97,0.43-0.97,0.97h1.93C58.66,58.22,58.23,57.79,57.7,57.79z"/>
					<path class="st1" d="M59.63,57.79c-0.53,0-0.97,0.43-0.97,0.97h1.93C60.6,58.22,60.16,57.79,59.63,57.79z"/>
					<path class="st1" d="M57.55,59.19c-0.22,0.4-0.07,0.9,0.33,1.11l0.78-1.44C58.26,58.64,57.77,58.79,57.55,59.19z"/>
					<path class="st1" d="M59.78,59.19c0.22,0.4,0.07,0.9-0.33,1.11l-0.78-1.44C59.06,58.64,59.56,58.79,59.78,59.19z"/>
					<line class="st3" x1="58.66" y1="68.66" x2="58.66" y2="58.81"/>
				</g>
				<g>
					<path class="st2" d="M78.66,61.66c-0.53,0-0.97,0.43-0.97,0.97h1.93C79.62,62.09,79.19,61.66,78.66,61.66z"/>
					<path class="st2" d="M80.59,61.66c-0.53,0-0.97,0.43-0.97,0.97h1.93C81.55,62.09,81.12,61.66,80.59,61.66z"/>
					<path class="st2" d="M78.51,63.05c-0.22,0.4-0.07,0.9,0.33,1.11l0.78-1.44C79.22,62.5,78.73,62.65,78.51,63.05z"/>
					<path class="st2" d="M80.73,63.05c0.22,0.4,0.07,0.9-0.33,1.11l-0.78-1.44C80.02,62.5,80.52,62.65,80.73,63.05z"/>
					<path class="st1" d="M78.66,61.66c-0.53,0-0.97,0.43-0.97,0.97h1.93C79.62,62.09,79.19,61.66,78.66,61.66z"/>
					<path class="st1" d="M80.59,61.66c-0.53,0-0.97,0.43-0.97,0.97h1.93C81.55,62.09,81.12,61.66,80.59,61.66z"/>
					<path class="st1" d="M78.51,63.05c-0.22,0.4-0.07,0.9,0.33,1.11l0.78-1.44C79.22,62.5,78.73,62.65,78.51,63.05z"/>
					<path class="st1" d="M80.73,63.05c0.22,0.4,0.07,0.9-0.33,1.11l-0.78-1.44C80.02,62.5,80.52,62.65,80.73,63.05z"/>
					<line class="st3" x1="79.62" y1="68.66" x2="79.62" y2="62.67"/>
				</g>
				<g>
					<path class="st2" d="M43.54,55c-0.53,0-0.97,0.43-0.97,0.97h1.93C44.51,55.43,44.07,55,43.54,55z"/>
					<path class="st2" d="M45.47,55c-0.53,0-0.97,0.43-0.97,0.97h1.93C46.44,55.43,46.01,55,45.47,55z"/>
					<path class="st2" d="M43.39,56.39c-0.22,0.4-0.07,0.9,0.33,1.11l0.78-1.44C44.11,55.85,43.61,55.99,43.39,56.39z"/>
					<path class="st2" d="M45.62,56.39c0.22,0.4,0.07,0.9-0.33,1.11l-0.78-1.44C44.9,55.85,45.4,55.99,45.62,56.39z"/>
					<path class="st1" d="M43.54,55c-0.53,0-0.97,0.43-0.97,0.97h1.93C44.51,55.43,44.07,55,43.54,55z"/>
					<path class="st1" d="M45.47,55c-0.53,0-0.97,0.43-0.97,0.97h1.93C46.44,55.43,46.01,55,45.47,55z"/>
					<path class="st1" d="M43.39,56.39c-0.22,0.4-0.07,0.9,0.33,1.11l0.78-1.44C44.11,55.85,43.61,55.99,43.39,56.39z"/>
					<path class="st1" d="M45.62,56.39c0.22,0.4,0.07,0.9-0.33,1.11l-0.78-1.44C44.9,55.85,45.4,55.99,45.62,56.39z"/>
					<line class="st3" x1="44.51" y1="68.66" x2="44.51" y2="56.01"/>
				</g>
			</g>
		</g>
	</g>
</g>
<g id="Layer_2">
</g>
</svg>
