<?xml version="1.0" encoding="utf-8"?>
<!-- Generator: Adobe Illustrator 24.3.0, SVG Export Plug-In . SVG Version: 6.00 Build 0)  -->
<svg version="1.1" xmlns="http://www.w3.org/2000/svg" xmlns:xlink="http://www.w3.org/1999/xlink" x="0px" y="0px"
	 viewBox="0 0 128 90" style="enable-background:new 0 0 128 90;" xml:space="preserve">
<style type="text/css">
	.st0{clip-path:url(#SVGID_2_);}
	.st1{fill:#FFFFFF;}
	.st2{fill:none;stroke:#000000;stroke-width:0.3588;stroke-linejoin:round;stroke-miterlimit:10;}
	.st3{fill:none;stroke:#000000;stroke-width:0.1794;stroke-linejoin:round;stroke-miterlimit:10;}
	.st4{fill:#FFFFFF;stroke:#000000;stroke-width:0.3588;stroke-linejoin:round;stroke-miterlimit:10;}
	.st5{fill:none;stroke:#000000;stroke-width:0.1794;stroke-linecap:round;stroke-linejoin:round;stroke-miterlimit:10;}
	.st6{fill:none;stroke:#000000;stroke-width:0.3588;stroke-linecap:round;stroke-linejoin:round;stroke-miterlimit:10;}
	.st7{fill:none;stroke:#000000;stroke-width:0.1794;stroke-miterlimit:10;}
</style>
<g id="Layer_1">
</g>
<g id="Layer_2">
	<g>
		<defs>
			<rect id="SVGID_1_" x="3.59" y="20.54" width="120.81" height="48.38"/>
		</defs>
		<clipPath id="SVGID_2_">
			<use xlink:href="#SVGID_1_"  style="overflow:visible;"/>
		</clipPath>
		<g class="st0">
			<g>
				<g>
					<path class="st1" d="M13.77,69.41c-0.22,0-0.43-0.1-0.57-0.28c-0.13-0.17-0.18-0.4-0.12-0.62l0.69-2.58
						c-2.46-0.79-4.74-2.12-6.6-3.86c-0.44-0.49-0.56-1.02-0.35-1.48c0.14-0.32,0.43-0.56,0.78-0.65c-0.03-0.02-0.05-0.05-0.08-0.08
						c-0.3-0.29-0.46-0.69-0.46-1.11c0-0.42,0.16-0.81,0.46-1.11c0.23-0.23,0.51-0.38,0.82-0.43c-0.25-0.29-0.48-0.6-0.7-0.91
						c-0.13,0.28-0.35,0.51-0.63,0.68c-0.24,0.14-0.51,0.21-0.78,0.21c-0.56,0-1.08-0.3-1.36-0.79c-0.21-0.36-0.26-0.79-0.16-1.19
						c0.11-0.41,0.37-0.74,0.73-0.95c0.24-0.14,0.51-0.21,0.78-0.21c0.04,0,0.08,0,0.11,0c-0.16-0.35-0.31-0.7-0.44-1.06
						c-0.2,0.24-0.47,0.41-0.78,0.49c-0.13,0.04-0.27,0.05-0.41,0.05c-0.71,0-1.33-0.48-1.52-1.16c-0.22-0.84,0.27-1.7,1.11-1.92
						c0.13-0.04,0.27-0.05,0.41-0.05c0.18,0,0.35,0.03,0.51,0.09c-0.06-0.37-0.11-0.75-0.15-1.13c-0.25,0.17-0.56,0.27-0.88,0.27
						c-0.87,0-1.57-0.7-1.57-1.57c0-0.87,0.7-1.57,1.57-1.57c0.32,0,0.63,0.1,0.88,0.27c0.03-0.38,0.08-0.76,0.15-1.13
						c-0.16,0.06-0.33,0.09-0.51,0.09c-0.14,0-0.27-0.02-0.41-0.05c-0.41-0.11-0.74-0.37-0.95-0.73c-0.21-0.36-0.27-0.79-0.16-1.19
						c0.18-0.68,0.81-1.16,1.52-1.16c0.14,0,0.27,0.02,0.41,0.05C5.43,42.7,5.7,42.87,5.9,43.1c0.13-0.36,0.28-0.71,0.44-1.06
						c-0.04,0-0.08,0-0.12,0c-0.27,0-0.54-0.07-0.78-0.21c-0.36-0.21-0.62-0.55-0.73-0.95c-0.11-0.41-0.05-0.83,0.16-1.19
						c0.28-0.48,0.8-0.78,1.36-0.78c0.27,0,0.54,0.07,0.78,0.21c0.28,0.16,0.5,0.4,0.63,0.68c0.22-0.31,0.45-0.62,0.7-0.91
						c-0.31-0.06-0.59-0.21-0.82-0.43c-0.3-0.3-0.46-0.69-0.46-1.11s0.16-0.81,0.46-1.11c0.3-0.3,0.69-0.46,1.11-0.46
						c0.42,0,0.81,0.16,1.11,0.46c0.23,0.23,0.38,0.52,0.43,0.82c0.29-0.25,0.6-0.48,0.91-0.7c-0.28-0.13-0.52-0.35-0.68-0.63
						c-0.21-0.36-0.27-0.79-0.16-1.19c0.11-0.41,0.37-0.74,0.73-0.95c0.24-0.14,0.51-0.21,0.78-0.21c0.56,0,1.08,0.3,1.36,0.78
						c0.16,0.28,0.23,0.59,0.21,0.9c0.35-0.16,0.7-0.31,1.06-0.44c-0.23-0.2-0.41-0.47-0.49-0.78c-0.11-0.4-0.05-0.83,0.16-1.19
						c0.21-0.36,0.55-0.62,0.95-0.73c0.13-0.04,0.27-0.05,0.41-0.05c0.71,0,1.33,0.48,1.52,1.16c0.08,0.31,0.07,0.63-0.03,0.92
						c0.37-0.06,0.75-0.11,1.13-0.15c-0.17-0.25-0.27-0.56-0.27-0.88c0-0.87,0.7-1.57,1.57-1.57c0.87,0,1.57,0.7,1.57,1.57
						c0,0.32-0.1,0.63-0.27,0.88c0.38,0.03,0.76,0.08,1.13,0.15c-0.1-0.29-0.11-0.61-0.03-0.92c0.18-0.69,0.81-1.16,1.52-1.16
						c0.14,0,0.27,0.02,0.41,0.05c0.41,0.11,0.74,0.37,0.95,0.73c0.21,0.36,0.27,0.79,0.16,1.19c-0.08,0.31-0.26,0.58-0.49,0.78
						c0.36,0.13,0.71,0.28,1.06,0.44c-0.02-0.31,0.05-0.62,0.21-0.9c0.28-0.48,0.8-0.78,1.36-0.78c0.28,0,0.55,0.07,0.79,0.21
						c0.75,0.43,1.01,1.39,0.57,2.14c-0.16,0.28-0.4,0.49-0.68,0.63c0.31,0.22,0.62,0.46,0.91,0.7c0.06-0.31,0.21-0.59,0.43-0.82
						c0.3-0.3,0.69-0.46,1.11-0.46c0.42,0,0.81,0.16,1.11,0.46c0.61,0.61,0.61,1.61,0,2.22c-0.23,0.23-0.51,0.38-0.82,0.43
						c0.25,0.29,0.48,0.6,0.7,0.91c0.14-0.28,0.35-0.52,0.63-0.68c0.24-0.14,0.51-0.21,0.78-0.21c0.56,0,1.08,0.3,1.36,0.78
						c0.21,0.36,0.27,0.79,0.16,1.19c-0.11,0.41-0.37,0.74-0.73,0.95c-0.24,0.14-0.51,0.21-0.78,0.21c-0.04,0-0.07,0-0.11,0
						c0.16,0.35,0.31,0.7,0.44,1.06c0.2-0.23,0.47-0.4,0.78-0.49c0.13-0.04,0.27-0.05,0.41-0.05c0.71,0,1.33,0.48,1.52,1.16
						c0.11,0.4,0.05,0.83-0.16,1.19c-0.21,0.36-0.55,0.62-0.95,0.73c-0.13,0.04-0.27,0.05-0.41,0.05c-0.18,0-0.35-0.03-0.51-0.08
						c0.06,0.37,0.11,0.75,0.15,1.13c0.25-0.17,0.55-0.27,0.88-0.27c0.87,0,1.57,0.7,1.57,1.57c0,0.87-0.7,1.57-1.57,1.57
						c-0.32,0-0.63-0.1-0.88-0.27c-0.03,0.38-0.08,0.76-0.15,1.13c0.16-0.06,0.33-0.08,0.51-0.08c0.14,0,0.27,0.02,0.41,0.05
						c0.41,0.11,0.75,0.37,0.95,0.73c0.21,0.36,0.26,0.79,0.16,1.19c-0.18,0.68-0.81,1.16-1.52,1.16c-0.13,0-0.27-0.02-0.4-0.05
						c-0.31-0.08-0.58-0.25-0.78-0.49c-0.13,0.36-0.28,0.71-0.44,1.05c0.04,0,0.07,0,0.11,0c0.27,0,0.55,0.07,0.78,0.21
						c0.36,0.21,0.62,0.55,0.73,0.95c0.11,0.4,0.05,0.83-0.16,1.19c-0.28,0.48-0.8,0.78-1.36,0.78c-0.27,0-0.54-0.07-0.78-0.21
						c-0.28-0.16-0.49-0.39-0.63-0.68c-0.22,0.31-0.45,0.62-0.7,0.91c0.31,0.06,0.59,0.21,0.82,0.43c0.3,0.3,0.46,0.69,0.46,1.11
						c0,0.42-0.16,0.81-0.46,1.11c-0.03,0.03-0.07,0.07-0.1,0.1c0.37,0.11,0.68,0.39,0.82,0.75c0.18,0.48,0.04,1-0.38,1.37
						c-1.85,1.73-4.11,3.05-6.57,3.84l0.7,2.59c0.06,0.22,0.01,0.44-0.12,0.62c-0.14,0.18-0.34,0.28-0.57,0.28H13.77z M24.28,61.49
						c0.23,0.2,0.41,0.47,0.49,0.78c0.1,0.39,0.06,0.79-0.13,1.15c0.6-0.22,1.19-0.47,1.76-0.77c-0.35-0.12-0.66-0.37-0.85-0.7
						c-0.16-0.28-0.23-0.59-0.21-0.9C24.99,61.21,24.64,61.36,24.28,61.49z M12.27,62.64c0.57,0.29,1.16,0.55,1.76,0.77
						c-0.19-0.35-0.24-0.76-0.13-1.15c0.08-0.31,0.26-0.58,0.49-0.78c-0.36-0.13-0.71-0.28-1.06-0.44c0.02,0.3-0.04,0.62-0.21,0.9
						C12.93,62.28,12.63,62.52,12.27,62.64z M27.59,59.75c0.28,0.14,0.52,0.35,0.68,0.63c0.18,0.3,0.24,0.65,0.2,0.99
						c0.45-0.33,0.88-0.69,1.28-1.07c0,0,0,0,0,0c-0.31-0.06-0.59-0.21-0.82-0.43c-0.23-0.22-0.37-0.51-0.43-0.82
						C28.2,59.29,27.9,59.53,27.59,59.75z M8.93,60.3c0.4,0.38,0.83,0.73,1.28,1.06c-0.05-0.34,0.02-0.69,0.2-0.99
						c0.16-0.28,0.4-0.49,0.68-0.63c-0.31-0.22-0.62-0.46-0.91-0.7c-0.06,0.3-0.2,0.59-0.43,0.82C9.52,60.09,9.23,60.24,8.93,60.3
						C8.93,60.3,8.93,60.3,8.93,60.3z"/>
					<path class="st1" d="M19.34,31.88c0.57,0,1.03,0.46,1.03,1.03c0,0.51-0.37,0.93-0.86,1.02v0.34c1.11,0.01,2.19,0.16,3.23,0.42
						l0.09-0.33c-0.19-0.09-0.35-0.23-0.46-0.42c-0.14-0.24-0.17-0.52-0.1-0.78c0.12-0.45,0.53-0.76,1-0.76
						c0.09,0,0.18,0.01,0.27,0.04c0.55,0.15,0.88,0.71,0.73,1.26c-0.12,0.45-0.53,0.76-1,0.76c-0.03,0-0.06,0-0.1-0.01l-0.09,0.33
						c1.06,0.3,2.07,0.72,3.01,1.25l0.17-0.3c-0.16-0.14-0.28-0.32-0.34-0.53c-0.07-0.27-0.03-0.54,0.1-0.78
						c0.18-0.32,0.53-0.52,0.89-0.52c0.18,0,0.36,0.05,0.52,0.14c0.49,0.28,0.66,0.92,0.38,1.41c-0.18,0.32-0.53,0.52-0.89,0.52
						c-0.12,0-0.24-0.02-0.36-0.07l-0.17,0.3c0.94,0.56,1.8,1.23,2.58,1.98l0.25-0.25c-0.12-0.17-0.19-0.38-0.19-0.6
						c0-0.28,0.11-0.53,0.3-0.73c0.19-0.19,0.45-0.3,0.73-0.3c0.28,0,0.53,0.11,0.73,0.3c0.4,0.4,0.4,1.06,0,1.46
						c-0.19,0.19-0.45,0.3-0.73,0.3c-0.22,0-0.42-0.07-0.6-0.19l-0.25,0.25c0.76,0.78,1.42,1.64,1.98,2.58l0.3-0.17
						c-0.07-0.2-0.09-0.42-0.03-0.62c0.07-0.27,0.24-0.49,0.48-0.63c0.16-0.09,0.33-0.14,0.51-0.14c0.37,0,0.71,0.2,0.89,0.52
						c0.28,0.49,0.11,1.12-0.38,1.41c-0.16,0.09-0.33,0.14-0.52,0.14c-0.31,0-0.6-0.14-0.79-0.37l-0.3,0.17
						c0.53,0.94,0.95,1.95,1.25,3l0.33-0.09c-0.02-0.21,0.02-0.42,0.13-0.61c0.14-0.24,0.36-0.41,0.63-0.48
						c0.09-0.02,0.18-0.04,0.27-0.04c0.47,0,0.88,0.31,1,0.77c0.15,0.55-0.18,1.12-0.73,1.26c-0.09,0.02-0.18,0.04-0.27,0.04
						c-0.41,0-0.77-0.24-0.94-0.6l-0.33,0.09c0.26,1.03,0.41,2.11,0.42,3.23h0.34c0.08-0.49,0.51-0.86,1.02-0.86
						c0.57,0,1.03,0.46,1.03,1.03c0,0.57-0.46,1.03-1.03,1.03c-0.51,0-0.93-0.37-1.02-0.86h-0.34c-0.01,1.11-0.16,2.19-0.42,3.23
						l0.33,0.09c0.17-0.36,0.53-0.6,0.94-0.6c0.09,0,0.18,0.01,0.27,0.04c0.27,0.07,0.49,0.24,0.63,0.48
						c0.14,0.24,0.17,0.52,0.1,0.78c-0.12,0.45-0.53,0.77-1,0.77c-0.09,0-0.18-0.01-0.27-0.04c-0.27-0.07-0.49-0.24-0.63-0.48
						c-0.11-0.19-0.15-0.4-0.13-0.61l-0.33-0.09c-0.3,1.06-0.72,2.06-1.25,3l0.3,0.17c0.19-0.23,0.48-0.37,0.79-0.37
						c0.18,0,0.36,0.05,0.51,0.14c0.24,0.14,0.41,0.36,0.48,0.63c0.07,0.27,0.03,0.54-0.1,0.78c-0.18,0.32-0.53,0.52-0.89,0.52
						c-0.18,0-0.36-0.05-0.51-0.14c-0.24-0.14-0.41-0.36-0.48-0.63c-0.06-0.21-0.04-0.43,0.03-0.62l-0.3-0.17
						c-0.56,0.94-1.23,1.8-1.98,2.58l0.25,0.25c0.17-0.12,0.38-0.19,0.6-0.19c0.28,0,0.53,0.11,0.73,0.3c0.19,0.2,0.3,0.45,0.3,0.73
						c0,0.28-0.11,0.53-0.3,0.73c-0.19,0.19-0.45,0.3-0.73,0.3c-0.28,0-0.53-0.11-0.73-0.3c-0.19-0.19-0.3-0.45-0.3-0.73
						c0-0.22,0.07-0.42,0.19-0.6l-0.25-0.25c-0.78,0.76-1.64,1.42-2.58,1.98l0.17,0.3c0.11-0.04,0.23-0.07,0.36-0.07
						c0.37,0,0.71,0.2,0.89,0.52c0.14,0.24,0.17,0.52,0.1,0.78c-0.07,0.27-0.24,0.49-0.48,0.63c-0.16,0.09-0.33,0.14-0.52,0.14
						c-0.37,0-0.71-0.2-0.89-0.52c-0.14-0.24-0.17-0.52-0.1-0.78c0.06-0.21,0.18-0.39,0.34-0.53l-0.17-0.3
						c-0.93,0.52-1.92,0.94-2.96,1.24l0.09,0.34c0.02,0,0.03,0,0.05,0c0.47,0,0.88,0.31,1,0.76c0.07,0.27,0.03,0.54-0.1,0.78
						c-0.1,0.17-0.25,0.31-0.42,0.4l0.17,0.63c2.32-0.68,4.44-1.87,6.21-3.53c0.2-0.2,0.42-0.25,0.57-0.25
						c0.3,0,0.58,0.19,0.69,0.46c0.1,0.27,0.01,0.56-0.23,0.78c-1.95,1.82-4.3,3.14-6.87,3.88l0.83,3.09c0.01,0.05,0,0.11-0.03,0.15
						c-0.03,0.04-0.08,0.07-0.14,0.07H13.77c-0.05,0-0.11-0.03-0.14-0.07c-0.03-0.04-0.04-0.1-0.03-0.15l0.83-3.09
						c-2.57-0.74-4.93-2.06-6.89-3.89c-0.27-0.29-0.35-0.61-0.23-0.87c0.1-0.23,0.35-0.38,0.62-0.38c0.22,0,0.44,0.09,0.63,0.26
						c1.77,1.66,3.9,2.85,6.23,3.53l0.17-0.63c-0.18-0.09-0.34-0.23-0.44-0.41c-0.14-0.24-0.17-0.52-0.1-0.78
						c0.12-0.45,0.53-0.76,1-0.76c0.02,0,0.05,0,0.07,0l0.09-0.34c-1.05-0.3-2.05-0.72-2.98-1.24l-0.17,0.3
						c0.38,0.32,0.49,0.87,0.24,1.31c-0.18,0.32-0.53,0.52-0.89,0.52c-0.18,0-0.36-0.05-0.52-0.14c-0.24-0.14-0.41-0.36-0.48-0.63
						c-0.07-0.27-0.03-0.54,0.1-0.78c0.18-0.32,0.53-0.52,0.89-0.52c0.12,0,0.24,0.02,0.36,0.07l0.17-0.3
						c-0.94-0.56-1.8-1.23-2.58-1.98l-0.25,0.25c0.28,0.4,0.25,0.96-0.11,1.32c-0.19,0.19-0.45,0.3-0.73,0.3
						c-0.28,0-0.53-0.11-0.73-0.3c-0.19-0.19-0.3-0.45-0.3-0.73c0-0.28,0.11-0.53,0.3-0.73c0.19-0.19,0.45-0.3,0.73-0.3
						c0.22,0,0.42,0.07,0.6,0.19l0.25-0.25c-0.76-0.78-1.42-1.64-1.98-2.58l-0.3,0.17c0.17,0.46-0.01,1-0.45,1.25
						c-0.16,0.09-0.33,0.14-0.51,0.14c-0.37,0-0.71-0.2-0.89-0.52c-0.14-0.24-0.17-0.52-0.1-0.78c0.07-0.27,0.24-0.49,0.48-0.63
						c0.16-0.09,0.33-0.14,0.51-0.14c0.31,0,0.6,0.14,0.79,0.37l0.3-0.17c-0.53-0.94-0.95-1.95-1.25-3l-0.33,0.09
						c0.02,0.21-0.02,0.42-0.13,0.61c-0.14,0.24-0.36,0.41-0.63,0.48C4.89,52.99,4.8,53,4.71,53c-0.47,0-0.88-0.31-1-0.76
						c-0.15-0.55,0.18-1.12,0.73-1.26c0.09-0.02,0.18-0.04,0.27-0.04c0.41,0,0.77,0.24,0.94,0.6l0.33-0.09
						c-0.26-1.03-0.41-2.11-0.42-3.23H5.21c-0.08,0.49-0.51,0.86-1.02,0.86c-0.57,0-1.03-0.46-1.03-1.03c0-0.57,0.46-1.03,1.03-1.03
						c0.51,0,0.93,0.37,1.02,0.86h0.34c0.01-1.11,0.16-2.19,0.42-3.23l-0.33-0.09c-0.17,0.36-0.53,0.6-0.94,0.6
						c-0.09,0-0.18-0.01-0.27-0.04c-0.27-0.07-0.49-0.24-0.63-0.48c-0.14-0.24-0.17-0.52-0.1-0.78c0.12-0.45,0.53-0.76,1-0.76
						c0.09,0,0.18,0.01,0.27,0.04c0.49,0.13,0.8,0.6,0.76,1.09l0.33,0.09c0.3-1.06,0.72-2.06,1.25-3l-0.3-0.17
						c-0.19,0.23-0.48,0.37-0.79,0.37c-0.18,0-0.36-0.05-0.52-0.14c-0.24-0.14-0.41-0.36-0.48-0.63c-0.07-0.27-0.03-0.54,0.1-0.78
						c0.18-0.32,0.53-0.52,0.89-0.52c0.18,0,0.36,0.05,0.51,0.14c0.24,0.14,0.41,0.36,0.48,0.63c0.06,0.21,0.04,0.43-0.03,0.62
						l0.3,0.17c0.56-0.94,1.23-1.8,1.98-2.58l-0.25-0.25c-0.17,0.12-0.38,0.19-0.6,0.19c-0.28,0-0.53-0.11-0.73-0.3
						c-0.19-0.19-0.3-0.45-0.3-0.73c0-0.28,0.11-0.53,0.3-0.73c0.19-0.19,0.45-0.3,0.73-0.3c0.28,0,0.53,0.11,0.73,0.3
						c0.36,0.36,0.4,0.92,0.11,1.32l0.25,0.25c0.78-0.76,1.64-1.42,2.58-1.98l-0.17-0.3c-0.11,0.04-0.23,0.07-0.36,0.07
						c-0.37,0-0.71-0.2-0.89-0.52c-0.14-0.24-0.17-0.52-0.1-0.78c0.07-0.27,0.24-0.49,0.48-0.63c0.16-0.09,0.33-0.14,0.51-0.14
						c0.37,0,0.71,0.2,0.89,0.52c0.25,0.44,0.14,0.99-0.23,1.31l0.17,0.3c0.94-0.53,1.95-0.95,3-1.25l-0.09-0.33
						c-0.03,0-0.06,0.01-0.1,0.01c-0.47,0-0.87-0.31-1-0.76c-0.07-0.27-0.03-0.54,0.1-0.78c0.14-0.24,0.36-0.41,0.63-0.48
						c0.09-0.02,0.18-0.04,0.27-0.04c0.47,0,0.88,0.31,1,0.76c0.13,0.49-0.12,1-0.57,1.2l0.09,0.33c1.03-0.26,2.11-0.41,3.23-0.42
						v-0.34c-0.49-0.08-0.86-0.51-0.86-1.02C18.31,32.34,18.77,31.88,19.34,31.88 M19.34,30.8c-1,0-1.84,0.7-2.05,1.64
						c-0.36-0.68-1.07-1.12-1.86-1.12c-0.18,0-0.37,0.02-0.55,0.07c-0.54,0.15-1,0.49-1.28,0.98c-0.2,0.35-0.3,0.74-0.28,1.13
						c-0.39-0.42-0.95-0.67-1.55-0.67c-0.37,0-0.73,0.1-1.05,0.28c-0.49,0.28-0.84,0.74-0.98,1.28c-0.1,0.39-0.1,0.79,0.02,1.16
						c-0.33-0.21-0.72-0.32-1.12-0.32c-0.56,0-1.09,0.22-1.49,0.62c-0.4,0.4-0.62,0.93-0.62,1.49c0,0.4,0.11,0.79,0.32,1.12
						c-0.2-0.06-0.41-0.09-0.62-0.09c-0.75,0-1.45,0.4-1.83,1.05c-0.28,0.49-0.36,1.06-0.21,1.6c0.1,0.39,0.31,0.73,0.6,1
						c-0.03,0-0.05,0-0.08,0c-0.95,0-1.79,0.64-2.04,1.56c-0.15,0.54-0.07,1.11,0.21,1.6c0.2,0.35,0.49,0.63,0.84,0.81
						c-0.94,0.22-1.64,1.05-1.64,2.05c0,1,0.7,1.84,1.64,2.06c-0.85,0.45-1.31,1.44-1.05,2.41c0.25,0.92,1.08,1.56,2.04,1.56
						c0.03,0,0.05,0,0.08,0c-0.29,0.27-0.5,0.61-0.6,1c-0.15,0.54-0.07,1.11,0.21,1.6c0.38,0.65,1.08,1.05,1.83,1.05
						c0.21,0,0.42-0.03,0.62-0.09c-0.21,0.33-0.32,0.72-0.32,1.12c0,0.36,0.09,0.71,0.26,1.02c-0.19,0.16-0.35,0.36-0.45,0.6
						c-0.29,0.66-0.14,1.42,0.41,2.03c0.02,0.02,0.04,0.04,0.06,0.06c1.8,1.68,3.97,2.99,6.32,3.82l-0.56,2.09
						c-0.1,0.37-0.02,0.78,0.22,1.09c0.23,0.3,0.6,0.49,0.99,0.49h11.16c0.39,0,0.76-0.18,0.99-0.49c0.24-0.31,0.32-0.72,0.22-1.09
						l-0.57-2.1c2.34-0.83,4.5-2.13,6.29-3.8c0.57-0.5,0.77-1.26,0.51-1.95c-0.11-0.28-0.28-0.52-0.5-0.71
						c0.18-0.32,0.28-0.68,0.28-1.06c0-0.4-0.11-0.79-0.32-1.12c0.2,0.06,0.41,0.09,0.62,0.09c0.75,0,1.45-0.4,1.83-1.06
						c0.28-0.49,0.36-1.05,0.21-1.6c-0.1-0.39-0.31-0.73-0.6-1c0.03,0,0.05,0,0.08,0c0.95,0,1.79-0.64,2.04-1.56
						c0.15-0.54,0.07-1.11-0.21-1.6c-0.2-0.35-0.49-0.63-0.84-0.81c0.94-0.21,1.64-1.05,1.64-2.05c0-1-0.7-1.84-1.64-2.06
						c0.35-0.18,0.64-0.46,0.84-0.81c0.28-0.49,0.36-1.06,0.21-1.6c-0.25-0.92-1.08-1.56-2.04-1.56c-0.03,0-0.05,0-0.08,0
						c0.7-0.65,0.89-1.73,0.39-2.6c-0.38-0.65-1.08-1.05-1.83-1.05c-0.21,0-0.42,0.03-0.62,0.09c0.51-0.81,0.41-1.9-0.29-2.61
						c-0.4-0.4-0.93-0.62-1.49-0.62c-0.4,0-0.79,0.11-1.12,0.32c0.28-0.92-0.1-1.94-0.96-2.44c-0.32-0.18-0.68-0.28-1.05-0.28
						c-0.59,0-1.15,0.25-1.55,0.67c0.04-0.96-0.59-1.86-1.56-2.11c-0.18-0.05-0.36-0.07-0.55-0.07c-0.79,0-1.5,0.44-1.86,1.12
						C21.18,31.5,20.34,30.8,19.34,30.8L19.34,30.8z"/>
				</g>
				<g>
					
						<ellipse transform="matrix(0.1072 -0.9942 0.9942 0.1072 -30.5059 62.1258)" class="st2" cx="19.34" cy="48.05" rx="13.61" ry="13.61"/>
					
						<ellipse transform="matrix(0.1022 -0.9948 0.9948 0.1022 -30.4353 62.3737)" class="st2" cx="19.34" cy="48.05" rx="12.66" ry="12.66"/>
					<line class="st2" x1="4.2" y1="48.05" x2="34.48" y2="48.05"/>
					<line class="st2" x1="4.71" y1="51.97" x2="33.96" y2="44.13"/>
					<line class="st2" x1="6.23" y1="55.62" x2="32.45" y2="40.48"/>
					<line class="st2" x1="8.63" y1="58.75" x2="30.04" y2="37.34"/>
					<line class="st2" x1="11.77" y1="61.16" x2="26.91" y2="34.94"/>
					<polyline class="st2" points="23.03,34.25 13.77,68.7 24.93,68.7 15.64,34.25 					"/>
					<line class="st2" x1="19.34" y1="63.19" x2="19.34" y2="32.91"/>
					<line class="st2" x1="26.91" y1="61.16" x2="11.77" y2="34.94"/>
					<line class="st2" x1="30.04" y1="58.75" x2="8.63" y2="37.34"/>
					<line class="st2" x1="32.45" y1="55.62" x2="6.23" y2="40.48"/>
					<line class="st2" x1="33.96" y1="51.97" x2="4.71" y2="44.13"/>
					<path class="st2" d="M7.66,61.55c2.99,2.8,7.12,4.52,11.68,4.52c4.56,0,8.69-1.73,11.68-4.52c0.62-0.55-0.23-1.3-0.78-0.73
						c-2.79,2.61-6.64,4.22-10.89,4.22c-4.25,0-8.1-1.61-10.89-4.22C7.86,60.27,7.03,60.85,7.66,61.55z"/>
					<path class="st3" d="M7.66,60.95c2.99,2.8,7.12,4.52,11.68,4.52c4.56,0,8.69-1.73,11.68-4.52"/>
					
						<ellipse transform="matrix(0.7692 -0.639 0.639 0.7692 -26.2408 23.4483)" class="st3" cx="19.34" cy="48.05" rx="12.04" ry="12.04"/>
					<path class="st4" d="M35.33,48.05c0,0.47-0.38,0.86-0.86,0.86c-0.47,0-0.86-0.38-0.86-0.86c0-0.47,0.38-0.86,0.86-0.86
						C34.95,47.19,35.33,47.57,35.33,48.05z"/>
					<path class="st4" d="M5.06,48.05c0,0.47-0.38,0.86-0.86,0.86c-0.47,0-0.86-0.38-0.86-0.86c0-0.47,0.38-0.86,0.86-0.86
						C4.67,47.19,5.06,47.57,5.06,48.05z"/>
					<path class="st4" d="M34.79,43.91c0.12,0.46-0.15,0.93-0.61,1.05c-0.46,0.12-0.93-0.15-1.05-0.61
						c-0.12-0.46,0.15-0.93,0.61-1.05C34.2,43.18,34.67,43.45,34.79,43.91z"/>
					<path class="st4" d="M5.54,51.74c0.12,0.46-0.15,0.93-0.61,1.05c-0.46,0.12-0.93-0.15-1.05-0.61
						c-0.12-0.46,0.15-0.93,0.61-1.05C4.95,51.02,5.42,51.29,5.54,51.74z"/>
					<path class="st4" d="M33.19,40.05c0.24,0.41,0.1,0.94-0.31,1.17c-0.41,0.24-0.94,0.1-1.17-0.31c-0.24-0.41-0.1-0.94,0.31-1.17
						C32.43,39.5,32.95,39.64,33.19,40.05z"/>
					<path class="st4" d="M6.97,55.19c0.24,0.41,0.1,0.94-0.31,1.17c-0.41,0.24-0.94,0.1-1.17-0.31c-0.24-0.41-0.1-0.94,0.31-1.17
						C6.21,54.64,6.73,54.78,6.97,55.19z"/>
					<path class="st4" d="M30.65,36.74c0.33,0.34,0.33,0.88,0,1.21c-0.34,0.34-0.88,0.34-1.21,0c-0.34-0.33-0.34-0.88,0-1.21
						C29.77,36.4,30.31,36.4,30.65,36.74z"/>
					<path class="st4" d="M9.24,58.15c0.33,0.34,0.34,0.88,0,1.21c-0.34,0.33-0.88,0.33-1.21,0c-0.34-0.33-0.34-0.88,0-1.21
						C8.36,57.81,8.9,57.81,9.24,58.15z"/>
					<path class="st4" d="M27.34,34.19c0.41,0.24,0.55,0.76,0.31,1.17c-0.24,0.41-0.76,0.55-1.17,0.31
						c-0.41-0.24-0.55-0.76-0.31-1.17C26.4,34.1,26.93,33.96,27.34,34.19z"/>
					<path class="st4" d="M12.2,60.42c0.41,0.24,0.55,0.76,0.31,1.17c-0.24,0.41-0.76,0.55-1.17,0.31
						c-0.41-0.24-0.55-0.76-0.31-1.17C11.26,60.32,11.79,60.18,12.2,60.42z"/>
					<path class="st4" d="M23.48,32.6c0.46,0.12,0.73,0.59,0.61,1.05c-0.12,0.46-0.59,0.73-1.05,0.61
						c-0.46-0.12-0.73-0.59-0.61-1.05C22.55,32.74,23.02,32.47,23.48,32.6z"/>
					<path class="st4" d="M15.64,61.84c0.46,0.12,0.73,0.59,0.61,1.05c-0.12,0.46-0.59,0.73-1.05,0.61
						c-0.46-0.12-0.73-0.59-0.61-1.05C14.71,61.99,15.18,61.72,15.64,61.84z"/>
					<path class="st4" d="M19.34,32.05c0.47,0,0.86,0.38,0.86,0.86c0,0.47-0.38,0.86-0.86,0.86c-0.47,0-0.86-0.38-0.86-0.86
						S18.86,32.05,19.34,32.05z"/>
					<path class="st4" d="M19.34,62.33c0.47,0,0.86,0.38,0.86,0.86c0,0.47-0.38,0.86-0.86,0.86c-0.47,0-0.86-0.38-0.86-0.86
						C18.48,62.71,18.86,62.33,19.34,62.33z"/>
					<path class="st4" d="M15.2,32.6c0.46-0.12,0.93,0.15,1.05,0.61c0.12,0.46-0.15,0.93-0.61,1.05c-0.46,0.12-0.93-0.15-1.05-0.61
						C14.47,33.19,14.74,32.72,15.2,32.6z"/>
					<path class="st4" d="M23.03,61.84c0.46-0.12,0.93,0.15,1.05,0.61c0.12,0.46-0.15,0.93-0.61,1.05
						c-0.46,0.12-0.93-0.15-1.05-0.61C22.3,62.44,22.58,61.97,23.03,61.84z"/>
					<path class="st4" d="M11.34,34.19c0.41-0.24,0.94-0.1,1.17,0.31c0.24,0.41,0.1,0.94-0.31,1.17c-0.41,0.24-0.94,0.1-1.17-0.31
						C10.79,34.96,10.93,34.43,11.34,34.19z"/>
					<path class="st4" d="M26.48,60.42c0.41-0.24,0.94-0.1,1.17,0.31c0.24,0.41,0.1,0.94-0.31,1.17c-0.41,0.24-0.93,0.1-1.17-0.31
						C25.93,61.18,26.07,60.65,26.48,60.42z"/>
					<path class="st4" d="M8.02,36.74c0.34-0.33,0.88-0.33,1.21,0c0.34,0.34,0.34,0.88,0,1.21c-0.34,0.34-0.88,0.34-1.21,0
						C7.69,37.62,7.69,37.07,8.02,36.74z"/>
					<path class="st4" d="M29.44,58.15c0.33-0.34,0.88-0.34,1.21,0c0.34,0.34,0.34,0.88,0,1.21c-0.33,0.34-0.88,0.34-1.21,0
						C29.1,59.03,29.1,58.48,29.44,58.15z"/>
					<path class="st4" d="M5.48,40.05c0.24-0.41,0.76-0.55,1.17-0.31c0.41,0.24,0.55,0.76,0.31,1.17c-0.24,0.41-0.76,0.55-1.17,0.31
						C5.39,40.99,5.25,40.46,5.48,40.05z"/>
					<path class="st4" d="M31.7,55.19c0.24-0.41,0.76-0.55,1.17-0.31c0.41,0.24,0.55,0.76,0.31,1.17c-0.24,0.41-0.76,0.55-1.17,0.31
						C31.61,56.12,31.47,55.6,31.7,55.19z"/>
					<path class="st4" d="M3.88,43.91c0.12-0.46,0.59-0.73,1.05-0.61c0.46,0.12,0.73,0.59,0.61,1.05c-0.12,0.46-0.59,0.73-1.05,0.61
						C4.03,44.84,3.76,44.37,3.88,43.91z"/>
					<path class="st4" d="M33.13,51.75c0.12-0.46,0.59-0.73,1.05-0.61c0.46,0.12,0.73,0.59,0.61,1.05
						c-0.12,0.46-0.59,0.73-1.05,0.61C33.28,52.67,33.01,52.2,33.13,51.75z"/>
					<line class="st3" x1="15.57" y1="65.67" x2="14.81" y2="68.7"/>
					<line class="st3" x1="23.12" y1="65.63" x2="23.87" y2="68.66"/>
					<line class="st3" x1="10.91" y1="61.21" x2="12.62" y2="61.21"/>
					<line class="st3" x1="7.78" y1="58.75" x2="9.49" y2="58.75"/>
					<line class="st3" x1="5.37" y1="55.62" x2="7.08" y2="55.62"/>
					<line class="st3" x1="3.86" y1="51.97" x2="5.57" y2="51.97"/>
					<line class="st3" x1="3.34" y1="48.02" x2="5.05" y2="48.02"/>
					<line class="st3" x1="14.56" y1="62.73" x2="16.28" y2="62.73"/>
					<line class="st3" x1="18.49" y1="63.21" x2="20.21" y2="63.21"/>
					<line class="st3" x1="22.4" y1="62.73" x2="24.11" y2="62.73"/>
					<line class="st3" x1="26.05" y1="61.21" x2="27.76" y2="61.21"/>
					<line class="st3" x1="29.18" y1="58.75" x2="30.9" y2="58.75"/>
					<line class="st3" x1="31.59" y1="55.62" x2="33.31" y2="55.62"/>
					<line class="st3" x1="33.1" y1="51.97" x2="34.82" y2="51.97"/>
					<line class="st3" x1="27.77" y1="34.9" x2="26.05" y2="34.9"/>
					<line class="st3" x1="30.9" y1="37.36" x2="29.18" y2="37.36"/>
					<line class="st3" x1="33.31" y1="40.5" x2="31.59" y2="40.5"/>
					<line class="st3" x1="34.82" y1="44.15" x2="33.1" y2="44.15"/>
					<line class="st3" x1="24.11" y1="33.38" x2="22.4" y2="33.38"/>
					<line class="st3" x1="20.18" y1="32.91" x2="18.47" y2="32.91"/>
					<line class="st3" x1="16.28" y1="33.38" x2="14.56" y2="33.38"/>
					<line class="st3" x1="12.62" y1="34.9" x2="10.91" y2="34.9"/>
					<line class="st3" x1="9.49" y1="37.36" x2="7.77" y2="37.36"/>
					<line class="st3" x1="7.08" y1="40.5" x2="5.37" y2="40.5"/>
					<line class="st3" x1="5.57" y1="44.15" x2="3.86" y2="44.15"/>
					<line class="st3" x1="33.62" y1="48.02" x2="35.33" y2="48.02"/>
				</g>
			</g>
			<g>
				<g>
					<path class="st1" d="M85.81,69.41c-0.38,0-0.7-0.31-0.7-0.7V64.6c-0.7-0.55-2.32-1.64-5.33-2.81
						c-0.05-0.02-0.09-0.04-0.13-0.08c-0.04,0.03-0.08,0.06-0.13,0.08c-3.14,1.22-4.78,2.37-5.4,2.86v4.06c0,0.38-0.31,0.7-0.7,0.7
						h-7.5c-0.38,0-0.7-0.31-0.7-0.7v-3.55H44.92c-0.38,0-0.7-0.31-0.7-0.7v-0.92c0-0.29,0.18-0.54,0.44-0.65
						c0.03-0.02,0.07-0.03,0.11-0.04C53.52,61,58.8,56.32,61.69,52.73c2.32-2.88,3.5-5.53,3.97-6.72c-0.17-0.09-0.28-0.27-0.28-0.47
						v-0.32c0-0.28,0.21-0.51,0.48-0.54v-2.06c-0.1-0.06-0.18-0.14-0.24-0.24c-0.12-0.2-0.13-0.47-0.02-0.68l0.83-1.55
						c0.12-0.23,0.36-0.37,0.61-0.37c0.26,0,0.49,0.14,0.61,0.37l0.58,1.08l0.74-3.35c0.07-0.31,0.35-0.54,0.67-0.55
						c0.33,0,0.61,0.22,0.68,0.54l0.79,3.43l0.62-1.15c0.13-0.23,0.36-0.37,0.61-0.37c0.26,0,0.49,0.14,0.61,0.37l0.83,1.54
						c0.12,0.22,0.11,0.48-0.02,0.69c-0.06,0.1-0.14,0.17-0.23,0.23v2.08c0.22,0.07,0.39,0.27,0.39,0.52v0.32
						c0,0.06-0.01,0.11-0.03,0.17H85.3c-0.02-0.05-0.03-0.11-0.03-0.17v-0.32c0-0.28,0.21-0.51,0.48-0.54v-2.06
						c-0.09-0.06-0.18-0.14-0.23-0.24c-0.12-0.2-0.13-0.47-0.02-0.68l0.83-1.54c0.12-0.22,0.36-0.36,0.61-0.36s0.49,0.14,0.61,0.36
						l0.58,1.08l0.74-3.35c0.07-0.32,0.35-0.54,0.68-0.55c0.33,0,0.61,0.22,0.68,0.54l0.79,3.43l0.62-1.16
						c0.12-0.22,0.35-0.36,0.61-0.36c0.26,0,0.49,0.14,0.61,0.36l0.83,1.54c0.12,0.22,0.11,0.48-0.01,0.69
						c-0.06,0.1-0.14,0.18-0.23,0.24v2.08c0.22,0.07,0.39,0.27,0.39,0.52v0.32c0,0.17-0.08,0.32-0.2,0.42
						c0.45,1.17,1.64,3.85,3.99,6.78c2.89,3.59,8.17,8.26,16.9,10.13c0.04,0.01,0.08,0.02,0.11,0.04c0.26,0.1,0.44,0.36,0.44,0.65
						v0.92c0,0.38-0.31,0.7-0.7,0.7H94.01v3.55c0,0.38-0.31,0.7-0.7,0.7H85.81z M80.1,60.46c0.07,0,0.13,0.01,0.2,0.04l5.47,2.13
						v-1.7c-0.27-0.03-0.48-0.26-0.48-0.54v-0.32c0-0.28,0.21-0.51,0.48-0.54v-3.56c-0.27-0.03-0.48-0.26-0.48-0.54v-0.32
						c0-0.28,0.21-0.51,0.48-0.54v-3.56c-0.27-0.03-0.48-0.26-0.48-0.54v-0.32c0-0.28,0.21-0.51,0.48-0.54v-1.5H73.57v1.51
						c0.22,0.06,0.39,0.27,0.39,0.52v0.32c0,0.25-0.16,0.45-0.39,0.52v3.6c0.22,0.06,0.39,0.27,0.39,0.52v0.32
						c0,0.25-0.16,0.45-0.39,0.52v3.6c0.22,0.06,0.39,0.27,0.39,0.52v0.32c0,0.25-0.16,0.45-0.39,0.52v1.71l5.44-2.12
						c0.06-0.02,0.13-0.04,0.2-0.04c0.07,0,0.15,0.01,0.22,0.04c0.09,0.04,0.17,0.11,0.23,0.19C79.75,60.55,79.92,60.46,80.1,60.46z
						"/>
					<path class="st1" d="M89.57,37.89c0.07,0,0.14,0.05,0.15,0.12l1.67,7.21h0.23v-3.03h-0.17c-0.06,0-0.11-0.03-0.14-0.08
						c-0.03-0.05-0.03-0.11,0-0.16l0.83-1.54c0.03-0.05,0.08-0.08,0.14-0.08c0.06,0,0.11,0.03,0.14,0.08l0.83,1.54
						c0.03,0.05,0.03,0.11,0,0.16c-0.03,0.05-0.08,0.08-0.14,0.08h-0.17v3.03h0.39v0.32h-0.38c0.11,0.34,1.25,3.75,4.3,7.54
						c2.94,3.66,8.32,8.42,17.21,10.32l0,0c0.07,0.02,0.13,0.08,0.13,0.15v0.92c0,0.09-0.07,0.16-0.16,0.16H93.48v4.09
						c0,0.09-0.07,0.16-0.16,0.16h-7.5c-0.09,0-0.16-0.07-0.16-0.16v-4.24c0-0.04,0.01-0.07,0.04-0.1
						c-0.56-0.48-2.25-1.73-5.71-3.08L80.1,61l6.2,2.41v-3.02h-0.48v-0.32h0.48v-4.63h-0.48v-0.32h0.48v-4.63h-0.48v-0.32h0.48
						v-2.57H73.03v2.57h0.39v0.32h-0.39v4.63h0.39v0.32h-0.39v4.63h0.39v0.32h-0.39v3.01l6.18-2.4l0.12,0.3
						c-3.57,1.39-5.24,2.68-5.76,3.12c0.01,0.02,0.01,0.04,0.01,0.06v4.24c0,0.09-0.07,0.16-0.16,0.16h-7.5
						c-0.09,0-0.16-0.07-0.16-0.16v-4.09H44.92c-0.09,0-0.16-0.07-0.16-0.16v-0.92c0-0.08,0.05-0.14,0.13-0.15l0,0
						c8.9-1.9,14.27-6.67,17.22-10.33c3.04-3.78,4.18-7.18,4.29-7.52h-0.48v-0.32h0.48v-3.03h-0.17c-0.06,0-0.11-0.03-0.14-0.08
						c-0.03-0.05-0.03-0.11,0-0.16l0.83-1.54c0.03-0.05,0.08-0.08,0.14-0.08s0.11,0.03,0.14,0.08l0.83,1.54
						c0.03,0.05,0.03,0.11,0,0.16c-0.03,0.05-0.08,0.08-0.14,0.08h-0.17v3.03h0.21l1.59-7.21c0.02-0.07,0.08-0.12,0.15-0.12
						c0,0,0,0,0,0c0.07,0,0.14,0.05,0.15,0.12l1.67,7.21h0.23v-3.03h-0.17c-0.06,0-0.11-0.03-0.14-0.08c-0.03-0.05-0.03-0.11,0-0.16
						l0.83-1.54c0.03-0.05,0.08-0.08,0.14-0.08c0.06,0,0.11,0.03,0.14,0.08l0.83,1.54c0.03,0.05,0.03,0.11,0,0.16
						c-0.03,0.05-0.08,0.08-0.14,0.08h-0.17v3.03h0.39v0.32h-0.39v0.7H86.3v-0.7h-0.48v-0.32h0.48v-3.03h-0.17
						c-0.06,0-0.11-0.03-0.14-0.08c-0.03-0.05-0.03-0.11,0-0.16l0.83-1.54c0.03-0.05,0.08-0.08,0.14-0.08s0.11,0.03,0.14,0.08
						l0.83,1.54c0.03,0.05,0.03,0.11,0,0.16c-0.03,0.05-0.08,0.08-0.14,0.08h-0.17v3.03h0.21l1.59-7.21
						C89.43,37.94,89.49,37.89,89.57,37.89C89.57,37.89,89.57,37.89,89.57,37.89 M89.57,36.81C89.56,36.81,89.56,36.81,89.57,36.81
						c-0.59,0-1.08,0.4-1.21,0.97l-0.43,1.96c-0.23-0.3-0.59-0.47-0.98-0.47c-0.46,0-0.87,0.25-1.09,0.64l-0.83,1.54
						c-0.2,0.38-0.19,0.85,0.03,1.22c0.05,0.08,0.1,0.15,0.16,0.21v1.45c-0.28,0.18-0.46,0.49-0.48,0.84H74.49
						c-0.02-0.31-0.16-0.59-0.39-0.77v-1.52c0.06-0.06,0.11-0.13,0.16-0.21c0.22-0.37,0.23-0.84,0.03-1.22l-0.83-1.54
						c-0.22-0.4-0.63-0.65-1.09-0.65c-0.42,0-0.8,0.21-1.03,0.56l-0.47-2.04c-0.13-0.56-0.62-0.96-1.2-0.96
						c-0.59,0-1.08,0.4-1.21,0.97l-0.43,1.95c-0.23-0.3-0.59-0.48-0.98-0.48c-0.45,0-0.87,0.25-1.09,0.65l-0.83,1.55
						c-0.21,0.38-0.19,0.85,0.03,1.22c0.04,0.08,0.1,0.15,0.16,0.21v1.45c-0.29,0.19-0.48,0.52-0.48,0.9v0.32
						c0,0.22,0.07,0.43,0.18,0.6c-0.53,1.27-1.68,3.68-3.75,6.25c-2.83,3.53-8.02,8.11-16.6,9.95c-0.07,0.02-0.14,0.04-0.2,0.07
						c-0.46,0.18-0.77,0.63-0.77,1.14v0.92c0,0.68,0.55,1.23,1.23,1.23h19.76v3.01c0,0.68,0.55,1.23,1.23,1.23h7.5
						c0.68,0,1.23-0.55,1.23-1.23v-3.79c0.71-0.53,2.25-1.53,5-2.6c2.64,1.04,4.17,1.99,4.93,2.55v3.85c0,0.68,0.55,1.23,1.23,1.23
						h7.5c0.68,0,1.23-0.55,1.23-1.23v-3.01h19.85c0.68,0,1.23-0.55,1.23-1.23v-0.92c0-0.52-0.31-0.96-0.78-1.14
						c-0.06-0.03-0.13-0.05-0.2-0.06c-8.58-1.83-13.76-6.42-16.59-9.94c-2.13-2.64-3.29-5.11-3.8-6.36c0.08-0.15,0.12-0.32,0.12-0.5
						v-0.32c0-0.33-0.15-0.63-0.39-0.83v-1.52c0.06-0.06,0.11-0.13,0.16-0.21c0.22-0.37,0.23-0.84,0.03-1.22l-0.83-1.55
						c-0.21-0.4-0.63-0.64-1.09-0.64c-0.42,0-0.81,0.21-1.03,0.55l-0.47-2.04C90.64,37.2,90.14,36.81,89.57,36.81L89.57,36.81z
						 M74.11,48.68h11.11v0.59c-0.29,0.19-0.48,0.52-0.48,0.9v0.32c0,0.38,0.19,0.71,0.48,0.9v2.84c-0.29,0.19-0.48,0.52-0.48,0.9
						v0.32c0,0.38,0.19,0.71,0.48,0.9v2.84c-0.29,0.19-0.48,0.52-0.48,0.9v0.32c0,0.38,0.19,0.71,0.48,0.9v0.55L80.49,60
						c-0.13-0.05-0.26-0.07-0.39-0.07c-0.16,0-0.31,0.03-0.45,0.1c-0.14-0.06-0.29-0.1-0.45-0.1c-0.13,0-0.26,0.02-0.39,0.07
						l-4.71,1.83v-0.61c0.24-0.2,0.39-0.49,0.39-0.83v-0.32c0-0.33-0.15-0.63-0.39-0.83v-2.98c0.24-0.2,0.39-0.49,0.39-0.83v-0.32
						c0-0.33-0.15-0.63-0.39-0.83v-2.98c0.24-0.2,0.39-0.49,0.39-0.83v-0.32c0-0.33-0.15-0.63-0.39-0.83V48.68L74.11,48.68z"/>
				</g>
				<g>
					<rect x="65.92" y="64.47" class="st2" width="7.5" height="4.24"/>
					<rect x="85.81" y="64.47" class="st2" width="7.5" height="4.24"/>
					<line class="st2" x1="72.94" y1="63.61" x2="79.26" y2="61.15"/>
					<line class="st2" x1="44.92" y1="64.47" x2="72.87" y2="64.47"/>
					<rect x="86.46" y="42.04" class="st2" width="1" height="22.44"/>
					<rect x="91.77" y="42.04" class="st2" width="1" height="22.44"/>
					<polygon class="st2" points="86.95,40.49 86.12,42.04 87.78,42.04 					"/>
					<polygon class="st2" points="92.27,40.49 91.44,42.04 93.1,42.04 					"/>
					<line class="st2" x1="85.81" y1="60.24" x2="93.32" y2="60.24"/>
					<line class="st2" x1="85.81" y1="55.29" x2="93.32" y2="55.29"/>
					<line class="st2" x1="85.81" y1="50.33" x2="93.32" y2="50.33"/>
					<line class="st2" x1="85.81" y1="45.38" x2="93.32" y2="45.38"/>
					<polyline class="st2" points="87.95,45.38 89.57,38.05 91.26,45.38 					"/>
					<polyline class="st2" points="90.71,45.38 90.71,43.75 89.61,43.04 88.5,43.75 88.5,45.38 					"/>
					<path class="st2" d="M88.4,47.23c-0.2,0-0.36,0.16-0.36,0.36v1.56h0.72v-1.56C88.76,47.39,88.6,47.23,88.4,47.23z"/>
					<path class="st2" d="M89.61,47.23c-0.2,0-0.36,0.16-0.36,0.36v1.56h0.72v-1.56C89.97,47.39,89.81,47.23,89.61,47.23z"/>
					<path class="st2" d="M90.81,47.23c-0.2,0-0.36,0.16-0.36,0.36v1.56h0.72v-1.56C91.17,47.39,91.01,47.23,90.81,47.23z"/>
					<path class="st2" d="M88.4,52.3c-0.2,0-0.36,0.16-0.36,0.36v1.56h0.72v-1.56C88.76,52.46,88.6,52.3,88.4,52.3z"/>
					<path class="st2" d="M89.61,52.3c-0.2,0-0.36,0.16-0.36,0.36v1.56h0.72v-1.56C89.97,52.46,89.81,52.3,89.61,52.3z"/>
					<path class="st2" d="M90.81,52.3c-0.2,0-0.36,0.16-0.36,0.36v1.56h0.72v-1.56C91.17,52.46,91.01,52.3,90.81,52.3z"/>
					<path class="st2" d="M88.4,57.36c-0.2,0-0.36,0.16-0.36,0.36v1.56h0.72v-1.56C88.76,57.52,88.6,57.36,88.4,57.36z"/>
					<path class="st2" d="M89.61,57.36c-0.2,0-0.36,0.16-0.36,0.36v1.56h0.72v-1.56C89.97,57.52,89.81,57.36,89.61,57.36z"/>
					<path class="st2" d="M90.81,57.36c-0.2,0-0.36,0.16-0.36,0.36v1.56h0.72v-1.56C91.17,57.52,91.01,57.36,90.81,57.36z"/>
					<rect x="66.56" y="42.04" class="st2" width="1" height="22.44"/>
					<rect x="71.88" y="42.04" class="st2" width="1" height="22.44"/>
					<polygon class="st2" points="67.06,40.49 66.22,42.04 67.89,42.04 					"/>
					<polygon class="st2" points="72.37,40.49 71.54,42.04 73.21,42.04 					"/>
					<line class="st2" x1="65.92" y1="60.24" x2="73.42" y2="60.24"/>
					<line class="st2" x1="65.92" y1="55.29" x2="73.42" y2="55.29"/>
					<line class="st2" x1="65.92" y1="50.33" x2="73.42" y2="50.33"/>
					<line class="st2" x1="65.92" y1="45.38" x2="73.42" y2="45.38"/>
					<polyline class="st2" points="68.05,45.38 69.67,38.05 71.36,45.38 					"/>
					<polyline class="st2" points="70.81,45.38 70.81,43.75 69.71,43.04 68.6,43.75 68.6,45.38 					"/>
					<path class="st2" d="M68.51,47.23c-0.2,0-0.36,0.16-0.36,0.36v1.56h0.72v-1.56C68.86,47.39,68.7,47.23,68.51,47.23z"/>
					<path class="st2" d="M69.71,47.23c-0.2,0-0.36,0.16-0.36,0.36v1.56h0.72v-1.56C70.07,47.39,69.91,47.23,69.71,47.23z"/>
					<path class="st2" d="M70.91,47.23c-0.2,0-0.36,0.16-0.36,0.36v1.56h0.72v-1.56C71.27,47.39,71.11,47.23,70.91,47.23z"/>
					<path class="st2" d="M68.51,52.3c-0.2,0-0.36,0.16-0.36,0.36v1.56h0.72v-1.56C68.86,52.46,68.7,52.3,68.51,52.3z"/>
					<path class="st2" d="M69.71,52.3c-0.2,0-0.36,0.16-0.36,0.36v1.56h0.72v-1.56C70.07,52.46,69.91,52.3,69.71,52.3z"/>
					<path class="st2" d="M70.91,52.3c-0.2,0-0.36,0.16-0.36,0.36v1.56h0.72v-1.56C71.27,52.46,71.11,52.3,70.91,52.3z"/>
					<path class="st2" d="M68.51,57.36c-0.2,0-0.36,0.16-0.36,0.36v1.56h0.72v-1.56C68.86,57.52,68.7,57.36,68.51,57.36z"/>
					<path class="st2" d="M69.71,57.36c-0.2,0-0.36,0.16-0.36,0.36v1.56h0.72v-1.56C70.07,57.52,69.91,57.36,69.71,57.36z"/>
					<path class="st2" d="M70.91,57.36c-0.2,0-0.36,0.16-0.36,0.36v1.56h0.72v-1.56C71.27,57.52,71.11,57.36,70.91,57.36z"/>
					<rect x="72.87" y="46.4" class="st2" width="13.58" height="1.04"/>
					<rect x="44.92" y="63.55" class="st2" width="21.63" height="0.92"/>
					<path class="st2" d="M73.27,64.47c0,0,1.5-1.58,5.99-3.33"/>
					<line class="st2" x1="86.37" y1="63.61" x2="80.04" y2="61.15"/>
					<path class="st2" d="M86.03,64.47c0,0-1.5-1.58-5.99-3.33"/>
					<path class="st2" d="M66.56,45.56c0,0-4.32,14.29-21.63,17.99"/>
					<line class="st2" x1="51.95" y1="61.21" x2="51.95" y2="63.55"/>
					<line class="st2" x1="55.74" y1="59.09" x2="55.74" y2="63.55"/>
					<line class="st2" x1="59.86" y1="55.77" x2="59.86" y2="63.55"/>
					<line class="st2" x1="63.49" y1="51.47" x2="63.49" y2="63.55"/>
					<line class="st2" x1="114.4" y1="64.47" x2="86.46" y2="64.47"/>
					<rect x="92.77" y="63.55" class="st2" width="21.63" height="0.92"/>
					<path class="st2" d="M92.77,45.56c0,0,4.32,14.29,21.63,17.99"/>
					<line class="st2" x1="107.38" y1="61.21" x2="107.38" y2="63.55"/>
					<line class="st2" x1="103.59" y1="59.09" x2="103.59" y2="63.55"/>
					<line class="st2" x1="99.46" y1="55.77" x2="99.46" y2="63.55"/>
					<line class="st2" x1="95.83" y1="51.47" x2="95.83" y2="63.55"/>
					<line class="st3" x1="64.02" y1="50.69" x2="64.02" y2="63.55"/>
					<line class="st3" x1="60.35" y1="55.29" x2="60.35" y2="63.55"/>
					<line class="st3" x1="95.31" y1="50.69" x2="95.31" y2="63.61"/>
					<line class="st3" x1="99.01" y1="55.32" x2="99.01" y2="63.55"/>
					<line class="st3" x1="67.55" y1="65.31" x2="65.92" y2="65.31"/>
					<line class="st3" x1="68.37" y1="65.92" x2="65.92" y2="65.92"/>
					<line class="st3" x1="70.48" y1="65.92" x2="73.42" y2="65.92"/>
					<line class="st3" x1="72.5" y1="65.31" x2="73.42" y2="65.31"/>
					<line class="st3" x1="65.92" y1="67.76" x2="73.42" y2="67.76"/>
					<line class="st3" x1="72.37" y1="67.08" x2="73.42" y2="67.08"/>
					<line class="st3" x1="67.14" y1="67.08" x2="65.92" y2="67.08"/>
					<line class="st3" x1="67.55" y1="50.92" x2="71.88" y2="50.92"/>
					<line class="st3" x1="67.55" y1="55.89" x2="71.88" y2="55.89"/>
					<line class="st3" x1="67.55" y1="60.78" x2="71.88" y2="60.78"/>
					<line class="st3" x1="67.55" y1="45.95" x2="71.88" y2="45.95"/>
					<line class="st3" x1="72.37" y1="42.04" x2="72.37" y2="64.47"/>
					<line class="st3" x1="67.06" y1="42.04" x2="67.06" y2="64.47"/>
					<rect x="69.35" y="44.21" class="st3" width="0.72" height="1.17"/>
					<line class="st3" x1="87.45" y1="65.31" x2="85.81" y2="65.31"/>
					<line class="st3" x1="88.27" y1="65.92" x2="85.81" y2="65.92"/>
					<line class="st3" x1="90.38" y1="65.92" x2="93.32" y2="65.92"/>
					<line class="st3" x1="92.4" y1="65.31" x2="93.32" y2="65.31"/>
					<line class="st3" x1="85.81" y1="67.76" x2="93.32" y2="67.76"/>
					<line class="st3" x1="92.27" y1="67.08" x2="93.32" y2="67.08"/>
					<line class="st3" x1="87.04" y1="67.08" x2="85.81" y2="67.08"/>
					<line class="st3" x1="87.45" y1="50.92" x2="91.77" y2="50.92"/>
					<line class="st3" x1="87.45" y1="55.89" x2="91.77" y2="55.89"/>
					<line class="st3" x1="87.45" y1="60.78" x2="91.77" y2="60.78"/>
					<line class="st3" x1="87.45" y1="45.95" x2="91.77" y2="45.95"/>
					<line class="st3" x1="92.27" y1="42.04" x2="92.27" y2="64.47"/>
					<line class="st3" x1="86.95" y1="42.04" x2="86.95" y2="64.47"/>
					<rect x="89.25" y="44.21" class="st3" width="0.72" height="1.17"/>
					<line class="st3" x1="72.94" y1="47.97" x2="86.37" y2="47.97"/>
				</g>
			</g>
			<g>
				<g>
					<path class="st1" d="M37.05,69.41c-0.3,0-0.57-0.2-0.66-0.49c-0.51-1.66-0.83-3.73-0.95-6.15c-0.01-0.07-0.02-0.14-0.01-0.21
						c-0.33-7.04,1.14-17.07,4.11-21.08c0.85-1.15,1.79-1.73,2.78-1.73s1.93,0.58,2.78,1.73c3.66,4.94,5.39,20.07,3.15,27.44
						c-0.09,0.29-0.35,0.49-0.66,0.49H37.05z"/>
					<path class="st1" d="M42.32,40.3c0.81,0,1.6,0.51,2.35,1.51c3.58,4.84,5.27,19.7,3.06,26.96c-0.02,0.06-0.08,0.11-0.14,0.11
						H37.05c-0.07,0-0.12-0.04-0.14-0.11c-0.51-1.69-0.82-3.79-0.94-6.08l-0.03-0.04l0.03-0.02c-0.37-7.54,1.26-17.11,4-20.82
						C40.71,40.81,41.5,40.3,42.32,40.3 M42.32,39.22c-1.17,0-2.25,0.66-3.21,1.95c-3.07,4.15-4.55,14.07-4.22,21.34
						c-0.02,0.14-0.01,0.27,0.02,0.41c0.13,2.41,0.46,4.49,0.97,6.16c0.16,0.52,0.63,0.87,1.17,0.87h10.54
						c0.54,0,1.01-0.35,1.17-0.87c2.33-7.64,0.58-22.77-3.23-27.91C44.57,39.88,43.49,39.22,42.32,39.22L42.32,39.22z"/>
				</g>
				<g>
					<path class="st2" d="M47.58,68.73c2.68-8.79-0.45-28.28-5.27-28.28s-7.95,19.49-5.27,28.28H47.58z"/>
					<line class="st2" x1="36.06" y1="62.56" x2="40.53" y2="68.73"/>
					<line class="st2" x1="36.16" y1="57.37" x2="44.24" y2="68.73"/>
					<line class="st3" x1="36.16" y1="61.21" x2="41.5" y2="68.73"/>
					<line class="st2" x1="36.27" y1="55.81" x2="45.49" y2="68.73"/>
					<line class="st3" x1="36.41" y1="54.44" x2="46.6" y2="68.7"/>
					<line class="st2" x1="37.44" y1="48.55" x2="48.43" y2="63.96"/>
					<line class="st3" x1="37.72" y1="47.45" x2="48.51" y2="62.73"/>
					<line class="st2" x1="40.81" y1="41.1" x2="47.65" y2="50.69"/>
					<line class="st3" x1="45.87" y1="46.83" x2="47.24" y2="48.76"/>
					<line class="st3" x1="41.5" y1="40.71" x2="44.85" y2="45.4"/>
					<line class="st2" x1="39.72" y1="42.44" x2="48.2" y2="54.32"/>
					<line class="st3" x1="41.86" y1="46.73" x2="48.36" y2="55.89"/>
					<line class="st3" x1="39.32" y1="43.16" x2="40.84" y2="45.3"/>
					<line class="st2" x1="36.78" y1="51.81" x2="47.92" y2="67.43"/>
					<polyline class="st2" points="46.41,46.08 45.38,44.65 43.34,47.51 41.3,44.65 39.25,47.51 38.23,46.08 					"/>
					<g>
						<polyline class="st2" points="46.41,46.08 45.38,47.51 43.34,44.65 41.3,47.51 39.25,44.65 38.23,46.08 						"/>
					</g>
				</g>
			</g>
			<g>
				<g>
					<g>
						<path class="st1" d="M100.37,48.84c-0.15,0-0.27-0.12-0.27-0.27v-0.6c0-0.15,0.12-0.27,0.27-0.27h0.32
							c0.15,0,0.27,0.12,0.27,0.27v0.6c0,0.15-0.12,0.27-0.27,0.27H100.37z"/>
						<path class="st1" d="M100.69,47.97v0.6h-0.32v-0.6H100.69 M100.69,47.43h-0.32c-0.3,0-0.54,0.24-0.54,0.54v0.6
							c0,0.3,0.24,0.54,0.54,0.54h0.32c0.3,0,0.54-0.24,0.54-0.54v-0.6C101.22,47.68,100.98,47.43,100.69,47.43L100.69,47.43z"/>
					</g>
					<g>
						<path class="st1" d="M105.68,48.84c-0.15,0-0.27-0.12-0.27-0.27v-0.6c0-0.15,0.12-0.27,0.27-0.27h0.32
							c0.15,0,0.27,0.12,0.27,0.27v0.6c0,0.15-0.12,0.27-0.27,0.27H105.68z"/>
						<path class="st1" d="M105.99,47.97v0.6h-0.32v-0.6H105.99 M105.99,47.43h-0.32c-0.3,0-0.54,0.24-0.54,0.54v0.6
							c0,0.3,0.24,0.54,0.54,0.54h0.32c0.3,0,0.54-0.24,0.54-0.54v-0.6C106.53,47.68,106.29,47.43,105.99,47.43L105.99,47.43z"/>
					</g>
					<g>
						<path class="st1" d="M100.03,69.36c-0.38,0-0.7-0.31-0.7-0.7V50.61c0-0.31,0.21-0.58,0.5-0.67v-0.89
							c0-0.3,0.24-0.54,0.54-0.54h0.32c0.3,0,0.54,0.24,0.54,0.54v0.89c0.15,0.05,0.28,0.14,0.37,0.27
							c0.13-0.16,0.33-0.25,0.54-0.25h2.1c0.21,0,0.41,0.1,0.54,0.25c0.09-0.13,0.22-0.22,0.37-0.27v-0.89
							c0-0.3,0.24-0.54,0.54-0.54h0.32c0.3,0,0.54,0.24,0.54,0.54v0.89c0.29,0.09,0.5,0.35,0.5,0.67v3.75h10.52v-3.75
							c0-0.31,0.21-0.58,0.5-0.67v-0.89c0-0.3,0.24-0.54,0.54-0.54h0.32c0.3,0,0.54,0.24,0.54,0.54v0.89
							c0.15,0.05,0.28,0.14,0.37,0.27c0.13-0.16,0.32-0.25,0.54-0.25h2.1c0.21,0,0.41,0.1,0.54,0.25c0.09-0.13,0.22-0.22,0.37-0.27
							v-0.89c0-0.3,0.24-0.54,0.54-0.54h0.32c0.3,0,0.54,0.24,0.54,0.54v0.89c0.29,0.09,0.5,0.35,0.5,0.67v18.06
							c0,0.38-0.31,0.7-0.7,0.7H100.03z"/>
						<path class="st1" d="M124.2,49.05v1.4h0.34c0.09,0,0.16,0.07,0.16,0.16v18.06c0,0.09-0.07,0.16-0.16,0.16h-0.99h-0.73h-0.55
							h-1.74h-0.55h-0.73h-0.99h-1.55h-0.55h-1.76h-0.4h-1.41h-0.55h-1.52h-0.4h-1.65h-0.55h-1.55h-0.99h-0.73h-0.55h-1.74h-0.55
							h-0.73h-0.99c-0.09,0-0.16-0.07-0.16-0.16V50.61c0-0.09,0.07-0.16,0.16-0.16h0.34v-1.4h0.32v1.4h0.34
							c0.09,0,0.16,0.07,0.16,0.16v2.44l0.8-2.44c0.02-0.07,0.08-0.11,0.15-0.11h2.1c0.07,0,0.13,0.04,0.15,0.11l0.8,2.44v-2.44
							c0-0.09,0.07-0.16,0.16-0.16h0.34v-1.4h0.32v1.4h0.34c0.09,0,0.16,0.07,0.16,0.16v4.29h11.59v-4.29
							c0-0.09,0.07-0.16,0.16-0.16h0.34v-1.4h0.32v1.4h0.34c0.09,0,0.16,0.07,0.16,0.16v2.44l0.8-2.44
							c0.02-0.07,0.08-0.11,0.15-0.11h2.1c0.07,0,0.13,0.04,0.15,0.11l0.8,2.44v-2.44c0-0.09,0.07-0.16,0.16-0.16h0.34v-1.4H124.2
							 M124.2,47.97h-0.32c-0.59,0-1.08,0.48-1.08,1.08v0.43c-0.12-0.04-0.24-0.06-0.37-0.06h-2.1c-0.13,0-0.25,0.02-0.37,0.06
							v-0.43c0-0.59-0.48-1.08-1.08-1.08h-0.32c-0.59,0-1.08,0.48-1.08,1.08v0.57c-0.3,0.23-0.5,0.58-0.5,0.99v3.21h-9.44v-3.21
							c0-0.4-0.19-0.76-0.5-0.99v-0.57c0-0.59-0.48-1.08-1.08-1.08h-0.32c-0.59,0-1.08,0.48-1.08,1.08v0.43
							c-0.12-0.04-0.24-0.06-0.37-0.06h-2.1c-0.13,0-0.25,0.02-0.37,0.06v-0.43c0-0.59-0.48-1.08-1.08-1.08h-0.32
							c-0.59,0-1.08,0.48-1.08,1.08v0.57c-0.3,0.23-0.5,0.58-0.5,0.99v18.06c0,0.68,0.55,1.23,1.23,1.23h0.99h0.73h0.55h1.74h0.55
							h0.73h0.99h1.55h0.55h1.65h0.4h1.52h0.55h1.41h0.4h1.76h0.55h1.55h0.99h0.73h0.55h1.74h0.55h0.73h0.99
							c0.68,0,1.23-0.55,1.23-1.23V50.61c0-0.4-0.19-0.76-0.5-0.99v-0.57C125.28,48.46,124.8,47.97,124.2,47.97L124.2,47.97z"/>
					</g>
					<g>
						<path class="st1" d="M118.58,48.84c-0.15,0-0.27-0.12-0.27-0.27v-0.6c0-0.15,0.12-0.27,0.27-0.27h0.32
							c0.15,0,0.27,0.12,0.27,0.27v0.6c0,0.15-0.12,0.27-0.27,0.27H118.58z"/>
						<path class="st1" d="M118.9,47.97v0.6h-0.32v-0.6H118.9 M118.9,47.43h-0.32c-0.3,0-0.54,0.24-0.54,0.54v0.6
							c0,0.3,0.24,0.54,0.54,0.54h0.32c0.3,0,0.54-0.24,0.54-0.54v-0.6C119.43,47.68,119.19,47.43,118.9,47.43L118.9,47.43z"/>
					</g>
					<g>
						<path class="st1" d="M123.89,48.84c-0.15,0-0.27-0.12-0.27-0.27v-0.6c0-0.15,0.12-0.27,0.27-0.27h0.32
							c0.15,0,0.27,0.12,0.27,0.27v0.6c0,0.15-0.12,0.27-0.27,0.27H123.89z"/>
						<path class="st1" d="M124.2,47.97v0.6h-0.32v-0.6H124.2 M124.2,47.43h-0.32c-0.3,0-0.54,0.24-0.54,0.54v0.6
							c0,0.3,0.24,0.54,0.54,0.54h0.32c0.3,0,0.54-0.24,0.54-0.54v-0.6C124.74,47.68,124.5,47.43,124.2,47.43L124.2,47.43z"/>
					</g>
				</g>
				<g>
					<rect x="100.03" y="50.61" class="st2" width="0.99" height="18.06"/>
					<rect x="105.34" y="50.61" class="st2" width="0.99" height="18.06"/>
					<line class="st3" x1="100.53" y1="50.61" x2="100.53" y2="49.05"/>
					<line class="st3" x1="100.53" y1="48.58" x2="100.53" y2="47.97"/>
					<line class="st3" x1="105.84" y1="50.61" x2="105.84" y2="49.05"/>
					<line class="st3" x1="105.84" y1="48.58" x2="105.84" y2="47.97"/>
					<rect x="101.02" y="54.04" class="st2" width="4.32" height="4.16"/>
					<rect x="101.02" y="58.2" class="st3" width="4.32" height="4.16"/>
					<rect x="101.02" y="62.36" class="st3" width="4.32" height="4.16"/>
					<polygon class="st2" points="104.23,50.65 102.13,50.65 101.02,54.04 105.34,54.04 					"/>
					<path class="st2" d="M103.18,55.32c-0.63,0-1.15,0.51-1.15,1.15v0.73h2.3v-0.73C104.33,55.83,103.82,55.32,103.18,55.32z"/>
					<rect x="102.03" y="59.23" class="st2" width="2.3" height="2.1"/>
					<line class="st2" x1="103.18" y1="59.23" x2="103.18" y2="61.33"/>
					<rect x="107.5" y="59.23" class="st2" width="1.33" height="2.1"/>
					<line class="st2" x1="108.16" y1="59.23" x2="108.16" y2="61.33"/>
					<rect x="107.5" y="63.39" class="st2" width="1.33" height="2.1"/>
					<line class="st2" x1="108.16" y1="63.39" x2="108.16" y2="65.49"/>
					<rect x="111.62" y="59.23" class="st2" width="1.33" height="2.1"/>
					<line class="st2" x1="112.29" y1="59.23" x2="112.29" y2="61.33"/>
					<rect x="111.62" y="63.39" class="st2" width="1.33" height="2.1"/>
					<line class="st2" x1="112.29" y1="63.39" x2="112.29" y2="65.49"/>
					<rect x="115.75" y="59.23" class="st2" width="1.33" height="2.1"/>
					<line class="st2" x1="116.41" y1="59.23" x2="116.41" y2="61.33"/>
					<rect x="115.75" y="63.39" class="st2" width="1.33" height="2.1"/>
					<line class="st2" x1="116.41" y1="63.39" x2="116.41" y2="65.49"/>
					<rect x="102.03" y="63.39" class="st2" width="2.3" height="2.1"/>
					<line class="st2" x1="103.18" y1="63.39" x2="103.18" y2="65.49"/>
					<line class="st2" x1="103.18" y1="57.2" x2="103.18" y2="55.32"/>
					<polygon class="st5" points="102.9,53.28 102.43,52.17 101.95,53.28 					"/>
					<polygon class="st5" points="104.39,53.28 103.91,52.17 103.43,53.28 					"/>
					<rect x="118.24" y="50.61" class="st2" width="0.99" height="18.06"/>
					<rect x="123.55" y="50.61" class="st2" width="0.99" height="18.06"/>
					<line class="st3" x1="118.74" y1="50.61" x2="118.74" y2="49.05"/>
					<line class="st3" x1="118.74" y1="48.58" x2="118.74" y2="47.97"/>
					<line class="st3" x1="124.05" y1="50.61" x2="124.05" y2="49.05"/>
					<line class="st3" x1="124.05" y1="48.58" x2="124.05" y2="47.97"/>
					<rect x="119.23" y="54.04" class="st2" width="4.32" height="4.16"/>
					<rect x="119.23" y="58.2" class="st3" width="4.32" height="4.16"/>
					<rect x="119.23" y="62.36" class="st3" width="4.32" height="4.16"/>
					<polygon class="st2" points="122.44,50.65 120.34,50.65 119.23,54.04 123.55,54.04 					"/>
					<path class="st2" d="M121.39,55.32c-0.63,0-1.15,0.51-1.15,1.15v0.73h2.3v-0.73C122.54,55.83,122.03,55.32,121.39,55.32z"/>
					<rect x="120.24" y="59.23" class="st2" width="2.3" height="2.1"/>
					<line class="st2" x1="121.39" y1="59.23" x2="121.39" y2="61.33"/>
					<rect x="120.24" y="63.39" class="st2" width="2.3" height="2.1"/>
					<line class="st2" x1="121.39" y1="63.39" x2="121.39" y2="65.49"/>
					<line class="st2" x1="121.39" y1="57.2" x2="121.39" y2="55.32"/>
					<polygon class="st5" points="121.11,53.28 120.64,52.17 120.16,53.28 					"/>
					<polygon class="st5" points="122.6,53.28 122.12,52.17 121.64,53.28 					"/>
					<rect x="106.33" y="55.05" class="st6" width="11.91" height="3.15"/>
					<rect x="110.09" y="58.2" class="st5" width="0.4" height="10.46"/>
					<rect x="113.98" y="58.2" class="st5" width="0.4" height="10.46"/>
					<line class="st3" x1="106.33" y1="66.52" x2="110.09" y2="66.52"/>
					<line class="st3" x1="110.59" y1="66.52" x2="113.98" y2="66.52"/>
					<line class="st3" x1="114.37" y1="66.52" x2="118.24" y2="66.52"/>
					<rect x="101.76" y="67.69" class="st2" width="0.55" height="0.97"/>
					<rect x="104.05" y="67.69" class="st2" width="0.55" height="0.97"/>
					<rect x="119.97" y="67.69" class="st2" width="0.55" height="0.97"/>
					<rect x="122.26" y="67.69" class="st2" width="0.55" height="0.97"/>
					<rect x="107.89" y="67.69" class="st2" width="0.55" height="0.97"/>
					<rect x="112.01" y="67.69" class="st2" width="0.55" height="0.97"/>
					<rect x="116.13" y="67.69" class="st2" width="0.55" height="0.97"/>
					<polyline class="st3" points="110.09,58.2 110.09,56.96 110.29,56.42 110.49,56.94 110.49,58.2 					"/>
					<polyline class="st3" points="113.98,58.2 113.98,56.96 114.17,56.42 114.37,56.94 114.37,58.2 					"/>
					<line class="st2" x1="100.03" y1="68.66" x2="124.54" y2="68.66"/>
					<line class="st3" x1="100.53" y1="50.61" x2="100.53" y2="68.66"/>
					<line class="st3" x1="105.84" y1="50.61" x2="105.84" y2="68.66"/>
					<line class="st3" x1="118.74" y1="50.61" x2="118.74" y2="68.66"/>
					<line class="st3" x1="124.05" y1="50.61" x2="124.05" y2="68.66"/>
					<polygon class="st3" points="108.83,57.49 108.16,56.26 107.5,57.49 					"/>
					<polygon class="st3" points="112.95,57.49 112.29,56.26 111.62,57.49 					"/>
					<polygon class="st3" points="117.07,57.49 116.41,56.26 115.75,57.49 					"/>
				</g>
			</g>
			<g>
				<g>
					<g>
						<path class="st1" d="M49.92,35.5c-0.15,0-0.27-0.12-0.27-0.27v-0.48c0-0.15,0.12-0.27,0.27-0.27h0.32
							c0.15,0,0.27,0.12,0.27,0.27v0.48c0,0.15-0.12,0.27-0.27,0.27H49.92z"/>
						<path class="st1" d="M50.24,34.75v0.48h-0.32v-0.48H50.24 M50.24,34.21h-0.32c-0.3,0-0.54,0.24-0.54,0.54v0.48
							c0,0.3,0.24,0.54,0.54,0.54h0.32c0.3,0,0.54-0.24,0.54-0.54v-0.48C50.77,34.45,50.53,34.21,50.24,34.21L50.24,34.21z"/>
					</g>
					<g>
						<path class="st1" d="M50.89,69.41c-0.38,0-0.7-0.31-0.7-0.7V45.56c-0.2-0.12-0.33-0.34-0.33-0.59v-0.28
							c-0.28-0.09-0.48-0.35-0.48-0.66v-8.5c0-0.3,0.24-0.54,0.54-0.54h0.32c0.03,0,0.05,0,0.08,0.01l1-2.83l-0.01-1.85
							c0-0.06,0.02-0.17,0.04-0.22c0,0,0.85-2.52,0.85-2.52l0.08-0.24c0.36-1.02,1.04-2.92,1.04-4.81c0-0.3,0.24-0.54,0.54-0.54
							h0.32c0.3,0,0.54,0.24,0.54,0.54c0,1.9,0.68,3.8,1.04,4.81l0.96,2.75c0.02,0.06,0.04,0.17,0.04,0.23v1.8l1.05,2.87
							c0.03-0.01,0.06-0.01,0.09-0.01h0.32c0.3,0,0.54,0.24,0.54,0.54v8.5c0,0.31-0.2,0.57-0.48,0.66v0.28
							c0,0.25-0.13,0.47-0.33,0.59v23.15c0,0.38-0.31,0.7-0.7,0.7H50.89z"/>
						<path class="st1" d="M54.18,22.53c0,1.99,0.7,3.95,1.07,5l0.08,0.24l0,0l0.87,2.51c0.01,0.02,0.01,0.03,0.01,0.05v1.9
							l1.5,4.12c0.01,0.02,0.01,0.04,0.01,0.05v1.9h0.16v-2.76h0.32v2.92v5.58c0,0.09-0.07,0.16-0.16,0.16h-0.32v0.79
							c0,0.09-0.07,0.16-0.16,0.16h-0.17v23.59c0,0.09-0.07,0.16-0.16,0.16h-6.34c-0.09,0-0.16-0.07-0.16-0.16V45.13h-0.17
							c-0.09,0-0.16-0.07-0.16-0.16v-0.79h-0.32c-0.09,0-0.16-0.07-0.16-0.16v-5.58v-2.92h0.32v2.76h0.16v-1.9
							c0-0.02,0-0.04,0.01-0.05l1.44-4.07c0-0.01,0-0.01,0-0.02v-1.93c0-0.02,0-0.03,0.01-0.05l0.85-2.51l0.15,0.05l-0.15-0.05
							l0.08-0.24c0.37-1.05,1.07-3,1.07-5H54.18 M54.18,21.45h-0.32c-0.59,0-1.08,0.48-1.08,1.08c0,1.81-0.66,3.65-1.01,4.63
							l-0.08,0.24c0,0,0,0.01,0,0.01c0,0,0,0.01,0,0.01l-0.85,2.51c-0.04,0.13-0.06,0.26-0.06,0.4v1.78l-0.83,2.35h-0.02
							c-0.59,0-1.08,0.48-1.08,1.08v2.92v5.58c0,0.4,0.19,0.75,0.48,0.98c0.01,0.31,0.13,0.6,0.33,0.81v22.91
							c0,0.68,0.55,1.23,1.23,1.23h6.34c0.68,0,1.23-0.55,1.23-1.23V45.81c0.2-0.21,0.32-0.5,0.33-0.81
							c0.29-0.23,0.48-0.58,0.48-0.98v-5.58v-2.92c0-0.59-0.48-1.08-1.08-1.08h-0.03l-0.88-2.42v-1.71c0-0.14-0.02-0.28-0.07-0.41
							l-0.85-2.43c-0.01-0.03-0.02-0.06-0.03-0.08l-0.08-0.24c-0.35-0.99-1.01-2.83-1.01-4.64C55.25,21.93,54.77,21.45,54.18,21.45
							L54.18,21.45z"/>
					</g>
					<g>
						<path class="st1" d="M57.88,35.5c-0.15,0-0.27-0.12-0.27-0.27v-0.48c0-0.15,0.12-0.27,0.27-0.27h0.32
							c0.15,0,0.27,0.12,0.27,0.27v0.48c0,0.15-0.12,0.27-0.27,0.27H57.88z"/>
						<path class="st1" d="M58.2,34.75v0.48h-0.32v-0.48H58.2 M58.2,34.21h-0.32c-0.3,0-0.54,0.24-0.54,0.54v0.48
							c0,0.3,0.24,0.54,0.54,0.54h0.32c0.3,0,0.54-0.24,0.54-0.54v-0.48C58.74,34.45,58.5,34.21,58.2,34.21L58.2,34.21z"/>
					</g>
				</g>
				<g>
					<rect x="50.89" y="44.97" class="st2" width="6.34" height="23.75"/>
					<rect x="50.56" y="44.02" class="st2" width="7" height="0.95"/>
					<rect x="50.56" y="36.39" class="st2" width="7" height="2.06"/>
					<polygon class="st2" points="57.56,36.39 56.05,32.25 52.03,32.25 50.56,36.39 50.56,38.44 57.56,38.44 					"/>
					<polyline class="st2" points="52.85,27.81 52,30.32 52,32.25 56.05,32.25 56.05,30.32 55.18,27.81 					"/>
					<rect x="50.08" y="38.44" class="st2" width="7.96" height="5.58"/>
					<path class="st2" d="M56.85,41.23c0,1.54-1.25,2.79-2.79,2.79c-1.54,0-2.79-1.25-2.79-2.79c0-1.54,1.25-2.79,2.79-2.79
						C55.6,38.44,56.85,39.69,56.85,41.23z"/>
					<line class="st2" x1="51.02" y1="38.44" x2="51.02" y2="44.02"/>
					<line class="st2" x1="57.1" y1="38.44" x2="57.1" y2="44.02"/>
					<path class="st3" d="M56.23,41.23c0,1.2-0.97,2.17-2.17,2.17c-1.2,0-2.17-0.97-2.17-2.17s0.97-2.17,2.17-2.17
						C55.26,39.06,56.23,40.04,56.23,41.23z"/>
					<polyline class="st2" points="54.06,39.51 54.06,41.23 54.23,41.23 55.13,41.23 					"/>
					<line class="st7" x1="50.08" y1="38.44" x2="50.08" y2="35.52"/>
					<line class="st7" x1="50.08" y1="35.23" x2="50.08" y2="34.75"/>
					<line class="st7" x1="58.04" y1="38.44" x2="58.04" y2="35.52"/>
					<line class="st7" x1="58.04" y1="35.23" x2="58.04" y2="34.75"/>
					<path class="st2" d="M52.85,27.81c0.34-0.96,1.16-3.1,1.16-5.28"/>
					<path class="st2" d="M55.18,27.81c-0.34-0.96-1.16-3.1-1.16-5.28"/>
					<path class="st2" d="M53.12,31.09c0-0.15-0.12-0.28-0.28-0.28c-0.15,0-0.28,0.12-0.28,0.28h0v1.16h0.56L53.12,31.09
						L53.12,31.09z"/>
					<path class="st2" d="M54.29,31.09c0-0.15-0.12-0.28-0.28-0.28c-0.15,0-0.28,0.12-0.28,0.28h0v1.16h0.56V31.09L54.29,31.09z"/>
					<path class="st2" d="M55.47,31.09c0-0.15-0.12-0.28-0.28-0.28c-0.15,0-0.28,0.12-0.28,0.28l0,0v1.16h0.56V31.09L55.47,31.09z"
						/>
					<path class="st2" d="M52.02,37.33c0-0.27-0.22-0.5-0.5-0.5c-0.27,0-0.5,0.22-0.5,0.5h0v1.12h1L52.02,37.33L52.02,37.33z"/>
					<path class="st2" d="M53.71,37.33c0-0.27-0.22-0.5-0.5-0.5c-0.27,0-0.5,0.22-0.5,0.5h0v1.12h1L53.71,37.33L53.71,37.33z"/>
					<path class="st2" d="M55.4,37.33c0-0.27-0.22-0.5-0.5-0.5c-0.27,0-0.5,0.22-0.5,0.5h0v1.12h1L55.4,37.33L55.4,37.33z"/>
					<path class="st2" d="M57.09,37.33c0-0.27-0.22-0.5-0.5-0.5c-0.27,0-0.5,0.22-0.5,0.5h0v1.12h1L57.09,37.33L57.09,37.33z"/>
					<line class="st2" x1="51.55" y1="45.43" x2="51.55" y2="47.12"/>
					<line class="st3" x1="52.17" y1="45.43" x2="52.17" y2="47.12"/>
					<line class="st2" x1="52.8" y1="45.43" x2="52.8" y2="47.12"/>
					<line class="st3" x1="53.42" y1="45.43" x2="53.42" y2="47.12"/>
					<line class="st2" x1="54.04" y1="45.43" x2="54.04" y2="47.12"/>
					<line class="st3" x1="54.66" y1="45.43" x2="54.66" y2="47.12"/>
					<line class="st2" x1="55.28" y1="45.43" x2="55.28" y2="47.12"/>
					<line class="st3" x1="55.9" y1="45.43" x2="55.9" y2="47.12"/>
					<line class="st2" x1="56.52" y1="45.43" x2="56.52" y2="47.12"/>
					<line class="st2" x1="52" y1="30.32" x2="56.05" y2="30.32"/>
					<rect x="51.86" y="48.37" class="st2" width="0.62" height="2.89"/>
					<rect x="53.11" y="48.37" class="st2" width="0.62" height="2.89"/>
					<rect x="54.35" y="48.37" class="st2" width="0.62" height="2.89"/>
					<rect x="55.59" y="48.37" class="st2" width="0.62" height="2.89"/>
					<rect x="51.86" y="53" class="st2" width="0.62" height="2.89"/>
					<rect x="53.11" y="53" class="st2" width="0.62" height="2.89"/>
					<rect x="54.35" y="53" class="st2" width="0.62" height="2.89"/>
					<rect x="55.59" y="53" class="st2" width="0.62" height="2.89"/>
					<rect x="51.86" y="57.62" class="st2" width="0.62" height="2.89"/>
					<rect x="53.11" y="57.62" class="st2" width="0.62" height="2.89"/>
					<rect x="54.35" y="57.62" class="st2" width="0.62" height="2.89"/>
					<rect x="55.59" y="57.62" class="st2" width="0.62" height="2.89"/>
					<rect x="51.86" y="62.25" class="st2" width="0.62" height="2.89"/>
					<rect x="53.11" y="62.25" class="st2" width="0.62" height="2.89"/>
					<rect x="54.35" y="62.25" class="st2" width="0.62" height="2.89"/>
					<rect x="55.59" y="62.25" class="st2" width="0.62" height="2.89"/>
					<line class="st3" x1="50.42" y1="52.15" x2="57.56" y2="52.15"/>
					<line class="st3" x1="50.42" y1="56.84" x2="57.56" y2="56.84"/>
					<line class="st3" x1="50.42" y1="61.54" x2="57.56" y2="61.54"/>
					<polyline class="st3" points="55.79,36.39 55.04,32.25 53.05,32.25 52.33,36.39 					"/>
					<line class="st3" x1="50.42" y1="61.54" x2="57.56" y2="61.54"/>
					<line class="st3" x1="54.06" y1="32.25" x2="54.06" y2="36.39"/>
					<line class="st3" x1="54.03" y1="23.07" x2="54.6" y2="30.32"/>
					<line class="st3" x1="54.03" y1="23.07" x2="53.36" y2="30.32"/>
					<line class="st3" x1="54.04" y1="22" x2="54.04" y2="20.67"/>
				</g>
			</g>
			<g>
				<polyline class="st2" points="131.63,70.1 84.54,70.1 84.54,68.72 131.63,68.72 				"/>
				<polyline class="st2" points="-2.92,70.1 74.72,70.1 74.72,68.72 -2.92,68.72 				"/>
			</g>
			<g>
				<g>
					<path class="st1" d="M3.47,69.17c-0.15,0-0.27-0.12-0.27-0.27l0-1.25c-0.56-0.18-0.95-0.71-0.95-1.31
						c0-0.05,0.24-4.59,1.39-4.59c1.16,0,1.38,4.54,1.38,4.59c0,0.6-0.4,1.13-0.96,1.31l0,1.25c0,0.07-0.03,0.14-0.08,0.19
						c-0.05,0.05-0.12,0.08-0.19,0.08C3.79,69.17,3.47,69.17,3.47,69.17z"/>
					<path class="st1" d="M3.65,62.02C3.65,62.02,3.65,62.02,3.65,62.02c0.8,0,1.11,4.28,1.11,4.32c0,0.56-0.42,1.02-0.96,1.1
						l0,1.46l-0.32,0l0-1.46c-0.54-0.08-0.95-0.54-0.95-1.1C2.53,66.29,2.84,62.02,3.65,62.02 M3.65,61.48
						C3.65,61.48,3.65,61.48,3.65,61.48c-1.5,0-1.66,4.81-1.66,4.86c0,0.65,0.39,1.23,0.95,1.5l0,1.06c0,0.3,0.24,0.54,0.54,0.54
						l0.32,0c0,0,0,0,0,0c0.14,0,0.28-0.06,0.38-0.16c0.1-0.1,0.16-0.24,0.16-0.38l0-1.06c0.57-0.27,0.96-0.84,0.96-1.49
						c0-0.08-0.08-1.18-0.26-2.26C4.73,62.23,4.33,61.48,3.65,61.48L3.65,61.48z"/>
				</g>
				<g>
					<path class="st2" d="M4.59,66.34c0,0.53-0.43,0.95-0.96,0.95c-0.53,0-0.95-0.43-0.95-0.96c0-0.53,0.43-4.16,0.96-4.16
						C4.17,62.18,4.59,65.81,4.59,66.34z"/>
					<line class="st2" x1="3.64" y1="67.29" x2="3.63" y2="68.9"/>
				</g>
			</g>
			<g>
				<g>
					<path class="st1" d="M6.53,69.14c-0.07,0-0.14-0.03-0.19-0.08c-0.05-0.05-0.08-0.12-0.08-0.19l0-1.25
						c-0.56-0.18-0.95-0.71-0.95-1.31c0-0.63,0.47-2.11,1.38-2.11c0.41,0,0.78,0.3,1.05,0.87c0.2,0.4,0.33,0.9,0.33,1.25
						c0,0.6-0.4,1.13-0.96,1.31l0,1.25c0,0.15-0.12,0.27-0.27,0.27H6.53z"/>
					<path class="st1" d="M6.7,64.47C6.7,64.47,6.7,64.47,6.7,64.47c0.68,0,1.11,1.3,1.11,1.85c0,0.56-0.42,1.02-0.96,1.1l0,1.46
						l-0.32,0l0-1.46c-0.54-0.08-0.95-0.54-0.95-1.1C5.58,65.77,6.01,64.47,6.7,64.47 M6.7,63.93C6.7,63.93,6.7,63.93,6.7,63.93
						c-1.14,0-1.65,1.72-1.66,2.38c0,0.65,0.39,1.23,0.95,1.5l0,1.06c0,0.3,0.24,0.54,0.54,0.54l0.32,0c0,0,0,0,0,0
						c0.14,0,0.28-0.06,0.38-0.16c0.1-0.1,0.16-0.24,0.16-0.38l0-1.06c0.57-0.27,0.96-0.84,0.96-1.49c0-0.38-0.14-0.93-0.35-1.37
						C7.67,64.3,7.21,63.93,6.7,63.93L6.7,63.93z"/>
				</g>
				<g>
					<path class="st2" d="M7.65,66.32c0,0.53-0.43,0.95-0.96,0.95c-0.53,0-0.95-0.43-0.95-0.96c0-0.53,0.43-1.69,0.96-1.68
						C7.22,64.63,7.65,65.79,7.65,66.32z"/>
					<line class="st2" x1="6.69" y1="67.27" x2="6.69" y2="68.88"/>
				</g>
			</g>
		</g>
	</g>
</g>
</svg>
