<?xml version="1.0" encoding="utf-8"?>
<!-- Generator: Adobe Illustrator 24.3.0, SVG Export Plug-In . SVG Version: 6.00 Build 0)  -->
<svg version="1.1" id="Layer_1" xmlns="http://www.w3.org/2000/svg" xmlns:xlink="http://www.w3.org/1999/xlink" x="0px" y="0px"
	 viewBox="0 0 128 90" style="enable-background:new 0 0 128 90;" xml:space="preserve">
<style type="text/css">
	.st0{clip-path:url(#SVGID_2_);}
	.st1{fill:#FFFFFF;}
	.st2{fill:none;stroke:#000000;stroke-width:0.3145;stroke-miterlimit:10;}
	.st3{fill:none;stroke:#000000;stroke-width:0.1572;stroke-miterlimit:10;}
	.st4{fill:none;stroke:#000000;stroke-width:0.3145;stroke-linejoin:round;stroke-miterlimit:10;}
	.st5{fill:none;stroke:#000000;stroke-width:0.1572;stroke-linejoin:round;stroke-miterlimit:10;}
	.st6{fill:none;stroke:#000000;stroke-width:0.3145;stroke-linecap:round;stroke-linejoin:round;stroke-miterlimit:10;}
	.st7{fill:none;stroke:#000000;stroke-width:0.1572;stroke-linecap:round;stroke-linejoin:round;stroke-miterlimit:10;}
</style>
<g>
	<defs>
		<rect id="SVGID_1_" x="3.59" y="20.54" width="120.81" height="48.38"/>
	</defs>
	<clipPath id="SVGID_2_">
		<use xlink:href="#SVGID_1_"  style="overflow:visible;"/>
	</clipPath>
	<g class="st0">
		<g>
			<g>
				<g>
					<path class="st1" d="M71.08,53.79c-0.13,0-0.24-0.11-0.24-0.24v-0.29c0-0.13,0.11-0.24,0.24-0.24h3.86
						c0.13,0,0.24,0.11,0.24,0.24v0.29c0,0.13-0.11,0.24-0.24,0.24H71.08z"/>
					<path class="st1" d="M74.94,53.27v0.29h-3.86v-0.29H74.94 M74.94,52.8h-3.86c-0.26,0-0.47,0.21-0.47,0.47v0.29
						c0,0.26,0.21,0.47,0.47,0.47h3.86c0.26,0,0.47-0.21,0.47-0.47v-0.29C75.42,53.01,75.2,52.8,74.94,52.8L74.94,52.8z"/>
				</g>
				<g>
					<path class="st1" d="M92.08,53.79c-0.13,0-0.24-0.11-0.24-0.24v-0.29c0-0.13,0.11-0.24,0.24-0.24h3.86
						c0.13,0,0.24,0.11,0.24,0.24v0.29c0,0.13-0.11,0.24-0.24,0.24H92.08z"/>
					<path class="st1" d="M95.94,53.27v0.29h-3.86v-0.29H95.94 M95.94,52.8h-3.86c-0.26,0-0.47,0.21-0.47,0.47v0.29
						c0,0.26,0.21,0.47,0.47,0.47h3.86c0.26,0,0.47-0.21,0.47-0.47v-0.29C96.42,53.01,96.2,52.8,95.94,52.8L95.94,52.8z"/>
				</g>
				<g>
					<path class="st1" d="M91.94,69.56c-0.26,0-0.47-0.21-0.47-0.47v-1.24c0-0.18,0.1-0.33,0.24-0.41v-0.23
						c0-0.2,0.13-0.38,0.31-0.44v-2.41H75.01v2.41c0.18,0.07,0.31,0.24,0.31,0.44v0.23c0.14,0.08,0.24,0.23,0.24,0.41v1.24
						c0,0.26-0.21,0.47-0.47,0.47h-4.15c-0.26,0-0.47-0.21-0.47-0.47v-1.24c0-0.18,0.1-0.33,0.24-0.41v-0.23
						c0-0.2,0.13-0.38,0.31-0.44v-3.01h-1.51c-2.68,0-5.42,0.63-7.71,1.79c-0.15,0.08-0.31,0.17-0.48,0.25
						c-0.68,0.38-1.31,0.8-1.86,1.25c-0.09,0.07-0.19,0.11-0.3,0.11c-0.01,0-0.03,0-0.04,0c-0.12-0.01-0.24-0.07-0.32-0.17
						l-0.18-0.22c-0.17-0.2-0.14-0.5,0.06-0.66c0.6-0.5,1.28-0.96,2.04-1.38c0.2-0.11,0.35-0.19,0.5-0.27
						c7.03-3.79,9.51-9.94,9.8-10.72V53.7c0-0.26,0.21-0.47,0.47-0.47h3.05c0.26,0,0.47,0.21,0.47,0.47v0.01
						c1.83,4.06,5.02,6.47,8.54,6.47c3.53-0.01,6.68-2.43,8.47-6.47V53.7c0-0.26,0.21-0.47,0.47-0.47h3.05
						c0.26,0,0.47,0.21,0.47,0.47v0.13c0.03,0.14,0.95,5.31,10.65,10.6c0.98,0.49,1.9,1.08,2.71,1.75c0.1,0.08,0.16,0.19,0.17,0.32
						s-0.03,0.25-0.11,0.35l-0.18,0.22c-0.09,0.11-0.23,0.17-0.36,0.17c-0.11,0-0.21-0.04-0.3-0.11c-0.53-0.44-1.11-0.84-1.73-1.19
						c-0.01,0-0.02-0.01-0.02-0.01c-0.26-0.14-0.51-0.27-0.76-0.41c-3.1-1.53-6.36-1.76-8.03-1.76h-2.03v3.01
						c0.18,0.07,0.31,0.24,0.31,0.44v0.23c0.14,0.08,0.24,0.23,0.24,0.41v1.24c0,0.26-0.21,0.47-0.47,0.47H91.94z"/>
					<path class="st1" d="M95.54,53.7v0.13c0.04,0.24,1.02,5.63,10.9,11.02c0.91,0.45,1.8,1.01,2.64,1.69l-0.18,0.22
						c-0.59-0.48-1.21-0.9-1.84-1.26l0,0c-0.26-0.13-0.51-0.27-0.76-0.4c-3.26-1.61-6.7-1.82-8.26-1.82h-2.5v3.92h0.31v0.64h0.24
						v1.24h-4.15v-1.24h0.24v-0.64h0.31v-3.33H74.54v3.33h0.31v0.64h0.24v1.24h-4.15v-1.24h0.24v-0.64h0.31v-3.92h-1.98
						c-2.78,0-5.62,0.67-7.93,1.83c-0.16,0.09-0.32,0.17-0.48,0.25c-0.71,0.39-1.37,0.83-1.95,1.31l-0.18-0.22
						c0.58-0.49,1.24-0.93,1.96-1.33l0,0c0.02-0.01,0.04-0.02,0.05-0.03c0.14-0.08,0.29-0.16,0.44-0.23
						c7.48-4.04,9.91-10.64,10.06-11.06V53.7h3.05v0.11c1.9,4.29,5.27,6.85,9.01,6.85c0.01,0,0.02,0,0.03,0
						c3.72-0.01,7.05-2.57,8.91-6.84V53.7H95.54 M95.54,52.76h-3.05c-0.49,0-0.89,0.37-0.94,0.84c-1.72,3.82-4.69,6.1-7.98,6.11
						c-3.33,0-6.34-2.28-8.1-6.12c-0.05-0.47-0.45-0.84-0.94-0.84h-3.05c-0.5,0-0.91,0.39-0.94,0.89c-0.38,1-2.85,6.78-9.56,10.4
						c-0.13,0.07-0.29,0.15-0.44,0.23c-0.02,0.01-0.04,0.02-0.06,0.03l0,0c-0.78,0.43-1.49,0.91-2.11,1.43
						c-0.4,0.33-0.45,0.93-0.12,1.33l0.18,0.22c0.16,0.19,0.39,0.31,0.64,0.34c0.03,0,0.06,0,0.09,0c0.22,0,0.43-0.08,0.6-0.22
						c0.52-0.43,1.13-0.84,1.8-1.21c0.14-0.07,0.31-0.16,0.47-0.25c2.2-1.11,4.86-1.72,7.48-1.72h1.04v2.28
						c-0.19,0.17-0.31,0.42-0.31,0.7v0.02C70.09,67.39,70,67.61,70,67.85v1.24c0,0.52,0.42,0.94,0.94,0.94h4.15
						c0.52,0,0.94-0.42,0.94-0.94v-1.24c0-0.24-0.09-0.46-0.24-0.63v-0.02c0-0.28-0.12-0.53-0.31-0.7v-1.69h16.06v1.69
						c-0.19,0.17-0.31,0.42-0.31,0.7v0.02C91.09,67.39,91,67.61,91,67.85v1.24c0,0.52,0.42,0.94,0.94,0.94h4.15
						c0.52,0,0.94-0.42,0.94-0.94v-1.24c0-0.24-0.09-0.46-0.24-0.63v-0.02c0-0.28-0.12-0.53-0.31-0.7v-2.28h1.56
						c1.31,0,4.69,0.17,7.84,1.72c0.22,0.12,0.47,0.26,0.74,0.4c0.01,0,0.01,0.01,0.02,0.01c0.59,0.34,1.15,0.73,1.65,1.14
						c0.18,0.14,0.39,0.21,0.6,0.21c0.27,0,0.54-0.12,0.73-0.34l0.18-0.22c0.33-0.4,0.27-1-0.13-1.33c-0.84-0.69-1.79-1.3-2.82-1.81
						c-8.89-4.85-10.24-9.69-10.37-10.27V53.7C96.48,53.18,96.06,52.76,95.54,52.76L95.54,52.76z"/>
				</g>
			</g>
			<g>
				<rect x="71.63" y="63.14" class="st2" width="2.76" height="4.21"/>
				<rect x="71.63" y="53.84" class="st2" width="2.76" height="0.83"/>
				<rect x="72.06" y="58.89" class="st2" width="1.91" height="4.21"/>
				<rect x="72.06" y="54.68" class="st2" width="1.91" height="4.21"/>
				<rect x="71.08" y="67.99" class="st2" width="3.86" height="0.95"/>
				<rect x="71.32" y="67.35" class="st2" width="3.38" height="0.64"/>
				<line class="st2" x1="74.4" y1="63.9" x2="73.7" y2="63.9"/>
				<line class="st2" x1="71.63" y1="64.64" x2="72.39" y2="64.64"/>
				<line class="st2" x1="73.01" y1="65.38" x2="73.49" y2="65.38"/>
				<line class="st2" x1="73.7" y1="66.57" x2="74.4" y2="66.57"/>
				<line class="st2" x1="71.08" y1="53.41" x2="74.94" y2="53.41"/>
				<rect x="92.63" y="63.14" class="st2" width="2.77" height="4.21"/>
				<rect x="92.63" y="53.84" class="st2" width="2.77" height="0.83"/>
				<rect x="93.06" y="58.89" class="st2" width="1.91" height="4.21"/>
				<rect x="93.06" y="54.68" class="st2" width="1.91" height="4.21"/>
				<rect x="92.08" y="67.99" class="st2" width="3.86" height="0.95"/>
				<rect x="92.32" y="67.35" class="st2" width="3.38" height="0.64"/>
				<line class="st2" x1="95.4" y1="63.9" x2="94.7" y2="63.9"/>
				<line class="st2" x1="92.63" y1="64.64" x2="93.39" y2="64.64"/>
				<line class="st2" x1="94.01" y1="65.38" x2="94.49" y2="65.38"/>
				<line class="st2" x1="94.7" y1="66.57" x2="95.4" y2="66.57"/>
				<line class="st2" x1="92.08" y1="53.41" x2="95.94" y2="53.41"/>
				<path class="st2" d="M59.07,66.57c2.65-2.2,6.72-3.43,10.44-3.43h28.53c3.36,0,7.72,0.87,10.94,3.52"/>
				<path class="st2" d="M74.4,53.84c4.09,9.26,14.21,9.3,18.23,0"/>
				<line class="st2" x1="74.4" y1="63.73" x2="92.63" y2="63.73"/>
				<path class="st2" d="M71.63,53.84c0,0-2.41,7.23-10.63,11.42"/>
				<path class="st2" d="M95.4,53.84c0,0,0.75,5.82,11.72,11.54"/>
				<line class="st2" x1="72.06" y1="61.97" x2="72.6" y2="61.97"/>
				<line class="st2" x1="73.01" y1="61.31" x2="73.49" y2="61.31"/>
				<line class="st2" x1="73.01" y1="59.84" x2="73.37" y2="59.84"/>
				<line class="st2" x1="72.06" y1="59.38" x2="72.6" y2="59.38"/>
				<line class="st2" x1="73.49" y1="58.05" x2="73.97" y2="58.05"/>
				<line class="st2" x1="72.89" y1="57.02" x2="73.37" y2="57.02"/>
				<line class="st2" x1="72.14" y1="56.32" x2="72.6" y2="56.32"/>
				<line class="st2" x1="73.25" y1="55.43" x2="73.97" y2="55.43"/>
				<line class="st2" x1="93.06" y1="62.14" x2="93.58" y2="62.14"/>
				<line class="st2" x1="94.49" y1="61.37" x2="94.97" y2="61.37"/>
				<line class="st2" x1="93.7" y1="60.33" x2="94.25" y2="60.33"/>
				<line class="st2" x1="93.06" y1="58.13" x2="93.98" y2="58.13"/>
				<line class="st2" x1="94.59" y1="57.32" x2="94.97" y2="57.32"/>
				<line class="st2" x1="93.8" y1="56.56" x2="94.25" y2="56.56"/>
				<line class="st2" x1="93.06" y1="55.77" x2="93.58" y2="55.77"/>
				<line class="st2" x1="94.59" y1="55.13" x2="94.97" y2="55.13"/>
				<line class="st3" x1="93.98" y1="66.57" x2="92.63" y2="66.57"/>
				<line class="st3" x1="94.86" y1="65.37" x2="95.4" y2="65.37"/>
				<line class="st3" x1="93.39" y1="65.38" x2="92.68" y2="65.38"/>
				<line class="st3" x1="93.84" y1="64.64" x2="95.4" y2="64.64"/>
				<line class="st3" x1="94.25" y1="63.9" x2="92.63" y2="63.9"/>
				<line class="st3" x1="94.18" y1="62.14" x2="94.97" y2="62.14"/>
				<line class="st3" x1="93.8" y1="61.39" x2="93.06" y2="61.39"/>
				<line class="st3" x1="94.59" y1="60.33" x2="94.97" y2="60.33"/>
				<line class="st3" x1="94.02" y1="59.43" x2="93.06" y2="59.43"/>
				<line class="st3" x1="94.39" y1="58.13" x2="94.97" y2="58.13"/>
				<line class="st3" x1="93.8" y1="57.32" x2="93.06" y2="57.32"/>
				<line class="st3" x1="94.59" y1="56.56" x2="94.97" y2="56.56"/>
				<line class="st3" x1="93.98" y1="55.77" x2="94.97" y2="55.77"/>
				<line class="st3" x1="93.8" y1="55.13" x2="93.06" y2="55.13"/>
				<line class="st3" x1="92.63" y1="54.26" x2="95.4" y2="54.26"/>
				<line class="st3" x1="74.4" y1="64.21" x2="92.63" y2="64.21"/>
				<line class="st3" x1="73.43" y1="66.57" x2="71.63" y2="66.57"/>
				<line class="st3" x1="73.77" y1="65.38" x2="74.4" y2="65.38"/>
				<line class="st3" x1="72.75" y1="65.38" x2="71.68" y2="65.38"/>
				<line class="st3" x1="72.75" y1="64.64" x2="74.4" y2="64.64"/>
				<line class="st3" x1="73.19" y1="63.9" x2="71.68" y2="63.9"/>
				<line class="st3" x1="72.89" y1="61.97" x2="73.97" y2="61.97"/>
				<line class="st3" x1="72.6" y1="61.31" x2="72.1" y2="61.31"/>
				<line class="st3" x1="72.6" y1="60.49" x2="73.9" y2="60.49"/>
				<line class="st3" x1="73.61" y1="59.84" x2="73.9" y2="59.84"/>
				<line class="st3" x1="72.94" y1="59.38" x2="73.97" y2="59.38"/>
				<line class="st3" x1="73.01" y1="58.05" x2="72.14" y2="58.05"/>
				<line class="st3" x1="73.61" y1="57.02" x2="73.97" y2="57.02"/>
				<line class="st3" x1="72.58" y1="57.02" x2="72.1" y2="57.02"/>
				<line class="st3" x1="72.94" y1="56.32" x2="74.03" y2="56.32"/>
				<line class="st3" x1="72.94" y1="55.43" x2="72.06" y2="55.43"/>
				<line class="st3" x1="71.63" y1="54.26" x2="74.34" y2="54.26"/>
				<path class="st3" d="M74.4,54.27c4.09,9.26,14.21,9.3,18.23,0"/>
			</g>
		</g>
		<g>
			<g>
				<g>
					<path class="st1" d="M63.22,33.98c-0.13,0-0.24-0.11-0.24-0.24v-0.3c0-0.13,0.11-0.24,0.24-0.24h0.29
						c0.13,0,0.24,0.11,0.24,0.24v0.3c0,0.13-0.11,0.24-0.24,0.24H63.22z"/>
					<path class="st1" d="M63.51,33.45v0.3h-0.29v-0.3H63.51 M63.51,32.98h-0.29c-0.26,0-0.47,0.21-0.47,0.47v0.3
						c0,0.26,0.21,0.47,0.47,0.47h0.29c0.26,0,0.47-0.21,0.47-0.47v-0.3C63.98,33.19,63.77,32.98,63.51,32.98L63.51,32.98z"/>
				</g>
				<g>
					<path class="st1" d="M59.91,69.56c-0.34,0-0.61-0.28-0.61-0.62V46.22c0-0.33,0.26-0.6,0.59-0.61v-1.56
						c0-0.28,0.18-0.51,0.44-0.59V40.6c0-0.26,0.21-0.47,0.47-0.47h0.1c0.04-0.1,0.09-0.19,0.15-0.28v-0.16
						c0-0.28,0.09-0.56,0.25-0.81v-0.2c0-0.29,0.09-0.56,0.27-0.8v-0.03c0-0.28,0.1-0.54,0.28-0.77c0.01-0.29,0.13-0.57,0.36-0.79
						c0.03-0.15,0.09-0.28,0.18-0.4v-0.27c0-0.28,0.15-0.54,0.39-0.7V34c0-0.26,0.21-0.47,0.47-0.47h0.29
						c0.26,0,0.47,0.21,0.47,0.47v0.92c0.24,0.16,0.39,0.42,0.39,0.7v0.26c0.1,0.12,0.16,0.26,0.19,0.4
						c0.22,0.22,0.34,0.49,0.35,0.78c0.18,0.23,0.28,0.5,0.28,0.77v0.03c0.17,0.24,0.27,0.52,0.27,0.8v0.2
						c0.16,0.25,0.25,0.53,0.25,0.81v0.16c0.06,0.09,0.11,0.19,0.15,0.28h0.14c0.26,0,0.47,0.21,0.47,0.47v2.84
						c0.28,0.06,0.48,0.31,0.48,0.6v1.56c0.33,0.01,0.59,0.28,0.59,0.61v22.73c0,0.34-0.28,0.62-0.62,0.62H59.91z"/>
					<path class="st1" d="M63.51,34v1.23c0.22,0.05,0.39,0.2,0.39,0.39v0.46c0.13,0.1,0.21,0.23,0.21,0.39v0.06
						c0.21,0.14,0.33,0.34,0.33,0.57v0.16c0.17,0.16,0.28,0.37,0.28,0.59v0.2c0.17,0.18,0.27,0.4,0.27,0.64v0.35
						c0.16,0.2,0.25,0.42,0.25,0.66V40c0.19,0.23,0.28,0.49,0.28,0.76v3.14h0.19v-3.3h0.29v3.3h0.33h0c0.08,0,0.14,0.06,0.14,0.14
						v2.03h0.44c0.08,0,0.14,0.06,0.14,0.14v22.73c0,0.08-0.06,0.14-0.14,0.14h-7c-0.08,0-0.14-0.06-0.14-0.14V46.22
						c0-0.08,0.06-0.14,0.14-0.14h0.44v-2.03c0-0.08,0.06-0.14,0.14-0.14h0.29v-3.3h0.29v3.3h0.15v-3.14c0-0.28,0.1-0.53,0.28-0.76
						v-0.32c0-0.24,0.09-0.47,0.25-0.66v-0.35c0-0.23,0.1-0.45,0.27-0.64v-0.2c0-0.22,0.1-0.43,0.28-0.59v-0.16
						c0-0.23,0.13-0.43,0.33-0.57v-0.06c0-0.15,0.08-0.29,0.21-0.39v-0.46c0-0.19,0.16-0.35,0.39-0.39V34H63.51 M63.51,33.06h-0.29
						c-0.52,0-0.94,0.42-0.94,0.94v0.7c-0.24,0.24-0.39,0.57-0.39,0.92v0.12c-0.06,0.1-0.11,0.21-0.14,0.32
						c-0.21,0.24-0.34,0.54-0.38,0.85c-0.17,0.25-0.27,0.53-0.29,0.83c-0.18,0.29-0.27,0.61-0.27,0.95v0.07
						c-0.16,0.29-0.25,0.61-0.25,0.94c-0.41,0.1-0.72,0.47-0.72,0.92v2.57c-0.26,0.2-0.44,0.51-0.44,0.87v1.21
						c-0.35,0.18-0.59,0.55-0.59,0.96v22.73c0,0.6,0.49,1.09,1.09,1.09h7c0.6,0,1.09-0.49,1.09-1.09V46.22
						c0-0.42-0.24-0.78-0.59-0.96v-1.21c0-0.38-0.19-0.71-0.48-0.9V40.6c0-0.46-0.33-0.84-0.76-0.93c0-0.32-0.09-0.64-0.25-0.93
						v-0.07c0-0.34-0.09-0.66-0.27-0.95c-0.02-0.29-0.12-0.57-0.29-0.83c-0.04-0.31-0.17-0.6-0.38-0.85
						c-0.03-0.11-0.08-0.22-0.14-0.32v-0.12c0-0.35-0.14-0.67-0.39-0.92V34C64.45,33.48,64.03,33.06,63.51,33.06L63.51,33.06z"/>
				</g>
				<g>
					<path class="st1" d="M60.79,40.53c-0.13,0-0.24-0.11-0.24-0.24v-0.46c0-0.13,0.11-0.24,0.24-0.24h0.29
						c0.13,0,0.24,0.11,0.24,0.24v0.46c0,0.13-0.11,0.24-0.24,0.24H60.79z"/>
					<path class="st1" d="M61.07,39.84v0.46h-0.29v-0.46H61.07 M61.07,39.36h-0.29c-0.26,0-0.47,0.21-0.47,0.47v0.46
						c0,0.26,0.21,0.47,0.47,0.47h0.29c0.26,0,0.47-0.21,0.47-0.47v-0.46C61.55,39.57,61.33,39.36,61.07,39.36L61.07,39.36z"/>
				</g>
				<g>
					<path class="st1" d="M65.7,40.53c-0.13,0-0.24-0.11-0.24-0.24v-0.46c0-0.13,0.11-0.24,0.24-0.24h0.29
						c0.13,0,0.24,0.11,0.24,0.24v0.46c0,0.13-0.11,0.24-0.24,0.24H65.7z"/>
					<path class="st1" d="M65.99,39.84v0.46H65.7v-0.46H65.99 M65.99,39.36H65.7c-0.26,0-0.47,0.21-0.47,0.47v0.46
						c0,0.26,0.21,0.47,0.47,0.47h0.29c0.26,0,0.47-0.21,0.47-0.47v-0.46C66.46,39.57,66.25,39.36,65.99,39.36L65.99,39.36z"/>
				</g>
			</g>
			<g>
				<path class="st4" d="M65.09,40.05c-0.35-0.4-0.99-0.67-1.72-0.67c-1.11,0-2,0.62-2,1.38v3.28h4v-3.28
					C65.37,40.5,65.27,40.25,65.09,40.05"/>
				<path class="st4" d="M65.09,40.05v-0.36c0-0.66-0.77-1.19-1.72-1.19c-0.95,0-1.72,0.53-1.72,1.19v0.36"/>
				<path class="st4" d="M64.84,39.07v-0.39c0-0.56-0.66-1.02-1.47-1.02c-0.81,0-1.47,0.45-1.47,1.02v0.39"/>
				<path class="st4" d="M64.57,38.09v-0.25c0-0.46-0.54-0.83-1.2-0.83c-0.66,0-1.2,0.37-1.2,0.83v0.25"/>
				<path class="st4" d="M64.29,37.28v-0.19c0-0.35-0.41-0.64-0.92-0.64c-0.51,0-0.92,0.29-0.92,0.64v0.19"/>
				<path class="st4" d="M63.96,36.58v-0.12c0-0.23-0.26-0.41-0.59-0.41c-0.33,0-0.59,0.18-0.59,0.41v0.12"/>
				<path class="st4" d="M63.75,36.13v-0.51c0-0.15-0.17-0.27-0.39-0.27c-0.21,0-0.39,0.12-0.39,0.27v0.53"/>
				<line class="st5" x1="63.37" y1="35.35" x2="63.37" y2="34"/>
				<line class="st5" x1="63.37" y1="33.75" x2="63.37" y2="33.45"/>
				<polygon class="st4" points="66.33,46.22 66.33,44.04 60.5,44.04 60.5,46.22 59.91,46.22 59.91,68.95 66.91,68.95 66.91,46.22 
									"/>
				<rect x="60.5" y="44.04" class="st4" width="0.87" height="2.18"/>
				<rect x="65.37" y="44.04" class="st4" width="0.96" height="2.18"/>
				<line class="st4" x1="60.5" y1="47.08" x2="61.37" y2="47.08"/>
				<line class="st4" x1="60.5" y1="47.93" x2="61.37" y2="47.93"/>
				<line class="st4" x1="60.5" y1="48.78" x2="61.37" y2="48.78"/>
				<line class="st4" x1="60.5" y1="49.63" x2="61.37" y2="49.63"/>
				<line class="st4" x1="60.5" y1="50.48" x2="61.37" y2="50.48"/>
				<line class="st4" x1="60.5" y1="51.33" x2="61.37" y2="51.33"/>
				<line class="st4" x1="60.5" y1="52.19" x2="61.37" y2="52.19"/>
				<line class="st4" x1="60.5" y1="53.04" x2="61.37" y2="53.04"/>
				<line class="st4" x1="60.5" y1="53.89" x2="61.37" y2="53.89"/>
				<line class="st4" x1="60.5" y1="54.74" x2="61.37" y2="54.74"/>
				<line class="st4" x1="60.5" y1="55.59" x2="61.37" y2="55.59"/>
				<line class="st4" x1="60.5" y1="56.44" x2="61.37" y2="56.44"/>
				<line class="st4" x1="60.5" y1="57.29" x2="61.37" y2="57.29"/>
				<line class="st4" x1="60.5" y1="58.14" x2="61.37" y2="58.14"/>
				<line class="st4" x1="60.5" y1="58.99" x2="61.37" y2="58.99"/>
				<line class="st4" x1="60.5" y1="59.85" x2="61.37" y2="59.85"/>
				<line class="st4" x1="60.5" y1="60.7" x2="61.37" y2="60.7"/>
				<line class="st4" x1="60.5" y1="61.55" x2="61.37" y2="61.55"/>
				<line class="st4" x1="60.5" y1="62.4" x2="61.37" y2="62.4"/>
				<line class="st4" x1="60.5" y1="63.25" x2="61.37" y2="63.25"/>
				<line class="st4" x1="60.5" y1="64.1" x2="61.37" y2="64.1"/>
				<line class="st4" x1="60.5" y1="64.95" x2="61.37" y2="64.95"/>
				<line class="st4" x1="60.5" y1="65.8" x2="61.37" y2="65.8"/>
				<line class="st4" x1="60.5" y1="66.66" x2="61.37" y2="66.66"/>
				<line class="st4" x1="60.5" y1="67.51" x2="61.37" y2="67.51"/>
				<line class="st4" x1="65.41" y1="47.08" x2="66.28" y2="47.08"/>
				<line class="st4" x1="65.41" y1="47.93" x2="66.28" y2="47.93"/>
				<line class="st4" x1="65.41" y1="48.78" x2="66.28" y2="48.78"/>
				<line class="st4" x1="65.41" y1="49.63" x2="66.28" y2="49.63"/>
				<line class="st4" x1="65.41" y1="50.48" x2="66.28" y2="50.48"/>
				<line class="st4" x1="65.41" y1="51.33" x2="66.28" y2="51.33"/>
				<line class="st4" x1="65.41" y1="52.19" x2="66.28" y2="52.19"/>
				<line class="st4" x1="65.41" y1="53.04" x2="66.28" y2="53.04"/>
				<line class="st4" x1="65.41" y1="53.89" x2="66.28" y2="53.89"/>
				<line class="st4" x1="65.41" y1="54.74" x2="66.28" y2="54.74"/>
				<line class="st4" x1="65.41" y1="55.59" x2="66.28" y2="55.59"/>
				<line class="st4" x1="65.41" y1="56.44" x2="66.28" y2="56.44"/>
				<line class="st4" x1="65.41" y1="57.29" x2="66.28" y2="57.29"/>
				<line class="st4" x1="65.41" y1="58.14" x2="66.28" y2="58.14"/>
				<line class="st4" x1="65.41" y1="58.99" x2="66.28" y2="58.99"/>
				<line class="st4" x1="65.41" y1="59.85" x2="66.28" y2="59.85"/>
				<line class="st4" x1="65.41" y1="60.7" x2="66.28" y2="60.7"/>
				<line class="st4" x1="65.41" y1="61.55" x2="66.28" y2="61.55"/>
				<line class="st4" x1="65.41" y1="62.4" x2="66.28" y2="62.4"/>
				<line class="st4" x1="65.41" y1="63.25" x2="66.28" y2="63.25"/>
				<line class="st4" x1="65.41" y1="64.1" x2="66.28" y2="64.1"/>
				<line class="st4" x1="65.41" y1="64.95" x2="66.28" y2="64.95"/>
				<line class="st4" x1="65.41" y1="65.8" x2="66.28" y2="65.8"/>
				<line class="st4" x1="65.41" y1="66.66" x2="66.28" y2="66.66"/>
				<line class="st4" x1="65.41" y1="67.51" x2="66.28" y2="67.51"/>
				<line class="st4" x1="62.93" y1="47.08" x2="63.8" y2="47.08"/>
				<line class="st4" x1="62.93" y1="47.93" x2="63.8" y2="47.93"/>
				<line class="st4" x1="62.93" y1="48.78" x2="63.8" y2="48.78"/>
				<line class="st4" x1="62.93" y1="49.63" x2="63.8" y2="49.63"/>
				<line class="st4" x1="62.93" y1="45.38" x2="63.8" y2="45.38"/>
				<line class="st4" x1="62.93" y1="46.23" x2="63.8" y2="46.23"/>
				<line class="st4" x1="62.93" y1="50.48" x2="63.8" y2="50.48"/>
				<line class="st4" x1="62.93" y1="51.33" x2="63.8" y2="51.33"/>
				<line class="st4" x1="62.93" y1="52.19" x2="63.8" y2="52.19"/>
				<line class="st4" x1="62.93" y1="53.04" x2="63.8" y2="53.04"/>
				<line class="st4" x1="62.93" y1="53.89" x2="63.8" y2="53.89"/>
				<line class="st4" x1="62.93" y1="54.74" x2="63.8" y2="54.74"/>
				<line class="st4" x1="62.93" y1="55.59" x2="63.8" y2="55.59"/>
				<line class="st4" x1="62.93" y1="56.44" x2="63.8" y2="56.44"/>
				<line class="st4" x1="62.93" y1="57.29" x2="63.8" y2="57.29"/>
				<line class="st4" x1="62.93" y1="58.14" x2="63.8" y2="58.14"/>
				<line class="st4" x1="62.93" y1="58.99" x2="63.8" y2="58.99"/>
				<line class="st4" x1="62.93" y1="59.85" x2="63.8" y2="59.85"/>
				<line class="st4" x1="62.93" y1="60.7" x2="63.8" y2="60.7"/>
				<line class="st4" x1="62.93" y1="61.55" x2="63.8" y2="61.55"/>
				<line class="st4" x1="62.93" y1="62.4" x2="63.8" y2="62.4"/>
				<line class="st4" x1="62.93" y1="63.25" x2="63.8" y2="63.25"/>
				<line class="st4" x1="62.93" y1="64.1" x2="63.8" y2="64.1"/>
				<line class="st4" x1="62.93" y1="64.95" x2="63.8" y2="64.95"/>
				<line class="st4" x1="62.93" y1="65.8" x2="63.8" y2="65.8"/>
				<line class="st4" x1="62.93" y1="66.66" x2="63.8" y2="66.66"/>
				<line class="st4" x1="62.93" y1="67.51" x2="63.8" y2="67.51"/>
				<line class="st5" x1="61.95" y1="47.08" x2="62.38" y2="47.08"/>
				<line class="st5" x1="61.95" y1="47.93" x2="62.38" y2="47.93"/>
				<line class="st5" x1="61.95" y1="48.78" x2="62.38" y2="48.78"/>
				<line class="st5" x1="61.95" y1="49.63" x2="62.38" y2="49.63"/>
				<line class="st5" x1="61.95" y1="45.38" x2="62.38" y2="45.38"/>
				<line class="st5" x1="61.95" y1="46.23" x2="62.38" y2="46.23"/>
				<line class="st5" x1="61.95" y1="50.48" x2="62.38" y2="50.48"/>
				<line class="st5" x1="61.95" y1="51.33" x2="62.38" y2="51.33"/>
				<line class="st5" x1="61.95" y1="52.19" x2="62.38" y2="52.19"/>
				<line class="st5" x1="61.95" y1="53.04" x2="62.38" y2="53.04"/>
				<line class="st5" x1="61.95" y1="53.89" x2="62.38" y2="53.89"/>
				<line class="st5" x1="61.95" y1="54.74" x2="62.38" y2="54.74"/>
				<line class="st5" x1="61.95" y1="55.59" x2="62.38" y2="55.59"/>
				<line class="st5" x1="61.95" y1="56.44" x2="62.38" y2="56.44"/>
				<line class="st5" x1="61.95" y1="57.29" x2="62.38" y2="57.29"/>
				<line class="st5" x1="61.95" y1="58.14" x2="62.38" y2="58.14"/>
				<line class="st5" x1="61.95" y1="58.99" x2="62.38" y2="58.99"/>
				<line class="st5" x1="61.95" y1="59.85" x2="62.38" y2="59.85"/>
				<line class="st5" x1="61.95" y1="60.7" x2="62.38" y2="60.7"/>
				<line class="st5" x1="61.95" y1="61.55" x2="62.38" y2="61.55"/>
				<line class="st5" x1="61.95" y1="62.4" x2="62.38" y2="62.4"/>
				<line class="st5" x1="61.95" y1="63.25" x2="62.38" y2="63.25"/>
				<line class="st5" x1="61.95" y1="64.1" x2="62.38" y2="64.1"/>
				<line class="st5" x1="61.95" y1="64.95" x2="62.38" y2="64.95"/>
				<line class="st5" x1="61.95" y1="65.8" x2="62.38" y2="65.8"/>
				<line class="st5" x1="61.95" y1="66.66" x2="62.38" y2="66.66"/>
				<line class="st5" x1="61.95" y1="67.51" x2="62.38" y2="67.51"/>
				<line class="st5" x1="64.36" y1="47.08" x2="64.78" y2="47.08"/>
				<line class="st5" x1="64.36" y1="47.93" x2="64.78" y2="47.93"/>
				<line class="st5" x1="64.36" y1="48.78" x2="64.78" y2="48.78"/>
				<line class="st5" x1="64.36" y1="49.63" x2="64.78" y2="49.63"/>
				<line class="st5" x1="64.36" y1="45.38" x2="64.78" y2="45.38"/>
				<line class="st5" x1="64.36" y1="46.23" x2="64.78" y2="46.23"/>
				<line class="st5" x1="64.36" y1="50.48" x2="64.78" y2="50.48"/>
				<line class="st5" x1="64.36" y1="51.33" x2="64.78" y2="51.33"/>
				<line class="st5" x1="64.36" y1="52.19" x2="64.78" y2="52.19"/>
				<line class="st5" x1="64.36" y1="53.04" x2="64.78" y2="53.04"/>
				<line class="st5" x1="64.36" y1="53.89" x2="64.78" y2="53.89"/>
				<line class="st5" x1="64.36" y1="54.74" x2="64.78" y2="54.74"/>
				<line class="st5" x1="64.36" y1="55.59" x2="64.78" y2="55.59"/>
				<line class="st5" x1="64.36" y1="56.44" x2="64.78" y2="56.44"/>
				<line class="st5" x1="64.36" y1="57.29" x2="64.78" y2="57.29"/>
				<line class="st5" x1="64.36" y1="58.14" x2="64.78" y2="58.14"/>
				<line class="st5" x1="64.36" y1="58.99" x2="64.78" y2="58.99"/>
				<line class="st5" x1="64.36" y1="59.85" x2="64.78" y2="59.85"/>
				<line class="st5" x1="64.36" y1="60.7" x2="64.78" y2="60.7"/>
				<line class="st5" x1="64.36" y1="61.55" x2="64.78" y2="61.55"/>
				<line class="st5" x1="64.36" y1="62.4" x2="64.78" y2="62.4"/>
				<line class="st5" x1="64.36" y1="63.25" x2="64.78" y2="63.25"/>
				<line class="st5" x1="64.36" y1="64.1" x2="64.78" y2="64.1"/>
				<line class="st5" x1="64.36" y1="64.95" x2="64.78" y2="64.95"/>
				<line class="st5" x1="64.36" y1="65.8" x2="64.78" y2="65.8"/>
				<line class="st5" x1="64.36" y1="66.66" x2="64.78" y2="66.66"/>
				<line class="st5" x1="64.36" y1="67.51" x2="64.78" y2="67.51"/>
				<line class="st5" x1="60.93" y1="44.04" x2="60.93" y2="40.6"/>
				<line class="st5" x1="60.93" y1="40.3" x2="60.93" y2="39.84"/>
				<line class="st5" x1="65.85" y1="44.04" x2="65.85" y2="40.6"/>
				<line class="st5" x1="65.85" y1="40.3" x2="65.85" y2="39.84"/>
				<line class="st5" x1="62.16" y1="43.43" x2="64.57" y2="43.43"/>
				<line class="st4" x1="62.16" y1="42.83" x2="64.57" y2="42.83"/>
				<line class="st5" x1="62.16" y1="42.23" x2="64.57" y2="42.23"/>
				<line class="st4" x1="62.16" y1="41.63" x2="64.57" y2="41.63"/>
				<line class="st5" x1="62.16" y1="41.02" x2="64.57" y2="41.02"/>
				<line class="st4" x1="62.55" y1="40.42" x2="64.18" y2="40.42"/>
				<line class="st5" x1="65.85" y1="44.04" x2="65.85" y2="46.22"/>
				<line class="st5" x1="60.93" y1="44.04" x2="60.93" y2="46.23"/>
			</g>
		</g>
		<g>
			<g>
				<g>
					<path class="st1" d="M44.1,69.53c-0.34,0-0.61-0.28-0.61-0.61v-1.17c0-0.34,0.28-0.62,0.61-0.62h0.74V64.1
						c0-0.29,0.2-0.53,0.46-0.6V61.3c0-0.34,0.28-0.62,0.61-0.62h0.32v-0.36c0-0.34,0.28-0.61,0.61-0.61h0.17V41.26
						c0-0.34,0.28-0.61,0.61-0.61h0.6v-1.22c0-0.34,0.28-0.61,0.61-0.61h0.12c0.03-0.11,0.09-0.21,0.17-0.29
						c0.73-0.69,1.32-3.44,1.32-6.13c0-0.18,0.08-0.35,0.21-0.46v-3.52c0-0.26,0.21-0.47,0.47-0.47h0.29c0.26,0,0.47,0.21,0.47,0.47
						v3.52c0.13,0.11,0.21,0.27,0.21,0.45c0,2.69,0.59,5.44,1.32,6.13c0.09,0.08,0.14,0.18,0.17,0.29h0.12
						c0.34,0,0.61,0.28,0.61,0.61v1.22h0.6c0.34,0,0.61,0.28,0.61,0.61v18.46h0.17c0.34,0,0.61,0.28,0.61,0.61v0.36h0.32
						c0.34,0,0.61,0.28,0.61,0.62v2.21c0.27,0.07,0.46,0.31,0.46,0.6v3.03h0.74c0.34,0,0.61,0.28,0.61,0.62v1.17
						c0,0.34-0.28,0.61-0.61,0.61H44.1z"/>
					<path class="st1" d="M51.42,28.41v3.83h0.06c0.08,0,0.14,0.06,0.14,0.14c0,2.46,0.51,5.57,1.46,6.48l0,0
						c0.03,0.03,0.04,0.06,0.04,0.1v0.32h0.58c0.08,0,0.14,0.06,0.14,0.14v1.69h1.07c0.08,0,0.14,0.06,0.14,0.14v2.45v15.9v0.58
						h0.64c0.08,0,0.14,0.06,0.14,0.14v0.83h0.79c0.08,0,0.14,0.06,0.14,0.14v2.66h0.32c0.08,0,0.14,0.06,0.14,0.14v3.51h1.21
						c0.08,0,0.14,0.06,0.14,0.14v1.16c0,0.08-0.06,0.14-0.14,0.14H44.1c-0.08,0-0.14-0.06-0.14-0.14v-1.16
						c0-0.08,0.06-0.14,0.14-0.14h1.21V64.1c0-0.08,0.06-0.14,0.14-0.14h0.32V61.3c0-0.08,0.06-0.14,0.14-0.14h0.79v-0.83
						c0-0.08,0.06-0.14,0.14-0.14h0.64v-0.58v-15.9v-2.45c0-0.08,0.06-0.14,0.14-0.14h1.07v-1.69c0-0.08,0.06-0.14,0.14-0.14h0.58
						v-0.32c0-0.04,0.02-0.08,0.04-0.1l0,0c0.95-0.9,1.46-4.01,1.46-6.48c0-0.08,0.06-0.14,0.14-0.14h0.06v-3.83H51.42 M51.42,27.46
						h-0.29c-0.52,0-0.94,0.42-0.94,0.94v3.34c-0.13,0.18-0.21,0.4-0.21,0.64c0,2.76-0.62,5.27-1.17,5.79
						c-0.06,0.06-0.11,0.12-0.15,0.18c-0.51,0.09-0.91,0.53-0.91,1.07v0.75h-0.13c-0.6,0-1.09,0.49-1.09,1.09v2.45v15.58
						c-0.42,0.12-0.73,0.49-0.78,0.94c-0.53,0.07-0.94,0.53-0.94,1.08v1.91c-0.28,0.2-0.46,0.52-0.46,0.89v2.56H44.1
						c-0.6,0-1.09,0.49-1.09,1.09v1.16c0,0.6,0.49,1.09,1.09,1.09h14.36c0.6,0,1.09-0.49,1.09-1.09v-1.16c0-0.6-0.49-1.09-1.09-1.09
						h-0.27V64.1c0-0.37-0.18-0.69-0.46-0.89V61.3c0-0.55-0.41-1-0.94-1.08c-0.04-0.45-0.36-0.82-0.78-0.94V43.71v-2.45
						c0-0.6-0.49-1.09-1.09-1.09H54.8v-0.75c0-0.54-0.39-0.99-0.91-1.07c-0.04-0.06-0.09-0.12-0.15-0.18
						c-0.55-0.53-1.17-3.03-1.17-5.79c0-0.24-0.08-0.46-0.21-0.64v-3.34C52.36,27.89,51.94,27.46,51.42,27.46L51.42,27.46z"/>
				</g>
				<g>
					<path class="st1" d="M51.13,28.43c-0.13,0-0.24-0.11-0.24-0.24v-0.5c0-0.13,0.11-0.24,0.24-0.24h0.29
						c0.13,0,0.24,0.11,0.24,0.24v0.5c0,0.13-0.11,0.24-0.24,0.24H51.13z"/>
					<path class="st1" d="M51.42,27.69v0.5h-0.29v-0.5H51.42 M51.42,27.22h-0.29c-0.26,0-0.47,0.21-0.47,0.47v0.5
						c0,0.26,0.21,0.47,0.47,0.47h0.29c0.26,0,0.47-0.21,0.47-0.47v-0.5C51.89,27.43,51.68,27.22,51.42,27.22L51.42,27.22z"/>
				</g>
			</g>
			<g>
				<polyline class="st4" points="49.34,67.75 49.34,64.1 45.45,64.1 45.45,67.75 46.28,67.75 48.53,67.75 54.02,67.75 55.56,67.75 
					57.1,67.75 57.1,64.1 53.21,64.1 53.21,67.75 				"/>
				<rect x="45.91" y="61.3" class="st4" width="3.43" height="2.8"/>
				<rect x="46.84" y="60.33" class="st4" width="2.5" height="0.97"/>
				<rect x="53.21" y="60.33" class="st4" width="2.5" height="0.97"/>
				<rect x="53.21" y="61.3" class="st4" width="3.43" height="2.8"/>
				<rect x="53.21" y="41.26" class="st4" width="1.71" height="2.45"/>
				<rect x="48.84" y="39.43" class="st4" width="4.87" height="1.83"/>
				<rect x="49.56" y="38.96" class="st4" width="3.43" height="0.46"/>
				<rect x="47.63" y="41.26" class="st4" width="1.71" height="2.45"/>
				<polyline class="st4" points="47.63,60.33 47.63,59.61 54.92,59.61 54.92,60.33 				"/>
				<rect x="44.1" y="67.75" class="st4" width="14.36" height="1.16"/>
				<rect x="47.63" y="43.71" class="st4" width="1.71" height="15.9"/>
				<rect x="53.21" y="43.71" class="st4" width="1.71" height="15.9"/>
				<path class="st4" d="M49.56,38.96c1.05-0.99,1.51-4.3,1.51-6.58h0.41c0,2.28,0.46,5.59,1.51,6.58"/>
				<line class="st5" x1="51.28" y1="32.38" x2="51.28" y2="28.41"/>
				<line class="st5" x1="51.28" y1="28.19" x2="51.28" y2="27.69"/>
				<line class="st4" x1="48.48" y1="41.88" x2="48.48" y2="43.16"/>
				<line class="st4" x1="54.07" y1="41.88" x2="54.07" y2="43.16"/>
				<line class="st4" x1="49.66" y1="40.15" x2="49.66" y2="41.26"/>
				<line class="st4" x1="50.28" y1="40.15" x2="50.28" y2="41.26"/>
				<line class="st5" x1="50.9" y1="40.15" x2="50.9" y2="41.26"/>
				<line class="st5" x1="51.52" y1="40.15" x2="51.52" y2="41.26"/>
				<line class="st4" x1="52.14" y1="40.15" x2="52.14" y2="41.26"/>
				<line class="st4" x1="52.76" y1="40.15" x2="52.76" y2="41.26"/>
				<line class="st2" x1="49.99" y1="42.07" x2="50.29" y2="42.07"/>
				<line class="st2" x1="51.13" y1="42.07" x2="51.42" y2="42.07"/>
				<line class="st2" x1="52.26" y1="42.07" x2="52.56" y2="42.07"/>
				<line class="st2" x1="49.99" y1="42.97" x2="50.29" y2="42.97"/>
				<line class="st2" x1="51.13" y1="42.97" x2="51.42" y2="42.97"/>
				<line class="st2" x1="52.26" y1="42.97" x2="52.56" y2="42.97"/>
				<line class="st2" x1="49.99" y1="43.88" x2="50.29" y2="43.88"/>
				<line class="st2" x1="51.13" y1="43.88" x2="51.42" y2="43.88"/>
				<line class="st2" x1="52.26" y1="43.88" x2="52.56" y2="43.88"/>
				<line class="st2" x1="49.99" y1="44.78" x2="50.29" y2="44.78"/>
				<line class="st2" x1="51.13" y1="44.78" x2="51.42" y2="44.78"/>
				<line class="st2" x1="52.26" y1="44.78" x2="52.56" y2="44.78"/>
				<line class="st2" x1="49.99" y1="45.69" x2="50.29" y2="45.69"/>
				<line class="st2" x1="51.13" y1="45.69" x2="51.42" y2="45.69"/>
				<line class="st2" x1="52.26" y1="45.69" x2="52.56" y2="45.69"/>
				<line class="st2" x1="49.99" y1="46.6" x2="50.29" y2="46.6"/>
				<line class="st2" x1="51.13" y1="46.6" x2="51.42" y2="46.6"/>
				<line class="st2" x1="52.26" y1="46.6" x2="52.56" y2="46.6"/>
				<line class="st2" x1="49.99" y1="47.5" x2="50.29" y2="47.5"/>
				<line class="st2" x1="51.13" y1="47.5" x2="51.42" y2="47.5"/>
				<line class="st2" x1="52.26" y1="47.5" x2="52.56" y2="47.5"/>
				<line class="st2" x1="49.99" y1="48.41" x2="50.29" y2="48.41"/>
				<line class="st2" x1="51.13" y1="48.41" x2="51.42" y2="48.41"/>
				<line class="st2" x1="52.26" y1="48.41" x2="52.56" y2="48.41"/>
				<line class="st2" x1="49.99" y1="49.31" x2="50.29" y2="49.31"/>
				<line class="st2" x1="51.13" y1="49.31" x2="51.42" y2="49.31"/>
				<line class="st2" x1="52.26" y1="49.31" x2="52.56" y2="49.31"/>
				<line class="st2" x1="49.99" y1="50.22" x2="50.29" y2="50.22"/>
				<line class="st2" x1="51.13" y1="50.22" x2="51.42" y2="50.22"/>
				<line class="st2" x1="52.26" y1="50.22" x2="52.56" y2="50.22"/>
				<line class="st2" x1="49.99" y1="51.12" x2="50.29" y2="51.12"/>
				<line class="st2" x1="51.13" y1="51.12" x2="51.42" y2="51.12"/>
				<line class="st2" x1="52.26" y1="51.12" x2="52.56" y2="51.12"/>
				<line class="st2" x1="49.99" y1="52.03" x2="50.29" y2="52.03"/>
				<line class="st2" x1="51.13" y1="52.03" x2="51.42" y2="52.03"/>
				<line class="st2" x1="52.26" y1="52.03" x2="52.56" y2="52.03"/>
				<line class="st2" x1="49.99" y1="52.94" x2="50.29" y2="52.94"/>
				<line class="st2" x1="51.13" y1="52.94" x2="51.42" y2="52.94"/>
				<line class="st2" x1="52.26" y1="52.94" x2="52.56" y2="52.94"/>
				<line class="st2" x1="49.99" y1="53.84" x2="50.29" y2="53.84"/>
				<line class="st2" x1="51.13" y1="53.84" x2="51.42" y2="53.84"/>
				<line class="st2" x1="52.26" y1="53.84" x2="52.56" y2="53.84"/>
				<line class="st2" x1="49.99" y1="54.75" x2="50.29" y2="54.75"/>
				<line class="st2" x1="51.13" y1="54.75" x2="51.42" y2="54.75"/>
				<line class="st2" x1="52.26" y1="54.75" x2="52.56" y2="54.75"/>
				<line class="st2" x1="49.99" y1="55.65" x2="50.29" y2="55.65"/>
				<line class="st2" x1="51.13" y1="55.65" x2="51.42" y2="55.65"/>
				<line class="st2" x1="52.26" y1="55.65" x2="52.56" y2="55.65"/>
				<line class="st2" x1="49.99" y1="56.56" x2="50.29" y2="56.56"/>
				<line class="st2" x1="51.13" y1="56.56" x2="51.42" y2="56.56"/>
				<line class="st2" x1="52.26" y1="56.56" x2="52.56" y2="56.56"/>
				<line class="st2" x1="49.99" y1="57.47" x2="50.29" y2="57.47"/>
				<line class="st2" x1="51.13" y1="57.47" x2="51.42" y2="57.47"/>
				<line class="st2" x1="52.26" y1="57.47" x2="52.56" y2="57.47"/>
				<line class="st2" x1="49.99" y1="58.37" x2="50.29" y2="58.37"/>
				<line class="st2" x1="51.13" y1="58.37" x2="51.42" y2="58.37"/>
				<line class="st2" x1="51.13" y1="63.33" x2="51.42" y2="63.33"/>
				<line class="st2" x1="51.13" y1="64.1" x2="51.42" y2="64.1"/>
				<line class="st2" x1="51.13" y1="64.87" x2="51.42" y2="64.87"/>
				<line class="st2" x1="51.13" y1="65.65" x2="51.42" y2="65.65"/>
				<line class="st2" x1="52.26" y1="58.37" x2="52.56" y2="58.37"/>
				<line class="st3" x1="48.78" y1="59.61" x2="48.78" y2="48.52"/>
				<line class="st3" x1="48.24" y1="59.61" x2="48.24" y2="50.99"/>
				<line class="st2" x1="48.78" y1="47.98" x2="48.78" y2="47.65"/>
				<line class="st2" x1="48.78" y1="47.16" x2="48.78" y2="46.83"/>
				<line class="st2" x1="48.78" y1="46.34" x2="48.78" y2="46.01"/>
				<line class="st2" x1="48.78" y1="45.53" x2="48.78" y2="45.2"/>
				<line class="st2" x1="48.78" y1="44.71" x2="48.78" y2="44.38"/>
				<line class="st2" x1="48.24" y1="47.98" x2="48.24" y2="47.65"/>
				<line class="st2" x1="48.24" y1="47.16" x2="48.24" y2="46.83"/>
				<line class="st2" x1="48.24" y1="46.34" x2="48.24" y2="46.01"/>
				<line class="st2" x1="48.24" y1="50.49" x2="48.24" y2="50.16"/>
				<line class="st2" x1="48.24" y1="49.67" x2="48.24" y2="49.34"/>
				<line class="st2" x1="48.24" y1="48.85" x2="48.24" y2="48.52"/>
				<line class="st2" x1="48.24" y1="45.53" x2="48.24" y2="45.2"/>
				<line class="st2" x1="48.24" y1="44.71" x2="48.24" y2="44.38"/>
				<line class="st3" x1="53.8" y1="59.61" x2="53.8" y2="48.52"/>
				<line class="st3" x1="54.33" y1="59.61" x2="54.33" y2="50.99"/>
				<line class="st2" x1="53.8" y1="47.98" x2="53.8" y2="47.65"/>
				<line class="st2" x1="53.8" y1="47.16" x2="53.8" y2="46.83"/>
				<line class="st2" x1="53.8" y1="46.34" x2="53.8" y2="46.01"/>
				<line class="st2" x1="53.8" y1="45.53" x2="53.8" y2="45.2"/>
				<line class="st2" x1="53.8" y1="44.71" x2="53.8" y2="44.38"/>
				<line class="st2" x1="54.33" y1="47.98" x2="54.33" y2="47.65"/>
				<line class="st2" x1="54.33" y1="47.16" x2="54.33" y2="46.83"/>
				<line class="st2" x1="54.33" y1="46.34" x2="54.33" y2="46.01"/>
				<line class="st2" x1="54.33" y1="50.49" x2="54.33" y2="50.16"/>
				<line class="st2" x1="54.33" y1="49.67" x2="54.33" y2="49.34"/>
				<line class="st2" x1="54.33" y1="48.85" x2="54.33" y2="48.52"/>
				<line class="st2" x1="54.33" y1="45.53" x2="54.33" y2="45.2"/>
				<line class="st2" x1="54.33" y1="44.71" x2="54.33" y2="44.38"/>
				<line class="st2" x1="50.14" y1="59.61" x2="50.14" y2="64.76"/>
				<line class="st2" x1="51.28" y1="59.61" x2="51.28" y2="62.63"/>
				<line class="st2" x1="52.41" y1="59.61" x2="52.41" y2="66.51"/>
				<line class="st2" x1="46.17" y1="64.87" x2="48.58" y2="64.87"/>
				<line class="st3" x1="46.17" y1="65.64" x2="48.58" y2="65.64"/>
				<line class="st2" x1="46.17" y1="66.42" x2="48.58" y2="66.42"/>
				<line class="st2" x1="53.94" y1="64.87" x2="56.36" y2="64.87"/>
				<line class="st3" x1="53.94" y1="65.64" x2="56.36" y2="65.64"/>
				<line class="st2" x1="53.94" y1="66.42" x2="56.36" y2="66.42"/>
				<line class="st2" x1="48.26" y1="62.04" x2="48.26" y2="63.33"/>
				<line class="st2" x1="47.49" y1="62.04" x2="47.49" y2="63.33"/>
				<line class="st2" x1="46.71" y1="62.04" x2="46.71" y2="63.33"/>
				<line class="st2" x1="55.84" y1="62.04" x2="55.84" y2="63.33"/>
				<line class="st2" x1="55.07" y1="62.04" x2="55.07" y2="63.33"/>
				<line class="st2" x1="54.29" y1="62.04" x2="54.29" y2="63.33"/>
				<line class="st3" x1="49.34" y1="42.52" x2="53.21" y2="42.52"/>
				<line class="st3" x1="49.34" y1="43.43" x2="53.21" y2="43.43"/>
				<line class="st3" x1="49.34" y1="44.35" x2="53.21" y2="44.35"/>
				<line class="st3" x1="49.34" y1="45.27" x2="53.21" y2="45.27"/>
				<line class="st3" x1="49.34" y1="46.13" x2="53.21" y2="46.13"/>
				<line class="st3" x1="49.34" y1="47.07" x2="53.21" y2="47.07"/>
				<line class="st3" x1="49.34" y1="47.93" x2="53.21" y2="47.93"/>
				<line class="st3" x1="49.34" y1="48.87" x2="53.21" y2="48.87"/>
				<line class="st3" x1="49.34" y1="49.74" x2="53.21" y2="49.74"/>
				<line class="st3" x1="49.34" y1="50.68" x2="53.21" y2="50.68"/>
				<line class="st3" x1="49.34" y1="51.54" x2="53.21" y2="51.54"/>
				<line class="st3" x1="49.34" y1="52.48" x2="53.21" y2="52.48"/>
				<line class="st3" x1="49.34" y1="53.34" x2="53.21" y2="53.34"/>
				<line class="st3" x1="49.34" y1="54.28" x2="53.21" y2="54.28"/>
				<line class="st3" x1="49.34" y1="55.15" x2="53.21" y2="55.15"/>
				<line class="st3" x1="49.34" y1="56.09" x2="53.21" y2="56.09"/>
				<line class="st3" x1="49.34" y1="56.95" x2="53.21" y2="56.95"/>
				<line class="st3" x1="49.34" y1="57.89" x2="53.21" y2="57.89"/>
				<line class="st3" x1="49.34" y1="58.75" x2="53.21" y2="58.75"/>
				<line class="st3" x1="51.82" y1="59.61" x2="51.82" y2="65.4"/>
				<line class="st3" x1="50.67" y1="59.61" x2="50.67" y2="61.88"/>
				<line class="st3" x1="45.45" y1="67.12" x2="49.34" y2="67.12"/>
				<line class="st3" x1="53.21" y1="67.12" x2="57.1" y2="67.12"/>
				<line class="st3" x1="50.14" y1="65.47" x2="50.14" y2="67.75"/>
				<line class="st3" x1="52.41" y1="66.94" x2="52.41" y2="67.75"/>
				<path class="st3" d="M52.03,38.96c-0.75-2.51-0.72-5.44-0.72-6.53"/>
				<path class="st3" d="M50.54,38.96c0.75-2.51,0.72-5.44,0.72-6.53"/>
			</g>
		</g>
		<g>
			<g>
				<g>
					<path class="st1" d="M34.83,69.53c-0.34,0-0.61-0.28-0.61-0.61V31.29c0-0.25,0.15-0.47,0.37-0.57l0.53-0.22v-1.43
						c0-0.34,0.28-0.61,0.61-0.61h1.87L37.72,26c0.01-0.3,0.24-0.54,0.52-0.58v-4.97c0-0.34,0.28-0.61,0.61-0.61
						s0.61,0.28,0.61,0.61v4.97C39.77,25.46,39.99,25.7,40,26l0.12,2.46h1.92c0.34,0,0.61,0.28,0.61,0.61v1.43l0.53,0.22
						c0.23,0.1,0.38,0.32,0.38,0.57v37.62c0,0.34-0.28,0.61-0.61,0.61H34.83z"/>
					<path class="st1" d="M38.86,20.3c0.08,0,0.14,0.06,0.14,0.14v5.43h0.38c0.08,0,0.14,0.06,0.14,0.14l0.14,2.91h2.37
						c0.08,0,0.14,0.06,0.14,0.14v1.74l0.82,0.35c0.05,0.02,0.09,0.07,0.09,0.13v36.76v0.87c0,0.08-0.06,0.14-0.14,0.14h-8.1
						c-0.08,0-0.14-0.06-0.14-0.14v-0.87V31.29c0-0.06,0.03-0.11,0.09-0.13l0.81-0.35v-1.74c0-0.08,0.06-0.14,0.14-0.14h2.32
						l0.14-2.91c0-0.08,0.07-0.14,0.14-0.14h0.38v-5.43C38.72,20.37,38.78,20.3,38.86,20.3 M38.86,19.36c-0.6,0-1.09,0.49-1.09,1.09
						v4.65c-0.3,0.18-0.51,0.5-0.52,0.88l-0.09,2.02h-1.42c-0.6,0-1.09,0.49-1.09,1.09v1.12l-0.24,0.1c-0.4,0.17-0.66,0.56-0.66,1
						v36.76v0.87c0,0.6,0.49,1.09,1.09,1.09h8.1c0.6,0,1.09-0.49,1.09-1.09v-0.87V31.29c0-0.44-0.26-0.83-0.66-1l-0.24-0.1v-1.11
						c0-0.6-0.49-1.09-1.09-1.09h-1.47l-0.09-2.02c-0.02-0.38-0.22-0.7-0.52-0.88v-4.65C39.95,19.85,39.46,19.36,38.86,19.36
						L38.86,19.36z"/>
				</g>
				<g>
					<path class="st1" d="M38.86,20.23c-0.21,0-0.38-0.17-0.38-0.38v-0.38c0-0.21,0.17-0.38,0.38-0.38s0.38,0.17,0.38,0.38v0.38
						C39.24,20.06,39.07,20.23,38.86,20.23z"/>
					<path class="st1" d="M38.86,19.33c0.08,0,0.14,0.06,0.14,0.14v0.38c0,0.08-0.06,0.14-0.14,0.14c-0.08,0-0.14-0.06-0.14-0.14
						v-0.38C38.72,19.39,38.78,19.33,38.86,19.33 M38.86,18.85c-0.34,0-0.61,0.28-0.61,0.61v0.38c0,0.34,0.28,0.61,0.61,0.61
						c0.34,0,0.61-0.28,0.61-0.61v-0.38C39.48,19.13,39.2,18.85,38.86,18.85L38.86,18.85z"/>
				</g>
			</g>
			<g>
				<polygon class="st6" points="42.94,31.29 38.89,29.58 34.83,31.29 34.83,68.91 42.94,68.91 				"/>
				<polyline class="st6" points="42.03,30.91 42.03,29.08 35.74,29.08 35.74,30.91 				"/>
				<polygon class="st6" points="39.39,26.02 38.34,26.02 38.2,29.08 39.53,29.08 				"/>
				<line class="st7" x1="38.86" y1="26.02" x2="38.86" y2="20.45"/>
				<line class="st7" x1="38.86" y1="19.85" x2="38.86" y2="19.47"/>
				<rect x="34.83" y="68.05" class="st6" width="8.1" height="0.87"/>
				<polyline class="st6" points="34.83,61.56 38.89,29.58 42.94,61.56 				"/>
				<line class="st6" x1="34.83" y1="61.56" x2="42.94" y2="61.56"/>
				<line class="st6" x1="34.83" y1="60.42" x2="42.94" y2="60.42"/>
				<line class="st6" x1="35.12" y1="59.28" x2="42.65" y2="59.28"/>
				<line class="st6" x1="35.27" y1="58.13" x2="42.5" y2="58.13"/>
				<line class="st6" x1="35.41" y1="56.99" x2="42.36" y2="56.99"/>
				<line class="st6" x1="35.6" y1="55.84" x2="42.17" y2="55.84"/>
				<line class="st6" x1="35.76" y1="54.7" x2="42.01" y2="54.7"/>
				<line class="st6" x1="35.9" y1="53.55" x2="41.88" y2="53.55"/>
				<line class="st6" x1="36.04" y1="52.41" x2="41.73" y2="52.41"/>
				<line class="st6" x1="36.2" y1="51.27" x2="41.57" y2="51.27"/>
				<line class="st6" x1="36.33" y1="50.12" x2="41.45" y2="50.12"/>
				<line class="st6" x1="36.44" y1="48.98" x2="41.33" y2="48.98"/>
				<line class="st6" x1="36.6" y1="47.83" x2="41.17" y2="47.83"/>
				<line class="st6" x1="36.76" y1="46.69" x2="41.02" y2="46.69"/>
				<line class="st6" x1="36.92" y1="45.54" x2="40.86" y2="45.54"/>
				<line class="st6" x1="37.06" y1="44.4" x2="40.71" y2="44.4"/>
				<line class="st6" x1="37.22" y1="43.26" x2="40.55" y2="43.26"/>
				<line class="st6" x1="37.37" y1="42.11" x2="40.4" y2="42.11"/>
				<line class="st6" x1="37.52" y1="40.97" x2="40.26" y2="40.97"/>
				<line class="st6" x1="37.65" y1="39.82" x2="40.12" y2="39.82"/>
				<line class="st6" x1="37.8" y1="38.68" x2="39.97" y2="38.68"/>
				<line class="st6" x1="37.92" y1="37.53" x2="39.86" y2="37.53"/>
				<line class="st6" x1="38.04" y1="36.39" x2="39.73" y2="36.39"/>
				<line class="st6" x1="38.2" y1="35.25" x2="39.57" y2="35.25"/>
				<line class="st6" x1="38.31" y1="34.1" x2="39.46" y2="34.1"/>
				<line class="st6" x1="38.48" y1="32.96" x2="39.29" y2="32.96"/>
				<line class="st6" x1="38.65" y1="31.81" x2="39.12" y2="31.81"/>
				<line class="st7" x1="35.74" y1="29.48" x2="42.03" y2="29.48"/>
				<line class="st2" x1="35.6" y1="62.59" x2="36" y2="62.59"/>
				<line class="st2" x1="36.49" y1="62.59" x2="36.88" y2="62.59"/>
				<line class="st2" x1="37.37" y1="62.59" x2="37.77" y2="62.59"/>
				<line class="st2" x1="38.25" y1="62.59" x2="38.65" y2="62.59"/>
				<line class="st2" x1="39.13" y1="62.59" x2="39.53" y2="62.59"/>
				<line class="st2" x1="40.01" y1="62.59" x2="40.41" y2="62.59"/>
				<line class="st2" x1="40.9" y1="62.59" x2="41.29" y2="62.59"/>
				<line class="st2" x1="41.78" y1="62.59" x2="42.18" y2="62.59"/>
				<line class="st2" x1="35.6" y1="63.3" x2="36" y2="63.3"/>
				<line class="st2" x1="36.49" y1="63.3" x2="36.88" y2="63.3"/>
				<line class="st2" x1="37.37" y1="63.3" x2="37.77" y2="63.3"/>
				<line class="st2" x1="38.25" y1="63.3" x2="38.65" y2="63.3"/>
				<line class="st2" x1="39.13" y1="63.3" x2="39.53" y2="63.3"/>
				<line class="st2" x1="40.01" y1="63.3" x2="40.41" y2="63.3"/>
				<line class="st2" x1="40.9" y1="63.3" x2="41.29" y2="63.3"/>
				<line class="st2" x1="41.78" y1="63.3" x2="42.18" y2="63.3"/>
				<line class="st2" x1="35.6" y1="64.02" x2="36" y2="64.02"/>
				<line class="st2" x1="36.49" y1="64.02" x2="36.88" y2="64.02"/>
				<line class="st2" x1="37.37" y1="64.02" x2="37.77" y2="64.02"/>
				<line class="st2" x1="38.25" y1="64.02" x2="38.65" y2="64.02"/>
				<line class="st2" x1="39.13" y1="64.02" x2="39.53" y2="64.02"/>
				<line class="st2" x1="40.01" y1="64.02" x2="40.41" y2="64.02"/>
				<line class="st2" x1="40.9" y1="64.02" x2="41.29" y2="64.02"/>
				<line class="st2" x1="41.78" y1="64.02" x2="42.18" y2="64.02"/>
				<line class="st2" x1="35.6" y1="64.73" x2="36" y2="64.73"/>
				<line class="st2" x1="36.49" y1="64.73" x2="36.88" y2="64.73"/>
				<line class="st2" x1="37.37" y1="64.73" x2="37.77" y2="64.73"/>
				<line class="st2" x1="38.25" y1="64.73" x2="38.65" y2="64.73"/>
				<line class="st2" x1="39.13" y1="64.73" x2="39.53" y2="64.73"/>
				<line class="st2" x1="40.01" y1="64.73" x2="40.41" y2="64.73"/>
				<line class="st2" x1="40.9" y1="64.73" x2="41.29" y2="64.73"/>
				<line class="st2" x1="41.78" y1="64.73" x2="42.18" y2="64.73"/>
				<line class="st2" x1="35.6" y1="65.45" x2="36" y2="65.45"/>
				<line class="st2" x1="36.49" y1="65.45" x2="36.88" y2="65.45"/>
				<line class="st2" x1="37.37" y1="65.45" x2="37.77" y2="65.45"/>
				<line class="st2" x1="38.25" y1="65.45" x2="38.65" y2="65.45"/>
				<line class="st2" x1="39.13" y1="65.45" x2="39.53" y2="65.45"/>
				<line class="st2" x1="40.01" y1="65.45" x2="40.41" y2="65.45"/>
				<line class="st2" x1="40.9" y1="65.45" x2="41.29" y2="65.45"/>
				<line class="st2" x1="41.78" y1="65.45" x2="42.18" y2="65.45"/>
				<line class="st2" x1="35.6" y1="66.17" x2="36" y2="66.17"/>
				<line class="st2" x1="36.49" y1="66.17" x2="36.88" y2="66.17"/>
				<line class="st2" x1="37.37" y1="66.17" x2="37.77" y2="66.17"/>
				<line class="st2" x1="38.25" y1="66.17" x2="38.65" y2="66.17"/>
				<line class="st2" x1="39.13" y1="66.17" x2="39.53" y2="66.17"/>
				<line class="st2" x1="40.01" y1="66.17" x2="40.41" y2="66.17"/>
				<line class="st2" x1="40.9" y1="66.17" x2="41.29" y2="66.17"/>
				<line class="st2" x1="41.78" y1="66.17" x2="42.18" y2="66.17"/>
				<line class="st2" x1="35.6" y1="66.88" x2="36" y2="66.88"/>
				<line class="st2" x1="36.49" y1="66.88" x2="36.88" y2="66.88"/>
				<line class="st2" x1="37.37" y1="66.88" x2="37.77" y2="66.88"/>
				<line class="st2" x1="38.25" y1="66.88" x2="38.65" y2="66.88"/>
				<line class="st2" x1="39.13" y1="66.88" x2="39.53" y2="66.88"/>
				<line class="st2" x1="40.01" y1="66.88" x2="40.41" y2="66.88"/>
				<line class="st2" x1="40.9" y1="66.88" x2="41.29" y2="66.88"/>
				<line class="st2" x1="41.78" y1="66.88" x2="42.18" y2="66.88"/>
				<line class="st5" x1="42.5" y1="31.11" x2="42.5" y2="58.13"/>
				<line class="st5" x1="35.27" y1="31.11" x2="35.27" y2="58.13"/>
				<line class="st5" x1="34.9" y1="61.01" x2="42.87" y2="61.01"/>
				<line class="st5" x1="35.05" y1="59.82" x2="42.72" y2="59.82"/>
				<line class="st5" x1="35.27" y1="58.66" x2="42.5" y2="58.66"/>
				<line class="st5" x1="35.34" y1="57.54" x2="42.43" y2="57.54"/>
				<line class="st5" x1="35.49" y1="56.41" x2="42.29" y2="56.41"/>
				<line class="st5" x1="35.63" y1="55.27" x2="42.15" y2="55.27"/>
				<line class="st5" x1="35.83" y1="54.12" x2="41.94" y2="54.12"/>
				<line class="st5" x1="35.92" y1="52.97" x2="41.85" y2="52.97"/>
				<line class="st5" x1="36.07" y1="51.83" x2="41.71" y2="51.83"/>
				<line class="st5" x1="36.2" y1="50.7" x2="41.57" y2="50.7"/>
				<line class="st5" x1="36.36" y1="49.53" x2="41.41" y2="49.53"/>
				<line class="st5" x1="36.5" y1="48.41" x2="41.27" y2="48.41"/>
				<line class="st5" x1="36.65" y1="47.25" x2="41.13" y2="47.25"/>
				<line class="st5" x1="36.85" y1="46.11" x2="40.92" y2="46.11"/>
				<line class="st5" x1="36.94" y1="44.96" x2="40.84" y2="44.96"/>
				<line class="st5" x1="37.08" y1="43.81" x2="40.69" y2="43.81"/>
				<line class="st5" x1="37.22" y1="42.69" x2="40.55" y2="42.69"/>
				<line class="st5" x1="37.37" y1="41.54" x2="40.4" y2="41.54"/>
				<line class="st5" x1="37.52" y1="40.39" x2="40.26" y2="40.39"/>
				<line class="st5" x1="37.66" y1="39.24" x2="40.11" y2="39.24"/>
				<line class="st5" x1="37.81" y1="38.1" x2="39.97" y2="38.1"/>
				<line class="st5" x1="37.95" y1="36.98" x2="39.82" y2="36.98"/>
				<line class="st5" x1="38.09" y1="35.83" x2="39.68" y2="35.83"/>
				<line class="st5" x1="38.24" y1="34.68" x2="39.53" y2="34.68"/>
				<line class="st5" x1="38.38" y1="33.56" x2="39.39" y2="33.56"/>
				<line class="st5" x1="38.53" y1="32.41" x2="39.25" y2="32.41"/>
				<polygon class="st7" points="39.01,26.02 38.71,26.02 38.67,29.08 39.05,29.08 				"/>
				<line class="st7" x1="34.83" y1="68.48" x2="42.94" y2="68.48"/>
			</g>
		</g>
		<g>
			<g>
				<path class="st1" d="M13.88,69.56c-0.26,0-0.47-0.21-0.47-0.47V46.6c0-0.19,0.11-0.36,0.28-0.43c0.06-0.03,0.13-0.04,0.19-0.04
					c0.12,0,0.23,0.04,0.32,0.12l5.31,4.85c0.1,0.09,0.15,0.21,0.15,0.35v17.64c0,0.26-0.21,0.47-0.47,0.47H13.88z"/>
				<path class="st1" d="M13.88,46.6l5.31,4.85v17.64h-5.31V46.6 M13.88,45.65c-0.13,0-0.26,0.03-0.38,0.08
					c-0.34,0.15-0.56,0.49-0.56,0.86v22.49c0,0.52,0.42,0.94,0.94,0.94h5.31c0.52,0,0.94-0.42,0.94-0.94V51.45
					c0-0.26-0.11-0.52-0.31-0.7l-5.31-4.85C14.34,45.74,14.11,45.65,13.88,45.65L13.88,45.65z"/>
			</g>
			<g>
				<polygon class="st2" points="19.03,51.52 14.04,46.95 14.04,68.93 19.03,68.93 				"/>
				<line class="st2" x1="14.66" y1="67.07" x2="15.55" y2="67.07"/>
				<line class="st2" x1="16.09" y1="67.07" x2="16.98" y2="67.07"/>
				<line class="st2" x1="17.52" y1="67.07" x2="18.41" y2="67.07"/>
				<line class="st2" x1="14.66" y1="65.94" x2="15.55" y2="65.94"/>
				<line class="st2" x1="16.09" y1="65.94" x2="16.98" y2="65.94"/>
				<line class="st2" x1="17.52" y1="65.94" x2="18.41" y2="65.94"/>
				<line class="st2" x1="14.66" y1="64.81" x2="15.55" y2="64.81"/>
				<line class="st2" x1="16.09" y1="64.81" x2="16.98" y2="64.81"/>
				<line class="st2" x1="17.52" y1="64.81" x2="18.41" y2="64.81"/>
				<line class="st2" x1="14.66" y1="63.67" x2="15.55" y2="63.67"/>
				<line class="st2" x1="16.09" y1="63.67" x2="16.98" y2="63.67"/>
				<line class="st2" x1="17.52" y1="63.67" x2="18.41" y2="63.67"/>
				<line class="st2" x1="14.66" y1="62.54" x2="15.55" y2="62.54"/>
				<line class="st2" x1="16.09" y1="62.54" x2="16.98" y2="62.54"/>
				<line class="st2" x1="17.52" y1="62.54" x2="18.41" y2="62.54"/>
				<line class="st2" x1="14.66" y1="61.4" x2="15.55" y2="61.4"/>
				<line class="st2" x1="16.09" y1="61.4" x2="16.98" y2="61.4"/>
				<line class="st2" x1="17.52" y1="61.4" x2="18.41" y2="61.4"/>
				<line class="st2" x1="14.66" y1="60.27" x2="15.55" y2="60.27"/>
				<line class="st2" x1="16.09" y1="60.27" x2="16.98" y2="60.27"/>
				<line class="st2" x1="17.52" y1="60.27" x2="18.41" y2="60.27"/>
				<line class="st2" x1="14.66" y1="59.14" x2="15.55" y2="59.14"/>
				<line class="st2" x1="16.09" y1="59.14" x2="16.98" y2="59.14"/>
				<line class="st2" x1="17.52" y1="59.14" x2="18.41" y2="59.14"/>
				<line class="st2" x1="14.66" y1="58" x2="15.55" y2="58"/>
				<line class="st2" x1="16.09" y1="58" x2="16.98" y2="58"/>
				<line class="st2" x1="17.52" y1="58" x2="18.41" y2="58"/>
				<line class="st2" x1="14.66" y1="56.87" x2="15.55" y2="56.87"/>
				<line class="st2" x1="16.09" y1="56.87" x2="16.98" y2="56.87"/>
				<line class="st2" x1="17.52" y1="56.87" x2="18.41" y2="56.87"/>
				<line class="st2" x1="14.66" y1="55.73" x2="15.55" y2="55.73"/>
				<line class="st2" x1="16.09" y1="55.73" x2="16.98" y2="55.73"/>
				<line class="st2" x1="17.52" y1="55.73" x2="18.41" y2="55.73"/>
				<line class="st2" x1="14.66" y1="54.6" x2="15.55" y2="54.6"/>
				<line class="st2" x1="16.09" y1="54.6" x2="16.98" y2="54.6"/>
				<line class="st2" x1="17.52" y1="54.6" x2="18.41" y2="54.6"/>
				<line class="st2" x1="14.66" y1="53.47" x2="15.55" y2="53.47"/>
				<line class="st2" x1="16.09" y1="53.47" x2="16.98" y2="53.47"/>
				<line class="st2" x1="17.52" y1="53.47" x2="18.41" y2="53.47"/>
				<line class="st2" x1="14.66" y1="52.33" x2="15.55" y2="52.33"/>
				<line class="st2" x1="16.09" y1="52.33" x2="16.98" y2="52.33"/>
				<line class="st2" x1="14.66" y1="51.2" x2="15.55" y2="51.2"/>
				<line class="st3" x1="14.04" y1="66.52" x2="19.03" y2="66.52"/>
				<line class="st3" x1="14.04" y1="67.56" x2="19.03" y2="67.56"/>
				<line class="st3" x1="14.04" y1="68.49" x2="19.03" y2="68.49"/>
				<line class="st3" x1="14.04" y1="65.38" x2="19.03" y2="65.38"/>
				<line class="st3" x1="14.04" y1="64.22" x2="19.03" y2="64.22"/>
				<line class="st3" x1="14.04" y1="63.07" x2="19.03" y2="63.07"/>
				<line class="st3" x1="14.04" y1="61.96" x2="19.03" y2="61.96"/>
				<line class="st3" x1="14.04" y1="60.82" x2="19.03" y2="60.82"/>
				<line class="st3" x1="14.04" y1="59.71" x2="19.03" y2="59.71"/>
				<line class="st3" x1="14.04" y1="58.52" x2="19.03" y2="58.52"/>
				<line class="st3" x1="14.04" y1="57.46" x2="19.03" y2="57.46"/>
				<line class="st3" x1="14.04" y1="56.31" x2="19.03" y2="56.31"/>
				<line class="st3" x1="14.04" y1="55.16" x2="19.03" y2="55.16"/>
				<line class="st3" x1="14.04" y1="54.06" x2="19.03" y2="54.06"/>
				<line class="st3" x1="14.04" y1="52.89" x2="19.03" y2="52.89"/>
				<line class="st3" x1="14.04" y1="51.74" x2="19.03" y2="51.74"/>
			</g>
		</g>
		<g>
			<g>
				<path class="st1" d="M99.82,69.56c-0.26,0-0.47-0.21-0.47-0.47v-2.16c0-0.26,0.21-0.47,0.47-0.47h0.48v-7.17h-0.48
					c-0.26,0-0.47-0.21-0.47-0.47v-0.17h-0.2c-0.26,0-0.47-0.21-0.47-0.47v-0.82c0-0.21,0.14-0.39,0.34-0.45l8.15-2.45
					c0.04-0.01,0.09-0.02,0.14-0.02c0.04,0,0.09,0.01,0.13,0.02l8.25,2.45c0.2,0.06,0.34,0.24,0.34,0.45v0.82
					c0,0.26-0.21,0.47-0.47,0.47h-0.2v0.17c0,0.26-0.21,0.47-0.47,0.47h-0.39v7.17h0.39c0.26,0,0.47,0.21,0.47,0.47v2.16
					c0,0.26-0.21,0.47-0.47,0.47H99.82z"/>
				<path class="st1" d="M107.3,54.91l8.25,2.45v0.82h-0.67v0.64h-0.86v8.11h0.86v2.16H99.82v-2.16h0.95v-8.11h-0.95v-0.64h-0.67
					v-0.82l0.1-0.03L107.3,54.91 M107.3,53.96c-0.09,0-0.18,0.01-0.27,0.04l-8.05,2.42l-0.1,0.03c-0.4,0.12-0.67,0.49-0.67,0.9v0.82
					c0,0.44,0.3,0.81,0.71,0.91c0.12,0.39,0.48,0.67,0.9,0.67h0.01v6.22h-0.01c-0.52,0-0.94,0.42-0.94,0.94v2.16
					c0,0.52,0.42,0.94,0.94,0.94h15.06c0.52,0,0.94-0.42,0.94-0.94v-2.16c0-0.49-0.38-0.9-0.86-0.94v-6.23
					c0.39-0.03,0.71-0.3,0.82-0.66c0.41-0.1,0.71-0.47,0.71-0.91v-0.82c0-0.42-0.27-0.79-0.67-0.9L107.57,54
					C107.48,53.98,107.39,53.96,107.3,53.96L107.3,53.96z"/>
			</g>
			<g>
				<rect x="99.96" y="67.07" class="st2" width="14.78" height="1.87"/>
				<rect x="99.96" y="58.04" class="st2" width="14.78" height="0.64"/>
				<rect x="100.91" y="58.68" class="st2" width="1.05" height="8.39"/>
				<rect x="103.89" y="58.68" class="st2" width="1.05" height="8.39"/>
				<rect x="106.87" y="58.68" class="st2" width="1.05" height="8.39"/>
				<rect x="109.85" y="58.68" class="st2" width="1.05" height="8.39"/>
				<rect x="112.83" y="58.68" class="st2" width="1.05" height="8.39"/>
				<polygon class="st2" points="115.41,57.46 107.3,55.06 99.29,57.46 99.29,58.04 115.41,58.04 				"/>
				<line class="st2" x1="99.29" y1="57.46" x2="115.41" y2="57.46"/>
				<polyline class="st3" points="101.62,57.46 107.31,55.77 113.07,57.46 				"/>
				<rect x="113.18" y="58.68" class="st3" width="0.36" height="8.39"/>
				<rect x="110.2" y="58.68" class="st3" width="0.36" height="8.39"/>
				<rect x="107.22" y="58.68" class="st3" width="0.36" height="8.39"/>
				<rect x="104.24" y="58.68" class="st3" width="0.36" height="8.39"/>
				<rect x="101.26" y="58.68" class="st3" width="0.36" height="8.39"/>
				<line class="st3" x1="99.96" y1="68.14" x2="114.74" y2="68.14"/>
				<line class="st3" x1="99.96" y1="68.43" x2="114.74" y2="68.43"/>
			</g>
		</g>
		<g>
			<g>
				<path class="st1" d="M23.46,69.56c-0.26,0-0.47-0.21-0.47-0.47V51.98c0-0.26,0.21-0.47,0.47-0.47h0.75V45.2
					c0-0.26,0.21-0.47,0.47-0.47h0.59v-4.71c0-0.26,0.21-0.47,0.47-0.47h0.06v-3.49c0-0.26,0.21-0.47,0.47-0.47h0.52v-1.04
					c0-0.26,0.21-0.47,0.47-0.47h1.5c0.26,0,0.47,0.21,0.47,0.47v1.04h0.52c0.26,0,0.47,0.21,0.47,0.47v3.49h0.06
					c0.26,0,0.47,0.21,0.47,0.47v4.71h0.59c0.26,0,0.47,0.21,0.47,0.47v6.31h0.75c0.26,0,0.47,0.21,0.47,0.47v17.11
					c0,0.26-0.21,0.47-0.47,0.47H23.46z"/>
				<path class="st1" d="M28.77,34.55v1.51h0.99v3.96h0.53v5.18h1.07v6.78h0.32h0.9v17.11h-0.9h-0.32h-1.1h-0.96h-1.1h-0.27h-1.1
					h-1.06h-1.1h-0.32h-0.89V51.98h0.89h0.32V45.2h1.07v-5.18h0.53v-3.96h0.99v-1.51H28.77 M28.77,33.61h-1.5
					c-0.52,0-0.94,0.42-0.94,0.94v0.57h-0.05c-0.52,0-0.94,0.42-0.94,0.94v3.11c-0.32,0.15-0.53,0.48-0.53,0.85v4.24h-0.12
					c-0.52,0-0.94,0.42-0.94,0.94v5.84h-0.28c-0.52,0-0.94,0.42-0.94,0.94v17.11c0,0.52,0.42,0.94,0.94,0.94h0.89h0.32h1.1h1.06h1.1
					h0.27h1.1h0.96h1.1h0.32h0.9c0.52,0,0.94-0.42,0.94-0.94V51.98c0-0.52-0.42-0.94-0.94-0.94h-0.28V45.2
					c0-0.52-0.42-0.94-0.94-0.94h-0.12v-4.24c0-0.37-0.22-0.7-0.53-0.85v-3.11c0-0.52-0.42-0.94-0.94-0.94h-0.05v-0.57
					C29.72,34.03,29.29,33.61,28.77,33.61L28.77,33.61z"/>
			</g>
			<g>
				<rect x="23.6" y="52.12" class="st2" width="8.84" height="16.83"/>
				<rect x="24.82" y="45.34" class="st2" width="6.4" height="6.78"/>
				<rect x="25.89" y="40.16" class="st2" width="4.27" height="5.18"/>
				<rect x="26.42" y="36.2" class="st2" width="3.2" height="3.96"/>
				<rect x="27.41" y="34.69" class="st2" width="1.22" height="1.51"/>
				<line class="st3" x1="26.42" y1="36.6" x2="29.62" y2="36.6"/>
				<line class="st2" x1="27.05" y1="37.32" x2="27.05" y2="38.6"/>
				<line class="st2" x1="27.05" y1="38.92" x2="27.05" y2="39.38"/>
				<line class="st2" x1="27.53" y1="37.32" x2="27.53" y2="38.6"/>
				<line class="st2" x1="27.53" y1="38.92" x2="27.53" y2="39.38"/>
				<line class="st2" x1="28" y1="37.32" x2="28" y2="38.6"/>
				<line class="st2" x1="28" y1="38.92" x2="28" y2="39.38"/>
				<line class="st2" x1="28.48" y1="37.32" x2="28.48" y2="38.6"/>
				<line class="st2" x1="28.48" y1="38.92" x2="28.48" y2="39.38"/>
				<line class="st2" x1="28.96" y1="37.32" x2="28.96" y2="38.6"/>
				<line class="st2" x1="28.96" y1="38.92" x2="28.96" y2="39.38"/>
				<line class="st2" x1="26.42" y1="40.79" x2="27.18" y2="40.79"/>
				<line class="st2" x1="27.62" y1="40.79" x2="28.38" y2="40.79"/>
				<line class="st2" x1="28.82" y1="40.79" x2="29.58" y2="40.79"/>
				<line class="st2" x1="26.42" y1="41.34" x2="27.18" y2="41.34"/>
				<line class="st2" x1="27.62" y1="41.34" x2="28.38" y2="41.34"/>
				<line class="st2" x1="28.82" y1="41.34" x2="29.58" y2="41.34"/>
				<line class="st2" x1="26.42" y1="41.89" x2="27.18" y2="41.89"/>
				<line class="st2" x1="27.62" y1="41.89" x2="28.38" y2="41.89"/>
				<line class="st2" x1="28.82" y1="41.89" x2="29.58" y2="41.89"/>
				<line class="st2" x1="26.42" y1="42.45" x2="27.18" y2="42.45"/>
				<line class="st2" x1="27.62" y1="42.45" x2="28.38" y2="42.45"/>
				<line class="st2" x1="28.82" y1="42.45" x2="29.58" y2="42.45"/>
				<line class="st2" x1="26.42" y1="43" x2="27.18" y2="43"/>
				<line class="st2" x1="27.62" y1="43" x2="28.38" y2="43"/>
				<line class="st2" x1="28.82" y1="43" x2="29.58" y2="43"/>
				<line class="st2" x1="26.42" y1="43.55" x2="27.18" y2="43.55"/>
				<line class="st2" x1="27.62" y1="43.55" x2="28.38" y2="43.55"/>
				<line class="st2" x1="28.82" y1="43.55" x2="29.58" y2="43.55"/>
				<line class="st2" x1="26.42" y1="44.1" x2="27.18" y2="44.1"/>
				<line class="st2" x1="27.62" y1="44.1" x2="28.38" y2="44.1"/>
				<line class="st2" x1="28.82" y1="44.1" x2="29.58" y2="44.1"/>
				<line class="st2" x1="26.42" y1="44.66" x2="27.18" y2="44.66"/>
				<line class="st2" x1="27.62" y1="44.66" x2="28.38" y2="44.66"/>
				<line class="st2" x1="28.82" y1="44.66" x2="29.58" y2="44.66"/>
				<line class="st2" x1="25.72" y1="46.14" x2="25.72" y2="46.84"/>
				<line class="st2" x1="26.65" y1="46.14" x2="26.65" y2="46.84"/>
				<line class="st2" x1="27.58" y1="46.14" x2="27.58" y2="46.84"/>
				<line class="st2" x1="28.52" y1="46.14" x2="28.52" y2="46.84"/>
				<line class="st2" x1="29.45" y1="46.14" x2="29.45" y2="46.84"/>
				<line class="st2" x1="30.38" y1="46.14" x2="30.38" y2="46.84"/>
				<line class="st2" x1="25.72" y1="47.26" x2="25.72" y2="47.97"/>
				<line class="st2" x1="26.65" y1="47.26" x2="26.65" y2="47.97"/>
				<line class="st2" x1="27.58" y1="47.26" x2="27.58" y2="47.97"/>
				<line class="st2" x1="28.52" y1="47.26" x2="28.52" y2="47.97"/>
				<line class="st2" x1="29.45" y1="47.26" x2="29.45" y2="47.97"/>
				<line class="st2" x1="30.38" y1="47.26" x2="30.38" y2="47.97"/>
				<line class="st2" x1="25.72" y1="48.39" x2="25.72" y2="49.09"/>
				<line class="st2" x1="26.65" y1="48.39" x2="26.65" y2="49.09"/>
				<line class="st2" x1="27.58" y1="48.39" x2="27.58" y2="49.09"/>
				<line class="st2" x1="28.52" y1="48.39" x2="28.52" y2="49.09"/>
				<line class="st2" x1="29.45" y1="48.39" x2="29.45" y2="49.09"/>
				<line class="st2" x1="30.38" y1="48.39" x2="30.38" y2="49.09"/>
				<line class="st2" x1="25.72" y1="49.51" x2="25.72" y2="50.22"/>
				<line class="st2" x1="26.65" y1="49.51" x2="26.65" y2="50.22"/>
				<line class="st2" x1="27.58" y1="49.51" x2="27.58" y2="50.22"/>
				<line class="st2" x1="28.52" y1="49.51" x2="28.52" y2="50.22"/>
				<line class="st2" x1="29.45" y1="49.51" x2="29.45" y2="50.22"/>
				<line class="st2" x1="30.38" y1="49.51" x2="30.38" y2="50.22"/>
				<line class="st2" x1="25.72" y1="50.63" x2="25.72" y2="51.34"/>
				<line class="st2" x1="26.65" y1="50.63" x2="26.65" y2="51.34"/>
				<line class="st2" x1="27.58" y1="50.63" x2="27.58" y2="51.34"/>
				<line class="st2" x1="28.52" y1="50.63" x2="28.52" y2="51.34"/>
				<line class="st2" x1="29.45" y1="50.63" x2="29.45" y2="51.34"/>
				<line class="st2" x1="30.38" y1="50.63" x2="30.38" y2="51.34"/>
				<line class="st2" x1="24.82" y1="53.15" x2="25.64" y2="53.15"/>
				<line class="st2" x1="24.82" y1="53.89" x2="25.64" y2="53.89"/>
				<line class="st2" x1="24.82" y1="54.63" x2="25.64" y2="54.63"/>
				<line class="st2" x1="24.82" y1="55.38" x2="25.64" y2="55.38"/>
				<line class="st2" x1="24.82" y1="56.12" x2="25.64" y2="56.12"/>
				<line class="st2" x1="30.41" y1="53.15" x2="31.22" y2="53.15"/>
				<line class="st2" x1="30.41" y1="53.89" x2="31.22" y2="53.89"/>
				<line class="st2" x1="30.41" y1="54.63" x2="31.22" y2="54.63"/>
				<line class="st2" x1="30.41" y1="55.38" x2="31.22" y2="55.38"/>
				<line class="st2" x1="30.41" y1="56.12" x2="31.22" y2="56.12"/>
				<line class="st2" x1="26.99" y1="53.15" x2="27.8" y2="53.15"/>
				<line class="st2" x1="26.99" y1="53.89" x2="27.8" y2="53.89"/>
				<line class="st2" x1="26.99" y1="54.63" x2="27.8" y2="54.63"/>
				<line class="st2" x1="26.99" y1="55.38" x2="27.8" y2="55.38"/>
				<line class="st2" x1="26.99" y1="56.12" x2="27.8" y2="56.12"/>
				<line class="st2" x1="28.35" y1="53.15" x2="29.16" y2="53.15"/>
				<line class="st2" x1="28.35" y1="53.89" x2="29.16" y2="53.89"/>
				<line class="st2" x1="28.35" y1="54.63" x2="29.16" y2="54.63"/>
				<line class="st2" x1="28.35" y1="55.38" x2="29.16" y2="55.38"/>
				<line class="st2" x1="28.35" y1="56.12" x2="29.16" y2="56.12"/>
				<line class="st2" x1="24.82" y1="58.04" x2="25.64" y2="58.04"/>
				<line class="st2" x1="24.82" y1="58.78" x2="25.64" y2="58.78"/>
				<line class="st2" x1="24.82" y1="59.52" x2="25.64" y2="59.52"/>
				<line class="st2" x1="24.82" y1="60.27" x2="25.64" y2="60.27"/>
				<line class="st2" x1="24.82" y1="61.01" x2="25.64" y2="61.01"/>
				<line class="st2" x1="30.41" y1="58.04" x2="31.22" y2="58.04"/>
				<line class="st2" x1="30.41" y1="58.78" x2="31.22" y2="58.78"/>
				<line class="st2" x1="30.41" y1="59.52" x2="31.22" y2="59.52"/>
				<line class="st2" x1="30.41" y1="60.27" x2="31.22" y2="60.27"/>
				<line class="st2" x1="30.41" y1="61.01" x2="31.22" y2="61.01"/>
				<line class="st2" x1="26.99" y1="58.04" x2="27.8" y2="58.04"/>
				<line class="st2" x1="26.99" y1="58.78" x2="27.8" y2="58.78"/>
				<line class="st2" x1="26.99" y1="59.52" x2="27.8" y2="59.52"/>
				<line class="st2" x1="26.99" y1="60.27" x2="27.8" y2="60.27"/>
				<line class="st2" x1="26.99" y1="61.01" x2="27.8" y2="61.01"/>
				<line class="st2" x1="28.35" y1="58.04" x2="29.16" y2="58.04"/>
				<line class="st2" x1="28.35" y1="58.78" x2="29.16" y2="58.78"/>
				<line class="st2" x1="28.35" y1="59.52" x2="29.16" y2="59.52"/>
				<line class="st2" x1="28.35" y1="60.27" x2="29.16" y2="60.27"/>
				<line class="st2" x1="28.35" y1="61.01" x2="29.16" y2="61.01"/>
				<line class="st2" x1="24.82" y1="62.93" x2="25.64" y2="62.93"/>
				<line class="st2" x1="24.82" y1="63.67" x2="25.64" y2="63.67"/>
				<line class="st2" x1="24.82" y1="64.42" x2="25.64" y2="64.42"/>
				<line class="st2" x1="24.82" y1="65.16" x2="25.64" y2="65.16"/>
				<line class="st2" x1="24.82" y1="65.9" x2="25.64" y2="65.9"/>
				<line class="st2" x1="30.41" y1="62.93" x2="31.22" y2="62.93"/>
				<line class="st2" x1="30.41" y1="63.67" x2="31.22" y2="63.67"/>
				<line class="st2" x1="30.41" y1="64.42" x2="31.22" y2="64.42"/>
				<line class="st2" x1="30.41" y1="65.16" x2="31.22" y2="65.16"/>
				<line class="st2" x1="30.41" y1="65.9" x2="31.22" y2="65.9"/>
				<line class="st2" x1="26.99" y1="62.93" x2="27.8" y2="62.93"/>
				<line class="st2" x1="26.99" y1="63.67" x2="27.8" y2="63.67"/>
				<line class="st2" x1="26.99" y1="64.42" x2="27.8" y2="64.42"/>
				<line class="st2" x1="26.99" y1="65.16" x2="27.8" y2="65.16"/>
				<line class="st2" x1="26.99" y1="65.9" x2="27.8" y2="65.9"/>
				<line class="st2" x1="28.35" y1="62.93" x2="29.16" y2="62.93"/>
				<line class="st2" x1="28.35" y1="63.67" x2="29.16" y2="63.67"/>
				<line class="st2" x1="28.35" y1="64.42" x2="29.16" y2="64.42"/>
				<line class="st2" x1="28.35" y1="65.16" x2="29.16" y2="65.16"/>
				<line class="st2" x1="28.35" y1="65.9" x2="29.16" y2="65.9"/>
				<rect x="23.6" y="52.12" class="st3" width="0.61" height="16.83"/>
				<rect x="26.3" y="52.12" class="st3" width="3.44" height="16.83"/>
				<rect x="31.83" y="52.12" class="st3" width="0.61" height="16.83"/>
				<rect x="24.82" y="66.76" class="st2" width="0.81" height="2.18"/>
				<rect x="26.99" y="66.76" class="st2" width="0.81" height="2.18"/>
				<rect x="28.35" y="66.76" class="st2" width="0.81" height="2.18"/>
				<rect x="30.41" y="66.76" class="st2" width="0.81" height="2.18"/>
				<rect x="27.78" y="34.69" class="st3" width="0.48" height="1.51"/>
				<line class="st3" x1="25.23" y1="66.76" x2="25.23" y2="68.93"/>
				<line class="st3" x1="27.39" y1="66.76" x2="27.39" y2="68.93"/>
				<line class="st3" x1="28.76" y1="66.76" x2="28.76" y2="68.93"/>
				<line class="st3" x1="30.81" y1="66.76" x2="30.81" y2="68.93"/>
				<line class="st3" x1="24.54" y1="57.07" x2="25.95" y2="57.07"/>
				<line class="st3" x1="30.11" y1="57.07" x2="31.52" y2="57.07"/>
				<line class="st3" x1="26.65" y1="57.07" x2="29.39" y2="57.07"/>
				<line class="st3" x1="24.54" y1="62.01" x2="25.95" y2="62.01"/>
				<line class="st3" x1="30.11" y1="62.01" x2="31.52" y2="62.01"/>
				<line class="st3" x1="26.65" y1="62.01" x2="29.39" y2="62.01"/>
			</g>
		</g>
		<g>
			<g>
				<path class="st1" d="M117.18,69.24c-0.13,0-0.24-0.11-0.24-0.24l0-1.13c-0.5-0.16-0.86-0.64-0.86-1.18
					c0-0.04,0.21-4.13,1.25-4.13c1.03,0,1.23,4.1,1.23,4.14c0,0.54-0.36,1.02-0.86,1.18l0,1.13c0,0.06-0.03,0.12-0.07,0.17
					c-0.04,0.04-0.1,0.07-0.17,0.07L117.18,69.24z"/>
				<path class="st1" d="M117.33,62.8C117.33,62.8,117.33,62.8,117.33,62.8c0.72,0,1,3.86,1,3.9c0,0.51-0.38,0.92-0.86,0.99l0,1.32
					l-0.29,0l0-1.32c-0.49-0.07-0.86-0.49-0.86-0.99C116.32,66.66,116.61,62.8,117.33,62.8 M117.33,62.33
					C117.33,62.33,117.33,62.33,117.33,62.33c-1.33,0-1.48,4.33-1.48,4.37c0,0.58,0.35,1.1,0.86,1.34l0,0.97
					c0,0.26,0.21,0.47,0.47,0.47l0.29,0c0,0,0,0,0,0c0.12,0,0.24-0.05,0.33-0.14c0.09-0.09,0.14-0.21,0.14-0.33l0-0.97
					c0.51-0.24,0.86-0.75,0.86-1.34C118.8,66.65,118.67,62.33,117.33,62.33L117.33,62.33z"/>
			</g>
			<g>
				<path class="st4" d="M118.19,66.7c0,0.48-0.39,0.86-0.86,0.86c-0.48,0-0.86-0.39-0.86-0.86c0-0.48,0.39-3.76,0.87-3.75
					C117.81,62.94,118.19,66.22,118.19,66.7z"/>
				<line class="st4" x1="117.32" y1="67.56" x2="117.32" y2="69.01"/>
			</g>
		</g>
		<g>
			<g>
				<path class="st1" d="M21.08,69.16c-0.06,0-0.12-0.03-0.17-0.07c-0.04-0.04-0.07-0.1-0.07-0.17l0-1.13
					c-0.5-0.16-0.86-0.64-0.86-1.18c0-0.57,0.43-1.9,1.24-1.9c0.37,0,0.69,0.27,0.94,0.78c0.18,0.36,0.29,0.81,0.29,1.12
					c0,0.54-0.36,1.02-0.86,1.18l0,1.13c0,0.13-0.11,0.24-0.24,0.24H21.08z"/>
				<path class="st1" d="M21.23,64.95C21.23,64.95,21.23,64.95,21.23,64.95c0.62,0,1,1.17,1,1.67c0,0.51-0.38,0.92-0.86,0.99l0,1.32
					l-0.29,0l0-1.32c-0.49-0.07-0.86-0.49-0.86-0.99C20.22,66.12,20.61,64.95,21.23,64.95 M21.23,64.48
					C21.23,64.48,21.23,64.48,21.23,64.48c-1.02,0-1.48,1.55-1.48,2.13c0,0.58,0.35,1.1,0.86,1.34l0,0.97
					c0,0.26,0.21,0.47,0.47,0.47l0.29,0c0,0,0,0,0,0c0.12,0,0.24-0.05,0.33-0.14c0.09-0.09,0.14-0.21,0.14-0.33l0-0.97
					c0.51-0.24,0.86-0.75,0.86-1.34c0-0.34-0.13-0.84-0.32-1.23C22.1,64.81,21.69,64.48,21.23,64.48L21.23,64.48z"/>
			</g>
			<g>
				<path class="st4" d="M22.09,66.62c0,0.48-0.39,0.86-0.86,0.86c-0.48,0-0.86-0.39-0.86-0.86c0-0.48,0.39-1.52,0.86-1.52
					C21.7,65.1,22.09,66.14,22.09,66.62z"/>
				<line class="st4" x1="21.23" y1="67.48" x2="21.22" y2="68.93"/>
			</g>
		</g>
		<line class="st4" x1="5.49" y1="68.95" x2="123.41" y2="68.95"/>
		<line class="st4" x1="123.41" y1="70.19" x2="5.49" y2="70.19"/>
		<g>
			<g>
				<g>
					<path class="st1" d="M78.48,73.68c-0.26,0-0.47-0.21-0.47-0.47v-1.23c0-0.26,0.21-0.47,0.47-0.47h0.7v-0.47
						c0-0.26,0.21-0.47,0.47-0.47h0.18V70.5c0-0.26,0.21-0.47,0.47-0.47h0.12v-2.09h-0.12c-0.26,0-0.47-0.21-0.47-0.47v-0.82
						c0-0.26,0.21-0.47,0.47-0.47h0.21l1.03-6.25l-0.78-4.39c-0.01-0.06-0.01-0.13,0-0.19c-0.15-0.43-0.33-1.15-0.29-2
						c-0.07-0.08-0.12-0.18-0.12-0.29c-0.32-0.22-0.52-0.63-0.52-1.1c0-0.29,0.08-0.56,0.21-0.77c-0.27-0.2-0.42-0.48-0.42-0.79
						v-0.14c0-0.26,0.21-0.47,0.47-0.47h2.33c0.26,0,0.47,0.21,0.47,0.47v0.14c0,0.38-0.23,0.71-0.62,0.92l-0.1,1.6l0.01,0.05
						c0.07-0.03,0.18-0.05,0.24-0.05c0.18,0,0.34,0.08,0.46,0.21l0.09,0.1l0.04-0.11c0.08-0.26,0.32-0.43,0.59-0.43
						c0.28,0,0.52,0.19,0.59,0.46l0.04,0.16l0.11-0.1c0.11-0.1,0.26-0.15,0.41-0.15c0.09,0,0.25,0.05,0.32,0.09
						c0.23,0.15,0.34,0.42,0.27,0.68c-0.03,0.11-0.06,0.23-0.09,0.34l0.14-0.01c0.27,0,0.49,0.15,0.59,0.37
						c0.1,0.23,0.05,0.5-0.13,0.68l-0.73,0.71c-0.05,0.04-0.1,0.08-0.15,0.11c-0.06,0.17-0.15,0.32-0.27,0.46l0.04,0.49l0.61,0.27
						c0.15,0.06,0.25,0.2,0.28,0.36l0.12,0.74l0.33-0.37c0.11-0.12,0.27-0.2,0.43-0.21c0,0,0,0,0,0c0.19,0,0.34,0.06,0.45,0.17
						l0.94,0.88c0.24,0.23,0.26,0.59,0.05,0.84l-0.15,0.18c0,0.01,0,0.03,0,0.04c0.01,0.24-0.07,0.48-0.22,0.68
						c-0.21,0.28-0.52,0.45-0.84,0.46l-0.01,0.01c-0.12,0.13-0.29,0.21-0.46,0.21c-0.02,0-0.05,0-0.08-0.01L87,66.18h0.2
						c0.26,0,0.47,0.21,0.47,0.47v0.82c0,0.26-0.21,0.47-0.47,0.47h-0.12v2.09h0.12c0.26,0,0.47,0.21,0.47,0.47v0.06h0.18
						c0.26,0,0.47,0.21,0.47,0.47v0.47h0.7c0.26,0,0.47,0.21,0.47,0.47v1.23c0,0.26-0.21,0.47-0.47,0.47H78.48z"/>
					<path class="st1" d="M82.44,50.26v0.14c0,0.26-0.24,0.48-0.6,0.59l-0.12,1.97l0.34,1.41c0.01,0,0.01,0,0.02,0
						c0.02,0,0.04,0,0.06,0.01l0.38,0.19l-0.21-1c-0.01-0.06,0.02-0.13,0.08-0.16c0.02-0.01,0.04-0.02,0.06-0.02
						c0.04,0,0.08,0.02,0.11,0.05l0.65,0.72c0.08-0.24,0.2-0.62,0.28-0.9c0.02-0.06,0.08-0.1,0.14-0.1c0.06,0,0.12,0.05,0.13,0.11
						l0.23,0.9l0.68-0.6c0.03-0.02,0.06-0.04,0.09-0.04c0.03,0,0.05,0.01,0.07,0.02c0.05,0.03,0.08,0.1,0.06,0.16
						c-0.09,0.36-0.19,0.75-0.23,0.96c0.18-0.01,0.48-0.02,0.76-0.03c0,0,0.01,0,0.01,0c0.06,0,0.11,0.03,0.13,0.09
						c0.02,0.05,0.01,0.12-0.03,0.16l-0.73,0.71c-0.03,0.03-0.06,0.04-0.1,0.04c-0.02,0-0.04,0-0.06-0.01
						c-0.02-0.01-0.04-0.02-0.05-0.04c-0.01,0.3-0.15,0.56-0.37,0.73l0.09,0.99l0.87,0.38l0.27,1.73l0.99-1.12
						c0.03-0.03,0.06-0.05,0.1-0.05c0,0,0.01,0,0.01,0c0.04,0,0.07,0.01,0.1,0.04l0.94,0.88c0.06,0.05,0.06,0.14,0.01,0.2l-0.3,0.35
						c0.02,0.06,0.04,0.12,0.04,0.18c0,0.13-0.04,0.27-0.13,0.39c-0.12,0.17-0.3,0.26-0.48,0.26c-0.06,0-0.11-0.01-0.16-0.03
						l-0.18,0.2c-0.03,0.03-0.07,0.05-0.11,0.05c-0.03,0-0.07-0.01-0.09-0.03l-0.63-0.54l1.01,6.46h0.61v0.82h-0.59v3.03h0.59v0.54
						h0.66v0.94h1.18v1.23H78.48v-1.23h1.18v-0.94h0.66V70.5h0.59v-3.03h-0.59v-0.82h0.61l1.11-6.73l-0.79-4.47c0,0,0,0,0,0
						l0.07-0.01c-0.15-0.37-0.46-1.3-0.33-2.41h-0.15l-0.02-0.28c-0.29-0.06-0.5-0.38-0.5-0.79c0-0.36,0.17-0.66,0.41-0.76L80.71,51
						c-0.36-0.11-0.6-0.33-0.6-0.59v-0.14H82.44 M82.44,49.32h-2.33c-0.52,0-0.94,0.42-0.94,0.94v0.14c0,0.33,0.11,0.64,0.32,0.89
						c-0.07,0.21-0.11,0.43-0.11,0.67c0,0.56,0.22,1.05,0.57,1.36c0.02,0.06,0.04,0.11,0.07,0.17c-0.01,0.78,0.15,1.45,0.29,1.9
						c0,0.07,0,0.15,0.01,0.22l0.76,4.31l-0.96,5.8c-0.43,0.09-0.75,0.47-0.75,0.92v0.82c0,0.4,0.24,0.73,0.59,0.87v1.28
						c-0.22,0.09-0.41,0.27-0.51,0.49c-0.42,0.09-0.74,0.47-0.74,0.92h-0.23c-0.52,0-0.94,0.42-0.94,0.94v1.23
						c0,0.52,0.42,0.94,0.94,0.94h10.55c0.52,0,0.94-0.42,0.94-0.94v-1.23c0-0.52-0.42-0.94-0.94-0.94H88.8
						c0-0.45-0.32-0.83-0.74-0.92c-0.1-0.22-0.28-0.4-0.51-0.49v-1.28c0.34-0.14,0.59-0.48,0.59-0.87v-0.82
						c0-0.45-0.32-0.83-0.74-0.92l-0.64-4.12c0.08-0.04,0.15-0.08,0.22-0.13c0.4-0.06,0.76-0.29,1.01-0.64
						c0.18-0.25,0.28-0.54,0.3-0.83l0.04-0.04c0.38-0.44,0.34-1.1-0.09-1.5L87.3,57.6c-0.2-0.19-0.46-0.29-0.74-0.29
						c-0.02,0-0.05,0-0.07,0c-0.14,0.01-0.27,0.04-0.4,0.1c-0.08-0.26-0.27-0.48-0.52-0.59l-0.36-0.16l0-0.03
						c0.06-0.09,0.11-0.18,0.16-0.28c0.04-0.03,0.07-0.06,0.1-0.09l0.73-0.71c0.32-0.31,0.42-0.8,0.24-1.21
						c-0.12-0.27-0.33-0.47-0.59-0.58c0.04-0.41-0.16-0.8-0.51-1.02c-0.17-0.1-0.37-0.16-0.57-0.16c-0.1,0-0.2,0.01-0.3,0.04
						c-0.2-0.25-0.5-0.4-0.82-0.41c-0.31,0-0.59,0.12-0.79,0.32c-0.05-0.02-0.11-0.04-0.16-0.05l0.06-0.89
						c0.4-0.29,0.63-0.71,0.63-1.19v-0.14C83.39,49.74,82.96,49.32,82.44,49.32L82.44,49.32z"/>
				</g>
				<g>
					<path class="st1" d="M81.28,50.45c-0.21,0-0.38-0.17-0.38-0.38v-0.53c0-0.21,0.17-0.38,0.38-0.38s0.38,0.17,0.38,0.38v0.53
						C81.66,50.28,81.49,50.45,81.28,50.45z"/>
					<path class="st1" d="M81.28,49.4c0.08,0,0.14,0.06,0.14,0.14v0.53c0,0.08-0.06,0.14-0.14,0.14c-0.08,0-0.14-0.06-0.14-0.14
						v-0.53C81.14,49.46,81.2,49.4,81.28,49.4 M81.28,48.92c-0.34,0-0.61,0.28-0.61,0.61v0.53c0,0.34,0.28,0.61,0.61,0.61
						c0.34,0,0.61-0.28,0.61-0.61v-0.53C81.89,49.2,81.62,48.92,81.28,48.92L81.28,48.92z"/>
				</g>
			</g>
			<g>
				<rect x="78.63" y="72.12" class="st2" width="10.27" height="0.94"/>
				<rect x="79.8" y="71.18" class="st2" width="7.91" height="0.94"/>
				<rect x="80.46" y="70.65" class="st2" width="6.6" height="0.54"/>
				<rect x="80.46" y="66.8" class="st2" width="6.6" height="0.54"/>
				<rect x="81.05" y="67.33" class="st2" width="5.43" height="3.32"/>
				<path class="st2" d="M81.05,66.8l1.14-6.87l-0.79-4.5c0.07,0.41,0.84,0.09,0.69-0.35l0.44,1.59l2.54,1.12l1.41,9.01"/>
				<path class="st2" d="M81.53,55.55c0,0-0.59-1.21-0.37-2.66h0.4l0.52,2.18"/>
				<polyline class="st2" points="80.88,51.41 80.86,51.04 81.7,51.04 81.58,52.89 80.98,52.89 80.97,52.72 				"/>
				<path class="st2" d="M80.92,51.31c0.25,0,0.45,0.29,0.45,0.66c0,0.36-0.2,0.66-0.45,0.66c-0.25,0-0.45-0.29-0.45-0.66
					C80.46,51.6,80.67,51.31,80.92,51.31"/>
				<path class="st2" d="M82.3,50.41c0,0.29-0.46,0.53-1.02,0.53c-0.56,0-1.02-0.24-1.02-0.53H82.3z"/>
				<path class="st2" d="M84.47,55.53c0,0.47-0.38,0.85-0.85,0.85c-0.47,0-0.85-0.38-0.85-0.85c0-0.47,0.38-0.85,0.85-0.85
					C84.09,54.69,84.47,55.07,84.47,55.53z"/>
				<line class="st2" x1="84.09" y1="56.29" x2="84.19" y2="57.4"/>
				<line class="st2" x1="83.2" y1="56.18" x2="83.13" y2="56.93"/>
				<path class="st7" d="M82.53,55.48c0-0.61,0.49-1.1,1.1-1.1s1.1,0.49,1.1,1.1l0.73-0.71c0,0-0.92,0.04-0.94,0.03
					c-0.02-0.01,0.27-1.14,0.27-1.14l-0.86,0.75l-0.29-1.12c0,0-0.33,1.07-0.36,1.14l-0.81-0.9l0.27,1.29l-0.64-0.32l0.14,0.6
					c0,0,0.31,0.39,0.31,0.36"/>
				<polyline class="st6" points="86.53,60.37 86.3,60.63 85.38,59.83 				"/>
				<polyline class="st6" points="85.37,59.73 86.56,58.39 87.5,59.27 87.14,59.7 				"/>
				<path class="st6" d="M87.11,60.21c-0.14,0.19-0.37,0.26-0.52,0.15c-0.15-0.11-0.16-0.35-0.02-0.54
					c0.14-0.19,0.37-0.26,0.52-0.16C87.24,59.77,87.25,60.01,87.11,60.21z"/>
				<polyline class="st6" points="81.45,64.35 83.62,63.13 84.47,57.52 				"/>
				<polyline class="st6" points="83.25,63.34 84.65,64.35 84.83,57.68 				"/>
				<line class="st6" x1="84.67" y1="63.54" x2="85.96" y2="63.78"/>
				<line class="st6" x1="84.09" y1="63.94" x2="82.71" y2="66.8"/>
				<line class="st7" x1="81.28" y1="49.8" x2="81.28" y2="49.27"/>
				<line class="st3" x1="84.67" y1="57.61" x2="84.26" y2="64.06"/>
				<line class="st3" x1="84.67" y1="57.61" x2="83.9" y2="63.88"/>
				<line class="st7" x1="81.57" y1="67.91" x2="84.38" y2="67.91"/>
				<line class="st7" x1="81.57" y1="68.33" x2="82.98" y2="68.33"/>
				<line class="st7" x1="79.53" y1="71.65" x2="87.99" y2="71.65"/>
				<line class="st7" x1="85.82" y1="65.62" x2="85.96" y2="66.8"/>
				<line class="st7" x1="85.09" y1="64.9" x2="85.13" y2="66.86"/>
				<line class="st7" x1="84.28" y1="65.53" x2="84.17" y2="66.8"/>
				<line class="st7" x1="82.71" y1="64.95" x2="82.1" y2="66.8"/>
				<line class="st7" x1="81.84" y1="65.62" x2="81.57" y2="66.8"/>
			</g>
		</g>
	</g>
</g>
</svg>
