<?xml version="1.0" encoding="utf-8"?>
<!-- Generator: Adobe Illustrator 24.3.0, SVG Export Plug-In . SVG Version: 6.00 Build 0)  -->
<svg version="1.1" xmlns="http://www.w3.org/2000/svg" xmlns:xlink="http://www.w3.org/1999/xlink" x="0px" y="0px"
	 viewBox="0 0 128 90" style="enable-background:new 0 0 128 90;" xml:space="preserve">
<style type="text/css">
	.st0{clip-path:url(#SVGID_2_);}
	.st1{fill:none;stroke:#1D1D1B;stroke-width:0.2795;stroke-miterlimit:10;}
</style>
<g id="Layer_1">
</g>
<g id="Layer_2">
	<g>
		<defs>
			<rect id="SVGID_1_" x="3.59" y="20.54" width="120.81" height="48.38"/>
		</defs>
		<clipPath id="SVGID_2_">
			<use xlink:href="#SVGID_1_"  style="overflow:visible;"/>
		</clipPath>
		<g id="buildings" class="st0">
			<g>
				<polygon class="st1" points="91.53,54.58 91.53,65.49 86.68,65.51 86.68,54.58 				"/>
				<path class="st1" d="M91.93,54.29c0,0.08-0.03,0.15-0.08,0.2c-0.05,0.05-0.12,0.08-0.2,0.08h-5.06c-0.16,0-0.29-0.13-0.29-0.29
					c0-0.08,0.03-0.15,0.08-0.2c0.05-0.05,0.12-0.08,0.2-0.08h5.06C91.8,54,91.93,54.13,91.93,54.29z"/>
				<path class="st1" d="M92.64,52.75c0,0.34-0.14,0.66-0.37,0.88c-0.13,0.13-0.28,0.23-0.45,0.29C91.68,53.97,91.54,54,91.39,54
					h-4.56c-0.15,0-0.29-0.03-0.43-0.08c-0.48-0.17-0.82-0.63-0.82-1.17c0-0.34,0.14-0.67,0.37-0.92c0.23-0.24,0.54-0.4,0.88-0.4
					h4.56c0.09,0,0.18,0.01,0.27,0.03C92.22,51.6,92.64,52.15,92.64,52.75z"/>
				<path class="st1" d="M93.22,48.02c0,0-0.04,0.03-0.1,0.08c-0.35,0.28-1.47,1.25-1.47,2.09v1.28c0,0.02,0,0.03,0,0.03h-5.09
					c0,0,0-0.33,0-1.31c0-0.84-1.12-1.81-1.47-2.09c-0.06-0.05-0.1-0.08-0.1-0.08H93.22z"/>
				<path class="st1" d="M93.64,47.69c0,0.09-0.04,0.17-0.1,0.23c-0.06,0.06-0.14,0.1-0.23,0.1h-8.39c-0.18,0-0.33-0.15-0.33-0.33
					c0-0.09,0.04-0.17,0.1-0.23c0.06-0.06,0.14-0.1,0.23-0.1h8.39C93.49,47.36,93.64,47.5,93.64,47.69z"/>
				<path class="st1" d="M94.88,46.23c-0.01,0.03-0.01,0.05-0.02,0.08c-0.23,0.72-0.88,0.95-1.26,1.02
					c-0.17,0.03-0.29,0.03-0.29,0.03h-8.39c0,0-0.12,0-0.29-0.03c-0.38-0.07-1.02-0.3-1.26-1.02c-0.01-0.03-0.02-0.05-0.02-0.08
					H94.88z"/>
				<path class="st1" d="M96.73,45.81c0,0.12-0.05,0.22-0.12,0.3c-0.08,0.08-0.18,0.12-0.3,0.12H81.92c-0.24,0-0.43-0.19-0.43-0.43
					c0-0.12,0.05-0.22,0.12-0.3c0.04-0.04,0.08-0.07,0.13-0.09c0.05-0.02,0.11-0.03,0.17-0.03H96.3c0.06,0,0.12,0.01,0.17,0.03
					C96.62,45.48,96.73,45.63,96.73,45.81z"/>
				<path class="st1" d="M99.32,41.78v0.29c0,0.2-0.13,0.36-0.31,0.41c-0.04,0.01-0.07,0.01-0.11,0.01H79.33
					c-0.23,0-0.43-0.19-0.43-0.43v-0.29c0-0.24,0.19-0.43,0.43-0.43h19.56C99.13,41.36,99.32,41.55,99.32,41.78z"/>
				<path class="st1" d="M98.62,42.5c0,0-0.01,0.06-0.03,0.16c-0.01,0.04-0.02,0.1-0.03,0.15c-0.01,0.04-0.02,0.08-0.03,0.13
					c-0.01,0.05-0.03,0.1-0.05,0.15c-0.01,0.04-0.03,0.09-0.04,0.13c-0.02,0.05-0.04,0.1-0.06,0.15c-0.02,0.04-0.03,0.09-0.05,0.13
					c-0.02,0.05-0.05,0.1-0.07,0.15c-0.02,0.04-0.04,0.09-0.07,0.13c-0.03,0.05-0.06,0.1-0.09,0.15c-0.03,0.04-0.06,0.09-0.09,0.13
					c-0.04,0.05-0.08,0.1-0.12,0.15c-0.04,0.05-0.08,0.09-0.12,0.13c-0.06,0.06-0.12,0.11-0.18,0.15c-0.07,0.05-0.14,0.09-0.21,0.13
					c-0.19,0.09-0.4,0.15-0.64,0.15h-7.62c0,0-0.01,0-0.01,0h-7.62c-0.24,0-0.46-0.06-0.64-0.15c-0.07-0.04-0.15-0.08-0.21-0.13
					c-0.06-0.05-0.12-0.1-0.18-0.15c-0.04-0.04-0.08-0.09-0.12-0.13c-0.04-0.05-0.08-0.1-0.12-0.15c-0.03-0.04-0.06-0.09-0.09-0.13
					c-0.03-0.05-0.06-0.1-0.09-0.15c-0.02-0.04-0.05-0.09-0.07-0.13c-0.03-0.05-0.05-0.1-0.07-0.15c-0.02-0.04-0.04-0.09-0.05-0.13
					c-0.02-0.05-0.04-0.1-0.06-0.15c-0.02-0.05-0.03-0.09-0.04-0.13c-0.02-0.05-0.03-0.11-0.05-0.15c-0.01-0.05-0.02-0.09-0.03-0.13
					c-0.01-0.06-0.03-0.11-0.03-0.15c-0.02-0.1-0.03-0.16-0.03-0.16H98.62z"/>
				<path class="st1" d="M96.98,45.08c0,0.08-0.03,0.16-0.09,0.21c-0.05,0.05-0.13,0.09-0.21,0.09H81.54c-0.16,0-0.3-0.13-0.3-0.3
					c0-0.08,0.03-0.16,0.09-0.21c0,0,0.01-0.01,0.01-0.01c0.02-0.02,0.05-0.04,0.08-0.05c0.03-0.01,0.07-0.02,0.11-0.02h15.15
					c0.04,0,0.08,0.01,0.11,0.02c0.03,0.01,0.06,0.03,0.08,0.05C96.94,44.91,96.98,44.99,96.98,45.08z"/>
				<path class="st1" d="M81.35,41.36c0,0,0.36-1.73,1.62-1.73s1.45,1.73,1.45,1.73h1.57c0,0,0.37-1.56,1.62-1.56
					s1.51,1.56,1.51,1.56h2.76c0,0,0.48-1.73,1.5-1.73c1.3,0,1.62,1.15,1.69,1.73h1.33c0,0,0.15-2.07,0.5-2.12
					c0.34-0.05,0.84,2.12,0.84,2.12h0.16c0,0-0.44-2.95-1.58-4.18c-1.13-1.23-15.26,0.78-15.26,0.78s-1.12,1.39-1.25,3.4H81.35z"/>
				<path class="st1" d="M89.02,30.57l-0.31-3.5l-0.27,3.5c-0.23,0.11-0.39,0.36-0.39,0.64c0,0.39,0.3,0.71,0.67,0.71
					c0.37,0,0.67-0.32,0.67-0.71C89.4,30.93,89.24,30.69,89.02,30.57z"/>
				<path class="st1" d="M97.87,41.36h-0.16c-0.45-2.49-0.96-2.91-1.27-2.39c-0.31,0.51-0.16,2.39-0.16,2.39h-1.23
					c-0.06-0.47-0.75-2.97-2.44-2.97c-1.69,0-2.01,2.97-2.01,2.97h-1.58c0,0-0.2-2.91-2.23-2.87c-2.03,0.03-2.38,2.87-2.38,2.87
					h-1.07c0-1.61-0.89-3.05-1.77-2.58c-0.88,0.47-1.32,2.58-1.32,2.58h-0.47c0,0-0.01-0.55,0.22-1.43c0,0,0,0,0,0
					c0.27-1.01,0.85-2.46,2.13-3.98c0.25-0.3,0.53-0.6,0.83-0.9c0.05-0.05,0.1-0.1,0.15-0.14c0.08-0.07,0.15-0.15,0.23-0.22
					c0.34-0.32,0.66-0.6,0.97-0.85c0.09-0.08,0.18-0.15,0.28-0.22c0.43-0.33,0.83-0.6,1.2-0.82c0.13-0.08,0.26-0.15,0.38-0.22
					c0.98-0.53,1.73-0.71,2.2-0.77c0.21-0.03,0.36-0.03,0.46-0.03c0.31,0,1.24,0.03,2.66,0.8c0.12,0.07,0.25,0.14,0.38,0.22
					c0.37,0.22,0.77,0.49,1.2,0.82c0.09,0.07,0.18,0.14,0.27,0.22c0.31,0.25,0.63,0.53,0.97,0.85c0.08,0.07,0.15,0.14,0.23,0.22
					c0.05,0.05,0.1,0.09,0.15,0.14c0.78,0.77,1.37,1.54,1.82,2.26c0.07,0.11,0.13,0.22,0.19,0.32
					C97.9,39.73,97.87,41.36,97.87,41.36z"/>
				<path class="st1" d="M97.87,41.36h-0.16c-0.45-2.49-0.96-2.91-1.27-2.39c-0.31,0.51-0.16,2.39-0.16,2.39h-1.23
					c-0.06-0.47-0.75-2.97-2.44-2.97c-1.69,0-2.01,2.97-2.01,2.97h-1.58c0,0-0.2-2.91-2.23-2.87c-2.03,0.03-2.38,2.87-2.38,2.87
					h-1.07c0-1.61-0.89-3.05-1.77-2.58c-0.88,0.47-1.32,2.58-1.32,2.58h-0.47c0,0-0.01-0.55,0.22-1.43c0,0,0,0,0,0
					c0.03-0.08,0.79-2.4,2.32-2.3c1.17,0.08,1.88,1.36,1.88,1.36s0.99-1.74,2.63-1.74c1.64,0,2.87,1.41,2.87,1.41
					s1.37-1.59,2.79-1.57c1.42,0.02,3.03,1.69,3.03,1.69s0.38-1.44,1.16-1.16C97.9,39.73,97.87,41.36,97.87,41.36z"/>
				<rect x="86.56" y="50.67" class="st1" width="5.09" height="0.16"/>
			</g>
			<g>
				<g>
					<polygon class="st1" points="29.09,44.57 29.09,45.84 27.04,46.05 27.04,44.79 					"/>
					<polygon class="st1" points="31.34,44.57 31.34,45.84 33.39,46.05 33.39,44.79 					"/>
					<path class="st1" d="M31.14,27.34v7.07l0.98,0.01l0.07,0h0v-7.08H31.14z M31.21,30.37V29.7c0.06-0.4,0.45-0.54,0.45-0.54
						c0.29,0.11,0.46,0.53,0.46,0.53v0.71l-0.14-0.01l0,0l-0.13,0v0l-0.23-0.01v3.92l-0.29-0.04v-3.89L31.21,30.37z"/>
					<path class="st1" d="M28.23,27.34v7.08h0l0.08,0l0.98-0.01v-7.07H28.23z M28.57,30.4l-0.13,0.01h0l-0.12,0l-0.02,0V29.7
						c0,0,0.01-0.02,0.02-0.04c0.05-0.11,0.21-0.4,0.44-0.49c0,0,0.4,0.15,0.45,0.54v0.66l-0.09,0v3.89l-0.29,0.04v-3.91L28.57,30.4
						z"/>
					<path class="st1" d="M29.29,27.34v7.07h1.85v-7.07H29.29z M29.58,30.35v-0.67c0.16-0.48,0.63-0.65,0.63-0.65
						c0.53,0.22,0.63,0.65,0.63,0.65v0.67h-0.39v3.92h-0.48v-3.92H29.58z"/>
					<rect x="29.09" y="44.57" class="st1" width="2.25" height="1.27"/>
					<path class="st1" d="M29.29,35.33v9.23h1.85v-9.23H29.29z M30.99,39.73h-0.48v4.78h-0.6v-4.78h-0.48v-0.84
						c0.2-0.6,0.78-0.81,0.78-0.81c0.66,0.28,0.78,0.81,0.78,0.81V39.73z"/>
					<path class="st1" d="M27.44,35.33v9.42l0,0l1.04-0.11h0l0.61-0.07h0.2v-9.23H27.44z M29.02,39.76l-0.23,0.01v4.8l-0.36,0.04
						v-4.82l0.03,0l-0.22,0.01l-0.01,0v0l-0.14,0.01l-0.2,0.01v-0.88c0,0,0.21-0.53,0.57-0.66c0,0,0.49,0.18,0.56,0.67V39.76z"/>
					<path class="st1" d="M31.14,35.33v9.23h0.2l0.61,0.07h0l1.04,0.11l0,0v-9.42H31.14z M32.59,39.81l-0.2-0.01l-0.14-0.01v0
						l-0.16,0v4.82l-0.36-0.04v-4.79l-0.26-0.01v-0.84c0.07-0.49,0.56-0.67,0.56-0.67c0.36,0.13,0.57,0.66,0.57,0.66V39.81z"/>
					<polygon class="st1" points="29.29,34.3 29.29,35.36 27.24,35.57 27.24,34.53 					"/>
					<polygon class="st1" points="31.14,34.3 31.14,35.36 33.19,35.57 33.19,34.53 					"/>
					<rect x="29.29" y="34.3" class="st1" width="1.85" height="1.04"/>
					<polygon class="st1" points="32.55,26.58 32.55,27.49 31.7,27.41 31.14,27.34 31.14,26.41 31.74,26.49 					"/>
					<polygon class="st1" points="29.29,26.41 29.29,27.34 28.51,27.43 27.88,27.49 27.88,26.58 28.45,26.51 					"/>
					<rect x="29.29" y="26.41" class="st1" width="1.85" height="0.93"/>
					<path class="st1" d="M30.13,25.46h-0.07c-0.09,0-0.16-0.07-0.16-0.16v-5.95c0-0.09,0.07-0.16,0.16-0.16h0.07
						c0.09,0,0.16,0.07,0.16,0.16v5.95C30.29,25.39,30.22,25.46,30.13,25.46z"/>
					<path class="st1" d="M31.74,26.49l-0.6-0.08h-1.85l-0.84,0.11c0.17-0.76,0.84-1.33,1.65-1.33
						C30.9,25.19,31.56,25.74,31.74,26.49z"/>
				</g>
				<path class="st1" d="M27.32,45.92v19.26h1.77V45.05L27.32,45.92z M27.94,50.36l-0.17,0.01l-0.22,0.01v-1.02
					c0,0,0.24-0.61,0.66-0.76c0,0,0.57,0.21,0.65,0.78v0.95l-0.33,0.01v6.94h-0.22v-6.93L27.94,50.36z"/>
				<path class="st1" d="M29.09,45.05v20.13h2.25V45.05H29.09z M29.91,50.33v-0.24h-0.64v-0.76c0.23-0.69,0.9-0.94,0.9-0.94
					c0.76,0.32,0.9,0.94,0.9,0.94v0.76h-0.64v0.24H30.3v6.95h-0.27v-6.95H29.91z"/>
				<path class="st1" d="M31.34,45.05v20.13h1.77V45.92L31.34,45.05z M31.57,50.33v-0.95c0.08-0.57,0.65-0.78,0.65-0.78
					c0.42,0.15,0.66,0.76,0.66,0.76v1.02l-0.22-0.01l-0.17-0.01l-0.37-0.01v6.93H31.9v-6.94L31.57,50.33z"/>
			</g>
			<g>
				<g>
					<polygon class="st1" points="65.48,61.55 65.48,62.65 63.71,62.83 63.71,61.75 					"/>
					<polygon class="st1" points="67.43,61.55 67.43,62.65 69.2,62.83 69.2,61.75 					"/>
					<path class="st1" d="M67.26,46.64v6.12l0.85,0.01l0.06,0h0v-6.13H67.26z M67.31,49.27v-0.58c0.05-0.34,0.39-0.47,0.39-0.47
						c0.25,0.09,0.4,0.46,0.4,0.46v0.62l-0.12-0.01l0,0l-0.11,0v0l-0.2-0.01v3.39l-0.25-0.03v-3.37L67.31,49.27z"/>
					<path class="st1" d="M64.74,46.64v6.13h0l0.07,0l0.84-0.01v-6.12H64.74z M65.04,49.3l-0.11,0h0l-0.11,0l-0.02,0v-0.62
						c0,0,0.01-0.01,0.02-0.04c0.04-0.1,0.18-0.35,0.38-0.42c0,0,0.34,0.13,0.39,0.47v0.57l-0.08,0v3.36l-0.25,0.03v-3.38
						L65.04,49.3z"/>
					<path class="st1" d="M65.66,46.64v6.12h1.6v-6.12H65.66z M65.91,48.66c0.14-0.42,0.54-0.56,0.54-0.56
						c0.46,0.19,0.54,0.56,0.54,0.56v0.58h-0.33v3.39h-0.42v-3.39h-0.33V48.66z"/>
					<rect x="65.48" y="61.55" class="st1" width="1.95" height="1.1"/>
					<path class="st1" d="M65.66,53.56v7.99h1.6v-7.99H65.66z M67.13,57.36h-0.42v4.13H66.2v-4.13h-0.42v-0.72
						c0.17-0.52,0.67-0.7,0.67-0.7c0.57,0.24,0.67,0.7,0.67,0.7V57.36z"/>
					<path class="st1" d="M64.05,53.56v8.15l0,0l0.9-0.1h0l0.52-0.06h0.17v-7.99H64.05z M65.43,57.39l-0.2,0.01v4.15l-0.31,0.04
						v-4.17l0.02,0l-0.19,0l-0.01,0v0l-0.12,0.01l-0.18,0.01v-0.76c0,0,0.18-0.46,0.49-0.57c0,0,0.43,0.16,0.49,0.58V57.39z"/>
					<path class="st1" d="M67.26,53.56v7.99h0.17l0.52,0.06h0l0.9,0.1l0,0v-8.15H67.26z M68.51,57.43l-0.18-0.01l-0.12-0.01v0
						l-0.14,0v4.17l-0.31-0.04v-4.14l-0.23-0.01v-0.72c0.06-0.43,0.49-0.58,0.49-0.58c0.31,0.11,0.49,0.57,0.49,0.57V57.43z"/>
					<polygon class="st1" points="65.66,52.67 65.66,53.58 63.89,53.76 63.89,52.87 					"/>
					<polygon class="st1" points="67.26,52.67 67.26,53.58 69.03,53.76 69.03,52.87 					"/>
					<rect x="65.66" y="52.67" class="st1" width="1.6" height="0.9"/>
					<polygon class="st1" points="68.48,45.98 68.48,46.78 67.74,46.7 67.26,46.64 67.26,45.84 67.77,45.91 					"/>
					<polygon class="st1" points="65.66,45.84 65.66,46.64 64.98,46.72 64.44,46.78 64.44,45.98 64.93,45.93 					"/>
					<rect x="65.66" y="45.84" class="st1" width="1.6" height="0.8"/>
					<path class="st1" d="M66.36,45.02h-0.01c-0.09,0-0.16-0.07-0.16-0.16v-5.1c0-0.09,0.07-0.16,0.16-0.16h0.01
						c0.09,0,0.16,0.07,0.16,0.16v5.1C66.52,44.95,66.45,45.02,66.36,45.02z"/>
					<path class="st1" d="M67.77,45.91l-0.52-0.07h-1.6l-0.72,0.09c0.14-0.66,0.73-1.15,1.42-1.15
						C67.05,44.78,67.62,45.26,67.77,45.91z"/>
				</g>
				<rect x="63.95" y="62.3" class="st1" width="5.01" height="3.2"/>
			</g>
			<g>
				<g>
					<polygon class="st1" points="76.24,61.55 76.24,62.65 74.47,62.83 74.47,61.75 					"/>
					<polygon class="st1" points="78.19,61.55 78.19,62.65 79.96,62.83 79.96,61.75 					"/>
					<path class="st1" d="M78.02,46.64v6.12l0.85,0.01l0.06,0h0v-6.13H78.02z M78.08,49.27v-0.58c0.05-0.34,0.39-0.47,0.39-0.47
						c0.25,0.09,0.4,0.46,0.4,0.46v0.62l-0.12-0.01l0,0l-0.11,0v0l-0.2-0.01v3.39l-0.25-0.03v-3.37L78.08,49.27z"/>
					<path class="st1" d="M75.51,46.64v6.13h0l0.07,0l0.84-0.01v-6.12H75.51z M75.8,49.3l-0.11,0h0l-0.11,0l-0.02,0v-0.62
						c0,0,0.01-0.01,0.02-0.04c0.04-0.1,0.18-0.35,0.38-0.42c0,0,0.34,0.13,0.39,0.47v0.57l-0.08,0v3.36l-0.25,0.03v-3.38L75.8,49.3
						z"/>
					<path class="st1" d="M76.42,46.64v6.12h1.6v-6.12H76.42z M76.67,48.66c0.14-0.42,0.54-0.56,0.54-0.56
						c0.46,0.19,0.54,0.56,0.54,0.56v0.58h-0.33v3.39H77v-3.39h-0.33V48.66z"/>
					<rect x="76.24" y="61.55" class="st1" width="1.95" height="1.1"/>
					<path class="st1" d="M76.42,53.56v7.99h1.6v-7.99H76.42z M77.89,57.36h-0.42v4.13h-0.51v-4.13h-0.42v-0.72
						c0.17-0.52,0.67-0.7,0.67-0.7c0.57,0.24,0.67,0.7,0.67,0.7V57.36z"/>
					<path class="st1" d="M74.82,53.56v8.15l0,0l0.9-0.1h0l0.52-0.06h0.17v-7.99H74.82z M76.19,57.39l-0.2,0.01v4.15l-0.31,0.04
						v-4.17l0.02,0l-0.19,0l-0.01,0v0l-0.12,0.01l-0.18,0.01v-0.76c0,0,0.18-0.46,0.49-0.57c0,0,0.43,0.16,0.49,0.58V57.39z"/>
					<path class="st1" d="M78.02,53.56v7.99h0.17l0.52,0.06h0l0.9,0.1l0,0v-8.15H78.02z M79.27,57.43l-0.18-0.01l-0.12-0.01v0
						l-0.14,0v4.17l-0.31-0.04v-4.14l-0.23-0.01v-0.72c0.06-0.43,0.49-0.58,0.49-0.58c0.31,0.11,0.49,0.57,0.49,0.57V57.43z"/>
					<polygon class="st1" points="76.42,52.67 76.42,53.58 74.65,53.76 74.65,52.87 					"/>
					<polygon class="st1" points="78.02,52.67 78.02,53.58 79.79,53.76 79.79,52.87 					"/>
					<rect x="76.42" y="52.67" class="st1" width="1.6" height="0.9"/>
					<polygon class="st1" points="79.24,45.98 79.24,46.78 78.5,46.7 78.02,46.64 78.02,45.84 78.54,45.91 					"/>
					<polygon class="st1" points="76.42,45.84 76.42,46.64 75.74,46.72 75.2,46.78 75.2,45.98 75.69,45.93 					"/>
					<rect x="76.42" y="45.84" class="st1" width="1.6" height="0.8"/>
					<path class="st1" d="M77.12,45.02h-0.01c-0.09,0-0.16-0.07-0.16-0.16v-5.1c0-0.09,0.07-0.16,0.16-0.16h0.01
						c0.09,0,0.16,0.07,0.16,0.16v5.1C77.28,44.95,77.21,45.02,77.12,45.02z"/>
					<path class="st1" d="M78.54,45.91l-0.52-0.07h-1.6l-0.72,0.09c0.14-0.66,0.73-1.15,1.42-1.15
						C77.81,44.78,78.38,45.26,78.54,45.91z"/>
				</g>
				<rect x="74.71" y="62.3" class="st1" width="5.01" height="3.2"/>
			</g>
			<g>
				<path class="st1" d="M64.09,58.43v7.06l-0.61,0v-4.26c0-0.15-0.03-0.27-0.08-0.38c-0.17-0.38-0.56-0.5-0.56-0.5
					s-0.54,0.16-0.62,0.72c-0.01,0.05-0.01,0.1-0.01,0.15v4.39h-0.69v-4.39c0-0.04,0-0.08-0.01-0.11c-0.06-0.59-0.63-0.76-0.63-0.76
					s-0.5,0.15-0.61,0.67c-0.01,0.06-0.02,0.13-0.02,0.21v4.26h-0.61V60l0-1.44h0.04c0,0,0,0,0,0c0-0.12,0.1-0.23,0.23-0.23h0.64
					c0.12,0,0.23,0.1,0.23,0.23c0-0.12,0.1-0.23,0.23-0.23h0.64c0.08,0,0.16,0.05,0.2,0.12c0.02,0.03,0.03,0.07,0.03,0.11v0h0
					c0-0.12,0.1-0.22,0.23-0.22h0.64c0.12,0,0.22,0.1,0.23,0.22v0h0c0,0,0,0,0,0c0-0.12,0.1-0.23,0.23-0.23h0.64
					c0.03,0,0.06,0.01,0.09,0.02c0.08,0.03,0.14,0.11,0.14,0.21c0,0,0,0,0,0h0v0C64.06,58.51,64.07,58.47,64.09,58.43z"/>
				<path class="st1" d="M74.98,58.54L74.98,58.54L74.98,58.54C74.98,58.54,74.98,58.54,74.98,58.54c0-0.09-0.06-0.17-0.14-0.21
					c-0.03-0.01-0.06-0.02-0.09-0.02h-0.64c-0.12,0-0.23,0.1-0.23,0.23c0,0,0,0,0,0h0v0c0-0.12-0.1-0.22-0.23-0.22h-0.64
					c-0.04,0-0.08,0.01-0.11,0.03c-0.01-0.01-0.02-0.01-0.03-0.02c-0.03-0.01-0.06-0.02-0.09-0.02h-0.22h-0.42h-0.22
					c-0.04,0-0.08,0.01-0.12,0.03c-0.03-0.02-0.07-0.03-0.11-0.03h-0.19c-0.01,0-0.02,0-0.03,0h-0.64c-0.04,0-0.08,0.01-0.11,0.03
					c-0.03-0.02-0.07-0.03-0.11-0.03h-0.64c-0.12,0-0.23,0.1-0.23,0.23c0-0.12-0.1-0.23-0.23-0.23h-0.64c-0.12,0-0.23,0.1-0.23,0.23
					c0,0,0,0,0,0h-0.04l0,1.44v5.5h0.61v-4.26c0-0.07,0.01-0.14,0.02-0.21c0.11-0.52,0.61-0.67,0.61-0.67s0.56,0.17,0.63,0.76
					c0,0.04,0.01,0.07,0.01,0.11v4.39h0.69v-4.39c0-0.05,0-0.1,0.01-0.15c0.08-0.56,0.61-0.72,0.62-0.72c0.01,0,0.56,0.17,0.63,0.76
					c0,0.04,0.01,0.07,0.01,0.11v4.39h0.69v-4.39c0-0.05,0-0.1,0.01-0.15c0.08-0.56,0.62-0.72,0.62-0.72s0.39,0.12,0.56,0.5
					c0.05,0.1,0.08,0.23,0.08,0.38v4.26l0.61,0v-7.06C75,58.45,74.98,58.49,74.98,58.54z"/>
				<path class="st1" d="M39.7,59.99v-1.44h-0.01c0-0.01,0-0.02,0-0.03c0-0.06-0.03-0.12-0.07-0.16c-0.04-0.04-0.1-0.07-0.16-0.07
					h-0.64c-0.12,0-0.23,0.1-0.23,0.23c0,0.01,0,0.02,0,0.03h-0.01c0-0.01,0-0.02,0-0.03c0-0.06-0.03-0.12-0.07-0.16
					c-0.04-0.04-0.1-0.07-0.16-0.07h-0.64c-0.12,0-0.23,0.1-0.23,0.23c0,0.01,0,0.02,0,0.03h0c0-0.01,0-0.02,0-0.03
					c0-0.12-0.1-0.23-0.23-0.23h-0.64c-0.12,0-0.23,0.1-0.23,0.23c0-0.06-0.03-0.12-0.07-0.16c-0.04-0.04-0.1-0.07-0.16-0.07h-0.64
					c-0.12,0-0.23,0.1-0.23,0.23c0,0.01,0,0.02,0,0.03h-0.01c0-0.01,0-0.02,0-0.03c0-0.06-0.03-0.12-0.07-0.16
					c-0.04-0.04-0.1-0.07-0.16-0.07h-0.64c-0.12,0-0.23,0.1-0.23,0.23c0,0.01,0,0.02,0,0.03h0c0-0.01,0-0.02,0-0.03
					c0-0.12-0.1-0.23-0.23-0.23h-0.64c-0.12,0-0.23,0.1-0.23,0.23c0,0.01,0,0.02,0,0.03h-0.03l0,1.44v5.18h0.61c0,0,0-3.26,0-3.94
					s0.63-0.87,0.63-0.87s0.63,0.19,0.63,0.87s0,3.94,0,3.94h0.7c0,0,0-3.26,0-3.94c0-0.26,0.09-0.44,0.2-0.58
					c0.19-0.22,0.43-0.3,0.43-0.3s0.63,0.19,0.63,0.87s0,3.94,0,3.94h0.64c0,0,0-3.26,0-3.94s0.63-0.87,0.63-0.87
					s0.63,0.19,0.63,0.87s0,3.94,0,3.94h0.85L39.7,59.99L39.7,59.99z M36.41,58.55c0-0.01,0-0.02,0-0.03
					C36.41,58.53,36.41,58.54,36.41,58.55L36.41,58.55z"/>
				<path class="st1" d="M60.64,53.9c0,0-0.16,0.17-0.34,0.58c-0.02,0.05-0.05,0.11-0.08,0.18c-0.26,0.64-0.55,1.72-0.55,3.39v7.07
					c-0.01,0-0.01,0-0.02,0c-0.03,0-0.05,0-0.08,0.01c-0.07,0.01-0.14,0.01-0.2,0.01c-0.13,0.01-0.27,0.01-0.4,0.02v-6.75
					c0-1.29-1.23-1.67-1.28-1.69c0,0,0,0,0,0s-1.29,0.36-1.29,1.69v6.71c0,0.04,0,0.06,0,0.06h-1.41c0,0,0-0.07,0-0.21v-6.56
					c0-0.11-0.01-0.22-0.03-0.31c-0.18-1.07-1.26-1.37-1.26-1.37s-0.01,0-0.02,0.01c-0.16,0.05-1.27,0.45-1.27,1.68v5.97
					c0,0.49,0,0.8,0,0.8H51c0,0,0-0.57,0-1.38v-5.39c0-0.1-0.01-0.2-0.02-0.29c-0.17-1.09-1.26-1.4-1.26-1.4s-0.01,0-0.02,0.01
					c-0.15,0.05-1.27,0.45-1.27,1.68v3.48c0,1.68,0,3.29,0,3.29h-1.41c0,0,0-3.39,0-5.47v-1.3c0-0.09-0.01-0.18-0.02-0.26
					c-0.08-0.61-0.46-0.98-0.78-1.19c-0.26-0.17-0.48-0.23-0.48-0.23s0,0-0.01,0c-0.14,0.04-1.27,0.44-1.27,1.68
					c0,1.32,0,6.77,0,6.77h-1.41v-6.77c0-0.23-0.04-0.43-0.1-0.61c-0.31-0.83-1.18-1.08-1.18-1.08s-0.88,0.25-1.18,1.08
					c-0.06,0.18-0.1,0.38-0.1,0.61c0,1.32,0,6.77,0,6.77H39.7v-7.13c0-1.67-0.29-2.75-0.55-3.39c-0.03-0.06-0.05-0.12-0.08-0.18
					c-0.19-0.41-0.34-0.58-0.34-0.58H60.64z"/>
				<path class="st1" d="M53.64,50.35h-7.85c0,0,0-0.01,0-0.03c0-0.43,0.08-0.84,0.21-1.23c0.37-1.08,1.2-1.96,2.25-2.38
					c0.43-0.17,0.89-0.27,1.37-0.28c0.01,0,0.01,0,0.02,0c0.03,0,0.05,0,0.08,0c0.52,0,1.01,0.1,1.47,0.28
					C52.62,47.29,53.64,48.7,53.64,50.35z"/>
				<g>
					<path class="st1" d="M50.09,46.1c0,0.2-0.15,0.36-0.35,0.38c-0.01,0-0.02,0-0.03,0c-0.21,0-0.38-0.17-0.38-0.38
						c0-0.14,0.08-0.26,0.19-0.33h0l0.19-3.02l0.19,3.02h0C50.02,45.84,50.09,45.96,50.09,46.1z"/>
				</g>
				<path class="st1" d="M55.78,50.35v2.94h-3.11v-1.01c0-0.19-0.08-0.37-0.21-0.5c-0.13-0.13-0.3-0.21-0.5-0.21
					c-0.09,0-0.18,0.02-0.26,0.05c-0.05,0.02-0.1,0.05-0.15,0.08c-0.18,0.13-0.3,0.34-0.3,0.57v1.01h-0.93v-1.01
					c0-0.19-0.08-0.37-0.21-0.5c-0.1-0.1-0.24-0.18-0.4-0.2c-0.01,0-0.02,0-0.03,0c-0.01,0-0.02,0-0.03,0c-0.01,0-0.02,0-0.04,0h0
					c-0.01,0-0.02,0-0.03,0c0,0-0.01,0-0.01,0c-0.01,0-0.01,0-0.02,0c0,0-0.01,0-0.01,0c-0.01,0-0.01,0-0.02,0
					c-0.06,0.01-0.12,0.02-0.17,0.04c-0.26,0.1-0.44,0.36-0.44,0.65v1.01h-0.92v-1.01c0-0.02,0-0.05,0-0.07c0-0.01,0-0.02,0-0.04
					c0-0.01,0-0.01,0-0.02c0-0.01,0-0.02-0.01-0.03c-0.01-0.02-0.01-0.05-0.02-0.07c0-0.01-0.01-0.02-0.01-0.02
					c0-0.01-0.01-0.01-0.01-0.02c0-0.01-0.01-0.02-0.01-0.03c-0.01-0.01-0.01-0.02-0.02-0.03c-0.01-0.01-0.01-0.02-0.02-0.03
					c-0.01-0.01-0.01-0.02-0.02-0.03c0-0.01-0.01-0.01-0.01-0.02c0,0-0.01-0.01-0.01-0.01c0-0.01-0.01-0.01-0.01-0.01
					c0,0-0.01-0.01-0.01-0.01c-0.01-0.01-0.01-0.01-0.02-0.02c-0.01-0.01-0.02-0.02-0.02-0.02c-0.01-0.01-0.02-0.02-0.02-0.02
					c-0.01-0.01-0.01-0.01-0.02-0.02c0,0-0.01-0.01-0.01-0.01c-0.01,0-0.01-0.01-0.01-0.01c0,0-0.01-0.01-0.01-0.01
					c-0.02-0.01-0.03-0.02-0.05-0.03c-0.02-0.01-0.04-0.02-0.06-0.03c-0.02-0.01-0.04-0.02-0.06-0.03c-0.01,0-0.02-0.01-0.03-0.01
					c-0.01,0-0.02-0.01-0.03-0.01c-0.01,0-0.01,0-0.02,0c-0.01,0-0.02,0-0.03-0.01c-0.01,0-0.01,0-0.02,0c-0.01,0-0.02,0-0.03,0
					c-0.02,0-0.05,0-0.07,0c-0.01,0-0.02,0-0.03,0c-0.02,0-0.05,0-0.07,0.01c0,0,0,0-0.01,0c-0.01,0-0.02,0-0.03,0
					c-0.01,0-0.02,0-0.03,0.01l-0.01,0c-0.01,0-0.02,0.01-0.03,0.01c-0.01,0-0.02,0.01-0.03,0.01c-0.01,0-0.02,0.01-0.03,0.01
					c0,0,0,0,0,0c-0.26,0.1-0.45,0.36-0.45,0.65v1.01h-3.11v-2.94H55.78z"/>
				<rect x="39.55" y="53.29" class="st1" width="20.32" height="0.61"/>
				<g>
					<path class="st1" d="M44,49.34c-0.45,0.19-0.51,0.58-0.51,0.58v0.43c0,0,0.18,0.17,0.51,0.17c0.33,0,0.51-0.17,0.51-0.17v-0.43
						C44.51,49.92,44.46,49.53,44,49.34z"/>
					<path class="st1" d="M45.41,49.34c-0.45,0.19-0.51,0.58-0.51,0.58v0.43c0,0,0.18,0.17,0.51,0.17c0.33,0,0.51-0.17,0.51-0.17
						v-0.43C45.92,49.92,45.86,49.53,45.41,49.34z"/>
					<path class="st1" d="M46.82,49.34c-0.45,0.19-0.51,0.58-0.51,0.58v0.43c0,0,0.18,0.17,0.51,0.17c0.33,0,0.51-0.17,0.51-0.17
						v-0.43C47.33,49.92,47.27,49.53,46.82,49.34z"/>
					<path class="st1" d="M48.23,49.34c-0.45,0.19-0.51,0.58-0.51,0.58v0.43c0,0,0.18,0.17,0.51,0.17c0.33,0,0.51-0.17,0.51-0.17
						v-0.43C48.74,49.92,48.68,49.53,48.23,49.34z"/>
					<path class="st1" d="M49.63,49.34c-0.45,0.19-0.51,0.58-0.51,0.58v0.43c0,0,0.18,0.17,0.51,0.17s0.51-0.17,0.51-0.17v-0.43
						C50.15,49.92,50.09,49.53,49.63,49.34z"/>
					<path class="st1" d="M51.04,49.34c-0.45,0.19-0.51,0.58-0.51,0.58v0.43c0,0,0.18,0.17,0.51,0.17s0.51-0.17,0.51-0.17v-0.43
						C51.55,49.92,51.5,49.53,51.04,49.34z"/>
					<path class="st1" d="M52.45,49.34c-0.45,0.19-0.51,0.58-0.51,0.58v0.43c0,0,0.18,0.17,0.51,0.17c0.33,0,0.51-0.17,0.51-0.17
						v-0.43C52.96,49.92,52.9,49.53,52.45,49.34z"/>
					<path class="st1" d="M53.86,49.34c-0.45,0.19-0.51,0.58-0.51,0.58v0.43c0,0,0.18,0.17,0.51,0.17c0.33,0,0.51-0.17,0.51-0.17
						v-0.43C54.37,49.92,54.31,49.53,53.86,49.34z"/>
					<path class="st1" d="M55.27,49.34c-0.45,0.19-0.51,0.58-0.51,0.58v0.43c0,0,0.18,0.17,0.51,0.17c0.33,0,0.51-0.17,0.51-0.17
						v-0.43C55.78,49.92,55.72,49.53,55.27,49.34z"/>
				</g>
				<g>
					<path class="st1" d="M50.09,46.1c0,0.2-0.15,0.36-0.35,0.38c0.3-0.3,0.04-0.68,0.04-0.68l-0.07-3.04l0.19,3.02h0
						C50.02,45.84,50.09,45.96,50.09,46.1z"/>
				</g>
			</g>
			<g>
				<rect x="103.03" y="51.72" class="st1" width="21.55" height="13.78"/>
				<rect x="99.88" y="58.61" class="st1" width="3.15" height="6.89"/>
				<rect x="124.58" y="58.61" class="st1" width="3.15" height="6.89"/>
				<path class="st1" d="M123.41,51.25L123.41,51.25c-0.11,0-0.2,0.09-0.2,0.2v0.15h-0.4v-0.15c0-0.11-0.09-0.2-0.2-0.2
					s-0.2,0.09-0.2,0.2v0.15h-0.4v-0.15c0-0.11-0.09-0.2-0.2-0.2s-0.2,0.09-0.2,0.2v0.15h-0.4v-0.15c0-0.11-0.09-0.2-0.2-0.2h0
					c-0.11,0-0.2,0.09-0.2,0.2v0.15h-0.4v-0.15c0-0.11-0.09-0.2-0.2-0.2l0,0c-0.11,0-0.2,0.09-0.2,0.2v0.15h-0.4v-0.15
					c0-0.11-0.09-0.2-0.2-0.2h0c-0.11,0-0.2,0.09-0.2,0.2v0.15h-0.4v-0.15c0-0.11-0.09-0.2-0.2-0.2s-0.2,0.09-0.2,0.2v0.15h-0.4
					v-0.15c0-0.11-0.09-0.2-0.2-0.2c-0.11,0-0.2,0.09-0.2,0.2v0.15h-0.4v-0.15c0-0.11-0.09-0.2-0.2-0.2c0,0,0,0,0,0c0,0,0,0,0,0l0,0
					c-0.11,0-0.2,0.09-0.2,0.2v0.15h-0.4v-0.15c0-0.11-0.09-0.2-0.2-0.2c-0.11,0-0.2,0.09-0.2,0.2v0.15h-0.4v-0.15
					c0-0.11-0.09-0.2-0.2-0.2s-0.2,0.09-0.2,0.2v0.15h-0.4v-0.15c0-0.11-0.09-0.2-0.2-0.2h0c-0.11,0-0.2,0.09-0.2,0.2v0.15H114
					v-0.15c0-0.11-0.09-0.2-0.2-0.2l0,0c-0.11,0-0.2,0.09-0.2,0.2v0.15h-0.4v-0.15c0-0.11-0.09-0.2-0.2-0.2h0
					c-0.11,0-0.2,0.09-0.2,0.2v0.15h-0.4v-0.15c0-0.11-0.09-0.2-0.2-0.2c-0.11,0-0.2,0.09-0.2,0.2v0.15h-0.4v-0.15
					c0-0.11-0.09-0.2-0.2-0.2c-0.11,0-0.2,0.09-0.2,0.2v0.15h-0.4v-0.15c0-0.11-0.09-0.2-0.2-0.2c0,0,0,0,0,0c0,0,0,0,0,0h0
					c-0.11,0-0.2,0.09-0.2,0.2v0.15H110v-0.15c0-0.11-0.09-0.2-0.2-0.2s-0.2,0.09-0.2,0.2v0.15h-0.4v-0.15c0-0.11-0.09-0.2-0.2-0.2
					s-0.2,0.09-0.2,0.2v0.15h-0.4v-0.15c0-0.11-0.09-0.2-0.2-0.2h0c-0.11,0-0.2,0.09-0.2,0.2v0.15h-0.4v-0.15
					c0-0.11-0.09-0.2-0.2-0.2s-0.2,0.09-0.2,0.2v0.15h-0.4v-0.15c0-0.11-0.09-0.2-0.2-0.2h0c-0.11,0-0.2,0.09-0.2,0.2v0.15h-0.4
					v-0.15c0-0.11-0.09-0.2-0.2-0.2s-0.2,0.09-0.2,0.2v0.15h-0.4v-0.15c0-0.11-0.09-0.2-0.2-0.2s-0.2,0.09-0.2,0.2v0.15h-0.4v-0.15
					c0-0.11-0.09-0.2-0.2-0.2s-0.2,0.09-0.2,0.2v0.6h19.62v-0.6C123.61,51.34,123.52,51.25,123.41,51.25z"/>
				<rect x="100.67" y="56.38" class="st1" width="0.37" height="0.69"/>
				<g>
					<path class="st1" d="M101.07,56.93v8.56h-6.73v-8.56c0-0.11,0.09-0.21,0.2-0.21l0,0c0.11,0,0.2,0.09,0.2,0.21v0.15h0.4v-0.15
						c0-0.11,0.09-0.21,0.2-0.21l0,0c0.11,0,0.2,0.09,0.2,0.21v0.15h0.4v-0.15c0-0.11,0.09-0.21,0.2-0.21l0,0
						c0.11,0,0.2,0.09,0.2,0.21v0.15h0.4v-0.15c0-0.11,0.09-0.21,0.2-0.21h0c0.11,0,0.2,0.09,0.2,0.21v0.15h0.4v-0.15
						c0-0.11,0.09-0.21,0.2-0.21l0,0c0.11,0,0.2,0.09,0.2,0.21v0.15h0.4v-0.15c0-0.11,0.09-0.21,0.2-0.21h0
						c0.11,0,0.2,0.09,0.2,0.21v0.15h0.4v-0.15c0-0.11,0.09-0.21,0.2-0.21l0,0c0.11,0,0.2,0.09,0.2,0.21v0.15h0.4v-0.15
						c0-0.11,0.09-0.21,0.2-0.21l0,0c0.11,0,0.2,0.09,0.2,0.21v0.15h0.4v-0.15c0-0.11,0.09-0.21,0.2-0.21h0
						C100.98,56.73,101.07,56.82,101.07,56.93z"/>
					<path class="st1" d="M103.71,48.78v1.64h-2.92v-1.64h0.03v-0.12c0-0.09,0.07-0.16,0.16-0.16c0.04,0,0.08,0.02,0.11,0.05
						s0.05,0.07,0.05,0.11v0.12h0.32v-0.12c0-0.09,0.07-0.16,0.16-0.16c0.04,0,0.08,0.02,0.11,0.05c0.03,0.03,0.05,0.07,0.05,0.11
						v0.12h0.32v-0.12c0-0.09,0.07-0.16,0.16-0.16c0.04,0,0.08,0.02,0.11,0.05c0.03,0.03,0.05,0.07,0.05,0.11v0.12h0.32v-0.12
						c0-0.09,0.07-0.16,0.16-0.16c0.04,0,0.08,0.02,0.11,0.05c0.03,0.03,0.05,0.07,0.05,0.11v0.12h0.32v-0.12
						c0-0.09,0.07-0.16,0.16-0.16c0.04,0,0.08,0.02,0.11,0.05c0.03,0.03,0.05,0.07,0.05,0.11v0.12H103.71z"/>
					<g>
						<path class="st1" d="M101.31,49.78L101.31,49.78c-0.14,0-0.26,0.12-0.26,0.26v0.26h0.52v-0.26
							C101.57,49.9,101.45,49.78,101.31,49.78z"/>
						<path class="st1" d="M102.25,49.78L102.25,49.78c-0.14,0-0.26,0.12-0.26,0.26v0.26h0.52v-0.26
							C102.52,49.9,102.4,49.78,102.25,49.78z"/>
						<path class="st1" d="M103.2,49.78L103.2,49.78c-0.14,0-0.26,0.12-0.26,0.26v0.26h0.52v-0.26
							C103.46,49.9,103.35,49.78,103.2,49.78z"/>
					</g>
					<rect x="99.55" y="50.41" class="st1" width="5.41" height="9.25"/>
					<path class="st1" d="M104.97,50.2v6.62h-5.42V50.2c0-0.09,0.07-0.16,0.16-0.16l0,0c0.09,0,0.16,0.07,0.16,0.16v0.12h0.32V50.2
						c0-0.09,0.07-0.16,0.16-0.16l0,0c0.09,0,0.16,0.07,0.16,0.16v0.12h0.32V50.2c0-0.09,0.07-0.16,0.16-0.16l0,0
						c0.09,0,0.16,0.07,0.16,0.16v0.12h0.32V50.2c0-0.09,0.07-0.16,0.16-0.16l0,0c0.09,0,0.16,0.07,0.16,0.16v0.12h0.32V50.2
						c0-0.09,0.07-0.16,0.16-0.16l0,0c0.09,0,0.16,0.07,0.16,0.16v0.12h0.32V50.2c0-0.09,0.07-0.16,0.16-0.16h0
						c0.09,0,0.16,0.07,0.16,0.16v0.12h0.32V50.2c0-0.09,0.07-0.16,0.16-0.16l0,0c0.09,0,0.16,0.07,0.16,0.16v0.12h0.32V50.2
						c0-0.09,0.07-0.16,0.16-0.16l0,0c0.09,0,0.16,0.07,0.16,0.16v0.12h0.32V50.2c0-0.09,0.07-0.16,0.16-0.16h0
						C104.9,50.04,104.97,50.11,104.97,50.2z"/>
					<g>
						<path class="st1" d="M100.4,53.43L100.4,53.43c-0.06,0-0.1-0.05-0.1-0.1v-1.81c0-0.06,0.05-0.1,0.1-0.1l0,0
							c0.06,0,0.1,0.05,0.1,0.1v1.81C100.5,53.38,100.46,53.43,100.4,53.43z"/>
						<path class="st1" d="M101.14,53.43L101.14,53.43c-0.06,0-0.1-0.05-0.1-0.1v-1.81c0-0.06,0.05-0.1,0.1-0.1l0,0
							c0.06,0,0.1,0.05,0.1,0.1v1.81C101.25,53.38,101.2,53.43,101.14,53.43z"/>
						<path class="st1" d="M101.89,53.43L101.89,53.43c-0.06,0-0.1-0.05-0.1-0.1v-1.81c0-0.06,0.05-0.1,0.1-0.1l0,0
							c0.06,0,0.1,0.05,0.1,0.1v1.81C101.99,53.38,101.94,53.43,101.89,53.43z"/>
						<path class="st1" d="M102.63,53.43L102.63,53.43c-0.06,0-0.1-0.05-0.1-0.1v-1.81c0-0.06,0.05-0.1,0.1-0.1l0,0
							c0.06,0,0.1,0.05,0.1,0.1v1.81C102.73,53.38,102.69,53.43,102.63,53.43z"/>
						<path class="st1" d="M103.37,53.43L103.37,53.43c-0.06,0-0.1-0.05-0.1-0.1v-1.81c0-0.06,0.05-0.1,0.1-0.1l0,0
							c0.06,0,0.1,0.05,0.1,0.1v1.81C103.48,53.38,103.43,53.43,103.37,53.43z"/>
						<path class="st1" d="M104.12,53.43L104.12,53.43c-0.06,0-0.1-0.05-0.1-0.1v-1.81c0-0.06,0.05-0.1,0.1-0.1h0
							c0.06,0,0.1,0.05,0.1,0.1v1.81C104.22,53.38,104.18,53.43,104.12,53.43z"/>
					</g>
				</g>
				<g>
					<path class="st1" d="M126.33,56.93v8.56h6.73v-8.56c0-0.11-0.09-0.21-0.2-0.21l0,0c-0.11,0-0.2,0.09-0.2,0.21v0.15h-0.4v-0.15
						c0-0.11-0.09-0.21-0.2-0.21l0,0c-0.11,0-0.2,0.09-0.2,0.21v0.15h-0.4v-0.15c0-0.11-0.09-0.21-0.2-0.21l0,0
						c-0.11,0-0.2,0.09-0.2,0.21v0.15h-0.4v-0.15c0-0.11-0.09-0.21-0.2-0.21h0c-0.11,0-0.2,0.09-0.2,0.21v0.15h-0.4v-0.15
						c0-0.11-0.09-0.21-0.2-0.21l0,0c-0.11,0-0.2,0.09-0.2,0.21v0.15h-0.4v-0.15c0-0.11-0.09-0.21-0.2-0.21h0
						c-0.11,0-0.2,0.09-0.2,0.21v0.15h-0.4v-0.15c0-0.11-0.09-0.21-0.2-0.21l0,0c-0.11,0-0.2,0.09-0.2,0.21v0.15h-0.4v-0.15
						c0-0.11-0.09-0.21-0.2-0.21l0,0c-0.11,0-0.2,0.09-0.2,0.21v0.15h-0.4v-0.15c0-0.11-0.09-0.21-0.2-0.21h0
						C126.42,56.73,126.33,56.82,126.33,56.93z"/>
					<path class="st1" d="M123.68,48.78v1.64h2.92v-1.64h-0.03v-0.12c0-0.09-0.07-0.16-0.16-0.16c-0.04,0-0.08,0.02-0.11,0.05
						s-0.05,0.07-0.05,0.11v0.12h-0.32v-0.12c0-0.09-0.07-0.16-0.16-0.16c-0.04,0-0.08,0.02-0.11,0.05
						c-0.03,0.03-0.05,0.07-0.05,0.11v0.12h-0.32v-0.12c0-0.09-0.07-0.16-0.16-0.16c-0.04,0-0.08,0.02-0.11,0.05
						c-0.03,0.03-0.05,0.07-0.05,0.11v0.12h-0.32v-0.12c0-0.09-0.07-0.16-0.16-0.16c-0.04,0-0.08,0.02-0.11,0.05
						c-0.03,0.03-0.05,0.07-0.05,0.11v0.12h-0.32v-0.12c0-0.09-0.07-0.16-0.16-0.16c-0.04,0-0.08,0.02-0.11,0.05
						c-0.03,0.03-0.05,0.07-0.05,0.11v0.12H123.68z"/>
					<g>
						<path class="st1" d="M126.09,49.78L126.09,49.78c0.14,0,0.26,0.12,0.26,0.26v0.26h-0.52v-0.26
							C125.83,49.9,125.94,49.78,126.09,49.78z"/>
						<path class="st1" d="M125.14,49.78L125.14,49.78c0.14,0,0.26,0.12,0.26,0.26v0.26h-0.52v-0.26
							C124.88,49.9,125,49.78,125.14,49.78z"/>
						<path class="st1" d="M124.19,49.78L124.19,49.78c0.14,0,0.26,0.12,0.26,0.26v0.26h-0.52v-0.26
							C123.93,49.9,124.05,49.78,124.19,49.78z"/>
					</g>
					
						<rect x="122.44" y="50.41" transform="matrix(-1 -1.224647e-16 1.224647e-16 -1 250.2827 110.0819)" class="st1" width="5.41" height="9.25"/>
					<path class="st1" d="M122.43,50.2v6.62h5.42V50.2c0-0.09-0.07-0.16-0.16-0.16h0c-0.09,0-0.16,0.07-0.16,0.16v0.12h-0.32V50.2
						c0-0.09-0.07-0.16-0.16-0.16l0,0c-0.09,0-0.16,0.07-0.16,0.16v0.12h-0.32V50.2c0-0.09-0.07-0.16-0.16-0.16l0,0
						c-0.09,0-0.16,0.07-0.16,0.16v0.12h-0.32V50.2c0-0.09-0.07-0.16-0.16-0.16l0,0c-0.09,0-0.16,0.07-0.16,0.16v0.12h-0.32V50.2
						c0-0.09-0.07-0.16-0.16-0.16l0,0c-0.09,0-0.16,0.07-0.16,0.16v0.12h-0.32V50.2c0-0.09-0.07-0.16-0.16-0.16h0
						c-0.09,0-0.16,0.07-0.16,0.16v0.12h-0.32V50.2c0-0.09-0.07-0.16-0.16-0.16l0,0c-0.09,0-0.16,0.07-0.16,0.16v0.12h-0.32V50.2
						c0-0.09-0.07-0.16-0.16-0.16l0,0c-0.09,0-0.16,0.07-0.16,0.16v0.12h-0.32V50.2c0-0.09-0.07-0.16-0.16-0.16h0
						C122.5,50.04,122.43,50.11,122.43,50.2z"/>
					<g>
						<path class="st1" d="M127,53.43L127,53.43c0.06,0,0.1-0.05,0.1-0.1v-1.81c0-0.06-0.05-0.1-0.1-0.1l0,0
							c-0.06,0-0.1,0.05-0.1,0.1v1.81C126.89,53.38,126.94,53.43,127,53.43z"/>
						<path class="st1" d="M126.25,53.43L126.25,53.43c0.06,0,0.1-0.05,0.1-0.1v-1.81c0-0.06-0.05-0.1-0.1-0.1l0,0
							c-0.06,0-0.1,0.05-0.1,0.1v1.81C126.15,53.38,126.2,53.43,126.25,53.43z"/>
						<path class="st1" d="M125.51,53.43L125.51,53.43c0.06,0,0.1-0.05,0.1-0.1v-1.81c0-0.06-0.05-0.1-0.1-0.1l0,0
							c-0.06,0-0.1,0.05-0.1,0.1v1.81C125.41,53.38,125.45,53.43,125.51,53.43z"/>
						<path class="st1" d="M124.76,53.43L124.76,53.43c0.06,0,0.1-0.05,0.1-0.1v-1.81c0-0.06-0.05-0.1-0.1-0.1l0,0
							c-0.06,0-0.1,0.05-0.1,0.1v1.81C124.66,53.38,124.71,53.43,124.76,53.43z"/>
						<path class="st1" d="M124.02,53.43L124.02,53.43c0.06,0,0.1-0.05,0.1-0.1v-1.81c0-0.06-0.05-0.1-0.1-0.1l0,0
							c-0.06,0-0.1,0.05-0.1,0.1v1.81C123.92,53.38,123.96,53.43,124.02,53.43z"/>
						<path class="st1" d="M123.28,53.43L123.28,53.43c0.06,0,0.1-0.05,0.1-0.1v-1.81c0-0.06-0.05-0.1-0.1-0.1l0,0
							c-0.06,0-0.1,0.05-0.1,0.1v1.81C123.17,53.38,123.22,53.43,123.28,53.43z"/>
					</g>
				</g>
				<g>
					<g>
						<path class="st1" d="M122.95,65.65h-8.66c-0.02,0-0.04-0.02-0.04-0.04v-3.65c0-0.83,0.35-2.01,2.05-2.91
							c0.92-0.49,1.87-0.7,2.14-0.75c0.04-0.01,0.06-0.01,0.06-0.01l0.12-0.02c0,0,0.01,0,0.01,0l0.12,0.02
							c0.03,0.01,0.72,0.13,1.51,0.45c1.5,0.6,2.42,1.5,2.67,2.61c0.04,0.2,0.07,0.41,0.07,0.62v3.65
							C123,65.63,122.98,65.65,122.95,65.65z M114.33,65.56h8.57v-3.61c0-0.2-0.02-0.41-0.07-0.6c-0.24-1.08-1.14-1.96-2.61-2.55
							c-0.79-0.32-1.47-0.44-1.5-0.44l-0.11-0.02l-0.11,0.02c0,0-0.02,0-0.06,0.01c-0.27,0.05-1.21,0.26-2.12,0.74
							c-1.65,0.88-2,2.02-2,2.83V65.56z"/>
					</g>
					<path class="st1" d="M122.24,65.87c0,0,0,0,0-1.66v-2.26c0-0.16-0.02-0.31-0.05-0.45c-0.24-1.06-1.3-1.71-2.21-2.07
						c-0.73-0.29-1.36-0.4-1.36-0.4s-0.01,0-0.04,0.01c-0.39,0.08-3.58,0.76-3.58,2.92c0,2.3,0,3.92,0,3.92H122.24z"/>
					<g>
						<path class="st1" d="M113.31,65.65h-8.66c-0.02,0-0.04-0.02-0.04-0.04v-3.65c0-0.83,0.35-2.01,2.05-2.91
							c0.92-0.49,1.87-0.7,2.14-0.75c0.04-0.01,0.06-0.01,0.06-0.01l0.12-0.02c0,0,0.01,0,0.01,0l0.12,0.02
							c0.03,0.01,0.72,0.13,1.51,0.45c1.5,0.6,2.42,1.5,2.67,2.61c0.04,0.2,0.07,0.41,0.07,0.62v3.65
							C113.36,65.63,113.34,65.65,113.31,65.65z M104.69,65.56h8.57v-3.61c0-0.2-0.02-0.41-0.07-0.6c-0.24-1.08-1.14-1.96-2.61-2.55
							c-0.79-0.32-1.47-0.44-1.5-0.44l-0.11-0.02l-0.11,0.02c0,0-0.02,0-0.06,0.01c-0.27,0.05-1.21,0.26-2.12,0.74
							c-1.65,0.88-2,2.02-2,2.83V65.56z"/>
					</g>
					<path class="st1" d="M112.6,65.87c0,0,0,0,0-1.66v-2.26c0-0.16-0.02-0.31-0.05-0.45c-0.24-1.06-1.3-1.71-2.21-2.07
						c-0.73-0.29-1.36-0.4-1.36-0.4s-0.01,0-0.04,0.01c-0.39,0.08-3.58,0.76-3.58,2.92c0,2.3,0,3.92,0,3.92H112.6z"/>
				</g>
				<g>
					<path class="st1" d="M103.72,65.87v-2.48c0-0.1-0.01-0.19-0.02-0.27c-0.16-1.02-1.18-1.31-1.18-1.31s-0.01,0-0.02,0
						c-0.14,0.05-1.19,0.42-1.19,1.57v2.48H103.72z"/>
					<path class="st1" d="M126.15,65.87v-2.48c0-0.1-0.01-0.19-0.02-0.27c-0.16-1.02-1.18-1.31-1.18-1.31s-0.01,0-0.02,0
						c-0.14,0.05-1.19,0.42-1.19,1.57v2.48H126.15z"/>
				</g>
				<g>
					<g>
						<path class="st1" d="M106.13,52.82h-0.02c-0.26,0-0.47,0.21-0.47,0.47v1.73h0.96v-1.73C106.6,53.03,106.39,52.82,106.13,52.82
							z"/>
						<rect x="105.94" y="55.44" class="st1" width="0.35" height="0.64"/>
					</g>
					<g>
						<path class="st1" d="M108.31,52.82h-0.02c-0.26,0-0.47,0.21-0.47,0.47v1.73h0.96v-1.73
							C108.78,53.03,108.57,52.82,108.31,52.82z"/>
						<rect x="108.12" y="55.44" class="st1" width="0.35" height="0.64"/>
					</g>
					<g>
						<path class="st1" d="M110.49,52.82h-0.02c-0.26,0-0.47,0.21-0.47,0.47v1.73h0.96v-1.73
							C110.96,53.03,110.75,52.82,110.49,52.82z"/>
						<rect x="110.3" y="55.44" class="st1" width="0.35" height="0.64"/>
					</g>
					<g>
						<path class="st1" d="M112.67,52.82h-0.02c-0.26,0-0.47,0.21-0.47,0.47v1.73h0.96v-1.73
							C113.14,53.03,112.93,52.82,112.67,52.82z"/>
						<rect x="112.48" y="55.44" class="st1" width="0.35" height="0.64"/>
					</g>
					<g>
						<path class="st1" d="M114.85,52.82h-0.02c-0.26,0-0.47,0.21-0.47,0.47v1.73h0.96v-1.73
							C115.32,53.03,115.11,52.82,114.85,52.82z"/>
						<rect x="114.66" y="55.44" class="st1" width="0.35" height="0.64"/>
					</g>
					<g>
						<path class="st1" d="M117.03,52.82h-0.02c-0.26,0-0.47,0.21-0.47,0.47v1.73h0.96v-1.73C117.5,53.03,117.29,52.82,117.03,52.82
							z"/>
						<rect x="116.84" y="55.44" class="st1" width="0.35" height="0.64"/>
					</g>
					<g>
						<path class="st1" d="M119.21,52.82h-0.02c-0.26,0-0.47,0.21-0.47,0.47v1.73h0.96v-1.73
							C119.68,53.03,119.47,52.82,119.21,52.82z"/>
						<rect x="119.02" y="55.44" class="st1" width="0.35" height="0.64"/>
					</g>
					<g>
						<path class="st1" d="M121.39,52.82h-0.02c-0.26,0-0.47,0.21-0.47,0.47v1.73h0.96v-1.73
							C121.86,53.03,121.65,52.82,121.39,52.82z"/>
						<rect x="121.19" y="55.44" class="st1" width="0.35" height="0.64"/>
					</g>
				</g>
				<path class="st1" d="M102.26,42.29L102.26,42.29c-0.04,0-0.07,0.03-0.07,0.07v6.88c0,0.04,0.03,0.07,0.07,0.07l0,0
					c0.04,0,0.07-0.03,0.07-0.07v-6.88C102.33,42.32,102.3,42.29,102.26,42.29z"/>
				<path class="st1" d="M125.14,42.29L125.14,42.29c-0.04,0-0.07,0.03-0.07,0.07v6.88c0,0.04,0.03,0.07,0.07,0.07l0,0
					c0.04,0,0.07-0.03,0.07-0.07v-6.88C125.2,42.32,125.17,42.29,125.14,42.29z"/>
			</g>
			<g>
				<rect x="-4.07" y="50.73" class="st1" width="30.63" height="0.79"/>
				<polygon class="st1" points="-2.31,53.14 24.84,53.14 24.27,53.69 -1.72,53.69 				"/>
				<polygon class="st1" points="-3.05,52.46 25.56,52.46 25.11,52.89 -2.59,52.89 				"/>
				<polygon class="st1" points="26.28,51.78 25.84,52.2 -3.33,52.2 -3.79,51.78 				"/>
				<g>
					<path class="st1" d="M4.73,53.68c-0.91,0.24-1.58,0.82-2.07,1.63c-0.47,0.79-0.63,1.73-0.73,2.65
						c-0.18,1.67-0.17,3.35-0.17,5.03c0,0.73,0.01,1.47,0.01,2.21H1.03c-0.04-3.43-0.01-7.88-0.37-9.09
						c-0.34-1.15-1.23-2.12-2.38-2.42L4.73,53.68z"/>
					<path class="st1" d="M11.17,53.69c-1.15,0.3-2.03,1.27-2.37,2.42c-0.36,1.22-0.33,5.67-0.37,9.09H7.69c0-0.74,0-1.48,0.01-2.21
						c0.01-1.68,0.01-3.36-0.17-5.03c-0.1-0.92-0.26-1.86-0.73-2.65c-0.49-0.82-1.16-1.4-2.07-1.63L11.17,53.69z"/>
					<path class="st1" d="M17.82,53.68c-0.91,0.24-1.58,0.82-2.07,1.63c-0.47,0.79-0.63,1.73-0.73,2.65
						c-0.18,1.67-0.17,3.35-0.17,5.03c0,0.73,0.01,1.47,0.01,2.21h-0.74c-0.04-3.43-0.01-7.88-0.37-9.09
						c-0.34-1.15-1.23-2.12-2.37-2.42L17.82,53.68z"/>
					<path class="st1" d="M24.27,53.69c-1.15,0.3-2.03,1.27-2.38,2.42c-0.36,1.22-0.33,5.67-0.37,9.09h-0.74
						c0-0.74,0-1.48,0.01-2.21c0.01-1.68,0.01-3.36-0.17-5.03c-0.1-0.92-0.26-1.86-0.73-2.65c-0.49-0.82-1.16-1.4-2.07-1.63
						L24.27,53.69z"/>
				</g>
				<rect x="8.37" y="61.48" class="st1" width="5.73" height="0.43"/>
				<rect x="8.37" y="62.02" class="st1" width="5.73" height="0.22"/>
				<rect x="8.37" y="62.8" class="st1" width="5.73" height="0.22"/>
				<g>
					<path class="st1" d="M9.74,63.69v1.51H9v-1.51c0-0.2,0.17-0.37,0.37-0.37S9.74,63.49,9.74,63.69z"/>
					<path class="st1" d="M13.35,63.69v1.51h-0.74v-1.51c0-0.2,0.17-0.37,0.37-0.37C13.18,63.32,13.35,63.49,13.35,63.69z"/>
				</g>
				<g>
					<rect x="9.96" y="63.18" class="st1" width="0.33" height="2.02"/>
					<rect x="10.49" y="63.18" class="st1" width="0.33" height="2.02"/>
					<rect x="11.01" y="63.18" class="st1" width="0.33" height="2.02"/>
					<rect x="11.53" y="63.18" class="st1" width="0.33" height="2.02"/>
					<rect x="12.06" y="63.18" class="st1" width="0.33" height="2.02"/>
				</g>
				<path class="st1" d="M12.64,61.7v-4.42c0-0.12-0.01-0.23-0.02-0.33c-0.19-1.24-1.44-1.59-1.44-1.59s-0.01,0-0.02,0.01
					c-0.17,0.06-1.44,0.51-1.44,1.91v4.42H12.64z"/>
				<path class="st1" d="M19.28,57.02v8.18h-2.92v-8.18c0-1.48,1.27-1.96,1.44-2.02c0.01,0,0.02-0.01,0.02-0.01s1.25,0.37,1.44,1.68
					C19.27,56.78,19.28,56.9,19.28,57.02z"/>
				<path class="st1" d="M6.19,57.02v8.18H3.27v-8.18c0-1.48,1.27-1.96,1.44-2.02c0.01,0,0.02-0.01,0.02-0.01s1.25,0.37,1.44,1.68
					C6.18,56.78,6.19,56.9,6.19,57.02z"/>
				<g>
					<path class="st1" d="M6.27,62.19H3.19c-0.06,0-0.11,0.05-0.11,0.11v0.6c0,0.06,0.05,0.11,0.11,0.11h3.08
						c0.06,0,0.11-0.05,0.11-0.11v-0.6C6.38,62.24,6.33,62.19,6.27,62.19z"/>
					<path class="st1" d="M6.25,63.09H3.21c-0.11,0-0.2-0.09-0.2-0.2v-0.57c0-0.11,0.09-0.2,0.2-0.2h3.04c0.11,0,0.2,0.09,0.2,0.2
						v0.57C6.45,63,6.36,63.09,6.25,63.09z M3.21,62.26c-0.03,0-0.06,0.03-0.06,0.06v0.57c0,0.03,0.03,0.06,0.06,0.06h3.04
						c0.03,0,0.06-0.03,0.06-0.06v-0.57c0-0.03-0.03-0.06-0.06-0.06H3.21z"/>
				</g>
				<g>
					<path class="st1" d="M6.27,58.88H3.19c-0.06,0-0.11,0.05-0.11,0.11v0.6c0,0.06,0.05,0.11,0.11,0.11h3.08
						c0.06,0,0.11-0.05,0.11-0.11v-0.6C6.38,58.93,6.33,58.88,6.27,58.88z"/>
					<path class="st1" d="M6.25,59.78H3.21c-0.11,0-0.2-0.09-0.2-0.2v-0.57c0-0.11,0.09-0.2,0.2-0.2h3.04c0.11,0,0.2,0.09,0.2,0.2
						v0.57C6.45,59.69,6.36,59.78,6.25,59.78z M3.21,58.95c-0.03,0-0.06,0.03-0.06,0.06v0.57c0,0.03,0.03,0.06,0.06,0.06h3.04
						c0.03,0,0.06-0.03,0.06-0.06v-0.57c0-0.03-0.03-0.06-0.06-0.06H3.21z"/>
				</g>
				<g>
					<path class="st1" d="M19.36,62.19h-3.08c-0.06,0-0.11,0.05-0.11,0.11v0.6c0,0.06,0.05,0.11,0.11,0.11h3.08
						c0.06,0,0.11-0.05,0.11-0.11v-0.6C19.47,62.24,19.42,62.19,19.36,62.19z"/>
					<path class="st1" d="M19.34,63.09H16.3c-0.11,0-0.2-0.09-0.2-0.2v-0.57c0-0.11,0.09-0.2,0.2-0.2h3.04c0.11,0,0.2,0.09,0.2,0.2
						v0.57C19.54,63,19.45,63.09,19.34,63.09z M16.3,62.26c-0.03,0-0.06,0.03-0.06,0.06v0.57c0,0.03,0.03,0.06,0.06,0.06h3.04
						c0.03,0,0.06-0.03,0.06-0.06v-0.57c0-0.03-0.03-0.06-0.06-0.06H16.3z"/>
				</g>
				<g>
					<path class="st1" d="M19.36,58.88h-3.08c-0.06,0-0.11,0.05-0.11,0.11v0.6c0,0.06,0.05,0.11,0.11,0.11h3.08
						c0.06,0,0.11-0.05,0.11-0.11v-0.6C19.47,58.93,19.42,58.88,19.36,58.88z"/>
					<path class="st1" d="M19.34,59.78H16.3c-0.11,0-0.2-0.09-0.2-0.2v-0.57c0-0.11,0.09-0.2,0.2-0.2h3.04c0.11,0,0.2,0.09,0.2,0.2
						v0.57C19.54,59.69,19.45,59.78,19.34,59.78z M16.3,58.95c-0.03,0-0.06,0.03-0.06,0.06v0.57c0,0.03,0.03,0.06,0.06,0.06h3.04
						c0.03,0,0.06-0.03,0.06-0.06v-0.57c0-0.03-0.03-0.06-0.06-0.06H16.3z"/>
				</g>
				<path class="st1" d="M11.28,39.76L11.28,39.76c-0.07,0-0.12,0.05-0.12,0.12v10.99c0,0.04,0.03,0.07,0.07,0.07h0.1
					c0.04,0,0.07-0.03,0.07-0.07V39.88C11.4,39.81,11.35,39.76,11.28,39.76z"/>
			</g>
			<path class="st1" d="M137.21,65.61H-6.66c-0.14,0-0.25-0.11-0.25-0.25l0,0c0-0.14,0.11-0.25,0.25-0.25h143.86
				c0.14,0,0.25,0.11,0.25,0.25l0,0C137.45,65.5,137.34,65.61,137.21,65.61z"/>
		</g>
	</g>
</g>
</svg>
