<?xml version="1.0" encoding="utf-8"?>
<!-- Generator: Adobe Illustrator 24.3.0, SVG Export Plug-In . SVG Version: 6.00 Build 0)  -->
<svg version="1.1" xmlns="http://www.w3.org/2000/svg" xmlns:xlink="http://www.w3.org/1999/xlink" x="0px" y="0px"
	 viewBox="0 0 128 90" style="enable-background:new 0 0 128 90;" xml:space="preserve">
<style type="text/css">
	.st0{clip-path:url(#SVGID_2_);fill:none;stroke:#181715;stroke-width:0.5;stroke-miterlimit:10;}
</style>
<g id="Layer_2">
</g>
<g id="Layer_1">
	<g>
		<defs>
			<rect id="SVGID_1_" x="3.59" y="20.54" width="120.81" height="48.38"/>
		</defs>
		<clipPath id="SVGID_2_">
			<use xlink:href="#SVGID_1_"  style="overflow:visible;"/>
		</clipPath>
		<polygon class="st0" points="20.68,38.64 20.68,36.31 11.11,36.31 11.11,38.64 11.11,69.27 23.62,69.27 23.62,38.64 		"/>
		<path class="st0" d="M97.9,37.32l-1.38-3.42c-0.11-0.27-0.34-0.44-0.58-0.44h-1.46c-0.25,0-0.47,0.17-0.58,0.44l-1.38,3.42v25.35
			h-1.75v6.6h1.75h5.39h1.75v-6.6H97.9V37.32z"/>
		<polygon class="st0" points="85.59,48.27 85.59,47.62 85.41,47.62 85.41,46.28 84.97,46.28 84.97,47.62 83.81,47.62 83.81,47.23 
			83.21,47.23 83.21,47.62 83.23,47.62 83.23,48.27 78.23,48.27 78.23,69.27 90.16,69.27 90.16,48.27 		"/>
		<polygon class="st0" points="5.8,48.87 5.8,47.61 7.3,47.61 7.3,46.18 11.07,46.18 11.07,48.87 12.33,48.87 12.33,69.27 
			4.62,69.27 4.62,48.87 		"/>
		<path class="st0" d="M99.89,45.7h0.8v-1h1.45v-7.8c0,0,0-0.26,0-1.45c3.8,0,4.52,1.45,4.52,1.45h2.95v32.36h-4.09h-3.38h-3.38
			V46.7h1.14V45.7z"/>
		<polygon class="st0" points="128.84,55.15 128.84,53.37 126.54,53.37 126.54,41.13 120.59,41.13 120.59,56.19 119.44,56.19 
			119.44,57.82 118.29,57.82 118.29,69.27 119.44,69.27 120.59,69.27 121.74,69.27 126.54,69.27 128.57,69.27 128.84,69.27 
			131.81,69.27 131.81,55.15 		"/>
		<polygon class="st0" points="48.53,44.39 52.92,44.39 52.92,47.16 54.58,47.16 54.58,69.27 47.27,69.27 47.27,47.16 48.53,47.16 
					"/>
		<polygon class="st0" points="36.79,50.71 36.79,50.8 34.79,50.8 34.79,48.13 24.59,48.13 24.59,50.8 24.59,69.27 40.2,69.27 
			40.2,50.8 40.2,48.82 		"/>
		<polygon class="st0" points="73.03,44.5 73.03,41.93 72.53,41.93 72.53,40.1 71.94,40.1 71.94,38.26 70.28,38.26 70.28,36.76 
			69.4,36.76 69.4,38.26 67.74,38.26 67.74,40.1 67.15,40.1 67.15,41.93 66.65,41.93 66.65,44.5 66.03,44.5 66.03,69.27 
			73.65,69.27 73.65,44.5 		"/>
		<polygon class="st0" points="95.06,53.6 95.06,52.3 95.06,50.72 83.07,50.72 83.07,52.3 81.9,52.3 81.9,50.72 79.2,50.72 
			79.2,52.3 78.74,52.3 78.74,53.6 77.05,53.6 77.05,56.31 75.49,56.31 75.49,69.27 77.05,69.27 94.46,69.27 96.03,69.27 
			96.03,53.6 		"/>
		<path class="st0" d="M142.91,41.43v27.84h-14.44V51.62h0.22V50.3c0,0-0.09-0.44,0.33-0.44c0-0.35,0-6.54,0-6.54
			s-0.04-0.46,1.6-0.88c1.63-0.42,8.48-1.56,10.65-1.56C142.07,40.88,142.82,41.01,142.91,41.43z"/>
		<polygon class="st0" points="120.87,34.32 118.02,34.32 117.99,34.28 117.99,34.04 117.8,34.04 117.72,33.93 117.72,32.39 
			117.56,32.39 117.51,32.39 117.51,33.89 113.3,34.62 113.3,34.05 113.09,34.05 113.09,32.39 113.04,32.39 112.88,32.39 
			112.88,34.04 112.61,34.04 112.61,35.16 112.23,35.53 110.45,35.75 108.74,36.97 108.74,69.27 122.19,69.27 122.19,35.31 		"/>
		<path class="st0" d="M104.18,47.93h-0.47V47.3h-2.42c0,0-5.73,2.95-6.09,3.22c0,0.63,0,18.75,0,18.75h8.98V47.93z"/>
		<rect x="70.15" y="50.75" class="st0" width="7.22" height="18.52"/>
		<polygon class="st0" points="66.76,39.37 66.76,38.3 66.22,38.3 66.22,37.53 65.43,37.53 65.43,35.02 63.99,33.26 62.64,33.26 
			61.89,32.38 61.89,31.3 61.43,31.3 61.43,30.81 60.2,30.81 58.97,30.81 58.97,31.3 58.51,31.3 58.51,32.38 57.76,33.26 
			56.41,33.26 54.97,35.02 54.97,37.53 54.18,37.53 54.18,38.3 53.64,38.3 53.64,39.37 52.94,39.37 52.94,69.27 60.2,69.27 
			67.46,69.27 67.46,39.37 		"/>
		<polygon class="st0" points="88.33,57.2 88.33,55.99 84.21,55.99 84.21,57.2 79.33,57.2 79.33,69.27 94.06,69.27 94.06,57.2 		"/>
		<path class="st0" d="M48.03,63.3V29.45l-1.7,0.05v-1.29h-0.21v1.3l-0.76,0.02v-1.26h-0.21v1.26l-1.9,0.06v-0.44
			c0,0-0.81,0.12-1.62,0.21v-1.27h-0.21v1.29c-0.21,0.02-0.41,0.04-0.59,0.05v-0.56h-0.21v0.57c-0.06,0-0.12,0-0.17,0
			c-0.84,0-2.42,0.95-2.42,0.95V63.3h-1.87v5.97H49.9V63.3H48.03z"/>
		<polygon class="st0" points="29.81,42.49 29.81,41.8 29.81,36.28 30.45,36.28 30.45,35.91 29.81,35.91 29.81,30.45 29.44,30.45 
			29.44,35.91 28.8,35.91 28.8,36.28 29.44,36.28 29.44,41.8 24.05,41.8 24.05,42.49 21.71,42.49 21.71,69.27 31.41,69.27 
			31.41,42.49 		"/>
		<polygon class="st0" points="2.78,48.43 2.78,46.23 1.75,38.52 -2.71,38.52 -2.71,37.64 -5.96,36.98 -8.84,36.98 -8.84,51.57 
			-9.75,57.08 -9.75,69.27 2.38,69.27 2.78,69.27 7.61,69.27 7.61,53.92 		"/>
		<polygon class="st0" points="16.35,51.96 16.35,51.56 15.33,51.16 12.96,51.16 12.96,51.96 11.11,51.96 11.11,69.27 16.35,69.27 
			18.17,69.27 18.17,52.89 		"/>
		<polygon class="st0" points="128.36,61.56 128.36,60.69 126.24,60.69 126.24,61.56 125.76,61.56 124.89,62.8 121.57,62.8 
			121.57,64.62 114.67,64.62 114.67,69.27 121.57,69.27 121.57,69.23 129.71,69.23 129.71,62.8 128.83,61.56 		"/>
		<polygon class="st0" points="-13.61,69.27 -13.61,62.84 -11.55,60.78 -10.98,60.78 -10.98,62.64 -8.9,62.64 -8.9,60.78 
			-7.02,60.78 -7.02,61.95 -4.25,61.95 -4.25,59.67 -3.26,59.67 -3.26,61.45 1.88,61.45 1.88,60.16 6.14,60.16 7.38,61.4 9.41,61.4 
			9.41,69.27 		"/>
		<polygon class="st0" points="28.52,61.46 28.52,60.96 26.97,60.96 26.64,60.96 26.64,61.46 25.02,61.46 25.02,60.96 23.47,60.96 
			23.14,60.96 23.14,61.46 20.82,61.46 20.82,60.96 19.61,60.96 19.34,60.96 19.34,61.46 16.3,61.46 16.3,69.27 35.34,69.27 
			35.34,61.46 		"/>
		<polygon class="st0" points="143.5,69.27 -13.02,69.27 -13.61,69.27 142.91,69.27 		"/>
	</g>
</g>
</svg>
