<?xml version="1.0" encoding="utf-8"?>
<!-- Generator: Adobe Illustrator 24.3.0, SVG Export Plug-In . SVG Version: 6.00 Build 0)  -->
<svg version="1.1" id="Layer_1" xmlns="http://www.w3.org/2000/svg" xmlns:xlink="http://www.w3.org/1999/xlink" x="0px" y="0px"
	 viewBox="0 0 128 90" style="enable-background:new 0 0 128 90;" xml:space="preserve">
<style type="text/css">
	.st0{clip-path:url(#SVGID_2_);}
	.st1{fill:#FFFFFF;stroke:#000000;stroke-width:0.154;stroke-miterlimit:10;}
	.st2{fill:#DAFFEB;}
	.st3{fill:#FFFFFF;stroke:#000000;stroke-width:0.1343;stroke-miterlimit:10;}
	.st4{fill:#FFFFFF;stroke:#000000;stroke-width:0.1694;stroke-miterlimit:10;}
</style>
<g>
	<defs>
		<rect id="SVGID_1_" x="3.59" y="20.81" width="120.81" height="48.38"/>
	</defs>
	<clipPath id="SVGID_2_">
		<use xlink:href="#SVGID_1_"  style="overflow:visible;"/>
	</clipPath>
	<g class="st0">
		<path class="st1" d="M102.93,73.04c1.27-2.5,2-5.42,2-8.55c0-9.18-6.3-16.62-14.07-16.62c-7.77,0-14.07,7.44-14.07,16.62
			c0,3.13,0.73,6.05,2,8.55H102.93z"/>
		<path d="M104.92,63.89c-0.01-0.24-0.02-0.48-0.04-0.72c-0.11,0.15-0.23,0.3-0.34,0.45c-0.64-0.83-1.25-1.64-1.81-2.39
			c0.4-0.57,0.74-1.09,1.01-1.53c0.13-0.21,0.26-0.44,0.4-0.68c-0.06-0.2-0.12-0.4-0.19-0.6c-0.21,0.37-0.42,0.72-0.61,1.04
			c-0.24,0.4-0.55,0.87-0.9,1.38c-0.67-0.92-1.23-1.75-1.63-2.4c-0.07-0.12-0.15-0.25-0.22-0.37c0.56-0.97,1.15-2.06,1.75-3.16
			c-0.09-0.15-0.18-0.3-0.28-0.45c-0.59,1.09-1.18,2.17-1.74,3.15c-0.56-0.96-1.17-2.07-1.8-3.21c0.48-0.89,0.95-1.77,1.39-2.61
			c-0.11-0.11-0.23-0.22-0.35-0.33c-0.41,0.79-0.86,1.62-1.31,2.46c-0.62-1.14-1.23-2.3-1.79-3.36c0.19-0.35,0.36-0.69,0.53-1.01
			c-0.13-0.08-0.27-0.15-0.41-0.22c-0.12,0.23-0.25,0.48-0.38,0.73c-0.23-0.43-0.44-0.84-0.64-1.22c-0.21-0.09-0.43-0.17-0.65-0.25
			c0.3,0.58,0.65,1.25,1.03,1.97c-0.54,1.04-1.16,2.2-1.78,3.36c-0.62-1.15-1.23-2.3-1.79-3.36c0.48-0.91,0.89-1.72,1.23-2.36
			c-0.16-0.04-0.31-0.07-0.47-0.1c-0.29,0.55-0.63,1.22-1.02,1.96c-0.43-0.83-0.82-1.58-1.13-2.18c-0.05,0-0.09,0-0.14,0
			c-0.13,0-0.25,0.01-0.38,0.01c0.36,0.7,0.84,1.62,1.39,2.67c-0.55,1.05-1.16,2.2-1.78,3.36c-0.62-1.15-1.23-2.31-1.78-3.36
			c0.53-1.02,1-1.92,1.36-2.62c-0.19,0.02-0.37,0.04-0.55,0.07c-0.3,0.58-0.66,1.28-1.07,2.05c-0.31-0.59-0.59-1.14-0.84-1.61
			c-0.15,0.05-0.3,0.1-0.44,0.15c0.29,0.57,0.64,1.23,1.02,1.96c-0.55,1.05-1.17,2.21-1.79,3.36c-0.62-1.16-1.24-2.32-1.78-3.36
			c0.19-0.36,0.37-0.71,0.54-1.04c-0.26,0.15-0.52,0.31-0.77,0.48c-0.01,0.02-0.02,0.04-0.03,0.07c-0.01-0.01-0.01-0.02-0.02-0.03
			c-0.13,0.09-0.26,0.17-0.38,0.26c0.05,0.09,0.09,0.18,0.14,0.27c-0.56,1.06-1.17,2.22-1.79,3.36c-0.26-0.48-0.51-0.96-0.76-1.43
			c-0.11,0.12-0.22,0.25-0.32,0.37c0.27,0.51,0.55,1.02,0.82,1.54c-0.62,1.14-1.24,2.25-1.8,3.21c-0.32-0.56-0.65-1.16-0.99-1.78
			c-0.09,0.17-0.17,0.34-0.25,0.5c0.33,0.6,0.66,1.19,0.97,1.73c-0.08,0.13-0.15,0.25-0.22,0.37c-0.39,0.65-0.96,1.48-1.63,2.4
			c-0.16-0.24-0.31-0.46-0.45-0.67c-0.05,0.21-0.09,0.42-0.13,0.63c0.1,0.14,0.19,0.29,0.3,0.43c-0.15,0.21-0.32,0.42-0.48,0.64
			c-0.04,0.3-0.07,0.6-0.1,0.91c0.3-0.39,0.58-0.77,0.86-1.15c0.52,0.73,1.11,1.53,1.75,2.37c-0.58,0.75-1.19,1.52-1.79,2.27
			c-0.3-0.37-0.59-0.75-0.88-1.12c0.01,0.27,0.02,0.54,0.04,0.8c0.18,0.23,0.36,0.46,0.54,0.69c-0.14,0.17-0.28,0.34-0.41,0.51
			c0.03,0.21,0.06,0.42,0.09,0.62c0.2-0.25,0.41-0.51,0.61-0.77c0.59,0.75,1.19,1.49,1.76,2.2c-0.54,0.67-1.05,1.29-1.51,1.84
			c0.06,0.17,0.13,0.33,0.19,0.49c0.48-0.58,1.03-1.25,1.62-1.97c0.63,0.77,1.23,1.5,1.77,2.16c-0.43,0.52-0.8,0.96-1.08,1.3h0.6
			c0.22-0.27,0.48-0.58,0.78-0.93c0.28,0.34,0.54,0.65,0.77,0.93h0.6c-0.31-0.37-0.67-0.81-1.07-1.29c0.52-0.63,1.13-1.37,1.77-2.16
			c0.63,0.78,1.23,1.51,1.77,2.16c-0.42,0.51-0.79,0.95-1.08,1.3h0.6c0.23-0.27,0.49-0.58,0.78-0.93c0.28,0.34,0.54,0.65,0.77,0.93
			h0.6c-0.31-0.37-0.67-0.8-1.07-1.29c0.53-0.64,1.13-1.37,1.77-2.16c0.64,0.78,1.24,1.52,1.77,2.16c-0.41,0.5-0.78,0.94-1.07,1.29
			h0.6c0.23-0.28,0.49-0.59,0.77-0.93c0.28,0.34,0.54,0.65,0.77,0.93h0.6c-0.3-0.36-0.66-0.8-1.07-1.29
			c0.53-0.65,1.13-1.38,1.77-2.16c0.64,0.79,1.24,1.52,1.77,2.16c-0.41,0.49-0.77,0.93-1.07,1.29h0.6c0.23-0.28,0.49-0.59,0.77-0.93
			c0.29,0.35,0.55,0.66,0.78,0.93h0.6c-0.29-0.35-0.65-0.78-1.08-1.3c0.54-0.65,1.14-1.38,1.77-2.16c0.65,0.79,1.25,1.53,1.77,2.16
			c-0.4,0.49-0.76,0.92-1.07,1.29h0.6c0.24-0.29,0.49-0.59,0.77-0.93c0.29,0.35,0.55,0.66,0.78,0.93h0.6
			c-0.28-0.34-0.64-0.77-1.08-1.3c0.54-0.66,1.14-1.39,1.77-2.16c1.05,1.29,1.98,2.41,2.62,3.18c0.07-0.15,0.15-0.31,0.22-0.46
			c-0.65-0.78-1.54-1.86-2.55-3.09c0.58-0.71,1.17-1.45,1.76-2.2c0.63,0.79,1.25,1.55,1.84,2.27c0.05-0.19,0.09-0.37,0.13-0.56
			c-0.54-0.66-1.11-1.36-1.68-2.08c0.6-0.76,1.19-1.52,1.76-2.26c0.12,0.16,0.25,0.32,0.38,0.48c0-0.12,0.01-0.24,0.01-0.37
			c0-0.13-0.01-0.25-0.01-0.38c-0.03-0.04-0.06-0.08-0.09-0.11C104.87,63.96,104.89,63.92,104.92,63.89z M100.34,58.52
			c0.03,0.05,0.06,0.1,0.09,0.15c0.42,0.69,1.02,1.57,1.74,2.56c-0.51,0.73-1.11,1.54-1.76,2.39c-0.64-0.83-1.25-1.64-1.8-2.39
			c0.45-0.64,0.84-1.22,1.13-1.71C99.94,59.21,100.14,58.87,100.34,58.52z M82.14,61.24c0.67-0.92,1.23-1.74,1.62-2.39
			c0.06-0.1,0.13-0.21,0.19-0.32c0.17,0.29,0.33,0.57,0.49,0.83c0.32,0.53,0.75,1.17,1.25,1.88c-0.54,0.74-1.15,1.55-1.79,2.39
			C83.26,62.78,82.66,61.97,82.14,61.24z M83.61,64c-0.58,0.75-1.18,1.51-1.78,2.27c-0.6-0.76-1.2-1.53-1.77-2.27
			c0.64-0.82,1.24-1.63,1.79-2.37C82.38,62.36,82.97,63.17,83.61,64z M85.97,61.63c0.53,0.74,1.13,1.54,1.77,2.37
			c-0.58,0.75-1.18,1.51-1.78,2.27c-0.6-0.76-1.2-1.53-1.77-2.27C84.83,63.18,85.43,62.38,85.97,61.63z M86.26,61.24
			c0.61-0.85,1.13-1.61,1.5-2.22c0.09-0.16,0.19-0.32,0.29-0.49c0.13,0.23,0.26,0.45,0.39,0.66c0.34,0.57,0.82,1.27,1.38,2.05
			c-0.53,0.74-1.14,1.55-1.78,2.39C87.39,62.78,86.79,61.98,86.26,61.24z M90.1,61.63c0.54,0.74,1.14,1.54,1.77,2.37
			c-0.57,0.75-1.17,1.51-1.77,2.27c-0.6-0.76-1.2-1.52-1.77-2.27C88.96,63.17,89.56,62.37,90.1,61.63z M90.38,61.24
			c0.56-0.78,1.03-1.48,1.38-2.05c0.13-0.21,0.26-0.43,0.39-0.66c0.1,0.17,0.2,0.33,0.29,0.49c0.37,0.61,0.89,1.37,1.5,2.22
			c-0.53,0.74-1.13,1.54-1.77,2.39C91.52,62.79,90.91,61.98,90.38,61.24z M94.22,61.63c0.54,0.74,1.15,1.54,1.78,2.37
			c-0.57,0.74-1.17,1.51-1.77,2.27c-0.6-0.76-1.2-1.52-1.78-2.27C93.09,63.17,93.69,62.37,94.22,61.63z M94.5,61.24
			c0.51-0.71,0.94-1.35,1.25-1.88c0.16-0.26,0.32-0.54,0.49-0.83c0.06,0.11,0.13,0.22,0.19,0.32c0.39,0.65,0.95,1.47,1.62,2.39
			c-0.52,0.73-1.12,1.54-1.76,2.39C95.65,62.79,95.04,61.98,94.5,61.24z M98.34,61.63c0.55,0.75,1.15,1.55,1.79,2.37
			c-0.57,0.74-1.16,1.51-1.77,2.27c-0.6-0.76-1.2-1.52-1.78-2.27C97.22,63.17,97.82,62.36,98.34,61.63z M98.28,54.88
			c0.63,1.15,1.24,2.25,1.79,3.19c-0.25,0.44-0.49,0.85-0.72,1.22c-0.27,0.44-0.62,0.97-1.02,1.55c-0.62-0.86-1.14-1.62-1.5-2.23
			c-0.1-0.17-0.21-0.35-0.32-0.54C97.07,57.09,97.67,55.99,98.28,54.88z M96.23,51.05c0.56,1.07,1.17,2.22,1.79,3.35
			c-0.6,1.12-1.21,2.22-1.77,3.21c-0.56-0.97-1.17-2.07-1.79-3.21C95.07,53.25,95.68,52.09,96.23,51.05z M94.19,54.88
			c0.62,1.14,1.23,2.24,1.79,3.19c-0.21,0.37-0.42,0.73-0.62,1.05c-0.29,0.49-0.68,1.07-1.14,1.72c-0.56-0.79-1.04-1.49-1.38-2.06
			c-0.13-0.22-0.28-0.46-0.42-0.71C92.97,57.1,93.58,56,94.19,54.88z M92.14,51.05c0.56,1.06,1.17,2.21,1.78,3.35
			c-0.61,1.12-1.22,2.23-1.78,3.21c-0.56-0.98-1.17-2.08-1.79-3.21C90.97,53.25,91.59,52.1,92.14,51.05z M91.88,58.07
			c-0.18,0.31-0.35,0.6-0.52,0.88c-0.32,0.53-0.75,1.18-1.26,1.9c-0.51-0.72-0.94-1.37-1.26-1.9c-0.17-0.28-0.34-0.57-0.52-0.88
			c0.56-0.96,1.17-2.06,1.78-3.19C90.71,56.01,91.32,57.11,91.88,58.07z M88.05,51.05c0.55,1.05,1.16,2.21,1.78,3.35
			c-0.61,1.13-1.22,2.24-1.79,3.21c-0.56-0.98-1.17-2.09-1.78-3.21C86.88,53.26,87.49,52.11,88.05,51.05z M87.78,58.07
			c-0.14,0.25-0.29,0.49-0.42,0.71c-0.34,0.57-0.82,1.28-1.38,2.07c-0.46-0.65-0.85-1.24-1.14-1.72c-0.2-0.32-0.4-0.68-0.62-1.05
			c0.55-0.95,1.17-2.05,1.79-3.19C86.61,56,87.22,57.1,87.78,58.07z M83.96,51.05c0.55,1.05,1.16,2.2,1.78,3.35
			c-0.62,1.14-1.23,2.24-1.79,3.21c-0.56-0.99-1.17-2.09-1.77-3.21C82.79,53.26,83.4,52.11,83.96,51.05z M81.91,54.88
			c0.6,1.12,1.21,2.21,1.77,3.19c-0.11,0.19-0.22,0.37-0.32,0.54c-0.37,0.61-0.89,1.38-1.5,2.23c-0.41-0.58-0.76-1.11-1.02-1.55
			c-0.23-0.38-0.47-0.79-0.72-1.22C80.67,57.12,81.29,56.02,81.91,54.88z M78.02,61.24c0.72-0.99,1.33-1.87,1.74-2.56
			c0.03-0.05,0.06-0.1,0.09-0.15c0.2,0.35,0.4,0.69,0.59,1c0.29,0.48,0.68,1.07,1.13,1.71c-0.55,0.75-1.16,1.56-1.8,2.39
			C79.13,62.77,78.53,61.96,78.02,61.24z M77.99,66.64c0.6-0.75,1.2-1.51,1.78-2.26c0.57,0.74,1.16,1.5,1.76,2.26
			c-0.61,0.76-1.21,1.5-1.78,2.21C79.18,68.14,78.58,67.39,77.99,66.64z M81.82,71.38c-0.54-0.66-1.14-1.39-1.77-2.16
			c0.57-0.7,1.17-1.44,1.78-2.2c0.6,0.75,1.19,1.49,1.77,2.2C82.95,70.01,82.34,70.74,81.82,71.38z M82.12,66.64
			c0.6-0.75,1.2-1.52,1.78-2.26c0.57,0.74,1.17,1.51,1.77,2.26c-0.6,0.76-1.2,1.5-1.78,2.21C83.31,68.14,82.72,67.39,82.12,66.64z
			 M85.96,71.38c-0.54-0.65-1.14-1.39-1.77-2.16c0.57-0.7,1.17-1.45,1.77-2.2c0.6,0.75,1.19,1.49,1.77,2.2
			C87.09,70,86.49,70.74,85.96,71.38z M86.26,66.64c0.6-0.75,1.2-1.52,1.77-2.26c0.57,0.74,1.17,1.51,1.77,2.26
			c-0.6,0.76-1.2,1.5-1.77,2.21C87.45,68.14,86.85,67.4,86.26,66.64z M90.1,71.38c-0.53-0.65-1.14-1.38-1.77-2.16
			c0.57-0.71,1.17-1.45,1.77-2.2c0.6,0.76,1.2,1.5,1.77,2.2C91.23,70,90.63,70.73,90.1,71.38z M92.16,68.85
			c-0.57-0.71-1.17-1.45-1.77-2.21c0.6-0.76,1.2-1.52,1.77-2.26c0.58,0.75,1.18,1.51,1.77,2.26C93.34,67.4,92.74,68.14,92.16,68.85z
			 M94.23,71.38c-0.53-0.64-1.13-1.38-1.77-2.16c0.57-0.71,1.17-1.45,1.77-2.2c0.6,0.76,1.2,1.5,1.77,2.2
			C95.37,70,94.77,70.73,94.23,71.38z M96.3,68.85c-0.57-0.71-1.17-1.45-1.78-2.21c0.6-0.76,1.2-1.52,1.77-2.26
			c0.58,0.75,1.18,1.51,1.78,2.26C97.47,67.39,96.88,68.14,96.3,68.85z M98.37,71.38c-0.53-0.64-1.13-1.37-1.78-2.16
			c0.57-0.71,1.17-1.45,1.77-2.2c0.61,0.76,1.21,1.5,1.78,2.2C99.51,69.99,98.92,70.72,98.37,71.38z M100.44,68.85
			c-0.57-0.7-1.17-1.45-1.78-2.21c0.6-0.76,1.2-1.52,1.76-2.26c0.58,0.75,1.18,1.51,1.78,2.26
			C101.61,67.39,101.01,68.14,100.44,68.85z M102.5,66.27c-0.6-0.75-1.2-1.52-1.79-2.27c0.64-0.84,1.23-1.64,1.75-2.37
			c0.55,0.75,1.16,1.55,1.8,2.37C103.69,64.74,103.1,65.51,102.5,66.27z"/>
	</g>
	<g class="st0">
		<rect x="15.37" y="39.64" width="4.2" height="1.67"/>
		<rect x="12.57" y="41.17" width="2.27" height="0.2"/>
		<rect x="10.93" y="41.17" class="st2" width="1.14" height="0.2"/>
		<path class="st1" d="M19.51,39.17v-7.81h-0.7h-0.09l-0.05,0.04c-0.13,0.11-0.26,0.22-0.39,0.33v-6.37h-0.2v6.54
			c-0.59,0.51-1.17,1.05-1.73,1.6C8.91,40.84,4.21,51.89,5.03,62.19l0.73,8.64h1.03l-0.67-8.64C5.37,52.03,9.6,41.12,16.34,33.79
			v5.38h-3.17c-3.76,6.77-5.9,15.12-5.39,23.02l0.79,11.44h11.44V39.17H19.51z"/>
		<rect x="15.37" y="41.62" width="4.2" height="1.67"/>
		<rect x="15.37" y="43.6" width="4.2" height="1.67"/>
		<rect x="15.37" y="45.58" width="4.2" height="1.67"/>
		<rect x="15.37" y="47.56" width="4.2" height="1.67"/>
		<rect x="15.37" y="49.54" width="4.2" height="1.67"/>
		<rect x="15.37" y="51.52" width="4.2" height="1.67"/>
		<rect x="15.37" y="53.5" width="4.2" height="1.67"/>
		<rect x="15.37" y="55.48" width="4.2" height="1.67"/>
		<rect x="15.37" y="57.46" width="4.2" height="1.67"/>
		<rect x="15.37" y="59.44" width="4.2" height="1.67"/>
		<rect x="15.37" y="61.42" width="4.2" height="1.67"/>
		<rect x="15.37" y="63.4" width="4.2" height="1.67"/>
		<rect x="15.37" y="65.38" width="4.2" height="1.67"/>
		<rect x="15.37" y="67.36" width="4.2" height="1.67"/>
		<rect x="14.29" y="69.35" width="4.2" height="1.67"/>
		<rect x="11.97" y="43.14" width="2.87" height="0.2"/>
		<rect x="11.17" y="45.01" width="3.67" height="0.2"/>
		<rect x="10.37" y="46.94" width="4.47" height="0.2"/>
		<rect x="9.97" y="49.08" width="4.87" height="0.2"/>
		<rect x="9.37" y="50.95" width="5.47" height="0.2"/>
		<rect x="8.77" y="53.01" width="6.07" height="0.2"/>
		<rect x="8.37" y="54.88" width="6.47" height="0.2"/>
		<rect x="8.37" y="56.95" width="6.47" height="0.2"/>
		<rect x="8.37" y="59.02" width="6.47" height="0.2"/>
		<rect x="8.17" y="61.09" width="6.67" height="0.2"/>
		<rect x="8.37" y="62.95" width="6.47" height="0.2"/>
		<rect x="8.37" y="64.82" width="6.47" height="0.2"/>
		<rect x="8.57" y="66.89" width="6.27" height="0.2"/>
		<rect x="8.3" y="68.96" width="5.45" height="0.2"/>
		<rect x="8.5" y="70.63" width="5.25" height="0.2"/>
		<rect x="9.96" y="43.14" width="1.29" height="0.2"/>
		<polygon points="10.52,45.01 9.04,45.01 9.04,45.21 10.32,45.21 		"/>
		<polygon points="9.75,46.94 8.48,46.94 8.28,47.14 9.75,47.14 		"/>
		<rect x="7.63" y="49.08" width="1.57" height="0.2"/>
		<rect x="7.19" y="50.95" width="1.51" height="0.2"/>
		<rect x="6.64" y="53.01" width="1.66" height="0.2"/>
		<rect x="6.35" y="54.88" width="1.75" height="0.2"/>
		<rect x="6.15" y="56.95" width="1.55" height="0.2"/>
		<rect x="6.15" y="59.02" width="1.55" height="0.2"/>
		<rect x="6.1" y="61.09" width="1.6" height="0.2"/>
		<rect x="6.15" y="62.95" width="1.55" height="0.2"/>
		<rect x="6.35" y="64.82" width="1.55" height="0.2"/>
		<rect x="6.39" y="66.89" width="1.71" height="0.2"/>
		<rect x="6.64" y="68.96" width="1.66" height="0.2"/>
		<rect x="6.69" y="70.63" width="1.61" height="0.2"/>
	</g>
	<g class="st0">
		<g>
			<path class="st1" d="M74.16,70.34c-0.11-1.16-0.84-3.97-1.55-6.69C71.82,60.62,71,57.49,71,56.47c0-3.92,1.58-14.45,2-17.17
				c0.11-0.39,0.17-0.61,0.18-0.64c0-0.12,0-0.19,0-0.19s-3.59,12.84-3.7,15.81c-0.04,1.27,0.16,3.46,0.44,5.75
				c0.36,1.24,0.69,2.35,0.77,2.63l0.02,0.06c1.01,3.53,1.3,5.5,1.37,6.53c0.08,1.2-0.11,3.03-0.3,4.5h2.2
				C74.14,72.65,74.26,71.39,74.16,70.34z"/>
			<path class="st1" d="M71.93,69.25c-0.07-1.02-0.36-2.98-1.37-6.5l-0.02-0.06c-0.06-0.21-0.26-0.88-0.51-1.73
				c0.35,2.79,0.75,5.55,0.89,6.77c0.16,1.51-0.57,4.37-1.1,6.01h1.79C71.82,72.27,72.01,70.45,71.93,69.25z"/>
			<path class="st1" d="M76.27,66.4c-0.51-3.49-2.57-8.21-2.88-10.88c-0.27-2.31-0.23-13.4-0.21-16.33
				c-0.38,2.49-2.02,13.31-2.02,17.29c0,1,0.82,4.12,1.6,7.15c0.74,2.85,1.44,5.53,1.55,6.71c0.1,1.06-0.02,2.32-0.18,3.41h1.24
				C75.85,72.09,76.63,68.88,76.27,66.4z"/>
			<path d="M73.18,39.17c0-0.33,0-0.52,0-0.52s0,0,0,0C73.18,38.78,73.18,38.95,73.18,39.17C73.18,39.18,73.18,39.17,73.18,39.17z"
				/>
			<path d="M74.31,70.32c-0.11-1.18-0.81-3.86-1.55-6.71c-0.79-3.02-1.6-6.14-1.6-7.15c0-3.98,1.64-14.8,2.02-17.29
				c0-0.22,0-0.4,0-0.52c-0.01,0.02-0.07,0.25-0.18,0.64c-0.42,2.73-2,13.25-2,17.17c0,1.02,0.82,4.15,1.61,7.18
				c0.71,2.71,1.44,5.52,1.55,6.69c0.1,1.05-0.02,2.31-0.18,3.4h0.16C74.3,72.64,74.41,71.38,74.31,70.32z"/>
			<path d="M69.92,60.01c0.04,0.31,0.07,0.62,0.11,0.94c0,0.01,0,0.01,0.01,0.02c-0.04-0.31-0.08-0.63-0.11-0.94
				C69.92,60.02,69.92,60.02,69.92,60.01z"/>
			<path d="M72.08,69.24c-0.07-1.03-0.36-3-1.37-6.53l-0.02-0.06c-0.08-0.28-0.4-1.38-0.77-2.63c0.04,0.31,0.08,0.62,0.11,0.94
				c0.25,0.85,0.45,1.52,0.51,1.73l0.02,0.06c1.01,3.51,1.3,5.47,1.37,6.5c0.08,1.2-0.11,3.02-0.3,4.49h0.16
				C71.98,72.27,72.16,70.44,72.08,69.24z"/>
		</g>
		<g>
			<path class="st1" d="M60.67,57.96c-0.14,0.62-0.25,1.19-0.32,1.68c-0.45,3.08,1.67,11.41,2.39,14.09h1.03
				c-1.22-4.72-2.72-10.79-2.88-12.39C60.81,60.49,60.73,59.26,60.67,57.96z"/>
			<path class="st1" d="M65.28,57.19c-0.19,1.75,1.8,11.79,2.84,16.55h0.48c-0.75-3.42-2.64-12.08-2.7-13.56
				c-0.08-1.85,1.77-12.71,1.62-15.48s-3.47-13.09-3.47-13.09s0,0.27-0.01,0.73c0.56,3.15,1.58,8.87,1.85,10.51
				C66.28,45.16,65.52,54.94,65.28,57.19z"/>
			<path class="st1" d="M60.67,57.96c0.04-0.19,0.08-0.38,0.13-0.57C60.75,57.58,60.71,57.77,60.67,57.96z"/>
			<path class="st1" d="M62.43,59.17c0.07-0.64,0.27-1.94,0.53-3.58c0.62-3.94,1.56-9.9,1.4-12.2c-0.08-1.19-0.23-3.39-0.39-5.69
				c0,0,0-0.01,0-0.01c-0.05,2.79-0.12,5.8-0.23,7.31c-0.19,2.67-2.01,8.38-2.94,12.38c0.06,1.5,0.15,2.97,0.24,3.94
				c0.15,1.59,1.67,7.68,2.88,12.41h2.26C64.73,69.04,62.26,60.78,62.43,59.17z"/>
			<path class="st1" d="M64.03,32.94c0,0,0-0.01,0-0.01C64.03,32.93,64.03,32.94,64.03,32.94z"/>
			<path class="st1" d="M64.04,32.53c0-0.01,0-0.02,0-0.03C64.04,32.51,64.04,32.52,64.04,32.53z"/>
			<path class="st1" d="M65.13,57.17c0.23-2.17,0.99-12.03,0.62-14.3c-0.25-1.5-1.13-6.46-1.71-9.7c-0.01,0.72-0.02,1.64-0.03,2.67
				c0.19,2.91,0.4,6.05,0.51,7.56c0.17,2.31-0.78,8.28-1.4,12.23c-0.26,1.64-0.46,2.93-0.53,3.57c-0.16,1.57,2.32,9.87,3.76,14.55
				h1.61C66.92,68.95,64.94,58.92,65.13,57.17z"/>
			<path class="st1" d="M63.98,37.26c0-0.02,0-0.04,0-0.05C63.98,37.22,63.98,37.24,63.98,37.26z"/>
			<polygon points="60.8,57.39 60.8,57.39 60.8,57.39 			"/>
			<polygon points="60.67,57.96 60.67,57.96 60.67,57.96 			"/>
			<path d="M60.8,57.39C60.8,57.39,60.8,57.39,60.8,57.39c-0.05,0.19-0.09,0.39-0.13,0.57c0,0,0,0,0,0c0.06,1.3,0.14,2.53,0.22,3.39
				c0.15,1.6,1.66,7.67,2.88,12.39h0.16c-1.22-4.72-2.73-10.81-2.88-12.41C60.95,60.36,60.86,58.89,60.8,57.39z"/>
			<path d="M63.97,37.7c0-0.15,0.01-0.3,0.01-0.45C63.97,37.41,63.97,37.55,63.97,37.7z"/>
			<path d="M64,35.83c-0.01,0.44-0.01,0.9-0.02,1.37C63.99,36.73,63.99,36.27,64,35.83L64,35.83z"/>
			<path d="M62.58,59.19c0.07-0.64,0.27-1.93,0.53-3.57c0.62-3.95,1.56-9.92,1.4-12.23c-0.11-1.51-0.32-4.65-0.51-7.56
				c-0.01,0.44-0.01,0.9-0.02,1.37c0,0.02,0,0.04,0,0.05c0,0.15,0,0.3-0.01,0.45c0,0,0,0.01,0,0.01c0.15,2.3,0.3,4.5,0.39,5.69
				c0.16,2.3-0.77,8.25-1.4,12.2c-0.26,1.64-0.46,2.93-0.53,3.58c-0.17,1.61,2.3,9.87,3.75,14.56h0.16
				C64.9,69.06,62.42,60.76,62.58,59.19z"/>
			<path d="M64.03,32.93c0-0.15,0-0.28,0-0.4C64.04,32.65,64.04,32.78,64.03,32.93z"/>
			<path d="M64.03,33.17C64.03,33.17,64.03,33.17,64.03,33.17c0-0.08,0-0.15,0-0.23C64.03,33.01,64.03,33.09,64.03,33.17z"/>
			<path d="M64.04,32.34c0,0.05,0,0.11,0,0.16C64.04,32.44,64.04,32.39,64.04,32.34C64.04,32.34,64.04,32.34,64.04,32.34z"/>
			<path d="M65.28,57.19c0.24-2.25,1-12.02,0.62-14.35c-0.27-1.64-1.29-7.35-1.85-10.51c0,0.05,0,0.11,0,0.16c0,0.01,0,0.02,0,0.03
				c0,0.12,0,0.26,0,0.4c0,0,0,0.01,0,0.01c0,0.07,0,0.15,0,0.23c0.58,3.24,1.46,8.2,1.71,9.7c0.38,2.27-0.38,12.13-0.62,14.3
				c-0.19,1.75,1.79,11.78,2.83,16.57h0.16C67.08,68.98,65.09,58.93,65.28,57.19z"/>
		</g>
		<g>
			<path class="st1" d="M55.21,40.33c0.03-0.11,0.05-0.2,0.07-0.28C55.26,40.13,55.23,40.22,55.21,40.33z"/>
			<path class="st1" d="M53.18,48.04c0.03-0.14,0.07-0.28,0.11-0.42C53.25,47.76,53.21,47.9,53.18,48.04z"/>
			<path class="st1" d="M55.27,40.14c0,0.01,0,0.03,0,0.04C55.27,40.17,55.27,40.16,55.27,40.14z"/>
			<path class="st1" d="M55.13,40.6c0-0.01,0-0.01,0.01-0.02C55.14,40.59,55.14,40.6,55.13,40.6z"/>
			<path class="st1" d="M55.06,40.91c0-0.01,0.01-0.03,0.01-0.04C55.06,40.88,55.06,40.89,55.06,40.91z"/>
			<path class="st1" d="M55.26,40.25c0,0.02,0,0.04,0,0.06C55.26,40.29,55.26,40.27,55.26,40.25z"/>
			<path class="st1" d="M55.15,40.54c0.02-0.07,0.04-0.14,0.05-0.2C55.19,40.4,55.17,40.47,55.15,40.54z"/>
			<path class="st1" d="M53.3,47.57c0.03-0.14,0.07-0.27,0.1-0.41C53.36,47.29,53.33,47.43,53.3,47.57z"/>
			<path class="st1" d="M55.26,40.37c0,0.02,0,0.04,0,0.06C55.26,40.42,55.26,40.39,55.26,40.37z"/>
			<path class="st1" d="M57.91,68.71c-0.12-3.8-2.77-10.93-3.08-11.73c-1.02-2.71-1.04-7.35-0.72-9.64c0.18-1.33,0.6-4.21,0.91-6.31
				c-0.37,1.41-1.03,3.82-1.62,6.12c-0.06,0.43-0.12,0.8-0.17,0.99c-0.14,0.6-0.78,5.64-0.36,7.56c0.16,0.74,0.6,2.04,1.1,3.55
				c0.77,2.3,1.73,5.17,1.98,6.93c0.25,1.76,0,5.18-0.23,7.56h1.66C57.67,72.32,57.97,70.41,57.91,68.71z"/>
			<path class="st1" d="M55.81,66.2c-0.25-1.75-1.21-4.6-1.97-6.9c-0.51-1.52-0.94-2.82-1.11-3.57c-0.34-1.56,0.01-5.15,0.23-6.81
				c0.07-0.28,0.14-0.58,0.22-0.87c-0.54,2.17-0.99,4.12-1.01,4.89c-0.08,2.16,1.69,9.55,1.69,11.09c0,1.17-1.16,7-1.72,9.7h3.44
				C55.81,71.37,56.06,67.95,55.81,66.2z"/>
			<path class="st1" d="M59.4,65.34c-0.62-4.77-3.08-9.4-3.54-11.47c-0.4-1.8-0.68-10.72-0.6-13.36c0,0.01,0,0.02,0,0.03
				c-0.31,2.13-0.79,5.38-0.99,6.83c-0.31,2.27-0.3,6.88,0.71,9.56c0.3,0.8,2.96,7.96,3.09,11.78c0.05,1.7-0.23,3.61-0.52,5.03h0.53
				C58.79,71.92,59.82,68.58,59.4,65.34z"/>
			<path d="M55.32,39.77c-0.02,0.03-0.03,0.12-0.04,0.27C55.33,39.83,55.34,39.73,55.32,39.77z"/>
			<path d="M53.17,48.05C53.17,48.05,53.18,48.04,53.17,48.05C53.18,48.04,53.17,48.05,53.17,48.05z"/>
			<path d="M53.4,47.14c0,0,0,0.01,0,0.01C53.4,47.15,53.4,47.15,53.4,47.14C53.4,47.14,53.4,47.14,53.4,47.14z"/>
			<path d="M53.28,47.62c0-0.02,0.01-0.03,0.01-0.05C53.29,47.59,53.29,47.6,53.28,47.62z"/>
			<path d="M55.96,66.18c-0.25-1.76-1.21-4.63-1.98-6.93c-0.51-1.51-0.94-2.82-1.1-3.55c-0.42-1.93,0.22-6.97,0.36-7.56
				c0.04-0.19,0.1-0.56,0.17-0.99c0,0,0,0.01,0,0.01c-0.04,0.14-0.07,0.27-0.1,0.41c0,0.02-0.01,0.03-0.01,0.05
				c-0.04,0.14-0.07,0.28-0.11,0.42c0,0,0,0.01,0,0.01c-0.07,0.3-0.15,0.59-0.22,0.87c-0.22,1.66-0.57,5.25-0.23,6.81
				c0.16,0.74,0.6,2.05,1.11,3.57c0.77,2.3,1.72,5.15,1.97,6.9c0.25,1.75,0,5.17-0.23,7.54h0.15
				C55.96,71.36,56.21,67.94,55.96,66.18z"/>
			<path d="M55.02,41.02L55.02,41.02c0.01-0.04,0.02-0.08,0.03-0.12C55.05,40.95,55.04,40.98,55.02,41.02z"/>
			<path d="M55.26,40.44c0,0.02,0,0.04,0,0.07C55.25,40.48,55.25,40.46,55.26,40.44z"/>
			<path d="M55.27,40.19c0,0.02,0,0.04,0,0.07C55.26,40.23,55.27,40.21,55.27,40.19z"/>
			<path d="M55.26,40.31c0,0.02,0,0.04,0,0.06C55.26,40.35,55.26,40.33,55.26,40.31z"/>
			<path d="M55.28,40.05c0,0.03,0,0.06-0.01,0.1C55.27,40.11,55.27,40.08,55.28,40.05z"/>
			<path d="M55.14,40.59c0-0.02,0.01-0.03,0.01-0.04C55.15,40.56,55.14,40.57,55.14,40.59z"/>
			<path d="M55.07,40.87c0.02-0.09,0.05-0.18,0.07-0.26C55.11,40.69,55.09,40.78,55.07,40.87z"/>
			<path d="M55.2,40.34C55.2,40.34,55.2,40.33,55.2,40.34C55.2,40.33,55.2,40.34,55.2,40.34z"/>
			<path d="M58.07,68.7c-0.12-3.83-2.78-10.98-3.09-11.78c-1.01-2.68-1.02-7.29-0.71-9.56c0.2-1.45,0.67-4.7,0.99-6.83
				c0-0.01,0-0.02,0-0.03c0-0.02,0-0.05,0-0.07c0-0.02,0-0.04,0-0.06c0-0.02,0-0.04,0-0.06c0-0.02,0-0.04,0-0.06
				c0-0.02,0-0.04,0-0.07c0-0.01,0-0.03,0-0.04c0-0.03,0-0.07,0.01-0.1c-0.02,0.08-0.04,0.17-0.07,0.28c0,0,0,0.01,0,0.01
				c-0.02,0.06-0.03,0.13-0.05,0.2c0,0.02-0.01,0.03-0.01,0.04c0,0.01,0,0.01-0.01,0.02c-0.02,0.08-0.04,0.17-0.07,0.26
				c0,0.01-0.01,0.03-0.01,0.04c-0.01,0.04-0.02,0.08-0.03,0.12c-0.31,2.11-0.73,4.98-0.91,6.31c-0.31,2.29-0.3,6.93,0.72,9.64
				c0.3,0.8,2.95,7.93,3.08,11.73c0.05,1.7-0.24,3.61-0.52,5.03h0.16C57.83,72.31,58.12,70.4,58.07,68.7z"/>
		</g>
		<g>
			<path class="st1" d="M48.55,48.62c0-0.01,0-0.01,0-0.02C48.55,48.6,48.55,48.61,48.55,48.62z"/>
			<path class="st1" d="M48.31,63.73c0.02-0.11,0.04-0.21,0.06-0.32C48.35,63.51,48.33,63.62,48.31,63.73z"/>
			<path class="st1" d="M47.93,66.49c0.03-0.25,0.07-0.5,0.12-0.77c0.09-0.53,0.18-1.11,0.22-1.78c-0.44,1.94-1.74,6.84-2.03,7.88
				c-0.14,0.5-0.2,1.26-0.23,1.93h0.83c0.06-0.81,0.14-1.62,0.24-2.17C47.38,70.01,47.77,67.76,47.93,66.49z"/>
			<path class="st1" d="M48.56,49.04c0-0.08,0-0.15,0-0.22C48.55,48.89,48.56,48.96,48.56,49.04z"/>
			<path class="st1" d="M48.56,49.3c0-0.08,0-0.15,0-0.23C48.56,49.14,48.56,49.22,48.56,49.3z"/>
			<path class="st1" d="M48.59,51.31c0-0.03,0-0.06,0-0.09C48.59,51.25,48.59,51.28,48.59,51.31z"/>
			<path class="st1" d="M49.62,61.34c-0.08-1.37-0.92-9.31-0.92-9.39l-0.1-0.38c0-0.02,0-0.04,0-0.05c0.04,2.67,0.07,6.09,0.02,7.12
				c-0.07,1.56,0.04,2.94-0.19,4.45c0.04,1.04-0.11,1.9-0.23,2.64c-0.04,0.27-0.09,0.53-0.12,0.77c-0.16,1.27-0.55,3.53-0.85,5.09
				c-0.1,0.55-0.18,1.34-0.24,2.14h2.11c0.02-1.96,0.08-4.44,0.21-5.33C49.54,66.91,49.7,62.73,49.62,61.34z"/>
			<path class="st1" d="M50.62,59.43c-0.24-0.81-0.71-3.17-1.08-5.07c-0.22-1.1-0.4-2.04-0.46-2.25c-0.07-0.26-0.3-1.53-0.52-2.8
				c0.01,0.46,0.02,1.02,0.02,1.64c0,0,0-0.01,0-0.01l0.26,0.97c0.01,0.09,0.85,8.04,0.93,9.41c0.08,1.4-0.08,5.59-0.31,7.1
				c-0.13,0.87-0.19,3.35-0.21,5.3h1.29c0.41-2.25,0.95-5.46,1-7.01C51.62,64.09,50.97,60.62,50.62,59.43z"/>
			<path class="st1" d="M52.39,61.34c-0.23-1.31-2.54-8.78-2.7-9.47c-0.15-0.69-1.16-3.77-1.16-3.77s0,0.08,0,0.22
				c0.26,1.51,0.6,3.45,0.69,3.76c0.06,0.21,0.24,1.11,0.46,2.26c0.35,1.79,0.84,4.25,1.08,5.06c0.35,1.2,1.01,4.69,0.93,7.34
				c-0.05,1.55-0.58,4.75-1,7.01h0.56c0.24-1.26,0.84-4.5,1.21-6.93C52.93,63.73,52.62,62.65,52.39,61.34z"/>
			<path d="M48.55,48.82c0-0.07,0-0.14,0-0.2C48.55,48.68,48.55,48.74,48.55,48.82z"/>
			<path d="M48.56,49.32L48.56,49.32c0-0.01,0-0.02,0-0.02C48.56,49.3,48.56,49.31,48.56,49.32z"/>
			<path d="M48.56,49.07c0-0.01,0-0.02,0-0.03C48.56,49.05,48.56,49.06,48.56,49.07z"/>
			<path d="M48.55,48.31c0,0.08,0,0.17,0,0.28C48.55,48.49,48.55,48.39,48.55,48.31L48.55,48.31z"/>
			<path d="M50.77,59.39c-0.24-0.81-0.72-3.26-1.08-5.06c-0.23-1.15-0.4-2.05-0.46-2.26c-0.09-0.32-0.43-2.25-0.69-3.76
				c0,0.08,0,0.17,0,0.28c0,0.01,0,0.01,0,0.02c0,0.06,0,0.13,0,0.2c0,0.07,0,0.14,0,0.22c0,0.01,0,0.02,0,0.03
				c0,0.07,0,0.15,0,0.23c0,0.01,0,0.02,0,0.02c0.22,1.27,0.45,2.54,0.52,2.8c0.06,0.2,0.24,1.15,0.46,2.25
				c0.37,1.9,0.84,4.26,1.08,5.07c0.35,1.19,1,4.66,0.92,7.29c-0.05,1.55-0.59,4.76-1,7.01h0.16c0.41-2.25,0.95-5.46,1-7.01
				C51.78,64.08,51.12,60.59,50.77,59.39z"/>
			<path d="M48.59,51.52c0-0.07,0-0.14,0-0.21C48.59,51.38,48.59,51.45,48.59,51.52z"/>
			<path d="M48.59,51.22c0-0.09,0-0.18,0-0.26C48.59,51.04,48.59,51.13,48.59,51.22z"/>
			<path d="M49.77,61.33c-0.08-1.37-0.92-9.32-0.93-9.41l-0.26-0.97c0,0,0,0.01,0,0.01c0,0.09,0,0.17,0,0.26c0,0.03,0,0.06,0,0.09
				c0,0.07,0,0.14,0,0.21c0,0.02,0,0.04,0,0.05l0.1,0.38c0.01,0.08,0.85,8.02,0.92,9.39c0.08,1.39-0.08,5.57-0.31,7.07
				c-0.13,0.88-0.19,3.37-0.21,5.33h0.15c0.02-1.95,0.08-4.43,0.21-5.3C49.69,66.92,49.85,62.73,49.77,61.33z"/>
			<path d="M48.26,63.93C48.26,63.93,48.26,63.93,48.26,63.93c0.02-0.07,0.03-0.14,0.05-0.21C48.3,63.79,48.28,63.86,48.26,63.93z"
				/>
			<path d="M48.43,63.1c-0.02,0.1-0.03,0.21-0.05,0.31C48.39,63.3,48.41,63.2,48.43,63.1L48.43,63.1z"/>
			<path d="M48.08,66.51c0.03-0.24,0.07-0.5,0.12-0.77c0.12-0.74,0.27-1.6,0.23-2.64c-0.02,0.1-0.03,0.21-0.05,0.31
				c-0.02,0.11-0.04,0.21-0.06,0.32c-0.01,0.06-0.03,0.13-0.05,0.21c-0.04,0.67-0.13,1.26-0.22,1.78c-0.05,0.27-0.09,0.53-0.12,0.77
				c-0.16,1.27-0.55,3.52-0.85,5.08c-0.11,0.55-0.18,1.36-0.24,2.17h0.15c0.06-0.81,0.13-1.6,0.24-2.14
				C47.53,70.04,47.92,67.78,48.08,66.51z"/>
		</g>
	</g>
	<g class="st0">
		<g>
			<polygon class="st1" points="119.43,38.75 119.43,35.84 118.94,35.84 118.94,32.4 118.45,32.4 118.45,41.98 118.57,41.98 
				118.57,44.31 119.19,44.31 119.19,73.4 124.34,73.4 125.08,43.69 			"/>
			<rect x="118.08" y="48.36" class="st1" width="5.03" height="14.37"/>
			<rect x="120.66" y="43.94" width="2.21" height="3.44"/>
			<rect x="120.05" y="64.07" width="2.95" height="0.25"/>
			<rect x="120.05" y="64.68" width="2.95" height="0.25"/>
			<rect x="120.05" y="65.3" width="2.95" height="0.25"/>
			<rect x="120.05" y="65.91" width="2.95" height="0.25"/>
			<rect x="120.05" y="66.52" width="2.95" height="0.25"/>
			<rect x="120.05" y="67.14" width="2.95" height="0.25"/>
			<rect x="120.05" y="67.75" width="2.95" height="0.25"/>
			<rect x="120.05" y="68.36" width="2.95" height="0.25"/>
			<rect x="120.05" y="68.98" width="2.95" height="0.25"/>
			<rect x="118.08" y="49.09" width="5.65" height="0.25"/>
			<rect x="118.08" y="50.01" width="5.65" height="0.25"/>
			<rect x="118.08" y="50.93" width="5.65" height="0.25"/>
			<rect x="118.08" y="51.86" width="5.65" height="0.25"/>
			<rect x="118.08" y="52.78" width="5.65" height="0.25"/>
			<rect x="118.08" y="53.7" width="5.65" height="0.25"/>
			<rect x="118.08" y="54.62" width="5.65" height="0.25"/>
			<rect x="118.08" y="55.54" width="5.65" height="0.25"/>
			<rect x="118.08" y="56.46" width="5.65" height="0.25"/>
			<rect x="118.08" y="57.38" width="5.65" height="0.25"/>
			<rect x="118.08" y="58.3" width="5.65" height="0.25"/>
			<rect x="118.08" y="59.22" width="5.65" height="0.25"/>
			<rect x="118.08" y="60.14" width="5.65" height="0.25"/>
			<rect x="118.08" y="61.06" width="5.65" height="0.25"/>
			<rect x="118.08" y="61.98" width="5.65" height="0.25"/>
		</g>
		<g>
			<polygon class="st1" points="115.59,33.25 115.59,29.88 116.16,29.88 116.16,24.97 116.73,24.97 116.73,36.99 116.59,36.99 
				116.59,39.69 115.87,39.69 115.87,73.4 109.9,73.4 109.05,38.98 			"/>
			
				<rect x="111.32" y="44.38" transform="matrix(-1 -1.224647e-16 1.224647e-16 -1 228.4778 105.4177)" class="st1" width="5.83" height="16.65"/>
			<rect x="111.61" y="39.26" transform="matrix(-1 -1.224647e-16 1.224647e-16 -1 225.7755 82.5063)" width="2.56" height="3.98"/>
			
				<rect x="111.47" y="62.59" transform="matrix(-1 -1.224647e-16 1.224647e-16 -1 226.3444 125.4584)" width="3.41" height="0.28"/>
			<rect x="111.47" y="63.3" transform="matrix(-1 -1.224647e-16 1.224647e-16 -1 226.3444 126.8807)" width="3.41" height="0.28"/>
			
				<rect x="111.47" y="64.01" transform="matrix(-1 -1.224647e-16 1.224647e-16 -1 226.3444 128.3029)" width="3.41" height="0.28"/>
			
				<rect x="111.47" y="64.72" transform="matrix(-1 -1.224647e-16 1.224647e-16 -1 226.3444 129.7251)" width="3.41" height="0.28"/>
			
				<rect x="111.47" y="65.43" transform="matrix(-1 -1.224647e-16 1.224647e-16 -1 226.3444 131.1474)" width="3.41" height="0.28"/>
			
				<rect x="111.47" y="66.14" transform="matrix(-1 -1.224647e-16 1.224647e-16 -1 226.3444 132.5697)" width="3.41" height="0.28"/>
			
				<rect x="111.47" y="66.85" transform="matrix(-1 -1.224647e-16 1.224647e-16 -1 226.3444 133.9919)" width="3.41" height="0.28"/>
			
				<rect x="111.47" y="67.56" transform="matrix(-1 -1.224647e-16 1.224647e-16 -1 226.3444 135.4142)" width="3.41" height="0.28"/>
			
				<rect x="111.47" y="68.28" transform="matrix(-1 -1.224647e-16 1.224647e-16 -1 226.3444 136.8364)" width="3.41" height="0.28"/>
			<rect x="110.61" y="45.24" transform="matrix(-1 -1.224647e-16 1.224647e-16 -1 227.7667 90.7554)" width="6.54" height="0.28"/>
			<rect x="110.61" y="46.3" transform="matrix(-1 -1.224647e-16 1.224647e-16 -1 227.7667 92.8888)" width="6.54" height="0.28"/>
			<rect x="110.61" y="47.37" transform="matrix(-1 -1.224647e-16 1.224647e-16 -1 227.7667 95.0222)" width="6.54" height="0.28"/>
			<rect x="110.61" y="48.44" transform="matrix(-1 -1.224647e-16 1.224647e-16 -1 227.7667 97.1555)" width="6.54" height="0.28"/>
			<rect x="110.61" y="49.5" transform="matrix(-1 -1.224647e-16 1.224647e-16 -1 227.7667 99.2889)" width="6.54" height="0.28"/>
			
				<rect x="110.61" y="50.57" transform="matrix(-1 -1.224647e-16 1.224647e-16 -1 227.7667 101.4223)" width="6.54" height="0.28"/>
			
				<rect x="110.61" y="51.64" transform="matrix(-1 -1.224647e-16 1.224647e-16 -1 227.7667 103.5557)" width="6.54" height="0.28"/>
			<rect x="110.61" y="52.7" transform="matrix(-1 -1.224647e-16 1.224647e-16 -1 227.7667 105.6891)" width="6.54" height="0.28"/>
			
				<rect x="110.61" y="53.77" transform="matrix(-1 -1.224647e-16 1.224647e-16 -1 227.7667 107.8224)" width="6.54" height="0.28"/>
			
				<rect x="110.61" y="54.84" transform="matrix(-1 -1.224647e-16 1.224647e-16 -1 227.7667 109.9558)" width="6.54" height="0.28"/>
			<rect x="110.61" y="55.9" transform="matrix(-1 -1.224647e-16 1.224647e-16 -1 227.7667 112.0892)" width="6.54" height="0.28"/>
			
				<rect x="110.61" y="56.97" transform="matrix(-1 -1.224647e-16 1.224647e-16 -1 227.7667 114.2226)" width="6.54" height="0.28"/>
			<rect x="110.61" y="58.04" transform="matrix(-1 -1.224647e-16 1.224647e-16 -1 227.7667 116.356)" width="6.54" height="0.28"/>
			<rect x="110.61" y="59.1" transform="matrix(-1 -1.224647e-16 1.224647e-16 -1 227.7667 118.4894)" width="6.54" height="0.28"/>
			
				<rect x="110.61" y="60.17" transform="matrix(-1 -1.224647e-16 1.224647e-16 -1 227.7667 120.6227)" width="6.54" height="0.28"/>
		</g>
	</g>
	<g class="st0">
		<path class="st3" d="M39.66,60.79c-0.01-0.39-0.1-0.72-0.36-0.87l-0.3-9.27c0-0.61-0.12-1.12-0.56-1.26l-0.21-8.67
			c0-0.59-0.29-1.1-0.69-1.3v-7.76c0-0.39-0.18-0.74-0.46-0.96v-1.98v-1.11c0-0.24-0.09-0.45-0.23-0.59v-2.87
			c0-0.27-0.17-0.49-0.39-0.49h-0.13v-1.39c0-0.2-0.06-0.38-0.16-0.51v-1.38c0-0.28-0.16-0.5-0.37-0.54v-1.69h-0.02
			c-0.14,0-0.25,0.14-0.25,0.31v1.96c-0.15,0.09-0.26,0.29-0.26,0.52v1.91h0.11c-0.19,0.11-0.32,0.35-0.32,0.64v3.98
			c-0.36,0.14-0.61,0.57-0.61,1.07v5.77c-0.25,0.22-0.42,0.6-0.42,1.02v1.58h-0.07c-0.53,0-0.96,0.87-0.98,1.96l-0.15,7.85h-0.19
			c-0.49,0-0.89,0.51-0.89,1.14l-0.38,9.43h-0.28c-0.49,0-0.9,0.49-0.93,1.13l-0.68,15.44h2.21h0.95h1.4h0.79h0.93h1.79h0.17h0.58
			h2.08L39.66,60.79z"/>
		<g>
			<path d="M37.53,33.73h-3.09v0.58c-0.07,0.06-0.14,0.14-0.19,0.23h3.28V33.73z"/>
			<path d="M34.82,27.62c-0.2,0.18-0.34,0.47-0.37,0.81h2.62v-0.81H34.82z"/>
			<polygon points="39.1,53.82 31.51,53.82 31.48,54.62 39.12,54.62 			"/>
			<path d="M35.26,22.85h0.11c-0.18,0.11-0.31,0.34-0.32,0.6h1.26v-0.81h-1.05V22.85z"/>
			<polygon points="39.83,64.03 29.91,64.03 29.87,64.83 39.87,64.83 			"/>
			<path d="M35.26,20.95v0.36h0.89V20.5h-0.73C35.33,20.61,35.26,20.77,35.26,20.95z"/>
			<polygon points="32.88,43.81 38.3,43.81 38.28,43 32.89,43 			"/>
			<rect x="35.05" y="24.87" width="1.78" height="0.81"/>
		</g>
		<g>
			<polygon points="31.44,55.5 31.44,55.63 39.16,55.63 39.15,55.5 			"/>
			<polygon points="31.41,56.3 31.4,56.44 39.18,56.44 39.18,56.3 			"/>
			<polygon points="31.38,57.11 31.37,57.24 39.21,57.24 39.2,57.11 			"/>
			<polygon points="31.47,54.69 31.47,54.82 39.13,54.82 39.12,54.69 			"/>
			<path d="M30.07,60.33l-0.01,0.13h9.56c-0.01-0.05-0.02-0.09-0.03-0.13H30.07z"/>
			<polygon points="30.11,59.53 30.1,59.66 39.29,59.66 39.28,59.53 			"/>
			<path d="M30.27,57.91c-0.02,0.04-0.03,0.09-0.05,0.13h9.02l0-0.13H30.27z"/>
			<polygon points="30.14,58.72 30.14,58.85 39.26,58.85 39.26,58.72 			"/>
			<polygon points="31.7,49.05 31.69,49.18 38.43,49.18 38.42,49.05 			"/>
			<polygon points="30.04,61.14 30.03,61.27 39.68,61.27 39.68,61.14 			"/>
			<polygon points="31.63,50.66 31.63,50.79 39,50.79 38.99,50.66 			"/>
			<path d="M31.67,49.85l-0.01,0.13h7.26c-0.01-0.05-0.03-0.09-0.04-0.13H31.67z"/>
			<polygon points="31.73,48.24 31.73,48.38 38.41,48.38 38.4,48.24 			"/>
			<polygon points="31.54,53.08 31.53,53.21 39.08,53.21 39.07,53.08 			"/>
			<polygon points="31.51,53.88 31.5,54.02 39.1,54.02 39.1,53.88 			"/>
			<polygon points="31.57,52.27 31.57,52.41 39.05,52.41 39.05,52.27 			"/>
			<polygon points="31.6,51.47 31.6,51.6 39.02,51.6 39.02,51.47 			"/>
			<polygon points="30,61.94 29.99,62.08 39.73,62.08 39.72,61.94 			"/>
			<polygon points="29.57,71.62 29.57,71.75 40.24,71.75 40.24,71.62 			"/>
			<path d="M31.81,47.44c-0.01,0.04-0.02,0.09-0.03,0.13h6.61l0-0.13H31.81z"/>
			<polygon points="29.71,68.39 29.71,68.53 40.07,68.53 40.07,68.39 			"/>
			<polygon points="29.68,69.2 29.67,69.33 40.12,69.33 40.11,69.2 			"/>
			<polygon points="29.64,70 29.64,70.14 40.16,70.14 40.15,70 			"/>
			<path d="M35.05,24.19h1.78v-0.04c0-0.03,0-0.06-0.01-0.09h-1.77V24.19z"/>
			<polygon points="29.54,72.42 29.53,72.56 40.29,72.56 40.28,72.42 			"/>
			<polygon points="40.32,73.23 29.5,73.23 29.49,73.36 40.33,73.36 			"/>
			<polygon points="29.61,70.81 29.6,70.94 40.2,70.94 40.19,70.81 			"/>
			<polygon points="29.93,63.56 29.92,63.69 39.81,63.69 39.81,63.56 			"/>
			<polygon points="29.89,64.36 29.89,64.5 39.86,64.5 39.85,64.36 			"/>
			<polygon points="29.96,62.75 29.96,62.88 39.77,62.88 39.76,62.75 			"/>
			<polygon points="29.82,65.97 29.82,66.11 39.94,66.11 39.94,65.97 			"/>
			<polygon points="29.86,65.17 29.85,65.3 39.9,65.3 39.89,65.17 			"/>
			<polygon points="29.79,66.78 29.78,66.91 39.99,66.91 39.98,66.78 			"/>
			<polygon points="29.75,67.59 29.74,67.72 40.03,67.72 40.02,67.59 			"/>
			<rect x="35.05" y="25.67" width="1.78" height="0.13"/>
			<rect x="34.44" y="29.7" width="2.63" height="0.13"/>
			<rect x="35.05" y="26.48" width="1.78" height="0.13"/>
			<rect x="34.44" y="28.9" width="2.63" height="0.13"/>
			<path d="M35.05,27.28v0.13h1.99c-0.01-0.05-0.02-0.09-0.04-0.13H35.05z"/>
			<path d="M34.52,28.09c-0.01,0.04-0.03,0.09-0.04,0.13h2.59v-0.13H34.52z"/>
			<rect x="34.44" y="32.12" width="3.09" height="0.13"/>
			<rect x="34.44" y="30.51" width="2.63" height="0.13"/>
			<path d="M34.44,31.31v0.13h3.07c-0.01-0.05-0.02-0.09-0.03-0.13H34.44z"/>
			<path d="M35.27,20.84c-0.01,0.04-0.01,0.07-0.01,0.11v0.02h0.89v-0.13H35.27z"/>
			<rect x="34.44" y="32.93" width="3.09" height="0.13"/>
			<rect x="35.53" y="19.22" width="0.26" height="0.13"/>
			<path d="M35.53,20.03v0.13h0.6c-0.02-0.05-0.04-0.09-0.06-0.13H35.53z"/>
			<path d="M35.53,18.42c0,0.02,0,0.03,0,0.05v0.09h0.26v-0.13H35.53z"/>
			<rect x="35.26" y="22.45" width="1.05" height="0.13"/>
			<path d="M32.83,46.63l0,0.09h-0.19c-0.09,0-0.17,0.02-0.24,0.04h5.98l0-0.13H32.83z"/>
			<path d="M35.09,23.25c-0.01,0.04-0.02,0.09-0.03,0.13h1.25v-0.13H35.09z"/>
			<rect x="35.05" y="24.87" width="1.78" height="0.13"/>
			<path d="M36.16,21.64h-0.89v0.13h0.91c-0.01-0.01-0.01-0.02-0.01-0.02V21.64z"/>
			<polygon points="32.92,41.79 32.91,41.93 38.25,41.93 38.25,41.79 			"/>
			<polygon points="32.89,43.41 32.88,43.54 38.29,43.54 38.29,43.41 			"/>
			<polygon points="32.9,42.6 32.9,42.73 38.27,42.73 38.27,42.6 			"/>
			<polygon points="32.93,40.99 32.93,41.12 38.23,41.12 38.23,40.99 			"/>
			<rect x="34.44" y="33.73" width="3.09" height="0.13"/>
			<polygon points="32.87,44.21 32.87,44.35 38.31,44.35 38.31,44.21 			"/>
			<path d="M32.95,40.18l0,0.13h5.23c-0.01-0.05-0.02-0.09-0.04-0.13H32.95z"/>
			<polygon points="32.86,45.02 32.85,45.15 38.33,45.15 38.33,45.02 			"/>
			<polygon points="32.84,45.82 32.84,45.96 38.35,45.96 38.35,45.82 			"/>
			<rect x="34.02" y="35.34" width="3.51" height="0.13"/>
			<rect x="34.02" y="36.15" width="3.51" height="0.13"/>
			<path d="M34.25,34.54c-0.03,0.04-0.05,0.09-0.08,0.13h3.36v-0.13H34.25z"/>
			<path d="M33.75,36.96c-0.07,0.03-0.13,0.08-0.2,0.13h3.98v-0.13H33.75z"/>
			<path d="M32.99,38.57c0,0.04-0.01,0.09-0.01,0.13h4.55v-0.13H32.99z"/>
			<path d="M37.53,39.37h-4.57l0,0.13h4.7c-0.04-0.03-0.09-0.06-0.13-0.08V39.37z"/>
			<path d="M33.15,37.76c-0.02,0.04-0.03,0.09-0.04,0.13h4.42v-0.13H33.15z"/>
		</g>
		<path d="M32.81,72.87L32.81,72.87c0.12,0,0.22-0.1,0.22-0.22V48.11c0-0.12-0.1-0.22-0.22-0.22l0,0c-0.12,0-0.22,0.1-0.22,0.22
			v24.54C32.59,72.77,32.69,72.87,32.81,72.87z"/>
		<path d="M35.45,65.17L35.45,65.17c0.12,0,0.22-0.1,0.22-0.22V37.71c0-0.12-0.1-0.22-0.22-0.22l0,0c-0.12,0-0.22,0.1-0.22,0.22
			v27.23C35.23,65.07,35.33,65.17,35.45,65.17z"/>
		<path d="M37.47,72.87L37.47,72.87c0.12,0,0.22-0.1,0.22-0.22V49.72c0-0.12-0.1-0.22-0.22-0.22l0,0c-0.12,0-0.22,0.1-0.22,0.22
			v22.93C37.25,72.77,37.35,72.87,37.47,72.87z"/>
	</g>
	<g class="st0">
		<rect x="-1.7" y="72.48" class="st4" width="130.55" height="2.08"/>
	</g>
</g>
</svg>
