<?xml version="1.0" encoding="utf-8"?>
<!-- Generator: Adobe Illustrator 24.3.0, SVG Export Plug-In . SVG Version: 6.00 Build 0)  -->
<svg version="1.1" xmlns="http://www.w3.org/2000/svg" xmlns:xlink="http://www.w3.org/1999/xlink" x="0px" y="0px"
	 viewBox="0 0 128 90" style="enable-background:new 0 0 128 90;" xml:space="preserve">
<style type="text/css">
	.st0{clip-path:url(#SVGID_2_);fill:none;stroke:#000000;stroke-width:0.1559;stroke-miterlimit:10;}
	.st1{clip-path:url(#SVGID_2_);}
	.st2{fill:none;stroke:#000000;stroke-width:0.1559;stroke-miterlimit:10;}
</style>
<g id="Layer_2">
</g>
<g id="Layer_1">
	<g>
		<defs>
			<rect id="SVGID_1_" x="3.59" y="20.54" width="120.81" height="48.38"/>
		</defs>
		<clipPath id="SVGID_2_">
			<use xlink:href="#SVGID_1_"  style="overflow:visible;"/>
		</clipPath>
		<path class="st0" d="M126.94,58.12h-1.77c-0.03,0-0.06,0.03-0.06,0.06v0.25h-0.09h-1.4v-4.07c0-0.02-0.02-0.04-0.03-0.04H119
			c-0.02,0-0.04,0.02-0.04,0.04v9.57c0,0.02,0.02,0.04,0.04,0.04h0.97v4.65c0,0.03,0.03,0.06,0.06,0.06h5.13c0,0,0.01,0,0.01,0h1.77
			c0.03,0,0.06-0.03,0.06-0.06V58.18C126.99,58.15,126.97,58.12,126.94,58.12z"/>
		<path class="st0" d="M96.45,50.83v-0.03c0-0.02-0.02-0.04-0.04-0.04h-4.53c-0.02,0-0.04,0.02-0.04,0.04v14.75
			c0,0.02,0.01,0.03,0.02,0.03v0.04v0.04h0.14h4.4h0.06v-0.58v-0.08v-0.08v-0.08v-0.08v-0.08v-0.08v-0.08v-0.08v-0.08V64.3v-0.08
			v-0.08v-0.08V64v-0.08v-0.08v-0.08V63.7v-0.08v-0.08v-0.08v-0.08v-0.08v-0.08v-0.08v-0.08v-0.08v-0.08v-0.08v-0.08v-0.08v-0.08
			v-0.08v-0.08V62.4v-0.08v-0.08v-0.08V62.1v-0.08v-0.08v-0.08v-0.08v-0.08v-0.08v-0.08v-0.08v-0.08v-0.08v-0.08v-0.08v-0.08v-0.08
			v-0.08v-0.08V60.8v-0.08v-0.08v-0.08V60.5v-0.08v-0.08v-0.08v-0.08v-0.08v-0.08v-0.08v-0.08v-0.08v-0.08v-0.08v-0.08v-0.08v-0.08
			v-0.08v-0.08V59.2v-0.08v-0.08v-0.08V58.9v-0.08v-0.08v-0.08v-0.08v-0.08v-0.08v-0.08v-0.08v-0.08v-0.08v-0.08v-0.08v-0.08v-0.08
			v-0.08v-0.08V57.6v-0.08v-0.08v-0.08V57.3v-0.08v-0.08v-0.08v-0.08v-0.08v-0.08v-0.08v-0.08v-0.08v-0.08v-0.08v-0.08v-0.08v-0.08
			v-0.08v-0.08V56v-0.08v-0.08v-0.08V55.7v-0.08v-0.08v-0.08V55.4v-0.08v-0.08v-0.08v-0.08v-0.08v-0.08v-0.08v-0.08v-0.08v-0.08
			v-0.08v-0.08v-0.08v-0.08v-0.08v-0.08V54.1v-0.08v-0.08v-0.08V53.8v-0.08v-0.08v-0.08v-0.08v-0.08v-0.08v-0.08v-0.08v-0.08v-0.08
			v-0.08v-0.08v-0.08v-0.08v-0.08v-0.08V52.5v-0.08v-0.08v-0.08V52.2v-0.08v-0.08v-0.08v-0.08v-0.08v-0.08v-0.08v-0.08v-0.08v-0.08
			v-0.08v-0.08v-0.08v-0.08v-0.08v-0.08V50.9v-0.08H96.45z"/>
		<path class="st0" d="M37.39,46.46h-0.4v-0.94c0-0.1-0.08-0.18-0.18-0.18h-1.24c-0.1,0-0.18,0.08-0.18,0.18v0.94h-3.65v-0.94
			c0-0.1-0.08-0.18-0.18-0.18h-1.24c-0.1,0-0.18,0.08-0.18,0.18v0.94h-0.31c-0.27,0-0.49,0.2-0.49,0.44v20.87
			c0,0.24,0.22,0.44,0.49,0.44h0.37c0.02,0.03,0.05,0.05,0.09,0.05h6.62c0.04,0,0.07-0.02,0.09-0.05h0.36c0.27,0,0.49-0.2,0.49-0.44
			V46.9C37.88,46.66,37.66,46.46,37.39,46.46z"/>
		<path class="st0" d="M-1.2,59.95h-2.98v-2.72c0-0.03-0.01-0.06-0.02-0.09v-0.05h-0.03c-0.04-0.07-0.12-0.11-0.2-0.11h-3.67
			c-0.14,0-0.25,0.11-0.25,0.25v9.58H-8.6c-0.1,0-0.19,0.08-0.19,0.19v1.23c0,0.1,0.08,0.19,0.19,0.19h2.25v0.03
			c0,0.04,0.04,0.08,0.08,0.08h5.07c0.04,0,0.08-0.04,0.08-0.08v-8.42C-1.12,59.98-1.16,59.95-1.2,59.95z"/>
		<rect x="72.41" y="60.18" class="st0" width="24.34" height="7.23"/>
		<g class="st1">
			<path class="st2" d="M92.8,61.37v-0.65c0-0.01,0-0.03-0.01-0.04V37.64c0-0.03-0.01-0.05-0.03-0.06v0c0-0.04-0.04-0.08-0.08-0.08
				H92.4c0.01-0.15,0.02-0.41,0.01-0.57c-0.01-0.47-0.12-1.09-0.89-1.7c-0.08-0.06-0.18-0.13-0.28-0.19
				c-0.44-0.27-0.93-0.43-1.21-0.51l-0.09-2.19c0-0.04-0.04-0.07-0.08-0.07h-0.09c-0.04,0-0.08,0.03-0.08,0.08l-0.06,2.19
				c-0.32,0.09-1,0.31-1.5,0.7c-0.61,0.47-0.9,1.07-0.89,1.83c0,0.12,0.01,0.31,0.01,0.44h-0.01h-0.28c-0.04,0-0.08,0.03-0.08,0.08
				v30.38c0,0.04,0.03,0.08,0.08,0.08h4.09v0.15c0,0.04,0.03,0.08,0.08,0.08h0.94c0.04,0,0.08-0.03,0.08-0.08v-0.15h0.53
				c0,0,0,0,0,0h0.03c0.04,0,0.08-0.03,0.08-0.08v-2.95c0.01-0.01,0.01-0.02,0.01-0.04v-0.65c0-0.01,0-0.03-0.01-0.04V61.4
				C92.8,61.39,92.8,61.38,92.8,61.37z"/>
			<path class="st2" d="M86.35,42.1h-8.5c-0.05,0-0.09,0.04-0.09,0.09v1.29c-0.01,0.01-0.01,0.03-0.01,0.04v0.62
				c0,0.01,0,0.03,0.01,0.04v0.43c-0.01,0.01-0.01,0.03-0.01,0.04v0.62c0,0.01,0,0.03,0.01,0.04v0.43
				c-0.01,0.01-0.01,0.03-0.01,0.04v0.62c0,0.01,0,0.03,0.01,0.04v0.43c-0.01,0.01-0.01,0.03-0.01,0.04v0.62
				c0,0.01,0,0.03,0.01,0.04v0.43c-0.01,0.01-0.01,0.03-0.01,0.04v0.62c0,0.01,0,0.03,0.01,0.04v0.43
				c-0.01,0.01-0.01,0.03-0.01,0.04v0.62c0,0.01,0,0.03,0.01,0.04v0.43c-0.01,0.01-0.01,0.03-0.01,0.04v0.62
				c0,0.01,0,0.03,0.01,0.04v0.43c-0.01,0.01-0.01,0.03-0.01,0.04v0.62c0,0.01,0,0.03,0.01,0.04v0.43
				c-0.01,0.01-0.01,0.03-0.01,0.04v0.62c0,0.01,0,0.03,0.01,0.04v0.43c-0.01,0.01-0.01,0.03-0.01,0.04v0.62
				c0,0.01,0,0.03,0.01,0.04v0.43c-0.01,0.01-0.01,0.03-0.01,0.04v0.62c0,0.01,0,0.03,0.01,0.04v0.43
				c-0.01,0.01-0.01,0.03-0.01,0.04v0.62c0,0.01,0,0.03,0.01,0.04v0.43c-0.01,0.01-0.01,0.03-0.01,0.04v0.62
				c0,0.01,0,0.03,0.01,0.04v0.43c-0.01,0.01-0.01,0.03-0.01,0.04v0.62c0,0.01,0,0.03,0.01,0.04v0.43
				c-0.01,0.01-0.01,0.03-0.01,0.04v0.62c0,0.01,0,0.03,0.01,0.04v0.43c-0.01,0.01-0.01,0.03-0.01,0.04v0.62
				c0,0.01,0,0.03,0.01,0.04v0.43c-0.01,0.01-0.01,0.03-0.01,0.04v0.62c0,0.01,0,0.03,0.01,0.04v0.43
				c-0.01,0.01-0.01,0.03-0.01,0.04v0.62c0,0.01,0,0.03,0.01,0.04v0.43c-0.01,0.01-0.01,0.03-0.01,0.04v0.62
				c0,0.01,0,0.03,0.01,0.04v0.43c-0.01,0.01-0.01,0.03-0.01,0.04v0.62c0,0.01,0,0.03,0.01,0.04v0.43
				c-0.01,0.01-0.01,0.03-0.01,0.04v0.62c0,0.01,0,0.03,0.01,0.04v0.76c0,0.05,0.04,0.09,0.09,0.09h8.5c0.05,0,0.09-0.04,0.09-0.09
				V42.19C86.44,42.14,86.4,42.1,86.35,42.1z"/>
		</g>
		<path class="st0" d="M33.99,38.75h-0.51v-5.91c0-0.05-0.04-0.09-0.09-0.09h-0.18v-3.3c0-0.05-0.04-0.09-0.09-0.09h-8.27
			c-0.05,0-0.09,0.04-0.09,0.09h-0.03v3.3h-0.21c-0.05,0-0.09,0.04-0.09,0.09v35.61c0,0.05,0.04,0.09,0.09,0.09h8.86
			c0.05,0,0.09-0.04,0.09-0.09V42.2h0.51c0.03,0,0.06-0.03,0.06-0.06v-3.33C34.05,38.78,34.03,38.75,33.99,38.75z"/>
		<path class="st0" d="M75.23,53.82h-7.67c-0.14,0-0.25,0.11-0.25,0.25v12.2c0,0.14,0.11,0.25,0.25,0.25h7.67
			c0.12,0,0.22-0.11,0.22-0.25v-12.2C75.45,53.94,75.35,53.82,75.23,53.82z"/>
		<g class="st1">
			<path class="st2" d="M49.69,37.52h-8.94c-0.06,0-0.11,0.05-0.11,0.11V42h-1.47c-0.06,0-0.11,0.05-0.11,0.11v3.73h-0.58
				c-0.06,0-0.11,0.05-0.11,0.11v4.19c-0.01,0-0.02,0-0.02,0h-0.27c-0.01,0-0.02,0-0.03,0h-0.18c-0.01,0-0.02,0-0.03,0h-0.27
				c-0.01,0-0.02,0-0.03,0h-0.18c-0.01,0-0.02,0-0.03,0h-0.73c-0.06,0-0.11,0.05-0.11,0.11v18.02c0,0.06,0.05,0.11,0.11,0.11h13.11
				c0.06,0,0.11-0.05,0.11-0.11V37.64C49.8,37.58,49.75,37.52,49.69,37.52z"/>
			<path class="st2" d="M68.83,48.3h-0.47v-0.45c0-0.04-0.03-0.07-0.07-0.07h-6.3V44.5c0-0.04-0.03-0.07-0.07-0.07h-0.47v-0.45
				c0-0.04-0.03-0.07-0.07-0.07h-8.15c-0.04,0-0.07,0.03-0.07,0.07v0.45h-0.33c-0.04,0-0.07,0.03-0.07,0.07v19.9
				c0,0.04,0.03,0.07,0.07,0.07l0.07,3.98l6.77,0.14c0,0.04,1.57,0.09,1.61,0.09l7.55-0.03c0.04,0,0.07-0.35,0.07-0.39v-19.9
				C68.9,48.33,68.87,48.3,68.83,48.3z"/>
		</g>
		<path class="st0" d="M71.99,60.1v-0.08c0-0.02-0.01-0.03-0.03-0.04v-0.23c0-0.02-0.02-0.04-0.04-0.04h-0.06l0-0.57
			c0-0.02-0.02-0.04-0.04-0.04h-0.04v-0.31c0-0.02-0.02-0.03-0.04-0.03H71.5v-0.61c0.02,0,0.03-0.02,0.03-0.03v-0.08
			c0-0.02-0.01-0.03-0.03-0.03v-0.07c0,0,0,0,0-0.01v-0.02c0,0,0,0,0-0.01v-0.05c0,0,0,0,0-0.01v-0.11c0-0.02-0.02-0.04-0.04-0.04
			h-0.05c-0.02,0-0.04,0.02-0.04,0.04v0.02h-0.97v-0.02c0-0.02-0.02-0.04-0.04-0.04h-0.06l0-0.45c0,0,0-0.01,0-0.01l0-0.01v-1.5
			h0.27c0.02,0,0.04-0.02,0.04-0.04V55.6c0-0.01-0.01-0.03-0.02-0.03l-0.46-0.85v-0.5c0-0.02-0.02-0.04-0.04-0.04h-0.25l-0.35-0.64
			v-0.1c0-0.02-0.02-0.04-0.04-0.04h-0.02l-0.02-0.37c0-0.02-0.02-0.03-0.04-0.03h-0.01c-0.02,0-0.03,0.02-0.04,0.03l-0.02,0.37
			h-0.01c-0.02,0-0.04,0.02-0.04,0.04v0.07h-0.64l-1.47-2.74v-0.09c0-0.02-0.02-0.04-0.04-0.04h-0.02l-0.02-0.37
			c0-0.02-0.02-0.03-0.04-0.03h-0.01c-0.02,0-0.03,0.01-0.04,0.03l-0.02,0.37h-0.01c-0.02,0-0.04,0.02-0.04,0.04v0.07h-0.73v-0.18
			h0.06c0.02,0,0.04-0.02,0.04-0.04v-0.1c0-0.02-0.02-0.04-0.04-0.04h-0.06v-0.71h0.06c0.02,0,0.04-0.02,0.04-0.04V49.5
			c0-0.02-0.02-0.04-0.04-0.04h-1.13c-0.02,0-0.04,0.02-0.04,0.04v0.14c0,0.02,0.02,0.04,0.04,0.04h0.07v0.71h-0.04
			c-0.02,0-0.04,0.02-0.04,0.04v0.1c0,0.02,0.02,0.04,0.04,0.04h0.04v0.18h-0.66v-0.07c0-0.02-0.02-0.04-0.04-0.04H64.5l-0.02-0.37
			c0-0.02-0.02-0.03-0.04-0.03h-0.01c-0.02,0-0.03,0.01-0.04,0.03l-0.02,0.37h-0.01c-0.02,0-0.04,0.02-0.04,0.04v0.09l-1.47,2.74
			h-0.5v-0.07c0-0.02-0.02-0.04-0.04-0.04h-0.02l-0.02-0.37c0-0.02-0.02-0.03-0.04-0.03h-0.01c-0.02,0-0.03,0.01-0.04,0.03
			l-0.02,0.37h-0.01c-0.02,0-0.04,0.02-0.04,0.04v0.08c0,0-0.01,0.01-0.01,0.01l-0.36,0.66h-0.25c-0.02,0-0.04,0.02-0.04,0.04v0.5
			l-0.46,0.85c-0.01,0.01-0.02,0.02-0.02,0.03v0.11c0,0.02,0.02,0.04,0.04,0.04h0.27v1.97h-0.07c-0.02,0-0.04,0.02-0.04,0.04v0.02
			h-0.97v-0.02c0-0.02-0.02-0.04-0.04-0.04h-0.05c-0.02,0-0.04,0.02-0.04,0.04v0.11c0,0,0,0,0,0.01v0.05c0,0,0,0,0,0.01v0.02
			c0,0,0,0,0,0.01v0.07c-0.02,0-0.03,0.02-0.03,0.03v0.08c0,0.02,0.01,0.03,0.03,0.03v0.61h-0.25c-0.02,0-0.04,0.02-0.04,0.03v0.31
			h-0.04c-0.02,0-0.04,0.02-0.04,0.04v0.57H59.7c-0.02,0-0.04,0.02-0.04,0.04v0.23c-0.02,0-0.03,0.02-0.03,0.04v0.08
			c0,0.02,0.01,0.03,0.03,0.04v1.54c-0.02,0-0.03,0.02-0.03,0.04v0.08c0,0.02,0.01,0.03,0.03,0.04v6.18c0,0.02,0.02,0.04,0.04,0.04
			h12.23c0.02,0,0.04-0.02,0.04-0.04v-6.18c0.02,0,0.03-0.02,0.03-0.04v-0.08c0-0.02-0.01-0.03-0.03-0.04v-1.54
			C71.98,60.13,71.99,60.12,71.99,60.1z M69.38,53.56h0.04v0h-0.07v0H69.38z"/>
		<path class="st0" d="M119.98,66.66h-2.66V62c0-0.05-0.04-0.09-0.09-0.09h-1.24V47.15c0-0.05-0.04-0.09-0.09-0.09h-1.04v-1.99
			c0-0.05-0.04-0.09-0.09-0.09h-0.86c-0.01-0.12-0.03-0.24-0.05-0.36c-0.23-1.28-1.36-2.25-2.7-2.25l-0.03,0c-0.01,0-0.02,0-0.02,0
			l-0.01,0c0,0-0.01,0-0.01,0h0c0,0-0.01,0-0.01,0c-0.07,0-0.13,0.01-0.2,0.01c-1.36,0.14-2.4,1.24-2.46,2.6h-0.8
			c-0.05,0-0.09,0.04-0.09,0.09v0.69h-9.74c-0.05,0-0.09,0.04-0.09,0.09v6.46h-0.95c-0.05,0-0.09,0.04-0.09,0.09v4.1h-1.11
			c-0.05,0-0.09,0.04-0.09,0.09v0c0,0.01,0,0.01,0,0.02v2.15h-1.63c-0.05,0-0.09,0.04-0.09,0.09v0.76h-1.48
			c-0.05,0-0.09,0.04-0.09,0.09v2.22h-0.04c0-0.13,0.01-0.21,0.01-0.22c0-0.04-0.03-0.08-0.07-0.09c-0.04-0.01-0.08,0.01-0.1,0.05
			c0,0-0.05,0.1-0.16,0.26h-1c-0.05,0-0.09,0.04-0.09,0.09v0.82c0,0.02,0.01,0.04,0.02,0.06c-0.49,0.32-1.17,0.64-2.08,0.88
			c-0.04-1.03,0.01-2.1,0.01-2.11c0-0.04-0.03-0.08-0.07-0.09c-0.04-0.01-0.08,0.01-0.1,0.05c0,0.01-0.28,0.63-1.24,1.24
			c-0.12,0.07-0.24,0.15-0.39,0.23c-0.7-0.46-0.97-0.95-1.06-1.2c-0.03-0.13-0.06-0.2-0.06-0.2c-0.01-0.04-0.06-0.07-0.1-0.06
			c-0.04,0.01-0.07,0.05-0.06,0.1c0,0,0.01,0.08,0.06,0.21c0.07,0.27,0.19,0.85,0.18,1.59c-0.26,0.09-0.54,0.17-0.85,0.24
			c-0.1-0.03-0.19-0.06-0.28-0.08c-0.03-0.98,0.01-1.96,0.01-1.97c0-0.04-0.03-0.08-0.07-0.09c-0.04-0.01-0.08,0.01-0.1,0.05
			c0,0.01-0.28,0.63-1.24,1.24c-0.02,0.02-0.05,0.03-0.07,0.05c-0.57-0.42-0.8-0.85-0.88-1.08c-0.03-0.13-0.06-0.2-0.06-0.2
			c-0.01-0.04-0.06-0.07-0.1-0.06c-0.04,0.01-0.07,0.05-0.06,0.1c0,0,0.01,0.08,0.06,0.21c0.07,0.26,0.18,0.79,0.18,1.46
			c-0.22,0.09-0.46,0.18-0.73,0.26c-1.64-0.56-2.13-1.42-2.27-1.78c-0.03-0.13-0.06-0.2-0.06-0.2c-0.01-0.04-0.06-0.07-0.1-0.06
			c-0.04,0.01-0.07,0.05-0.06,0.1c0,0,0.01,0.08,0.06,0.21c0.08,0.32,0.23,1.05,0.16,1.97c-2.61-0.47-3.3-1.65-3.47-2.08
			c-0.03-0.13-0.06-0.2-0.06-0.2c-0.01-0.04-0.06-0.07-0.1-0.06c-0.04,0.01-0.07,0.05-0.06,0.1c0,0,0.01,0.08,0.06,0.21
			c0.09,0.34,0.25,1.15,0.15,2.15c-3-0.4-3.76-1.7-3.94-2.15c-0.03-0.13-0.06-0.2-0.06-0.2c-0.01-0.04-0.06-0.07-0.1-0.06
			c-0.04,0.01-0.07,0.05-0.06,0.1c0,0,0.01,0.08,0.06,0.21c0.16,0.61,0.56,2.7-0.77,4.74h-9.87c-0.05,0-0.09,0.04-0.09,0.09v0.84
			h-1.33c-0.05,0-0.09,0.04-0.09,0.09v1.13c0,0.05,0.04,0.09,0.09,0.09h60.26c0.05,0,0.09-0.04,0.09-0.09v-2.06
			C120.06,66.7,120.02,66.66,119.98,66.66z M109.81,42.92c-0.34,0.22-0.64,0.51-0.85,0.85C109.17,43.43,109.46,43.14,109.81,42.92z
			 M97.86,45.94h0.01v6.45h0v0.01h-0.01v-0.01c0,0,0-0.01,0-0.01V45.94z M96.82,52.49h0.01v4.1h-0.01V52.49z M95.63,56.68h0.01v2.08
			h-0.01V56.68z"/>
		<path class="st0" d="M16,60.93H9.8c-0.04,0-0.07,0.03-0.07,0.07v7.24c0,0.04,0.03,0.07,0.07,0.07H16c0.04,0,0.07-0.03,0.07-0.07
			v-7.24C16.08,60.97,16.04,60.93,16,60.93z"/>
		<path class="st0" d="M24.53,60.04C24.53,60.04,24.53,60.04,24.53,60.04l0-0.71c0-0.02-0.01-0.04-0.03-0.05l-0.72-0.3c0,0,0,0,0,0
			c0-0.01,0-0.02-0.01-0.02v-0.28c0-0.01,0.01-0.01,0.01-0.02c0-0.01,0-0.02-0.01-0.02v-0.28c0-0.01,0.01-0.01,0.01-0.02
			c0-0.01,0-0.02-0.01-0.02v-0.28c0-0.01,0.01-0.01,0.01-0.02c0-0.01,0-0.02-0.01-0.02v-0.28c0-0.01,0.01-0.01,0.01-0.02
			c0-0.01,0-0.02-0.01-0.02v-0.28c0-0.01,0.01-0.01,0.01-0.02c0-0.01,0-0.02-0.01-0.02v-0.16c0-0.02-0.01-0.04-0.03-0.05l-0.2-0.1
			v-0.93c0-0.01-0.01-0.03-0.02-0.04l-0.22-0.22l-0.99-0.89v-1.43c0-0.03-0.02-0.05-0.05-0.05h-0.1v-0.69
			c0-0.03-0.02-0.05-0.05-0.05h-0.17c-0.03,0-0.05,0.02-0.05,0.05v0.71h-0.09c-0.03,0-0.05,0.02-0.05,0.05v1.42l-1.3,0.89
			c-0.01,0.01-0.02,0.03-0.02,0.04v0.92h-0.12c-0.03,0-0.05,0.02-0.05,0.05v3.16h-0.93c-0.03,0-0.05,0.02-0.05,0.05v8.36
			c0,0.03,0.02,0.05,0.05,0.05h4.34c0.01,0.01,0.02,0.02,0.04,0.02h0.78c0.03,0,0.05-0.02,0.05-0.05v-0.06c0,0,0,0,0,0V60.04z"/>
		<path class="st0" d="M21.49,33.4H20.9v-1.02c0-0.03-0.03-0.06-0.06-0.06h-4.6c-0.03,0-0.06,0.03-0.06,0.06v1.02h-0.6
			c-0.03,0-0.06,0.03-0.06,0.06v0.32c0,0.01-0.01,0.02-0.01,0.03v0.23c0,0.01,0,0.02,0.01,0.03v0.47c0,0.01-0.01,0.02-0.01,0.03
			v0.23c0,0.01,0,0.02,0.01,0.03v0.47c0,0.01-0.01,0.02-0.01,0.03v0.23c0,0.01,0,0.02,0.01,0.03v0.43c0,0.01-0.01,0.02-0.01,0.03
			v0.23c0,0.01,0,0.02,0.01,0.03v0.43c0,0.01-0.01,0.02-0.01,0.03v0.23c0,0.01,0,0.02,0.01,0.03v0.47c0,0.01-0.01,0.02-0.01,0.03
			v0.23c0,0.01,0,0.02,0.01,0.03v0.43c0,0.01-0.01,0.02-0.01,0.03v0.23c0,0.01,0,0.02,0.01,0.03v0.47c0,0.01-0.01,0.02-0.01,0.03
			v0.23c0,0.01,0,0.02,0.01,0.03v0.43c0,0.01-0.01,0.02-0.01,0.03v0.23c0,0.01,0,0.02,0.01,0.03v0.47c0,0.01-0.01,0.02-0.01,0.03
			v0.23c0,0.01,0,0.02,0.01,0.03v0.43c0,0.01-0.01,0.02-0.01,0.03v0.23c0,0.01,0,0.02,0.01,0.03v0.47c0,0.01-0.01,0.02-0.01,0.03
			v0.23c0,0.01,0,0.02,0.01,0.03v0.43c0,0.01-0.01,0.02-0.01,0.03v0.23c0,0.01,0,0.02,0.01,0.03v0.47c0,0.01-0.01,0.02-0.01,0.03
			v0.23c0,0.01,0,0.02,0.01,0.03v0.43c0,0.01-0.01,0.02-0.01,0.03v0.23c0,0.01,0,0.02,0.01,0.03v0.47c0,0.01-0.01,0.02-0.01,0.03
			v0.23c0,0.01,0,0.02,0.01,0.03v0.47c0,0.01-0.01,0.02-0.01,0.03v0.23c0,0.01,0,0.02,0.01,0.03v0.43c0,0.01-0.01,0.02-0.01,0.03
			v0.23c0,0.01,0,0.02,0.01,0.03v0.47c0,0.01-0.01,0.02-0.01,0.03v0.23c0,0.01,0,0.02,0.01,0.03v0.47c0,0.01-0.01,0.02-0.01,0.03
			v0.23c0,0.01,0,0.02,0.01,0.03v0.43c0,0.01-0.01,0.02-0.01,0.03v0.23c0,0.01,0,0.02,0.01,0.03v0.47c0,0.01-0.01,0.02-0.01,0.03
			v0.23c0,0.01,0,0.02,0.01,0.03v0.43c0,0.01-0.01,0.02-0.01,0.03v0.23c0,0.01,0,0.02,0.01,0.03v0.47c0,0.01-0.01,0.02-0.01,0.03
			v0.23c0,0.01,0,0.02,0.01,0.03v0.47c0,0.01-0.01,0.02-0.01,0.03v0.23c0,0.01,0,0.02,0.01,0.03v0.43c0,0.01-0.01,0.02-0.01,0.03
			v0.23c0,0.01,0,0.02,0.01,0.03v0.47c0,0.01-0.01,0.02-0.01,0.03v0.23c0,0.01,0,0.02,0.01,0.03v0.43c0,0.01-0.01,0.02-0.01,0.03
			v0.23c0,0.01,0,0.02,0.01,0.03v0.47c0,0.01-0.01,0.02-0.01,0.03v0.23c0,0.01,0,0.02,0.01,0.03v0.43c0,0.01-0.01,0.02-0.01,0.03
			v0.23c0,0.01,0,0.02,0.01,0.03v0.47c0,0.01-0.01,0.02-0.01,0.03v0.23c0,0.01,0,0.02,0.01,0.03v0.47c0,0.01-0.01,0.02-0.01,0.03V57
			c0,0.01,0,0.02,0.01,0.03v0.43c0,0.01-0.01,0.02-0.01,0.03v0.23c0,0.01,0,0.02,0.01,0.03v0.47c0,0.01-0.01,0.02-0.01,0.03v0.23
			c0,0.01,0,0.02,0.01,0.03v0.43c0,0.01-0.01,0.02-0.01,0.03v0.23c0,0.01,0,0.02,0.01,0.03v0.47c0,0.01-0.01,0.02-0.01,0.03v0.23
			c0,0.01,0,0.02,0.01,0.03v0.47c0,0.01-0.01,0.02-0.01,0.03v0.23c0,0.01,0,0.02,0.01,0.03v0.43c0,0.01-0.01,0.02-0.01,0.03v0.23
			c0,0.01,0,0.02,0.01,0.03v0.47c0,0.01-0.01,0.02-0.01,0.03v0.23c0,0.01,0,0.02,0.01,0.03v0.47c0,0.01-0.01,0.02-0.01,0.03v0.23
			c0,0.01,0,0.02,0.01,0.03v0.43c0,0.01-0.01,0.02-0.01,0.03v0.23c0,0.01,0,0.02,0.01,0.03v0.47c0,0.01-0.01,0.02-0.01,0.03v0.23
			c0,0.01,0,0.02,0.01,0.03v0.43c0,0.01-0.01,0.02-0.01,0.03v0.23c0,0.01,0,0.02,0.01,0.03v0.47c0,0.01-0.01,0.02-0.01,0.03v0.23
			c0,0.01,0,0.02,0.01,0.03v0.47c0,0.01-0.01,0.02-0.01,0.03v0.23c0,0.01,0,0.02,0.01,0.03v0.43c0,0.01-0.01,0.02-0.01,0.03v0.23
			c0,0.01,0,0.02,0.01,0.03v0.43c0,0.01-0.01,0.02-0.01,0.03v0.23c0,0.01,0,0.02,0.01,0.03v0.29c0,0.03,0.03,0.06,0.06,0.06h5.9
			c0.03,0,0.06-0.03,0.06-0.06V33.46C21.55,33.43,21.52,33.4,21.49,33.4z"/>
		<path class="st0" d="M132.14,62.86h-0.58v-0.96c0-0.01-0.01-0.02-0.02-0.02h-0.41v-1.04c0-0.01-0.01-0.02-0.02-0.02h-0.01v-0.18
			c0-0.01,0-0.01-0.01-0.01l-0.77-0.63l-0.08-0.19c0-0.01-0.01-0.01-0.02-0.01h-0.1c-0.01,0-0.02,0.01-0.02,0.01l-0.06,0.19
			l-0.76,0.63h0c-0.01,0-0.02,0.01-0.02,0.02v0.18h-0.02h-0.02c-0.01,0-0.02,0.01-0.02,0.02v1.04l-0.27,0c-0.01,0-0.01,0-0.01,0.01
			c0,0-0.01,0.01-0.01,0.01l0,0.02c0,0-0.01,0.01-0.01,0.01v0.93h-0.19c-0.01,0-0.02,0.01-0.02,0.02v4.9c0,0.01,0.01,0.02,0.02,0.02
			h3.43c0.01,0,0.02-0.01,0.02-0.02v-4.9C132.16,62.86,132.15,62.86,132.14,62.86z M130.18,59.99L130.18,59.99l-0.01,0h-0.09l0,0
			L130.18,59.99z"/>
		<path class="st0" d="M8.66,46.18H3.8v-1.39l0.67-0.26c0.04-0.02,0.07-0.06,0.07-0.1v-0.09l0.21-0.17h0.02
			c0.06,0,0.11-0.05,0.11-0.11v-0.53l0.15-0.1c0.03-0.02,0.05-0.06,0.05-0.09v-0.5c0-0.05-0.04-0.1-0.09-0.11l-1.15-0.21v-0.61
			c0-0.06-0.05-0.11-0.11-0.11H1.69v-0.41h0.15c0.06,0,0.11-0.05,0.11-0.11c0-0.06-0.05-0.11-0.11-0.11H1.69V40.6h0.15
			c0.06,0,0.11-0.05,0.11-0.11c0-0.06-0.05-0.11-0.11-0.11H1.69v-0.56h0.11c0.06,0,0.11-0.05,0.11-0.11c0-0.06-0.05-0.11-0.11-0.11
			H1.69v-0.56h0.07c0.06,0,0.11-0.05,0.11-0.11c0-0.06-0.05-0.11-0.11-0.11H1.69v-0.56h0.07c0.06,0,0.11-0.05,0.11-0.11
			c0-0.06-0.05-0.11-0.11-0.11H1.69v-0.8c0-0.06-0.05-0.11-0.11-0.11c-0.06,0-0.11,0.05-0.11,0.11v0.8h-0.1
			c-0.06,0-0.11,0.05-0.11,0.11c0,0.06,0.05,0.11,0.11,0.11h0.1v0.56h-0.1c-0.06,0-0.11,0.05-0.11,0.11c0,0.06,0.05,0.11,0.11,0.11
			h0.1v0.56H1.35c-0.06,0-0.11,0.05-0.11,0.11c0,0.06,0.05,0.11,0.11,0.11h0.12v0.56H1.29c-0.06,0-0.11,0.05-0.11,0.11
			c0,0.06,0.05,0.11,0.11,0.11h0.18v0.56H1.29c-0.06,0-0.11,0.05-0.11,0.11c0,0.06,0.05,0.11,0.11,0.11h0.18v0.41h-1.71
			c-0.06,0-0.11,0.05-0.11,0.11v0.61l-1.38,0.21c-0.05,0.01-0.09,0.05-0.09,0.11v0.5c0,0.03,0.02,0.07,0.04,0.09l0.15,0.11v0.04
			h0.02v0.47c0,0.04,0.02,0.07,0.05,0.09l0.17,0.12v0.18c0,0.05,0.03,0.09,0.07,0.1l1.43,0.55v1.09h-1.75
			c-0.06,0-0.11,0.05-0.11,0.11v21.89c0,0.06,0.05,0.11,0.11,0.11H8.66c0.06,0,0.11-0.05,0.11-0.11V46.29
			C8.78,46.23,8.73,46.18,8.66,46.18z"/>
		<path class="st0" d="M50.51,55.5h-0.08v-1.08c0-0.03-0.02-0.05-0.05-0.05h-0.2v-0.8c0-0.03-0.02-0.05-0.05-0.05h-1.35v-1.07
			c0-0.03-0.02-0.05-0.05-0.05h-0.63v-0.96h0V51.4c0.03,0,0.05-0.02,0.05-0.05V51.2c0-0.01,0-0.02-0.01-0.03l-1.06-1.31v-0.57
			c0-0.03-0.02-0.05-0.05-0.05h-0.36c-0.03,0-0.05,0.02-0.05,0.05v0.54l-1.07,1.34c-0.01,0.01-0.01,0.02-0.01,0.03v0.16
			c0,0.03,0.02,0.05,0.05,0.05h0v0.03h0v0.96H45.1c-0.03,0-0.05,0.02-0.05,0.05v1.07h-1.26c-0.03,0-0.05,0.02-0.05,0.05v0.8h-0.25
			c-0.03,0-0.05,0.02-0.05,0.05v1.08h-0.08c-0.03,0-0.05,0.02-0.05,0.05v1.82c0,0.01,0,0.01,0,0.02v11.12
			c0,0.03,0.02,0.05,0.05,0.05h0v0.03h0.09h0.05h0.03h0.06h1.37h0.09h0.65h0.15h0.07h0.02h0.2h0.08h0.24h0.31h0.01h0.07h0.24h0.31
			h0.01h0.07h0.24h0.14h0.15h0.01h0.16h0.14h0.59h1.43h0.03h0.05h0.09v-0.03c0.03,0,0.05-0.02,0.05-0.05V57.39c0-0.01,0-0.01,0-0.02
			v-1.82C50.56,55.53,50.54,55.5,50.51,55.5z M50.46,55.6v0.03h-0.04h-0.04V55.6H50.46z M50.33,54.47v0.03h-0.08h-0.11h-0.01v-0.03
			H50.33z M50.07,53.62v0.03h-0.44h-0.91v-0.03H50.07z M48.67,52.49v0.03h-0.32h-0.31v-0.03H48.67z M46.97,49.33v0.03h-0.26v-0.03
			H46.97z M46.66,49.92L46.66,49.92l-1.04,1.3v0L46.66,49.92z M45.63,52.49C45.64,52.49,45.64,52.49,45.63,52.49l0,0.03h-0.17h-0.33
			v-0.03H45.63z M45.1,53.62C45.1,53.62,45.1,53.62,45.1,53.62l0,0.03h-0.82h-0.45v-0.03H45.1z M43.78,54.47
			C43.78,54.47,43.78,54.47,43.78,54.47l0,0.03h-0.06h-0.1h-0.01h-0.03h-0.05v-0.03H43.78z M43.48,55.6
			C43.48,55.6,43.49,55.6,43.48,55.6l0,0.03h-0.04H43.4V55.6H43.48z"/>
		<g class="st1">
			<path class="st2" d="M136.25,68.91H-10.69c-0.2,0-0.36-0.16-0.36-0.36c0-0.2,0.16-0.36,0.36-0.36h146.94
				c0.2,0,0.36,0.16,0.36,0.36C136.6,68.75,136.45,68.91,136.25,68.91z"/>
		</g>
	</g>
</g>
</svg>
