<?xml version="1.0" encoding="utf-8"?>
<!-- Generator: Adobe Illustrator 24.3.0, SVG Export Plug-In . SVG Version: 6.00 Build 0)  -->
<svg version="1.1" id="Layer_1" xmlns="http://www.w3.org/2000/svg" xmlns:xlink="http://www.w3.org/1999/xlink" x="0px" y="0px"
	 viewBox="0 0 128 90" style="enable-background:new 0 0 128 90;" xml:space="preserve">
<style type="text/css">
	.st0{clip-path:url(#SVGID_2_);}
</style>
<g>
	<defs>
		<rect id="SVGID_1_" x="3.59" y="20.54" width="120.81" height="48.38"/>
	</defs>
	<clipPath id="SVGID_2_">
		<use xlink:href="#SVGID_1_"  style="overflow:visible;"/>
	</clipPath>
	<g class="st0">
		<path d="M47.82,55.2c-0.22,0-0.4,0.15-0.4,0.33v0.98c0,0.18,0.18,0.33,0.4,0.33c0.22,0,0.4-0.15,0.4-0.33v-0.98
			C48.22,55.34,48.04,55.2,47.82,55.2z"/>
		<path d="M56.99,46.38c0,0.18,0.18,0.33,0.4,0.33c0.22,0,0.4-0.15,0.4-0.33v-0.14c0-0.18-0.18-0.33-0.4-0.33
			c-0.22,0-0.4,0.15-0.4,0.33V46.38z"/>
		<path d="M57.39,45.05C57.39,45.05,57.39,45.05,57.39,45.05c0.22,0,0.4-0.15,0.4-0.33l0-0.57c0-0.18-0.18-0.33-0.4-0.33
			c0,0,0,0,0,0c-0.22,0-0.4,0.15-0.4,0.33l0,0.57C56.99,44.9,57.17,45.05,57.39,45.05z"/>
		<path d="M69.08,46.79c0.22,0,0.4-0.15,0.4-0.33l0-0.27c0-0.18-0.18-0.33-0.4-0.33s-0.4,0.15-0.4,0.33l0,0.27
			C68.68,46.64,68.86,46.79,69.08,46.79z"/>
		<path d="M80.36,58.82c0,0.18,0.18,0.33,0.4,0.33c0.22,0,0.4-0.15,0.4-0.33c0-0.2,0-0.4,0-0.62c0-0.18-0.18-0.33-0.4-0.33
			c0,0,0,0,0,0c-0.22,0-0.4,0.15-0.4,0.33C80.36,58.42,80.36,58.62,80.36,58.82z"/>
		<path d="M80.37,47.61c0,2.89,0,6.78-0.01,9.77c0,0.18,0.18,0.33,0.4,0.33c0,0,0,0,0,0c0.22,0,0.4-0.15,0.4-0.33
			c0-2.99,0-6.88,0.01-9.77l0-0.27c0-0.18-0.18-0.33-0.4-0.33c0,0,0,0,0,0c-0.22,0-0.4,0.15-0.4,0.33L80.37,47.61z"/>
		<path d="M80.77,46.85c0.22,0,0.4-0.15,0.4-0.33v-0.41c0-0.18-0.18-0.33-0.4-0.33c-0.22,0-0.4,0.15-0.4,0.33v0.41
			C80.37,46.71,80.55,46.85,80.77,46.85z"/>
		<path d="M84.32,42.72c0-0.22-0.08-0.42-0.23-0.58c0.08-0.06,0.14-0.15,0.14-0.25V39.3c0-0.18-0.18-0.33-0.4-0.33
			s-0.4,0.15-0.4,0.33v2.26H45.1V39.3c0-0.18-0.18-0.33-0.4-0.33c-0.22,0-0.4,0.15-0.4,0.33v2.59c0,0.1,0.06,0.2,0.15,0.26
			c-0.14,0.16-0.22,0.36-0.22,0.57c0,0.51,0.47,0.93,1.07,1.01l-0.1,17.91l-0.61,1.13c-0.01,0.02-0.02,0.04-0.02,0.06
			c-0.07,0.06-0.11,0.14-0.11,0.23v4.04c0,0.18,0.18,0.33,0.4,0.33c0.22,0,0.4-0.15,0.4-0.33v-3.7h2.9v3.7
			c0,0.18,0.18,0.33,0.4,0.33c0.22,0,0.4-0.15,0.4-0.33v-4.04c0,0,0,0,0,0c0-0.02,0-0.04-0.01-0.06c0,0,0,0,0-0.01c0,0,0,0,0-0.01
			c-0.01-0.02-0.01-0.04-0.02-0.06c0,0,0,0,0,0l-0.71-1.36l0-3.82c0-0.18-0.18-0.33-0.4-0.33c-0.22,0-0.4,0.15-0.4,0.33l0,3.89
			c0,0.05,0.01,0.09,0.03,0.13l0.5,0.96H45.5l0.47-0.88c0.02-0.04,0.03-0.09,0.04-0.13l0.1-18.1c0.14-0.07,0.27-0.15,0.37-0.26
			c0.14-0.14,0.11-0.35-0.06-0.47c-0.17-0.11-0.42-0.09-0.56,0.05c-0.09,0.09-0.22,0.14-0.37,0.14c-0.25,0-0.46-0.16-0.46-0.35
			c0-0.19,0.21-0.35,0.46-0.35c0.01,0,0.03,0,0.04,0l0.02,0c0.02,0,0.05,0,0.07,0h2.25c0.03,0,0.06,0,0.1,0c0.02,0,0.04,0,0.05,0
			c0.25,0,0.46,0.16,0.46,0.35c0,0.19-0.21,0.35-0.46,0.35c-0.18,0-0.34-0.08-0.42-0.2c-0.1-0.16-0.34-0.23-0.54-0.15
			c-0.2,0.08-0.28,0.28-0.18,0.45c0.12,0.2,0.31,0.36,0.55,0.46c0,0.01,0,0.01,0,0.02c0,0,0,5.67,0,10.65c0,0.18,0.18,0.33,0.4,0.33
			c0.22,0,0.4-0.15,0.4-0.33c0-4.63,0-9.87,0-10.57c0.59-0.08,1.04-0.5,1.04-1c0-0.18-0.06-0.35-0.16-0.5h6.99
			c-0.1,0.15-0.16,0.32-0.16,0.5c0,0.56,0.56,1.02,1.25,1.02c0.39,0,0.75-0.14,0.99-0.4c0.14-0.14,0.11-0.35-0.06-0.47
			c-0.17-0.11-0.42-0.09-0.56,0.05c-0.09,0.09-0.22,0.14-0.37,0.14c-0.25,0-0.46-0.16-0.46-0.35c0-0.19,0.2-0.35,0.46-0.35
			c0.01,0,0.03,0,0.04,0l0.02,0c0.02,0,0.04,0,0.07,0h2.25c0.03,0,0.06,0.01,0.1,0c0.02,0,0.03,0,0.05,0c0.25,0,0.46,0.16,0.46,0.35
			c0,0.19-0.21,0.35-0.46,0.35c-0.18,0-0.34-0.08-0.42-0.2c-0.1-0.16-0.34-0.23-0.54-0.15c-0.2,0.08-0.28,0.28-0.18,0.45
			c0.12,0.19,0.3,0.35,0.52,0.44c0,0.01,0,0.02,0,0.03c0,1.28,0,18.08,0,18.08c0,0.05,0.01,0.1,0.04,0.14l0.49,0.86h-2.41l0.47-0.81
			c0.03-0.05,0.04-0.1,0.04-0.15c0-0.04,0.01-1.27,0.01-3c0.03-0.05,0.05-0.1,0.05-0.15v-0.21c0-0.05-0.02-0.1-0.04-0.15
			c0.01-1.25,0.01-2.69,0.02-4.11c0.02-0.04,0.03-0.08,0.03-0.12c0-0.78,0-1.74,0-2.58l0-0.77c0-0.03,0-0.05-0.01-0.08
			c0.01-1.66,0.01-2.87,0.01-2.97c0-0.18-0.18-0.33-0.4-0.33c0,0,0,0,0,0c-0.22,0-0.4,0.15-0.4,0.33c0,0.36-0.06,12.94-0.07,14.05
			l-0.63,1.07c-0.01,0.02-0.02,0.04-0.03,0.06c-0.07,0.06-0.11,0.14-0.11,0.23v3.97c0,0.18,0.18,0.33,0.4,0.33
			c0.22,0,0.4-0.15,0.4-0.33v-3.64h2.9v3.7c0,0.18,0.18,0.33,0.4,0.33s0.4-0.15,0.4-0.33v-4.04c0,0,0,0,0-0.01c0-0.01,0-0.01,0-0.02
			c0,0,0-0.01,0-0.01c0-0.01,0-0.01,0-0.02c0-0.01,0-0.01,0-0.02c0-0.01,0-0.01,0-0.02c0-0.01,0-0.01-0.01-0.02
			c0,0,0-0.01-0.01-0.01c0-0.01-0.01-0.01-0.01-0.02c0,0,0,0,0-0.01l-0.73-1.27c0-1.2,0-16.17,0-17.92c0.6-0.07,1.07-0.5,1.07-1
			c0-0.18-0.06-0.35-0.16-0.5h6.99c-0.1,0.15-0.16,0.32-0.16,0.5c0,0.52,0.49,0.95,1.11,1.01c-0.02,0.04-0.04,0.09-0.04,0.14
			c0,0,0,0.43,0,1.13c0,0.18,0.18,0.33,0.4,0.33c0,0,0,0,0,0c0.22,0,0.4-0.15,0.4-0.33c0-0.7,0-1.13,0-1.13
			c0-0.09-0.04-0.16-0.1-0.22c0.18-0.07,0.35-0.17,0.48-0.31c0.14-0.14,0.11-0.35-0.06-0.47c-0.17-0.11-0.42-0.09-0.56,0.05
			c-0.09,0.09-0.22,0.14-0.37,0.14c-0.25,0-0.46-0.16-0.46-0.35c0-0.19,0.2-0.35,0.46-0.35c0.01,0,0.03,0,0.04,0l0.02,0
			c0.02,0,0.05,0,0.07,0h2.25c0.03,0,0.06,0.01,0.1,0c0.02,0,0.03,0,0.05,0c0.25,0,0.46,0.16,0.46,0.35c0,0.19-0.21,0.35-0.46,0.35
			c-0.18,0-0.34-0.08-0.42-0.2c-0.1-0.16-0.34-0.23-0.54-0.15c-0.2,0.08-0.28,0.28-0.18,0.45c0.11,0.18,0.28,0.33,0.49,0.43
			c0,0.01,0,0.02,0,0.04c0,2.57,0,18.18,0,18.18c0,0.05,0.02,0.11,0.05,0.16l0.48,0.75h-2.35l0.47-0.74
			c0.03-0.05,0.05-0.1,0.05-0.16c0-0.03,0.01-1.44,0.01-3.02c0.01-0.03,0.02-0.06,0.02-0.09c0-0.13,0-0.27,0-0.41
			c0-0.03,0-0.06-0.01-0.08c0-0.89,0.01-1.78,0.01-2.47c0-0.01,0-0.03,0-0.04l0-1.07c0-0.03,0-0.05,0-0.07c0,0,0,0,0,0l0-2.17
			c0-1.87,0-3.87,0-5.02c0-0.18-0.18-0.33-0.4-0.33c0,0,0,0,0,0c-0.22,0-0.4,0.15-0.4,0.33c0,1.15,0,3.16,0,5.02l0,2.24
			c0,0.93-0.03,6.37-0.03,7.11l-0.65,1.01c-0.01,0.02-0.02,0.04-0.03,0.06c-0.07,0.06-0.12,0.14-0.12,0.23v3.9
			c0,0.18,0.18,0.33,0.4,0.33c0.22,0,0.4-0.15,0.4-0.33v-3.57h2.9v3.7c0,0.18,0.18,0.33,0.4,0.33c0.22,0,0.4-0.15,0.4-0.33v-4.03
			c0,0,0,0,0,0v0c0,0,0,0,0,0c0-0.01,0-0.02,0-0.03c0,0,0-0.01,0-0.01c0-0.01,0-0.02,0-0.02c0-0.01,0-0.01,0-0.02
			c0-0.01,0-0.01,0-0.02c0-0.01-0.01-0.01-0.01-0.02c0,0,0-0.01,0-0.01c0-0.01-0.01-0.02-0.02-0.03c0,0,0,0,0,0l0,0c0,0,0,0,0,0
			l-0.75-1.16c0-1.21,0-15.29,0-18c0.62-0.06,1.09-0.49,1.09-1.01c0-0.18-0.06-0.35-0.16-0.5h6.99c-0.1,0.15-0.16,0.32-0.16,0.5
			c0,0.51,0.47,0.93,1.08,1.01l0,1.56c0,0.18,0.18,0.33,0.4,0.33c0,0,0,0,0,0c0.22,0,0.4-0.15,0.4-0.33l0-1.68
			c0.14-0.07,0.27-0.15,0.37-0.26c0.14-0.14,0.11-0.35-0.06-0.47c-0.17-0.11-0.42-0.09-0.56,0.05c-0.09,0.09-0.22,0.14-0.37,0.14
			c-0.25,0-0.46-0.16-0.46-0.35c0-0.19,0.2-0.35,0.46-0.35c0.01,0,0.03,0,0.04,0l0.02,0c0.02,0,0.05,0,0.07,0h2.24
			c0.03,0,0.06,0,0.1,0c0.02,0,0.03,0,0.05,0c0.25,0,0.46,0.16,0.46,0.35c0,0.19-0.21,0.35-0.46,0.35c-0.18,0-0.34-0.08-0.42-0.2
			c-0.1-0.16-0.34-0.23-0.54-0.15c-0.2,0.08-0.28,0.28-0.18,0.45c0.11,0.18,0.27,0.32,0.47,0.42c0,0.01,0,0.03,0,0.04v18.28
			c0,0.06,0.02,0.12,0.06,0.17l0.46,0.64h-2.29l0.47-0.66c0.04-0.05,0.06-0.11,0.06-0.17c0,0,0-0.7,0-1.83
			c0-0.18-0.18-0.33-0.4-0.33c0,0,0,0,0,0c-0.22,0-0.4,0.15-0.4,0.33c0,0.89,0,1.52,0,1.74l-0.67,0.95
			c-0.01,0.02-0.03,0.04-0.04,0.07c-0.07,0.06-0.12,0.14-0.12,0.24v3.83c0,0.18,0.18,0.33,0.4,0.33s0.4-0.15,0.4-0.33v-3.5h2.9v3.7
			c0,0.18,0.18,0.33,0.4,0.33c0.22,0,0.4-0.15,0.4-0.33v-4.04c0,0,0,0,0-0.01c0-0.01,0-0.01,0-0.02c0,0,0-0.01,0-0.01
			c0-0.01,0-0.01,0-0.02c0,0,0-0.01,0-0.01c0-0.01,0-0.01-0.01-0.02c0-0.01,0-0.01-0.01-0.02c0,0,0-0.01-0.01-0.01
			c0-0.01-0.01-0.01-0.01-0.02c0,0,0-0.01-0.01-0.01c0-0.01-0.01-0.01-0.01-0.02c0,0,0,0,0-0.01l-0.77-1.07V43.73
			C83.83,43.68,84.32,43.25,84.32,42.72z"/>
		<path d="M42.44,38.15l11.76-4.3c0.1-0.01,0.18-0.04,0.25-0.09l10.39-3.8l21.24,8.51c0.06,0.02,0.11,0.03,0.17,0.03
			c0.15,0,0.29-0.07,0.36-0.19c0.1-0.17,0.01-0.36-0.19-0.44l-1.63-0.65v-3.37h0.3c0.22,0,0.4-0.15,0.4-0.33s-0.18-0.33-0.4-0.33
			h-1.55c-0.02,0-0.05,0-0.07,0.01h-8.66c-0.02,0-0.04,0-0.06,0l-9.42-3.77v-6.03l4.24,0.01c0.11,0,0.21-0.03,0.29-0.09
			c0.08-0.06,0.12-0.15,0.12-0.24v-1.79c0-0.18-0.18-0.33-0.4-0.33h-4.65c-0.22,0-0.4,0.15-0.4,0.4v8.08l-10.5,3.77
			c-5.97,0-9.96,0-10,0c0,0,0,0,0,0c-0.22,0-0.4,0.15-0.4,0.33l-0.02,2.67c0,0.18,0.18,0.33,0.4,0.34c0,0,0,0,0,0
			c0.22,0,0.4-0.15,0.4-0.33l0.02-2.34c1,0,3.84,0,7.79,0l-10.09,3.69c-0.2,0.07-0.29,0.27-0.21,0.44
			C42.01,38.15,42.24,38.23,42.44,38.15z M65.33,21.6h3.85v1.12l-3.85,0V21.6z M84,33.85v3.04l-7.6-3.04H84z"/>
		<path d="M84.53,38.95c0.22,0,0.4-0.15,0.4-0.33c0-0.18-0.18-0.33-0.4-0.33l-1.71,0c0.01-0.01,0.01-0.02,0.02-0.03
			c0.09-0.17,0.01-0.36-0.19-0.44l-17.55-6.76c-0.1-0.04-0.22-0.04-0.32-0.01l-19.47,6.67c-0.2,0.07-0.3,0.26-0.22,0.43
			c0,0.01,0.01,0.02,0.02,0.03l-1.26,0c0,0,0,0,0,0c-0.22,0-0.4,0.15-0.4,0.33c0,0.18,0.18,0.33,0.4,0.33L84.53,38.95
			C84.53,38.95,84.53,38.95,84.53,38.95z M64.91,31.72l17.03,6.56l-35.9-0.1L64.91,31.72z"/>
		<path d="M46.62,39.71c0-0.18-0.18-0.33-0.4-0.33h0c-0.22,0-0.4,0.15-0.4,0.33s0.18,0.33,0.4,0.33
			C46.44,40.05,46.62,39.9,46.62,39.71z"/>
		<path d="M80.42,40.05c0.22,0,0.4-0.15,0.4-0.33s-0.18-0.33-0.4-0.33H47.4c-0.22,0-0.4,0.15-0.4,0.33s0.18,0.33,0.4,0.33H80.42z"/>
		<path d="M82.23,39.68c0-0.18-0.18-0.33-0.4-0.33h0c-0.22,0-0.4,0.15-0.4,0.33s0.18,0.33,0.4,0.33
			C82.05,40.01,82.23,39.86,82.23,39.68z"/>
		<path d="M77.89,46.4c0-0.18-0.18-0.33-0.4-0.33h-2.71c-0.22,0-0.4,0.15-0.4,0.33v6.15c0,0.18,0.18,0.33,0.4,0.33h2.71
			c0.22,0,0.4-0.15,0.4-0.33v-1.27c0-0.18-0.18-0.33-0.4-0.33s-0.4,0.15-0.4,0.33v0.94h-1.91v-5.48h1.91v2.76
			c0,0.18,0.18,0.33,0.4,0.33s0.4-0.15,0.4-0.33V46.4z"/>
		<path d="M77.5,50.05c-0.22,0-0.4,0.15-0.4,0.33v0.07c0,0.18,0.18,0.33,0.4,0.33s0.4-0.15,0.4-0.33v-0.07
			C77.89,50.2,77.72,50.05,77.5,50.05z"/>
		<path d="M74.78,57.23c-0.22,0-0.4,0.15-0.4,0.33v6.15c0,0.18,0.18,0.33,0.4,0.33h2.71c0.22,0,0.4-0.15,0.4-0.33v-6.15
			c0-0.18-0.18-0.33-0.4-0.33H74.78z M77.1,63.38h-1.91V57.9h1.91V63.38z"/>
		<path d="M79.04,61.98c0.22,0,0.4-0.15,0.4-0.33v-5.22c0-0.18-0.18-0.33-0.4-0.33h-5.69c-0.22,0-0.4,0.15-0.4,0.33v5.82
			c0,0.18,0.18,0.33,0.4,0.33s0.4-0.15,0.4-0.33v-5.49h4.89v4.88C78.65,61.83,78.82,61.98,79.04,61.98z"/>
		<path d="M73.02,55.98c0.07,0.03,0.14,0.05,0.21,0.05c0.13,0,0.26-0.06,0.34-0.16c0.39-0.52,1.45-1.26,2.59-1.28
			c0.91-0.02,1.73,0.42,2.44,1.29c0.12,0.15,0.37,0.19,0.55,0.09c0.18-0.1,0.23-0.31,0.1-0.46c-1.06-1.3-2.23-1.58-3.05-1.58
			c-0.02,0-0.04,0-0.06,0c-1.53,0.03-2.78,0.96-3.25,1.59C72.78,55.68,72.84,55.89,73.02,55.98z"/>
		<path d="M78.95,52.82c0.22,0,0.4-0.15,0.4-0.33v-7.36c0-0.18-0.18-0.33-0.4-0.33h-5.62c-0.22,0-0.4,0.15-0.4,0.33v7.28
			c0,0.18,0.18,0.33,0.4,0.33c0.22,0,0.4-0.15,0.4-0.33v-6.95h4.82v7.03C78.55,52.67,78.73,52.82,78.95,52.82z"/>
		<path d="M62.92,49.82c0.22,0,0.4-0.15,0.4-0.33v-0.12c0-0.18-0.18-0.33-0.4-0.33s-0.4,0.15-0.4,0.33v0.12
			C62.52,49.67,62.7,49.82,62.92,49.82z"/>
		<path d="M62.52,50.52c0,0.18,0.18,0.33,0.4,0.33s0.4-0.15,0.4-0.33v-0.12c0-0.18-0.18-0.33-0.4-0.33s-0.4,0.15-0.4,0.33V50.52z"/>
		<path d="M62.52,52.55c0,0.18,0.18,0.33,0.4,0.33h2.71c0.22,0,0.4-0.15,0.4-0.33V46.4c0-0.18-0.18-0.33-0.4-0.33h-2.71
			c-0.22,0-0.4,0.15-0.4,0.33v2.1c0,0.18,0.18,0.33,0.4,0.33s0.4-0.15,0.4-0.33v-1.77h1.91v5.48h-1.91v-0.65
			c0-0.18-0.18-0.33-0.4-0.33s-0.4,0.15-0.4,0.33V52.55z"/>
		<path d="M65.92,67.68c0.22,0,0.4-0.15,0.4-0.33v-7.6c0-0.18-0.18-0.33-0.4-0.33h-3.29c-0.22,0-0.4,0.15-0.4,0.33v7.6
			c0,0.18,0.18,0.33,0.4,0.33c0.22,0,0.4-0.15,0.4-0.33v-5.86c0.05,0.02,0.11,0.03,0.16,0.03h0.68v5.25c0,0.18,0.18,0.33,0.4,0.33
			s0.4-0.15,0.4-0.33v-5.25h0.84c0,0,0,0,0.01,0v5.83C65.52,67.53,65.7,67.68,65.92,67.68z M65.51,60.85h-2.32
			c-0.06,0-0.11,0.01-0.16,0.03v-0.8h2.5L65.51,60.85C65.52,60.85,65.52,60.85,65.51,60.85z"/>
		<path d="M67.58,58.61c0-0.18-0.18-0.33-0.4-0.33h-5.69c-0.22,0-0.4,0.15-0.4,0.33s0.18,0.33,0.4,0.33h5.69
			C67.4,58.95,67.58,58.8,67.58,58.61z"/>
		<path d="M61.16,58.17c0.07,0.03,0.14,0.05,0.21,0.05c0.13,0,0.26-0.06,0.34-0.16c0.39-0.52,1.45-1.26,2.59-1.28
			c0.91-0.02,1.73,0.42,2.44,1.29c0.12,0.15,0.37,0.19,0.55,0.09c0.18-0.1,0.23-0.31,0.1-0.46c-1.08-1.33-2.29-1.59-3.11-1.58
			c-1.53,0.03-2.78,0.96-3.25,1.59C60.91,57.86,60.97,58.07,61.16,58.17z"/>
		<path d="M67.08,52.82c0.22,0,0.4-0.15,0.4-0.33v-7.36c0-0.18-0.18-0.33-0.4-0.33h-5.62c-0.22,0-0.4,0.15-0.4,0.33v7.28
			c0,0.18,0.18,0.33,0.4,0.33c0.22,0,0.4-0.15,0.4-0.33v-6.95h4.82v7.03C66.68,52.67,66.86,52.82,67.08,52.82z"/>
		<path d="M54.21,46.4c0-0.18-0.18-0.33-0.4-0.33H51.1c-0.22,0-0.4,0.15-0.4,0.33v6.15c0,0.18,0.18,0.33,0.4,0.33h2.71
			c0.22,0,0.4-0.15,0.4-0.33v-2.96c0-0.18-0.18-0.33-0.4-0.33c-0.22,0-0.4,0.15-0.4,0.33v2.63H51.5v-5.48h1.91v0.61
			c0,0.18,0.18,0.33,0.4,0.33c0.22,0,0.4-0.15,0.4-0.33V46.4z"/>
		<path d="M53.81,48.22c-0.22,0-0.4,0.15-0.4,0.33v0.1c0,0.18,0.18,0.33,0.4,0.33c0.22,0,0.4-0.15,0.4-0.33v-0.1
			C54.21,48.37,54.03,48.22,53.81,48.22z"/>
		<path d="M51.1,57.23c-0.22,0-0.4,0.15-0.4,0.33v6.15c0,0.18,0.18,0.33,0.4,0.33h2.71c0.22,0,0.4-0.15,0.4-0.33v-6.15
			c0-0.18-0.18-0.33-0.4-0.33H51.1z M53.41,63.38H51.5V57.9h1.91V63.38z"/>
		<path d="M55.36,61.98c0.22,0,0.4-0.15,0.4-0.33v-5.22c0-0.18-0.18-0.33-0.4-0.33h-5.69c-0.22,0-0.4,0.15-0.4,0.33v5.82
			c0,0.18,0.18,0.33,0.4,0.33c0.22,0,0.4-0.15,0.4-0.33v-5.49h4.89v4.88C54.96,61.83,55.14,61.98,55.36,61.98z"/>
		<path d="M49.34,55.98c0.07,0.03,0.14,0.05,0.21,0.05c0.13,0,0.26-0.06,0.34-0.16c0.39-0.52,1.45-1.26,2.58-1.28
			c0.91-0.01,1.73,0.42,2.44,1.29c0.12,0.15,0.37,0.19,0.55,0.09c0.18-0.1,0.23-0.31,0.1-0.46c-1.09-1.33-2.29-1.59-3.11-1.58
			c-1.53,0.03-2.78,0.96-3.24,1.59C49.1,55.68,49.15,55.89,49.34,55.98z"/>
		<path d="M55.26,52.82c0.22,0,0.4-0.15,0.4-0.33v-7.36c0-0.18-0.18-0.33-0.4-0.33h-5.62c-0.22,0-0.4,0.15-0.4,0.33v7.28
			c0,0.18,0.18,0.33,0.4,0.33c0.22,0,0.4-0.15,0.4-0.33v-6.95h4.82v7.03C54.87,52.67,55.04,52.82,55.26,52.82z"/>
		<path d="M89.63,35.05h0.47v2.07c0,0.18,0.18,0.33,0.4,0.33s0.4-0.15,0.4-0.33v-1.93h1.53v2.01c0,0.18,0.18,0.33,0.4,0.33
			c0.22,0,0.4-0.15,0.4-0.33v-2.15h0.47c0.22,0,0.4-0.15,0.4-0.33c0-0.18-0.18-0.33-0.4-0.33h-4.07c-0.22,0-0.4,0.15-0.4,0.33
			C89.24,34.9,89.41,35.05,89.63,35.05z"/>
		<path d="M85.69,64.58c0.22,0,0.4-0.15,0.4-0.33v-0.07c0-0.18-0.18-0.33-0.4-0.33s-0.4,0.15-0.4,0.33v0.07
			C85.29,64.43,85.47,64.58,85.69,64.58z"/>
		<path d="M96,57.97c-0.22,0-0.4,0.15-0.4,0.33v6.15c0,0.18,0.18,0.33,0.4,0.33h2.71c0.22,0,0.4-0.15,0.4-0.33V58.3
			c0-0.18-0.18-0.33-0.4-0.33H96z M98.31,64.12H96.4v-5.48h1.92V64.12z"/>
		<path d="M100.66,57.17c0-0.18-0.18-0.33-0.4-0.33h-5.69c-0.22,0-0.4,0.15-0.4,0.33v5.82c0,0.18,0.18,0.33,0.4,0.33
			s0.4-0.15,0.4-0.33V57.5h4.89v4.88c0,0.18,0.18,0.33,0.4,0.33c0.22,0,0.4-0.15,0.4-0.33V57.17z"/>
		<path d="M94.11,56.27c-0.12,0.16-0.06,0.36,0.13,0.46c0.07,0.03,0.14,0.05,0.21,0.05c0.13,0,0.26-0.06,0.34-0.16
			c0.39-0.52,1.45-1.26,2.59-1.28c0.02,0,0.03,0,0.05,0c0.89,0,1.69,0.43,2.39,1.29c0.12,0.15,0.37,0.19,0.55,0.09
			c0.18-0.1,0.23-0.31,0.1-0.46c-1.08-1.33-2.29-1.59-3.11-1.58C95.83,54.7,94.58,55.64,94.11,56.27z"/>
		<path d="M87.18,57.97c-0.22,0-0.4,0.15-0.4,0.33v6.15c0,0.18,0.18,0.33,0.4,0.33h2.71c0.22,0,0.4-0.15,0.4-0.33V58.3
			c0-0.18-0.18-0.33-0.4-0.33H87.18z M89.5,64.12h-1.92v-5.48h1.92V64.12z"/>
		<path d="M91.44,62.72c0.22,0,0.4-0.15,0.4-0.33v-5.22c0-0.18-0.18-0.33-0.4-0.33h-5.69c-0.22,0-0.4,0.15-0.4,0.33v5.82
			c0,0.18,0.18,0.33,0.4,0.33c0.22,0,0.4-0.15,0.4-0.33V57.5h4.89v4.88C91.04,62.57,91.22,62.72,91.44,62.72z"/>
		<path d="M85.29,56.61c0.07,0.11,0.21,0.16,0.34,0.16c0.07,0,0.14-0.01,0.2-0.05l2.73-1.33l2.55,1.33c0.19,0.1,0.43,0.05,0.55-0.11
			c0.12-0.16,0.06-0.36-0.13-0.46l-2.76-1.43c-0.13-0.07-0.28-0.07-0.41,0l-2.93,1.43C85.24,56.25,85.18,56.45,85.29,56.61z"/>
		<path d="M90.03,52.39c0.22,0,0.4-0.15,0.4-0.33v-6.15c0-0.18-0.18-0.33-0.4-0.33h-2.71c-0.22,0-0.4,0.15-0.4,0.33v6.15
			c0,0.18,0.18,0.33,0.4,0.33H90.03z M87.72,46.25h1.91v5.48h-1.91V46.25z"/>
		<path d="M98.7,52.39c0.22,0,0.4-0.15,0.4-0.33v-6.15c0-0.18-0.18-0.33-0.4-0.33h-2.71c-0.22,0-0.4,0.15-0.4,0.33v6.15
			c0,0.18,0.18,0.33,0.4,0.33H98.7z M96.39,46.25h1.91v5.48h-1.91V46.25z"/>
		<path d="M107.91,52.39c0.22,0,0.4-0.15,0.4-0.33v-6.15c0-0.18-0.18-0.33-0.4-0.33h-2.71c-0.22,0-0.4,0.15-0.4,0.33v6.15
			c0,0.18,0.18,0.33,0.4,0.33H107.91z M105.6,46.25h1.91v5.48h-1.91V46.25z"/>
		<path d="M116.74,52.39c0.22,0,0.4-0.15,0.4-0.33v-6.15c0-0.18-0.18-0.33-0.4-0.33h-2.71c-0.22,0-0.4,0.15-0.4,0.33v6.15
			c0,0.18,0.18,0.33,0.4,0.33H116.74z M114.43,46.25h1.91v5.48h-1.91V46.25z"/>
		<path d="M87.89,38.5h33.02v3.22H85.57c-0.22,0-0.4,0.15-0.4,0.33s0.18,0.33,0.4,0.33h35.34v24.35c0,0.18,0.18,0.33,0.4,0.33
			c0.22,0,0.4-0.15,0.4-0.33V42.39h0.76c0.22,0,0.4-0.15,0.4-0.33s-0.18-0.33-0.4-0.33h-0.76V38.5h0.18c0.22,0,0.4-0.15,0.4-0.33
			c0-0.18-0.18-0.33-0.4-0.33h-34c-0.22,0-0.4,0.15-0.4,0.33C87.49,38.35,87.67,38.5,87.89,38.5z"/>
		<path d="M120.23,43.04H85.61c-0.22,0-0.4,0.15-0.4,0.33c0,0.18,0.18,0.33,0.4,0.33h34.62c0.22,0,0.4-0.15,0.4-0.33
			C120.63,43.19,120.45,43.04,120.23,43.04z"/>
		<path d="M120.63,44.61c0-0.18-0.18-0.33-0.4-0.33H85.61c-0.22,0-0.4,0.15-0.4,0.33s0.18,0.33,0.4,0.33h34.62
			C120.45,44.94,120.63,44.8,120.63,44.61z"/>
		<path d="M86.1,39.34v0.65c0,0.18,0.18,0.33,0.4,0.33s0.4-0.15,0.4-0.33v-0.65c0-0.18-0.18-0.33-0.4-0.33S86.1,39.16,86.1,39.34z"
			/>
		<path d="M88.35,39.99v-0.65c0-0.18-0.18-0.33-0.4-0.33s-0.4,0.15-0.4,0.33v0.65c0,0.18,0.18,0.33,0.4,0.33
			S88.35,40.17,88.35,39.99z"/>
		<path d="M89.8,39.99v-0.65c0-0.18-0.18-0.33-0.4-0.33S89,39.16,89,39.34v0.65c0,0.18,0.18,0.33,0.4,0.33S89.8,40.17,89.8,39.99z"
			/>
		<path d="M91.25,39.99v-0.65c0-0.18-0.18-0.33-0.4-0.33s-0.4,0.15-0.4,0.33v0.65c0,0.18,0.18,0.33,0.4,0.33
			S91.25,40.17,91.25,39.99z"/>
		<path d="M95.56,39.99v-0.65c0-0.18-0.18-0.33-0.4-0.33s-0.4,0.15-0.4,0.33v0.65c0,0.18,0.18,0.33,0.4,0.33
			S95.56,40.17,95.56,39.99z"/>
		<path d="M97.02,39.99v-0.65c0-0.18-0.18-0.33-0.4-0.33c-0.22,0-0.4,0.15-0.4,0.33v0.65c0,0.18,0.18,0.33,0.4,0.33
			C96.84,40.32,97.02,40.17,97.02,39.99z"/>
		<path d="M98.47,39.99v-0.65c0-0.18-0.18-0.33-0.4-0.33s-0.4,0.15-0.4,0.33v0.65c0,0.18,0.18,0.33,0.4,0.33
			S98.47,40.17,98.47,39.99z"/>
		<path d="M99.92,39.99v-0.65c0-0.18-0.18-0.33-0.4-0.33s-0.4,0.15-0.4,0.33v0.65c0,0.18,0.18,0.33,0.4,0.33
			S99.92,40.17,99.92,39.99z"/>
		<path d="M104.56,39.99v-0.65c0-0.18-0.18-0.33-0.4-0.33c-0.22,0-0.4,0.15-0.4,0.33v0.65c0,0.18,0.18,0.33,0.4,0.33
			C104.38,40.32,104.56,40.17,104.56,39.99z"/>
		<path d="M106.02,39.99v-0.65c0-0.18-0.18-0.33-0.4-0.33s-0.4,0.15-0.4,0.33v0.65c0,0.18,0.18,0.33,0.4,0.33
			S106.02,40.17,106.02,39.99z"/>
		<path d="M107.47,39.99v-0.65c0-0.18-0.18-0.33-0.4-0.33c-0.22,0-0.4,0.15-0.4,0.33v0.65c0,0.18,0.18,0.33,0.4,0.33
			C107.29,40.32,107.47,40.17,107.47,39.99z"/>
		<path d="M108.92,39.99v-0.65c0-0.18-0.18-0.33-0.4-0.33c-0.22,0-0.4,0.15-0.4,0.33v0.65c0,0.18,0.18,0.33,0.4,0.33
			C108.74,40.32,108.92,40.17,108.92,39.99z"/>
		<path d="M113.6,39.99v-0.65c0-0.18-0.18-0.33-0.4-0.33s-0.4,0.15-0.4,0.33v0.65c0,0.18,0.18,0.33,0.4,0.33
			S113.6,40.17,113.6,39.99z"/>
		<path d="M115.06,39.99v-0.65c0-0.18-0.18-0.33-0.4-0.33c-0.22,0-0.4,0.15-0.4,0.33v0.65c0,0.18,0.18,0.33,0.4,0.33
			C114.88,40.32,115.06,40.17,115.06,39.99z"/>
		<path d="M116.51,39.99v-0.65c0-0.18-0.18-0.33-0.4-0.33c-0.22,0-0.4,0.15-0.4,0.33v0.65c0,0.18,0.18,0.33,0.4,0.33
			C116.33,40.32,116.51,40.17,116.51,39.99z"/>
		<path d="M117.96,39.99v-0.65c0-0.18-0.18-0.33-0.4-0.33s-0.4,0.15-0.4,0.33v0.65c0,0.18,0.18,0.33,0.4,0.33
			S117.96,40.17,117.96,39.99z"/>
		<path d="M91.45,63.68c0.22,0,0.4-0.15,0.4-0.33v-0.07c0-0.18-0.18-0.33-0.4-0.33c-0.22,0-0.4,0.15-0.4,0.33v0.07
			C91.05,63.53,91.23,63.68,91.45,63.68z"/>
		<path d="M100.24,63.09c-0.22,0-0.4,0.15-0.4,0.33v0.07c0,0.18,0.18,0.33,0.4,0.33c0.22,0,0.4-0.15,0.4-0.33v-0.07
			C100.64,63.24,100.46,63.09,100.24,63.09z"/>
		<path d="M113.87,57.75c-0.22,0-0.4,0.15-0.4,0.33v6.15c0,0.18,0.18,0.33,0.4,0.33h2.71c0.22,0,0.4-0.15,0.4-0.33v-6.15
			c0-0.18-0.18-0.33-0.4-0.33H113.87z M116.19,63.9h-1.91v-5.48h1.91V63.9z"/>
		<path d="M118.53,56.95c0-0.18-0.18-0.33-0.4-0.33h-5.69c-0.22,0-0.4,0.15-0.4,0.33v5.82c0,0.18,0.18,0.33,0.4,0.33
			c0.22,0,0.4-0.15,0.4-0.33v-5.49h4.89v4.88c0,0.18,0.18,0.33,0.4,0.33s0.4-0.15,0.4-0.33V56.95z"/>
		<path d="M111.98,56.04c-0.12,0.16-0.06,0.36,0.13,0.46c0.07,0.03,0.14,0.05,0.21,0.05c0.13,0,0.26-0.06,0.34-0.16
			c0.39-0.52,1.45-1.26,2.59-1.28c0.02,0,0.03,0,0.05,0c0.89,0,1.69,0.43,2.39,1.29c0.12,0.15,0.37,0.19,0.55,0.09
			c0.18-0.1,0.23-0.31,0.1-0.46c-1.08-1.33-2.29-1.59-3.11-1.58C113.7,54.48,112.45,55.42,111.98,56.04z"/>
		<path d="M105.06,57.75c-0.22,0-0.4,0.15-0.4,0.33v6.15c0,0.18,0.18,0.33,0.4,0.33h2.71c0.22,0,0.4-0.15,0.4-0.33v-6.15
			c0-0.18-0.18-0.33-0.4-0.33H105.06z M107.37,63.9h-1.92v-5.48h1.92V63.9z"/>
		<path d="M109.32,62.5c0.22,0,0.4-0.15,0.4-0.33v-5.22c0-0.18-0.18-0.33-0.4-0.33h-5.69c-0.22,0-0.4,0.15-0.4,0.33v5.82
			c0,0.18,0.18,0.33,0.4,0.33c0.22,0,0.4-0.15,0.4-0.33v-5.49h4.89v4.88C108.92,62.35,109.1,62.5,109.32,62.5z"/>
		<path d="M103.16,56.39c0.07,0.11,0.21,0.16,0.34,0.16c0.07,0,0.14-0.01,0.2-0.05l2.73-1.33l2.55,1.33
			c0.19,0.1,0.43,0.05,0.55-0.11c0.12-0.16,0.06-0.36-0.13-0.46l-2.76-1.43c-0.13-0.07-0.28-0.07-0.41,0l-2.93,1.43
			C103.12,56.03,103.05,56.23,103.16,56.39z"/>
		<path d="M109.32,63.46c0.22,0,0.4-0.15,0.4-0.33v-0.07c0-0.18-0.18-0.33-0.4-0.33s-0.4,0.15-0.4,0.33v0.07
			C108.92,63.31,109.1,63.46,109.32,63.46z"/>
		<path d="M118.11,62.87c-0.22,0-0.4,0.15-0.4,0.33v0.07c0,0.18,0.18,0.33,0.4,0.33c0.22,0,0.4-0.15,0.4-0.33v-0.07
			C118.51,63.02,118.33,62.87,118.11,62.87z"/>
		<path d="M103.57,64.35c0.22,0,0.4-0.15,0.4-0.33v-0.07c0-0.18-0.18-0.33-0.4-0.33c-0.22,0-0.4,0.15-0.4,0.33v0.07
			C103.17,64.21,103.35,64.35,103.57,64.35z"/>
		<path d="M29.68,58.03c-0.22,0-0.4,0.15-0.4,0.33v6.15c0,0.18,0.18,0.33,0.4,0.33h2.71c0.22,0,0.4-0.15,0.4-0.33v-6.15
			c0-0.18-0.18-0.33-0.4-0.33H29.68z M31.99,64.17h-1.91v-5.48h1.91V64.17z"/>
		<path d="M33.82,63.38c0.22,0,0.4-0.15,0.4-0.33v-5.82c0-0.18-0.18-0.33-0.4-0.33h-5.69c-0.22,0-0.4,0.15-0.4,0.33v5.22
			c0,0.18,0.18,0.33,0.4,0.33c0.22,0,0.4-0.15,0.4-0.33v-4.88h4.89v5.49C33.42,63.23,33.6,63.38,33.82,63.38z"/>
		<path d="M34.28,56.32c-0.47-0.62-1.72-1.56-3.25-1.59c-0.82-0.01-2.03,0.25-3.11,1.58c-0.12,0.15-0.08,0.36,0.1,0.46
			c0.18,0.1,0.43,0.06,0.55-0.09c0.71-0.87,1.53-1.3,2.44-1.29c1.14,0.02,2.2,0.76,2.59,1.28c0.08,0.1,0.21,0.16,0.34,0.16
			c0.07,0,0.15-0.02,0.21-0.05C34.34,56.68,34.4,56.48,34.28,56.32z"/>
		<path d="M38.49,58.03c-0.22,0-0.4,0.15-0.4,0.33v6.15c0,0.18,0.18,0.33,0.4,0.33h2.71c0.22,0,0.4-0.15,0.4-0.33v-6.15
			c0-0.18-0.18-0.33-0.4-0.33H38.49z M40.81,64.17h-1.91v-5.48h1.91V64.17z"/>
		<path d="M42.63,63.38c0.22,0,0.4-0.15,0.4-0.33v-5.82c0-0.18-0.18-0.33-0.4-0.33h-5.69c-0.22,0-0.4,0.15-0.4,0.33v5.22
			c0,0.18,0.18,0.33,0.4,0.33c0.22,0,0.4-0.15,0.4-0.33v-4.88h4.89v5.49C42.24,63.23,42.41,63.38,42.63,63.38z"/>
		<path d="M43.1,56.67c0.11-0.16,0.05-0.36-0.14-0.46l-2.93-1.43c-0.13-0.06-0.29-0.06-0.41,0l-2.76,1.43
			c-0.19,0.1-0.24,0.3-0.13,0.46c0.12,0.16,0.36,0.2,0.55,0.11l2.55-1.33l2.73,1.33c0.06,0.03,0.13,0.05,0.2,0.05
			C42.89,56.83,43.02,56.77,43.1,56.67z"/>
		<path d="M41.07,52.45c0.22,0,0.4-0.15,0.4-0.33v-6.15c0-0.18-0.18-0.33-0.4-0.33h-2.71c-0.22,0-0.4,0.15-0.4,0.33v6.15
			c0,0.18,0.18,0.33,0.4,0.33H41.07z M38.76,46.3h1.91v5.48h-1.91V46.3z"/>
		<path d="M32.4,52.45c0.22,0,0.4-0.15,0.4-0.33v-6.15c0-0.18-0.18-0.33-0.4-0.33h-2.71c-0.22,0-0.4,0.15-0.4,0.33v6.15
			c0,0.18,0.18,0.33,0.4,0.33H32.4z M30.09,46.3H32v5.48h-1.91V46.3z"/>
		<path d="M23.19,52.45c0.22,0,0.4-0.15,0.4-0.33v-6.15c0-0.18-0.18-0.33-0.4-0.33h-2.71c-0.22,0-0.4,0.15-0.4,0.33v6.15
			c0,0.18,0.18,0.33,0.4,0.33H23.19z M20.87,46.3h1.91v5.48h-1.91V46.3z"/>
		<path d="M14.36,52.45c0.22,0,0.4-0.15,0.4-0.33v-6.15c0-0.18-0.18-0.33-0.4-0.33h-2.71c-0.22,0-0.4,0.15-0.4,0.33v6.15
			c0,0.18,0.18,0.33,0.4,0.33H14.36z M12.04,46.3h1.91v5.48h-1.91V46.3z"/>
		<path d="M5.92,42.44h0.76v24.35c0,0.18,0.18,0.33,0.4,0.33c0.22,0,0.4-0.15,0.4-0.33V42.44h35.34c0.22,0,0.4-0.15,0.4-0.33
			c0-0.18-0.18-0.33-0.4-0.33H7.48v-3.22H40.5c0.22,0,0.4-0.15,0.4-0.33c0-0.18-0.18-0.33-0.4-0.33h-34c-0.22,0-0.4,0.15-0.4,0.33
			c0,0.18,0.18,0.33,0.4,0.33h0.18v3.22H5.92c-0.22,0-0.4,0.15-0.4,0.33C5.52,42.29,5.7,42.44,5.92,42.44z"/>
		<path d="M42.78,43.1H8.16c-0.22,0-0.4,0.15-0.4,0.33c0,0.18,0.18,0.33,0.4,0.33h34.62c0.22,0,0.4-0.15,0.4-0.33
			C43.18,43.25,43,43.1,42.78,43.1z"/>
		<path d="M42.78,44.33H8.16c-0.22,0-0.4,0.15-0.4,0.33S7.94,45,8.16,45h34.62c0.22,0,0.4-0.15,0.4-0.33S43,44.33,42.78,44.33z"/>
		<path d="M41.89,40.38c0.22,0,0.4-0.15,0.4-0.33V39.4c0-0.18-0.18-0.33-0.4-0.33s-0.4,0.15-0.4,0.33v0.65
			C41.49,40.23,41.67,40.38,41.89,40.38z"/>
		<path d="M40.44,39.07c-0.22,0-0.4,0.15-0.4,0.33v0.65c0,0.18,0.18,0.33,0.4,0.33c0.22,0,0.4-0.15,0.4-0.33V39.4
			C40.84,39.21,40.66,39.07,40.44,39.07z"/>
		<path d="M38.59,39.4v0.65c0,0.18,0.18,0.33,0.4,0.33c0.22,0,0.4-0.15,0.4-0.33V39.4c0-0.18-0.18-0.33-0.4-0.33
			C38.77,39.07,38.59,39.21,38.59,39.4z"/>
		<path d="M37.13,39.4v0.65c0,0.18,0.18,0.33,0.4,0.33c0.22,0,0.4-0.15,0.4-0.33V39.4c0-0.18-0.18-0.33-0.4-0.33
			C37.31,39.07,37.13,39.21,37.13,39.4z"/>
		<path d="M32.82,39.4v0.65c0,0.18,0.18,0.33,0.4,0.33c0.22,0,0.4-0.15,0.4-0.33V39.4c0-0.18-0.18-0.33-0.4-0.33
			C33,39.07,32.82,39.21,32.82,39.4z"/>
		<path d="M31.37,39.4v0.65c0,0.18,0.18,0.33,0.4,0.33c0.22,0,0.4-0.15,0.4-0.33V39.4c0-0.18-0.18-0.33-0.4-0.33
			C31.55,39.07,31.37,39.21,31.37,39.4z"/>
		<path d="M29.92,39.4v0.65c0,0.18,0.18,0.33,0.4,0.33c0.22,0,0.4-0.15,0.4-0.33V39.4c0-0.18-0.18-0.33-0.4-0.33
			C30.1,39.07,29.92,39.21,29.92,39.4z"/>
		<path d="M28.47,39.4v0.65c0,0.18,0.18,0.33,0.4,0.33s0.4-0.15,0.4-0.33V39.4c0-0.18-0.18-0.33-0.4-0.33S28.47,39.21,28.47,39.4z"
			/>
		<path d="M23.82,39.4v0.65c0,0.18,0.18,0.33,0.4,0.33c0.22,0,0.4-0.15,0.4-0.33V39.4c0-0.18-0.18-0.33-0.4-0.33
			C24,39.07,23.82,39.21,23.82,39.4z"/>
		<path d="M22.37,39.4v0.65c0,0.18,0.18,0.33,0.4,0.33c0.22,0,0.4-0.15,0.4-0.33V39.4c0-0.18-0.18-0.33-0.4-0.33
			C22.55,39.07,22.37,39.21,22.37,39.4z"/>
		<path d="M20.92,39.4v0.65c0,0.18,0.18,0.33,0.4,0.33c0.22,0,0.4-0.15,0.4-0.33V39.4c0-0.18-0.18-0.33-0.4-0.33
			C21.1,39.07,20.92,39.21,20.92,39.4z"/>
		<path d="M19.47,39.4v0.65c0,0.18,0.18,0.33,0.4,0.33c0.22,0,0.4-0.15,0.4-0.33V39.4c0-0.18-0.18-0.33-0.4-0.33
			C19.64,39.07,19.47,39.21,19.47,39.4z"/>
		<path d="M14.78,39.4v0.65c0,0.18,0.18,0.33,0.4,0.33c0.22,0,0.4-0.15,0.4-0.33V39.4c0-0.18-0.18-0.33-0.4-0.33
			C14.96,39.07,14.78,39.21,14.78,39.4z"/>
		<path d="M13.33,39.4v0.65c0,0.18,0.18,0.33,0.4,0.33c0.22,0,0.4-0.15,0.4-0.33V39.4c0-0.18-0.18-0.33-0.4-0.33
			C13.51,39.07,13.33,39.21,13.33,39.4z"/>
		<path d="M11.88,39.4v0.65c0,0.18,0.18,0.33,0.4,0.33c0.22,0,0.4-0.15,0.4-0.33V39.4c0-0.18-0.18-0.33-0.4-0.33
			C12.06,39.07,11.88,39.21,11.88,39.4z"/>
		<path d="M10.42,39.4v0.65c0,0.18,0.18,0.33,0.4,0.33c0.22,0,0.4-0.15,0.4-0.33V39.4c0-0.18-0.18-0.33-0.4-0.33
			C10.6,39.07,10.42,39.21,10.42,39.4z"/>
		<path d="M36.94,63c-0.22,0-0.4,0.15-0.4,0.33v0.07c0,0.18,0.18,0.33,0.4,0.33c0.22,0,0.4-0.15,0.4-0.33v-0.07
			C37.34,63.15,37.16,63,36.94,63z"/>
		<path d="M28.15,63.15c-0.22,0-0.4,0.15-0.4,0.33v0.07c0,0.18,0.18,0.33,0.4,0.33s0.4-0.15,0.4-0.33v-0.07
			C28.55,63.3,28.37,63.15,28.15,63.15z"/>
		<path d="M11.8,57.8c-0.22,0-0.4,0.15-0.4,0.33v6.15c0,0.18,0.18,0.33,0.4,0.33h2.71c0.22,0,0.4-0.15,0.4-0.33v-6.15
			c0-0.18-0.18-0.33-0.4-0.33H11.8z M14.12,63.95H12.2v-5.48h1.91V63.95z"/>
		<path d="M15.94,63.16c0.22,0,0.4-0.15,0.4-0.33V57c0-0.18-0.18-0.33-0.4-0.33h-5.69c-0.22,0-0.4,0.15-0.4,0.33v5.22
			c0,0.18,0.18,0.33,0.4,0.33c0.22,0,0.4-0.15,0.4-0.33v-4.88h4.89v5.49C15.55,63.01,15.72,63.16,15.94,63.16z"/>
		<path d="M16.4,56.1c-0.47-0.62-1.72-1.56-3.25-1.59c-0.82-0.01-2.03,0.25-3.11,1.58c-0.12,0.15-0.08,0.36,0.1,0.46
			c0.18,0.1,0.43,0.06,0.55-0.09c0.71-0.87,1.53-1.3,2.44-1.29c1.14,0.02,2.2,0.76,2.59,1.28c0.08,0.1,0.21,0.16,0.34,0.16
			c0.07,0,0.15-0.02,0.21-0.05C16.46,56.46,16.52,56.26,16.4,56.1z"/>
		<path d="M20.62,57.8c-0.22,0-0.4,0.15-0.4,0.33v6.15c0,0.18,0.18,0.33,0.4,0.33h2.71c0.22,0,0.4-0.15,0.4-0.33v-6.15
			c0-0.18-0.18-0.33-0.4-0.33H20.62z M22.93,63.95h-1.91v-5.48h1.91V63.95z"/>
		<path d="M24.76,63.16c0.22,0,0.4-0.15,0.4-0.33V57c0-0.18-0.18-0.33-0.4-0.33h-5.69c-0.22,0-0.4,0.15-0.4,0.33v5.22
			c0,0.18,0.18,0.33,0.4,0.33c0.22,0,0.4-0.15,0.4-0.33v-4.88h4.89v5.49C24.36,63.01,24.54,63.16,24.76,63.16z"/>
		<path d="M25.08,55.99l-2.93-1.43c-0.13-0.06-0.29-0.06-0.41,0l-2.76,1.43c-0.19,0.1-0.24,0.3-0.13,0.46
			c0.12,0.16,0.36,0.2,0.55,0.11l2.55-1.33l2.73,1.33c0.06,0.03,0.13,0.05,0.2,0.05c0.14,0,0.27-0.06,0.34-0.16
			C25.34,56.29,25.27,56.08,25.08,55.99z"/>
		<path d="M19.07,62.78c-0.22,0-0.4,0.15-0.4,0.33v0.07c0,0.18,0.18,0.33,0.4,0.33c0.22,0,0.4-0.15,0.4-0.33v-0.07
			C19.46,62.93,19.29,62.78,19.07,62.78z"/>
		<path d="M10.27,62.93c-0.22,0-0.4,0.15-0.4,0.33v0.07c0,0.18,0.18,0.33,0.4,0.33s0.4-0.15,0.4-0.33v-0.07
			C10.67,63.08,10.49,62.93,10.27,62.93z"/>
		<path d="M24.82,64.41c0.22,0,0.4-0.15,0.4-0.33v-0.07c0-0.18-0.18-0.33-0.4-0.33s-0.4,0.15-0.4,0.33v0.07
			C24.42,64.26,24.6,64.41,24.82,64.41z"/>
		<path d="M124.72,67.84H3.99c-0.22,0-0.4,0.15-0.4,0.33s0.18,0.33,0.4,0.33h120.73c0.22,0,0.4-0.15,0.4-0.33
			S124.94,67.84,124.72,67.84z"/>
		<g>
			<path d="M44.62,33.85h-1.29c-0.22,0-0.4-0.15-0.4-0.34c0-0.19,0.18-0.34,0.4-0.34h1.29c0.22,0,0.4,0.15,0.4,0.34
				C45.02,33.7,44.84,33.85,44.62,33.85z"/>
		</g>
		<path d="M38.76,34.57h-1.11c-0.03,0-0.06,0-0.09,0.01h-1.63c-0.03-0.01-0.06-0.01-0.09-0.01h-1.11c-0.21,0-0.38,0.14-0.38,0.32
			c0,0.18,0.17,0.32,0.38,0.32h0.42v2.05c0,0.18,0.18,0.33,0.4,0.33c0.22,0,0.4-0.15,0.4-0.33v-2.01h1.53v1.93
			c0,0.18,0.18,0.33,0.4,0.33c0.22,0,0.4-0.15,0.4-0.33v-1.97h0.48c0.21,0,0.38-0.14,0.38-0.32C39.14,34.71,38.97,34.57,38.76,34.57
			z"/>
	</g>
</g>
</svg>
